%
M48
M72
T01C0.0240
T02C0.0276
T03C0.0315
T04C0.0320
T05C0.0354
T06C0.0394
T07C0.0400
T08C0.0433
T09C0.0440
T10C0.0469
T11C0.0500
T12C0.0512
T13C0.0866
T14C0.0906
T15C0.1260
T16C0.1280
T17C0.1488
%
T01
X27903Y21756
X24903Y39381
X26278Y41506
X20403Y46006
X18778Y49631
X15403Y45756
X15403Y45006
X26653Y65006
X28528Y65006
X25653Y68506
X25403Y69506
X25778Y70006
X26153Y70506
X23903Y73006
X20403Y72006
X20028Y71506
X19653Y69881
X21528Y66881
X22903Y68006
X23903Y67506
X15028Y73881
X11028Y74381
X10653Y75006
X10653Y75756
X9028Y73881
X7778Y72881
X7778Y75006
X3528Y74881
X34778Y73631
X35278Y73006
X36153Y72256
X37278Y69256
X37653Y68756
X39028Y69756
X40153Y69256
X40528Y70756
X40528Y73381
X39403Y75006
X40653Y75381
X43528Y73381
X43653Y70756
X46028Y69256
X46653Y69506
X47153Y69131
X44778Y68256
X41903Y66256
X41278Y66381
X41403Y67756
X39153Y65756
X39153Y65006
X40278Y63506
X42153Y64131
X35403Y67006
X48653Y65381
X64653Y50756
X59528Y20631
X61153Y17006
X56153Y16756
X56153Y16006
X65653Y10381
X67028Y12506
T02
X48653Y12256
X48653Y13256
X42653Y13256
X42653Y12256
X42653Y19256
X42653Y21256
X48653Y21256
X48653Y19256
X7903Y41256
X7903Y42256
X7903Y48256
X7903Y50256
X1903Y50256
X1903Y48256
X1903Y42256
X1903Y41256
X23403Y65506
X24403Y66756
T03
X21903Y48256
X24903Y47256
X25903Y47256
X25903Y43256
X24903Y43256
X28903Y38256
X31403Y38756
X32903Y38756
X32903Y42756
X31403Y42756
X28903Y34256
X19403Y35756
X16403Y35756
X14903Y35756
X13403Y35756
X13403Y39756
X14903Y39756
X16403Y39756
X19403Y39756
X17903Y48256
X13103Y26456
X13103Y25156
X9103Y25156
X9103Y26456
X18503Y21656
X19803Y21556
X19803Y17556
X18503Y17656
X21303Y10256
X22303Y10256
X23903Y8256
X24903Y8256
X22303Y6256
X21303Y6256
X23903Y4256
X24903Y4256
X29003Y4256
X30103Y4256
X30103Y8256
X29003Y8256
X12403Y6356
X11103Y6356
X7103Y6356
X5803Y6356
X5803Y2356
X7103Y2356
X11103Y2356
X12403Y2356
X42553Y31356
X43853Y31356
X43853Y35356
X42553Y35356
X47853Y35356
X49153Y35356
X49153Y31356
X47853Y31356
X58053Y35256
X59053Y35256
X60653Y37256
X61653Y37256
X59053Y39256
X58053Y39256
X60653Y33256
X61653Y33256
X65753Y33256
X66853Y33256
X66853Y37256
X65753Y37256
X56553Y46556
X55253Y46656
X55253Y50656
X56553Y50556
X49853Y54156
X49853Y55456
X45853Y55456
X45853Y54156
X58653Y19256
X62653Y19256
X65653Y18256
X66653Y18256
X66653Y14256
X65653Y14256
X69653Y9256
X72153Y9756
X73653Y9756
X73653Y13756
X72153Y13756
X69653Y5256
X60153Y6756
X57153Y6756
X55653Y6756
X54153Y6756
X54153Y10756
X55653Y10756
X57153Y10756
X60153Y10756
T04
X56953Y34056
X56953Y35056
X56953Y36056
X56953Y37056
X56853Y39156
X56853Y40156
X56853Y41156
X56853Y42156
X53853Y42156
X53853Y41156
X53853Y40156
X53853Y39156
X52253Y37856
X51153Y37756
X53953Y37056
X53953Y36056
X53953Y35056
X53953Y34056
X52253Y33856
X51153Y33756
X63853Y39256
X63853Y40256
X63853Y41256
X63853Y42256
X66853Y42256
X66853Y41256
X66853Y40256
X66853Y39256
X66853Y46756
X66853Y47756
X66853Y48756
X66853Y49756
X63853Y49756
X63853Y48756
X63853Y47756
X63853Y46756
X63403Y60756
X63403Y61756
X63403Y68756
X63403Y69756
X74403Y69756
X74403Y68756
X74403Y61756
X74403Y60756
X49653Y52156
X49653Y51156
X49653Y50156
X49653Y49156
X46653Y49156
X46653Y50156
X46653Y51156
X46653Y52156
X27903Y66306
X27903Y67706
X27903Y69806
X27903Y71206
X24103Y74756
X22703Y74756
X17903Y69956
X17903Y68556
X12903Y23156
X12903Y22156
X12903Y21156
X12903Y20156
X9903Y20156
X9903Y21156
X9903Y22156
X9903Y23156
X17103Y13156
X17103Y12156
X17103Y11156
X17103Y10156
X15503Y8856
X14403Y8756
X17203Y8056
X17203Y7056
X17203Y6056
X17203Y5056
X15503Y4856
X14403Y4756
X20203Y5056
X20203Y6056
X20203Y7056
X20203Y8056
X20103Y10156
X20103Y11156
X20103Y12156
X20103Y13156
X27103Y13256
X27103Y12256
X27103Y11256
X27103Y10256
X30103Y10256
X30103Y11256
X30103Y12256
X30103Y13256
X30103Y17756
X30103Y18756
X30103Y19756
X30103Y20756
X27103Y20756
X27103Y19756
X27103Y18756
X27103Y17756
T05
X34153Y65256
X35153Y65256
X34653Y66256
X35653Y66256
X36653Y66256
X37653Y66256
X37153Y65256
X36153Y65256
X43653Y65256
X44153Y66256
X45153Y66256
X44653Y65256
X45653Y65256
X46653Y65256
X46153Y66256
X47153Y66256
T06
X41453Y55756
X41453Y54756
X42309Y53178
X44309Y53178
X43930Y50931
X42930Y50931
X51753Y49056
X51753Y48056
X55253Y44156
X56253Y44156
X59053Y42556
X59053Y40556
X62353Y41256
X62353Y39256
X68853Y38556
X69853Y38556
X69853Y41356
X68853Y41356
X62353Y46756
X60953Y46756
X60953Y48756
X62353Y48756
X65753Y52356
X66753Y52356
X66753Y55356
X65753Y55356
X52453Y42156
X52453Y40156
X54953Y32056
X55953Y32056
X45753Y32356
X45753Y31356
X30003Y26356
X29003Y26356
X29003Y23356
X30003Y23356
X25603Y19756
X24203Y19756
X24203Y17756
X25603Y17756
X22303Y13556
X22303Y11556
X25603Y12256
X25603Y10256
X32103Y9556
X33103Y9556
X33103Y12356
X32103Y12356
X19503Y15156
X18503Y15156
X15703Y13156
X15703Y11156
X15003Y19056
X15003Y20056
X14903Y25256
X7559Y24178
X5559Y24178
X4703Y25756
X4703Y26756
X6180Y21931
X7180Y21931
X9003Y3356
X9003Y2356
X18203Y3056
X19203Y3056
X27903Y31756
X28903Y31756
X24903Y40256
X24903Y41256
X21403Y41256
X21403Y40256
X17903Y41756
X16903Y41756
X51653Y54256
X57653Y12756
X58653Y12756
X62153Y12256
X62153Y11256
X65653Y11256
X65653Y12256
X68653Y2756
X69653Y2756
T07
X65653Y2256
X64653Y2256
X63653Y2256
X62653Y2256
X61653Y2256
X60653Y2256
X58153Y27256
X57153Y27256
X56153Y27256
X55153Y27256
X60653Y31256
X61653Y31256
X62653Y31256
X63653Y31256
X64653Y31256
X65653Y31256
X58153Y52756
X57153Y52756
X56153Y52756
X56153Y56256
X57153Y56256
X58153Y56256
X55153Y56256
X57903Y60256
X57903Y61256
X57903Y62256
X57903Y63256
X57903Y68256
X57903Y69256
X57903Y70256
X57903Y71256
X49403Y75756
X48403Y75756
X47403Y75756
X46403Y75756
X39903Y75756
X38903Y75756
X37903Y75756
X36903Y75756
X17403Y56256
X16403Y56256
X15403Y56256
X14403Y56256
X13403Y75756
X12403Y75756
X11403Y75756
X8403Y75756
X7403Y75756
X6403Y75756
X5403Y75756
X4403Y75756
X19903Y31256
X20903Y31256
X21903Y31256
X22903Y31256
X23903Y31256
X24903Y31256
X21403Y27256
X20403Y27256
X19403Y27256
X18403Y27256
X19403Y23756
X20403Y23756
X21403Y23756
X23903Y2256
X24903Y2256
X25903Y2256
X26903Y2256
X27903Y2256
X28903Y2256
X68903Y60256
X68903Y61256
X68903Y62256
X68903Y63256
X68903Y68256
X68903Y69256
X68903Y70256
X68903Y71256
T08
X48090Y45493
X40216Y45493
X42185Y37619
X46122Y37619
X50653Y12256
X48903Y5506
X11340Y16493
X3466Y16493
X5435Y8619
X9372Y8619
X8153Y34506
X9903Y41256
T09
X10903Y39756
X13903Y43256
X13903Y47256
X10903Y35756
X51653Y10756
X54653Y14256
X54653Y18256
X51653Y6756
T10
X26021Y62947
X24943Y62947
X23864Y62947
X24403Y63947
X23324Y63947
X22785Y62947
X22246Y63947
X25482Y63947
X26561Y63947
T11
X3334Y36256
X1972Y33256
X42722Y4256
X44084Y7256
T12
X46669Y2559
X48637Y2559
X46637Y26953
X44669Y26953
X38956Y48272
X38956Y50240
X38956Y54272
X38956Y56240
X7887Y31559
X5919Y31559
X2206Y27240
X2206Y25272
X2206Y21240
X2206Y19272
X3919Y55953
X5887Y55953
T13
X1903Y23256
X38653Y52256
T14
X15990Y62756
X10817Y62756
X8490Y62756
X3317Y62756
T15
X2403Y3256
X15903Y2756
X37903Y2756
X52653Y2756
X74653Y2756
X74653Y26756
X74653Y31756
X52653Y31756
X52653Y26756
X39153Y32256
X33903Y31756
X37903Y26756
X15903Y26756
X11903Y31756
X11903Y55756
X19482Y63506
X29324Y63506
X33903Y55756
X52653Y55756
X52403Y60256
X52403Y76256
X74653Y55756
X1903Y60256
X1903Y76256
T16
X33653Y62756
X38153Y62756
X43153Y62756
X47653Y62756
T17
X2653Y34756
X43403Y5756
M30
