G75*
G70*
%OFA0B0*%
%FSLAX24Y24*%
%IPPOS*%
%LPD*%
%AMOC8*
5,1,8,0,0,1.08239X$1,22.5*
%
%ADD10R,0.0840X0.0840*%
%ADD11R,0.0946X0.0316*%
%ADD12OC8,0.0595*%
%ADD13OC8,0.0710*%
%ADD14C,0.0710*%
%ADD15R,0.0316X0.0946*%
%ADD16OC8,0.1080*%
%ADD17R,0.0316X0.0671*%
%ADD18C,0.0740*%
%ADD19R,0.0926X0.0789*%
%ADD20R,0.0513X0.0474*%
%ADD21R,0.0474X0.0513*%
%ADD22C,0.1568*%
%ADD23C,0.1080*%
%ADD24OC8,0.0780*%
%ADD25R,0.0780X0.0780*%
%ADD26OC8,0.0674*%
%ADD27C,0.0600*%
%ADD28C,0.1580*%
%ADD29C,0.0600*%
%ADD30R,0.0434X0.0356*%
%ADD31OC8,0.0600*%
%ADD32C,0.1340*%
%ADD33C,0.0783*%
%ADD34C,0.0986*%
%ADD35R,0.0533X0.1458*%
%ADD36R,0.0880X0.0340*%
%ADD37C,0.1360*%
%ADD38C,0.0634*%
%ADD39R,0.0340X0.0880*%
%ADD40R,0.0671X0.0592*%
%ADD41R,0.0671X0.0316*%
%ADD42R,0.0789X0.0710*%
%ADD43C,0.0592*%
%ADD44R,0.0560X0.0960*%
%ADD45R,0.1497X0.0946*%
%ADD46R,0.1064X0.0848*%
%ADD47R,0.1084X0.1064*%
%ADD48C,0.0480*%
%ADD49C,0.0730*%
%ADD50R,0.1740X0.1740*%
%ADD51C,0.0671*%
%ADD52R,0.1346X0.1346*%
%ADD53C,0.0516*%
D10*
X001903Y041256D03*
X001903Y042256D03*
X001903Y048256D03*
X001903Y050256D03*
X007903Y050256D03*
X007903Y048256D03*
X007903Y042256D03*
X007903Y041256D03*
X042653Y021256D03*
X042653Y019256D03*
X042653Y013256D03*
X042653Y012256D03*
X048653Y012256D03*
X048653Y013256D03*
X048653Y019256D03*
X048653Y021256D03*
D11*
X057130Y017006D03*
X057130Y016506D03*
X057130Y016006D03*
X057130Y015506D03*
X059177Y015506D03*
X059177Y016006D03*
X059177Y016506D03*
X059177Y017006D03*
X062130Y017006D03*
X062130Y016506D03*
X062130Y016006D03*
X062130Y015506D03*
X064177Y015506D03*
X064177Y016006D03*
X064177Y016506D03*
X064177Y017006D03*
X044377Y054606D03*
X044377Y055106D03*
X044377Y055606D03*
X044377Y056106D03*
X042330Y056106D03*
X042330Y055606D03*
X042330Y055106D03*
X042330Y054606D03*
X023427Y046006D03*
X023427Y045506D03*
X023427Y045006D03*
X023427Y044506D03*
X021380Y044506D03*
X021380Y045006D03*
X021380Y045506D03*
X021380Y046006D03*
X018427Y046006D03*
X018427Y045506D03*
X018427Y045006D03*
X018427Y044506D03*
X016380Y044506D03*
X016380Y045006D03*
X016380Y045506D03*
X016380Y046006D03*
X007627Y027106D03*
X007627Y026606D03*
X007627Y026106D03*
X007627Y025606D03*
X005580Y025606D03*
X005580Y026106D03*
X005580Y026606D03*
X005580Y027106D03*
D12*
X009103Y026456D03*
X009103Y025156D03*
X013103Y025156D03*
X013103Y026456D03*
X018503Y021656D03*
X019803Y021556D03*
X019803Y017556D03*
X018503Y017656D03*
X021303Y010256D03*
X022303Y010256D03*
X023903Y008256D03*
X024903Y008256D03*
X022303Y006256D03*
X021303Y006256D03*
X023903Y004256D03*
X024903Y004256D03*
X029003Y004256D03*
X030103Y004256D03*
X030103Y008256D03*
X029003Y008256D03*
X012403Y006356D03*
X011103Y006356D03*
X007103Y006356D03*
X005803Y006356D03*
X005803Y002356D03*
X007103Y002356D03*
X011103Y002356D03*
X012403Y002356D03*
X042553Y031356D03*
X043853Y031356D03*
X043853Y035356D03*
X042553Y035356D03*
X047853Y035356D03*
X049153Y035356D03*
X049153Y031356D03*
X047853Y031356D03*
X058053Y035256D03*
X059053Y035256D03*
X060653Y037256D03*
X061653Y037256D03*
X059053Y039256D03*
X058053Y039256D03*
X060653Y033256D03*
X061653Y033256D03*
X065753Y033256D03*
X066853Y033256D03*
X066853Y037256D03*
X065753Y037256D03*
X056553Y046556D03*
X055253Y046656D03*
X055253Y050656D03*
X056553Y050556D03*
X049853Y054156D03*
X049853Y055456D03*
X045853Y055456D03*
X045853Y054156D03*
X032903Y042756D03*
X031403Y042756D03*
X031403Y038756D03*
X032903Y038756D03*
X028903Y038256D03*
X028903Y034256D03*
X025903Y043256D03*
X024903Y043256D03*
X024903Y047256D03*
X025903Y047256D03*
X021903Y048256D03*
X017903Y048256D03*
X016403Y039756D03*
X014903Y039756D03*
X013403Y039756D03*
X013403Y035756D03*
X014903Y035756D03*
X016403Y035756D03*
X019403Y035756D03*
X019403Y039756D03*
X054153Y010756D03*
X055653Y010756D03*
X057153Y010756D03*
X060153Y010756D03*
X060153Y006756D03*
X057153Y006756D03*
X055653Y006756D03*
X054153Y006756D03*
X065653Y014256D03*
X066653Y014256D03*
X066653Y018256D03*
X065653Y018256D03*
X062653Y019256D03*
X058653Y019256D03*
X069653Y009256D03*
X072153Y009756D03*
X073653Y009756D03*
X073653Y013756D03*
X072153Y013756D03*
X069653Y005256D03*
D13*
X068653Y002756D03*
X065653Y012256D03*
X062153Y012256D03*
X057653Y012756D03*
X045753Y031356D03*
X054953Y032056D03*
X055253Y044156D03*
X051753Y048056D03*
X043930Y050931D03*
X027903Y067706D03*
X027903Y071206D03*
X024103Y074756D03*
X017903Y069956D03*
X016903Y041756D03*
X021403Y041256D03*
X024903Y041256D03*
X027903Y031756D03*
X029003Y026356D03*
X029003Y023356D03*
X018503Y015156D03*
X015003Y019056D03*
X007180Y021931D03*
X018203Y003056D03*
X009003Y002356D03*
X033103Y009556D03*
X033103Y012356D03*
X069853Y038556D03*
X069853Y041356D03*
X065753Y052356D03*
X065753Y055356D03*
D14*
X066753Y055356D03*
X066753Y052356D03*
X068853Y041356D03*
X068853Y038556D03*
X056253Y044156D03*
X051753Y049056D03*
X042930Y050931D03*
X027903Y066306D03*
X027903Y069806D03*
X022703Y074756D03*
X017903Y068556D03*
X017903Y041756D03*
X021403Y040256D03*
X024903Y040256D03*
X028903Y031756D03*
X030003Y026356D03*
X030003Y023356D03*
X032103Y012356D03*
X032103Y009556D03*
X019503Y015156D03*
X015003Y020056D03*
X006180Y021931D03*
X009003Y003356D03*
X019203Y003056D03*
X045753Y032356D03*
X055953Y032056D03*
X058653Y012756D03*
X062153Y011256D03*
X065653Y011256D03*
X069653Y002756D03*
D15*
X069403Y010732D03*
X068903Y010732D03*
X069903Y010732D03*
X070403Y010732D03*
X070403Y012780D03*
X069903Y012780D03*
X069403Y012780D03*
X068903Y012780D03*
X029653Y039732D03*
X029153Y039732D03*
X028653Y039732D03*
X028153Y039732D03*
X028153Y041780D03*
X028653Y041780D03*
X029153Y041780D03*
X029653Y041780D03*
D16*
X038956Y048272D03*
X038956Y050240D03*
X038956Y054272D03*
X038956Y056240D03*
X044669Y026953D03*
X046637Y026953D03*
X046669Y002559D03*
X048637Y002559D03*
X007887Y031559D03*
X005919Y031559D03*
X002206Y027240D03*
X002206Y025272D03*
X002206Y021240D03*
X002206Y019272D03*
X003919Y055953D03*
X005887Y055953D03*
D17*
X011153Y046839D03*
X011653Y046839D03*
X012153Y046839D03*
X012653Y046839D03*
X012653Y044673D03*
X012153Y044673D03*
X011653Y044673D03*
X011153Y044673D03*
X051903Y017839D03*
X052403Y017839D03*
X052903Y017839D03*
X053403Y017839D03*
X053403Y015673D03*
X052903Y015673D03*
X052403Y015673D03*
X051903Y015673D03*
D18*
X054653Y014256D03*
X051653Y010756D03*
X051653Y006756D03*
X054653Y018256D03*
X013903Y043256D03*
X010903Y039756D03*
X010903Y035756D03*
X013903Y047256D03*
D19*
X012484Y048256D03*
X011322Y048256D03*
X011322Y043256D03*
X012484Y043256D03*
X052072Y019256D03*
X053234Y019256D03*
X053234Y014256D03*
X052072Y014256D03*
D20*
X057819Y014756D03*
X058488Y014756D03*
X017738Y043756D03*
X017069Y043756D03*
D21*
X026903Y041091D03*
X026903Y040421D03*
X035903Y072921D03*
X035903Y073591D03*
X067653Y012091D03*
X067653Y011421D03*
D22*
X043403Y005756D03*
X002653Y034756D03*
D23*
X001972Y033256D03*
X003334Y036256D03*
X042722Y004256D03*
X044084Y007256D03*
D24*
X028903Y002256D03*
X027903Y002256D03*
X026903Y002256D03*
X025903Y002256D03*
X024903Y002256D03*
X021403Y023756D03*
X020403Y023756D03*
X020403Y027256D03*
X019403Y027256D03*
X018403Y027256D03*
X020903Y031256D03*
X021903Y031256D03*
X022903Y031256D03*
X023903Y031256D03*
X024903Y031256D03*
X016403Y056256D03*
X015403Y056256D03*
X014403Y056256D03*
X013403Y075756D03*
X012403Y075756D03*
X008403Y075756D03*
X007403Y075756D03*
X006403Y075756D03*
X005403Y075756D03*
X037903Y075756D03*
X038903Y075756D03*
X039903Y075756D03*
X047403Y075756D03*
X048403Y075756D03*
X049403Y075756D03*
X057903Y071256D03*
X057903Y070256D03*
X057903Y069256D03*
X057903Y063256D03*
X057903Y062256D03*
X057903Y061256D03*
X057153Y056256D03*
X056153Y056256D03*
X055153Y056256D03*
X057153Y052756D03*
X058153Y052756D03*
X068903Y061256D03*
X068903Y062256D03*
X068903Y063256D03*
X068903Y069256D03*
X068903Y070256D03*
X068903Y071256D03*
X065653Y031256D03*
X064653Y031256D03*
X063653Y031256D03*
X062653Y031256D03*
X061653Y031256D03*
X057153Y027256D03*
X056153Y027256D03*
X055153Y027256D03*
X061653Y002256D03*
X062653Y002256D03*
X063653Y002256D03*
X064653Y002256D03*
X065653Y002256D03*
D25*
X060653Y002256D03*
X058153Y027256D03*
X060653Y031256D03*
X056153Y052756D03*
X058153Y056256D03*
X057903Y060256D03*
X057903Y068256D03*
X068903Y068256D03*
X068903Y060256D03*
X046403Y075756D03*
X036903Y075756D03*
X017403Y056256D03*
X011403Y075756D03*
X004403Y075756D03*
X019903Y031256D03*
X021403Y027256D03*
X019403Y023756D03*
X023903Y002256D03*
D26*
X025603Y010256D03*
X025603Y012256D03*
X022303Y011556D03*
X022303Y013556D03*
X024203Y017756D03*
X025603Y017756D03*
X025603Y019756D03*
X024203Y019756D03*
X015703Y013156D03*
X015703Y011156D03*
X007559Y024178D03*
X005559Y024178D03*
X042309Y053178D03*
X044309Y053178D03*
X052453Y042156D03*
X052453Y040156D03*
X059053Y040556D03*
X059053Y042556D03*
X062353Y041256D03*
X062353Y039256D03*
X062353Y046756D03*
X060953Y046756D03*
X060953Y048756D03*
X062353Y048756D03*
D27*
X063853Y048756D03*
X063853Y049756D03*
X063853Y047756D03*
X063853Y046756D03*
X066853Y046756D03*
X066853Y047756D03*
X066853Y048756D03*
X066853Y049756D03*
X066853Y042256D03*
X066853Y041256D03*
X066853Y040256D03*
X066853Y039256D03*
X063853Y039256D03*
X063853Y040256D03*
X063853Y041256D03*
X063853Y042256D03*
X056953Y037056D03*
X056953Y036056D03*
X056953Y035056D03*
X056953Y034056D03*
X053953Y034056D03*
X053953Y035056D03*
X053953Y036056D03*
X053953Y037056D03*
X053853Y039156D03*
X053853Y040156D03*
X053853Y041156D03*
X053853Y042156D03*
X056853Y042156D03*
X056853Y041156D03*
X056853Y040156D03*
X056853Y039156D03*
X049653Y049156D03*
X049653Y050156D03*
X049653Y051156D03*
X049653Y052156D03*
X046653Y052156D03*
X046653Y051156D03*
X046653Y050156D03*
X046653Y049156D03*
X030103Y020756D03*
X030103Y019756D03*
X030103Y018756D03*
X030103Y017756D03*
X027103Y017756D03*
X027103Y018756D03*
X027103Y019756D03*
X027103Y020756D03*
X027103Y013256D03*
X027103Y012256D03*
X027103Y011256D03*
X027103Y010256D03*
X030103Y010256D03*
X030103Y011256D03*
X030103Y012256D03*
X030103Y013256D03*
X020103Y013156D03*
X020103Y012156D03*
X020103Y011156D03*
X020103Y010156D03*
X020203Y008056D03*
X020203Y007056D03*
X020203Y006056D03*
X020203Y005056D03*
X017203Y005056D03*
X017203Y006056D03*
X017203Y007056D03*
X017203Y008056D03*
X017103Y010156D03*
X017103Y011156D03*
X017103Y012156D03*
X017103Y013156D03*
X012903Y020156D03*
X012903Y021156D03*
X012903Y022156D03*
X012903Y023156D03*
X009903Y023156D03*
X009903Y022156D03*
X009903Y021156D03*
X009903Y020156D03*
D28*
X011340Y016493D03*
X003466Y016493D03*
X005435Y008619D03*
X009372Y008619D03*
X042185Y037619D03*
X046122Y037619D03*
X048090Y045493D03*
X040216Y045493D03*
D29*
X051153Y038016D02*
X051153Y037496D01*
X052253Y037596D02*
X052253Y038116D01*
X052253Y034116D02*
X052253Y033596D01*
X051153Y033496D02*
X051153Y034016D01*
X015503Y009116D02*
X015503Y008596D01*
X014403Y008496D02*
X014403Y009016D01*
X014403Y005016D02*
X014403Y004496D01*
X015503Y004596D02*
X015503Y005116D01*
D30*
X060261Y061008D03*
X060261Y061382D03*
X060261Y061756D03*
X061403Y061756D03*
X061403Y061382D03*
X061403Y061008D03*
X061403Y069008D03*
X061403Y069382D03*
X061403Y069756D03*
X060261Y069756D03*
X060261Y069382D03*
X060261Y069008D03*
X071261Y069008D03*
X071261Y069382D03*
X071261Y069756D03*
X072403Y069756D03*
X072403Y069382D03*
X072403Y069008D03*
X072403Y061756D03*
X072403Y061382D03*
X072403Y061008D03*
X071261Y061008D03*
X071261Y061382D03*
X071261Y061756D03*
D31*
X074403Y061756D03*
X074403Y060756D03*
X074403Y068756D03*
X074403Y069756D03*
X063403Y069756D03*
X063403Y068756D03*
X063403Y061756D03*
X063403Y060756D03*
D32*
X029324Y063506D03*
X019482Y063506D03*
D33*
X022246Y063947D03*
X022785Y062947D03*
X023324Y063947D03*
X024403Y063947D03*
X023864Y062947D03*
X024943Y062947D03*
X026021Y062947D03*
X025482Y063947D03*
X026561Y063947D03*
D34*
X015990Y062756D03*
X010817Y062756D03*
X008490Y062756D03*
X003317Y062756D03*
D35*
X004525Y064157D03*
X005509Y064157D03*
X006297Y064157D03*
X007281Y064157D03*
X012025Y064157D03*
X013009Y064157D03*
X013797Y064157D03*
X014781Y064157D03*
D36*
X022193Y068506D03*
X022193Y069006D03*
X022193Y069506D03*
X022193Y070006D03*
X022193Y070506D03*
X022193Y071006D03*
X022193Y071506D03*
X022193Y072006D03*
X024613Y072006D03*
X024613Y071506D03*
X024613Y071006D03*
X024613Y070506D03*
X024613Y070006D03*
X024613Y069506D03*
X024613Y069006D03*
X024613Y068506D03*
D37*
X033653Y062756D03*
X038153Y062756D03*
X043153Y062756D03*
X047653Y062756D03*
D38*
X046653Y065256D03*
X045653Y065256D03*
X044653Y065256D03*
X044153Y066256D03*
X045153Y066256D03*
X046153Y066256D03*
X047153Y066256D03*
X043653Y065256D03*
X037653Y066256D03*
X036653Y066256D03*
X035653Y066256D03*
X034653Y066256D03*
X034153Y065256D03*
X035153Y065256D03*
X036153Y065256D03*
X037153Y065256D03*
D39*
X036903Y070546D03*
X037403Y070546D03*
X037903Y070546D03*
X038403Y070546D03*
X038903Y070546D03*
X039403Y070546D03*
X039903Y070546D03*
X039903Y072966D03*
X039403Y072966D03*
X038903Y072966D03*
X038403Y072966D03*
X037903Y072966D03*
X037403Y072966D03*
X036903Y072966D03*
D40*
X038403Y069091D03*
X038403Y068421D03*
X039403Y068421D03*
X039403Y069091D03*
X041903Y073421D03*
X041903Y074091D03*
D41*
X044320Y071506D03*
X044320Y071006D03*
X044320Y070506D03*
X044320Y070006D03*
X046486Y070006D03*
X046486Y070506D03*
X046486Y071006D03*
X046486Y071506D03*
D42*
X042903Y071307D03*
X042903Y070205D03*
X020903Y069807D03*
X020903Y068705D03*
D43*
X035403Y067756D03*
X036403Y067756D03*
D44*
X007813Y069036D03*
X006903Y069036D03*
X005993Y069036D03*
D45*
X006903Y071476D03*
D46*
X004403Y070356D03*
X004403Y069156D03*
D47*
X005909Y067256D03*
X007897Y067256D03*
D48*
X007778Y072881D03*
X009028Y073881D03*
X007778Y075006D03*
X010653Y075006D03*
X011028Y074381D03*
X010653Y075756D03*
X015028Y073881D03*
X019653Y069881D03*
X020028Y071506D03*
X020403Y072006D03*
X023903Y073006D03*
X026153Y070506D03*
X025778Y070006D03*
X025403Y069506D03*
X025653Y068506D03*
X023903Y067506D03*
X022903Y068006D03*
X021528Y066881D03*
X026653Y065006D03*
X028528Y065006D03*
X035403Y067006D03*
X037653Y068756D03*
X037278Y069256D03*
X039028Y069756D03*
X040153Y069256D03*
X040528Y070756D03*
X040528Y073381D03*
X039403Y075006D03*
X040653Y075381D03*
X043528Y073381D03*
X043653Y070756D03*
X046028Y069256D03*
X046653Y069506D03*
X047153Y069131D03*
X044778Y068256D03*
X041903Y066256D03*
X041278Y066381D03*
X041403Y067756D03*
X039153Y065756D03*
X039153Y065006D03*
X040278Y063506D03*
X042153Y064131D03*
X048653Y065381D03*
X036153Y072256D03*
X035278Y073006D03*
X034778Y073631D03*
X018778Y049631D03*
X020403Y046006D03*
X015403Y045756D03*
X015403Y045006D03*
X024903Y039381D03*
X026278Y041506D03*
X027903Y021756D03*
X056153Y016756D03*
X056153Y016006D03*
X059528Y020631D03*
X061153Y017006D03*
X067028Y012506D03*
X065653Y010381D03*
X064653Y050756D03*
X003528Y074881D03*
D49*
X009903Y041256D03*
X008153Y034506D03*
X048903Y005506D03*
X050653Y012256D03*
D50*
X002403Y003256D03*
X015903Y002756D03*
X037903Y002756D03*
X052653Y002756D03*
X074653Y002756D03*
X074653Y026756D03*
X074653Y031756D03*
X052653Y031756D03*
X052653Y026756D03*
X039153Y032256D03*
X033903Y031756D03*
X037903Y026756D03*
X015903Y026756D03*
X011903Y031756D03*
X011903Y055756D03*
X001903Y060256D03*
X001903Y076256D03*
X033903Y055756D03*
X052653Y055756D03*
X052403Y060256D03*
X052403Y076256D03*
X074653Y055756D03*
D51*
X051653Y054256D03*
X041453Y054756D03*
X041453Y055756D03*
X014903Y025256D03*
X004703Y025756D03*
X004703Y026756D03*
D52*
X001903Y023256D03*
X038653Y052256D03*
D53*
X024403Y066756D03*
X023403Y065506D03*
M02*
