%FSLAX23Y23*%
%MOIN*%
G04 EasyPC Gerber Version 14.0.2 Build 2922 *
%AMT170*0 Octagon Pad at angle 0*4,1,8,-0.00828,-0.02000,0.00828,-0.02000,0.02000,-0.00828,0.02000,0.00828,0.00828,0.02000,-0.00828,0.02000,-0.02000,0.00828,-0.02000,-0.00828,-0.00828,-0.02000,0*%
%ADD170T170*%
%AMT100*0 Octagon Pad at angle 0*4,1,8,-0.01243,-0.03000,0.01243,-0.03000,0.03000,-0.01243,0.03000,0.01243,0.01243,0.03000,-0.01243,0.03000,-0.03000,0.01243,-0.03000,-0.01243,-0.01243,-0.03000,0*%
%ADD100T100*%
%AMT102*0 Octagon Pad at angle 0*4,1,8,-0.01450,-0.03500,0.01450,-0.03500,0.03500,-0.01450,0.03500,0.01450,0.01450,0.03500,-0.01450,0.03500,-0.03500,0.01450,-0.03500,-0.01450,-0.01450,-0.03500,0*%
%ADD102T102*%
%ADD98R,0.06378X0.08583*%
%ADD99R,0.06000X0.06000*%
%ADD101R,0.07000X0.07000*%
%ADD171R,0.16598X0.16598*%
%ADD96C,0.01000*%
%ADD125C,0.01500*%
%ADD103C,0.01600*%
%ADD150C,0.03200*%
%ADD164R,0.05906X0.05118*%
%ADD104C,0.04800*%
%ADD97C,0.05543*%
%ADD156C,0.13595*%
X0Y0D02*
D02*
D96*
X589Y2475D02*
X319D01*
Y2475*
X589Y5150D02*
X319D01*
Y5152*
X2769Y2225D02*
Y2475D01*
X2719*
X3464Y2475D02*
X3193D01*
Y2475*
X3464Y5150D02*
X3193D01*
Y5152*
X5643Y2225D02*
Y2475D01*
X5593*
X6339Y2475D02*
X6067D01*
Y2475*
X6339Y5150D02*
X6067D01*
Y5152*
D02*
D97*
X1094Y725D03*
Y3402D03*
X1144Y825D03*
Y3502D03*
X1194Y725D03*
Y3402D03*
X1244Y825D03*
Y3502D03*
X1294Y725D03*
Y3402D03*
X1344Y825D03*
Y3502D03*
X1394Y725D03*
Y3402D03*
X1444Y825D03*
Y3502D03*
X2044Y725D03*
Y3402D03*
X2094Y825D03*
Y3502D03*
X2144Y725D03*
Y3402D03*
X2194Y825D03*
Y3502D03*
X2244Y725D03*
Y3402D03*
X2294Y825D03*
Y3502D03*
X2344Y725D03*
Y3402D03*
X2394Y825D03*
Y3502D03*
X3968Y725D03*
Y3402D03*
X4018Y825D03*
Y3502D03*
X4068Y725D03*
Y3402D03*
X4118Y825D03*
Y3502D03*
X4168Y725D03*
Y3402D03*
X4218Y825D03*
Y3502D03*
X4268Y725D03*
Y3402D03*
X4318Y825D03*
Y3502D03*
X4918Y725D03*
Y3402D03*
X4968Y825D03*
Y3502D03*
X5018Y725D03*
Y3402D03*
X5068Y825D03*
Y3502D03*
X5118Y725D03*
Y3402D03*
X5168Y825D03*
Y3502D03*
X5218Y725D03*
Y3402D03*
X5268Y825D03*
Y3502D03*
X6842Y725D03*
Y3402D03*
X6892Y825D03*
Y3502D03*
X6942Y725D03*
Y3402D03*
X6992Y825D03*
Y3502D03*
X7042Y725D03*
Y3402D03*
X7092Y825D03*
Y3502D03*
X7142Y725D03*
Y3402D03*
X7192Y825D03*
Y3502D03*
X7792Y725D03*
Y3402D03*
X7842Y825D03*
Y3502D03*
X7892Y725D03*
Y3402D03*
X7942Y825D03*
Y3502D03*
X7992Y725D03*
Y3402D03*
X8042Y825D03*
Y3502D03*
X8092Y725D03*
Y3402D03*
X8142Y825D03*
Y3502D03*
D02*
D98*
X1186Y300D03*
Y2977D03*
X1352Y300D03*
Y2977D03*
X2135Y299D03*
Y2976D03*
X2301Y299D03*
Y2976D03*
X4060Y300D03*
Y2977D03*
X4226Y300D03*
Y2977D03*
X5009Y299D03*
Y2976D03*
X5175Y299D03*
Y2976D03*
X6934Y300D03*
Y2977D03*
X7100Y300D03*
Y2977D03*
X7883Y299D03*
Y2976D03*
X8049Y299D03*
Y2976D03*
D02*
D99*
X369Y1825D03*
Y4502D03*
X1219Y2275D03*
Y4952D03*
X3243Y1825D03*
Y4502D03*
X4093Y2275D03*
Y4952D03*
X6117Y1825D03*
Y4502D03*
X6967Y2275D03*
Y4952D03*
D02*
D100*
X269Y1825D03*
Y1925D03*
Y2025D03*
Y4502D03*
Y4602D03*
Y4702D03*
X369Y1925D03*
Y2025D03*
Y4602D03*
Y4702D03*
X1219Y2375D03*
Y5052D03*
X1319Y2275D03*
Y2375D03*
Y4952D03*
Y5052D03*
X1419Y2275D03*
Y2375D03*
Y4952D03*
Y5052D03*
X3143Y1825D03*
Y1925D03*
Y2025D03*
Y4502D03*
Y4602D03*
Y4702D03*
X3243Y1925D03*
Y2025D03*
Y4602D03*
Y4702D03*
X4093Y2375D03*
Y5052D03*
X4193Y2275D03*
Y2375D03*
Y4952D03*
Y5052D03*
X4293Y2275D03*
Y2375D03*
Y4952D03*
Y5052D03*
X6017Y1825D03*
Y1925D03*
Y2025D03*
Y4502D03*
Y4602D03*
Y4702D03*
X6117Y1925D03*
Y2025D03*
Y4602D03*
Y4702D03*
X6967Y2375D03*
Y5052D03*
X7067Y2275D03*
Y2375D03*
Y4952D03*
Y5052D03*
X7167Y2275D03*
Y2375D03*
Y4952D03*
Y5052D03*
D02*
D101*
X269Y1675D03*
Y4352D03*
X869Y2375D03*
Y5052D03*
X1819Y2375D03*
Y5052D03*
X2769Y1925D03*
Y4602D03*
X3143Y1675D03*
Y4352D03*
X3743Y2375D03*
Y5052D03*
X4693Y2375D03*
Y5052D03*
X5643Y1925D03*
Y4602D03*
X6017Y1675D03*
Y4352D03*
X6617Y2375D03*
Y5052D03*
X7567Y2375D03*
Y5052D03*
X8517Y1925D03*
Y4602D03*
D02*
D102*
X269Y1175D03*
Y1275D03*
Y1375D03*
Y1475D03*
Y1575D03*
Y3852D03*
Y3952D03*
Y4052D03*
Y4152D03*
Y4252D03*
X569Y2375D03*
Y5052D03*
X669Y2375D03*
Y5052D03*
X769Y2375D03*
Y5052D03*
X1919Y2375D03*
Y5052D03*
X2019Y2375D03*
Y5052D03*
X2119Y2375D03*
Y5052D03*
X2769Y2025D03*
Y2125D03*
Y2225D03*
Y4702D03*
Y4802D03*
Y4902D03*
X3143Y1175D03*
Y1275D03*
Y1375D03*
Y1475D03*
Y1575D03*
Y3852D03*
Y3952D03*
Y4052D03*
Y4152D03*
Y4252D03*
X3443Y2375D03*
Y5052D03*
X3543Y2375D03*
Y5052D03*
X3643Y2375D03*
Y5052D03*
X4793Y2375D03*
Y5052D03*
X4893Y2375D03*
Y5052D03*
X4993Y2375D03*
Y5052D03*
X5643Y2025D03*
Y2125D03*
Y2225D03*
Y4702D03*
Y4802D03*
Y4902D03*
X6017Y1175D03*
Y1275D03*
Y1375D03*
Y1475D03*
Y1575D03*
Y3852D03*
Y3952D03*
Y4052D03*
Y4152D03*
Y4252D03*
X6317Y2375D03*
Y5052D03*
X6417Y2375D03*
Y5052D03*
X6517Y2375D03*
Y5052D03*
X7667Y2375D03*
Y5052D03*
X7767Y2375D03*
Y5052D03*
X7867Y2375D03*
Y5052D03*
X8517Y2025D03*
Y2125D03*
Y2225D03*
Y4702D03*
Y4802D03*
Y4902D03*
D02*
D103*
X506Y1925D02*
X1119D01*
X506D02*
X369D01*
X506D02*
X519Y1912D01*
Y1908*
X506Y4602D02*
X1119D01*
X506D02*
X369D01*
X506D02*
X519Y4589D01*
Y4585*
Y1841D02*
Y1837D01*
X506Y1825*
X369*
X519Y4518D02*
Y4514D01*
X506Y4502*
X369*
X619Y1225D02*
X319D01*
X269Y1175*
X619Y3902D02*
X319D01*
X269Y3852*
X719Y1325D02*
X669Y1275D01*
X269*
X719Y1837D02*
X644Y1762D01*
X244*
X206Y1800*
Y2239*
X279Y2312*
X806*
X869Y2375*
X719Y1975D02*
X669Y2025D01*
X369*
X719Y2225D02*
X856Y2087D01*
X1306*
X719Y4002D02*
X669Y3952D01*
X269*
X719Y4514D02*
X644Y4439D01*
X244*
X206Y4477*
Y4916*
X279Y4989*
X806*
X869Y5052*
X719Y4652D02*
X669Y4702D01*
X369*
X719Y4902D02*
X856Y4764D01*
X1306*
X769Y1425D02*
X719Y1375D01*
X269*
X769Y4102D02*
X719Y4052D01*
X269*
X781Y2237D02*
X856Y2312D01*
X1156*
X1219Y2375*
X781Y4914D02*
X856Y4989D01*
X1156*
X1219Y5052*
X869Y1425D02*
X881Y1412D01*
X969*
X1056Y1500*
Y1834*
X1003Y1887*
X594*
X556Y1850*
X519*
Y1841*
X869Y4102D02*
X881Y4089D01*
X969*
X1056Y4177*
Y4511*
X1003Y4564*
X594*
X556Y4527*
X519*
Y4518*
X919Y1525D02*
X931Y1512D01*
X994*
X1019Y1537*
Y1675*
X269*
X919Y4202D02*
X931Y4189D01*
X994*
X1019Y4214*
Y4352*
X269*
X944Y1200D02*
Y537D01*
X931Y525*
Y305*
X1011Y225*
X1269*
X1344Y300*
X1352Y300*
X944Y1462D02*
X931Y1475D01*
X269*
X944Y3877D02*
Y3214D01*
X931Y3202*
Y2982*
X1011Y2902*
X1269*
X1344Y2977*
X1352Y2977*
X944Y4139D02*
X931Y4152D01*
X269*
X956Y2437D02*
X631D01*
X569Y2375*
X956Y2437D02*
X1356D01*
X1419Y2375*
X956Y5114D02*
X631D01*
X569Y5052*
X956Y5114D02*
X1356D01*
X1419Y5052*
X969Y1562D02*
X956Y1575D01*
X269*
X969Y4239D02*
X956Y4252D01*
X269*
X1019Y2162D02*
X956D01*
X881Y2237*
X1019Y4839D02*
X956D01*
X881Y4914*
X1094Y725D02*
X1156Y662D01*
X1981*
X2044Y725*
X1094Y3402D02*
X1156Y3339D01*
X1981*
X2044Y3402*
X1181Y887D02*
X1244Y825D01*
X1181Y887D02*
X1031D01*
Y700*
X1106Y625*
X1181*
Y312*
X1186Y300*
X1181Y3564D02*
X1244Y3502D01*
X1181Y3564D02*
X1031D01*
Y3377*
X1106Y3302*
X1181*
Y2989*
X1186Y2977*
X1206Y2162D02*
X1256Y2212D01*
X1356*
X1419Y2275*
X1206Y4839D02*
X1256Y4889D01*
X1356*
X1419Y4952*
X1294Y387D02*
Y312D01*
X1344*
X1352Y300*
X1294Y3064D02*
Y2989D01*
X1344*
X1352Y2977*
X1306Y2087D02*
X1769D01*
X1931Y1975*
X1306Y4764D02*
X1769D01*
X1931Y4652*
X1394Y1112D02*
X1819D01*
X1831Y1125*
X1394Y3789D02*
X1819D01*
X1831Y3802*
X1444Y1512D02*
X2031D01*
X1444Y4189D02*
X2031D01*
X1469Y200D02*
X2231D01*
X2294Y287*
X2301Y299*
X1469Y2877D02*
X2231D01*
X2294Y2964*
X2301Y2976*
X1481Y1175D02*
X1619D01*
X1481Y3852D02*
X1619D01*
X1581Y812D02*
X1569Y825D01*
X1444*
X1581Y887D02*
X2131D01*
X2194Y825*
X1581Y887D02*
X1181D01*
X1581D02*
X1656Y812D01*
X1581Y1012D02*
X1419D01*
X1056Y1375*
X1581Y1225D02*
X1444D01*
X1419Y1200*
X1581Y3489D02*
X1569Y3502D01*
X1444*
X1581Y3564D02*
X2131D01*
X2194Y3502*
X1581Y3564D02*
X1181D01*
X1581D02*
X1656Y3489D01*
X1581Y3689D02*
X1419D01*
X1056Y4052*
X1581Y3902D02*
X1444D01*
X1419Y3877*
X1588Y1737D02*
X2319D01*
X1588Y4414D02*
X2319D01*
X1981Y2212D02*
X1819Y2375D01*
X1981Y4889D02*
X1819Y5052D01*
X2031Y2275D02*
Y2312D01*
X1981*
X1919Y2375*
X2031Y2275D02*
Y2000D01*
X1931Y1900*
X1554*
X1519Y1864*
Y1700*
X1569Y1650*
X2031Y4952D02*
Y4989D01*
X1981*
X1919Y5052*
X2031Y4952D02*
Y4677D01*
X1931Y4577*
X1554*
X1519Y4541*
Y4377*
X1569Y4327*
X2081Y2437D02*
X2556D01*
X2769Y2225*
X2081Y2437D02*
X2019Y2375D01*
X2081Y5114D02*
X2556D01*
X2769Y4902*
X2081Y5114D02*
X2019Y5052D01*
X2135Y299D02*
X2131Y300D01*
X1356*
X1352Y300*
X2135Y2976D02*
X2131Y2977D01*
X1356*
X1352Y2977*
X2181Y662D02*
X2244Y725D01*
X2181Y662D02*
X2144D01*
Y300*
X2135Y299*
X2181Y3339D02*
X2244Y3402D01*
X2181Y3339D02*
X2144D01*
Y2977*
X2135Y2976*
X2301Y299D02*
X2306Y300D01*
Y725*
X2344*
X2301Y2976D02*
X2306Y2977D01*
Y3402*
X2344*
X2831Y987D02*
X2569Y725D01*
X2344*
X2831Y2025D02*
Y2162D01*
X2769Y2225*
X2831Y2025D02*
X2769D01*
X2831D02*
Y1262D01*
X2394Y825*
X2831Y3664D02*
X2569Y3402D01*
X2344*
X2831Y4702D02*
Y4839D01*
X2769Y4902*
X2831Y4702D02*
X2769D01*
X2831D02*
Y3939D01*
X2394Y3502*
X3380Y1925D02*
X3993D01*
X3380D02*
X3243D01*
X3380D02*
X3393Y1912D01*
Y1908*
X3380Y4602D02*
X3993D01*
X3380D02*
X3243D01*
X3380D02*
X3393Y4589D01*
Y4585*
Y1841D02*
Y1837D01*
X3380Y1825*
X3243*
X3393Y4518D02*
Y4514D01*
X3380Y4502*
X3243*
X3493Y1225D02*
X3193D01*
X3143Y1175*
X3493Y3902D02*
X3193D01*
X3143Y3852*
X3593Y1325D02*
X3543Y1275D01*
X3143*
X3593Y1837D02*
X3518Y1762D01*
X3118*
X3080Y1800*
Y2239*
X3153Y2312*
X3680*
X3743Y2375*
X3593Y1975D02*
X3543Y2025D01*
X3243*
X3593Y2225D02*
X3730Y2087D01*
X4180*
X3593Y4002D02*
X3543Y3952D01*
X3143*
X3593Y4514D02*
X3518Y4439D01*
X3118*
X3080Y4477*
Y4916*
X3153Y4989*
X3680*
X3743Y5052*
X3593Y4652D02*
X3543Y4702D01*
X3243*
X3593Y4902D02*
X3730Y4764D01*
X4180*
X3643Y1425D02*
X3593Y1375D01*
X3143*
X3643Y4102D02*
X3593Y4052D01*
X3143*
X3655Y2237D02*
X3730Y2312D01*
X4030*
X4093Y2375*
X3655Y4914D02*
X3730Y4989D01*
X4030*
X4093Y5052*
X3743Y1425D02*
X3755Y1412D01*
X3843*
X3930Y1500*
Y1834*
X3877Y1887*
X3468*
X3430Y1850*
X3393*
Y1841*
X3743Y4102D02*
X3755Y4089D01*
X3843*
X3930Y4177*
Y4511*
X3877Y4564*
X3468*
X3430Y4527*
X3393*
Y4518*
X3793Y1525D02*
X3805Y1512D01*
X3868*
X3893Y1537*
Y1675*
X3143*
X3793Y4202D02*
X3805Y4189D01*
X3868*
X3893Y4214*
Y4352*
X3143*
X3818Y1200D02*
Y537D01*
X3805Y525*
Y305*
X3885Y225*
X4143*
X4218Y300*
X4226Y300*
X3818Y1462D02*
X3805Y1475D01*
X3143*
X3818Y3877D02*
Y3214D01*
X3805Y3202*
Y2982*
X3885Y2902*
X4143*
X4218Y2977*
X4226Y2977*
X3818Y4139D02*
X3805Y4152D01*
X3143*
X3830Y2437D02*
X3505D01*
X3443Y2375*
X3830Y2437D02*
X4230D01*
X4293Y2375*
X3830Y5114D02*
X3505D01*
X3443Y5052*
X3830Y5114D02*
X4230D01*
X4293Y5052*
X3843Y1562D02*
X3830Y1575D01*
X3143*
X3843Y4239D02*
X3830Y4252D01*
X3143*
X3893Y2162D02*
X3830D01*
X3755Y2237*
X3893Y4839D02*
X3830D01*
X3755Y4914*
X3968Y725D02*
X4030Y662D01*
X4855*
X4918Y725*
X3968Y3402D02*
X4030Y3339D01*
X4855*
X4918Y3402*
X4055Y887D02*
X4118Y825D01*
X4055Y887D02*
X3905D01*
Y700*
X3980Y625*
X4055*
Y312*
X4060Y300*
X4055Y3564D02*
X4118Y3502D01*
X4055Y3564D02*
X3905D01*
Y3377*
X3980Y3302*
X4055*
Y2989*
X4060Y2977*
X4080Y2162D02*
X4130Y2212D01*
X4230*
X4293Y2275*
X4080Y4839D02*
X4130Y4889D01*
X4230*
X4293Y4952*
X4168Y387D02*
Y312D01*
X4218*
X4226Y300*
X4168Y3064D02*
Y2989D01*
X4218*
X4226Y2977*
X4180Y2087D02*
X4643D01*
X4805Y1975*
X4180Y4764D02*
X4643D01*
X4805Y4652*
X4268Y1112D02*
X4693D01*
X4705Y1125*
X4268Y3789D02*
X4693D01*
X4705Y3802*
X4318Y1512D02*
X4905D01*
X4318Y4189D02*
X4905D01*
X4343Y200D02*
X5105D01*
X5168Y287*
X5175Y299*
X4343Y2877D02*
X5105D01*
X5168Y2964*
X5175Y2976*
X4355Y1175D02*
X4493D01*
X4355Y3852D02*
X4493D01*
X4455Y812D02*
X4443Y825D01*
X4318*
X4455Y887D02*
X5005D01*
X5068Y825*
X4455Y887D02*
X4055D01*
X4455D02*
X4530Y812D01*
X4455Y1012D02*
X4293D01*
X3930Y1375*
X4455Y1225D02*
X4318D01*
X4293Y1200*
X4455Y3489D02*
X4443Y3502D01*
X4318*
X4455Y3564D02*
X5005D01*
X5068Y3502*
X4455Y3564D02*
X4055D01*
X4455D02*
X4530Y3489D01*
X4455Y3689D02*
X4293D01*
X3930Y4052*
X4455Y3902D02*
X4318D01*
X4293Y3877*
X4462Y1737D02*
X5193D01*
X4462Y4414D02*
X5193D01*
X4855Y2212D02*
X4693Y2375D01*
X4855Y4889D02*
X4693Y5052D01*
X4905Y2275D02*
Y2312D01*
X4855*
X4793Y2375*
X4905Y2275D02*
Y2000D01*
X4805Y1900*
X4428*
X4393Y1864*
Y1700*
X4443Y1650*
X4905Y4952D02*
Y4989D01*
X4855*
X4793Y5052*
X4905Y4952D02*
Y4677D01*
X4805Y4577*
X4428*
X4393Y4541*
Y4377*
X4443Y4327*
X4955Y2437D02*
X5430D01*
X5643Y2225*
X4955Y2437D02*
X4893Y2375D01*
X4955Y5114D02*
X5430D01*
X5643Y4902*
X4955Y5114D02*
X4893Y5052D01*
X5009Y299D02*
X5005Y300D01*
X4230*
X4226Y300*
X5009Y2976D02*
X5005Y2977D01*
X4230*
X4226Y2977*
X5055Y662D02*
X5118Y725D01*
X5055Y662D02*
X5018D01*
Y300*
X5009Y299*
X5055Y3339D02*
X5118Y3402D01*
X5055Y3339D02*
X5018D01*
Y2977*
X5009Y2976*
X5175Y299D02*
X5180Y300D01*
Y725*
X5218*
X5175Y2976D02*
X5180Y2977D01*
Y3402*
X5218*
X5705Y987D02*
X5443Y725D01*
X5218*
X5705Y2025D02*
Y2162D01*
X5643Y2225*
X5705Y2025D02*
X5643D01*
X5705D02*
Y1262D01*
X5268Y825*
X5705Y3664D02*
X5443Y3402D01*
X5218*
X5705Y4702D02*
Y4839D01*
X5643Y4902*
X5705Y4702D02*
X5643D01*
X5705D02*
Y3939D01*
X5268Y3502*
X6254Y1925D02*
X6867D01*
X6254D02*
X6117D01*
X6254D02*
X6267Y1912D01*
Y1908*
X6254Y4602D02*
X6867D01*
X6254D02*
X6117D01*
X6254D02*
X6267Y4589D01*
Y4585*
Y1841D02*
Y1837D01*
X6254Y1825*
X6117*
X6267Y4518D02*
Y4514D01*
X6254Y4502*
X6117*
X6367Y1225D02*
X6067D01*
X6017Y1175*
X6367Y3902D02*
X6067D01*
X6017Y3852*
X6467Y1325D02*
X6417Y1275D01*
X6017*
X6467Y1837D02*
X6392Y1762D01*
X5992*
X5954Y1800*
Y2239*
X6027Y2312*
X6554*
X6617Y2375*
X6467Y1975D02*
X6417Y2025D01*
X6117*
X6467Y2225D02*
X6604Y2087D01*
X7054*
X6467Y4002D02*
X6417Y3952D01*
X6017*
X6467Y4514D02*
X6392Y4439D01*
X5992*
X5954Y4477*
Y4916*
X6027Y4989*
X6554*
X6617Y5052*
X6467Y4652D02*
X6417Y4702D01*
X6117*
X6467Y4902D02*
X6604Y4764D01*
X7054*
X6517Y1425D02*
X6467Y1375D01*
X6017*
X6517Y4102D02*
X6467Y4052D01*
X6017*
X6529Y2237D02*
X6604Y2312D01*
X6904*
X6967Y2375*
X6529Y4914D02*
X6604Y4989D01*
X6904*
X6967Y5052*
X6617Y1425D02*
X6629Y1412D01*
X6717*
X6804Y1500*
Y1834*
X6751Y1887*
X6342*
X6304Y1850*
X6267*
Y1841*
X6617Y4102D02*
X6629Y4089D01*
X6717*
X6804Y4177*
Y4511*
X6751Y4564*
X6342*
X6304Y4527*
X6267*
Y4518*
X6667Y1525D02*
X6679Y1512D01*
X6742*
X6767Y1537*
Y1675*
X6017*
X6667Y4202D02*
X6679Y4189D01*
X6742*
X6767Y4214*
Y4352*
X6017*
X6692Y1200D02*
Y537D01*
X6679Y525*
Y305*
X6759Y225*
X7017*
X7092Y300*
X7100Y300*
X6692Y1462D02*
X6679Y1475D01*
X6017*
X6692Y3877D02*
Y3214D01*
X6679Y3202*
Y2982*
X6759Y2902*
X7017*
X7092Y2977*
X7100Y2977*
X6692Y4139D02*
X6679Y4152D01*
X6017*
X6704Y2437D02*
X6379D01*
X6317Y2375*
X6704Y2437D02*
X7104D01*
X7167Y2375*
X6704Y5114D02*
X6379D01*
X6317Y5052*
X6704Y5114D02*
X7104D01*
X7167Y5052*
X6717Y1562D02*
X6704Y1575D01*
X6017*
X6717Y4239D02*
X6704Y4252D01*
X6017*
X6767Y2162D02*
X6704D01*
X6629Y2237*
X6767Y4839D02*
X6704D01*
X6629Y4914*
X6842Y725D02*
X6904Y662D01*
X7729*
X7792Y725*
X6842Y3402D02*
X6904Y3339D01*
X7729*
X7792Y3402*
X6929Y887D02*
X6992Y825D01*
X6929Y887D02*
X6779D01*
Y700*
X6854Y625*
X6929*
Y312*
X6934Y300*
X6929Y3564D02*
X6992Y3502D01*
X6929Y3564D02*
X6779D01*
Y3377*
X6854Y3302*
X6929*
Y2989*
X6934Y2977*
X6954Y2162D02*
X7004Y2212D01*
X7104*
X7167Y2275*
X6954Y4839D02*
X7004Y4889D01*
X7104*
X7167Y4952*
X7042Y387D02*
Y312D01*
X7092*
X7100Y300*
X7042Y3064D02*
Y2989D01*
X7092*
X7100Y2977*
X7054Y2087D02*
X7517D01*
X7679Y1975*
X7054Y4764D02*
X7517D01*
X7679Y4652*
X7142Y1112D02*
X7567D01*
X7579Y1125*
X7142Y3789D02*
X7567D01*
X7579Y3802*
X7192Y1512D02*
X7779D01*
X7192Y4189D02*
X7779D01*
X7217Y200D02*
X7979D01*
X8042Y287*
X8049Y299*
X7217Y2877D02*
X7979D01*
X8042Y2964*
X8049Y2976*
X7229Y1175D02*
X7367D01*
X7229Y3852D02*
X7367D01*
X7329Y812D02*
X7317Y825D01*
X7192*
X7329Y887D02*
X7879D01*
X7942Y825*
X7329Y887D02*
X6929D01*
X7329D02*
X7404Y812D01*
X7329Y1012D02*
X7167D01*
X6804Y1375*
X7329Y1225D02*
X7192D01*
X7167Y1200*
X7329Y3489D02*
X7317Y3502D01*
X7192*
X7329Y3564D02*
X7879D01*
X7942Y3502*
X7329Y3564D02*
X6929D01*
X7329D02*
X7404Y3489D01*
X7329Y3689D02*
X7167D01*
X6804Y4052*
X7329Y3902D02*
X7192D01*
X7167Y3877*
X7336Y1737D02*
X8067D01*
X7336Y4414D02*
X8067D01*
X7729Y2212D02*
X7567Y2375D01*
X7729Y4889D02*
X7567Y5052D01*
X7779Y2275D02*
Y2312D01*
X7729*
X7667Y2375*
X7779Y2275D02*
Y2000D01*
X7679Y1900*
X7302*
X7267Y1864*
Y1700*
X7317Y1650*
X7779Y4952D02*
Y4989D01*
X7729*
X7667Y5052*
X7779Y4952D02*
Y4677D01*
X7679Y4577*
X7302*
X7267Y4541*
Y4377*
X7317Y4327*
X7829Y2437D02*
X8304D01*
X8517Y2225*
X7829Y2437D02*
X7767Y2375D01*
X7829Y5114D02*
X8304D01*
X8517Y4902*
X7829Y5114D02*
X7767Y5052D01*
X7883Y299D02*
X7879Y300D01*
X7104*
X7100Y300*
X7883Y2976D02*
X7879Y2977D01*
X7104*
X7100Y2977*
X7929Y662D02*
X7992Y725D01*
X7929Y662D02*
X7892D01*
Y300*
X7883Y299*
X7929Y3339D02*
X7992Y3402D01*
X7929Y3339D02*
X7892D01*
Y2977*
X7883Y2976*
X8049Y299D02*
X8054Y300D01*
Y725*
X8092*
X8049Y2976D02*
X8054Y2977D01*
Y3402*
X8092*
X8579Y987D02*
X8317Y725D01*
X8092*
X8579Y2025D02*
Y2162D01*
X8517Y2225*
X8579Y2025D02*
X8517D01*
X8579D02*
Y1262D01*
X8142Y825*
X8579Y3664D02*
X8317Y3402D01*
X8092*
X8579Y4702D02*
Y4839D01*
X8517Y4902*
X8579Y4702D02*
X8517D01*
X8579D02*
Y3939D01*
X8142Y3502*
D02*
D104*
X2081Y2437D03*
Y5114D03*
X2181Y662D03*
Y3339D03*
X4955Y2437D03*
Y5114D03*
X5055Y662D03*
Y3339D03*
X7829Y2437D03*
Y5114D03*
X7929Y662D03*
Y3339D03*
D02*
D125*
X241Y1175D02*
X193D01*
X241Y3852D02*
X193D01*
X243Y275D02*
X195D01*
X243Y2475D02*
X195D01*
X243Y2952D02*
X195D01*
X243Y5152D02*
X195D01*
X269Y1147D02*
Y1099D01*
Y2047D02*
Y2096D01*
Y3824D02*
Y3776D01*
Y4724D02*
Y4773D01*
X296Y1175D02*
X345D01*
X296Y3852D02*
X345D01*
X319Y199D02*
Y151D01*
Y350D02*
Y399D01*
Y2399D02*
Y2351D01*
Y2550D02*
Y2599D01*
Y2876D02*
Y2828D01*
Y3027D02*
Y3076D01*
Y5076D02*
Y5028D01*
Y5227D02*
Y5276D01*
X394Y275D02*
X443D01*
X394Y2475D02*
X443D01*
X394Y2952D02*
X443D01*
X394Y5152D02*
X443D01*
X577Y2475D02*
X528D01*
X577Y5150D02*
X528D01*
X589Y2488D02*
Y2536D01*
Y5163D02*
Y5211D01*
X602Y2475D02*
X650D01*
X606Y1225D02*
X558D01*
X606Y3902D02*
X558D01*
X619Y1212D02*
Y1164D01*
Y3889D02*
Y3841D01*
X631Y1225D02*
X680D01*
X631Y3902D02*
X680D01*
X1444Y804D02*
Y756D01*
Y3482D02*
Y3433D01*
X1464Y825D02*
X1512D01*
X1464Y3502D02*
X1512D01*
X1569Y812D02*
X1520D01*
X1569Y3489D02*
X1520D01*
X1581Y800D02*
Y751D01*
Y3477D02*
Y3428D01*
X1999Y2394D02*
X1965Y2428D01*
X1999Y5071D02*
X1965Y5106D01*
X2038Y2355D02*
X2072Y2321D01*
X2038Y5032D02*
X2072Y4998D01*
X2081Y2454D02*
Y2502D01*
Y5131D02*
Y5179D01*
X2098Y2437D02*
X2146D01*
X2098Y5114D02*
X2146D01*
X2394Y845D02*
Y893D01*
Y3522D02*
Y3570D01*
X2414Y825D02*
X2462D01*
X2414Y3502D02*
X2462D01*
X2643Y275D02*
X2595D01*
X2643Y2475D02*
X2595D01*
X2643Y2952D02*
X2595D01*
X2643Y5152D02*
X2595D01*
X2719Y199D02*
Y151D01*
Y350D02*
Y399D01*
Y2399D02*
Y2351D01*
Y2550D02*
Y2599D01*
Y2876D02*
Y2828D01*
Y3027D02*
Y3076D01*
Y5076D02*
Y5028D01*
Y5227D02*
Y5276D01*
X2741Y2225D02*
X2693D01*
X2741Y4902D02*
X2693D01*
X2749Y2044D02*
X2715Y2078D01*
X2749Y4721D02*
X2715Y4756D01*
X2769Y2252D02*
Y2301D01*
Y4929D02*
Y4978D01*
X2788Y2044D02*
X2822Y2078D01*
X2788Y4721D02*
X2822Y4756D01*
X2794Y275D02*
X2843D01*
X2794Y2475D02*
X2843D01*
X2794Y2952D02*
X2843D01*
X2794Y5152D02*
X2843D01*
X2796Y2225D02*
X2845D01*
X2796Y4902D02*
X2845D01*
X3115Y1175D02*
X3067D01*
X3115Y3852D02*
X3067D01*
X3117Y275D02*
X3069D01*
X3117Y2475D02*
X3069D01*
X3117Y2952D02*
X3069D01*
X3117Y5152D02*
X3069D01*
X3143Y1147D02*
Y1099D01*
Y2047D02*
Y2096D01*
Y3824D02*
Y3776D01*
Y4724D02*
Y4773D01*
X3170Y1175D02*
X3219D01*
X3170Y3852D02*
X3219D01*
X3193Y199D02*
Y151D01*
Y350D02*
Y399D01*
Y2399D02*
Y2351D01*
Y2550D02*
Y2599D01*
Y2876D02*
Y2828D01*
Y3027D02*
Y3076D01*
Y5076D02*
Y5028D01*
Y5227D02*
Y5276D01*
X3268Y275D02*
X3317D01*
X3268Y2475D02*
X3317D01*
X3268Y2952D02*
X3317D01*
X3268Y5152D02*
X3317D01*
X3452Y2475D02*
X3403D01*
X3452Y5150D02*
X3403D01*
X3464Y2488D02*
Y2536D01*
Y5163D02*
Y5211D01*
X3477Y2475D02*
X3525D01*
X3480Y1225D02*
X3432D01*
X3480Y3902D02*
X3432D01*
X3493Y1212D02*
Y1164D01*
Y3889D02*
Y3841D01*
X3505Y1225D02*
X3554D01*
X3505Y3902D02*
X3554D01*
X4318Y804D02*
Y756D01*
Y3482D02*
Y3433D01*
X4338Y825D02*
X4386D01*
X4338Y3502D02*
X4386D01*
X4443Y812D02*
X4394D01*
X4443Y3489D02*
X4394D01*
X4455Y800D02*
Y751D01*
Y3477D02*
Y3428D01*
X4873Y2394D02*
X4839Y2428D01*
X4873Y5071D02*
X4839Y5106D01*
X4912Y2355D02*
X4946Y2321D01*
X4912Y5032D02*
X4946Y4998D01*
X4955Y2454D02*
Y2502D01*
Y5131D02*
Y5179D01*
X4972Y2437D02*
X5020D01*
X4972Y5114D02*
X5020D01*
X5268Y845D02*
Y893D01*
Y3522D02*
Y3570D01*
X5288Y825D02*
X5336D01*
X5288Y3502D02*
X5336D01*
X5517Y275D02*
X5469D01*
X5517Y2475D02*
X5469D01*
X5517Y2952D02*
X5469D01*
X5517Y5152D02*
X5469D01*
X5593Y199D02*
Y151D01*
Y350D02*
Y399D01*
Y2399D02*
Y2351D01*
Y2550D02*
Y2599D01*
Y2876D02*
Y2828D01*
Y3027D02*
Y3076D01*
Y5076D02*
Y5028D01*
Y5227D02*
Y5276D01*
X5615Y2225D02*
X5567D01*
X5615Y4902D02*
X5567D01*
X5623Y2044D02*
X5589Y2078D01*
X5623Y4721D02*
X5589Y4756D01*
X5643Y2252D02*
Y2301D01*
Y4929D02*
Y4978D01*
X5662Y2044D02*
X5696Y2078D01*
X5662Y4721D02*
X5696Y4756D01*
X5668Y275D02*
X5717D01*
X5668Y2475D02*
X5717D01*
X5668Y2952D02*
X5717D01*
X5668Y5152D02*
X5717D01*
X5670Y2225D02*
X5719D01*
X5670Y4902D02*
X5719D01*
X5989Y1175D02*
X5941D01*
X5989Y3852D02*
X5941D01*
X5991Y275D02*
X5943D01*
X5991Y2475D02*
X5943D01*
X5991Y2952D02*
X5943D01*
X5991Y5152D02*
X5943D01*
X6017Y1147D02*
Y1099D01*
Y2047D02*
Y2096D01*
Y3824D02*
Y3776D01*
Y4724D02*
Y4773D01*
X6044Y1175D02*
X6093D01*
X6044Y3852D02*
X6093D01*
X6067Y199D02*
Y151D01*
Y350D02*
Y399D01*
Y2399D02*
Y2351D01*
Y2550D02*
Y2599D01*
Y2876D02*
Y2828D01*
Y3027D02*
Y3076D01*
Y5076D02*
Y5028D01*
Y5227D02*
Y5276D01*
X6142Y275D02*
X6191D01*
X6142Y2475D02*
X6191D01*
X6142Y2952D02*
X6191D01*
X6142Y5152D02*
X6191D01*
X6327Y2475D02*
X6278D01*
X6327Y5150D02*
X6278D01*
X6339Y2488D02*
Y2536D01*
Y5163D02*
Y5211D01*
X6352Y2475D02*
X6400D01*
X6354Y1225D02*
X6306D01*
X6354Y3902D02*
X6306D01*
X6367Y1212D02*
Y1164D01*
Y3889D02*
Y3841D01*
X6379Y1225D02*
X6428D01*
X6379Y3902D02*
X6428D01*
X7192Y804D02*
Y756D01*
Y3482D02*
Y3433D01*
X7212Y825D02*
X7260D01*
X7212Y3502D02*
X7260D01*
X7317Y812D02*
X7268D01*
X7317Y3489D02*
X7268D01*
X7329Y800D02*
Y751D01*
Y3477D02*
Y3428D01*
X7747Y2394D02*
X7713Y2428D01*
X7747Y5071D02*
X7713Y5106D01*
X7786Y2355D02*
X7820Y2321D01*
X7786Y5032D02*
X7820Y4998D01*
X7829Y2454D02*
Y2502D01*
Y5131D02*
Y5179D01*
X7846Y2437D02*
X7894D01*
X7846Y5114D02*
X7894D01*
X8142Y845D02*
Y893D01*
Y3522D02*
Y3570D01*
X8162Y825D02*
X8210D01*
X8162Y3502D02*
X8210D01*
X8391Y275D02*
X8343D01*
X8391Y2475D02*
X8343D01*
X8391Y2952D02*
X8343D01*
X8391Y5152D02*
X8343D01*
X8467Y199D02*
Y151D01*
Y350D02*
Y399D01*
Y2399D02*
Y2351D01*
Y2550D02*
Y2599D01*
Y2876D02*
Y2828D01*
Y3027D02*
Y3076D01*
Y5076D02*
Y5028D01*
Y5227D02*
Y5276D01*
X8489Y2225D02*
X8441D01*
X8489Y4902D02*
X8441D01*
X8497Y2044D02*
X8463Y2078D01*
X8497Y4721D02*
X8463Y4756D01*
X8517Y2252D02*
Y2301D01*
Y4929D02*
Y4978D01*
X8536Y2044D02*
X8570Y2078D01*
X8536Y4721D02*
X8570Y4756D01*
X8542Y275D02*
X8591D01*
X8542Y2475D02*
X8591D01*
X8542Y2952D02*
X8591D01*
X8542Y5152D02*
X8591D01*
X8544Y2225D02*
X8593D01*
X8544Y4902D02*
X8593D01*
D02*
D150*
X119Y2675D02*
Y75D01*
X2919*
Y2675*
X119*
X195Y151D02*
Y399D01*
X443*
Y151*
X195*
Y2351D02*
Y2599D01*
X443*
Y2351*
X195*
X217Y1612D02*
X206D01*
Y1738*
X217*
X181Y1774*
G75*
G02X170Y1800I25J25*
G01*
Y2239*
G75*
G02X181Y2265I36*
G01*
X254Y2338*
G75*
G02X279Y2348I25J-25*
G01*
X506*
X506Y2349*
Y2401*
X542Y2437*
X528Y2450*
Y2500*
X564Y2536*
X615*
X650Y2500*
Y2473*
X924*
X936Y2485*
X976*
X988Y2473*
X1356*
G75*
G02X1382Y2463J-36*
G01*
X1412Y2433*
X1443*
X1477Y2399*
Y2351*
X1451Y2325*
X1477Y2299*
Y2251*
X1443Y2217*
X1412*
X1382Y2187*
G75*
G02X1356Y2176I-25J25*
G01*
X1271*
X1254Y2159*
Y2142*
X1235Y2123*
X1274*
X1286Y2135*
X1326*
X1338Y2123*
X1769*
G75*
G02X1789Y2117J-36*
G01*
X1925Y2023*
X1951*
X1977Y1997*
X1995Y2015*
Y2164*
X1961*
X1933Y2192*
Y2209*
X1831Y2312*
X1756*
Y2438*
X1882*
Y2427*
X1893Y2438*
X1945*
X1960Y2423*
X1987Y2451*
X2018*
G75*
G02X2146Y2437I64J-14*
G01*
G75*
G02X2146Y2436I-65J0*
G01*
X2164Y2419*
X2319*
G75*
G02X2350Y2406I0J-44*
G01*
X2696Y2059*
X2720Y2084*
X2706Y2099*
Y2151*
X2720Y2165*
X2693Y2193*
Y2256*
X2737Y2301*
X2800*
X2845Y2256*
Y2193*
X2817Y2165*
X2832Y2151*
Y2099*
X2817Y2084*
X2845Y2056*
Y1993*
X2832Y1980*
Y1862*
X2706*
Y1925*
X2695Y1936*
X2288Y1530*
G75*
G02X2256Y1517I-32J32*
G01*
X2146*
G75*
G02X2114Y1530I0J46*
G01*
X2039Y1604*
X1981*
X1954Y1577*
X1925Y1548*
X1999*
X2011Y1560*
X2051*
X2079Y1532*
Y1492*
X2051Y1464*
X2011*
X1999Y1476*
X1476*
X1464Y1464*
X1424*
X1396Y1492*
Y1532*
X1422Y1559*
X1092Y1889*
X1053*
X1082Y1860*
G75*
G02X1092Y1834I-25J-25*
G01*
Y1500*
G75*
G02X1082Y1474I-36*
G01*
X994Y1387*
G75*
G02X969Y1376I-25J25*
G01*
X881*
G75*
G02X875Y1377J36*
G01*
X849*
X821Y1405*
Y1439*
X817*
Y1405*
X789Y1377*
X772*
X753Y1358*
X767Y1344*
Y1305*
X739Y1277*
X722*
X694Y1249*
G75*
G02X680Y1240I-25J25*
G01*
Y1199*
X644Y1164*
X593*
X558Y1199*
Y1239*
X322*
X317Y1234*
X345Y1206*
Y1143*
X300Y1099*
X237*
X193Y1143*
Y1206*
X220Y1234*
X206Y1249*
Y1301*
X230Y1325*
X206Y1349*
Y1401*
X230Y1425*
X206Y1449*
Y1501*
X230Y1525*
X206Y1549*
Y1601*
X217Y1612*
X906Y1169D02*
X896Y1180D01*
Y1219*
X924Y1248*
X964*
X992Y1219*
Y1180*
X981Y1169*
Y548*
G75*
G02X1140Y475I62J-73*
G01*
G75*
G02X969Y415I-96*
G01*
Y320*
X1027Y262*
X1126*
Y371*
X1145*
Y589*
X1106*
G75*
G02X1081Y599J36*
G01*
X1006Y674*
G75*
G02X995Y700I25J25*
G01*
Y887*
G75*
G02X1031Y923I36*
G01*
X1170*
G75*
G02X1192I11J-36*
G01*
X1570*
G75*
G02X1592I11J-36*
G01*
X2131*
G75*
G02X2157Y913J-36*
G01*
X2189Y880*
G75*
G02X2244Y849I5J-56*
G01*
G75*
G02X2336Y861I50J-25*
G01*
G75*
G02X2462Y825I58J-37*
G01*
G75*
G02X2419Y761I-69*
G01*
X2554*
X2783Y990*
Y1007*
X2811Y1035*
X2851*
X2879Y1007*
Y967*
X2851Y939*
X2834*
X2594Y699*
G75*
G02X2569Y689I-25J25*
G01*
X2386*
G75*
G02X2344Y669I-43J36*
G01*
Y370*
X2361*
Y228*
X2296*
X2260Y179*
G75*
G02X2231Y164I-29J21*
G01*
X1501*
X1489Y152*
X1449*
X1421Y180*
Y219*
X1449Y248*
X1489*
X1501Y236*
X2075*
Y262*
X1412*
Y229*
X1326*
X1295Y198*
G75*
G02X1269Y187I-27J27*
G01*
X1011*
G75*
G02X985Y198I0J38*
G01*
X905Y278*
G75*
G02X894Y305I27J27*
G01*
Y525*
G75*
G02X905Y551I38J0*
G01*
X906Y553*
Y1169*
X1053Y1327D02*
X1036D01*
X1008Y1355*
Y1394*
X1036Y1423*
X1076*
X1104Y1394*
Y1378*
X1348Y1134*
X1374Y1160*
X1390*
X1371Y1180*
Y1219*
X1399Y1248*
X1416*
X1418Y1250*
G75*
G02X1444Y1261I25J-25*
G01*
X1549*
X1561Y1273*
X1601*
X1629Y1244*
Y1223*
X1639*
X1667Y1194*
Y1155*
X1660Y1148*
X1787*
X1811Y1173*
X1851*
X1879Y1144*
Y1105*
X1851Y1077*
X1825*
G75*
G02X1819Y1076I-6J36*
G01*
X1426*
X1416Y1066*
X1434Y1048*
X1549*
X1561Y1060*
X1601*
X1629Y1032*
Y992*
X1601Y964*
X1561*
X1549Y976*
X1419*
G75*
G02X1393Y987J36*
G01*
X1053Y1327*
X2348Y475D02*
G75*
G02X2540I96D01*
G01*
G75*
G02X2348I-96*
G01*
X2595Y151D02*
Y399D01*
X2843*
Y151*
X2595*
Y2351D02*
Y2599D01*
X2843*
Y2351*
X2595*
X119Y275D02*
G36*
Y75D01*
X2919*
Y275*
X2843*
Y151*
X2595*
Y275*
X2361*
Y228*
X2296*
X2260Y179*
G75*
G02X2231Y164I-29J21*
G01*
X1501*
X1489Y152*
X1449*
X1421Y180*
Y219*
X1449Y248*
X1489*
X1501Y236*
X2075*
Y262*
X1412*
Y229*
X1326*
X1295Y198*
G75*
G02X1269Y187I-27J27*
G01*
X1011*
G75*
G02X985Y198I0J38*
G01*
X908Y275*
X443*
Y151*
X195*
Y275*
X119*
G37*
X195D02*
G36*
Y399D01*
X443*
Y275*
X908*
X905Y278*
G75*
G02X894Y305I27J27*
G01*
Y475*
X119*
Y275*
X195*
G37*
X2595D02*
G36*
Y399D01*
X2843*
Y275*
X2919*
Y475*
X2540*
G75*
G02X2348I-96*
G01*
X2344*
Y370*
X2361*
Y275*
X2595*
G37*
X119Y2475D02*
G36*
Y1193D01*
X193*
Y1206*
X220Y1234*
X206Y1249*
Y1301*
X230Y1325*
X206Y1349*
Y1401*
X230Y1425*
X206Y1449*
Y1501*
X230Y1525*
X206Y1549*
Y1601*
X217Y1612*
X206*
Y1738*
X217*
X181Y1774*
G75*
G02X170Y1800I25J25*
G01*
Y2239*
G75*
G02X181Y2265I36*
G01*
X254Y2338*
G75*
G02X279Y2348I25J-25*
G01*
X506*
X506Y2349*
Y2401*
X542Y2437*
X528Y2450*
Y2475*
X443*
Y2351*
X195*
Y2475*
X119*
G37*
X195D02*
G36*
Y2599D01*
X443*
Y2475*
X528*
Y2500*
X564Y2536*
X615*
X650Y2500*
Y2473*
X924*
X936Y2485*
X976*
X988Y2473*
X1356*
G75*
G02X1382Y2463J-36*
G01*
X1412Y2433*
X1443*
X1477Y2399*
Y2351*
X1451Y2325*
X1477Y2299*
Y2251*
X1443Y2217*
X1412*
X1382Y2187*
G75*
G02X1356Y2176I-25J25*
G01*
X1271*
X1254Y2159*
Y2142*
X1235Y2123*
X1274*
X1286Y2135*
X1326*
X1338Y2123*
X1769*
G75*
G02X1789Y2117J-36*
G01*
X1925Y2023*
X1951*
X1977Y1997*
X1995Y2015*
Y2164*
X1961*
X1933Y2192*
Y2209*
X1831Y2312*
X1756*
Y2438*
X1882*
Y2427*
X1893Y2438*
X1945*
X1960Y2423*
X1987Y2451*
X2018*
G75*
G02X2134Y2475I64J-14*
G01*
X2595*
Y2599*
X2843*
Y2475*
X2919*
Y2675*
X119*
Y2475*
X195*
G37*
X2134D02*
G36*
G75*
G02X2146Y2437I-53J-38D01*
G01*
G75*
G02X2146Y2436I-65J0*
G01*
X2164Y2419*
X2319*
G75*
G02X2350Y2406I0J-44*
G01*
X2696Y2059*
X2720Y2084*
X2706Y2099*
Y2151*
X2720Y2165*
X2693Y2193*
Y2256*
X2737Y2301*
X2800*
X2845Y2256*
Y2193*
X2817Y2165*
X2832Y2151*
Y2099*
X2817Y2084*
X2845Y2056*
Y1993*
X2832Y1980*
Y1862*
X2706*
Y1925*
X2695Y1936*
X2288Y1530*
G75*
G02X2256Y1517I-32J32*
G01*
X2146*
G75*
G02X2114Y1530I0J46*
G01*
X2039Y1604*
X1981*
X1954Y1577*
X1925Y1548*
X1999*
X2011Y1560*
X2051*
X2079Y1532*
Y1492*
X2051Y1464*
X2011*
X1999Y1476*
X1476*
X1464Y1464*
X1424*
X1396Y1492*
Y1532*
X1422Y1559*
X1092Y1889*
X1053*
X1082Y1860*
G75*
G02X1092Y1834I-25J-25*
G01*
Y1500*
G75*
G02X1082Y1474I-36*
G01*
X994Y1387*
G75*
G02X969Y1376I-25J25*
G01*
X881*
G75*
G02X875Y1377J36*
G01*
X849*
X821Y1405*
Y1439*
X817*
Y1405*
X789Y1377*
X772*
X753Y1358*
X767Y1344*
Y1305*
X739Y1277*
X722*
X694Y1249*
G75*
G02X680Y1240I-25J25*
G01*
Y1199*
X674Y1193*
X896*
Y1219*
X924Y1248*
X964*
X992Y1219*
Y1193*
X1187*
X1053Y1327*
X1036*
X1008Y1355*
Y1394*
X1036Y1423*
X1076*
X1104Y1394*
Y1378*
X1348Y1134*
X1374Y1160*
X1390*
X1371Y1180*
Y1219*
X1399Y1248*
X1416*
X1418Y1250*
G75*
G02X1444Y1261I25J-25*
G01*
X1549*
X1561Y1273*
X1601*
X1629Y1244*
Y1223*
X1639*
X1667Y1194*
Y1193*
X2919*
Y2475*
X2843*
Y2351*
X2595*
Y2475*
X2134*
G37*
X119Y1193D02*
G36*
Y475D01*
X894*
Y525*
G75*
G02X905Y551I38J0*
G01*
X906Y553*
Y1169*
X896Y1180*
Y1193*
X674*
X644Y1164*
X593*
X558Y1199*
Y1239*
X322*
X317Y1234*
X345Y1206*
Y1143*
X300Y1099*
X237*
X193Y1143*
Y1193*
X119*
G37*
X992D02*
G36*
Y1180D01*
X981Y1169*
Y548*
G75*
G02X1140Y475I62J-73*
G01*
G75*
G02X969Y415I-96*
G01*
Y320*
X1027Y262*
X1126*
Y371*
X1145*
Y589*
X1106*
G75*
G02X1081Y599J36*
G01*
X1006Y674*
G75*
G02X995Y700I25J25*
G01*
Y887*
G75*
G02X1031Y923I36*
G01*
X1170*
G75*
G02X1192I11J-36*
G01*
X1570*
G75*
G02X1592I11J-36*
G01*
X2131*
G75*
G02X2157Y913J-36*
G01*
X2189Y880*
G75*
G02X2244Y849I5J-56*
G01*
G75*
G02X2336Y861I50J-25*
G01*
G75*
G02X2462Y825I58J-37*
G01*
G75*
G02X2419Y761I-69*
G01*
X2554*
X2783Y990*
Y1007*
X2811Y1035*
X2851*
X2879Y1007*
Y967*
X2851Y939*
X2834*
X2594Y699*
G75*
G02X2569Y689I-25J25*
G01*
X2386*
G75*
G02X2344Y669I-43J36*
G01*
Y475*
X2348*
G75*
G02X2540I96*
G01*
X2919*
Y1193*
X1667*
Y1155*
X1660Y1148*
X1787*
X1811Y1173*
X1851*
X1879Y1144*
Y1105*
X1851Y1077*
X1825*
G75*
G02X1819Y1076I-6J36*
G01*
X1426*
X1416Y1066*
X1434Y1048*
X1549*
X1561Y1060*
X1601*
X1629Y1032*
Y992*
X1601Y964*
X1561*
X1549Y976*
X1419*
G75*
G02X1393Y987J36*
G01*
X1187Y1193*
X992*
G37*
X119Y5352D02*
Y2752D01*
X2919*
Y5352*
X119*
X195Y2828D02*
Y3076D01*
X443*
Y2828*
X195*
Y5028D02*
Y5276D01*
X443*
Y5028*
X195*
X215Y4415D02*
X180Y4450D01*
G75*
G02X169Y4477I27J27*
G01*
Y4916*
G75*
G02X180Y4943I38*
G01*
X253Y5016*
G75*
G02X279Y5027I27J-27*
G01*
X506*
Y5078*
X540Y5113*
X528Y5125*
Y5175*
X564Y5211*
X615*
X650Y5175*
Y5150*
X924*
X936Y5162*
X976*
X988Y5150*
X1356*
G75*
G02X1382Y5140J-36*
G01*
X1412Y5110*
X1443*
X1477Y5076*
Y5028*
X1451Y5002*
X1477Y4976*
Y4928*
X1443Y4894*
X1414*
X1383Y4863*
G75*
G02X1356Y4852I-27J27*
G01*
X1272*
X1254Y4834*
Y4819*
X1237Y4802*
X1276*
X1286Y4812*
X1326*
X1338Y4800*
X1769*
G75*
G02X1789Y4794J-36*
G01*
X1925Y4700*
X1951*
X1977Y4674*
X1995Y4692*
Y4841*
X1961*
X1933Y4869*
Y4884*
X1829Y4989*
X1756*
Y5115*
X1882*
Y5104*
X1893Y5115*
X1945*
X1960Y5100*
X1987Y5128*
X2018*
G75*
G02X2146Y5114I64J-13*
G01*
G75*
G02X2146Y5113I-65J0*
G01*
X2164Y5096*
X2319*
G75*
G02X2350Y5083I0J-44*
G01*
X2696Y4737*
X2720Y4761*
X2706Y4776*
Y4828*
X2720Y4843*
X2693Y4870*
Y4933*
X2737Y4978*
X2800*
X2845Y4933*
Y4870*
X2817Y4843*
X2832Y4828*
Y4776*
X2817Y4761*
X2845Y4733*
Y4670*
X2832Y4657*
Y4539*
X2706*
Y4603*
X2695Y4613*
X2288Y4207*
G75*
G02X2256Y4194I-32J32*
G01*
X2146*
G75*
G02X2114Y4207J46*
G01*
X2061Y4259*
X2039Y4281*
X1981*
X1954Y4254*
X1925Y4225*
X1999*
X2011Y4237*
X2051*
X2079Y4209*
Y4169*
X2051Y4141*
X2011*
X1999Y4153*
X1476*
X1464Y4141*
X1424*
X1396Y4169*
Y4209*
X1421Y4235*
X1090Y4566*
X1055*
X1083Y4538*
G75*
G02X1094Y4511I-27J-27*
G01*
Y4177*
G75*
G02X1083Y4150I-38*
G01*
X995Y4063*
G75*
G02X969Y4052I-27J27*
G01*
X881*
G75*
G02X869Y4054J38*
G01*
X849*
X821Y4082*
Y4114*
X817*
Y4082*
X789Y4054*
X772*
X753Y4035*
X767Y4022*
Y3982*
X739Y3954*
X722*
X694Y3926*
G75*
G02X680Y3917I-25J25*
G01*
Y3877*
X644Y3841*
X593*
X558Y3877*
Y3916*
X322*
X317Y3911*
X345Y3883*
Y3820*
X300Y3776*
X237*
X193Y3820*
Y3883*
X220Y3911*
X206Y3926*
Y3978*
X230Y4002*
X206Y4026*
Y4078*
X230Y4102*
X206Y4126*
Y4178*
X230Y4202*
X206Y4226*
Y4278*
X217Y4289*
X206*
Y4415*
X215*
X906Y3846D02*
X896Y3857D01*
Y3897*
X924Y3925*
X964*
X992Y3897*
Y3857*
X981Y3846*
Y3225*
G75*
G02X1140Y3152I62J-73*
G01*
G75*
G02X969Y3092I-96*
G01*
Y2997*
X1027Y2939*
X1126*
Y3048*
X1145*
Y3266*
X1106*
G75*
G02X1081Y3276J36*
G01*
X1006Y3351*
G75*
G02X995Y3377I25J25*
G01*
Y3564*
G75*
G02X1031Y3600I36*
G01*
X1170*
G75*
G02X1192I11J-36*
G01*
X1570*
G75*
G02X1592I11J-36*
G01*
X2131*
G75*
G02X2157Y3590J-36*
G01*
X2189Y3557*
G75*
G02X2244Y3526I5J-56*
G01*
G75*
G02X2336Y3538I50J-25*
G01*
G75*
G02X2462Y3502I58J-37*
G01*
G75*
G02X2419Y3438I-69*
G01*
X2554*
X2783Y3667*
Y3684*
X2811Y3712*
X2851*
X2879Y3684*
Y3644*
X2851Y3616*
X2834*
X2594Y3376*
G75*
G02X2569Y3366I-25J25*
G01*
X2386*
G75*
G02X2344Y3346I-43J36*
G01*
Y3047*
X2361*
Y2905*
X2296*
X2260Y2856*
G75*
G02X2231Y2841I-29J21*
G01*
X1501*
X1489Y2829*
X1449*
X1421Y2857*
Y2897*
X1449Y2925*
X1489*
X1501Y2913*
X2075*
Y2939*
X1412*
Y2906*
X1326*
X1295Y2875*
G75*
G02X1269Y2864I-27J27*
G01*
X1011*
G75*
G02X985Y2875I0J38*
G01*
X905Y2955*
G75*
G02X894Y2982I27J27*
G01*
Y3202*
G75*
G02X905Y3228I38J0*
G01*
X906Y3230*
Y3846*
X1053Y4004D02*
X1036D01*
X1008Y4032*
Y4072*
X1036Y4100*
X1076*
X1104Y4072*
Y4055*
X1348Y3811*
X1374Y3837*
X1390*
X1371Y3857*
Y3897*
X1399Y3925*
X1416*
X1418Y3927*
G75*
G02X1444Y3938I25J-25*
G01*
X1549*
X1561Y3950*
X1601*
X1629Y3922*
Y3900*
X1639*
X1667Y3872*
Y3832*
X1660Y3825*
X1787*
X1811Y3850*
X1851*
X1879Y3822*
Y3782*
X1851Y3754*
X1825*
G75*
G02X1819Y3753I-6J36*
G01*
X1426*
X1416Y3743*
X1434Y3725*
X1549*
X1561Y3737*
X1601*
X1629Y3709*
Y3669*
X1601Y3641*
X1561*
X1549Y3653*
X1419*
G75*
G02X1393Y3664J36*
G01*
X1053Y4004*
X2348Y3152D02*
G75*
G02X2540I96D01*
G01*
G75*
G02X2348I-96*
G01*
X2595Y2828D02*
Y3076D01*
X2843*
Y2828*
X2595*
Y5028D02*
Y5276D01*
X2843*
Y5028*
X2595*
X119Y2952D02*
G36*
Y2752D01*
X2919*
Y2952*
X2843*
Y2828*
X2595*
Y2952*
X2361*
Y2905*
X2296*
X2260Y2856*
G75*
G02X2231Y2841I-29J21*
G01*
X1501*
X1489Y2829*
X1449*
X1421Y2857*
Y2897*
X1449Y2925*
X1489*
X1501Y2913*
X2075*
Y2939*
X1412*
Y2906*
X1326*
X1295Y2875*
G75*
G02X1269Y2864I-27J27*
G01*
X1011*
G75*
G02X985Y2875I0J38*
G01*
X908Y2952*
X443*
Y2828*
X195*
Y2952*
X119*
G37*
X195D02*
G36*
Y3076D01*
X443*
Y2952*
X908*
X905Y2955*
G75*
G02X894Y2982I27J27*
G01*
Y3152*
X119*
Y2952*
X195*
G37*
X2595D02*
G36*
Y3076D01*
X2843*
Y2952*
X2919*
Y3152*
X2540*
G75*
G02X2348I-96*
G01*
X2344*
Y3047*
X2361*
Y2952*
X2595*
G37*
X119Y5152D02*
G36*
Y3871D01*
X193*
Y3883*
X220Y3911*
X206Y3926*
Y3978*
X230Y4002*
X206Y4026*
Y4078*
X230Y4102*
X206Y4126*
Y4178*
X230Y4202*
X206Y4226*
Y4278*
X217Y4289*
X206*
Y4415*
X215*
X180Y4450*
G75*
G02X169Y4477I27J27*
G01*
Y4916*
G75*
G02X180Y4943I38*
G01*
X253Y5016*
G75*
G02X279Y5027I27J-27*
G01*
X506*
Y5078*
X540Y5113*
X528Y5125*
Y5152*
X443*
Y5028*
X195*
Y5152*
X119*
G37*
X195D02*
G36*
Y5276D01*
X443*
Y5152*
X528*
Y5175*
X564Y5211*
X615*
X650Y5175*
Y5150*
X924*
X936Y5162*
X976*
X988Y5150*
X1356*
G75*
G02X1382Y5140J-36*
G01*
X1412Y5110*
X1443*
X1477Y5076*
Y5028*
X1451Y5002*
X1477Y4976*
Y4928*
X1443Y4894*
X1414*
X1383Y4863*
G75*
G02X1356Y4852I-27J27*
G01*
X1272*
X1254Y4834*
Y4819*
X1237Y4802*
X1276*
X1286Y4812*
X1326*
X1338Y4800*
X1769*
G75*
G02X1789Y4794J-36*
G01*
X1925Y4700*
X1951*
X1977Y4674*
X1995Y4692*
Y4841*
X1961*
X1933Y4869*
Y4884*
X1829Y4989*
X1756*
Y5115*
X1882*
Y5104*
X1893Y5115*
X1945*
X1960Y5100*
X1987Y5128*
X2018*
G75*
G02X2134Y5152I64J-13*
G01*
X2595*
Y5276*
X2843*
Y5152*
X2919*
Y5352*
X119*
Y5152*
X195*
G37*
X2134D02*
G36*
G75*
G02X2146Y5114I-53J-37D01*
G01*
G75*
G02X2146Y5113I-65J0*
G01*
X2164Y5096*
X2319*
G75*
G02X2350Y5083I0J-44*
G01*
X2696Y4737*
X2720Y4761*
X2706Y4776*
Y4828*
X2720Y4843*
X2693Y4870*
Y4933*
X2737Y4978*
X2800*
X2845Y4933*
Y4870*
X2817Y4843*
X2832Y4828*
Y4776*
X2817Y4761*
X2845Y4733*
Y4670*
X2832Y4657*
Y4539*
X2706*
Y4603*
X2695Y4613*
X2288Y4207*
G75*
G02X2256Y4194I-32J32*
G01*
X2146*
G75*
G02X2114Y4207J46*
G01*
X2061Y4259*
X2039Y4281*
X1981*
X1954Y4254*
X1925Y4225*
X1999*
X2011Y4237*
X2051*
X2079Y4209*
Y4169*
X2051Y4141*
X2011*
X1999Y4153*
X1476*
X1464Y4141*
X1424*
X1396Y4169*
Y4209*
X1421Y4235*
X1090Y4566*
X1055*
X1083Y4538*
G75*
G02X1094Y4511I-27J-27*
G01*
Y4177*
G75*
G02X1083Y4150I-38*
G01*
X995Y4063*
G75*
G02X969Y4052I-27J27*
G01*
X881*
G75*
G02X869Y4054J38*
G01*
X849*
X821Y4082*
Y4114*
X817*
Y4082*
X789Y4054*
X772*
X753Y4035*
X767Y4022*
Y3982*
X739Y3954*
X722*
X694Y3926*
G75*
G02X680Y3917I-25J25*
G01*
Y3877*
X674Y3871*
X896*
Y3897*
X924Y3925*
X964*
X992Y3897*
Y3871*
X1187*
X1053Y4004*
X1036*
X1008Y4032*
Y4072*
X1036Y4100*
X1076*
X1104Y4072*
Y4055*
X1348Y3811*
X1374Y3837*
X1390*
X1371Y3857*
Y3897*
X1399Y3925*
X1416*
X1418Y3927*
G75*
G02X1444Y3938I25J-25*
G01*
X1549*
X1561Y3950*
X1601*
X1629Y3922*
Y3900*
X1639*
X1667Y3872*
Y3871*
X2919*
Y5152*
X2843*
Y5028*
X2595*
Y5152*
X2134*
G37*
X119Y3871D02*
G36*
Y3152D01*
X894*
Y3202*
G75*
G02X905Y3228I38J0*
G01*
X906Y3230*
Y3846*
X896Y3857*
Y3871*
X674*
X644Y3841*
X593*
X558Y3877*
Y3916*
X322*
X317Y3911*
X345Y3883*
Y3820*
X300Y3776*
X237*
X193Y3820*
Y3871*
X119*
G37*
X992D02*
G36*
Y3857D01*
X981Y3846*
Y3225*
G75*
G02X1140Y3152I62J-73*
G01*
G75*
G02X969Y3092I-96*
G01*
Y2997*
X1027Y2939*
X1126*
Y3048*
X1145*
Y3266*
X1106*
G75*
G02X1081Y3276J36*
G01*
X1006Y3351*
G75*
G02X995Y3377I25J25*
G01*
Y3564*
G75*
G02X1031Y3600I36*
G01*
X1170*
G75*
G02X1192I11J-36*
G01*
X1570*
G75*
G02X1592I11J-36*
G01*
X2131*
G75*
G02X2157Y3590J-36*
G01*
X2189Y3557*
G75*
G02X2244Y3526I5J-56*
G01*
G75*
G02X2336Y3538I50J-25*
G01*
G75*
G02X2462Y3502I58J-37*
G01*
G75*
G02X2419Y3438I-69*
G01*
X2554*
X2783Y3667*
Y3684*
X2811Y3712*
X2851*
X2879Y3684*
Y3644*
X2851Y3616*
X2834*
X2594Y3376*
G75*
G02X2569Y3366I-25J25*
G01*
X2386*
G75*
G02X2344Y3346I-43J36*
G01*
Y3152*
X2348*
G75*
G02X2540I96*
G01*
X2919*
Y3871*
X1667*
Y3832*
X1660Y3825*
X1787*
X1811Y3850*
X1851*
X1879Y3822*
Y3782*
X1851Y3754*
X1825*
G75*
G02X1819Y3753I-6J36*
G01*
X1426*
X1416Y3743*
X1434Y3725*
X1549*
X1561Y3737*
X1601*
X1629Y3709*
Y3669*
X1601Y3641*
X1561*
X1549Y3653*
X1419*
G75*
G02X1393Y3664J36*
G01*
X1187Y3871*
X992*
G37*
X242Y2096D02*
X298D01*
X328Y2066*
X345Y2083*
X393*
X415Y2061*
X669*
G75*
G02X694Y2050J-36*
G01*
X722Y2023*
X739*
X767Y1994*
Y1961*
X1093*
G75*
G02X1150Y1956I25J-36*
G01*
X1495Y1610*
X1501*
X1504Y1607*
X1543*
X1521Y1630*
Y1647*
X1493Y1674*
G75*
G02X1483Y1700I25J25*
G01*
Y1864*
G75*
G02X1493Y1890I36*
G01*
X1529Y1925*
G75*
G02X1554Y1936I25J-25*
G01*
X1902*
X1883Y1955*
Y1964*
X1757Y2051*
X1338*
X1326Y2039*
X1286*
X1274Y2051*
X856*
G75*
G02X831Y2062J36*
G01*
X716Y2177*
X699*
X671Y2205*
Y2244*
X699Y2273*
X739*
X744Y2267*
X752Y2276*
X294*
X242Y2224*
Y2096*
G36*
X298*
X328Y2066*
X345Y2083*
X393*
X415Y2061*
X669*
G75*
G02X694Y2050J-36*
G01*
X722Y2023*
X739*
X767Y1994*
Y1961*
X1093*
G75*
G02X1150Y1956I25J-36*
G01*
X1495Y1610*
X1501*
X1504Y1607*
X1543*
X1521Y1630*
Y1647*
X1493Y1674*
G75*
G02X1483Y1700I25J25*
G01*
Y1864*
G75*
G02X1493Y1890I36*
G01*
X1529Y1925*
G75*
G02X1554Y1936I25J-25*
G01*
X1902*
X1883Y1955*
Y1964*
X1757Y2051*
X1338*
X1326Y2039*
X1286*
X1274Y2051*
X856*
G75*
G02X831Y2062J36*
G01*
X716Y2177*
X699*
X671Y2205*
Y2244*
X699Y2273*
X739*
X744Y2267*
X752Y2276*
X294*
X242Y2224*
Y2096*
G37*
X244Y4773D02*
X298D01*
X328Y4743*
X345Y4760*
X393*
X415Y4738*
X669*
G75*
G02X694Y4727J-36*
G01*
X722Y4700*
X739*
X767Y4672*
Y4638*
X1091*
G75*
G02X1151Y4634I28J-36*
G01*
X1498Y4287*
X1501*
X1504Y4284*
X1543*
X1521Y4307*
Y4324*
X1493Y4351*
G75*
G02X1483Y4377I25J25*
G01*
Y4541*
G75*
G02X1493Y4567I36*
G01*
X1529Y4602*
G75*
G02X1554Y4613I25J-25*
G01*
X1902*
X1883Y4632*
Y4641*
X1757Y4728*
X1338*
X1326Y4716*
X1286*
X1276Y4727*
X856*
G75*
G02X830Y4738J38*
G01*
X714Y4854*
X699*
X671Y4882*
Y4922*
X699Y4950*
X739*
X744Y4945*
X751Y4952*
X295*
X244Y4901*
Y4773*
G36*
X298*
X328Y4743*
X345Y4760*
X393*
X415Y4738*
X669*
G75*
G02X694Y4727J-36*
G01*
X722Y4700*
X739*
X767Y4672*
Y4638*
X1091*
G75*
G02X1151Y4634I28J-36*
G01*
X1498Y4287*
X1501*
X1504Y4284*
X1543*
X1521Y4307*
Y4324*
X1493Y4351*
G75*
G02X1483Y4377I25J25*
G01*
Y4541*
G75*
G02X1493Y4567I36*
G01*
X1529Y4602*
G75*
G02X1554Y4613I25J-25*
G01*
X1902*
X1883Y4632*
Y4641*
X1757Y4728*
X1338*
X1326Y4716*
X1286*
X1276Y4727*
X856*
G75*
G02X830Y4738J38*
G01*
X714Y4854*
X699*
X671Y4882*
Y4922*
X699Y4950*
X739*
X744Y4945*
X751Y4952*
X295*
X244Y4901*
Y4773*
G37*
X1119Y1925D02*
X1481Y1562D01*
X1119Y4602D02*
X1481Y4239D01*
X1440Y756D02*
G75*
G02X1443Y698I-46J-31D01*
G01*
X1966*
X1988Y720*
G75*
G02X1988Y725I56J5*
G01*
G75*
G02X2094Y749I56*
G01*
G75*
G02X2194I50J-25*
G01*
G75*
G02X2288Y758I50J-25*
G01*
G75*
G02X2302Y762I18J-33*
G01*
G75*
G02X2341Y780I41J-37*
G01*
G75*
G02X2336Y788I52J44*
G01*
G75*
G02X2244Y800I-42J37*
G01*
G75*
G02X2144I-50J25*
G01*
G75*
G02X2038Y825I-50J25*
G01*
G75*
G02X2045Y851I56*
G01*
X1685*
X1704Y832*
Y792*
X1676Y764*
X1636*
X1628Y773*
X1606Y751*
X1556*
X1520Y787*
Y837*
X1534Y851*
X1507*
G75*
G02X1440Y756I-63J-27*
G01*
G36*
G75*
G02X1443Y698I-46J-31*
G01*
X1966*
X1988Y720*
G75*
G02X1988Y725I56J5*
G01*
G75*
G02X2094Y749I56*
G01*
G75*
G02X2194I50J-25*
G01*
G75*
G02X2288Y758I50J-25*
G01*
G75*
G02X2302Y762I18J-33*
G01*
G75*
G02X2341Y780I41J-37*
G01*
G75*
G02X2336Y788I52J44*
G01*
G75*
G02X2244Y800I-42J37*
G01*
G75*
G02X2144I-50J25*
G01*
G75*
G02X2038Y825I-50J25*
G01*
G75*
G02X2045Y851I56*
G01*
X1685*
X1704Y832*
Y792*
X1676Y764*
X1636*
X1628Y773*
X1606Y751*
X1556*
X1520Y787*
Y837*
X1534Y851*
X1507*
G75*
G02X1440Y756I-63J-27*
G01*
G37*
Y3433D02*
G75*
G02X1443Y3375I-46J-31D01*
G01*
X1966*
X1988Y3397*
G75*
G02X1988Y3402I56J5*
G01*
G75*
G02X2094Y3426I56*
G01*
G75*
G02X2194I50J-25*
G01*
G75*
G02X2288Y3435I50J-25*
G01*
G75*
G02X2302Y3439I18J-33*
G01*
G75*
G02X2341Y3457I41J-37*
G01*
G75*
G02X2336Y3465I52J44*
G01*
G75*
G02X2244Y3477I-42J37*
G01*
G75*
G02X2144I-50J25*
G01*
G75*
G02X2038Y3502I-50J25*
G01*
G75*
G02X2045Y3528I56*
G01*
X1685*
X1704Y3509*
Y3469*
X1676Y3441*
X1636*
X1628Y3450*
X1606Y3428*
X1556*
X1520Y3464*
Y3515*
X1534Y3528*
X1507*
G75*
G02X1440Y3433I-63J-27*
G01*
G36*
G75*
G02X1443Y3375I-46J-31*
G01*
X1966*
X1988Y3397*
G75*
G02X1988Y3402I56J5*
G01*
G75*
G02X2094Y3426I56*
G01*
G75*
G02X2194I50J-25*
G01*
G75*
G02X2288Y3435I50J-25*
G01*
G75*
G02X2302Y3439I18J-33*
G01*
G75*
G02X2341Y3457I41J-37*
G01*
G75*
G02X2336Y3465I52J44*
G01*
G75*
G02X2244Y3477I-42J37*
G01*
G75*
G02X2144I-50J25*
G01*
G75*
G02X2038Y3502I-50J25*
G01*
G75*
G02X2045Y3528I56*
G01*
X1685*
X1704Y3509*
Y3469*
X1676Y3441*
X1636*
X1628Y3450*
X1606Y3428*
X1556*
X1520Y3464*
Y3515*
X1534Y3528*
X1507*
G75*
G02X1440Y3433I-63J-27*
G01*
G37*
X1555Y1772D02*
X1568Y1785D01*
X1608*
X1620Y1773*
X2287*
X2299Y1785*
X2339*
X2367Y1757*
Y1737*
X2630Y2001*
X2300Y2331*
X2164*
X2145Y2312*
X2093*
X2078Y2326*
X2067Y2315*
G75*
G02X2067Y2312I-36J-3*
G01*
Y2306*
X2079Y2294*
Y2255*
X2067Y2243*
Y2000*
G75*
G02X2057Y1974I-36*
G01*
X1957Y1874*
G75*
G02X1931Y1864I-25J25*
G01*
X1569*
X1555Y1849*
Y1772*
G36*
X1568Y1785*
X1608*
X1620Y1773*
X2287*
X2299Y1785*
X2339*
X2367Y1757*
Y1737*
X2630Y2001*
X2300Y2331*
X2164*
X2145Y2312*
X2093*
X2078Y2326*
X2067Y2315*
G75*
G02X2067Y2312I-36J-3*
G01*
Y2306*
X2079Y2294*
Y2255*
X2067Y2243*
Y2000*
G75*
G02X2057Y1974I-36*
G01*
X1957Y1874*
G75*
G02X1931Y1864I-25J25*
G01*
X1569*
X1555Y1849*
Y1772*
G37*
Y4449D02*
X1568Y4462D01*
X1608*
X1620Y4450*
X2287*
X2299Y4462*
X2339*
X2367Y4434*
Y4414*
X2630Y4678*
X2300Y5008*
X2164*
X2145Y4989*
X2093*
X2078Y5003*
X2068Y4994*
G75*
G02X2069Y4989I-37J-5*
G01*
Y4982*
X2079Y4972*
Y4932*
X2067Y4920*
Y4677*
G75*
G02X2057Y4651I-36*
G01*
X1957Y4551*
G75*
G02X1931Y4541I-25J25*
G01*
X1569*
X1555Y4527*
Y4449*
G36*
X1568Y4462*
X1608*
X1620Y4450*
X2287*
X2299Y4462*
X2339*
X2367Y4434*
Y4414*
X2630Y4678*
X2300Y5008*
X2164*
X2145Y4989*
X2093*
X2078Y5003*
X2068Y4994*
G75*
G02X2069Y4989I-37J-5*
G01*
Y4982*
X2079Y4972*
Y4932*
X2067Y4920*
Y4677*
G75*
G02X2057Y4651I-36*
G01*
X1957Y4551*
G75*
G02X1931Y4541I-25J25*
G01*
X1569*
X1555Y4527*
Y4449*
G37*
X2694Y2000D02*
X2256Y1562D01*
X2146*
X2058Y1650*
X1962*
X1922Y1609*
X1874Y1562*
X1481Y1562*
X2694Y2000D02*
X2769Y1925D01*
X2694Y2000D02*
X2319Y2375D01*
X2119*
X2694Y4677D02*
X2256Y4239D01*
X2146*
X2094Y4291*
X2058Y4327*
X1962*
X1922Y4286*
X1874Y4239*
X1481Y4239*
X2694Y4677D02*
X2769Y4602D01*
X2694Y4677D02*
X2319Y5052D01*
X2119*
X2993Y2675D02*
Y75D01*
X5793*
Y2675*
X2993*
X3069Y151D02*
Y399D01*
X3317*
Y151*
X3069*
Y2351D02*
Y2599D01*
X3317*
Y2351*
X3069*
X3091Y1612D02*
X3080D01*
Y1738*
X3091*
X3055Y1774*
G75*
G02X3044Y1800I25J25*
G01*
Y2239*
G75*
G02X3055Y2265I36*
G01*
X3128Y2338*
G75*
G02X3153Y2348I25J-25*
G01*
X3380*
X3380Y2349*
Y2401*
X3416Y2437*
X3403Y2450*
Y2500*
X3439Y2536*
X3490*
X3525Y2500*
Y2473*
X3798*
X3810Y2485*
X3850*
X3862Y2473*
X4230*
G75*
G02X4256Y2463J-36*
G01*
X4286Y2433*
X4317*
X4351Y2399*
Y2351*
X4325Y2325*
X4351Y2299*
Y2251*
X4317Y2217*
X4286*
X4256Y2187*
G75*
G02X4230Y2176I-25J25*
G01*
X4145*
X4128Y2159*
Y2142*
X4109Y2123*
X4148*
X4160Y2135*
X4200*
X4212Y2123*
X4643*
G75*
G02X4663Y2117I0J-36*
G01*
X4799Y2023*
X4825*
X4851Y1997*
X4869Y2015*
Y2164*
X4835*
X4807Y2192*
Y2207*
X4703Y2312*
X4630*
Y2438*
X4756*
Y2427*
X4767Y2438*
X4819*
X4834Y2423*
X4861Y2451*
X4892*
G75*
G02X5020Y2437I64J-14*
G01*
G75*
G02X5020Y2436I-65J0*
G01*
X5038Y2419*
X5193*
G75*
G02X5224Y2406I0J-44*
G01*
X5570Y2059*
X5594Y2084*
X5580Y2099*
Y2151*
X5594Y2165*
X5567Y2193*
Y2256*
X5611Y2301*
X5674*
X5719Y2256*
Y2193*
X5691Y2165*
X5706Y2151*
Y2099*
X5691Y2084*
X5719Y2056*
Y1993*
X5706Y1980*
Y1862*
X5580*
Y1925*
X5569Y1936*
X5162Y1530*
G75*
G02X5130Y1517I-32J32*
G01*
X5020*
G75*
G02X4988Y1530J46*
G01*
X4935Y1582*
X4913Y1604*
X4855*
X4828Y1577*
X4799Y1548*
X4873*
X4885Y1560*
X4925*
X4953Y1532*
Y1492*
X4925Y1464*
X4885*
X4873Y1476*
X4350*
X4338Y1464*
X4298*
X4270Y1492*
Y1532*
X4295Y1558*
X3964Y1889*
X3927*
X3956Y1860*
G75*
G02X3966Y1834I-25J-25*
G01*
Y1500*
G75*
G02X3956Y1474I-36*
G01*
X3868Y1387*
G75*
G02X3843Y1376I-25J25*
G01*
X3755*
G75*
G02X3749Y1377J36*
G01*
X3723*
X3695Y1405*
Y1439*
X3691*
Y1405*
X3663Y1377*
X3646*
X3627Y1358*
X3641Y1344*
Y1305*
X3613Y1277*
X3596*
X3568Y1249*
G75*
G02X3554Y1240I-25J25*
G01*
Y1199*
X3518Y1164*
X3467*
X3432Y1199*
Y1239*
X3196*
X3191Y1234*
X3219Y1206*
Y1143*
X3174Y1099*
X3111*
X3067Y1143*
Y1206*
X3094Y1234*
X3080Y1249*
Y1301*
X3104Y1325*
X3080Y1349*
Y1401*
X3104Y1425*
X3080Y1449*
Y1501*
X3104Y1525*
X3080Y1549*
Y1601*
X3091Y1612*
X3780Y1169D02*
X3770Y1180D01*
Y1219*
X3798Y1248*
X3838*
X3866Y1219*
Y1180*
X3855Y1169*
Y548*
G75*
G02X4014Y475I62J-73*
G01*
G75*
G02X3843Y415I-96*
G01*
Y320*
X3901Y262*
X4000*
Y371*
X4018*
Y587*
X3980*
G75*
G02X3954Y598I0J38*
G01*
X3879Y673*
G75*
G02X3868Y700I27J27*
G01*
Y887*
G75*
G02X3905Y925I38*
G01*
X4053*
G75*
G02X4066Y923I2J-38*
G01*
X4444*
G75*
G02X4466I11J-36*
G01*
X5005*
G75*
G02X5031Y913J-36*
G01*
X5063Y880*
G75*
G02X5118Y849I5J-56*
G01*
G75*
G02X5210Y861I50J-25*
G01*
G75*
G02X5336Y825I58J-37*
G01*
G75*
G02X5293Y761I-69*
G01*
X5428*
X5657Y990*
Y1007*
X5685Y1035*
X5725*
X5753Y1007*
Y967*
X5725Y939*
X5708*
X5468Y699*
G75*
G02X5443Y689I-25J25*
G01*
X5260*
G75*
G02X5218Y669I-43J36*
G01*
Y370*
X5235*
Y228*
X5170*
X5135Y179*
G75*
G02X5105Y164I-29J21*
G01*
X4375*
X4363Y152*
X4323*
X4295Y180*
Y219*
X4323Y248*
X4363*
X4375Y236*
X4949*
Y262*
X4286*
Y229*
X4200*
X4169Y198*
G75*
G02X4143Y187I-27J27*
G01*
X3885*
G75*
G02X3859Y198I0J38*
G01*
X3779Y278*
G75*
G02X3768Y305I27J27*
G01*
Y525*
G75*
G02X3779Y551I38J0*
G01*
X3780Y553*
Y1169*
X3927Y1327D02*
X3910D01*
X3882Y1355*
Y1394*
X3910Y1423*
X3950*
X3978Y1394*
Y1378*
X4222Y1134*
X4248Y1160*
X4264*
X4245Y1180*
Y1219*
X4273Y1248*
X4290*
X4292Y1250*
G75*
G02X4318Y1261I25J-25*
G01*
X4423*
X4435Y1273*
X4475*
X4503Y1244*
Y1223*
X4513*
X4541Y1194*
Y1155*
X4536Y1150*
X4662*
X4685Y1173*
X4725*
X4753Y1144*
Y1105*
X4725Y1077*
X4705*
G75*
G02X4693Y1075I-12J36*
G01*
X4298*
X4290Y1066*
X4308Y1048*
X4423*
X4435Y1060*
X4475*
X4503Y1032*
Y992*
X4475Y964*
X4435*
X4423Y976*
X4293*
G75*
G02X4267Y987J36*
G01*
X3927Y1327*
X5222Y475D02*
G75*
G02X5414I96D01*
G01*
G75*
G02X5222I-96*
G01*
X5469Y151D02*
Y399D01*
X5717*
Y151*
X5469*
Y2351D02*
Y2599D01*
X5717*
Y2351*
X5469*
X2993Y275D02*
G36*
Y75D01*
X5793*
Y275*
X5717*
Y151*
X5469*
Y275*
X5235*
Y228*
X5170*
X5135Y179*
G75*
G02X5105Y164I-29J21*
G01*
X4375*
X4363Y152*
X4323*
X4295Y180*
Y219*
X4323Y248*
X4363*
X4375Y236*
X4949*
Y262*
X4286*
Y229*
X4200*
X4169Y198*
G75*
G02X4143Y187I-27J27*
G01*
X3885*
G75*
G02X3859Y198I0J38*
G01*
X3782Y275*
X3317*
Y151*
X3069*
Y275*
X2993*
G37*
X3069D02*
G36*
Y399D01*
X3317*
Y275*
X3782*
X3779Y278*
G75*
G02X3768Y305I27J27*
G01*
Y475*
X2993*
Y275*
X3069*
G37*
X5469D02*
G36*
Y399D01*
X5717*
Y275*
X5793*
Y475*
X5414*
G75*
G02X5222I-96*
G01*
X5218*
Y370*
X5235*
Y275*
X5469*
G37*
X2993Y2475D02*
G36*
Y1193D01*
X3067*
Y1206*
X3094Y1234*
X3080Y1249*
Y1301*
X3104Y1325*
X3080Y1349*
Y1401*
X3104Y1425*
X3080Y1449*
Y1501*
X3104Y1525*
X3080Y1549*
Y1601*
X3091Y1612*
X3080*
Y1738*
X3091*
X3055Y1774*
G75*
G02X3044Y1800I25J25*
G01*
Y2239*
G75*
G02X3055Y2265I36*
G01*
X3128Y2338*
G75*
G02X3153Y2348I25J-25*
G01*
X3380*
X3380Y2349*
Y2401*
X3416Y2437*
X3403Y2450*
Y2475*
X3317*
Y2351*
X3069*
Y2475*
X2993*
G37*
X3069D02*
G36*
Y2599D01*
X3317*
Y2475*
X3403*
Y2500*
X3439Y2536*
X3490*
X3525Y2500*
Y2473*
X3798*
X3810Y2485*
X3850*
X3862Y2473*
X4230*
G75*
G02X4256Y2463J-36*
G01*
X4286Y2433*
X4317*
X4351Y2399*
Y2351*
X4325Y2325*
X4351Y2299*
Y2251*
X4317Y2217*
X4286*
X4256Y2187*
G75*
G02X4230Y2176I-25J25*
G01*
X4145*
X4128Y2159*
Y2142*
X4109Y2123*
X4148*
X4160Y2135*
X4200*
X4212Y2123*
X4643*
G75*
G02X4663Y2117I0J-36*
G01*
X4799Y2023*
X4825*
X4851Y1997*
X4869Y2015*
Y2164*
X4835*
X4807Y2192*
Y2207*
X4703Y2312*
X4630*
Y2438*
X4756*
Y2427*
X4767Y2438*
X4819*
X4834Y2423*
X4861Y2451*
X4892*
G75*
G02X5008Y2475I64J-14*
G01*
X5469*
Y2599*
X5717*
Y2475*
X5793*
Y2675*
X2993*
Y2475*
X3069*
G37*
X5008D02*
G36*
G75*
G02X5020Y2437I-53J-38D01*
G01*
G75*
G02X5020Y2436I-65J0*
G01*
X5038Y2419*
X5193*
G75*
G02X5224Y2406I0J-44*
G01*
X5570Y2059*
X5594Y2084*
X5580Y2099*
Y2151*
X5594Y2165*
X5567Y2193*
Y2256*
X5611Y2301*
X5674*
X5719Y2256*
Y2193*
X5691Y2165*
X5706Y2151*
Y2099*
X5691Y2084*
X5719Y2056*
Y1993*
X5706Y1980*
Y1862*
X5580*
Y1925*
X5569Y1936*
X5162Y1530*
G75*
G02X5130Y1517I-32J32*
G01*
X5020*
G75*
G02X4988Y1530J46*
G01*
X4935Y1582*
X4913Y1604*
X4855*
X4828Y1577*
X4799Y1548*
X4873*
X4885Y1560*
X4925*
X4953Y1532*
Y1492*
X4925Y1464*
X4885*
X4873Y1476*
X4350*
X4338Y1464*
X4298*
X4270Y1492*
Y1532*
X4295Y1558*
X3964Y1889*
X3927*
X3956Y1860*
G75*
G02X3966Y1834I-25J-25*
G01*
Y1500*
G75*
G02X3956Y1474I-36*
G01*
X3868Y1387*
G75*
G02X3843Y1376I-25J25*
G01*
X3755*
G75*
G02X3749Y1377J36*
G01*
X3723*
X3695Y1405*
Y1439*
X3691*
Y1405*
X3663Y1377*
X3646*
X3627Y1358*
X3641Y1344*
Y1305*
X3613Y1277*
X3596*
X3568Y1249*
G75*
G02X3554Y1240I-25J25*
G01*
Y1199*
X3548Y1193*
X3770*
Y1219*
X3798Y1248*
X3838*
X3866Y1219*
Y1193*
X4061*
X3927Y1327*
X3910*
X3882Y1355*
Y1394*
X3910Y1423*
X3950*
X3978Y1394*
Y1378*
X4222Y1134*
X4248Y1160*
X4264*
X4245Y1180*
Y1219*
X4273Y1248*
X4290*
X4292Y1250*
G75*
G02X4318Y1261I25J-25*
G01*
X4423*
X4435Y1273*
X4475*
X4503Y1244*
Y1223*
X4513*
X4541Y1194*
Y1193*
X5793*
Y2475*
X5717*
Y2351*
X5469*
Y2475*
X5008*
G37*
X2993Y1193D02*
G36*
Y475D01*
X3768*
Y525*
G75*
G02X3779Y551I38J0*
G01*
X3780Y553*
Y1169*
X3770Y1180*
Y1193*
X3548*
X3518Y1164*
X3467*
X3432Y1199*
Y1239*
X3196*
X3191Y1234*
X3219Y1206*
Y1143*
X3174Y1099*
X3111*
X3067Y1143*
Y1193*
X2993*
G37*
X3866D02*
G36*
Y1180D01*
X3855Y1169*
Y548*
G75*
G02X4014Y475I62J-73*
G01*
G75*
G02X3843Y415I-96*
G01*
Y320*
X3901Y262*
X4000*
Y371*
X4018*
Y587*
X3980*
G75*
G02X3954Y598I0J38*
G01*
X3879Y673*
G75*
G02X3868Y700I27J27*
G01*
Y887*
G75*
G02X3905Y925I38*
G01*
X4053*
G75*
G02X4066Y923I2J-38*
G01*
X4444*
G75*
G02X4466I11J-36*
G01*
X5005*
G75*
G02X5031Y913J-36*
G01*
X5063Y880*
G75*
G02X5118Y849I5J-56*
G01*
G75*
G02X5210Y861I50J-25*
G01*
G75*
G02X5336Y825I58J-37*
G01*
G75*
G02X5293Y761I-69*
G01*
X5428*
X5657Y990*
Y1007*
X5685Y1035*
X5725*
X5753Y1007*
Y967*
X5725Y939*
X5708*
X5468Y699*
G75*
G02X5443Y689I-25J25*
G01*
X5260*
G75*
G02X5218Y669I-43J36*
G01*
Y475*
X5222*
G75*
G02X5414I96*
G01*
X5793*
Y1193*
X4541*
Y1155*
X4536Y1150*
X4662*
X4685Y1173*
X4725*
X4753Y1144*
Y1105*
X4725Y1077*
X4705*
G75*
G02X4693Y1075I-12J36*
G01*
X4298*
X4290Y1066*
X4308Y1048*
X4423*
X4435Y1060*
X4475*
X4503Y1032*
Y992*
X4475Y964*
X4435*
X4423Y976*
X4293*
G75*
G02X4267Y987J36*
G01*
X4061Y1193*
X3866*
G37*
X2993Y5352D02*
Y2752D01*
X5793*
Y5352*
X2993*
X3069Y2828D02*
Y3076D01*
X3317*
Y2828*
X3069*
Y5028D02*
Y5276D01*
X3317*
Y5028*
X3069*
X3089Y4415D02*
X3054Y4450D01*
G75*
G02X3043Y4477I27J27*
G01*
Y4916*
G75*
G02X3054Y4943I38*
G01*
X3127Y5016*
G75*
G02X3153Y5027I27J-27*
G01*
X3380*
Y5078*
X3415Y5113*
X3403Y5125*
Y5175*
X3439Y5211*
X3490*
X3525Y5175*
Y5150*
X3798*
X3810Y5162*
X3850*
X3862Y5150*
X4230*
G75*
G02X4256Y5140J-36*
G01*
X4286Y5110*
X4317*
X4351Y5076*
Y5028*
X4325Y5002*
X4351Y4976*
Y4928*
X4317Y4894*
X4286*
X4256Y4864*
G75*
G02X4230Y4853I-25J25*
G01*
X4145*
X4128Y4836*
Y4819*
X4111Y4802*
X4150*
X4160Y4812*
X4200*
X4212Y4800*
X4643*
G75*
G02X4663Y4794J-36*
G01*
X4799Y4700*
X4825*
X4851Y4674*
X4869Y4692*
Y4841*
X4835*
X4807Y4869*
Y4884*
X4703Y4989*
X4630*
Y5115*
X4756*
Y5104*
X4767Y5115*
X4819*
X4834Y5100*
X4861Y5128*
X4892*
G75*
G02X5020Y5114I64J-13*
G01*
G75*
G02X5020Y5113I-65J0*
G01*
X5038Y5096*
X5193*
G75*
G02X5224Y5083I0J-44*
G01*
X5570Y4737*
X5594Y4761*
X5580Y4776*
Y4828*
X5594Y4843*
X5567Y4870*
Y4933*
X5611Y4978*
X5674*
X5719Y4933*
Y4870*
X5691Y4843*
X5706Y4828*
Y4776*
X5691Y4761*
X5719Y4733*
Y4670*
X5706Y4657*
Y4539*
X5580*
Y4603*
X5569Y4613*
X5162Y4207*
G75*
G02X5130Y4194I-32J32*
G01*
X5020*
G75*
G02X4988Y4207I0J46*
G01*
X4935Y4259*
X4913Y4281*
X4855*
X4828Y4254*
X4799Y4225*
X4873*
X4885Y4237*
X4925*
X4953Y4209*
Y4169*
X4925Y4141*
X4885*
X4873Y4153*
X4350*
X4338Y4141*
X4298*
X4270Y4169*
Y4209*
X4295Y4235*
X3964Y4566*
X3929*
X3957Y4538*
G75*
G02X3968Y4511I-27J-27*
G01*
Y4177*
G75*
G02X3957Y4150I-38*
G01*
X3869Y4063*
G75*
G02X3843Y4052I-27J27*
G01*
X3755*
G75*
G02X3743Y4054J38*
G01*
X3723*
X3695Y4082*
Y4114*
X3691*
Y4082*
X3663Y4054*
X3646*
X3627Y4035*
X3641Y4022*
Y3982*
X3613Y3954*
X3596*
X3568Y3926*
G75*
G02X3554Y3917I-25J25*
G01*
Y3877*
X3518Y3841*
X3467*
X3432Y3877*
Y3916*
X3196*
X3191Y3911*
X3219Y3883*
Y3820*
X3174Y3776*
X3111*
X3067Y3820*
Y3883*
X3094Y3911*
X3080Y3926*
Y3978*
X3104Y4002*
X3080Y4026*
Y4078*
X3104Y4102*
X3080Y4126*
Y4178*
X3104Y4202*
X3080Y4226*
Y4278*
X3091Y4289*
X3080*
Y4415*
X3089*
X3780Y3846D02*
X3770Y3857D01*
Y3897*
X3798Y3925*
X3838*
X3866Y3897*
Y3857*
X3855Y3846*
Y3225*
G75*
G02X4014Y3152I62J-73*
G01*
G75*
G02X3843Y3092I-96*
G01*
Y2997*
X3901Y2939*
X4000*
Y3048*
X4018*
Y3264*
X3980*
G75*
G02X3954Y3275I0J38*
G01*
X3879Y3350*
G75*
G02X3868Y3377I27J27*
G01*
Y3564*
G75*
G02X3905Y3602I38*
G01*
X4053*
G75*
G02X4066Y3600I2J-38*
G01*
X4444*
G75*
G02X4466I11J-36*
G01*
X5005*
G75*
G02X5031Y3590J-36*
G01*
X5063Y3557*
G75*
G02X5118Y3526I5J-56*
G01*
G75*
G02X5210Y3538I50J-25*
G01*
G75*
G02X5336Y3502I58J-37*
G01*
G75*
G02X5293Y3438I-69*
G01*
X5428*
X5657Y3667*
Y3684*
X5685Y3712*
X5725*
X5753Y3684*
Y3644*
X5725Y3616*
X5708*
X5468Y3376*
G75*
G02X5443Y3366I-25J25*
G01*
X5260*
G75*
G02X5218Y3346I-43J36*
G01*
Y3047*
X5235*
Y2905*
X5170*
X5135Y2856*
G75*
G02X5105Y2841I-29J21*
G01*
X4375*
X4363Y2829*
X4323*
X4295Y2857*
Y2897*
X4323Y2925*
X4363*
X4375Y2913*
X4949*
Y2939*
X4286*
Y2906*
X4200*
X4169Y2875*
G75*
G02X4143Y2864I-27J27*
G01*
X3885*
G75*
G02X3859Y2875I0J38*
G01*
X3779Y2955*
G75*
G02X3768Y2982I27J27*
G01*
Y3202*
G75*
G02X3779Y3228I38J0*
G01*
X3780Y3230*
Y3846*
X3927Y4004D02*
X3910D01*
X3882Y4032*
Y4072*
X3910Y4100*
X3950*
X3978Y4072*
Y4055*
X4222Y3811*
X4248Y3837*
X4264*
X4245Y3857*
Y3897*
X4273Y3925*
X4290*
X4292Y3927*
G75*
G02X4318Y3938I25J-25*
G01*
X4423*
X4435Y3950*
X4475*
X4503Y3922*
Y3900*
X4513*
X4541Y3872*
Y3832*
X4536Y3827*
X4662*
X4685Y3850*
X4725*
X4753Y3822*
Y3782*
X4725Y3754*
X4705*
G75*
G02X4693Y3752I-12J36*
G01*
X4298*
X4290Y3743*
X4308Y3725*
X4423*
X4435Y3737*
X4475*
X4503Y3709*
Y3669*
X4475Y3641*
X4435*
X4423Y3653*
X4293*
G75*
G02X4267Y3664J36*
G01*
X3927Y4004*
X5222Y3152D02*
G75*
G02X5414I96D01*
G01*
G75*
G02X5222I-96*
G01*
X5469Y2828D02*
Y3076D01*
X5717*
Y2828*
X5469*
Y5028D02*
Y5276D01*
X5717*
Y5028*
X5469*
X2993Y2952D02*
G36*
Y2752D01*
X5793*
Y2952*
X5717*
Y2828*
X5469*
Y2952*
X5235*
Y2905*
X5170*
X5135Y2856*
G75*
G02X5105Y2841I-29J21*
G01*
X4375*
X4363Y2829*
X4323*
X4295Y2857*
Y2897*
X4323Y2925*
X4363*
X4375Y2913*
X4949*
Y2939*
X4286*
Y2906*
X4200*
X4169Y2875*
G75*
G02X4143Y2864I-27J27*
G01*
X3885*
G75*
G02X3859Y2875I0J38*
G01*
X3782Y2952*
X3317*
Y2828*
X3069*
Y2952*
X2993*
G37*
X3069D02*
G36*
Y3076D01*
X3317*
Y2952*
X3782*
X3779Y2955*
G75*
G02X3768Y2982I27J27*
G01*
Y3152*
X2993*
Y2952*
X3069*
G37*
X5469D02*
G36*
Y3076D01*
X5717*
Y2952*
X5793*
Y3152*
X5414*
G75*
G02X5222I-96*
G01*
X5218*
Y3047*
X5235*
Y2952*
X5469*
G37*
X2993Y5152D02*
G36*
Y3871D01*
X3067*
Y3883*
X3094Y3911*
X3080Y3926*
Y3978*
X3104Y4002*
X3080Y4026*
Y4078*
X3104Y4102*
X3080Y4126*
Y4178*
X3104Y4202*
X3080Y4226*
Y4278*
X3091Y4289*
X3080*
Y4415*
X3089*
X3054Y4450*
G75*
G02X3043Y4477I27J27*
G01*
Y4916*
G75*
G02X3054Y4943I38*
G01*
X3127Y5016*
G75*
G02X3153Y5027I27J-27*
G01*
X3380*
Y5078*
X3415Y5113*
X3403Y5125*
Y5152*
X3317*
Y5028*
X3069*
Y5152*
X2993*
G37*
X3069D02*
G36*
Y5276D01*
X3317*
Y5152*
X3403*
Y5175*
X3439Y5211*
X3490*
X3525Y5175*
Y5150*
X3798*
X3810Y5162*
X3850*
X3862Y5150*
X4230*
G75*
G02X4256Y5140J-36*
G01*
X4286Y5110*
X4317*
X4351Y5076*
Y5028*
X4325Y5002*
X4351Y4976*
Y4928*
X4317Y4894*
X4286*
X4256Y4864*
G75*
G02X4230Y4853I-25J25*
G01*
X4145*
X4128Y4836*
Y4819*
X4111Y4802*
X4150*
X4160Y4812*
X4200*
X4212Y4800*
X4643*
G75*
G02X4663Y4794J-36*
G01*
X4799Y4700*
X4825*
X4851Y4674*
X4869Y4692*
Y4841*
X4835*
X4807Y4869*
Y4884*
X4703Y4989*
X4630*
Y5115*
X4756*
Y5104*
X4767Y5115*
X4819*
X4834Y5100*
X4861Y5128*
X4892*
G75*
G02X5008Y5152I64J-13*
G01*
X5469*
Y5276*
X5717*
Y5152*
X5793*
Y5352*
X2993*
Y5152*
X3069*
G37*
X5008D02*
G36*
G75*
G02X5020Y5114I-53J-37D01*
G01*
G75*
G02X5020Y5113I-65J0*
G01*
X5038Y5096*
X5193*
G75*
G02X5224Y5083I0J-44*
G01*
X5570Y4737*
X5594Y4761*
X5580Y4776*
Y4828*
X5594Y4843*
X5567Y4870*
Y4933*
X5611Y4978*
X5674*
X5719Y4933*
Y4870*
X5691Y4843*
X5706Y4828*
Y4776*
X5691Y4761*
X5719Y4733*
Y4670*
X5706Y4657*
Y4539*
X5580*
Y4603*
X5569Y4613*
X5162Y4207*
G75*
G02X5130Y4194I-32J32*
G01*
X5020*
G75*
G02X4988Y4207I0J46*
G01*
X4935Y4259*
X4913Y4281*
X4855*
X4828Y4254*
X4799Y4225*
X4873*
X4885Y4237*
X4925*
X4953Y4209*
Y4169*
X4925Y4141*
X4885*
X4873Y4153*
X4350*
X4338Y4141*
X4298*
X4270Y4169*
Y4209*
X4295Y4235*
X3964Y4566*
X3929*
X3957Y4538*
G75*
G02X3968Y4511I-27J-27*
G01*
Y4177*
G75*
G02X3957Y4150I-38*
G01*
X3869Y4063*
G75*
G02X3843Y4052I-27J27*
G01*
X3755*
G75*
G02X3743Y4054J38*
G01*
X3723*
X3695Y4082*
Y4114*
X3691*
Y4082*
X3663Y4054*
X3646*
X3627Y4035*
X3641Y4022*
Y3982*
X3613Y3954*
X3596*
X3568Y3926*
G75*
G02X3554Y3917I-25J25*
G01*
Y3877*
X3548Y3871*
X3770*
Y3897*
X3798Y3925*
X3838*
X3866Y3897*
Y3871*
X4061*
X3927Y4004*
X3910*
X3882Y4032*
Y4072*
X3910Y4100*
X3950*
X3978Y4072*
Y4055*
X4222Y3811*
X4248Y3837*
X4264*
X4245Y3857*
Y3897*
X4273Y3925*
X4290*
X4292Y3927*
G75*
G02X4318Y3938I25J-25*
G01*
X4423*
X4435Y3950*
X4475*
X4503Y3922*
Y3900*
X4513*
X4541Y3872*
Y3871*
X5793*
Y5152*
X5717*
Y5028*
X5469*
Y5152*
X5008*
G37*
X2993Y3871D02*
G36*
Y3152D01*
X3768*
Y3202*
G75*
G02X3779Y3228I38J0*
G01*
X3780Y3230*
Y3846*
X3770Y3857*
Y3871*
X3548*
X3518Y3841*
X3467*
X3432Y3877*
Y3916*
X3196*
X3191Y3911*
X3219Y3883*
Y3820*
X3174Y3776*
X3111*
X3067Y3820*
Y3871*
X2993*
G37*
X3866D02*
G36*
Y3857D01*
X3855Y3846*
Y3225*
G75*
G02X4014Y3152I62J-73*
G01*
G75*
G02X3843Y3092I-96*
G01*
Y2997*
X3901Y2939*
X4000*
Y3048*
X4018*
Y3264*
X3980*
G75*
G02X3954Y3275I0J38*
G01*
X3879Y3350*
G75*
G02X3868Y3377I27J27*
G01*
Y3564*
G75*
G02X3905Y3602I38*
G01*
X4053*
G75*
G02X4066Y3600I2J-38*
G01*
X4444*
G75*
G02X4466I11J-36*
G01*
X5005*
G75*
G02X5031Y3590J-36*
G01*
X5063Y3557*
G75*
G02X5118Y3526I5J-56*
G01*
G75*
G02X5210Y3538I50J-25*
G01*
G75*
G02X5336Y3502I58J-37*
G01*
G75*
G02X5293Y3438I-69*
G01*
X5428*
X5657Y3667*
Y3684*
X5685Y3712*
X5725*
X5753Y3684*
Y3644*
X5725Y3616*
X5708*
X5468Y3376*
G75*
G02X5443Y3366I-25J25*
G01*
X5260*
G75*
G02X5218Y3346I-43J36*
G01*
Y3152*
X5222*
G75*
G02X5414I96*
G01*
X5793*
Y3871*
X4541*
Y3832*
X4536Y3827*
X4662*
X4685Y3850*
X4725*
X4753Y3822*
Y3782*
X4725Y3754*
X4705*
G75*
G02X4693Y3752I-12J36*
G01*
X4298*
X4290Y3743*
X4308Y3725*
X4423*
X4435Y3737*
X4475*
X4503Y3709*
Y3669*
X4475Y3641*
X4435*
X4423Y3653*
X4293*
G75*
G02X4267Y3664J36*
G01*
X4061Y3871*
X3866*
G37*
X3116Y2096D02*
X3172D01*
X3202Y2066*
X3219Y2083*
X3267*
X3289Y2061*
X3543*
G75*
G02X3568Y2050J-36*
G01*
X3596Y2023*
X3613*
X3641Y1994*
Y1961*
X3965*
G75*
G02X4025Y1957I28J-36*
G01*
X4372Y1610*
X4375*
X4378Y1607*
X4417*
X4395Y1630*
Y1647*
X4367Y1674*
G75*
G02X4357Y1700I25J25*
G01*
Y1864*
G75*
G02X4367Y1890I36*
G01*
X4403Y1925*
G75*
G02X4428Y1936I25J-25*
G01*
X4776*
X4757Y1955*
Y1964*
X4631Y2051*
X4212*
X4200Y2039*
X4160*
X4148Y2051*
X3730*
G75*
G02X3705Y2062J36*
G01*
X3590Y2177*
X3573*
X3545Y2205*
Y2244*
X3573Y2273*
X3613*
X3618Y2267*
X3626Y2276*
X3168*
X3116Y2224*
Y2096*
G36*
X3172*
X3202Y2066*
X3219Y2083*
X3267*
X3289Y2061*
X3543*
G75*
G02X3568Y2050J-36*
G01*
X3596Y2023*
X3613*
X3641Y1994*
Y1961*
X3965*
G75*
G02X4025Y1957I28J-36*
G01*
X4372Y1610*
X4375*
X4378Y1607*
X4417*
X4395Y1630*
Y1647*
X4367Y1674*
G75*
G02X4357Y1700I25J25*
G01*
Y1864*
G75*
G02X4367Y1890I36*
G01*
X4403Y1925*
G75*
G02X4428Y1936I25J-25*
G01*
X4776*
X4757Y1955*
Y1964*
X4631Y2051*
X4212*
X4200Y2039*
X4160*
X4148Y2051*
X3730*
G75*
G02X3705Y2062J36*
G01*
X3590Y2177*
X3573*
X3545Y2205*
Y2244*
X3573Y2273*
X3613*
X3618Y2267*
X3626Y2276*
X3168*
X3116Y2224*
Y2096*
G37*
X3118Y4773D02*
X3172D01*
X3202Y4743*
X3219Y4760*
X3267*
X3289Y4738*
X3543*
G75*
G02X3568Y4727J-36*
G01*
X3596Y4700*
X3613*
X3641Y4672*
Y4638*
X3965*
G75*
G02X4025Y4634I28J-36*
G01*
X4372Y4287*
X4375*
X4378Y4284*
X4417*
X4395Y4307*
Y4324*
X4367Y4351*
G75*
G02X4357Y4377I25J25*
G01*
Y4541*
G75*
G02X4367Y4567I36*
G01*
X4403Y4602*
G75*
G02X4428Y4613I25J-25*
G01*
X4776*
X4757Y4632*
Y4641*
X4631Y4728*
X4212*
X4200Y4716*
X4160*
X4150Y4727*
X3730*
G75*
G02X3704Y4738J38*
G01*
X3588Y4854*
X3573*
X3545Y4882*
Y4922*
X3573Y4950*
X3613*
X3618Y4945*
X3625Y4952*
X3169*
X3118Y4901*
Y4773*
G36*
X3172*
X3202Y4743*
X3219Y4760*
X3267*
X3289Y4738*
X3543*
G75*
G02X3568Y4727J-36*
G01*
X3596Y4700*
X3613*
X3641Y4672*
Y4638*
X3965*
G75*
G02X4025Y4634I28J-36*
G01*
X4372Y4287*
X4375*
X4378Y4284*
X4417*
X4395Y4307*
Y4324*
X4367Y4351*
G75*
G02X4357Y4377I25J25*
G01*
Y4541*
G75*
G02X4367Y4567I36*
G01*
X4403Y4602*
G75*
G02X4428Y4613I25J-25*
G01*
X4776*
X4757Y4632*
Y4641*
X4631Y4728*
X4212*
X4200Y4716*
X4160*
X4150Y4727*
X3730*
G75*
G02X3704Y4738J38*
G01*
X3588Y4854*
X3573*
X3545Y4882*
Y4922*
X3573Y4950*
X3613*
X3618Y4945*
X3625Y4952*
X3169*
X3118Y4901*
Y4773*
G37*
X3993Y1925D02*
X4355Y1562D01*
X3993Y4602D02*
X4355Y4239D01*
X4314Y756D02*
G75*
G02X4318Y700I-46J-31D01*
G01*
X4840*
X4862Y722*
G75*
G02X4862Y725I56J3*
G01*
G75*
G02X4968Y749I56*
G01*
G75*
G02X5068I50J-25*
G01*
G75*
G02X5163Y758I50J-25*
G01*
G75*
G02X5176Y762I18J-33*
G01*
G75*
G02X5215Y780I41J-37*
G01*
G75*
G02X5210Y788I52J44*
G01*
G75*
G02X5118Y800I-42J37*
G01*
G75*
G02X5018I-50J25*
G01*
G75*
G02X4912Y825I-50J25*
G01*
G75*
G02X4919Y851I56*
G01*
X4559*
X4578Y832*
Y792*
X4550Y764*
X4510*
X4502Y773*
X4480Y751*
X4430*
X4394Y787*
Y837*
X4408Y851*
X4381*
G75*
G02X4314Y756I-63J-27*
G01*
G36*
G75*
G02X4318Y700I-46J-31*
G01*
X4840*
X4862Y722*
G75*
G02X4862Y725I56J3*
G01*
G75*
G02X4968Y749I56*
G01*
G75*
G02X5068I50J-25*
G01*
G75*
G02X5163Y758I50J-25*
G01*
G75*
G02X5176Y762I18J-33*
G01*
G75*
G02X5215Y780I41J-37*
G01*
G75*
G02X5210Y788I52J44*
G01*
G75*
G02X5118Y800I-42J37*
G01*
G75*
G02X5018I-50J25*
G01*
G75*
G02X4912Y825I-50J25*
G01*
G75*
G02X4919Y851I56*
G01*
X4559*
X4578Y832*
Y792*
X4550Y764*
X4510*
X4502Y773*
X4480Y751*
X4430*
X4394Y787*
Y837*
X4408Y851*
X4381*
G75*
G02X4314Y756I-63J-27*
G01*
G37*
Y3433D02*
G75*
G02X4318Y3377I-46J-31D01*
G01*
X4840*
X4862Y3399*
G75*
G02X4862Y3402I56J3*
G01*
G75*
G02X4968Y3426I56*
G01*
G75*
G02X5068I50J-25*
G01*
G75*
G02X5163Y3435I50J-25*
G01*
G75*
G02X5176Y3439I18J-33*
G01*
G75*
G02X5215Y3457I41J-37*
G01*
G75*
G02X5210Y3465I52J44*
G01*
G75*
G02X5118Y3477I-42J37*
G01*
G75*
G02X5018I-50J25*
G01*
G75*
G02X4912Y3502I-50J25*
G01*
G75*
G02X4919Y3528I56*
G01*
X4559*
X4578Y3509*
Y3469*
X4550Y3441*
X4510*
X4502Y3450*
X4480Y3428*
X4430*
X4394Y3464*
Y3515*
X4408Y3528*
X4381*
G75*
G02X4314Y3433I-63J-27*
G01*
G36*
G75*
G02X4318Y3377I-46J-31*
G01*
X4840*
X4862Y3399*
G75*
G02X4862Y3402I56J3*
G01*
G75*
G02X4968Y3426I56*
G01*
G75*
G02X5068I50J-25*
G01*
G75*
G02X5163Y3435I50J-25*
G01*
G75*
G02X5176Y3439I18J-33*
G01*
G75*
G02X5215Y3457I41J-37*
G01*
G75*
G02X5210Y3465I52J44*
G01*
G75*
G02X5118Y3477I-42J37*
G01*
G75*
G02X5018I-50J25*
G01*
G75*
G02X4912Y3502I-50J25*
G01*
G75*
G02X4919Y3528I56*
G01*
X4559*
X4578Y3509*
Y3469*
X4550Y3441*
X4510*
X4502Y3450*
X4480Y3428*
X4430*
X4394Y3464*
Y3515*
X4408Y3528*
X4381*
G75*
G02X4314Y3433I-63J-27*
G01*
G37*
X4429Y1772D02*
X4442Y1785D01*
X4482*
X4494Y1773*
X5161*
X5173Y1785*
X5213*
X5241Y1757*
Y1737*
X5504Y2001*
X5174Y2331*
X5038*
X5019Y2312*
X4967*
X4952Y2326*
X4943Y2317*
G75*
G02X4943Y2312I-37J-5*
G01*
Y2305*
X4953Y2294*
Y2255*
X4941Y2243*
Y2000*
G75*
G02X4931Y1974I-36*
G01*
X4831Y1874*
G75*
G02X4805Y1864I-25J25*
G01*
X4443*
X4429Y1849*
Y1772*
G36*
X4442Y1785*
X4482*
X4494Y1773*
X5161*
X5173Y1785*
X5213*
X5241Y1757*
Y1737*
X5504Y2001*
X5174Y2331*
X5038*
X5019Y2312*
X4967*
X4952Y2326*
X4943Y2317*
G75*
G02X4943Y2312I-37J-5*
G01*
Y2305*
X4953Y2294*
Y2255*
X4941Y2243*
Y2000*
G75*
G02X4931Y1974I-36*
G01*
X4831Y1874*
G75*
G02X4805Y1864I-25J25*
G01*
X4443*
X4429Y1849*
Y1772*
G37*
Y4449D02*
X4442Y4462D01*
X4482*
X4494Y4450*
X5161*
X5173Y4462*
X5213*
X5241Y4434*
Y4414*
X5504Y4678*
X5174Y5008*
X5038*
X5019Y4989*
X4967*
X4952Y5003*
X4943Y4994*
G75*
G02X4943Y4989I-37J-5*
G01*
Y4982*
X4953Y4972*
Y4932*
X4941Y4920*
Y4677*
G75*
G02X4931Y4651I-36*
G01*
X4831Y4551*
G75*
G02X4805Y4541I-25J25*
G01*
X4443*
X4429Y4527*
Y4449*
G36*
X4442Y4462*
X4482*
X4494Y4450*
X5161*
X5173Y4462*
X5213*
X5241Y4434*
Y4414*
X5504Y4678*
X5174Y5008*
X5038*
X5019Y4989*
X4967*
X4952Y5003*
X4943Y4994*
G75*
G02X4943Y4989I-37J-5*
G01*
Y4982*
X4953Y4972*
Y4932*
X4941Y4920*
Y4677*
G75*
G02X4931Y4651I-36*
G01*
X4831Y4551*
G75*
G02X4805Y4541I-25J25*
G01*
X4443*
X4429Y4527*
Y4449*
G37*
X5568Y2000D02*
X5130Y1562D01*
X5020*
X4968Y1614*
X4932Y1650*
X4836*
X4796Y1609*
X4748Y1562*
X4355Y1562*
X5568Y2000D02*
X5643Y1925D01*
X5568Y2000D02*
X5193Y2375D01*
X4993*
X5568Y4677D02*
X5130Y4239D01*
X5020*
X4968Y4291*
X4932Y4327*
X4836*
X4796Y4286*
X4748Y4239*
X4355Y4239*
X5568Y4677D02*
X5643Y4602D01*
X5568Y4677D02*
X5193Y5052D01*
X4993*
X5867Y2675D02*
Y75D01*
X8667*
Y2675*
X5867*
X5943Y151D02*
Y399D01*
X6191*
Y151*
X5943*
Y2351D02*
Y2599D01*
X6191*
Y2351*
X5943*
X5965Y1612D02*
X5954D01*
Y1738*
X5965*
X5929Y1774*
G75*
G02X5918Y1800I25J25*
G01*
Y2239*
G75*
G02X5929Y2265I36*
G01*
X6002Y2338*
G75*
G02X6027Y2348I25J-25*
G01*
X6254*
X6254Y2349*
Y2401*
X6291Y2438*
X6278Y2450*
Y2500*
X6314Y2536*
X6365*
X6400Y2500*
Y2473*
X6672*
X6684Y2485*
X6724*
X6736Y2473*
X7104*
G75*
G02X7130Y2463J-36*
G01*
X7160Y2433*
X7191*
X7225Y2399*
Y2351*
X7199Y2325*
X7225Y2299*
Y2251*
X7191Y2217*
X7160*
X7130Y2187*
G75*
G02X7104Y2176I-25J25*
G01*
X7019*
X7002Y2159*
Y2142*
X6985Y2125*
X7024*
X7034Y2135*
X7074*
X7086Y2123*
X7517*
G75*
G02X7537Y2117I0J-36*
G01*
X7673Y2023*
X7699*
X7725Y1997*
X7743Y2015*
Y2164*
X7709*
X7681Y2192*
Y2207*
X7577Y2312*
X7504*
Y2438*
X7630*
Y2427*
X7641Y2438*
X7693*
X7708Y2423*
X7735Y2451*
X7766*
G75*
G02X7894Y2437I64J-14*
G01*
G75*
G02X7894Y2436I-65J0*
G01*
X7912Y2419*
X8067*
G75*
G02X8098Y2406I0J-44*
G01*
X8444Y2059*
X8468Y2084*
X8454Y2099*
Y2151*
X8468Y2165*
X8441Y2193*
Y2256*
X8485Y2301*
X8548*
X8593Y2256*
Y2193*
X8565Y2165*
X8580Y2151*
Y2099*
X8565Y2084*
X8593Y2056*
Y1993*
X8580Y1980*
Y1862*
X8454*
Y1925*
X8443Y1936*
X8036Y1530*
G75*
G02X8004Y1517I-32J32*
G01*
X7894*
G75*
G02X7862Y1530J46*
G01*
X7810Y1582*
X7788Y1604*
X7729*
X7702Y1577*
X7673Y1548*
X7747*
X7759Y1560*
X7799*
X7827Y1532*
Y1492*
X7799Y1464*
X7759*
X7747Y1476*
X7224*
X7212Y1464*
X7172*
X7144Y1492*
Y1532*
X7169Y1558*
X6838Y1889*
X6803*
X6831Y1861*
G75*
G02X6842Y1834I-27J-27*
G01*
Y1500*
G75*
G02X6831Y1473I-38*
G01*
X6743Y1386*
G75*
G02X6717Y1375I-27J27*
G01*
X6629*
G75*
G02X6617Y1377J38*
G01*
X6597*
X6569Y1405*
Y1439*
X6565*
Y1405*
X6537Y1377*
X6520*
X6501Y1358*
X6515Y1344*
Y1305*
X6487Y1277*
X6470*
X6442Y1249*
G75*
G02X6428Y1240I-25J25*
G01*
Y1199*
X6392Y1164*
X6341*
X6306Y1199*
Y1239*
X6070*
X6065Y1234*
X6093Y1206*
Y1143*
X6048Y1099*
X5985*
X5941Y1143*
Y1206*
X5968Y1234*
X5954Y1249*
Y1301*
X5978Y1325*
X5954Y1349*
Y1401*
X5978Y1425*
X5954Y1449*
Y1501*
X5978Y1525*
X5954Y1549*
Y1601*
X5965Y1612*
X6654Y1169D02*
X6644Y1180D01*
Y1219*
X6672Y1248*
X6712*
X6740Y1219*
Y1180*
X6729Y1169*
Y548*
G75*
G02X6888Y475I62J-73*
G01*
G75*
G02X6717Y415I-96*
G01*
Y320*
X6775Y262*
X6874*
Y371*
X6893*
Y589*
X6854*
G75*
G02X6829Y599J36*
G01*
X6754Y674*
G75*
G02X6743Y700I25J25*
G01*
Y887*
G75*
G02X6779Y923I36*
G01*
X6918*
G75*
G02X6940I11J-36*
G01*
X7318*
G75*
G02X7340I11J-36*
G01*
X7879*
G75*
G02X7905Y913J-36*
G01*
X7937Y880*
G75*
G02X7992Y849I5J-56*
G01*
G75*
G02X8084Y861I50J-25*
G01*
G75*
G02X8210Y825I58J-37*
G01*
G75*
G02X8170Y762I-69*
G01*
X8301*
X8531Y992*
Y1007*
X8559Y1035*
X8599*
X8627Y1007*
Y967*
X8599Y939*
X8584*
X8343Y698*
G75*
G02X8317Y687I-27J27*
G01*
X8133*
G75*
G02X8092Y669I-41J38*
G01*
Y370*
X8109*
Y228*
X8044*
X8009Y179*
G75*
G02X7979Y164I-29J21*
G01*
X7249*
X7237Y152*
X7197*
X7169Y180*
Y219*
X7197Y248*
X7237*
X7249Y236*
X7823*
Y262*
X7160*
Y229*
X7074*
X7043Y198*
G75*
G02X7017Y187I-27J27*
G01*
X6759*
G75*
G02X6733Y198J38*
G01*
X6653Y278*
G75*
G02X6642Y305I27J27*
G01*
Y525*
G75*
G02X6653Y551I38*
G01*
X6654Y553*
Y1169*
X6801Y1327D02*
X6784D01*
X6756Y1355*
Y1394*
X6784Y1423*
X6824*
X6852Y1394*
Y1378*
X7096Y1134*
X7122Y1160*
X7138*
X7119Y1180*
Y1219*
X7147Y1248*
X7164*
X7166Y1250*
G75*
G02X7192Y1261I25J-25*
G01*
X7297*
X7309Y1273*
X7349*
X7377Y1244*
Y1223*
X7387*
X7415Y1194*
Y1155*
X7410Y1150*
X7536*
X7559Y1173*
X7599*
X7627Y1144*
Y1105*
X7599Y1077*
X7579*
G75*
G02X7567Y1075I-12J36*
G01*
X7172*
X7164Y1066*
X7182Y1048*
X7297*
X7309Y1060*
X7349*
X7377Y1032*
Y992*
X7349Y964*
X7309*
X7297Y976*
X7167*
G75*
G02X7141Y987J36*
G01*
X6801Y1327*
X8096Y475D02*
G75*
G02X8288I96D01*
G01*
G75*
G02X8096I-96*
G01*
X8343Y151D02*
Y399D01*
X8591*
Y151*
X8343*
Y2351D02*
Y2599D01*
X8591*
Y2351*
X8343*
X5867Y275D02*
G36*
Y75D01*
X8667*
Y275*
X8591*
Y151*
X8343*
Y275*
X8109*
Y228*
X8044*
X8009Y179*
G75*
G02X7979Y164I-29J21*
G01*
X7249*
X7237Y152*
X7197*
X7169Y180*
Y219*
X7197Y248*
X7237*
X7249Y236*
X7823*
Y262*
X7160*
Y229*
X7074*
X7043Y198*
G75*
G02X7017Y187I-27J27*
G01*
X6759*
G75*
G02X6733Y198J38*
G01*
X6656Y275*
X6191*
Y151*
X5943*
Y275*
X5867*
G37*
X5943D02*
G36*
Y399D01*
X6191*
Y275*
X6656*
X6653Y278*
G75*
G02X6642Y305I27J27*
G01*
Y475*
X5867*
Y275*
X5943*
G37*
X8343D02*
G36*
Y399D01*
X8591*
Y275*
X8667*
Y475*
X8288*
G75*
G02X8096I-96*
G01*
X8092*
Y370*
X8109*
Y275*
X8343*
G37*
X5867Y2475D02*
G36*
Y1193D01*
X5941*
Y1206*
X5968Y1234*
X5954Y1249*
Y1301*
X5978Y1325*
X5954Y1349*
Y1401*
X5978Y1425*
X5954Y1449*
Y1501*
X5978Y1525*
X5954Y1549*
Y1601*
X5965Y1612*
X5954*
Y1738*
X5965*
X5929Y1774*
G75*
G02X5918Y1800I25J25*
G01*
Y2239*
G75*
G02X5929Y2265I36*
G01*
X6002Y2338*
G75*
G02X6027Y2348I25J-25*
G01*
X6254*
X6254Y2349*
Y2401*
X6291Y2438*
X6278Y2450*
Y2475*
X6191*
Y2351*
X5943*
Y2475*
X5867*
G37*
X5943D02*
G36*
Y2599D01*
X6191*
Y2475*
X6278*
Y2500*
X6314Y2536*
X6365*
X6400Y2500*
Y2473*
X6672*
X6684Y2485*
X6724*
X6736Y2473*
X7104*
G75*
G02X7130Y2463J-36*
G01*
X7160Y2433*
X7191*
X7225Y2399*
Y2351*
X7199Y2325*
X7225Y2299*
Y2251*
X7191Y2217*
X7160*
X7130Y2187*
G75*
G02X7104Y2176I-25J25*
G01*
X7019*
X7002Y2159*
Y2142*
X6985Y2125*
X7024*
X7034Y2135*
X7074*
X7086Y2123*
X7517*
G75*
G02X7537Y2117I0J-36*
G01*
X7673Y2023*
X7699*
X7725Y1997*
X7743Y2015*
Y2164*
X7709*
X7681Y2192*
Y2207*
X7577Y2312*
X7504*
Y2438*
X7630*
Y2427*
X7641Y2438*
X7693*
X7708Y2423*
X7735Y2451*
X7766*
G75*
G02X7882Y2475I64J-14*
G01*
X8343*
Y2599*
X8591*
Y2475*
X8667*
Y2675*
X5867*
Y2475*
X5943*
G37*
X7882D02*
G36*
G75*
G02X7894Y2437I-53J-38D01*
G01*
G75*
G02X7894Y2436I-65J0*
G01*
X7912Y2419*
X8067*
G75*
G02X8098Y2406I0J-44*
G01*
X8444Y2059*
X8468Y2084*
X8454Y2099*
Y2151*
X8468Y2165*
X8441Y2193*
Y2256*
X8485Y2301*
X8548*
X8593Y2256*
Y2193*
X8565Y2165*
X8580Y2151*
Y2099*
X8565Y2084*
X8593Y2056*
Y1993*
X8580Y1980*
Y1862*
X8454*
Y1925*
X8443Y1936*
X8036Y1530*
G75*
G02X8004Y1517I-32J32*
G01*
X7894*
G75*
G02X7862Y1530J46*
G01*
X7810Y1582*
X7788Y1604*
X7729*
X7702Y1577*
X7673Y1548*
X7747*
X7759Y1560*
X7799*
X7827Y1532*
Y1492*
X7799Y1464*
X7759*
X7747Y1476*
X7224*
X7212Y1464*
X7172*
X7144Y1492*
Y1532*
X7169Y1558*
X6838Y1889*
X6803*
X6831Y1861*
G75*
G02X6842Y1834I-27J-27*
G01*
Y1500*
G75*
G02X6831Y1473I-38*
G01*
X6743Y1386*
G75*
G02X6717Y1375I-27J27*
G01*
X6629*
G75*
G02X6617Y1377J38*
G01*
X6597*
X6569Y1405*
Y1439*
X6565*
Y1405*
X6537Y1377*
X6520*
X6501Y1358*
X6515Y1344*
Y1305*
X6487Y1277*
X6470*
X6442Y1249*
G75*
G02X6428Y1240I-25J25*
G01*
Y1199*
X6422Y1193*
X6644*
Y1219*
X6672Y1248*
X6712*
X6740Y1219*
Y1193*
X6935*
X6801Y1327*
X6784*
X6756Y1355*
Y1394*
X6784Y1423*
X6824*
X6852Y1394*
Y1378*
X7096Y1134*
X7122Y1160*
X7138*
X7119Y1180*
Y1219*
X7147Y1248*
X7164*
X7166Y1250*
G75*
G02X7192Y1261I25J-25*
G01*
X7297*
X7309Y1273*
X7349*
X7377Y1244*
Y1223*
X7387*
X7415Y1194*
Y1193*
X8667*
Y2475*
X8591*
Y2351*
X8343*
Y2475*
X7882*
G37*
X5867Y1193D02*
G36*
Y475D01*
X6642*
Y525*
G75*
G02X6653Y551I38*
G01*
X6654Y553*
Y1169*
X6644Y1180*
Y1193*
X6422*
X6392Y1164*
X6341*
X6306Y1199*
Y1239*
X6070*
X6065Y1234*
X6093Y1206*
Y1143*
X6048Y1099*
X5985*
X5941Y1143*
Y1193*
X5867*
G37*
X6740D02*
G36*
Y1180D01*
X6729Y1169*
Y548*
G75*
G02X6888Y475I62J-73*
G01*
G75*
G02X6717Y415I-96*
G01*
Y320*
X6775Y262*
X6874*
Y371*
X6893*
Y589*
X6854*
G75*
G02X6829Y599J36*
G01*
X6754Y674*
G75*
G02X6743Y700I25J25*
G01*
Y887*
G75*
G02X6779Y923I36*
G01*
X6918*
G75*
G02X6940I11J-36*
G01*
X7318*
G75*
G02X7340I11J-36*
G01*
X7879*
G75*
G02X7905Y913J-36*
G01*
X7937Y880*
G75*
G02X7992Y849I5J-56*
G01*
G75*
G02X8084Y861I50J-25*
G01*
G75*
G02X8210Y825I58J-37*
G01*
G75*
G02X8170Y762I-69*
G01*
X8301*
X8531Y992*
Y1007*
X8559Y1035*
X8599*
X8627Y1007*
Y967*
X8599Y939*
X8584*
X8343Y698*
G75*
G02X8317Y687I-27J27*
G01*
X8133*
G75*
G02X8092Y669I-41J38*
G01*
Y475*
X8096*
G75*
G02X8288I96*
G01*
X8667*
Y1193*
X7415*
Y1155*
X7410Y1150*
X7536*
X7559Y1173*
X7599*
X7627Y1144*
Y1105*
X7599Y1077*
X7579*
G75*
G02X7567Y1075I-12J36*
G01*
X7172*
X7164Y1066*
X7182Y1048*
X7297*
X7309Y1060*
X7349*
X7377Y1032*
Y992*
X7349Y964*
X7309*
X7297Y976*
X7167*
G75*
G02X7141Y987J36*
G01*
X6935Y1193*
X6740*
G37*
X5867Y5352D02*
Y2752D01*
X8667*
Y5352*
X5867*
X5943Y2828D02*
Y3076D01*
X6191*
Y2828*
X5943*
Y5028D02*
Y5276D01*
X6191*
Y5028*
X5943*
X5965Y4289D02*
X5954D01*
Y4415*
X5965*
X5929Y4451*
G75*
G02X5918Y4477I25J25*
G01*
Y4916*
G75*
G02X5929Y4942I36J0*
G01*
X6002Y5015*
G75*
G02X6027Y5025I25J-25*
G01*
X6254*
X6254Y5026*
Y5078*
X6289Y5114*
X6278Y5125*
Y5175*
X6314Y5211*
X6365*
X6400Y5175*
Y5150*
X6672*
X6684Y5162*
X6724*
X6736Y5150*
X7104*
G75*
G02X7130Y5140J-36*
G01*
X7160Y5110*
X7191*
X7225Y5076*
Y5028*
X7199Y5002*
X7225Y4976*
Y4928*
X7191Y4894*
X7160*
X7130Y4864*
G75*
G02X7104Y4853I-25J25*
G01*
X7019*
X7002Y4836*
Y4819*
X6985Y4802*
X7024*
X7034Y4812*
X7074*
X7086Y4800*
X7517*
G75*
G02X7537Y4794J-36*
G01*
X7673Y4700*
X7699*
X7725Y4674*
X7743Y4692*
Y4841*
X7709*
X7681Y4869*
Y4884*
X7577Y4989*
X7504*
Y5115*
X7630*
Y5104*
X7641Y5115*
X7693*
X7708Y5100*
X7735Y5128*
X7766*
G75*
G02X7894Y5114I64J-13*
G01*
G75*
G02X7894Y5113I-65J0*
G01*
X7912Y5096*
X8067*
G75*
G02X8098Y5083I0J-44*
G01*
X8444Y4737*
X8468Y4761*
X8454Y4776*
Y4828*
X8468Y4843*
X8441Y4870*
Y4933*
X8485Y4978*
X8548*
X8593Y4933*
Y4870*
X8565Y4843*
X8580Y4828*
Y4776*
X8565Y4761*
X8593Y4733*
Y4670*
X8580Y4657*
Y4539*
X8454*
Y4603*
X8443Y4613*
X8036Y4207*
G75*
G02X8004Y4194I-32J32*
G01*
X7894*
G75*
G02X7862Y4207I0J46*
G01*
X7810Y4259*
X7788Y4281*
X7729*
X7702Y4254*
X7673Y4225*
X7747*
X7759Y4237*
X7799*
X7827Y4209*
Y4169*
X7799Y4141*
X7759*
X7747Y4153*
X7224*
X7212Y4141*
X7172*
X7144Y4169*
Y4209*
X7169Y4235*
X6838Y4566*
X6803*
X6831Y4538*
G75*
G02X6842Y4511I-27J-27*
G01*
Y4177*
G75*
G02X6831Y4150I-38*
G01*
X6743Y4063*
G75*
G02X6717Y4052I-27J27*
G01*
X6629*
G75*
G02X6617Y4054J38*
G01*
X6597*
X6569Y4082*
Y4116*
X6565*
Y4082*
X6537Y4054*
X6520*
X6501Y4035*
X6515Y4022*
Y3982*
X6487Y3954*
X6470*
X6442Y3926*
G75*
G02X6428Y3917I-25J25*
G01*
Y3877*
X6392Y3841*
X6341*
X6306Y3877*
Y3916*
X6070*
X6065Y3911*
X6093Y3883*
Y3820*
X6048Y3776*
X5985*
X5941Y3820*
Y3883*
X5968Y3911*
X5954Y3926*
Y3978*
X5978Y4002*
X5954Y4026*
Y4078*
X5978Y4102*
X5954Y4126*
Y4178*
X5978Y4202*
X5954Y4226*
Y4278*
X5965Y4289*
X6654Y3846D02*
X6644Y3857D01*
Y3897*
X6672Y3925*
X6712*
X6740Y3897*
Y3857*
X6729Y3846*
Y3225*
G75*
G02X6888Y3152I62J-73*
G01*
G75*
G02X6717Y3092I-96*
G01*
Y2997*
X6775Y2939*
X6874*
Y3048*
X6893*
Y3266*
X6854*
G75*
G02X6829Y3276J36*
G01*
X6754Y3351*
G75*
G02X6743Y3377I25J25*
G01*
Y3564*
G75*
G02X6779Y3600I36*
G01*
X6918*
G75*
G02X6940I11J-36*
G01*
X7318*
G75*
G02X7340I11J-36*
G01*
X7879*
G75*
G02X7905Y3590J-36*
G01*
X7937Y3557*
G75*
G02X7992Y3526I5J-56*
G01*
G75*
G02X8084Y3538I50J-25*
G01*
G75*
G02X8210Y3502I58J-37*
G01*
G75*
G02X8170Y3439I-69*
G01*
X8301*
X8531Y3669*
Y3684*
X8559Y3712*
X8599*
X8627Y3684*
Y3644*
X8599Y3616*
X8584*
X8343Y3375*
G75*
G02X8317Y3364I-27J27*
G01*
X8133*
G75*
G02X8092Y3346I-41J38*
G01*
Y3047*
X8109*
Y2905*
X8044*
X8009Y2856*
G75*
G02X7979Y2841I-29J21*
G01*
X7249*
X7237Y2829*
X7197*
X7169Y2857*
Y2897*
X7197Y2925*
X7237*
X7249Y2913*
X7823*
Y2939*
X7160*
Y2906*
X7074*
X7043Y2875*
G75*
G02X7017Y2864I-27J27*
G01*
X6759*
G75*
G02X6733Y2875J38*
G01*
X6653Y2955*
G75*
G02X6642Y2982I27J27*
G01*
Y3202*
G75*
G02X6653Y3228I38*
G01*
X6654Y3230*
Y3846*
X6801Y4004D02*
X6784D01*
X6756Y4032*
Y4072*
X6784Y4100*
X6824*
X6852Y4072*
Y4055*
X7096Y3811*
X7122Y3837*
X7138*
X7119Y3857*
Y3897*
X7147Y3925*
X7164*
X7166Y3927*
G75*
G02X7192Y3938I25J-25*
G01*
X7297*
X7309Y3950*
X7349*
X7377Y3922*
Y3900*
X7387*
X7415Y3872*
Y3832*
X7410Y3827*
X7536*
X7559Y3850*
X7599*
X7627Y3822*
Y3782*
X7599Y3754*
X7579*
G75*
G02X7567Y3752I-12J36*
G01*
X7172*
X7164Y3743*
X7182Y3725*
X7297*
X7309Y3737*
X7349*
X7377Y3709*
Y3669*
X7349Y3641*
X7309*
X7297Y3653*
X7167*
G75*
G02X7141Y3664J36*
G01*
X6801Y4004*
X8096Y3152D02*
G75*
G02X8288I96D01*
G01*
G75*
G02X8096I-96*
G01*
X8343Y2828D02*
Y3076D01*
X8591*
Y2828*
X8343*
Y5028D02*
Y5276D01*
X8591*
Y5028*
X8343*
X5867Y2952D02*
G36*
Y2752D01*
X8667*
Y2952*
X8591*
Y2828*
X8343*
Y2952*
X8109*
Y2905*
X8044*
X8009Y2856*
G75*
G02X7979Y2841I-29J21*
G01*
X7249*
X7237Y2829*
X7197*
X7169Y2857*
Y2897*
X7197Y2925*
X7237*
X7249Y2913*
X7823*
Y2939*
X7160*
Y2906*
X7074*
X7043Y2875*
G75*
G02X7017Y2864I-27J27*
G01*
X6759*
G75*
G02X6733Y2875J38*
G01*
X6656Y2952*
X6191*
Y2828*
X5943*
Y2952*
X5867*
G37*
X5943D02*
G36*
Y3076D01*
X6191*
Y2952*
X6656*
X6653Y2955*
G75*
G02X6642Y2982I27J27*
G01*
Y3152*
X5867*
Y2952*
X5943*
G37*
X8343D02*
G36*
Y3076D01*
X8591*
Y2952*
X8667*
Y3152*
X8288*
G75*
G02X8096I-96*
G01*
X8092*
Y3047*
X8109*
Y2952*
X8343*
G37*
X5867Y5152D02*
G36*
Y3871D01*
X5941*
Y3883*
X5968Y3911*
X5954Y3926*
Y3978*
X5978Y4002*
X5954Y4026*
Y4078*
X5978Y4102*
X5954Y4126*
Y4178*
X5978Y4202*
X5954Y4226*
Y4278*
X5965Y4289*
X5954*
Y4415*
X5965*
X5929Y4451*
G75*
G02X5918Y4477I25J25*
G01*
Y4916*
G75*
G02X5929Y4942I36J0*
G01*
X6002Y5015*
G75*
G02X6027Y5025I25J-25*
G01*
X6254*
X6254Y5026*
Y5078*
X6289Y5114*
X6278Y5125*
Y5152*
X6191*
Y5028*
X5943*
Y5152*
X5867*
G37*
X5943D02*
G36*
Y5276D01*
X6191*
Y5152*
X6278*
Y5175*
X6314Y5211*
X6365*
X6400Y5175*
Y5150*
X6672*
X6684Y5162*
X6724*
X6736Y5150*
X7104*
G75*
G02X7130Y5140J-36*
G01*
X7160Y5110*
X7191*
X7225Y5076*
Y5028*
X7199Y5002*
X7225Y4976*
Y4928*
X7191Y4894*
X7160*
X7130Y4864*
G75*
G02X7104Y4853I-25J25*
G01*
X7019*
X7002Y4836*
Y4819*
X6985Y4802*
X7024*
X7034Y4812*
X7074*
X7086Y4800*
X7517*
G75*
G02X7537Y4794J-36*
G01*
X7673Y4700*
X7699*
X7725Y4674*
X7743Y4692*
Y4841*
X7709*
X7681Y4869*
Y4884*
X7577Y4989*
X7504*
Y5115*
X7630*
Y5104*
X7641Y5115*
X7693*
X7708Y5100*
X7735Y5128*
X7766*
G75*
G02X7882Y5152I64J-13*
G01*
X8343*
Y5276*
X8591*
Y5152*
X8667*
Y5352*
X5867*
Y5152*
X5943*
G37*
X7882D02*
G36*
G75*
G02X7894Y5114I-53J-37D01*
G01*
G75*
G02X7894Y5113I-65J0*
G01*
X7912Y5096*
X8067*
G75*
G02X8098Y5083I0J-44*
G01*
X8444Y4737*
X8468Y4761*
X8454Y4776*
Y4828*
X8468Y4843*
X8441Y4870*
Y4933*
X8485Y4978*
X8548*
X8593Y4933*
Y4870*
X8565Y4843*
X8580Y4828*
Y4776*
X8565Y4761*
X8593Y4733*
Y4670*
X8580Y4657*
Y4539*
X8454*
Y4603*
X8443Y4613*
X8036Y4207*
G75*
G02X8004Y4194I-32J32*
G01*
X7894*
G75*
G02X7862Y4207I0J46*
G01*
X7810Y4259*
X7788Y4281*
X7729*
X7702Y4254*
X7673Y4225*
X7747*
X7759Y4237*
X7799*
X7827Y4209*
Y4169*
X7799Y4141*
X7759*
X7747Y4153*
X7224*
X7212Y4141*
X7172*
X7144Y4169*
Y4209*
X7169Y4235*
X6838Y4566*
X6803*
X6831Y4538*
G75*
G02X6842Y4511I-27J-27*
G01*
Y4177*
G75*
G02X6831Y4150I-38*
G01*
X6743Y4063*
G75*
G02X6717Y4052I-27J27*
G01*
X6629*
G75*
G02X6617Y4054J38*
G01*
X6597*
X6569Y4082*
Y4116*
X6565*
Y4082*
X6537Y4054*
X6520*
X6501Y4035*
X6515Y4022*
Y3982*
X6487Y3954*
X6470*
X6442Y3926*
G75*
G02X6428Y3917I-25J25*
G01*
Y3877*
X6422Y3871*
X6644*
Y3897*
X6672Y3925*
X6712*
X6740Y3897*
Y3871*
X6935*
X6801Y4004*
X6784*
X6756Y4032*
Y4072*
X6784Y4100*
X6824*
X6852Y4072*
Y4055*
X7096Y3811*
X7122Y3837*
X7138*
X7119Y3857*
Y3897*
X7147Y3925*
X7164*
X7166Y3927*
G75*
G02X7192Y3938I25J-25*
G01*
X7297*
X7309Y3950*
X7349*
X7377Y3922*
Y3900*
X7387*
X7415Y3872*
Y3871*
X8667*
Y5152*
X8591*
Y5028*
X8343*
Y5152*
X7882*
G37*
X5867Y3871D02*
G36*
Y3152D01*
X6642*
Y3202*
G75*
G02X6653Y3228I38*
G01*
X6654Y3230*
Y3846*
X6644Y3857*
Y3871*
X6422*
X6392Y3841*
X6341*
X6306Y3877*
Y3916*
X6070*
X6065Y3911*
X6093Y3883*
Y3820*
X6048Y3776*
X5985*
X5941Y3820*
Y3871*
X5867*
G37*
X6740D02*
G36*
Y3857D01*
X6729Y3846*
Y3225*
G75*
G02X6888Y3152I62J-73*
G01*
G75*
G02X6717Y3092I-96*
G01*
Y2997*
X6775Y2939*
X6874*
Y3048*
X6893*
Y3266*
X6854*
G75*
G02X6829Y3276J36*
G01*
X6754Y3351*
G75*
G02X6743Y3377I25J25*
G01*
Y3564*
G75*
G02X6779Y3600I36*
G01*
X6918*
G75*
G02X6940I11J-36*
G01*
X7318*
G75*
G02X7340I11J-36*
G01*
X7879*
G75*
G02X7905Y3590J-36*
G01*
X7937Y3557*
G75*
G02X7992Y3526I5J-56*
G01*
G75*
G02X8084Y3538I50J-25*
G01*
G75*
G02X8210Y3502I58J-37*
G01*
G75*
G02X8170Y3439I-69*
G01*
X8301*
X8531Y3669*
Y3684*
X8559Y3712*
X8599*
X8627Y3684*
Y3644*
X8599Y3616*
X8584*
X8343Y3375*
G75*
G02X8317Y3364I-27J27*
G01*
X8133*
G75*
G02X8092Y3346I-41J38*
G01*
Y3152*
X8096*
G75*
G02X8288I96*
G01*
X8667*
Y3871*
X7415*
Y3832*
X7410Y3827*
X7536*
X7559Y3850*
X7599*
X7627Y3822*
Y3782*
X7599Y3754*
X7579*
G75*
G02X7567Y3752I-12J36*
G01*
X7172*
X7164Y3743*
X7182Y3725*
X7297*
X7309Y3737*
X7349*
X7377Y3709*
Y3669*
X7349Y3641*
X7309*
X7297Y3653*
X7167*
G75*
G02X7141Y3664J36*
G01*
X6935Y3871*
X6740*
G37*
X5990Y2096D02*
X6046D01*
X6076Y2066*
X6093Y2083*
X6141*
X6163Y2061*
X6417*
G75*
G02X6442Y2050J-36*
G01*
X6470Y2023*
X6487*
X6515Y1994*
Y1961*
X6839*
G75*
G02X6899Y1957I28J-36*
G01*
X7246Y1610*
X7249*
X7252Y1607*
X7291*
X7269Y1630*
Y1647*
X7241Y1674*
G75*
G02X7231Y1700I25J25*
G01*
Y1864*
G75*
G02X7241Y1890I36*
G01*
X7277Y1925*
G75*
G02X7302Y1936I25J-25*
G01*
X7650*
X7631Y1955*
Y1964*
X7505Y2051*
X7086*
X7074Y2039*
X7034*
X7024Y2050*
X6604*
G75*
G02X6578Y2061J38*
G01*
X6462Y2177*
X6447*
X6419Y2205*
Y2244*
X6447Y2273*
X6487*
X6492Y2267*
X6500Y2276*
X6042*
X5990Y2224*
Y2096*
G36*
X6046*
X6076Y2066*
X6093Y2083*
X6141*
X6163Y2061*
X6417*
G75*
G02X6442Y2050J-36*
G01*
X6470Y2023*
X6487*
X6515Y1994*
Y1961*
X6839*
G75*
G02X6899Y1957I28J-36*
G01*
X7246Y1610*
X7249*
X7252Y1607*
X7291*
X7269Y1630*
Y1647*
X7241Y1674*
G75*
G02X7231Y1700I25J25*
G01*
Y1864*
G75*
G02X7241Y1890I36*
G01*
X7277Y1925*
G75*
G02X7302Y1936I25J-25*
G01*
X7650*
X7631Y1955*
Y1964*
X7505Y2051*
X7086*
X7074Y2039*
X7034*
X7024Y2050*
X6604*
G75*
G02X6578Y2061J38*
G01*
X6462Y2177*
X6447*
X6419Y2205*
Y2244*
X6447Y2273*
X6487*
X6492Y2267*
X6500Y2276*
X6042*
X5990Y2224*
Y2096*
G37*
Y4773D02*
X6046D01*
X6076Y4743*
X6093Y4760*
X6141*
X6163Y4738*
X6417*
G75*
G02X6442Y4727J-36*
G01*
X6470Y4700*
X6487*
X6515Y4672*
Y4638*
X6839*
G75*
G02X6899Y4634I28J-36*
G01*
X7246Y4287*
X7249*
X7252Y4284*
X7291*
X7269Y4307*
Y4324*
X7241Y4351*
G75*
G02X7231Y4377I25J25*
G01*
Y4541*
G75*
G02X7241Y4567I36*
G01*
X7277Y4602*
G75*
G02X7302Y4613I25J-25*
G01*
X7650*
X7631Y4632*
Y4641*
X7505Y4728*
X7086*
X7074Y4716*
X7034*
X7024Y4727*
X6604*
G75*
G02X6578Y4738I0J38*
G01*
X6462Y4854*
X6447*
X6419Y4882*
Y4922*
X6447Y4950*
X6487*
X6492Y4945*
X6500Y4953*
X6042*
X5990Y4901*
Y4773*
G36*
X6046*
X6076Y4743*
X6093Y4760*
X6141*
X6163Y4738*
X6417*
G75*
G02X6442Y4727J-36*
G01*
X6470Y4700*
X6487*
X6515Y4672*
Y4638*
X6839*
G75*
G02X6899Y4634I28J-36*
G01*
X7246Y4287*
X7249*
X7252Y4284*
X7291*
X7269Y4307*
Y4324*
X7241Y4351*
G75*
G02X7231Y4377I25J25*
G01*
Y4541*
G75*
G02X7241Y4567I36*
G01*
X7277Y4602*
G75*
G02X7302Y4613I25J-25*
G01*
X7650*
X7631Y4632*
Y4641*
X7505Y4728*
X7086*
X7074Y4716*
X7034*
X7024Y4727*
X6604*
G75*
G02X6578Y4738I0J38*
G01*
X6462Y4854*
X6447*
X6419Y4882*
Y4922*
X6447Y4950*
X6487*
X6492Y4945*
X6500Y4953*
X6042*
X5990Y4901*
Y4773*
G37*
X6867Y1925D02*
X7229Y1562D01*
X6867Y4602D02*
X7229Y4239D01*
X7188Y756D02*
G75*
G02X7192Y700I-46J-31D01*
G01*
X7714*
X7736Y722*
G75*
G02X7736Y725I56J3*
G01*
G75*
G02X7842Y749I56*
G01*
G75*
G02X7942I50J-25*
G01*
G75*
G02X8037Y758I50J-25*
G01*
G75*
G02X8050Y762I18J-33*
G01*
G75*
G02X8089Y780I41J-37*
G01*
G75*
G02X8084Y788I52J44*
G01*
G75*
G02X7992Y800I-42J37*
G01*
G75*
G02X7892I-50J25*
G01*
G75*
G02X7786Y825I-50J25*
G01*
G75*
G02X7793Y851I56*
G01*
X7433*
X7452Y832*
Y792*
X7424Y764*
X7384*
X7376Y773*
X7355Y751*
X7304*
X7268Y787*
Y837*
X7282Y851*
X7255*
G75*
G02X7188Y756I-63J-27*
G01*
G36*
G75*
G02X7192Y700I-46J-31*
G01*
X7714*
X7736Y722*
G75*
G02X7736Y725I56J3*
G01*
G75*
G02X7842Y749I56*
G01*
G75*
G02X7942I50J-25*
G01*
G75*
G02X8037Y758I50J-25*
G01*
G75*
G02X8050Y762I18J-33*
G01*
G75*
G02X8089Y780I41J-37*
G01*
G75*
G02X8084Y788I52J44*
G01*
G75*
G02X7992Y800I-42J37*
G01*
G75*
G02X7892I-50J25*
G01*
G75*
G02X7786Y825I-50J25*
G01*
G75*
G02X7793Y851I56*
G01*
X7433*
X7452Y832*
Y792*
X7424Y764*
X7384*
X7376Y773*
X7355Y751*
X7304*
X7268Y787*
Y837*
X7282Y851*
X7255*
G75*
G02X7188Y756I-63J-27*
G01*
G37*
Y3433D02*
G75*
G02X7192Y3377I-46J-31D01*
G01*
X7714*
X7736Y3399*
G75*
G02X7736Y3402I56J3*
G01*
G75*
G02X7842Y3426I56*
G01*
G75*
G02X7942I50J-25*
G01*
G75*
G02X8037Y3435I50J-25*
G01*
G75*
G02X8050Y3439I18J-33*
G01*
G75*
G02X8089Y3457I41J-37*
G01*
G75*
G02X8084Y3465I52J44*
G01*
G75*
G02X7992Y3477I-42J37*
G01*
G75*
G02X7892I-50J25*
G01*
G75*
G02X7786Y3502I-50J25*
G01*
G75*
G02X7793Y3528I56*
G01*
X7433*
X7452Y3509*
Y3469*
X7424Y3441*
X7384*
X7376Y3450*
X7355Y3428*
X7304*
X7268Y3464*
Y3515*
X7282Y3528*
X7255*
G75*
G02X7188Y3433I-63J-27*
G01*
G36*
G75*
G02X7192Y3377I-46J-31*
G01*
X7714*
X7736Y3399*
G75*
G02X7736Y3402I56J3*
G01*
G75*
G02X7842Y3426I56*
G01*
G75*
G02X7942I50J-25*
G01*
G75*
G02X8037Y3435I50J-25*
G01*
G75*
G02X8050Y3439I18J-33*
G01*
G75*
G02X8089Y3457I41J-37*
G01*
G75*
G02X8084Y3465I52J44*
G01*
G75*
G02X7992Y3477I-42J37*
G01*
G75*
G02X7892I-50J25*
G01*
G75*
G02X7786Y3502I-50J25*
G01*
G75*
G02X7793Y3528I56*
G01*
X7433*
X7452Y3509*
Y3469*
X7424Y3441*
X7384*
X7376Y3450*
X7355Y3428*
X7304*
X7268Y3464*
Y3515*
X7282Y3528*
X7255*
G75*
G02X7188Y3433I-63J-27*
G01*
G37*
X7303Y1772D02*
X7316Y1785D01*
X7356*
X7368Y1773*
X8035*
X8047Y1785*
X8087*
X8115Y1757*
Y1737*
X8378Y2001*
X8049Y2331*
X7912*
X7893Y2312*
X7841*
X7826Y2326*
X7817Y2317*
G75*
G02X7817Y2312I-37J-5*
G01*
Y2305*
X7827Y2294*
Y2255*
X7815Y2243*
Y2000*
G75*
G02X7805Y1974I-36*
G01*
X7705Y1874*
G75*
G02X7679Y1864I-25J25*
G01*
X7317*
X7303Y1849*
Y1772*
G36*
X7316Y1785*
X7356*
X7368Y1773*
X8035*
X8047Y1785*
X8087*
X8115Y1757*
Y1737*
X8378Y2001*
X8049Y2331*
X7912*
X7893Y2312*
X7841*
X7826Y2326*
X7817Y2317*
G75*
G02X7817Y2312I-37J-5*
G01*
Y2305*
X7827Y2294*
Y2255*
X7815Y2243*
Y2000*
G75*
G02X7805Y1974I-36*
G01*
X7705Y1874*
G75*
G02X7679Y1864I-25J25*
G01*
X7317*
X7303Y1849*
Y1772*
G37*
Y4449D02*
X7316Y4462D01*
X7356*
X7368Y4450*
X8035*
X8047Y4462*
X8087*
X8115Y4434*
Y4414*
X8378Y4678*
X8049Y5008*
X7912*
X7893Y4989*
X7841*
X7826Y5003*
X7817Y4994*
G75*
G02X7817Y4989I-37J-5*
G01*
Y4982*
X7827Y4972*
Y4932*
X7815Y4920*
Y4677*
G75*
G02X7805Y4651I-36*
G01*
X7705Y4551*
G75*
G02X7679Y4541I-25J25*
G01*
X7317*
X7303Y4527*
Y4449*
G36*
X7316Y4462*
X7356*
X7368Y4450*
X8035*
X8047Y4462*
X8087*
X8115Y4434*
Y4414*
X8378Y4678*
X8049Y5008*
X7912*
X7893Y4989*
X7841*
X7826Y5003*
X7817Y4994*
G75*
G02X7817Y4989I-37J-5*
G01*
Y4982*
X7827Y4972*
Y4932*
X7815Y4920*
Y4677*
G75*
G02X7805Y4651I-36*
G01*
X7705Y4551*
G75*
G02X7679Y4541I-25J25*
G01*
X7317*
X7303Y4527*
Y4449*
G37*
X8442Y2000D02*
X8004Y1562D01*
X7894*
X7842Y1614*
X7806Y1650*
X7710*
X7670Y1609*
X7622Y1562*
X7229Y1562*
X8442Y2000D02*
X8517Y1925D01*
X8442Y2000D02*
X8067Y2375D01*
X7867*
X8442Y4677D02*
X8004Y4239D01*
X7894*
X7842Y4291*
X7806Y4327*
X7710*
X7670Y4286*
X7622Y4239*
X7229Y4239*
X8442Y4677D02*
X8517Y4602D01*
X8442Y4677D02*
X8067Y5052D01*
X7867*
D02*
D156*
X1044Y475D03*
Y3152D03*
X1494Y475D03*
Y3152D03*
X1994Y475D03*
Y3152D03*
X2444Y475D03*
Y3152D03*
X3918Y475D03*
Y3152D03*
X4368Y475D03*
Y3152D03*
X4868Y475D03*
Y3152D03*
X5318Y475D03*
Y3152D03*
X6792Y475D03*
Y3152D03*
X7242Y475D03*
Y3152D03*
X7742Y475D03*
Y3152D03*
X8192Y475D03*
Y3152D03*
D02*
D164*
X519Y1841D03*
Y1908D03*
Y4518D03*
Y4585D03*
X3393Y1841D03*
Y1908D03*
Y4518D03*
Y4585D03*
X6267Y1841D03*
Y1908D03*
Y4518D03*
Y4585D03*
D02*
D170*
X589Y2475D03*
Y5150D03*
X619Y1225D03*
Y3902D03*
X719Y1325D03*
Y1837D03*
Y1975D03*
Y2225D03*
Y4002D03*
Y4514D03*
Y4652D03*
Y4902D03*
X769Y1425D03*
Y4102D03*
X781Y2237D03*
Y4914D03*
X869Y1425D03*
Y4102D03*
X881Y2237D03*
Y4914D03*
X919Y1525D03*
Y4202D03*
X944Y1200D03*
Y1462D03*
Y3877D03*
Y4139D03*
X956Y2437D03*
Y5114D03*
X969Y1562D03*
Y4239D03*
X1019Y2162D03*
Y4839D03*
X1056Y1375D03*
Y4052D03*
X1206Y2162D03*
Y4839D03*
X1294Y387D03*
Y3064D03*
X1306Y2087D03*
Y4764D03*
X1394Y1112D03*
Y3789D03*
X1419Y1200D03*
Y3877D03*
X1444Y1512D03*
Y4189D03*
X1469Y200D03*
Y2877D03*
X1481Y1175D03*
Y1562D03*
Y3852D03*
Y4239D03*
X1569Y1650D03*
Y4327D03*
X1581Y812D03*
Y1012D03*
Y1225D03*
Y3489D03*
Y3689D03*
Y3902D03*
X1588Y1737D03*
Y4414D03*
X1619Y1175D03*
Y3852D03*
X1656Y812D03*
Y3489D03*
X1831Y1125D03*
Y3802D03*
X1931Y1975D03*
Y4652D03*
X1981Y2212D03*
Y4889D03*
X2031Y1512D03*
Y2275D03*
Y4189D03*
Y4952D03*
X2319Y1737D03*
Y4414D03*
X2831Y987D03*
Y3664D03*
X3464Y2475D03*
Y5150D03*
X3493Y1225D03*
Y3902D03*
X3593Y1325D03*
Y1837D03*
Y1975D03*
Y2225D03*
Y4002D03*
Y4514D03*
Y4652D03*
Y4902D03*
X3643Y1425D03*
Y4102D03*
X3655Y2237D03*
Y4914D03*
X3743Y1425D03*
Y4102D03*
X3755Y2237D03*
Y4914D03*
X3793Y1525D03*
Y4202D03*
X3818Y1200D03*
Y1462D03*
Y3877D03*
Y4139D03*
X3830Y2437D03*
Y5114D03*
X3843Y1562D03*
Y4239D03*
X3893Y2162D03*
Y4839D03*
X3930Y1375D03*
Y4052D03*
X4080Y2162D03*
Y4839D03*
X4168Y387D03*
Y3064D03*
X4180Y2087D03*
Y4764D03*
X4268Y1112D03*
Y3789D03*
X4293Y1200D03*
Y3877D03*
X4318Y1512D03*
Y4189D03*
X4343Y200D03*
Y2877D03*
X4355Y1175D03*
Y1562D03*
Y3852D03*
Y4239D03*
X4443Y1650D03*
Y4327D03*
X4455Y812D03*
Y1012D03*
Y1225D03*
Y3489D03*
Y3689D03*
Y3902D03*
X4462Y1737D03*
Y4414D03*
X4493Y1175D03*
Y3852D03*
X4530Y812D03*
Y3489D03*
X4705Y1125D03*
Y3802D03*
X4805Y1975D03*
Y4652D03*
X4855Y2212D03*
Y4889D03*
X4905Y1512D03*
Y2275D03*
Y4189D03*
Y4952D03*
X5193Y1737D03*
Y4414D03*
X5705Y987D03*
Y3664D03*
X6339Y2475D03*
Y5150D03*
X6367Y1225D03*
Y3902D03*
X6467Y1325D03*
Y1837D03*
Y1975D03*
Y2225D03*
Y4002D03*
Y4514D03*
Y4652D03*
Y4902D03*
X6517Y1425D03*
Y4102D03*
X6529Y2237D03*
Y4914D03*
X6617Y1425D03*
Y4102D03*
X6629Y2237D03*
Y4914D03*
X6667Y1525D03*
Y4202D03*
X6692Y1200D03*
Y1462D03*
Y3877D03*
Y4139D03*
X6704Y2437D03*
Y5114D03*
X6717Y1562D03*
Y4239D03*
X6767Y2162D03*
Y4839D03*
X6804Y1375D03*
Y4052D03*
X6954Y2162D03*
Y4839D03*
X7042Y387D03*
Y3064D03*
X7054Y2087D03*
Y4764D03*
X7142Y1112D03*
Y3789D03*
X7167Y1200D03*
Y3877D03*
X7192Y1512D03*
Y4189D03*
X7217Y200D03*
Y2877D03*
X7229Y1175D03*
Y1562D03*
Y3852D03*
Y4239D03*
X7317Y1650D03*
Y4327D03*
X7329Y812D03*
Y1012D03*
Y1225D03*
Y3489D03*
Y3689D03*
Y3902D03*
X7336Y1737D03*
Y4414D03*
X7367Y1175D03*
Y3852D03*
X7404Y812D03*
Y3489D03*
X7579Y1125D03*
Y3802D03*
X7679Y1975D03*
Y4652D03*
X7729Y2212D03*
Y4889D03*
X7779Y1512D03*
Y2275D03*
Y4189D03*
Y4952D03*
X8067Y1737D03*
Y4414D03*
X8579Y987D03*
Y3664D03*
D02*
D171*
X319Y275D03*
Y2475D03*
Y2952D03*
Y5152D03*
X2719Y275D03*
Y2475D03*
Y2952D03*
Y5152D03*
X3193Y275D03*
Y2475D03*
Y2952D03*
Y5152D03*
X5593Y275D03*
Y2475D03*
Y2952D03*
Y5152D03*
X6067Y275D03*
Y2475D03*
Y2952D03*
Y5152D03*
X8467Y275D03*
Y2475D03*
Y2952D03*
Y5152D03*
X0Y0D02*
M02*
