%FSLAX23Y23*%
%MOIN*%
G04 EasyPC Gerber Version 14.0.2 Build 2922 *
%ADD74R,0.03159X0.07293*%
%ADD11R,0.04931X0.04537*%
%ADD28R,0.05200X0.06900*%
%ADD12R,0.08277X0.10443*%
%ADD23R,0.06600X0.06600*%
%ADD25R,0.07600X0.07600*%
%ADD21R,0.16348X0.16348*%
%ADD76R,0.17198X0.17198*%
%ADD22C,0.00100*%
%ADD73R,0.04931X0.02962*%
%ADD70R,0.06506X0.02962*%
%ADD18R,0.09261X0.02962*%
%ADD19R,0.08600X0.03200*%
%ADD10R,0.04537X0.04931*%
%ADD71R,0.09400X0.05400*%
%ADD27R,0.06506X0.05718*%
%ADD13R,0.07687X0.06899*%
%ADD17R,0.09183X0.06978*%
%ADD77C,0.05400*%
%ADD29C,0.05718*%
%ADD15C,0.06143*%
%ADD72C,0.06506*%
%ADD14R,0.10443X0.10639*%
%ADD16C,0.14195*%
%ADD20R,0.09261X0.14773*%
%AMT75*0 Octagon Pad at angle 0*4,1,8,-0.00952,-0.02300,0.00952,-0.02300,0.02300,-0.00952,0.02300,0.00952,0.00952,0.02300,-0.00952,0.02300,-0.02300,0.00952,-0.02300,-0.00952,-0.00952,-0.02300,0*%
%ADD75T75*%
%AMT24*0 Octagon Pad at angle 0*4,1,8,-0.01366,-0.03300,0.01366,-0.03300,0.03300,-0.01366,0.03300,0.01366,0.01366,0.03300,-0.01366,0.03300,-0.03300,0.01366,-0.03300,-0.01366,-0.01366,-0.03300,0*%
%ADD24T24*%
%AMT26*0 Octagon Pad at angle 0*4,1,8,-0.01573,-0.03800,0.01573,-0.03800,0.03800,-0.01573,0.03800,0.01573,0.01573,0.03800,-0.01573,0.03800,-0.03800,0.01573,-0.03800,-0.01573,-0.01573,-0.03800,0*%
%ADD26T26*%
X0Y0D02*
D02*
D10*
X1219Y1441D03*
Y1508D03*
Y4118D03*
Y4185D03*
X1269Y1441D03*
Y1508D03*
Y4118D03*
Y4185D03*
X1935Y2037D03*
Y2104D03*
Y4714D03*
Y4781D03*
X2094Y1266D03*
Y1333D03*
Y3943D03*
Y4010D03*
X4093Y1441D03*
Y1508D03*
Y4118D03*
Y4185D03*
X4143Y1441D03*
Y1508D03*
Y4118D03*
Y4185D03*
X4809Y2037D03*
Y2104D03*
Y4714D03*
Y4781D03*
X4968Y1266D03*
Y1333D03*
Y3943D03*
Y4010D03*
X6967Y1441D03*
Y1508D03*
Y4118D03*
Y4185D03*
X7017Y1441D03*
Y1508D03*
Y4118D03*
Y4185D03*
X7683Y2037D03*
Y2104D03*
Y4714D03*
Y4781D03*
X7842Y1266D03*
Y1333D03*
Y3943D03*
Y4010D03*
D02*
D11*
X885Y2100D03*
Y2175D03*
Y4777D03*
Y4852D03*
X952Y2100D03*
Y2175D03*
Y4777D03*
Y4852D03*
X3759Y2100D03*
Y2175D03*
Y4777D03*
Y4852D03*
X3826Y2100D03*
Y2175D03*
Y4777D03*
Y4852D03*
X6633Y2100D03*
Y2175D03*
Y4777D03*
Y4852D03*
X6700Y2100D03*
Y2175D03*
Y4777D03*
Y4852D03*
D02*
D12*
X359Y575D03*
Y3252D03*
X479Y575D03*
Y3252D03*
X3233Y575D03*
Y3252D03*
X3353Y575D03*
Y3252D03*
X6107Y575D03*
Y3252D03*
X6227Y575D03*
Y3252D03*
D02*
D13*
X856Y1169D03*
Y1280D03*
Y3847D03*
Y3957D03*
X3730Y1169D03*
Y1280D03*
Y3847D03*
Y3957D03*
X6604Y1169D03*
Y1280D03*
Y3847D03*
Y3957D03*
D02*
D14*
X719Y725D03*
Y924D03*
Y3402D03*
Y3601D03*
X3593Y725D03*
Y924D03*
Y3402D03*
Y3601D03*
X6467Y725D03*
Y924D03*
Y3402D03*
Y3601D03*
D02*
D15*
X1094Y725D03*
Y3402D03*
X1144Y825D03*
Y3502D03*
X1194Y725D03*
Y3402D03*
X1244Y825D03*
Y3502D03*
X1294Y725D03*
Y3402D03*
X1344Y825D03*
Y3502D03*
X1394Y725D03*
Y3402D03*
X1444Y825D03*
Y3502D03*
X2044Y725D03*
Y3402D03*
X2094Y825D03*
Y3502D03*
X2144Y725D03*
Y3402D03*
X2194Y825D03*
Y3502D03*
X2244Y725D03*
Y3402D03*
X2294Y825D03*
Y3502D03*
X2344Y725D03*
Y3402D03*
X2394Y825D03*
Y3502D03*
X3968Y725D03*
Y3402D03*
X4018Y825D03*
Y3502D03*
X4068Y725D03*
Y3402D03*
X4118Y825D03*
Y3502D03*
X4168Y725D03*
Y3402D03*
X4218Y825D03*
Y3502D03*
X4268Y725D03*
Y3402D03*
X4318Y825D03*
Y3502D03*
X4918Y725D03*
Y3402D03*
X4968Y825D03*
Y3502D03*
X5018Y725D03*
Y3402D03*
X5068Y825D03*
Y3502D03*
X5118Y725D03*
Y3402D03*
X5168Y825D03*
Y3502D03*
X5218Y725D03*
Y3402D03*
X5268Y825D03*
Y3502D03*
X6842Y725D03*
Y3402D03*
X6892Y825D03*
Y3502D03*
X6942Y725D03*
Y3402D03*
X6992Y825D03*
Y3502D03*
X7042Y725D03*
Y3402D03*
X7092Y825D03*
Y3502D03*
X7142Y725D03*
Y3402D03*
X7192Y825D03*
Y3502D03*
X7792Y725D03*
Y3402D03*
X7842Y825D03*
Y3502D03*
X7892Y725D03*
Y3402D03*
X7942Y825D03*
Y3502D03*
X7992Y725D03*
Y3402D03*
X8042Y825D03*
Y3502D03*
X8092Y725D03*
Y3402D03*
X8142Y825D03*
Y3502D03*
D02*
D16*
X1044Y475D03*
Y3152D03*
X1494Y475D03*
Y3152D03*
X1994Y475D03*
Y3152D03*
X2444Y475D03*
Y3152D03*
X3918Y475D03*
Y3152D03*
X4368Y475D03*
Y3152D03*
X4868Y475D03*
Y3152D03*
X5318Y475D03*
Y3152D03*
X6792Y475D03*
Y3152D03*
X7242Y475D03*
Y3152D03*
X7742Y475D03*
Y3152D03*
X8192Y475D03*
Y3152D03*
D02*
D17*
X1744Y642D03*
Y808D03*
Y3319D03*
Y3485D03*
X4618Y642D03*
Y808D03*
Y3319D03*
Y3485D03*
X7492Y642D03*
Y808D03*
Y3319D03*
Y3485D03*
D02*
D18*
X2066Y2075D03*
Y2125D03*
Y2175D03*
Y2225D03*
Y4752D03*
Y4802D03*
Y4852D03*
Y4902D03*
X2271Y2075D03*
Y2125D03*
Y2175D03*
Y2225D03*
Y4752D03*
Y4802D03*
Y4852D03*
Y4902D03*
X4940Y2075D03*
Y2125D03*
Y2175D03*
Y2225D03*
Y4752D03*
Y4802D03*
Y4852D03*
Y4902D03*
X5145Y2075D03*
Y2125D03*
Y2175D03*
Y2225D03*
Y4752D03*
Y4802D03*
Y4852D03*
Y4902D03*
X7814Y2075D03*
Y2125D03*
Y2175D03*
Y2225D03*
Y4752D03*
Y4802D03*
Y4852D03*
Y4902D03*
X8019Y2075D03*
Y2125D03*
Y2175D03*
Y2225D03*
Y4752D03*
Y4802D03*
Y4852D03*
Y4902D03*
D02*
D19*
X1748Y1025D03*
Y1075D03*
Y1125D03*
Y1175D03*
Y1225D03*
Y1275D03*
Y1325D03*
Y3702D03*
Y3752D03*
Y3802D03*
Y3852D03*
Y3902D03*
Y3952D03*
Y4002D03*
X1990Y1025D03*
Y1075D03*
Y1125D03*
Y1175D03*
Y1225D03*
Y1275D03*
Y1325D03*
Y3702D03*
Y3752D03*
Y3802D03*
Y3852D03*
Y3902D03*
Y3952D03*
Y4002D03*
X4622Y1025D03*
Y1075D03*
Y1125D03*
Y1175D03*
Y1225D03*
Y1275D03*
Y1325D03*
Y3702D03*
Y3752D03*
Y3802D03*
Y3852D03*
Y3902D03*
Y3952D03*
Y4002D03*
X4864Y1025D03*
Y1075D03*
Y1125D03*
Y1175D03*
Y1225D03*
Y1275D03*
Y1325D03*
Y3702D03*
Y3752D03*
Y3802D03*
Y3852D03*
Y3902D03*
Y3952D03*
Y4002D03*
X7496Y1025D03*
Y1075D03*
Y1125D03*
Y1175D03*
Y1225D03*
Y1275D03*
Y1325D03*
Y3702D03*
Y3752D03*
Y3802D03*
Y3852D03*
Y3902D03*
Y3952D03*
Y4002D03*
X7738Y1025D03*
Y1075D03*
Y1125D03*
Y1175D03*
Y1225D03*
Y1275D03*
Y1325D03*
Y3702D03*
Y3752D03*
Y3802D03*
Y3852D03*
Y3902D03*
Y3952D03*
Y4002D03*
D02*
D70*
X1010Y1150D03*
Y1200D03*
Y1250D03*
Y1300D03*
Y3827D03*
Y3877D03*
Y3927D03*
Y3977D03*
X1227Y1150D03*
Y1200D03*
Y1250D03*
Y1300D03*
Y3827D03*
Y3877D03*
Y3927D03*
Y3977D03*
X3884Y1150D03*
Y1200D03*
Y1250D03*
Y1300D03*
Y3827D03*
Y3877D03*
Y3927D03*
Y3977D03*
X4101Y1150D03*
Y1200D03*
Y1250D03*
Y1300D03*
Y3827D03*
Y3877D03*
Y3927D03*
Y3977D03*
X6758Y1150D03*
Y1200D03*
Y1250D03*
Y1300D03*
Y3827D03*
Y3877D03*
Y3927D03*
Y3977D03*
X6975Y1150D03*
Y1200D03*
Y1250D03*
Y1300D03*
Y3827D03*
Y3877D03*
Y3927D03*
Y3977D03*
D02*
D71*
X541Y734D03*
Y825D03*
Y916D03*
Y3411D03*
Y3502D03*
Y3593D03*
X3415Y734D03*
Y825D03*
Y916D03*
Y3411D03*
Y3502D03*
Y3593D03*
X6289Y734D03*
Y825D03*
Y916D03*
Y3411D03*
Y3502D03*
Y3593D03*
D02*
D20*
X297Y825D03*
Y3502D03*
X3171Y825D03*
Y3502D03*
X6045Y825D03*
Y3502D03*
D02*
D21*
X2319Y1091D03*
Y1308D03*
Y3769D03*
Y3985D03*
X2519Y1091D03*
Y1308D03*
Y3769D03*
Y3985D03*
X2719Y1091D03*
Y1308D03*
Y3769D03*
Y3985D03*
X5193Y1091D03*
Y1308D03*
Y3769D03*
Y3985D03*
X5393Y1091D03*
Y1308D03*
Y3769D03*
Y3985D03*
X5593Y1091D03*
Y1308D03*
Y3769D03*
Y3985D03*
X8067Y1091D03*
Y1308D03*
Y3769D03*
Y3985D03*
X8267Y1091D03*
Y1308D03*
Y3769D03*
Y3985D03*
X8467Y1091D03*
Y1308D03*
Y3769D03*
Y3985D03*
D02*
D22*
X1966Y1839D02*
X1972D01*
Y1911*
X1966*
Y1839*
G36*
X1972*
Y1911*
X1966*
Y1839*
G37*
Y4516D02*
X1972D01*
Y4588*
X1966*
Y4516*
G36*
X1972*
Y4588*
X1966*
Y4516*
G37*
X2264Y1107D02*
X2374D01*
Y1174*
X2264*
Y1107*
G36*
X2374*
Y1174*
X2264*
Y1107*
G37*
Y1225D02*
X2374D01*
Y1292*
X2264*
Y1225*
G36*
X2374*
Y1292*
X2264*
Y1225*
G37*
Y3784D02*
X2374D01*
Y3851*
X2264*
Y3784*
G36*
X2374*
Y3851*
X2264*
Y3784*
G37*
Y3902D02*
X2374D01*
Y3969*
X2264*
Y3902*
G36*
X2374*
Y3969*
X2264*
Y3902*
G37*
X2464Y1107D02*
X2574D01*
Y1174*
X2464*
Y1107*
G36*
X2574*
Y1174*
X2464*
Y1107*
G37*
Y1225D02*
X2574D01*
Y1292*
X2464*
Y1225*
G36*
X2574*
Y1292*
X2464*
Y1225*
G37*
Y3784D02*
X2574D01*
Y3851*
X2464*
Y3784*
G36*
X2574*
Y3851*
X2464*
Y3784*
G37*
Y3902D02*
X2574D01*
Y3969*
X2464*
Y3902*
G36*
X2574*
Y3969*
X2464*
Y3902*
G37*
X2664Y1107D02*
X2774D01*
Y1174*
X2664*
Y1107*
G36*
X2774*
Y1174*
X2664*
Y1107*
G37*
Y1225D02*
X2774D01*
Y1292*
X2664*
Y1225*
G36*
X2774*
Y1292*
X2664*
Y1225*
G37*
Y3784D02*
X2774D01*
Y3851*
X2664*
Y3784*
G36*
X2774*
Y3851*
X2664*
Y3784*
G37*
Y3902D02*
X2774D01*
Y3969*
X2664*
Y3902*
G36*
X2774*
Y3969*
X2664*
Y3902*
G37*
X4840Y1839D02*
X4846D01*
Y1911*
X4840*
Y1839*
G36*
X4846*
Y1911*
X4840*
Y1839*
G37*
Y4516D02*
X4846D01*
Y4588*
X4840*
Y4516*
G36*
X4846*
Y4588*
X4840*
Y4516*
G37*
X5138Y1107D02*
X5248D01*
Y1174*
X5138*
Y1107*
G36*
X5248*
Y1174*
X5138*
Y1107*
G37*
Y1225D02*
X5248D01*
Y1292*
X5138*
Y1225*
G36*
X5248*
Y1292*
X5138*
Y1225*
G37*
Y3784D02*
X5248D01*
Y3851*
X5138*
Y3784*
G36*
X5248*
Y3851*
X5138*
Y3784*
G37*
Y3902D02*
X5248D01*
Y3969*
X5138*
Y3902*
G36*
X5248*
Y3969*
X5138*
Y3902*
G37*
X5338Y1107D02*
X5448D01*
Y1174*
X5338*
Y1107*
G36*
X5448*
Y1174*
X5338*
Y1107*
G37*
Y1225D02*
X5448D01*
Y1292*
X5338*
Y1225*
G36*
X5448*
Y1292*
X5338*
Y1225*
G37*
Y3784D02*
X5448D01*
Y3851*
X5338*
Y3784*
G36*
X5448*
Y3851*
X5338*
Y3784*
G37*
Y3902D02*
X5448D01*
Y3969*
X5338*
Y3902*
G36*
X5448*
Y3969*
X5338*
Y3902*
G37*
X5538Y1107D02*
X5648D01*
Y1174*
X5538*
Y1107*
G36*
X5648*
Y1174*
X5538*
Y1107*
G37*
Y1225D02*
X5648D01*
Y1292*
X5538*
Y1225*
G36*
X5648*
Y1292*
X5538*
Y1225*
G37*
Y3784D02*
X5648D01*
Y3851*
X5538*
Y3784*
G36*
X5648*
Y3851*
X5538*
Y3784*
G37*
Y3902D02*
X5648D01*
Y3969*
X5538*
Y3902*
G36*
X5648*
Y3969*
X5538*
Y3902*
G37*
X7714Y1839D02*
X7720D01*
Y1911*
X7714*
Y1839*
G36*
X7720*
Y1911*
X7714*
Y1839*
G37*
Y4516D02*
X7720D01*
Y4588*
X7714*
Y4516*
G36*
X7720*
Y4588*
X7714*
Y4516*
G37*
X8012Y1107D02*
X8122D01*
Y1174*
X8012*
Y1107*
G36*
X8122*
Y1174*
X8012*
Y1107*
G37*
Y1225D02*
X8122D01*
Y1292*
X8012*
Y1225*
G36*
X8122*
Y1292*
X8012*
Y1225*
G37*
Y3784D02*
X8122D01*
Y3851*
X8012*
Y3784*
G36*
X8122*
Y3851*
X8012*
Y3784*
G37*
Y3902D02*
X8122D01*
Y3969*
X8012*
Y3902*
G36*
X8122*
Y3969*
X8012*
Y3902*
G37*
X8212Y1107D02*
X8322D01*
Y1174*
X8212*
Y1107*
G36*
X8322*
Y1174*
X8212*
Y1107*
G37*
Y1225D02*
X8322D01*
Y1292*
X8212*
Y1225*
G36*
X8322*
Y1292*
X8212*
Y1225*
G37*
Y3784D02*
X8322D01*
Y3851*
X8212*
Y3784*
G36*
X8322*
Y3851*
X8212*
Y3784*
G37*
Y3902D02*
X8322D01*
Y3969*
X8212*
Y3902*
G36*
X8322*
Y3969*
X8212*
Y3902*
G37*
X8412Y1107D02*
X8522D01*
Y1174*
X8412*
Y1107*
G36*
X8522*
Y1174*
X8412*
Y1107*
G37*
Y1225D02*
X8522D01*
Y1292*
X8412*
Y1225*
G36*
X8522*
Y1292*
X8412*
Y1225*
G37*
Y3784D02*
X8522D01*
Y3851*
X8412*
Y3784*
G36*
X8522*
Y3851*
X8412*
Y3784*
G37*
Y3902D02*
X8522D01*
Y3969*
X8412*
Y3902*
G36*
X8522*
Y3969*
X8412*
Y3902*
G37*
D02*
D23*
X369Y1825D03*
Y4502D03*
X1219Y2275D03*
Y4952D03*
X3243Y1825D03*
Y4502D03*
X4093Y2275D03*
Y4952D03*
X6117Y1825D03*
Y4502D03*
X6967Y2275D03*
Y4952D03*
D02*
D24*
X269Y1825D03*
Y1925D03*
Y2025D03*
Y4502D03*
Y4602D03*
Y4702D03*
X369Y1925D03*
Y2025D03*
Y4602D03*
Y4702D03*
X1219Y2375D03*
Y5052D03*
X1319Y2275D03*
Y2375D03*
Y4952D03*
Y5052D03*
X1419Y2275D03*
Y2375D03*
Y4952D03*
Y5052D03*
X3143Y1825D03*
Y1925D03*
Y2025D03*
Y4502D03*
Y4602D03*
Y4702D03*
X3243Y1925D03*
Y2025D03*
Y4602D03*
Y4702D03*
X4093Y2375D03*
Y5052D03*
X4193Y2275D03*
Y2375D03*
Y4952D03*
Y5052D03*
X4293Y2275D03*
Y2375D03*
Y4952D03*
Y5052D03*
X6017Y1825D03*
Y1925D03*
Y2025D03*
Y4502D03*
Y4602D03*
Y4702D03*
X6117Y1925D03*
Y2025D03*
Y4602D03*
Y4702D03*
X6967Y2375D03*
Y5052D03*
X7067Y2275D03*
Y2375D03*
Y4952D03*
Y5052D03*
X7167Y2275D03*
Y2375D03*
Y4952D03*
Y5052D03*
D02*
D25*
X269Y1675D03*
Y4352D03*
X869Y2375D03*
Y5052D03*
X1819Y2375D03*
Y5052D03*
X2769Y1925D03*
Y4602D03*
X3143Y1675D03*
Y4352D03*
X3743Y2375D03*
Y5052D03*
X4693Y2375D03*
Y5052D03*
X5643Y1925D03*
Y4602D03*
X6017Y1675D03*
Y4352D03*
X6617Y2375D03*
Y5052D03*
X7567Y2375D03*
Y5052D03*
X8517Y1925D03*
Y4602D03*
D02*
D26*
X269Y1175D03*
Y1275D03*
Y1375D03*
Y1475D03*
Y1575D03*
Y3852D03*
Y3952D03*
Y4052D03*
Y4152D03*
Y4252D03*
X569Y2375D03*
Y5052D03*
X669Y2375D03*
Y5052D03*
X769Y2375D03*
Y5052D03*
X1919Y2375D03*
Y5052D03*
X2019Y2375D03*
Y5052D03*
X2119Y2375D03*
Y5052D03*
X2769Y2025D03*
Y2125D03*
Y2225D03*
Y4702D03*
Y4802D03*
Y4902D03*
X3143Y1175D03*
Y1275D03*
Y1375D03*
Y1475D03*
Y1575D03*
Y3852D03*
Y3952D03*
Y4052D03*
Y4152D03*
Y4252D03*
X3443Y2375D03*
Y5052D03*
X3543Y2375D03*
Y5052D03*
X3643Y2375D03*
Y5052D03*
X4793Y2375D03*
Y5052D03*
X4893Y2375D03*
Y5052D03*
X4993Y2375D03*
Y5052D03*
X5643Y2025D03*
Y2125D03*
Y2225D03*
Y4702D03*
Y4802D03*
Y4902D03*
X6017Y1175D03*
Y1275D03*
Y1375D03*
Y1475D03*
Y1575D03*
Y3852D03*
Y3952D03*
Y4052D03*
Y4152D03*
Y4252D03*
X6317Y2375D03*
Y5052D03*
X6417Y2375D03*
Y5052D03*
X6517Y2375D03*
Y5052D03*
X7667Y2375D03*
Y5052D03*
X7767Y2375D03*
Y5052D03*
X7867Y2375D03*
Y5052D03*
X8517Y2025D03*
Y2125D03*
Y2225D03*
Y4702D03*
Y4802D03*
Y4902D03*
D02*
D27*
X1119Y1441D03*
Y1508D03*
Y4118D03*
Y4185D03*
X1469Y1291D03*
Y1358D03*
Y3968D03*
Y4035D03*
X1594Y1291D03*
Y1358D03*
Y3968D03*
Y4035D03*
X1708Y2049D03*
Y2116D03*
Y4726D03*
Y4793D03*
X1844Y2041D03*
Y2108D03*
Y4718D03*
Y4785D03*
X2319Y1441D03*
Y1508D03*
Y4118D03*
Y4185D03*
X2519Y1441D03*
Y1508D03*
Y4118D03*
Y4185D03*
X2719Y1441D03*
Y1508D03*
Y4118D03*
Y4185D03*
X3993Y1441D03*
Y1508D03*
Y4118D03*
Y4185D03*
X4343Y1291D03*
Y1358D03*
Y3968D03*
Y4035D03*
X4468Y1291D03*
Y1358D03*
Y3968D03*
Y4035D03*
X4582Y2049D03*
Y2116D03*
Y4726D03*
Y4793D03*
X4718Y2041D03*
Y2108D03*
Y4718D03*
Y4785D03*
X5193Y1441D03*
Y1508D03*
Y4118D03*
Y4185D03*
X5393Y1441D03*
Y1508D03*
Y4118D03*
Y4185D03*
X5593Y1441D03*
Y1508D03*
Y4118D03*
Y4185D03*
X6867Y1441D03*
Y1508D03*
Y4118D03*
Y4185D03*
X7217Y1291D03*
Y1358D03*
Y3968D03*
Y4035D03*
X7342Y1291D03*
Y1358D03*
Y3968D03*
Y4035D03*
X7456Y2049D03*
Y2116D03*
Y4726D03*
Y4793D03*
X7592Y2041D03*
Y2108D03*
Y4718D03*
Y4785D03*
X8067Y1441D03*
Y1508D03*
Y4118D03*
Y4185D03*
X8267Y1441D03*
Y1508D03*
Y4118D03*
Y4185D03*
X8467Y1441D03*
Y1508D03*
Y4118D03*
Y4185D03*
D02*
D28*
X1939Y1875D03*
Y4552D03*
X1999Y1875D03*
Y4552D03*
X4813Y1875D03*
Y4552D03*
X4873Y1875D03*
Y4552D03*
X7687Y1875D03*
Y4552D03*
X7747Y1875D03*
Y4552D03*
D02*
D29*
X919Y725D03*
Y3402D03*
X932Y1082D03*
Y3759D03*
X1219Y1350D03*
Y4027D03*
X1319Y1100D03*
Y1200D03*
Y1567D03*
Y3777D03*
Y3877D03*
Y4244D03*
X1394Y2125D03*
Y4802D03*
X1469Y2125D03*
Y4802D03*
X1619Y1075D03*
Y3752D03*
X1819Y400D03*
Y3077D03*
X2119Y1075D03*
Y3752D03*
X3793Y725D03*
Y3402D03*
X3806Y1082D03*
Y3759D03*
X4093Y1350D03*
Y4027D03*
X4193Y1100D03*
Y1200D03*
Y1567D03*
Y3777D03*
Y3877D03*
Y4244D03*
X4268Y2125D03*
Y4802D03*
X4343Y2125D03*
Y4802D03*
X4493Y1075D03*
Y3752D03*
X4693Y400D03*
Y3077D03*
X4993Y1075D03*
Y3752D03*
X6667Y725D03*
Y3402D03*
X6680Y1082D03*
Y3759D03*
X6967Y1350D03*
Y4027D03*
X7067Y1100D03*
Y1200D03*
Y1567D03*
Y3777D03*
Y3877D03*
Y4244D03*
X7142Y2125D03*
Y4802D03*
X7217Y2125D03*
Y4802D03*
X7367Y1075D03*
Y3752D03*
X7567Y400D03*
Y3077D03*
X7867Y1075D03*
Y3752D03*
D02*
D72*
X244Y575D03*
Y3252D03*
X544Y1025D03*
Y3702D03*
X3118Y575D03*
Y3252D03*
X3418Y1025D03*
Y3702D03*
X5992Y575D03*
Y3252D03*
X6292Y1025D03*
Y3702D03*
D02*
D73*
X2094Y1875D03*
Y1912D03*
Y1950D03*
Y4552D03*
Y4589D03*
Y4627D03*
X2204Y1875D03*
Y1950D03*
Y4552D03*
Y4627D03*
X4968Y1875D03*
Y1912D03*
Y1950D03*
Y4552D03*
Y4589D03*
Y4627D03*
X5078Y1875D03*
Y1950D03*
Y4552D03*
Y4627D03*
X7842Y1875D03*
Y1912D03*
Y1950D03*
Y4552D03*
Y4589D03*
Y4627D03*
X7952Y1875D03*
Y1950D03*
Y4552D03*
Y4627D03*
D02*
D74*
X869Y1636D03*
Y2013D03*
Y4314D03*
Y4690D03*
X919Y1636D03*
Y2013D03*
Y4314D03*
Y4690D03*
X969Y1636D03*
Y2013D03*
Y4314D03*
Y4690D03*
X1019Y1636D03*
Y2013D03*
Y4314D03*
Y4690D03*
X1069Y1636D03*
Y2013D03*
Y4314D03*
Y4690D03*
X1119Y1636D03*
Y2013D03*
Y4314D03*
Y4690D03*
X1169Y1636D03*
Y2013D03*
Y4314D03*
Y4690D03*
X1219Y1636D03*
Y2013D03*
Y4314D03*
Y4690D03*
X1269Y1636D03*
Y2013D03*
Y4314D03*
Y4690D03*
X1319Y1636D03*
Y2013D03*
Y4314D03*
Y4690D03*
X1369Y1636D03*
Y2013D03*
Y4314D03*
Y4690D03*
X1419Y1636D03*
Y2013D03*
Y4314D03*
Y4690D03*
X1469Y1636D03*
Y2013D03*
Y4314D03*
Y4690D03*
X1519Y1636D03*
Y2013D03*
Y4314D03*
Y4690D03*
X3743Y1636D03*
Y2013D03*
Y4314D03*
Y4690D03*
X3793Y1636D03*
Y2013D03*
Y4314D03*
Y4690D03*
X3843Y1636D03*
Y2013D03*
Y4314D03*
Y4690D03*
X3893Y1636D03*
Y2013D03*
Y4314D03*
Y4690D03*
X3943Y1636D03*
Y2013D03*
Y4314D03*
Y4690D03*
X3993Y1636D03*
Y2013D03*
Y4314D03*
Y4690D03*
X4043Y1636D03*
Y2013D03*
Y4314D03*
Y4690D03*
X4093Y1636D03*
Y2013D03*
Y4314D03*
Y4690D03*
X4143Y1636D03*
Y2013D03*
Y4314D03*
Y4690D03*
X4193Y1636D03*
Y2013D03*
Y4314D03*
Y4690D03*
X4243Y1636D03*
Y2013D03*
Y4314D03*
Y4690D03*
X4293Y1636D03*
Y2013D03*
Y4314D03*
Y4690D03*
X4343Y1636D03*
Y2013D03*
Y4314D03*
Y4690D03*
X4393Y1636D03*
Y2013D03*
Y4314D03*
Y4690D03*
X6617Y1636D03*
Y2013D03*
Y4314D03*
Y4690D03*
X6667Y1636D03*
Y2013D03*
Y4314D03*
Y4690D03*
X6717Y1636D03*
Y2013D03*
Y4314D03*
Y4690D03*
X6767Y1636D03*
Y2013D03*
Y4314D03*
Y4690D03*
X6817Y1636D03*
Y2013D03*
Y4314D03*
Y4690D03*
X6867Y1636D03*
Y2013D03*
Y4314D03*
Y4690D03*
X6917Y1636D03*
Y2013D03*
Y4314D03*
Y4690D03*
X6967Y1636D03*
Y2013D03*
Y4314D03*
Y4690D03*
X7017Y1636D03*
Y2013D03*
Y4314D03*
Y4690D03*
X7067Y1636D03*
Y2013D03*
Y4314D03*
Y4690D03*
X7117Y1636D03*
Y2013D03*
Y4314D03*
Y4690D03*
X7167Y1636D03*
Y2013D03*
Y4314D03*
Y4690D03*
X7217Y1636D03*
Y2013D03*
Y4314D03*
Y4690D03*
X7267Y1636D03*
Y2013D03*
Y4314D03*
Y4690D03*
D02*
D75*
X589Y2475D03*
Y5150D03*
X619Y1225D03*
Y3902D03*
X719Y1325D03*
Y1837D03*
Y1975D03*
Y2225D03*
Y4002D03*
Y4514D03*
Y4652D03*
Y4902D03*
X769Y1425D03*
Y4102D03*
X781Y2237D03*
Y4914D03*
X869Y1425D03*
Y4102D03*
X881Y2237D03*
Y4914D03*
X919Y1525D03*
Y4202D03*
X944Y1200D03*
Y1462D03*
Y3877D03*
Y4139D03*
X956Y2437D03*
Y5114D03*
X969Y1562D03*
Y4239D03*
X1019Y2162D03*
Y4839D03*
X1056Y1375D03*
Y4052D03*
X1206Y2162D03*
Y4839D03*
X1294Y387D03*
Y3064D03*
X1306Y2087D03*
Y4764D03*
X1394Y1112D03*
Y3789D03*
X1419Y1200D03*
Y3877D03*
X1444Y1512D03*
Y4189D03*
X1469Y200D03*
Y2877D03*
X1481Y1175D03*
Y1562D03*
Y3852D03*
Y4239D03*
X1569Y1650D03*
Y4327D03*
X1581Y812D03*
Y1012D03*
Y1225D03*
Y3489D03*
Y3689D03*
Y3902D03*
X1588Y1737D03*
Y4414D03*
X1619Y1175D03*
Y3852D03*
X1656Y812D03*
Y3489D03*
X1831Y1125D03*
Y3802D03*
X1931Y1975D03*
Y4652D03*
X1981Y2212D03*
Y4889D03*
X2031Y1512D03*
Y2275D03*
Y4189D03*
Y4952D03*
X2319Y1737D03*
Y4414D03*
X2831Y987D03*
Y3664D03*
X3464Y2475D03*
Y5150D03*
X3493Y1225D03*
Y3902D03*
X3593Y1325D03*
Y1837D03*
Y1975D03*
Y2225D03*
Y4002D03*
Y4514D03*
Y4652D03*
Y4902D03*
X3643Y1425D03*
Y4102D03*
X3655Y2237D03*
Y4914D03*
X3743Y1425D03*
Y4102D03*
X3755Y2237D03*
Y4914D03*
X3793Y1525D03*
Y4202D03*
X3818Y1200D03*
Y1462D03*
Y3877D03*
Y4139D03*
X3830Y2437D03*
Y5114D03*
X3843Y1562D03*
Y4239D03*
X3893Y2162D03*
Y4839D03*
X3930Y1375D03*
Y4052D03*
X4080Y2162D03*
Y4839D03*
X4168Y387D03*
Y3064D03*
X4180Y2087D03*
Y4764D03*
X4268Y1112D03*
Y3789D03*
X4293Y1200D03*
Y3877D03*
X4318Y1512D03*
Y4189D03*
X4343Y200D03*
Y2877D03*
X4355Y1175D03*
Y1562D03*
Y3852D03*
Y4239D03*
X4443Y1650D03*
Y4327D03*
X4455Y812D03*
Y1012D03*
Y1225D03*
Y3489D03*
Y3689D03*
Y3902D03*
X4462Y1737D03*
Y4414D03*
X4493Y1175D03*
Y3852D03*
X4530Y812D03*
Y3489D03*
X4705Y1125D03*
Y3802D03*
X4805Y1975D03*
Y4652D03*
X4855Y2212D03*
Y4889D03*
X4905Y1512D03*
Y2275D03*
Y4189D03*
Y4952D03*
X5193Y1737D03*
Y4414D03*
X5705Y987D03*
Y3664D03*
X6339Y2475D03*
Y5150D03*
X6367Y1225D03*
Y3902D03*
X6467Y1325D03*
Y1837D03*
Y1975D03*
Y2225D03*
Y4002D03*
Y4514D03*
Y4652D03*
Y4902D03*
X6517Y1425D03*
Y4102D03*
X6529Y2237D03*
Y4914D03*
X6617Y1425D03*
Y4102D03*
X6629Y2237D03*
Y4914D03*
X6667Y1525D03*
Y4202D03*
X6692Y1200D03*
Y1462D03*
Y3877D03*
Y4139D03*
X6704Y2437D03*
Y5114D03*
X6717Y1562D03*
Y4239D03*
X6767Y2162D03*
Y4839D03*
X6804Y1375D03*
Y4052D03*
X6954Y2162D03*
Y4839D03*
X7042Y387D03*
Y3064D03*
X7054Y2087D03*
Y4764D03*
X7142Y1112D03*
Y3789D03*
X7167Y1200D03*
Y3877D03*
X7192Y1512D03*
Y4189D03*
X7217Y200D03*
Y2877D03*
X7229Y1175D03*
Y1562D03*
Y3852D03*
Y4239D03*
X7317Y1650D03*
Y4327D03*
X7329Y812D03*
Y1012D03*
Y1225D03*
Y3489D03*
Y3689D03*
Y3902D03*
X7336Y1737D03*
Y4414D03*
X7367Y1175D03*
Y3852D03*
X7404Y812D03*
Y3489D03*
X7579Y1125D03*
Y3802D03*
X7679Y1975D03*
Y4652D03*
X7729Y2212D03*
Y4889D03*
X7779Y1512D03*
Y2275D03*
Y4189D03*
Y4952D03*
X8067Y1737D03*
Y4414D03*
X8579Y987D03*
Y3664D03*
D02*
D76*
X319Y275D03*
Y2475D03*
Y2952D03*
Y5152D03*
X2719Y275D03*
Y2475D03*
Y2952D03*
Y5152D03*
X3193Y275D03*
Y2475D03*
Y2952D03*
Y5152D03*
X5593Y275D03*
Y2475D03*
Y2952D03*
Y5152D03*
X6067Y275D03*
Y2475D03*
Y2952D03*
Y5152D03*
X8467Y275D03*
Y2475D03*
Y2952D03*
Y5152D03*
D02*
D77*
X2081Y2437D03*
Y5114D03*
X2181Y662D03*
Y3339D03*
X4955Y2437D03*
Y5114D03*
X5055Y662D03*
Y3339D03*
X7829Y2437D03*
Y5114D03*
X7929Y662D03*
Y3339D03*
X0Y0D02*
M02*
