%FSLAX23Y23*%
%MOIN*%
G04 EasyPC Gerber Version 14.0.2 Build 2922 *
%AMT170*0 Octagon Pad at angle 0*4,1,8,-0.00828,-0.02000,0.00828,-0.02000,0.02000,-0.00828,0.02000,0.00828,0.00828,0.02000,-0.00828,0.02000,-0.02000,0.00828,-0.02000,-0.00828,-0.00828,-0.02000,0*%
%ADD170T170*%
%AMT100*0 Octagon Pad at angle 0*4,1,8,-0.01243,-0.03000,0.01243,-0.03000,0.03000,-0.01243,0.03000,0.01243,0.01243,0.03000,-0.01243,0.03000,-0.03000,0.01243,-0.03000,-0.01243,-0.01243,-0.03000,0*%
%ADD100T100*%
%AMT102*0 Octagon Pad at angle 0*4,1,8,-0.01450,-0.03500,0.01450,-0.03500,0.03500,-0.01450,0.03500,0.01450,0.01450,0.03500,-0.01450,0.03500,-0.03500,0.01450,-0.03500,-0.01450,-0.01450,-0.03500,0*%
%ADD102T102*%
%ADD169R,0.02559X0.06693*%
%ADD152R,0.04331X0.03937*%
%ADD165R,0.04600X0.06300*%
%ADD153R,0.07677X0.09843*%
%ADD99R,0.06000X0.06000*%
%ADD101R,0.07000X0.07000*%
%ADD163R,0.15748X0.15748*%
%ADD171R,0.16598X0.16598*%
%ADD111C,0.00500*%
%ADD96C,0.01000*%
%ADD125C,0.01500*%
%ADD103C,0.01600*%
%ADD150C,0.03200*%
%ADD168R,0.04331X0.02362*%
%ADD160R,0.05906X0.02362*%
%ADD158R,0.08661X0.02362*%
%ADD159R,0.08000X0.02600*%
%ADD151R,0.03937X0.04331*%
%ADD161R,0.08800X0.04800*%
%ADD164R,0.05906X0.05118*%
%ADD154R,0.07087X0.06299*%
%ADD157R,0.08583X0.06378*%
%ADD155R,0.09843X0.10039*%
%ADD104C,0.04800*%
%ADD166C,0.05118*%
%ADD97C,0.05543*%
%ADD167C,0.05906*%
%ADD156C,0.13595*%
%ADD162R,0.08661X0.14173*%
X0Y0D02*
D02*
D96*
X479Y575D02*
Y275D01*
X319*
X479Y3252D02*
Y2952D01*
X319*
X589Y2437D02*
Y2475D01*
Y5114D02*
Y5150D01*
X2394Y825D02*
X2719D01*
Y275*
X2394Y3502D02*
X2719D01*
Y2952*
X2769Y4902D02*
Y5152D01*
X2719*
X3353Y575D02*
Y275D01*
X3193*
X3353Y3252D02*
Y2952D01*
X3193*
X3464Y2437D02*
Y2475D01*
Y5114D02*
Y5150D01*
X5268Y825D02*
X5593D01*
Y275*
X5268Y3502D02*
X5593D01*
Y2952*
X5643Y4902D02*
Y5152D01*
X5593*
X6227Y575D02*
Y275D01*
X6067*
X6227Y3252D02*
Y2952D01*
X6067*
X6339Y2437D02*
Y2475D01*
Y5114D02*
Y5150D01*
X8142Y825D02*
X8467D01*
Y275*
X8142Y3502D02*
X8467D01*
Y2952*
X8517Y2225D02*
Y2475D01*
X8467*
X8517Y4902D02*
Y5152D01*
X8467*
D02*
D97*
X1094Y725D03*
Y3402D03*
X1144Y825D03*
Y3502D03*
X1194Y725D03*
Y3402D03*
X1244Y825D03*
Y3502D03*
X1294Y725D03*
Y3402D03*
X1344Y825D03*
Y3502D03*
X1394Y725D03*
Y3402D03*
X1444Y825D03*
Y3502D03*
X2044Y725D03*
Y3402D03*
X2094Y825D03*
Y3502D03*
X2144Y725D03*
Y3402D03*
X2194Y825D03*
Y3502D03*
X2244Y725D03*
Y3402D03*
X2294Y825D03*
Y3502D03*
X2344Y725D03*
Y3402D03*
X2394Y825D03*
Y3502D03*
X3968Y725D03*
Y3402D03*
X4018Y825D03*
Y3502D03*
X4068Y725D03*
Y3402D03*
X4118Y825D03*
Y3502D03*
X4168Y725D03*
Y3402D03*
X4218Y825D03*
Y3502D03*
X4268Y725D03*
Y3402D03*
X4318Y825D03*
Y3502D03*
X4918Y725D03*
Y3402D03*
X4968Y825D03*
Y3502D03*
X5018Y725D03*
Y3402D03*
X5068Y825D03*
Y3502D03*
X5118Y725D03*
Y3402D03*
X5168Y825D03*
Y3502D03*
X5218Y725D03*
Y3402D03*
X5268Y825D03*
Y3502D03*
X6842Y725D03*
Y3402D03*
X6892Y825D03*
Y3502D03*
X6942Y725D03*
Y3402D03*
X6992Y825D03*
Y3502D03*
X7042Y725D03*
Y3402D03*
X7092Y825D03*
Y3502D03*
X7142Y725D03*
Y3402D03*
X7192Y825D03*
Y3502D03*
X7792Y725D03*
Y3402D03*
X7842Y825D03*
Y3502D03*
X7892Y725D03*
Y3402D03*
X7942Y825D03*
Y3502D03*
X7992Y725D03*
Y3402D03*
X8042Y825D03*
Y3502D03*
X8092Y725D03*
Y3402D03*
X8142Y825D03*
Y3502D03*
D02*
D99*
X369Y1825D03*
Y4502D03*
X1219Y2275D03*
Y4952D03*
X3243Y1825D03*
Y4502D03*
X4093Y2275D03*
Y4952D03*
X6117Y1825D03*
Y4502D03*
X6967Y2275D03*
Y4952D03*
D02*
D100*
X269Y1825D03*
Y1925D03*
Y2025D03*
Y4502D03*
Y4602D03*
Y4702D03*
X369Y1925D03*
Y2025D03*
Y4602D03*
Y4702D03*
X1219Y2375D03*
Y5052D03*
X1319Y2275D03*
Y2375D03*
Y4952D03*
Y5052D03*
X1419Y2275D03*
Y2375D03*
Y4952D03*
Y5052D03*
X3143Y1825D03*
Y1925D03*
Y2025D03*
Y4502D03*
Y4602D03*
Y4702D03*
X3243Y1925D03*
Y2025D03*
Y4602D03*
Y4702D03*
X4093Y2375D03*
Y5052D03*
X4193Y2275D03*
Y2375D03*
Y4952D03*
Y5052D03*
X4293Y2275D03*
Y2375D03*
Y4952D03*
Y5052D03*
X6017Y1825D03*
Y1925D03*
Y2025D03*
Y4502D03*
Y4602D03*
Y4702D03*
X6117Y1925D03*
Y2025D03*
Y4602D03*
Y4702D03*
X6967Y2375D03*
Y5052D03*
X7067Y2275D03*
Y2375D03*
Y4952D03*
Y5052D03*
X7167Y2275D03*
Y2375D03*
Y4952D03*
Y5052D03*
D02*
D101*
X269Y1675D03*
Y4352D03*
X869Y2375D03*
Y5052D03*
X1819Y2375D03*
Y5052D03*
X2769Y1925D03*
Y4602D03*
X3143Y1675D03*
Y4352D03*
X3743Y2375D03*
Y5052D03*
X4693Y2375D03*
Y5052D03*
X5643Y1925D03*
Y4602D03*
X6017Y1675D03*
Y4352D03*
X6617Y2375D03*
Y5052D03*
X7567Y2375D03*
Y5052D03*
X8517Y1925D03*
Y4602D03*
D02*
D102*
X269Y1175D03*
Y1275D03*
Y1375D03*
Y1475D03*
Y1575D03*
Y3852D03*
Y3952D03*
Y4052D03*
Y4152D03*
Y4252D03*
X569Y2375D03*
Y5052D03*
X669Y2375D03*
Y5052D03*
X769Y2375D03*
Y5052D03*
X1919Y2375D03*
Y5052D03*
X2019Y2375D03*
Y5052D03*
X2119Y2375D03*
Y5052D03*
X2769Y2025D03*
Y2125D03*
Y2225D03*
Y4702D03*
Y4802D03*
Y4902D03*
X3143Y1175D03*
Y1275D03*
Y1375D03*
Y1475D03*
Y1575D03*
Y3852D03*
Y3952D03*
Y4052D03*
Y4152D03*
Y4252D03*
X3443Y2375D03*
Y5052D03*
X3543Y2375D03*
Y5052D03*
X3643Y2375D03*
Y5052D03*
X4793Y2375D03*
Y5052D03*
X4893Y2375D03*
Y5052D03*
X4993Y2375D03*
Y5052D03*
X5643Y2025D03*
Y2125D03*
Y2225D03*
Y4702D03*
Y4802D03*
Y4902D03*
X6017Y1175D03*
Y1275D03*
Y1375D03*
Y1475D03*
Y1575D03*
Y3852D03*
Y3952D03*
Y4052D03*
Y4152D03*
Y4252D03*
X6317Y2375D03*
Y5052D03*
X6417Y2375D03*
Y5052D03*
X6517Y2375D03*
Y5052D03*
X7667Y2375D03*
Y5052D03*
X7767Y2375D03*
Y5052D03*
X7867Y2375D03*
Y5052D03*
X8517Y2025D03*
Y2125D03*
Y2225D03*
Y4702D03*
Y4802D03*
Y4902D03*
D02*
D103*
X369Y575D02*
X359D01*
X369Y3252D02*
X359D01*
X479Y575D02*
X469D01*
Y500*
X244*
X181Y562*
Y1087*
X269Y1175*
X479Y575D02*
X481D01*
Y675*
X531Y725*
X541Y734*
X479Y3252D02*
X469D01*
Y3177*
X244*
X181Y3239*
Y3764*
X269Y3852*
X479Y3252D02*
X481D01*
Y3352*
X531Y3402*
X541Y3411*
Y734D02*
X544Y737D01*
X719*
Y725*
X541Y3411D02*
X544Y3414D01*
X719*
Y3402*
X544Y925D02*
X541Y916D01*
X544Y925D02*
Y1025D01*
Y3602D02*
X541Y3593D01*
X544Y3602D02*
Y3702D01*
X589Y2437D02*
X669D01*
X589D02*
X544D01*
X506Y2400*
Y2262*
X269Y2025*
X589Y5114D02*
X669D01*
X589D02*
X544D01*
X506Y5077*
Y4939*
X269Y4702*
X669Y1275D02*
X619Y1225D01*
X669Y1275D02*
Y1787D01*
Y1275D02*
X856D01*
Y1280*
X669Y1787D02*
Y2375D01*
Y1787D02*
X1106D01*
X1206Y1687*
Y1650*
X1219Y1637*
Y1636*
X669Y2437D02*
X719Y2487D01*
X1206*
X1319Y2375*
X669Y2437D02*
Y2375D01*
Y3952D02*
X619Y3902D01*
X669Y3952D02*
Y4464D01*
Y3952D02*
X856D01*
Y3957*
X669Y4464D02*
Y5052D01*
Y4464D02*
X1106D01*
X1206Y4364*
Y4327*
X1219Y4314*
Y4314*
X669Y5114D02*
X719Y5164D01*
X1206*
X1319Y5052*
X669Y5114D02*
Y5052D01*
X719Y912D02*
Y924D01*
Y925D02*
Y924D01*
Y1325D02*
Y1709D01*
X747Y1737*
X1106*
X1156Y1687*
Y1650*
X1169Y1637*
Y1636*
X719Y1837D02*
X1181D01*
X1306Y1962*
Y2000*
X1319Y2012*
Y2013*
X719Y1975D02*
Y1940D01*
X747Y1912*
X1156*
X1206Y1962*
Y2000*
X1219Y2012*
Y2013*
X719Y2225D02*
Y2325D01*
X769Y2375*
X719Y3589D02*
Y3601D01*
Y3602D02*
Y3601D01*
Y4002D02*
Y4386D01*
X747Y4414*
X1106*
X1156Y4364*
Y4327*
X1169Y4314*
Y4314*
X719Y4514D02*
X1181D01*
X1306Y4639*
Y4677*
X1319Y4689*
Y4690*
X719Y4652D02*
Y4617D01*
X747Y4589*
X1156*
X1206Y4639*
Y4677*
X1219Y4689*
Y4690*
X719Y4902D02*
Y5002D01*
X769Y5052*
Y1425D02*
Y1664D01*
X804Y1700*
X1044*
X1056Y1687*
Y1650*
X1069Y1637*
Y1636*
X769Y4102D02*
Y4341D01*
X804Y4377*
X1044*
X1056Y4364*
Y4327*
X1069Y4314*
Y4314*
X781Y2237D02*
Y1978D01*
X809Y1950*
X944*
X956Y1962*
Y2000*
X969Y2012*
Y2013*
X781Y4914D02*
Y4655D01*
X809Y4627*
X944*
X956Y4639*
Y4677*
X969Y4689*
Y4690*
X856Y1150D02*
X1010D01*
X856Y1162D02*
Y1169D01*
Y1162D02*
Y1150D01*
Y1280D02*
Y1300D01*
X1010*
X856Y3827D02*
X1010D01*
X856Y3839D02*
Y3847D01*
Y3839D02*
Y3827D01*
Y3957D02*
Y3977D01*
X1010*
X869Y1425D02*
Y1636D01*
Y4102D02*
Y4314D01*
X881Y2100D02*
X885D01*
X881D02*
X869Y2087D01*
X881Y2237D02*
Y2175D01*
X885*
X881Y4777D02*
X885D01*
X881D02*
X869Y4764D01*
X881Y4914D02*
Y4852D01*
X885*
X906Y2287D02*
X956Y2337D01*
Y2437*
X906Y2287D02*
X849D01*
X831Y2269*
Y2150*
X881Y2100*
X906Y2287D02*
X931Y2262D01*
Y2187*
X944Y2175*
X952*
X906Y4964D02*
X956Y5014D01*
Y5114*
X906Y4964D02*
X849D01*
X831Y4947*
Y4827*
X881Y4777*
X906Y4964D02*
X931Y4939D01*
Y4864*
X944Y4852*
X952*
X919Y725D02*
X1094D01*
X919Y1525D02*
Y1636D01*
Y3402D02*
X1094D01*
X919Y4202D02*
Y4314D01*
X944Y1200D02*
Y1250D01*
X1010*
X944Y1462D02*
X1019Y1537D01*
Y1636*
X944Y3877D02*
Y3927D01*
X1010*
X944Y4139D02*
X1019Y4214D01*
Y4314*
X952Y2100D02*
X944D01*
X931Y2087*
Y2037*
X919Y2025*
Y2013*
X952Y4777D02*
X944D01*
X931Y4764*
Y4714*
X919Y4702*
Y4690*
X969Y1562D02*
Y1636D01*
Y4239D02*
Y4314D01*
X1010Y1300D02*
X1044D01*
X1106Y1237*
Y1162*
X1444Y825*
X1010Y3977D02*
X1044D01*
X1106Y3914*
Y3839*
X1444Y3502*
X1019Y2013D02*
Y2025D01*
X1031Y2037*
Y2100*
X1094Y2162*
Y2175*
X1194Y2275*
X1219*
X1019Y2162D02*
X956Y2100D01*
X952*
X1019Y4690D02*
Y4702D01*
X1031Y4714*
Y4777*
X1094Y4839*
Y4852*
X1194Y4952*
X1219*
X1019Y4839D02*
X956Y4777D01*
X952*
X1056Y1375D02*
Y1500D01*
X1119*
Y1508*
X1056Y4052D02*
Y4177D01*
X1119*
Y4185*
X1069Y1087D02*
X1244Y912D01*
Y825*
X1069Y1087D02*
Y1175D01*
X1044Y1200*
X1010*
X1069Y1087D02*
X944D01*
X932Y1082*
X1069Y2013D02*
Y2025D01*
X1081Y2037*
Y2100*
X1156Y2175*
Y2187*
X1181Y2212*
X1281*
Y2237*
X1319Y2275*
X1069Y3764D02*
X1244Y3589D01*
Y3502*
X1069Y3764D02*
Y3852D01*
X1044Y3877*
X1010*
X1069Y3764D02*
X944D01*
X932Y3759*
X1069Y4690D02*
Y4702D01*
X1081Y4714*
Y4777*
X1156Y4852*
Y4864*
X1181Y4889*
X1281*
Y4914*
X1319Y4952*
X1119Y1508D02*
Y1636D01*
Y4185D02*
Y4314D01*
X1169Y2013D02*
Y2025D01*
X1181Y2037*
Y2062*
X1331Y2212*
X1464*
X1481Y2230*
Y2400*
X1356Y2525*
X569*
X444Y2400*
Y2365*
X206Y2127*
Y1887*
X269Y1825*
X1169Y4690D02*
Y4702D01*
X1181Y4714*
Y4739*
X1331Y4889*
X1464*
X1481Y4907*
Y5077*
X1356Y5202*
X569*
X444Y5077*
Y5042*
X354Y4952*
X206Y4804*
Y4564*
X269Y4502*
X1206Y2162D02*
Y2137D01*
X1131Y2062*
Y2037*
X1119Y2025*
Y2013*
X1206Y4839D02*
Y4814D01*
X1131Y4739*
Y4714*
X1119Y4702*
Y4690*
X1219Y1450D02*
Y1441D01*
Y1450D02*
X1119D01*
Y1441*
X1219Y1450D02*
X1269D01*
X1219Y1512D02*
Y1636D01*
Y1512D02*
Y1508D01*
Y1512D02*
X1269D01*
Y1508*
X1219Y4127D02*
Y4118D01*
Y4127D02*
X1119D01*
Y4118*
X1219Y4127D02*
X1269D01*
X1219Y4189D02*
Y4314D01*
Y4189D02*
Y4185D01*
Y4189D02*
X1269D01*
Y4185*
X1227Y1300D02*
X1219D01*
Y1350*
X1227Y3977D02*
X1219D01*
Y4027*
X1231Y1200D02*
X1227D01*
X1231D02*
Y1250D01*
X1227*
X1231Y1200D02*
X1319D01*
X1231Y3877D02*
X1227D01*
X1231D02*
Y3927D01*
X1227*
X1231Y3877D02*
X1319D01*
X1269Y1450D02*
Y1441D01*
Y1450D02*
X1456D01*
X1494Y1487*
Y1537*
X1481Y1550*
Y1562*
X1269Y4127D02*
Y4118D01*
Y4127D02*
X1456D01*
X1494Y4164*
Y4214*
X1481Y4227*
Y4239*
X1294Y387D02*
Y725D01*
Y3064D02*
Y3402D01*
X1306Y2087D02*
X1269Y2050D01*
Y2013*
X1306Y4764D02*
X1269Y4727D01*
Y4690*
X1319Y1100D02*
X1231D01*
Y1150*
X1227*
X1319Y1567D02*
Y1636D01*
Y3777D02*
X1231D01*
Y3827*
X1227*
X1319Y4244D02*
Y4314D01*
X1369Y2013D02*
Y2100D01*
X1394Y2125*
X1369Y4690D02*
Y4777D01*
X1394Y4802*
Y1112D02*
X1319D01*
Y1100*
X1394Y3789D02*
X1319D01*
Y3777*
X1419Y1200D02*
X1319D01*
X1419Y2012D02*
Y2013D01*
Y2012D02*
Y1975D01*
X1644Y1750*
Y1425*
X1744Y1325*
X1748*
X1419Y2012D02*
X1369D01*
Y2013*
X1419Y3877D02*
X1319D01*
X1419Y4689D02*
Y4690D01*
Y4689D02*
Y4652D01*
X1644Y4427*
Y4102*
X1744Y4002*
X1748*
X1419Y4689D02*
X1369D01*
Y4690*
X1444Y1512D02*
X1369Y1587D01*
Y1636*
X1444Y4189D02*
X1369Y4264D01*
Y4314*
X1469Y1291D02*
Y1300D01*
X1227*
X1469Y2013D02*
Y1975D01*
X1744Y1700*
Y1431*
X1819Y1356*
Y1250*
X1794Y1225*
X1748*
X1469Y2013D02*
Y2125D01*
Y3968D02*
Y3977D01*
X1227*
X1469Y4690D02*
Y4652D01*
X1744Y4377*
Y4108*
X1800Y4052*
X1819Y4033*
Y3927*
X1794Y3902*
X1748*
X1469Y4690D02*
Y4802D01*
X1481Y1175D02*
X1469Y1187D01*
Y1291*
X1481Y1562D02*
Y1612D01*
X1469Y1625*
Y1636*
X1481Y3852D02*
X1469Y3864D01*
Y3968*
X1481Y4239D02*
Y4289D01*
X1469Y4302*
Y4314*
X1531Y1362D02*
Y825D01*
X1431Y725*
X1531Y1362D02*
X1469D01*
Y1358*
X1531Y1362D02*
X1594D01*
Y1358*
X1531Y4039D02*
Y3502D01*
X1431Y3402*
X1531Y4039D02*
X1469D01*
Y4035*
X1531Y4039D02*
X1594D01*
Y4035*
X1569Y1650D02*
Y1637D01*
X1519*
Y1636*
X1569Y4327D02*
Y4314D01*
X1519*
Y4314*
X1581Y1012D02*
X1619Y1050D01*
Y1075*
X1581Y3689D02*
X1619Y3727D01*
Y3752*
X1588Y1737D02*
X1447D01*
X1419Y1709*
Y1636*
X1588Y4414D02*
X1447D01*
X1419Y4386*
Y4314*
X1594Y1287D02*
Y1291D01*
Y1287D02*
Y1237D01*
X1581Y1225*
X1594Y1287D02*
X1744D01*
Y1275*
X1748*
X1594Y3964D02*
Y3968D01*
Y3964D02*
Y3914D01*
X1581Y3902*
X1594Y3964D02*
X1744D01*
Y3952*
X1748*
X1619Y1075D02*
X1748D01*
X1619Y1175D02*
X1748D01*
X1619Y3752D02*
X1748D01*
X1619Y3852D02*
X1748D01*
X1656Y812D02*
X1744D01*
Y808*
X1656Y3489D02*
X1744D01*
Y3485*
X1669Y725D02*
Y300D01*
X1719Y250*
X1956*
X2406Y700*
Y812*
X2394Y825*
X1669Y725D02*
X1744Y650D01*
Y642*
X1669Y725D02*
X1581Y812D01*
X1669Y3402D02*
Y2977D01*
X1719Y2927*
X1956*
X2406Y3377*
Y3489*
X2394Y3502*
X1669Y3402D02*
X1744Y3327D01*
Y3319*
X1669Y3402D02*
X1581Y3489D01*
X1819Y2325D02*
X1519Y2025D01*
Y2013*
X1819Y2325D02*
Y2375D01*
Y2325D02*
Y2187D01*
X1737Y2115*
X1708Y2116*
X1819Y2375D02*
Y2467D01*
X1864Y2512*
X2244*
X2381Y2375*
Y1920*
X2336Y1875*
X2206*
X2204Y1875*
X1819Y5002D02*
X1519Y4702D01*
Y4690*
X1819Y5002D02*
Y5052D01*
Y5002D02*
Y4864D01*
X1737Y4792*
X1708Y4793*
X1819Y5052D02*
Y5144D01*
X1864Y5189*
X2244*
X2381Y5052*
Y4597*
X2336Y4552*
X2206*
X2204Y4552*
X1831Y1125D02*
X1748D01*
X1831Y3802D02*
X1748D01*
X1844Y2041D02*
Y2050D01*
X1744*
X1708Y2049*
X1844Y4718D02*
Y4727D01*
X1744*
X1708Y4726*
X1856Y2037D02*
X1944D01*
X1935Y2037*
X1856Y2037D02*
X1844D01*
Y2041*
X1856Y4714D02*
X1944D01*
X1935Y4714*
X1856Y4714D02*
X1844D01*
Y4718*
X1919Y1150D02*
Y1250D01*
X1944Y1275*
X1990*
X1919Y1150D02*
Y1060D01*
X1883Y1025*
X1748*
X1919Y1150D02*
X1944Y1175D01*
X1990*
X1919Y2375D02*
X1894Y2350D01*
Y2162*
X1844Y2112*
Y2108*
X1919Y2375D02*
Y2439D01*
X1954Y2475*
X2231*
X2344Y2362*
Y1985*
X2308Y1950*
X2204*
X1919Y3827D02*
Y3927D01*
X1944Y3952*
X1990*
X1919Y3827D02*
Y3737D01*
X1883Y3702*
X1748*
X1919Y3827D02*
X1944Y3852D01*
X1990*
X1919Y5052D02*
X1894Y5027D01*
Y4839*
X1844Y4789*
Y4785*
X1919Y5052D02*
Y5116D01*
X1954Y5152*
X2231*
X2344Y5039*
Y4662*
X2308Y4627*
X2204*
X1931Y1975D02*
Y1875D01*
Y4652D02*
Y4552D01*
X1935Y2104D02*
X1956Y2112D01*
X2056*
Y2125*
X2066*
X1935Y4781D02*
X1956Y4789D01*
X2056*
Y4802*
X2066*
X1956Y2037D02*
X1935Y2037D01*
X1956Y4714D02*
X1935Y4714D01*
X1981Y1325D02*
X1990D01*
X1981Y2212D02*
Y2175D01*
X2066*
X1981Y4002D02*
X1990D01*
X1981Y4889D02*
Y4852D01*
X2066*
X1990Y1025D02*
X1994D01*
X2031Y987*
Y737*
X2044Y725*
X1990Y1075D02*
X2119D01*
X1990Y3702D02*
X1994D01*
X2031Y3664*
Y3414*
X2044Y3402*
X1990Y3752D02*
X2119D01*
X2019Y2375D02*
X1931Y2287D01*
Y2125*
X1944Y2112*
X1935Y2104*
X2019Y5052D02*
X1931Y4964D01*
Y4802*
X1944Y4789*
X1935Y4781*
X2031Y1512D02*
X2319D01*
Y1508*
X2031Y2275D02*
Y2250D01*
X2056Y2225*
X2066*
X2031Y4189D02*
X2319D01*
Y4185*
X2031Y4952D02*
Y4927D01*
X2056Y4902*
X2066*
X2069Y1975D02*
X2094Y1950D01*
X2069Y2037D02*
Y2075D01*
X2066*
X2069Y4652D02*
X2094Y4627D01*
X2069Y4714D02*
Y4752D01*
X2066*
X2081Y2437D02*
X2181D01*
X2219Y2400*
Y2075*
X2081Y2437D02*
X2019Y2375D01*
X2081Y5114D02*
X2181D01*
X2219Y5077*
Y4752*
X2081Y5114D02*
X2019Y5052D01*
X2094Y1266D02*
Y1275D01*
X1990*
X2094Y1325D02*
Y1333D01*
Y1875D02*
Y1875D01*
X1999*
X2094Y3943D02*
Y3952D01*
X1990*
X2094Y4002D02*
Y4010D01*
Y4552D02*
Y4552D01*
X1999*
X2181Y662D02*
X2244Y725D01*
X2181Y662D02*
X2005D01*
X1881Y538*
Y462*
X1819Y400*
X2181Y3339D02*
X2244Y3402D01*
X2181Y3339D02*
X2005D01*
X1881Y3216*
Y3139*
X1819Y3077*
X2219Y2075D02*
X2244Y2100D01*
X2219Y2075D02*
X2156Y2012D01*
Y1930*
X2139Y1912*
X2094*
Y1912*
X2219Y4752D02*
X2244Y4777D01*
X2219Y4752D02*
X2156Y4689D01*
Y4607*
X2139Y4589*
X2094*
Y4589*
X2244Y2100D02*
X2269Y2075D01*
X2271*
X2244Y4777D02*
X2269Y4752D01*
X2271*
X2269Y2125D02*
X2271D01*
X2269D02*
Y2175D01*
Y2125D02*
X2244Y2100D01*
X2269Y2175D02*
X2271D01*
X2269D02*
Y2225D01*
X2271*
X2269Y4802D02*
X2271D01*
X2269D02*
Y4852D01*
Y4802D02*
X2244Y4777D01*
X2269Y4852D02*
X2271D01*
X2269D02*
Y4902D01*
X2271*
X2319Y1100D02*
Y1091D01*
Y1100D02*
X2256D01*
X2094Y1262*
Y1266*
X2319Y1308D02*
Y1441D01*
Y1737D02*
X2519Y1512D01*
Y1508*
X2319Y3777D02*
Y3769D01*
Y3777D02*
X2256D01*
X2094Y3939*
Y3943*
X2319Y3985D02*
Y4118D01*
Y4414D02*
X2519Y4189D01*
Y4185*
Y1100D02*
Y1091D01*
Y1100D02*
X2719D01*
Y1091*
X2519Y1100D02*
X2319D01*
X2519Y1308D02*
Y1441D01*
Y3777D02*
Y3769D01*
Y3777D02*
X2719D01*
Y3769*
X2519Y3777D02*
X2319D01*
X2519Y3985D02*
Y4118D01*
X2719Y1308D02*
Y1441D01*
Y1512D02*
Y1508D01*
Y3985D02*
Y4118D01*
Y4189D02*
Y4185D01*
X2831Y987D02*
Y2062D01*
X2769Y2125*
X2831Y3664D02*
Y4739D01*
X2769Y4802*
X3243Y575D02*
X3233D01*
X3243Y3252D02*
X3233D01*
X3353Y575D02*
X3343D01*
Y500*
X3118*
X3055Y562*
Y1087*
X3143Y1175*
X3353Y575D02*
X3355D01*
Y675*
X3405Y725*
X3415Y734*
X3353Y3252D02*
X3343D01*
Y3177*
X3118*
X3055Y3239*
Y3764*
X3143Y3852*
X3353Y3252D02*
X3355D01*
Y3352*
X3405Y3402*
X3415Y3411*
Y734D02*
X3418Y737D01*
X3593*
Y725*
X3415Y3411D02*
X3418Y3414D01*
X3593*
Y3402*
X3418Y925D02*
X3415Y916D01*
X3418Y925D02*
Y1025D01*
Y3602D02*
X3415Y3593D01*
X3418Y3602D02*
Y3702D01*
X3464Y2437D02*
X3543D01*
X3464D02*
X3418D01*
X3380Y2400*
Y2262*
X3143Y2025*
X3464Y5114D02*
X3543D01*
X3464D02*
X3418D01*
X3380Y5077*
Y4939*
X3143Y4702*
X3543Y1275D02*
X3493Y1225D01*
X3543Y1275D02*
Y1787D01*
Y1275D02*
X3730D01*
Y1280*
X3543Y1787D02*
Y2375D01*
Y1787D02*
X3980D01*
X4080Y1687*
Y1650*
X4093Y1637*
Y1636*
X3543Y2437D02*
X3593Y2487D01*
X4080*
X4193Y2375*
X3543Y2437D02*
Y2375D01*
Y3952D02*
X3493Y3902D01*
X3543Y3952D02*
Y4464D01*
Y3952D02*
X3730D01*
Y3957*
X3543Y4464D02*
Y5052D01*
Y4464D02*
X3980D01*
X4080Y4364*
Y4327*
X4093Y4314*
Y4314*
X3543Y5114D02*
X3593Y5164D01*
X4080*
X4193Y5052*
X3543Y5114D02*
Y5052D01*
X3593Y912D02*
Y924D01*
Y925D02*
Y924D01*
Y1325D02*
Y1709D01*
X3621Y1737*
X3980*
X4030Y1687*
Y1650*
X4043Y1637*
Y1636*
X3593Y1837D02*
X4055D01*
X4180Y1962*
Y2000*
X4193Y2012*
Y2013*
X3593Y1975D02*
Y1940D01*
X3621Y1912*
X4030*
X4080Y1962*
Y2000*
X4093Y2012*
Y2013*
X3593Y2225D02*
Y2325D01*
X3643Y2375*
X3593Y3589D02*
Y3601D01*
Y3602D02*
Y3601D01*
Y4002D02*
Y4386D01*
X3621Y4414*
X3980*
X4030Y4364*
Y4327*
X4043Y4314*
Y4314*
X3593Y4514D02*
X4055D01*
X4180Y4639*
Y4677*
X4193Y4689*
Y4690*
X3593Y4652D02*
Y4617D01*
X3621Y4589*
X4030*
X4080Y4639*
Y4677*
X4093Y4689*
Y4690*
X3593Y4902D02*
Y5002D01*
X3643Y5052*
Y1425D02*
Y1664D01*
X3678Y1700*
X3918*
X3930Y1687*
Y1650*
X3943Y1637*
Y1636*
X3643Y4102D02*
Y4341D01*
X3678Y4377*
X3918*
X3930Y4364*
Y4327*
X3943Y4314*
Y4314*
X3655Y2237D02*
Y1978D01*
X3683Y1950*
X3818*
X3830Y1962*
Y2000*
X3843Y2012*
Y2013*
X3655Y4914D02*
Y4655D01*
X3683Y4627*
X3818*
X3830Y4639*
Y4677*
X3843Y4689*
Y4690*
X3730Y1150D02*
X3884D01*
X3730Y1162D02*
Y1169D01*
Y1162D02*
Y1150D01*
Y1280D02*
Y1300D01*
X3884*
X3730Y3827D02*
X3884D01*
X3730Y3839D02*
Y3847D01*
Y3839D02*
Y3827D01*
Y3957D02*
Y3977D01*
X3884*
X3743Y1425D02*
Y1636D01*
Y4102D02*
Y4314D01*
X3755Y2100D02*
X3759D01*
X3755D02*
X3743Y2087D01*
X3755Y2237D02*
Y2175D01*
X3759*
X3755Y4777D02*
X3759D01*
X3755D02*
X3743Y4764D01*
X3755Y4914D02*
Y4852D01*
X3759*
X3780Y2287D02*
X3830Y2337D01*
Y2437*
X3780Y2287D02*
X3723D01*
X3705Y2269*
Y2150*
X3755Y2100*
X3780Y2287D02*
X3805Y2262D01*
Y2187*
X3818Y2175*
X3826*
X3780Y4964D02*
X3830Y5014D01*
Y5114*
X3780Y4964D02*
X3723D01*
X3705Y4947*
Y4827*
X3755Y4777*
X3780Y4964D02*
X3805Y4939D01*
Y4864*
X3818Y4852*
X3826*
X3793Y725D02*
X3968D01*
X3793Y1525D02*
Y1636D01*
Y3402D02*
X3968D01*
X3793Y4202D02*
Y4314D01*
X3818Y1200D02*
Y1250D01*
X3884*
X3818Y1462D02*
X3893Y1537D01*
Y1636*
X3818Y3877D02*
Y3927D01*
X3884*
X3818Y4139D02*
X3893Y4214D01*
Y4314*
X3826Y2100D02*
X3818D01*
X3805Y2087*
Y2037*
X3793Y2025*
Y2013*
X3826Y4777D02*
X3818D01*
X3805Y4764*
Y4714*
X3793Y4702*
Y4690*
X3843Y1562D02*
Y1636D01*
Y4239D02*
Y4314D01*
X3884Y1300D02*
X3918D01*
X3980Y1237*
Y1162*
X4318Y825*
X3884Y3977D02*
X3918D01*
X3980Y3914*
Y3839*
X4318Y3502*
X3893Y2013D02*
Y2025D01*
X3905Y2037*
Y2100*
X3968Y2162*
Y2175*
X4068Y2275*
X4093*
X3893Y2162D02*
X3830Y2100D01*
X3826*
X3893Y4690D02*
Y4702D01*
X3905Y4714*
Y4777*
X3968Y4839*
Y4852*
X4068Y4952*
X4093*
X3893Y4839D02*
X3830Y4777D01*
X3826*
X3930Y1375D02*
Y1500D01*
X3993*
Y1508*
X3930Y4052D02*
Y4177D01*
X3993*
Y4185*
X3943Y1087D02*
X4118Y912D01*
Y825*
X3943Y1087D02*
Y1175D01*
X3918Y1200*
X3884*
X3943Y1087D02*
X3818D01*
X3806Y1082*
X3943Y2013D02*
Y2025D01*
X3955Y2037*
Y2100*
X4030Y2175*
Y2187*
X4055Y2212*
X4155*
Y2237*
X4193Y2275*
X3943Y3764D02*
X4118Y3589D01*
Y3502*
X3943Y3764D02*
Y3852D01*
X3918Y3877*
X3884*
X3943Y3764D02*
X3818D01*
X3806Y3759*
X3943Y4690D02*
Y4702D01*
X3955Y4714*
Y4777*
X4030Y4852*
Y4864*
X4055Y4889*
X4155*
Y4914*
X4193Y4952*
X3993Y1508D02*
Y1636D01*
Y4185D02*
Y4314D01*
X4043Y2013D02*
Y2025D01*
X4055Y2037*
Y2062*
X4205Y2212*
X4338*
X4355Y2230*
Y2400*
X4230Y2525*
X3443*
X3318Y2400*
Y2365*
X3080Y2127*
Y1887*
X3143Y1825*
X4043Y4690D02*
Y4702D01*
X4055Y4714*
Y4739*
X4205Y4889*
X4338*
X4355Y4907*
Y5077*
X4230Y5202*
X3443*
X3318Y5077*
Y5042*
X3228Y4952*
X3080Y4804*
Y4564*
X3143Y4502*
X4080Y2162D02*
Y2137D01*
X4005Y2062*
Y2037*
X3993Y2025*
Y2013*
X4080Y4839D02*
Y4814D01*
X4005Y4739*
Y4714*
X3993Y4702*
Y4690*
X4093Y1450D02*
Y1441D01*
Y1450D02*
X3993D01*
Y1441*
X4093Y1450D02*
X4143D01*
X4093Y1512D02*
Y1636D01*
Y1512D02*
Y1508D01*
Y1512D02*
X4143D01*
Y1508*
X4093Y4127D02*
Y4118D01*
Y4127D02*
X3993D01*
Y4118*
X4093Y4127D02*
X4143D01*
X4093Y4189D02*
Y4314D01*
Y4189D02*
Y4185D01*
Y4189D02*
X4143D01*
Y4185*
X4101Y1300D02*
X4093D01*
Y1350*
X4101Y3977D02*
X4093D01*
Y4027*
X4105Y1200D02*
X4101D01*
X4105D02*
Y1250D01*
X4101*
X4105Y1200D02*
X4193D01*
X4105Y3877D02*
X4101D01*
X4105D02*
Y3927D01*
X4101*
X4105Y3877D02*
X4193D01*
X4143Y1450D02*
Y1441D01*
Y1450D02*
X4330D01*
X4368Y1487*
Y1537*
X4355Y1550*
Y1562*
X4143Y4127D02*
Y4118D01*
Y4127D02*
X4330D01*
X4368Y4164*
Y4214*
X4355Y4227*
Y4239*
X4168Y387D02*
Y725D01*
Y3064D02*
Y3402D01*
X4180Y2087D02*
X4143Y2050D01*
Y2013*
X4180Y4764D02*
X4143Y4727D01*
Y4690*
X4193Y1100D02*
X4105D01*
Y1150*
X4101*
X4193Y1567D02*
Y1636D01*
Y3777D02*
X4105D01*
Y3827*
X4101*
X4193Y4244D02*
Y4314D01*
X4243Y2013D02*
Y2100D01*
X4268Y2125*
X4243Y4690D02*
Y4777D01*
X4268Y4802*
Y1112D02*
X4193D01*
Y1100*
X4268Y3789D02*
X4193D01*
Y3777*
X4293Y1200D02*
X4193D01*
X4293Y2012D02*
Y2013D01*
Y2012D02*
Y1975D01*
X4518Y1750*
Y1425*
X4618Y1325*
X4622*
X4293Y2012D02*
X4243D01*
Y2013*
X4293Y3877D02*
X4193D01*
X4293Y4689D02*
Y4690D01*
Y4689D02*
Y4652D01*
X4518Y4427*
Y4102*
X4618Y4002*
X4622*
X4293Y4689D02*
X4243D01*
Y4690*
X4318Y1512D02*
X4243Y1587D01*
Y1636*
X4318Y4189D02*
X4243Y4264D01*
Y4314*
X4343Y1291D02*
Y1300D01*
X4101*
X4343Y2013D02*
Y1975D01*
X4618Y1700*
Y1431*
X4674Y1375*
X4693Y1356*
Y1250*
X4668Y1225*
X4622*
X4343Y2013D02*
Y2125D01*
Y3968D02*
Y3977D01*
X4101*
X4343Y4690D02*
Y4652D01*
X4618Y4377*
Y4108*
X4693Y4033*
Y3927*
X4668Y3902*
X4622*
X4343Y4690D02*
Y4802D01*
X4355Y1175D02*
X4343Y1187D01*
Y1291*
X4355Y1562D02*
Y1612D01*
X4343Y1625*
Y1636*
X4355Y3852D02*
X4343Y3864D01*
Y3968*
X4355Y4239D02*
Y4289D01*
X4343Y4302*
Y4314*
X4405Y1362D02*
Y825D01*
X4305Y725*
X4405Y1362D02*
X4343D01*
Y1358*
X4405Y1362D02*
X4468D01*
Y1358*
X4405Y4039D02*
Y3502D01*
X4305Y3402*
X4405Y4039D02*
X4343D01*
Y4035*
X4405Y4039D02*
X4468D01*
Y4035*
X4443Y1650D02*
Y1637D01*
X4393*
Y1636*
X4443Y4327D02*
Y4314D01*
X4393*
Y4314*
X4455Y1012D02*
X4493Y1050D01*
Y1075*
X4455Y3689D02*
X4493Y3727D01*
Y3752*
X4462Y1737D02*
X4321D01*
X4293Y1709*
Y1636*
X4462Y4414D02*
X4321D01*
X4293Y4386*
Y4314*
X4468Y1287D02*
Y1291D01*
Y1287D02*
Y1237D01*
X4455Y1225*
X4468Y1287D02*
X4618D01*
Y1275*
X4622*
X4468Y3964D02*
Y3968D01*
Y3964D02*
Y3914D01*
X4455Y3902*
X4468Y3964D02*
X4618D01*
Y3952*
X4622*
X4493Y1075D02*
X4622D01*
X4493Y1175D02*
X4622D01*
X4493Y3752D02*
X4622D01*
X4493Y3852D02*
X4622D01*
X4530Y812D02*
X4618D01*
Y808*
X4530Y3489D02*
X4618D01*
Y3485*
X4543Y725D02*
Y300D01*
X4593Y250*
X4830*
X5280Y700*
Y812*
X5268Y825*
X4543Y725D02*
X4618Y650D01*
Y642*
X4543Y725D02*
X4455Y812D01*
X4543Y3402D02*
Y2977D01*
X4593Y2927*
X4830*
X5280Y3377*
Y3489*
X5268Y3502*
X4543Y3402D02*
X4618Y3327D01*
Y3319*
X4543Y3402D02*
X4455Y3489D01*
X4693Y2325D02*
X4393Y2025D01*
Y2013*
X4693Y2325D02*
Y2375D01*
Y2325D02*
Y2187D01*
X4611Y2115*
X4582Y2116*
X4693Y2375D02*
Y2467D01*
X4738Y2512*
X5118*
X5255Y2375*
Y1920*
X5210Y1875*
X5080*
X5078Y1875*
X4693Y5002D02*
X4393Y4702D01*
Y4690*
X4693Y5002D02*
Y5052D01*
Y5002D02*
Y4864D01*
X4611Y4792*
X4582Y4793*
X4693Y5052D02*
Y5144D01*
X4738Y5189*
X5118*
X5255Y5052*
Y4597*
X5210Y4552*
X5080*
X5078Y4552*
X4705Y1125D02*
X4622D01*
X4705Y3802D02*
X4622D01*
X4718Y2041D02*
Y2050D01*
X4618*
X4582Y2049*
X4718Y4718D02*
Y4727D01*
X4618*
X4582Y4726*
X4730Y2037D02*
X4818D01*
X4809Y2037*
X4730Y2037D02*
X4718D01*
Y2041*
X4730Y4714D02*
X4818D01*
X4809Y4714*
X4730Y4714D02*
X4718D01*
Y4718*
X4793Y1150D02*
Y1060D01*
X4757Y1025*
X4622*
X4793Y1150D02*
X4818Y1175D01*
X4864*
X4793Y1150D02*
Y1250D01*
X4818Y1275*
X4968*
Y1266*
X4793Y2375D02*
X4768Y2350D01*
Y2162*
X4718Y2112*
Y2108*
X4793Y2375D02*
Y2439D01*
X4828Y2475*
X5105*
X5218Y2362*
Y1985*
X5182Y1950*
X5078*
X4793Y3827D02*
Y3737D01*
X4757Y3702*
X4622*
X4793Y3827D02*
X4818Y3852D01*
X4864*
X4793Y3827D02*
Y3927D01*
X4818Y3952*
X4968*
Y3943*
X4793Y5052D02*
X4768Y5027D01*
Y4839*
X4718Y4789*
Y4785*
X4793Y5052D02*
Y5116D01*
X4828Y5152*
X5105*
X5218Y5039*
Y4662*
X5182Y4627*
X5078*
X4805Y1975D02*
Y1875D01*
Y4652D02*
Y4552D01*
X4809Y2104D02*
X4830Y2112D01*
X4930*
Y2125*
X4940*
X4809Y4781D02*
X4830Y4789D01*
X4930*
Y4802*
X4940*
X4830Y2037D02*
X4809Y2037D01*
X4830Y4714D02*
X4809Y4714D01*
X4855Y1325D02*
X4864D01*
X4855Y2212D02*
Y2175D01*
X4940*
X4855Y4002D02*
X4864D01*
X4855Y4889D02*
Y4852D01*
X4940*
X4864Y1025D02*
X4868D01*
X4905Y987*
Y737*
X4918Y725*
X4864Y1075D02*
X4993D01*
X4864Y3702D02*
X4868D01*
X4905Y3664*
Y3414*
X4918Y3402*
X4864Y3752D02*
X4993D01*
X4893Y2375D02*
X4805Y2287D01*
Y2125*
X4818Y2112*
X4809Y2104*
X4893Y5052D02*
X4805Y4964D01*
Y4802*
X4818Y4789*
X4809Y4781*
X4905Y1512D02*
X5193D01*
Y1508*
X4905Y2275D02*
Y2250D01*
X4930Y2225*
X4940*
X4905Y4189D02*
X5193D01*
Y4185*
X4905Y4952D02*
Y4927D01*
X4930Y4902*
X4940*
X4943Y1975D02*
X4968Y1950D01*
X4943Y2037D02*
Y2075D01*
X4940*
X4943Y4652D02*
X4968Y4627D01*
X4943Y4714D02*
Y4752D01*
X4940*
X4955Y2437D02*
X5055D01*
X5093Y2400*
Y2075*
X4955Y2437D02*
X4893Y2375D01*
X4955Y5114D02*
X5055D01*
X5093Y5077*
Y4752*
X4955Y5114D02*
X4893Y5052D01*
X4968Y1325D02*
Y1333D01*
Y1875D02*
Y1875D01*
X4873*
X4968Y4002D02*
Y4010D01*
Y4552D02*
Y4552D01*
X4873*
X5055Y662D02*
X5118Y725D01*
X5055Y662D02*
X4879D01*
X4755Y538*
Y462*
X4693Y400*
X5055Y3339D02*
X5118Y3402D01*
X5055Y3339D02*
X4879D01*
X4755Y3216*
Y3139*
X4693Y3077*
X5093Y2075D02*
X5118Y2100D01*
X5093Y2075D02*
X5030Y2012D01*
Y1930*
X5013Y1912*
X4968*
Y1912*
X5093Y4752D02*
X5118Y4777D01*
X5093Y4752D02*
X5030Y4689D01*
Y4607*
X5013Y4589*
X4968*
Y4589*
X5118Y2100D02*
X5143Y2075D01*
X5145*
X5118Y4777D02*
X5143Y4752D01*
X5145*
X5118Y4777D02*
X5143Y4802D01*
Y2125D02*
X5145D01*
X5143D02*
Y2175D01*
Y2125D02*
X5118Y2100D01*
X5143Y2175D02*
X5145D01*
X5143D02*
Y2225D01*
X5145*
X5143Y4802D02*
X5145D01*
X5143D02*
Y4852D01*
X5145*
X5143D02*
Y4902D01*
X5145*
X5193Y1100D02*
Y1091D01*
Y1100D02*
X5130D01*
X4968Y1262*
Y1266*
X5193Y1308D02*
Y1441D01*
Y1737D02*
X5393Y1512D01*
Y1508*
X5193Y3777D02*
Y3769D01*
Y3777D02*
X5130D01*
X4968Y3939*
Y3943*
X5193Y3985D02*
Y4118D01*
Y4414D02*
X5393Y4189D01*
Y4185*
Y1100D02*
Y1091D01*
Y1100D02*
X5593D01*
Y1091*
X5393Y1100D02*
X5193D01*
X5393Y1308D02*
Y1441D01*
Y3777D02*
Y3769D01*
Y3777D02*
X5593D01*
Y3769*
X5393Y3777D02*
X5193D01*
X5393Y3985D02*
Y4118D01*
X5593Y1308D02*
Y1441D01*
Y1512D02*
Y1508D01*
Y3985D02*
Y4118D01*
Y4189D02*
Y4185D01*
X5705Y987D02*
Y2062D01*
X5643Y2125*
X5705Y3664D02*
Y4739D01*
X5643Y4802*
X6117Y575D02*
X6107D01*
X6117Y3252D02*
X6107D01*
X6227Y575D02*
X6217D01*
Y500*
X5992*
X5929Y562*
Y1087*
X6017Y1175*
X6227Y575D02*
X6229D01*
Y675*
X6279Y725*
X6289Y734*
X6292Y737*
X6467*
Y725*
X6227Y3252D02*
X6217D01*
Y3177*
X5992*
X5929Y3239*
Y3764*
X6017Y3852*
X6227Y3252D02*
X6229D01*
Y3352*
X6279Y3402*
X6289Y3411*
X6292Y3414*
X6467*
Y3402*
X6292Y925D02*
X6289Y916D01*
X6292Y925D02*
Y1025D01*
Y3602D02*
X6289Y3593D01*
X6292Y3602D02*
Y3702D01*
X6339Y2437D02*
X6417D01*
X6339D02*
X6292D01*
X6254Y2400*
Y2262*
X6017Y2025*
X6339Y5114D02*
X6417D01*
X6339D02*
X6292D01*
X6254Y5077*
Y4939*
X6017Y4702*
X6417Y1275D02*
X6367Y1225D01*
X6417Y1275D02*
Y1787D01*
Y1275D02*
X6604D01*
Y1280*
X6417Y1787D02*
Y2375D01*
Y1787D02*
X6854D01*
X6954Y1687*
Y1650*
X6967Y1637*
Y1636*
X6417Y2437D02*
X6467Y2487D01*
X6954*
X7067Y2375*
X6417Y2437D02*
Y2375D01*
Y3952D02*
X6367Y3902D01*
X6417Y3952D02*
Y4464D01*
Y3952D02*
X6604D01*
Y3957*
X6417Y4464D02*
Y5052D01*
Y4464D02*
X6854D01*
X6954Y4364*
Y4327*
X6967Y4314*
Y4314*
X6417Y5114D02*
X6467Y5164D01*
X6954*
X7067Y5052*
X6417Y5114D02*
Y5052D01*
X6467Y912D02*
Y924D01*
Y925D02*
Y924D01*
Y1325D02*
Y1709D01*
X6495Y1737*
X6854*
X6904Y1687*
Y1650*
X6917Y1637*
Y1636*
X6467Y1837D02*
X6929D01*
X7054Y1962*
Y2000*
X7067Y2012*
Y2013*
X6467Y1975D02*
Y1940D01*
X6495Y1912*
X6904*
X6954Y1962*
Y2000*
X6967Y2012*
Y2013*
X6467Y2225D02*
Y2325D01*
X6517Y2375*
X6467Y3589D02*
Y3601D01*
Y3602D02*
Y3601D01*
Y4002D02*
Y4386D01*
X6495Y4414*
X6854*
X6904Y4364*
Y4327*
X6917Y4314*
Y4314*
X6467Y4514D02*
X6929D01*
X7054Y4639*
Y4677*
X7067Y4689*
Y4690*
X6467Y4652D02*
Y4617D01*
X6495Y4589*
X6904*
X6954Y4639*
Y4677*
X6967Y4689*
Y4690*
X6467Y4902D02*
Y5002D01*
X6517Y5052*
Y1425D02*
Y1664D01*
X6552Y1700*
X6792*
X6804Y1687*
Y1650*
X6817Y1637*
Y1636*
X6517Y4102D02*
Y4341D01*
X6552Y4377*
X6792*
X6804Y4364*
Y4327*
X6817Y4314*
Y4314*
X6529Y2237D02*
Y1978D01*
X6557Y1950*
X6692*
X6704Y1962*
Y2000*
X6717Y2012*
Y2013*
X6529Y4914D02*
Y4655D01*
X6557Y4627*
X6692*
X6704Y4639*
Y4677*
X6717Y4689*
Y4690*
X6604Y1150D02*
X6758D01*
X6604Y1162D02*
Y1169D01*
Y1162D02*
Y1150D01*
Y1280D02*
Y1300D01*
X6758*
X6604Y3827D02*
X6758D01*
X6604Y3839D02*
Y3847D01*
Y3839D02*
Y3827D01*
Y3957D02*
Y3977D01*
X6758*
X6617Y1425D02*
Y1636D01*
Y4102D02*
Y4314D01*
X6629Y2100D02*
X6633D01*
X6629D02*
X6617Y2087D01*
X6629Y2237D02*
Y2175D01*
X6633*
X6629Y4777D02*
X6633D01*
X6629D02*
X6617Y4764D01*
X6629Y4914D02*
Y4852D01*
X6633*
X6654Y2287D02*
X6704Y2337D01*
Y2437*
X6654Y2287D02*
X6597D01*
X6579Y2269*
Y2150*
X6629Y2100*
X6654Y2287D02*
X6679Y2262D01*
Y2187*
X6692Y2175*
X6700*
X6654Y4964D02*
X6704Y5014D01*
Y5114*
X6654Y4964D02*
X6597D01*
X6579Y4947*
Y4827*
X6629Y4777*
X6654Y4964D02*
X6679Y4939D01*
Y4864*
X6692Y4852*
X6700*
X6667Y725D02*
X6842D01*
X6667Y1525D02*
Y1636D01*
Y3402D02*
X6842D01*
X6667Y4202D02*
Y4314D01*
X6692Y1200D02*
Y1250D01*
X6758*
X6692Y1462D02*
X6767Y1537D01*
Y1636*
X6692Y3877D02*
Y3927D01*
X6758*
X6692Y4139D02*
X6767Y4214D01*
Y4314*
X6700Y2100D02*
X6692D01*
X6679Y2087*
Y2037*
X6667Y2025*
Y2013*
X6700Y4777D02*
X6692D01*
X6679Y4764*
Y4714*
X6667Y4702*
Y4690*
X6717Y1562D02*
Y1636D01*
Y4239D02*
Y4314D01*
X6758Y1300D02*
X6792D01*
X6854Y1237*
Y1162*
X7192Y825*
X6758Y3977D02*
X6792D01*
X6854Y3914*
Y3839*
X7192Y3502*
X6767Y2013D02*
Y2025D01*
X6779Y2037*
Y2100*
X6842Y2162*
Y2175*
X6942Y2275*
X6967*
X6767Y2162D02*
X6704Y2100D01*
X6700*
X6767Y4690D02*
Y4702D01*
X6779Y4714*
Y4777*
X6842Y4839*
Y4852*
X6942Y4952*
X6967*
X6767Y4839D02*
X6704Y4777D01*
X6700*
X6804Y1375D02*
Y1500D01*
X6867*
Y1508*
X6804Y4052D02*
Y4177D01*
X6867*
Y4185*
X6817Y1087D02*
X6992Y912D01*
Y825*
X6817Y1087D02*
Y1175D01*
X6792Y1200*
X6758*
X6817Y1087D02*
X6692D01*
X6680Y1082*
X6817Y2013D02*
Y2025D01*
X6829Y2037*
Y2100*
X6904Y2175*
Y2187*
X6929Y2212*
X7029*
Y2237*
X7067Y2275*
X6817Y3764D02*
X6992Y3589D01*
Y3502*
X6817Y3764D02*
Y3852D01*
X6792Y3877*
X6758*
X6817Y3764D02*
X6692D01*
X6680Y3759*
X6817Y4690D02*
Y4702D01*
X6829Y4714*
Y4777*
X6904Y4852*
Y4864*
X6929Y4889*
X7029*
Y4914*
X7067Y4952*
X6867Y1508D02*
Y1636D01*
Y4185D02*
Y4314D01*
X6917Y2013D02*
Y2025D01*
X6929Y2037*
Y2062*
X7079Y2212*
X7212*
X7229Y2230*
Y2400*
X7104Y2525*
X6317*
X6192Y2400*
Y2365*
X6102Y2275*
X5954Y2127*
Y1887*
X6017Y1825*
X6917Y4690D02*
Y4702D01*
X6929Y4714*
Y4739*
X7079Y4889*
X7212*
X7229Y4907*
Y5077*
X7104Y5202*
X6317*
X6192Y5077*
Y5042*
X6102Y4952*
X5954Y4804*
Y4564*
X6017Y4502*
X6954Y2162D02*
Y2137D01*
X6879Y2062*
Y2037*
X6867Y2025*
Y2013*
X6954Y4839D02*
Y4814D01*
X6879Y4739*
Y4714*
X6867Y4702*
Y4690*
X6967Y1450D02*
Y1441D01*
Y1450D02*
X6867D01*
Y1441*
X6967Y1450D02*
X7017D01*
X6967Y1512D02*
Y1636D01*
Y1512D02*
Y1508D01*
Y1512D02*
X7017D01*
Y1508*
X6967Y4127D02*
Y4118D01*
Y4127D02*
X6867D01*
Y4118*
X6967Y4127D02*
X7017D01*
X6967Y4189D02*
Y4314D01*
Y4189D02*
Y4185D01*
Y4189D02*
X7017D01*
Y4185*
X6975Y1300D02*
X6967D01*
Y1350*
X6975Y3977D02*
X6967D01*
Y4027*
X6979Y1200D02*
X6975D01*
X6979D02*
Y1250D01*
X6975*
X6979Y1200D02*
X7067D01*
X6979Y3877D02*
X6975D01*
X6979D02*
Y3927D01*
X6975*
X6979Y3877D02*
X7067D01*
X7017Y1450D02*
Y1441D01*
Y1450D02*
X7204D01*
X7242Y1487*
Y1537*
X7229Y1550*
Y1562*
X7017Y4127D02*
Y4118D01*
Y4127D02*
X7204D01*
X7242Y4164*
Y4214*
X7229Y4227*
Y4239*
X7042Y387D02*
Y725D01*
Y3064D02*
Y3402D01*
X7054Y2087D02*
X7017Y2050D01*
Y2013*
X7054Y4764D02*
X7017Y4727D01*
Y4690*
X7067Y1100D02*
X6979D01*
Y1150*
X6975*
X7067Y1567D02*
Y1636D01*
Y3777D02*
X6979D01*
Y3827*
X6975*
X7067Y4244D02*
Y4314D01*
X7117Y2013D02*
Y2100D01*
X7142Y2125*
X7117Y4690D02*
Y4777D01*
X7142Y4802*
Y1112D02*
X7067D01*
Y1100*
X7142Y3789D02*
X7067D01*
Y3777*
X7167Y1200D02*
X7067D01*
X7167Y2012D02*
Y2013D01*
Y2012D02*
Y1975D01*
X7392Y1750*
Y1425*
X7492Y1325*
X7496*
X7167Y2012D02*
X7117D01*
Y2013*
X7167Y3877D02*
X7067D01*
X7167Y4689D02*
Y4690D01*
Y4689D02*
Y4652D01*
X7392Y4427*
Y4102*
X7492Y4002*
X7496*
X7167Y4689D02*
X7117D01*
Y4690*
X7192Y1512D02*
X7117Y1587D01*
Y1636*
X7192Y4189D02*
X7117Y4264D01*
Y4314*
X7217Y1291D02*
Y1300D01*
X6975*
X7217Y2013D02*
Y1975D01*
X7492Y1700*
Y1431*
X7548Y1375*
X7567Y1356*
Y1250*
X7542Y1225*
X7496*
X7217Y2013D02*
Y2125D01*
Y3968D02*
Y3977D01*
X6975*
X7217Y4690D02*
Y4652D01*
X7492Y4377*
Y4108*
X7567Y4033*
Y3927*
X7542Y3902*
X7496*
X7217Y4690D02*
Y4802D01*
X7229Y1175D02*
X7217Y1187D01*
Y1291*
X7229Y1562D02*
Y1612D01*
X7217Y1625*
Y1636*
X7229Y3852D02*
X7217Y3864D01*
Y3968*
X7229Y4239D02*
Y4289D01*
X7217Y4302*
Y4314*
X7279Y1362D02*
Y825D01*
X7179Y725*
X7279Y1362D02*
X7217D01*
Y1358*
X7279Y1362D02*
X7342D01*
Y1358*
X7279Y4039D02*
Y3502D01*
X7179Y3402*
X7279Y4039D02*
X7217D01*
Y4035*
X7279Y4039D02*
X7342D01*
Y4035*
X7317Y1650D02*
Y1637D01*
X7267*
Y1636*
X7317Y4327D02*
Y4314D01*
X7267*
Y4314*
X7329Y1012D02*
X7367Y1050D01*
Y1075*
X7329Y3689D02*
X7367Y3727D01*
Y3752*
X7336Y1737D02*
X7195D01*
X7167Y1709*
Y1636*
X7336Y4414D02*
X7195D01*
X7167Y4386*
Y4314*
X7342Y1287D02*
Y1291D01*
Y1287D02*
Y1237D01*
X7329Y1225*
X7342Y1287D02*
X7492D01*
Y1275*
X7496*
X7342Y3964D02*
Y3968D01*
Y3964D02*
Y3914D01*
X7329Y3902*
X7342Y3964D02*
X7492D01*
Y3952*
X7496*
X7367Y1075D02*
X7496D01*
X7367Y1175D02*
X7496D01*
X7367Y3752D02*
X7496D01*
X7367Y3852D02*
X7496D01*
X7404Y812D02*
X7492D01*
Y808*
X7404Y3489D02*
X7492D01*
Y3485*
X7417Y725D02*
Y300D01*
X7467Y250*
X7704*
X8154Y700*
Y812*
X8142Y825*
X7417Y725D02*
X7492Y650D01*
Y642*
X7417Y725D02*
X7329Y812D01*
X7417Y3402D02*
Y2977D01*
X7467Y2927*
X7704*
X8154Y3377*
Y3489*
X8142Y3502*
X7417Y3402D02*
X7492Y3327D01*
Y3319*
X7417Y3402D02*
X7329Y3489D01*
X7567Y2325D02*
X7267Y2025D01*
Y2013*
X7567Y2325D02*
Y2375D01*
Y2325D02*
Y2187D01*
X7485Y2115*
X7456Y2116*
X7567Y2375D02*
Y2467D01*
X7612Y2512*
X7992*
X8129Y2375*
Y1920*
X8084Y1875*
X7954*
X7952Y1875*
X7567Y5002D02*
X7267Y4702D01*
Y4690*
X7567Y5002D02*
Y5052D01*
Y5002D02*
Y4864D01*
X7485Y4792*
X7456Y4793*
X7567Y5052D02*
Y5144D01*
X7612Y5189*
X7992*
X8129Y5052*
Y4597*
X8084Y4552*
X7954*
X7952Y4552*
X7579Y1125D02*
X7496D01*
X7579Y3802D02*
X7496D01*
X7592Y2041D02*
Y2050D01*
X7492*
X7456Y2049*
X7592Y4718D02*
Y4727D01*
X7492*
X7456Y4726*
X7604Y2037D02*
X7692D01*
X7683Y2037*
X7604Y2037D02*
X7592D01*
Y2041*
X7604Y4714D02*
X7692D01*
X7683Y4714*
X7604Y4714D02*
X7592D01*
Y4718*
X7667Y1150D02*
Y1060D01*
X7631Y1025*
X7496*
X7667Y1150D02*
X7692Y1175D01*
X7738*
X7667Y1150D02*
Y1250D01*
X7692Y1275*
X7842*
Y1266*
X7667Y2375D02*
X7642Y2350D01*
Y2162*
X7592Y2112*
Y2108*
X7667Y2375D02*
Y2439D01*
X7702Y2475*
X7979*
X8092Y2362*
Y1985*
X8056Y1950*
X7952*
X7667Y3827D02*
Y3737D01*
X7631Y3702*
X7496*
X7667Y3827D02*
X7692Y3852D01*
X7738*
X7667Y3827D02*
Y3927D01*
X7692Y3952*
X7842*
Y3943*
X7667Y5052D02*
X7642Y5027D01*
Y4839*
X7592Y4789*
Y4785*
X7667Y5052D02*
Y5116D01*
X7702Y5152*
X7979*
X8092Y5039*
Y4662*
X8056Y4627*
X7952*
X7679Y1975D02*
Y1875D01*
Y4652D02*
Y4552D01*
X7683Y2104D02*
X7704Y2112D01*
X7804*
Y2125*
X7814*
X7683Y4781D02*
X7704Y4789D01*
X7804*
Y4802*
X7814*
X7704Y2037D02*
X7683Y2037D01*
X7704Y4714D02*
X7683Y4714D01*
X7729Y1325D02*
X7738D01*
X7729Y2212D02*
Y2175D01*
X7814*
X7729Y4002D02*
X7738D01*
X7729Y4889D02*
Y4852D01*
X7814*
X7738Y1025D02*
X7742D01*
X7779Y987*
Y737*
X7792Y725*
X7738Y1075D02*
X7867D01*
X7738Y3702D02*
X7742D01*
X7779Y3664*
Y3414*
X7792Y3402*
X7738Y3752D02*
X7867D01*
X7767Y2375D02*
X7679Y2287D01*
Y2125*
X7692Y2112*
X7683Y2104*
X7767Y5052D02*
X7679Y4964D01*
Y4802*
X7692Y4789*
X7683Y4781*
X7779Y1512D02*
X8067D01*
Y1508*
X7779Y2275D02*
Y2250D01*
X7804Y2225*
X7814*
X7779Y4189D02*
X8067D01*
Y4185*
X7779Y4952D02*
Y4927D01*
X7804Y4902*
X7814*
X7817Y1975D02*
X7842Y1950D01*
X7817Y2037D02*
Y2075D01*
X7814*
X7817Y4652D02*
X7842Y4627D01*
X7817Y4714D02*
Y4752D01*
X7814*
X7829Y2437D02*
X7929D01*
X7967Y2400*
Y2075*
X7829Y2437D02*
X7767Y2375D01*
X7829Y5114D02*
X7929D01*
X7967Y5077*
Y4752*
X7829Y5114D02*
X7767Y5052D01*
X7842Y1325D02*
Y1333D01*
Y1875D02*
Y1875D01*
X7747*
X7842Y4002D02*
Y4010D01*
Y4552D02*
Y4552D01*
X7747*
X7929Y662D02*
X7992Y725D01*
X7929Y662D02*
X7753D01*
X7629Y538*
Y462*
X7567Y400*
X7929Y3339D02*
X7992Y3402D01*
X7929Y3339D02*
X7753D01*
X7629Y3216*
Y3139*
X7567Y3077*
X7967Y2075D02*
X7992Y2100D01*
X7967Y2075D02*
X7904Y2012D01*
Y1930*
X7887Y1912*
X7842*
Y1912*
X7967Y4752D02*
X7992Y4777D01*
X7967Y4752D02*
X7904Y4689D01*
Y4607*
X7887Y4589*
X7842*
Y4589*
X7992Y2100D02*
X8017Y2075D01*
X8019*
X7992Y4777D02*
X8017Y4752D01*
X8019*
X8017Y2125D02*
X8019D01*
X8017D02*
Y2175D01*
Y2125D02*
X7992Y2100D01*
X8017Y2175D02*
X8019D01*
X8017D02*
Y2225D01*
X8019*
X8017Y4802D02*
X8019D01*
X8017D02*
Y4852D01*
Y4802D02*
X7992Y4777D01*
X8017Y4852D02*
X8019D01*
X8017D02*
Y4902D01*
X8019*
X8067Y1100D02*
Y1091D01*
Y1100D02*
X8004D01*
X7842Y1262*
Y1266*
X8067Y1308D02*
Y1441D01*
Y1737D02*
X8267Y1512D01*
Y1508*
X8067Y3777D02*
Y3769D01*
Y3777D02*
X8004D01*
X7842Y3939*
Y3943*
X8067Y3985D02*
Y4118D01*
Y4414D02*
X8267Y4189D01*
Y4185*
Y1100D02*
Y1091D01*
Y1100D02*
X8467D01*
Y1091*
X8267Y1100D02*
X8067D01*
X8267Y1308D02*
Y1441D01*
Y3777D02*
Y3769D01*
Y3777D02*
X8467D01*
Y3769*
X8267Y3777D02*
X8067D01*
X8267Y3985D02*
Y4118D01*
X8467Y1308D02*
Y1441D01*
Y1512D02*
Y1508D01*
Y3985D02*
Y4118D01*
Y4189D02*
Y4185D01*
X8579Y987D02*
Y2062D01*
X8517Y2125*
X8579Y3664D02*
Y4739D01*
X8517Y4802*
D02*
D104*
X2081Y2437D03*
Y5114D03*
X2181Y662D03*
Y3339D03*
X4955Y2437D03*
Y5114D03*
X5055Y662D03*
Y3339D03*
X7829Y2437D03*
Y5114D03*
X7929Y662D03*
Y3339D03*
D02*
D111*
X2125Y1952D02*
G75*
G03Y1956J2D01*
G01*
G75*
G03Y1952J-2*
G01*
Y4629D02*
G75*
G03Y4633J2D01*
G01*
G75*
G03Y4629J-2*
G01*
X4999Y1952D02*
G75*
G03Y1956J2D01*
G01*
G75*
G03Y1952J-2*
G01*
Y4629D02*
G75*
G03Y4633J2D01*
G01*
G75*
G03Y4629J-2*
G01*
X7873Y1952D02*
G75*
G03Y1956J2D01*
G01*
G75*
G03Y1952J-2*
G01*
Y4629D02*
G75*
G03Y4633J2D01*
G01*
G75*
G03Y4629J-2*
G01*
D02*
D125*
X241Y3852D02*
X193D01*
X243Y2952D02*
X195D01*
X243Y5152D02*
X195D01*
X269Y3824D02*
Y3776D01*
Y4724D02*
Y4773D01*
X296Y3852D02*
X345D01*
X319Y2876D02*
Y2828D01*
Y3027D02*
Y3076D01*
Y5076D02*
Y5028D01*
Y5227D02*
Y5276D01*
X394Y2952D02*
X443D01*
X394Y5152D02*
X443D01*
X479Y3210D02*
Y3162D01*
Y3293D02*
Y3342D01*
X504Y3411D02*
X456D01*
X510Y3252D02*
X558D01*
X541Y3394D02*
Y3346D01*
X577Y3411D02*
X626D01*
X602Y5150D02*
X650D01*
X606Y3902D02*
X558D01*
X619Y3889D02*
Y3841D01*
Y3914D02*
Y3963D01*
X631Y3902D02*
X680D01*
X669Y5024D02*
Y4976D01*
Y5079D02*
Y5128D01*
X677Y3402D02*
X628D01*
X719Y3360D02*
Y3311D01*
Y3445D02*
Y3494D01*
X828Y3957D02*
X780D01*
X856Y3981D02*
Y4029D01*
X988Y3977D02*
X940D01*
X1010Y3981D02*
Y4030D01*
X1032Y3977D02*
X1081D01*
X1219Y4340D02*
Y4388D01*
X1303Y5068D02*
X1269Y5102D01*
X1335Y5068D02*
X1369Y5102D01*
X1429Y3516D02*
X1395Y3550D01*
X1458Y3516D02*
X1492Y3550D01*
X1581Y3477D02*
Y3428D01*
Y3502D02*
Y3550D01*
X1708Y3319D02*
X1660D01*
X1744Y3294D02*
Y3246D01*
Y3343D02*
Y3392D01*
X1779Y3319D02*
X1828D01*
X1935Y4795D02*
Y4843D01*
X1999Y5032D02*
X1965Y4998D01*
X2271Y4747D02*
Y4699D01*
Y4906D02*
Y4955D01*
X2394Y3482D02*
Y3433D01*
Y3522D02*
Y3570D01*
X2414Y3502D02*
X2462D01*
X2643Y2952D02*
X2595D01*
X2643Y5152D02*
X2595D01*
X2719Y2876D02*
Y2828D01*
Y3027D02*
Y3076D01*
Y5076D02*
Y5028D01*
Y5227D02*
Y5276D01*
X2741Y4702D02*
X2693D01*
X2741Y4902D02*
X2693D01*
X2769Y4929D02*
Y4978D01*
X2794Y2952D02*
X2843D01*
X2794Y5152D02*
X2843D01*
X2796Y4902D02*
X2845D01*
X3115Y1175D02*
X3067D01*
X3115Y3852D02*
X3067D01*
X3117Y275D02*
X3069D01*
X3117Y2475D02*
X3069D01*
X3117Y2952D02*
X3069D01*
X3117Y5152D02*
X3069D01*
X3143Y1147D02*
Y1099D01*
Y2047D02*
Y2096D01*
Y3824D02*
Y3776D01*
Y4724D02*
Y4773D01*
X3170Y1175D02*
X3219D01*
X3170Y3852D02*
X3219D01*
X3193Y199D02*
Y151D01*
Y350D02*
Y399D01*
Y2399D02*
Y2351D01*
Y2550D02*
Y2599D01*
Y2876D02*
Y2828D01*
Y3027D02*
Y3076D01*
Y5076D02*
Y5028D01*
Y5227D02*
Y5276D01*
X3268Y275D02*
X3317D01*
X3268Y2475D02*
X3317D01*
X3268Y2952D02*
X3317D01*
X3268Y5152D02*
X3317D01*
X3353Y533D02*
Y484D01*
Y616D02*
Y665D01*
Y3210D02*
Y3162D01*
Y3293D02*
Y3342D01*
X3378Y734D02*
X3330D01*
X3378Y3411D02*
X3330D01*
X3384Y575D02*
X3432D01*
X3384Y3252D02*
X3432D01*
X3415Y717D02*
Y669D01*
Y3394D02*
Y3346D01*
X3451Y734D02*
X3500D01*
X3451Y3411D02*
X3500D01*
X3477Y2475D02*
X3525D01*
X3477Y5150D02*
X3525D01*
X3480Y1225D02*
X3432D01*
X3480Y3902D02*
X3432D01*
X3493Y1212D02*
Y1164D01*
Y1237D02*
Y1286D01*
Y3889D02*
Y3841D01*
Y3914D02*
Y3963D01*
X3505Y1225D02*
X3554D01*
X3505Y3902D02*
X3554D01*
X3543Y2347D02*
Y2299D01*
Y2402D02*
Y2451D01*
Y5024D02*
Y4976D01*
Y5079D02*
Y5128D01*
X3551Y725D02*
X3503D01*
X3551Y3402D02*
X3503D01*
X3593Y683D02*
Y634D01*
Y768D02*
Y816D01*
Y3360D02*
Y3311D01*
Y3445D02*
Y3494D01*
X3702Y1280D02*
X3654D01*
X3702Y3957D02*
X3654D01*
X3730Y1304D02*
Y1352D01*
Y3981D02*
Y4029D01*
X3862Y1300D02*
X3814D01*
X3862Y3977D02*
X3814D01*
X3884Y1304D02*
Y1352D01*
Y3981D02*
Y4030D01*
X3906Y1300D02*
X3955D01*
X3906Y3977D02*
X3955D01*
X4093Y1662D02*
Y1711D01*
Y4340D02*
Y4388D01*
X4155Y1508D02*
X4203D01*
X4155Y4185D02*
X4203D01*
X4177Y2391D02*
X4143Y2425D01*
X4177Y5068D02*
X4143Y5102D01*
X4209Y2391D02*
X4243Y2425D01*
X4209Y5068D02*
X4243Y5102D01*
X4303Y839D02*
X4269Y873D01*
X4303Y3516D02*
X4269Y3550D01*
X4332Y839D02*
X4366Y873D01*
X4332Y3516D02*
X4366Y3550D01*
X4455Y800D02*
Y751D01*
Y825D02*
Y873D01*
Y3477D02*
Y3428D01*
Y3502D02*
Y3550D01*
X4582Y642D02*
X4534D01*
X4582Y3319D02*
X4534D01*
X4618Y617D02*
Y569D01*
Y666D02*
Y714D01*
Y3294D02*
Y3246D01*
Y3343D02*
Y3392D01*
X4653Y642D02*
X4702D01*
X4653Y3319D02*
X4702D01*
X4809Y2118D02*
Y2166D01*
Y4795D02*
Y4843D01*
X4873Y2355D02*
X4839Y2321D01*
X4873Y5032D02*
X4839Y4998D01*
X4972Y2437D02*
X5020D01*
X4972Y5114D02*
X5020D01*
X5145Y2070D02*
Y2022D01*
Y2229D02*
Y2277D01*
Y4747D02*
Y4699D01*
Y4906D02*
Y4955D01*
X5268Y804D02*
Y756D01*
Y845D02*
Y893D01*
Y3482D02*
Y3433D01*
Y3522D02*
Y3570D01*
X5288Y825D02*
X5336D01*
X5288Y3502D02*
X5336D01*
X5517Y275D02*
X5469D01*
X5517Y2475D02*
X5469D01*
X5517Y2952D02*
X5469D01*
X5517Y5152D02*
X5469D01*
X5593Y199D02*
Y151D01*
Y350D02*
Y399D01*
Y2399D02*
Y2351D01*
Y2550D02*
Y2599D01*
Y2876D02*
Y2828D01*
Y3027D02*
Y3076D01*
Y5076D02*
Y5028D01*
Y5227D02*
Y5276D01*
X5615Y2025D02*
X5567D01*
X5615Y2225D02*
X5567D01*
X5615Y4702D02*
X5567D01*
X5615Y4902D02*
X5567D01*
X5643Y2252D02*
Y2301D01*
Y4929D02*
Y4978D01*
X5668Y275D02*
X5717D01*
X5668Y2475D02*
X5717D01*
X5668Y2952D02*
X5717D01*
X5668Y5152D02*
X5717D01*
X5670Y2225D02*
X5719D01*
X5670Y4902D02*
X5719D01*
X5989Y1175D02*
X5941D01*
X5989Y3852D02*
X5941D01*
X5991Y275D02*
X5943D01*
X5991Y2475D02*
X5943D01*
X5991Y2952D02*
X5943D01*
X5991Y5152D02*
X5943D01*
X6017Y1147D02*
Y1099D01*
Y2047D02*
Y2096D01*
Y3824D02*
Y3776D01*
Y4724D02*
Y4773D01*
X6044Y1175D02*
X6093D01*
X6044Y3852D02*
X6093D01*
X6067Y199D02*
Y151D01*
Y350D02*
Y399D01*
Y2399D02*
Y2351D01*
Y2550D02*
Y2599D01*
Y2876D02*
Y2828D01*
Y3027D02*
Y3076D01*
Y5076D02*
Y5028D01*
Y5227D02*
Y5276D01*
X6142Y275D02*
X6191D01*
X6142Y2475D02*
X6191D01*
X6142Y2952D02*
X6191D01*
X6142Y5152D02*
X6191D01*
X6227Y533D02*
Y484D01*
Y616D02*
Y665D01*
Y3210D02*
Y3162D01*
Y3293D02*
Y3342D01*
X6252Y734D02*
X6204D01*
X6252Y3411D02*
X6204D01*
X6258Y575D02*
X6306D01*
X6258Y3252D02*
X6306D01*
X6289Y717D02*
Y669D01*
Y3394D02*
Y3346D01*
X6325Y734D02*
X6374D01*
X6325Y3411D02*
X6374D01*
X6352Y2475D02*
X6400D01*
X6352Y5150D02*
X6400D01*
X6354Y1225D02*
X6306D01*
X6354Y3902D02*
X6306D01*
X6367Y1212D02*
Y1164D01*
Y1237D02*
Y1286D01*
Y3889D02*
Y3841D01*
Y3914D02*
Y3963D01*
X6379Y1225D02*
X6428D01*
X6379Y3902D02*
X6428D01*
X6417Y2347D02*
Y2299D01*
Y2402D02*
Y2451D01*
Y5024D02*
Y4976D01*
Y5079D02*
Y5128D01*
X6425Y725D02*
X6377D01*
X6425Y3402D02*
X6377D01*
X6467Y683D02*
Y634D01*
Y768D02*
Y816D01*
Y3360D02*
Y3311D01*
Y3445D02*
Y3494D01*
X6576Y1280D02*
X6528D01*
X6576Y3957D02*
X6528D01*
X6604Y1304D02*
Y1352D01*
Y3981D02*
Y4029D01*
X6736Y1300D02*
X6688D01*
X6736Y3977D02*
X6688D01*
X6758Y1304D02*
Y1352D01*
Y3981D02*
Y4030D01*
X6780Y1300D02*
X6829D01*
X6780Y3977D02*
X6829D01*
X6967Y1662D02*
Y1711D01*
Y4340D02*
Y4388D01*
X7029Y1508D02*
X7077D01*
X7029Y4185D02*
X7077D01*
X7051Y2391D02*
X7017Y2425D01*
X7051Y5068D02*
X7017Y5102D01*
X7083Y2391D02*
X7117Y2425D01*
X7083Y5068D02*
X7117Y5102D01*
X7177Y839D02*
X7143Y873D01*
X7177Y3516D02*
X7143Y3550D01*
X7206Y839D02*
X7240Y873D01*
X7206Y3516D02*
X7240Y3550D01*
X7329Y800D02*
Y751D01*
Y825D02*
Y873D01*
Y3477D02*
Y3428D01*
Y3502D02*
Y3550D01*
X7456Y642D02*
X7408D01*
X7456Y3319D02*
X7408D01*
X7492Y617D02*
Y569D01*
Y666D02*
Y714D01*
Y3294D02*
Y3246D01*
Y3343D02*
Y3392D01*
X7527Y642D02*
X7576D01*
X7527Y3319D02*
X7576D01*
X7683Y2118D02*
Y2166D01*
Y4795D02*
Y4843D01*
X7747Y2355D02*
X7713Y2321D01*
X7747Y5032D02*
X7713Y4998D01*
X7846Y2437D02*
X7894D01*
X7846Y5114D02*
X7894D01*
X8019Y2070D02*
Y2022D01*
Y2229D02*
Y2277D01*
Y4747D02*
Y4699D01*
Y4906D02*
Y4955D01*
X8142Y804D02*
Y756D01*
Y845D02*
Y893D01*
Y3482D02*
Y3433D01*
Y3522D02*
Y3570D01*
X8162Y825D02*
X8210D01*
X8162Y3502D02*
X8210D01*
X8391Y275D02*
X8343D01*
X8391Y2475D02*
X8343D01*
X8391Y2952D02*
X8343D01*
X8391Y5152D02*
X8343D01*
X8467Y199D02*
Y151D01*
Y350D02*
Y399D01*
Y2399D02*
Y2351D01*
Y2550D02*
Y2599D01*
Y2876D02*
Y2828D01*
Y3027D02*
Y3076D01*
Y5076D02*
Y5028D01*
Y5227D02*
Y5276D01*
X8489Y2025D02*
X8441D01*
X8489Y2225D02*
X8441D01*
X8489Y4702D02*
X8441D01*
X8489Y4902D02*
X8441D01*
X8517Y2252D02*
Y2301D01*
Y4929D02*
Y4978D01*
X8542Y275D02*
X8591D01*
X8542Y2475D02*
X8591D01*
X8542Y2952D02*
X8591D01*
X8542Y5152D02*
X8591D01*
X8544Y2225D02*
X8593D01*
X8544Y4902D02*
X8593D01*
D02*
D150*
X119Y2675D02*
Y75D01*
X2919*
Y2675*
X119*
X211Y1832D02*
X181Y1862D01*
G75*
G02X170Y1887I25J25*
G01*
Y2127*
G75*
G02X181Y2153I36*
G01*
X408Y2380*
Y2400*
G75*
G02X418Y2425I36*
G01*
X543Y2550*
G75*
G02X569Y2561I25J-25*
G01*
X1356*
G75*
G02X1382Y2550J-36*
G01*
X1507Y2425*
G75*
G02X1517Y2400I-25J-25*
G01*
Y2230*
G75*
G02X1507Y2204I-36*
G01*
X1489Y2187*
G75*
G02X1475Y2178I-25J25*
G01*
G75*
G02X1522Y2125I-6J-53*
G01*
G75*
G02X1505Y2085I-54*
G01*
Y2074*
X1509*
X1517*
X1756Y2313*
Y2438*
X1781*
Y2467*
G75*
G02X1792Y2494I38J0*
G01*
X1837Y2539*
G75*
G02X1864Y2550I27J-27*
G01*
X2244*
G75*
G02X2270Y2539I0J-38*
G01*
X2408Y2401*
G75*
G02X2419Y2375I-27J-27*
G01*
Y1920*
G75*
G02X2408Y1893I-38J0*
G01*
X2363Y1848*
G75*
G02X2336Y1837I-27J27*
G01*
X2254*
Y1835*
X2154*
Y1910*
Y1915*
Y1920*
G75*
G02X2143Y1915I-14J17*
G01*
Y1915*
Y1910*
Y1835*
X2050*
Y1815*
X1990*
X1948*
X1900*
Y1468*
X1999Y1369*
G75*
G02X2002Y1369I-9J-45*
G01*
X2046*
Y1383*
X2141*
Y1316*
Y1283*
Y1265*
X2212Y1195*
Y1198*
X2412*
X2425*
X2612*
X2625*
X2795*
Y1201*
X2625*
X2612*
X2425*
X2412*
X2212*
Y1415*
X2261*
Y1454*
Y1476*
X2063*
X2051Y1464*
X2011*
X1983Y1492*
Y1532*
X2011Y1560*
X2051*
X2063Y1548*
X2261*
Y1562*
X2376*
Y1495*
Y1454*
Y1415*
X2412*
X2425*
X2461*
Y1454*
Y1495*
Y1523*
X2313Y1689*
X2299*
X2271Y1717*
Y1757*
X2299Y1785*
X2339*
X2367Y1757*
Y1737*
X2523Y1562*
X2576*
Y1495*
Y1454*
Y1415*
X2612*
X2625*
X2661*
Y1454*
Y1495*
Y1562*
X2706*
X2725Y1580*
Y1862*
X2706*
Y1988*
X2795*
Y2047*
X2781Y2062*
X2743*
X2706Y2099*
Y2151*
X2743Y2188*
X2795*
X2832Y2151*
Y2113*
X2857Y2088*
G75*
G02X2867Y2062I-25J-25*
G01*
Y1019*
X2879Y1007*
Y967*
X2851Y939*
X2811*
X2783Y967*
Y985*
X2625*
X2612*
X2425*
X2412*
X2212*
Y1093*
X2088Y1216*
X2058*
Y1216*
Y1184*
Y1166*
Y1134*
Y1116*
Y1111*
X2079*
G75*
G02X2172Y1075I40J-36*
G01*
G75*
G02X2079Y1039I-54*
G01*
X2058*
Y1034*
Y1011*
G75*
G02X2067Y987I-27J-24*
G01*
Y874*
G75*
G02X2144Y849I27J-49*
G01*
G75*
G02X2244I50J-25*
G01*
G75*
G02X2349Y825I50J-25*
G01*
G75*
G02X2244Y800I-56*
G01*
G75*
G02X2144I-50J25*
G01*
G75*
G02X2067Y776I-50J25*
G01*
Y775*
G75*
G02X2094Y749I-24J-51*
G01*
G75*
G02X2194I50J-25*
G01*
G75*
G02X2294I50J-25*
G01*
G75*
G02X2399Y725I50J-25*
G01*
G75*
G02X2294Y700I-56*
G01*
G75*
G02X2239Y669I-50J25*
G01*
X2233Y663*
G75*
G02X2233Y662I-52J-1*
G01*
G75*
G02X2144Y626I-52*
G01*
X2020*
X1957Y563*
G75*
G02X2090Y475I37J-89*
G01*
G75*
G02X1906Y436I-96*
G01*
X1872Y402*
G75*
G02X1872Y400I-54J-3*
G01*
G75*
G02X1765I-54*
G01*
G75*
G02X1821Y453I54*
G01*
X1845Y477*
Y538*
G75*
G02X1856Y564I36*
G01*
X1979Y688*
G75*
G02X1995Y697I25J-25*
G01*
G75*
G02X1988Y725I48J28*
G01*
G75*
G02X1995Y752I56*
G01*
Y972*
X1984Y984*
X1922*
Y1012*
X1909Y999*
G75*
G02X1883Y989I-25J25*
G01*
X1816*
Y984*
X1680*
Y1034*
Y1039*
X1658*
G75*
G02X1649Y1031I-40J36*
G01*
G75*
G02X1644Y1024I-31J19*
G01*
X1629Y1009*
Y992*
X1601Y964*
X1567*
Y825*
G75*
G02X1557Y799I-36*
G01*
X1475Y717*
G75*
G02X1431Y681I-43J8*
G01*
X1428*
G75*
G02X1401Y669I-34J44*
G01*
X1400Y669*
Y496*
G75*
G02X1590Y475I94J-22*
G01*
G75*
G02X1400Y453I-96*
G01*
Y309*
X1479Y248*
X1489*
X1517Y219*
Y180*
X1489Y152*
X1449*
X1421Y180*
Y181*
X1341Y243*
X1044*
G75*
G02X1011Y258J44*
G01*
X811Y483*
G75*
G02X800Y512I33J29*
G01*
Y769*
X723Y846*
X641*
Y881*
X613*
Y877*
Y864*
Y773*
X469*
Y781*
X445*
G75*
G02X421I-12J44*
G01*
X413*
Y652*
X425*
Y497*
X292*
Y531*
X281*
G75*
G02X186Y575I-37J44*
G01*
G75*
G02X281Y619I58*
G01*
X292*
Y652*
X325*
Y726*
X225*
Y923*
X368*
Y870*
G75*
G02X381Y869I1J-46*
G01*
X387*
Y1675*
G75*
G02X400Y1707I46J0*
G01*
X473Y1779*
Y1881*
X430Y1924*
X427Y1920*
Y1901*
X409Y1883*
X427*
Y1767*
X311*
Y1785*
X293Y1767*
X245*
X211Y1801*
Y1832*
X217Y1612D02*
X206D01*
Y1738*
X332*
Y1612*
X321*
X332Y1601*
Y1549*
X308Y1525*
X332Y1501*
Y1449*
X308Y1425*
X332Y1401*
Y1349*
X308Y1325*
X332Y1301*
Y1249*
X295Y1212*
X243*
X206Y1249*
Y1301*
X230Y1325*
X206Y1349*
Y1401*
X230Y1425*
X206Y1449*
Y1501*
X230Y1525*
X206Y1549*
Y1601*
X217Y1612*
X1673Y764D02*
X1636D01*
X1608Y792*
Y832*
X1636Y860*
X1673*
Y868*
X1815*
Y748*
X1673*
Y764*
X2348Y475D02*
G75*
G02X2540I96D01*
G01*
G75*
G02X2348I-96*
G01*
X119Y1356D02*
G36*
Y808D01*
X225*
Y923*
X368*
Y870*
G75*
G02X381Y869I1J-46*
G01*
X387*
Y1356*
X332*
Y1349*
X308Y1325*
X332Y1301*
Y1249*
X295Y1212*
X243*
X206Y1249*
Y1301*
X230Y1325*
X206Y1349*
Y1356*
X119*
G37*
X206D02*
G36*
Y1401D01*
X230Y1425*
X206Y1449*
Y1501*
X230Y1525*
X206Y1549*
Y1601*
X217Y1612*
X206*
Y1738*
X332*
Y1612*
X321*
X332Y1601*
Y1549*
X308Y1525*
X332Y1501*
Y1449*
X308Y1425*
X332Y1401*
Y1356*
X387*
Y1675*
G75*
G02X400Y1707I46J0*
G01*
X473Y1779*
Y1881*
X430Y1924*
X427Y1920*
Y1901*
X409Y1883*
X427*
Y1767*
X311*
Y1785*
X293Y1767*
X245*
X211Y1801*
Y1832*
X181Y1862*
G75*
G02X170Y1887I25J25*
G01*
Y2127*
G75*
G02X181Y2153I36*
G01*
X408Y2380*
Y2400*
G75*
G02X418Y2425I36*
G01*
X543Y2550*
G75*
G02X569Y2561I25J-25*
G01*
X1356*
G75*
G02X1382Y2550J-36*
G01*
X1507Y2425*
G75*
G02X1517Y2400I-25J-25*
G01*
Y2230*
G75*
G02X1507Y2204I-36*
G01*
X1489Y2187*
G75*
G02X1475Y2178I-25J25*
G01*
G75*
G02X1505Y2085I-6J-53*
G01*
Y2074*
X1517*
X1756Y2313*
Y2438*
X1781*
Y2467*
G75*
G02X1792Y2494I38J0*
G01*
X1837Y2539*
G75*
G02X1864Y2550I27J-27*
G01*
X2244*
G75*
G02X2270Y2539I0J-38*
G01*
X2408Y2401*
G75*
G02X2419Y2375I-27J-27*
G01*
Y1920*
G75*
G02X2408Y1893I-38J0*
G01*
X2363Y1848*
G75*
G02X2336Y1837I-27J27*
G01*
X2254*
Y1835*
X2154*
Y1920*
G75*
G02X2143Y1915I-14J17*
G01*
Y1835*
X2050*
Y1815*
X1900*
Y1468*
X1999Y1369*
G75*
G02X2002Y1369I-9J-45*
G01*
X2046*
Y1383*
X2141*
Y1265*
X2212Y1195*
Y1198*
X2795*
Y1201*
X2212*
Y1415*
X2261*
Y1476*
X2063*
X2051Y1464*
X2011*
X1983Y1492*
Y1532*
X2011Y1560*
X2051*
X2063Y1548*
X2261*
Y1562*
X2376*
Y1415*
X2461*
Y1523*
X2313Y1689*
X2299*
X2271Y1717*
Y1757*
X2299Y1785*
X2339*
X2367Y1757*
Y1737*
X2523Y1562*
X2576*
Y1415*
X2661*
Y1562*
X2706*
X2725Y1580*
Y1862*
X2706*
Y1988*
X2795*
Y2047*
X2781Y2062*
X2743*
X2706Y2099*
Y2151*
X2743Y2188*
X2795*
X2832Y2151*
Y2113*
X2857Y2088*
G75*
G02X2867Y2062I-25J-25*
G01*
Y1356*
X2919*
Y2675*
X119*
Y1356*
X206*
G37*
X2867D02*
G36*
Y1019D01*
X2879Y1007*
Y967*
X2851Y939*
X2811*
X2783Y967*
Y985*
X2212*
Y1093*
X2088Y1216*
X2058*
Y1111*
X2079*
G75*
G02X2172Y1075I40J-36*
G01*
G75*
G02X2079Y1039I-54*
G01*
X2058*
Y1011*
G75*
G02X2067Y987I-27J-24*
G01*
Y874*
G75*
G02X2144Y849I27J-49*
G01*
G75*
G02X2244I50J-25*
G01*
G75*
G02X2349Y825I50J-25*
G01*
G75*
G02X2347Y808I-56*
G01*
X2919*
Y1356*
X2867*
G37*
X119Y808D02*
G36*
Y475D01*
X818*
X811Y483*
G75*
G02X800Y512I33J29*
G01*
Y769*
X723Y846*
X641*
Y881*
X613*
Y773*
X469*
Y781*
X445*
G75*
G02X421I-12J44*
G01*
X413*
Y652*
X425*
Y497*
X292*
Y531*
X281*
G75*
G02X186Y575I-37J44*
G01*
G75*
G02X281Y619I58*
G01*
X292*
Y652*
X325*
Y726*
X225*
Y808*
X119*
G37*
X1563D02*
G36*
G75*
G02X1557Y799I-32J17D01*
G01*
X1475Y717*
G75*
G02X1431Y681I-43J8*
G01*
X1428*
G75*
G02X1401Y669I-34J44*
G01*
X1400Y669*
Y496*
G75*
G02X1590Y475I94J-22*
G01*
G75*
G02X1400Y453I-96*
G01*
Y309*
X1479Y248*
X1489*
X1517Y219*
Y180*
X1489Y152*
X1449*
X1421Y180*
Y181*
X1341Y243*
X1044*
G75*
G02X1011Y258J44*
G01*
X818Y475*
X119*
Y75*
X2919*
Y475*
X2540*
G75*
G02X2348I-96*
G01*
X2090*
G75*
G02X1906Y436I-96*
G01*
X1872Y402*
G75*
G02X1872Y400I-54J-3*
G01*
G75*
G02X1765I-54*
G01*
G75*
G02X1821Y453I54*
G01*
X1845Y477*
Y538*
G75*
G02X1856Y564I36*
G01*
X1979Y688*
G75*
G02X1995Y697I25J-25*
G01*
G75*
G02X1995Y752I48J28*
G01*
Y808*
X1815*
Y748*
X1673*
Y764*
X1636*
X1608Y792*
Y808*
X1563*
G37*
X1608D02*
G36*
Y832D01*
X1636Y860*
X1673*
Y868*
X1815*
Y808*
X1995*
Y972*
X1984Y984*
X1922*
Y1012*
X1909Y999*
G75*
G02X1883Y989I-25J25*
G01*
X1816*
Y984*
X1680*
Y1039*
X1658*
G75*
G02X1649Y1031I-40J36*
G01*
G75*
G02X1644Y1024I-31J19*
G01*
X1629Y1009*
Y992*
X1601Y964*
X1567*
Y825*
G75*
G02X1563Y808I-36*
G01*
X1608*
G37*
X2347D02*
G36*
G75*
G02X2244Y800I-53J17D01*
G01*
G75*
G02X2144I-50J25*
G01*
G75*
G02X2067Y776I-50J25*
G01*
Y775*
G75*
G02X2094Y749I-24J-51*
G01*
G75*
G02X2194I50J-25*
G01*
G75*
G02X2294I50J-25*
G01*
G75*
G02X2399Y725I50J-25*
G01*
G75*
G02X2294Y700I-56*
G01*
G75*
G02X2239Y669I-50J25*
G01*
X2233Y663*
G75*
G02X2233Y662I-52J-1*
G01*
G75*
G02X2144Y626I-52*
G01*
X2020*
X1957Y563*
G75*
G02X2090Y475I37J-89*
G01*
X2348*
G75*
G02X2540I96*
G01*
X2919*
Y808*
X2347*
G37*
X119Y5352D02*
Y2752D01*
X2919*
Y5352*
X119*
X195Y2828D02*
Y3076D01*
X443*
Y2828*
X195*
X211Y4509D02*
X181Y4539D01*
G75*
G02X170Y4564I25J25*
G01*
Y4804*
G75*
G02X181Y4830I36*
G01*
X328Y4977*
X379Y5028*
X195*
Y5276*
X443*
Y5127*
X543Y5227*
G75*
G02X569Y5238I25J-25*
G01*
X1356*
G75*
G02X1382Y5227J-36*
G01*
X1507Y5102*
G75*
G02X1517Y5077I-25J-25*
G01*
Y4907*
G75*
G02X1507Y4882I-36*
G01*
X1489Y4864*
G75*
G02X1475Y4855I-25J25*
G01*
G75*
G02X1522Y4802I-6J-53*
G01*
G75*
G02X1505Y4762I-54*
G01*
Y4751*
X1509*
X1517*
X1756Y4990*
Y5115*
X1781*
Y5144*
G75*
G02X1792Y5171I38*
G01*
X1837Y5216*
G75*
G02X1864Y5227I27J-27*
G01*
X2244*
G75*
G02X2270Y5216J-38*
G01*
X2408Y5078*
G75*
G02X2419Y5052I-27J-27*
G01*
Y4597*
G75*
G02X2408Y4570I-38J0*
G01*
X2363Y4525*
G75*
G02X2336Y4514I-27J27*
G01*
X2254*
Y4512*
X2154*
Y4537*
X2143*
Y4512*
X2050*
Y4492*
X1990*
X1948*
X1900*
Y4145*
X1999Y4047*
G75*
G02X2002Y4046I-9J-45*
G01*
X2046*
Y4060*
X2141*
Y3993*
Y3961*
Y3943*
X2212Y3872*
Y3875*
X2412*
X2425*
X2612*
X2625*
X2794*
Y3878*
X2625*
X2612*
X2425*
X2412*
X2212*
Y4092*
X2261*
Y4132*
Y4153*
X2063*
X2051Y4141*
X2011*
X1983Y4169*
Y4209*
X2011Y4237*
X2051*
X2063Y4225*
X2261*
Y4239*
X2376*
Y4172*
Y4132*
Y4092*
X2412*
X2425*
X2461*
Y4132*
Y4172*
Y4200*
X2313Y4366*
X2299*
X2271Y4394*
Y4434*
X2299Y4462*
X2339*
X2367Y4434*
Y4414*
X2523Y4239*
X2576*
Y4172*
Y4132*
Y4092*
X2612*
X2625*
X2661*
Y4132*
Y4172*
Y4239*
X2706*
X2725Y4258*
Y4539*
X2706*
Y4657*
X2693Y4670*
Y4733*
X2720Y4761*
X2706Y4776*
Y4828*
X2720Y4843*
X2693Y4870*
Y4933*
X2737Y4978*
X2800*
X2845Y4933*
Y4870*
X2817Y4843*
X2832Y4828*
Y4792*
X2858Y4766*
G75*
G02X2869Y4739I-27J-27*
G01*
Y3695*
X2879Y3684*
Y3644*
X2851Y3616*
X2811*
X2783Y3644*
Y3662*
X2625*
X2612*
X2425*
X2412*
X2212*
Y3770*
X2088Y3894*
X2058*
Y3893*
Y3861*
Y3843*
Y3811*
Y3793*
Y3788*
X2079*
G75*
G02X2172Y3752I40J-36*
G01*
G75*
G02X2079Y3716I-54*
G01*
X2058*
Y3711*
Y3689*
G75*
G02X2067Y3664I-27J-24*
G01*
Y3551*
G75*
G02X2144Y3526I27J-49*
G01*
G75*
G02X2244I50J-25*
G01*
G75*
G02X2336Y3538I50J-25*
G01*
G75*
G02X2462Y3502I58J-37*
G01*
G75*
G02X2390Y3433I-69*
G01*
G75*
G02X2399Y3402I-46J-31*
G01*
G75*
G02X2294Y3377I-56*
G01*
G75*
G02X2239Y3346I-50J25*
G01*
X2233Y3340*
G75*
G02X2233Y3339I-52J-1*
G01*
G75*
G02X2144Y3303I-52*
G01*
X2020*
X1957Y3240*
G75*
G02X2090Y3152I37J-89*
G01*
G75*
G02X1906Y3113I-96*
G01*
X1872Y3079*
G75*
G02X1872Y3077I-54J-3*
G01*
G75*
G02X1765I-54*
G01*
G75*
G02X1821Y3130I54*
G01*
X1845Y3154*
Y3216*
G75*
G02X1856Y3241I36*
G01*
X1979Y3365*
G75*
G02X1995Y3374I25J-25*
G01*
G75*
G02X1988Y3402I48J28*
G01*
G75*
G02X1995Y3429I56*
G01*
Y3649*
X1984Y3661*
X1922*
Y3689*
X1909Y3676*
G75*
G02X1883Y3666I-25J25*
G01*
X1816*
Y3661*
X1680*
Y3711*
Y3716*
X1658*
G75*
G02X1649Y3708I-40J36*
G01*
G75*
G02X1644Y3701I-31J19*
G01*
X1629Y3686*
Y3669*
X1601Y3641*
X1567*
Y3550*
X1606*
X1628Y3529*
X1636Y3537*
X1673*
Y3545*
X1815*
Y3425*
X1673*
Y3441*
X1636*
X1628Y3450*
X1606Y3428*
X1556*
X1532Y3452*
X1475Y3394*
G75*
G02X1431Y3358I-43J8*
G01*
X1428*
G75*
G02X1401Y3346I-34J44*
G01*
X1400Y3346*
Y3173*
G75*
G02X1590Y3152I94J-22*
G01*
G75*
G02X1400Y3130I-96*
G01*
Y2986*
X1479Y2925*
X1489*
X1517Y2897*
Y2857*
X1489Y2829*
X1449*
X1421Y2857*
Y2858*
X1341Y2920*
X1044*
G75*
G02X1011Y2935J44*
G01*
X811Y3160*
G75*
G02X800Y3189I33J29*
G01*
Y3311*
X628*
Y3494*
X752*
X723Y3523*
X641*
Y3558*
X613*
Y3554*
Y3541*
Y3476*
X626*
Y3346*
X456*
Y3458*
X445*
G75*
G02X421I-12J44*
G01*
X413*
Y3342*
X558*
Y3162*
X399*
Y3175*
X292*
Y3208*
X281*
G75*
G02X186Y3252I-37J44*
G01*
G75*
G02X281Y3296I58*
G01*
X292*
Y3329*
X325*
Y3403*
X225*
Y3601*
X368*
Y3547*
G75*
G02X381Y3546I1J-46*
G01*
X387*
Y4352*
G75*
G02X400Y4384I46*
G01*
X473Y4457*
Y4558*
X430Y4601*
X427Y4598*
Y4578*
X409Y4560*
X427*
Y4444*
X311*
Y4462*
X293Y4444*
X245*
X211Y4478*
Y4509*
X217Y4289D02*
X206D01*
Y4415*
X332*
Y4289*
X321*
X332Y4278*
Y4226*
X308Y4202*
X332Y4178*
Y4126*
X308Y4102*
X332Y4078*
Y4026*
X308Y4002*
X332Y3978*
Y3926*
X317Y3911*
X345Y3883*
Y3820*
X300Y3776*
X237*
X193Y3820*
Y3883*
X220Y3911*
X206Y3926*
Y3978*
X230Y4002*
X206Y4026*
Y4078*
X230Y4102*
X206Y4126*
Y4178*
X230Y4202*
X206Y4226*
Y4278*
X217Y4289*
X1828Y3246D02*
X1660D01*
Y3392*
X1828*
Y3246*
X2348Y3152D02*
G75*
G02X2540I96D01*
G01*
G75*
G02X2348I-96*
G01*
X2595Y2828D02*
Y3076D01*
X2843*
Y2828*
X2595*
Y5028D02*
Y5276D01*
X2843*
Y5028*
X2595*
X119Y2952D02*
G36*
Y2752D01*
X2919*
Y2952*
X2843*
Y2828*
X2595*
Y2952*
X1444*
X1479Y2925*
X1489*
X1517Y2897*
Y2857*
X1489Y2829*
X1449*
X1421Y2857*
Y2858*
X1341Y2920*
X1044*
G75*
G02X1011Y2935J44*
G01*
X996Y2952*
X443*
Y2828*
X195*
Y2952*
X119*
G37*
X195D02*
G36*
Y3076D01*
X443*
Y2952*
X996*
X818Y3152*
X119*
Y2952*
X195*
G37*
X2595D02*
G36*
Y3076D01*
X2843*
Y2952*
X2919*
Y3152*
X2540*
G75*
G02X2348I-96*
G01*
X2090*
G75*
G02X1906Y3113I-96*
G01*
X1872Y3079*
G75*
G02X1872Y3077I-54J-3*
G01*
G75*
G02X1765I-54*
G01*
G75*
G02X1821Y3130I54*
G01*
X1845Y3154*
Y3216*
G75*
G02X1856Y3241I36*
G01*
X1933Y3319*
X1828*
Y3246*
X1660*
Y3319*
X1400*
Y3173*
G75*
G02X1590Y3152I94J-22*
G01*
G75*
G02X1400Y3130I-96*
G01*
Y2986*
X1444Y2952*
X2595*
G37*
X119Y4095D02*
G36*
Y3319D01*
X292*
Y3329*
X325*
Y3403*
X225*
Y3601*
X368*
Y3547*
G75*
G02X381Y3546I1J-46*
G01*
X387*
Y4095*
X314*
X332Y4078*
Y4026*
X308Y4002*
X332Y3978*
Y3926*
X317Y3911*
X345Y3883*
Y3820*
X300Y3776*
X237*
X193Y3820*
Y3883*
X220Y3911*
X206Y3926*
Y3978*
X230Y4002*
X206Y4026*
Y4078*
X223Y4095*
X119*
G37*
X223D02*
G36*
X230Y4102D01*
X206Y4126*
Y4178*
X230Y4202*
X206Y4226*
Y4278*
X217Y4289*
X206*
Y4415*
X332*
Y4289*
X321*
X332Y4278*
Y4226*
X308Y4202*
X332Y4178*
Y4126*
X308Y4102*
X314Y4095*
X387*
Y4352*
G75*
G02X400Y4384I46*
G01*
X473Y4457*
Y4558*
X430Y4601*
X427Y4598*
Y4578*
X409Y4560*
X427*
Y4444*
X311*
Y4462*
X293Y4444*
X245*
X211Y4478*
Y4509*
X181Y4539*
G75*
G02X170Y4564I25J25*
G01*
Y4804*
G75*
G02X181Y4830I36*
G01*
X328Y4977*
X379Y5028*
X195*
Y5152*
X119*
Y4095*
X223*
G37*
X2869D02*
G36*
Y3695D01*
X2879Y3684*
Y3644*
X2851Y3616*
X2811*
X2783Y3644*
Y3662*
X2212*
Y3770*
X2088Y3894*
X2058*
Y3788*
X2079*
G75*
G02X2172Y3752I40J-36*
G01*
G75*
G02X2079Y3716I-54*
G01*
X2058*
Y3689*
G75*
G02X2067Y3664I-27J-24*
G01*
Y3551*
G75*
G02X2144Y3526I27J-49*
G01*
G75*
G02X2244I50J-25*
G01*
G75*
G02X2336Y3538I50J-25*
G01*
G75*
G02X2462Y3502I58J-37*
G01*
G75*
G02X2390Y3433I-69*
G01*
G75*
G02X2399Y3402I-46J-31*
G01*
G75*
G02X2294Y3377I-56*
G01*
G75*
G02X2239Y3346I-50J25*
G01*
X2233Y3340*
G75*
G02X2233Y3339I-52J-1*
G01*
G75*
G02X2229Y3319I-52J0*
G01*
X2919*
Y4095*
X2869*
G37*
X2919D02*
G36*
Y5152D01*
X2843*
Y5028*
X2595*
Y5152*
X2334*
X2408Y5078*
G75*
G02X2419Y5052I-27J-27*
G01*
Y4597*
G75*
G02X2408Y4570I-38J0*
G01*
X2363Y4525*
G75*
G02X2336Y4514I-27J27*
G01*
X2254*
Y4512*
X2154*
Y4537*
X2143*
Y4512*
X2050*
Y4492*
X1900*
Y4145*
X1999Y4047*
G75*
G02X2002Y4046I-9J-45*
G01*
X2046*
Y4060*
X2141*
Y3943*
X2212Y3872*
Y3875*
X2794*
Y3878*
X2212*
Y4092*
X2261*
Y4153*
X2063*
X2051Y4141*
X2011*
X1983Y4169*
Y4209*
X2011Y4237*
X2051*
X2063Y4225*
X2261*
Y4239*
X2376*
Y4092*
X2461*
Y4200*
X2313Y4366*
X2299*
X2271Y4394*
Y4434*
X2299Y4462*
X2339*
X2367Y4434*
Y4414*
X2523Y4239*
X2576*
Y4092*
X2661*
Y4239*
X2706*
X2725Y4258*
Y4539*
X2706*
Y4657*
X2693Y4670*
Y4733*
X2720Y4761*
X2706Y4776*
Y4828*
X2720Y4843*
X2693Y4870*
Y4933*
X2737Y4978*
X2800*
X2845Y4933*
Y4870*
X2817Y4843*
X2832Y4828*
Y4792*
X2858Y4766*
G75*
G02X2869Y4739I-27J-27*
G01*
Y4095*
X2919*
G37*
X119Y3319D02*
G36*
Y3152D01*
X818*
X811Y3160*
G75*
G02X800Y3189I33J29*
G01*
Y3311*
X628*
Y3494*
X752*
X723Y3523*
X641*
Y3558*
X613*
Y3476*
X626*
Y3346*
X456*
Y3458*
X445*
G75*
G02X421I-12J44*
G01*
X413*
Y3342*
X558*
Y3162*
X399*
Y3175*
X292*
Y3208*
X281*
G75*
G02X186Y3252I-37J44*
G01*
G75*
G02X281Y3296I58*
G01*
X292*
Y3319*
X119*
G37*
X1660D02*
G36*
Y3392D01*
X1828*
Y3319*
X1933*
X1979Y3365*
G75*
G02X1995Y3374I25J-25*
G01*
G75*
G02X1995Y3429I48J28*
G01*
Y3649*
X1984Y3661*
X1922*
Y3689*
X1909Y3676*
G75*
G02X1883Y3666I-25J25*
G01*
X1816*
Y3661*
X1680*
Y3716*
X1658*
G75*
G02X1649Y3708I-40J36*
G01*
G75*
G02X1644Y3701I-31J19*
G01*
X1629Y3686*
Y3669*
X1601Y3641*
X1567*
Y3550*
X1606*
X1628Y3529*
X1636Y3537*
X1673*
Y3545*
X1815*
Y3425*
X1673*
Y3441*
X1636*
X1628Y3450*
X1606Y3428*
X1556*
X1532Y3452*
X1475Y3394*
G75*
G02X1431Y3358I-43J8*
G01*
X1428*
G75*
G02X1401Y3346I-34J44*
G01*
X1400Y3346*
Y3319*
X1660*
G37*
X2229D02*
G36*
G75*
G02X2144Y3303I-48J21D01*
G01*
X2020*
X1957Y3240*
G75*
G02X2090Y3152I37J-89*
G01*
X2348*
G75*
G02X2540I96*
G01*
X2919*
Y3319*
X2229*
G37*
X195Y5152D02*
G36*
Y5276D01*
X443*
Y5127*
X543Y5227*
G75*
G02X569Y5238I25J-25*
G01*
X1356*
G75*
G02X1382Y5227J-36*
G01*
X1507Y5102*
G75*
G02X1517Y5077I-25J-25*
G01*
Y4907*
G75*
G02X1507Y4882I-36*
G01*
X1489Y4864*
G75*
G02X1475Y4855I-25J25*
G01*
G75*
G02X1505Y4762I-6J-53*
G01*
Y4751*
X1517*
X1756Y4990*
Y5115*
X1781*
Y5144*
G75*
G02X1792Y5171I38*
G01*
X1837Y5216*
G75*
G02X1864Y5227I27J-27*
G01*
X2244*
G75*
G02X2270Y5216J-38*
G01*
X2334Y5152*
X2595*
Y5276*
X2843*
Y5152*
X2919*
Y5352*
X119*
Y5152*
X195*
G37*
X242Y1980D02*
X245Y1983D01*
X293*
X319Y1957*
X337Y1975*
X311Y2001*
Y2049*
X345Y2083*
X393*
X427Y2049*
Y2045*
X525Y2143*
Y2330*
X506Y2349*
Y2401*
X543Y2438*
X595*
X632Y2401*
Y2349*
X613Y2330*
Y2125*
G75*
G02X600Y2093I-44J0*
G01*
X495Y1988*
X551Y1932*
G75*
G02X564Y1900I-32J-32*
G01*
Y1761*
G75*
G02X551Y1728I-46J0*
G01*
X478Y1656*
Y968*
X508*
Y980*
G75*
G02X486Y1025I36J45*
G01*
G75*
G02X601I58*
G01*
G75*
G02X580Y980I-58*
G01*
Y969*
X641*
Y1002*
X675*
Y1012*
G75*
G02X688Y1043I44J0*
G01*
X793Y1148*
Y1229*
X905*
X908Y1231*
Y1250*
G75*
G02X944Y1286I36*
G01*
X953*
Y1289*
X1068*
Y1226*
G75*
G02X1069Y1225I-24J-27*
G01*
X1094Y1200*
G75*
G02X1105Y1175I-25J-25*
G01*
Y1102*
X1269Y938*
G75*
G02X1280Y912I-25J-25*
G01*
Y867*
G75*
G02X1294Y849I-36J-43*
G01*
G75*
G02X1399Y825I50J-25*
G01*
G75*
G02X1294Y800I-56*
G01*
G75*
G02X1194I-50J25*
G01*
G75*
G02X1088Y825I-50J25*
G01*
G75*
G02X1194Y849I56*
G01*
G75*
G02X1208Y867I50J-25*
G01*
Y897*
X1054Y1051*
X976*
G75*
G02X886Y1110I-44J31*
G01*
X879*
X771Y1002*
X796*
Y897*
X875Y818*
G75*
G02X888Y787I-31J-31*
G01*
Y768*
G75*
G02X958Y761I31J-44*
G01*
X1051*
G75*
G02X1144Y749I43J-36*
G01*
G75*
G02X1244I50J-25*
G01*
G75*
G02X1344I50J-25*
G01*
G75*
G02X1426Y770I50J-25*
G01*
X1495Y840*
Y1127*
X1461*
X1436Y1152*
X1422*
X1442Y1132*
Y1092*
X1414Y1064*
X1374*
X1365Y1073*
G75*
G02X1279Y1064I-46J27*
G01*
X1231*
G75*
G02X1195Y1100J36*
G01*
Y1110*
X1169*
Y1329*
G75*
G02X1185Y1391I49J21*
G01*
X1176*
Y1388*
X1104*
Y1355*
X1076Y1327*
X1036*
X1008Y1355*
Y1394*
X1020Y1406*
Y1488*
X992Y1459*
Y1442*
X964Y1414*
X924*
X917Y1421*
Y1405*
X889Y1377*
X849*
X821Y1405*
Y1444*
X833Y1456*
Y1575*
X828*
Y1662*
X820*
X806Y1649*
Y1455*
X817Y1444*
Y1405*
X789Y1377*
X756*
Y1355*
X767Y1344*
Y1305*
X739Y1277*
X699*
X671Y1305*
Y1344*
X681Y1355*
Y1709*
G75*
G02X692Y1736I38J0*
G01*
X720Y1764*
G75*
G02X747Y1775I27J-27*
G01*
X1106*
G75*
G02X1133Y1764I0J-38*
G01*
X1183Y1714*
G75*
G02X1192Y1698I-27J-27*
G01*
X1209*
Y1575*
X1155*
Y1562*
X1176*
Y1491*
X1316*
Y1486*
X1402*
X1396Y1492*
Y1509*
X1365Y1540*
G75*
G02X1266Y1575I-46J27*
G01*
X1228*
Y1698*
X1383*
Y1709*
G75*
G02X1393Y1735I36*
G01*
X1421Y1763*
G75*
G02X1447Y1773I25J-25*
G01*
X1556*
X1563Y1780*
X1393Y1949*
G75*
G02X1391Y1951I25J25*
G01*
X1342*
G75*
G02X1333Y1936I-36J11*
G01*
X1208Y1811*
G75*
G02X1181Y1800I-27J27*
G01*
X749*
X739Y1789*
X699*
X671Y1817*
Y1857*
X699Y1885*
X721*
G75*
G02X720Y1886I26J27*
G01*
X692Y1913*
G75*
G02X681Y1940I27J27*
G01*
Y1944*
X671Y1955*
Y1994*
X699Y2023*
X739*
X744Y2018*
Y2182*
X739Y2177*
X699*
X671Y2205*
Y2244*
X683Y2256*
Y2325*
G75*
G02X693Y2350I36*
G01*
X706Y2363*
Y2401*
X743Y2438*
X795*
X806Y2427*
Y2438*
X908*
Y2457*
X936Y2485*
X976*
X1004Y2457*
Y2417*
X992Y2405*
Y2337*
G75*
G02X982Y2312I-36*
G01*
X957Y2287*
G75*
G02X967Y2262I-26J-25*
G01*
Y2222*
X1002*
Y2210*
X1039*
X1060Y2188*
G75*
G02X1068Y2200I33J-14*
G01*
X1161Y2293*
Y2333*
X1179*
X1161Y2351*
Y2399*
X1195Y2433*
X1243*
X1277Y2399*
Y2351*
X1259Y2333*
X1277*
Y2315*
X1295Y2333*
X1343*
X1369Y2307*
X1387Y2325*
X1361Y2351*
Y2399*
X1395Y2433*
X1397*
X1341Y2489*
X584*
X480Y2385*
Y2365*
G75*
G02X469Y2339I-36*
G01*
X242Y2112*
Y1980*
G36*
X245Y1983*
X293*
X319Y1957*
X337Y1975*
X311Y2001*
Y2049*
X345Y2083*
X393*
X427Y2049*
Y2045*
X525Y2143*
Y2330*
X506Y2349*
Y2401*
X543Y2438*
X595*
X632Y2401*
Y2349*
X613Y2330*
Y2125*
G75*
G02X600Y2093I-44J0*
G01*
X495Y1988*
X551Y1932*
G75*
G02X564Y1900I-32J-32*
G01*
Y1761*
G75*
G02X551Y1728I-46J0*
G01*
X478Y1656*
Y968*
X508*
Y980*
G75*
G02X486Y1025I36J45*
G01*
G75*
G02X601I58*
G01*
G75*
G02X580Y980I-58*
G01*
Y969*
X641*
Y1002*
X675*
Y1012*
G75*
G02X688Y1043I44J0*
G01*
X793Y1148*
Y1229*
X905*
X908Y1231*
Y1250*
G75*
G02X944Y1286I36*
G01*
X953*
Y1289*
X1068*
Y1226*
G75*
G02X1069Y1225I-24J-27*
G01*
X1094Y1200*
G75*
G02X1105Y1175I-25J-25*
G01*
Y1102*
X1269Y938*
G75*
G02X1280Y912I-25J-25*
G01*
Y867*
G75*
G02X1294Y849I-36J-43*
G01*
G75*
G02X1399Y825I50J-25*
G01*
G75*
G02X1294Y800I-56*
G01*
G75*
G02X1194I-50J25*
G01*
G75*
G02X1088Y825I-50J25*
G01*
G75*
G02X1194Y849I56*
G01*
G75*
G02X1208Y867I50J-25*
G01*
Y897*
X1054Y1051*
X976*
G75*
G02X886Y1110I-44J31*
G01*
X879*
X771Y1002*
X796*
Y897*
X875Y818*
G75*
G02X888Y787I-31J-31*
G01*
Y768*
G75*
G02X958Y761I31J-44*
G01*
X1051*
G75*
G02X1144Y749I43J-36*
G01*
G75*
G02X1244I50J-25*
G01*
G75*
G02X1344I50J-25*
G01*
G75*
G02X1426Y770I50J-25*
G01*
X1495Y840*
Y1127*
X1461*
X1436Y1152*
X1422*
X1442Y1132*
Y1092*
X1414Y1064*
X1374*
X1365Y1073*
G75*
G02X1279Y1064I-46J27*
G01*
X1231*
G75*
G02X1195Y1100J36*
G01*
Y1110*
X1169*
Y1329*
G75*
G02X1185Y1391I49J21*
G01*
X1176*
Y1388*
X1104*
Y1355*
X1076Y1327*
X1036*
X1008Y1355*
Y1394*
X1020Y1406*
Y1488*
X992Y1459*
Y1442*
X964Y1414*
X924*
X917Y1421*
Y1405*
X889Y1377*
X849*
X821Y1405*
Y1444*
X833Y1456*
Y1575*
X828*
Y1662*
X820*
X806Y1649*
Y1455*
X817Y1444*
Y1405*
X789Y1377*
X756*
Y1355*
X767Y1344*
Y1305*
X739Y1277*
X699*
X671Y1305*
Y1344*
X681Y1355*
Y1709*
G75*
G02X692Y1736I38J0*
G01*
X720Y1764*
G75*
G02X747Y1775I27J-27*
G01*
X1106*
G75*
G02X1133Y1764I0J-38*
G01*
X1183Y1714*
G75*
G02X1192Y1698I-27J-27*
G01*
X1209*
Y1575*
X1155*
Y1562*
X1176*
Y1491*
X1316*
Y1486*
X1402*
X1396Y1492*
Y1509*
X1365Y1540*
G75*
G02X1266Y1575I-46J27*
G01*
X1228*
Y1698*
X1383*
Y1709*
G75*
G02X1393Y1735I36*
G01*
X1421Y1763*
G75*
G02X1447Y1773I25J-25*
G01*
X1556*
X1563Y1780*
X1393Y1949*
G75*
G02X1391Y1951I25J25*
G01*
X1342*
G75*
G02X1333Y1936I-36J11*
G01*
X1208Y1811*
G75*
G02X1181Y1800I-27J27*
G01*
X749*
X739Y1789*
X699*
X671Y1817*
Y1857*
X699Y1885*
X721*
G75*
G02X720Y1886I26J27*
G01*
X692Y1913*
G75*
G02X681Y1940I27J27*
G01*
Y1944*
X671Y1955*
Y1994*
X699Y2023*
X739*
X744Y2018*
Y2182*
X739Y2177*
X699*
X671Y2205*
Y2244*
X683Y2256*
Y2325*
G75*
G02X693Y2350I36*
G01*
X706Y2363*
Y2401*
X743Y2438*
X795*
X806Y2427*
Y2438*
X908*
Y2457*
X936Y2485*
X976*
X1004Y2457*
Y2417*
X992Y2405*
Y2337*
G75*
G02X982Y2312I-36*
G01*
X957Y2287*
G75*
G02X967Y2262I-26J-25*
G01*
Y2222*
X1002*
Y2210*
X1039*
X1060Y2188*
G75*
G02X1068Y2200I33J-14*
G01*
X1161Y2293*
Y2333*
X1179*
X1161Y2351*
Y2399*
X1195Y2433*
X1243*
X1277Y2399*
Y2351*
X1259Y2333*
X1277*
Y2315*
X1295Y2333*
X1343*
X1369Y2307*
X1387Y2325*
X1361Y2351*
Y2399*
X1395Y2433*
X1397*
X1341Y2489*
X584*
X480Y2385*
Y2365*
G75*
G02X469Y2339I-36*
G01*
X242Y2112*
Y1980*
G37*
Y4773D02*
X298D01*
X328Y4743*
X345Y4760*
X393*
X427Y4726*
Y4724*
X523Y4821*
Y5008*
X506Y5026*
Y5078*
X540Y5113*
X535Y5118*
X480Y5062*
Y5042*
G75*
G02X469Y5016I-36*
G01*
X379Y4926*
X242Y4789*
Y4773*
G36*
X298*
X328Y4743*
X345Y4760*
X393*
X427Y4726*
Y4724*
X523Y4821*
Y5008*
X506Y5026*
Y5078*
X540Y5113*
X535Y5118*
X480Y5062*
Y5042*
G75*
G02X469Y5016I-36*
G01*
X379Y4926*
X242Y4789*
Y4773*
G37*
X359Y575D02*
X244D01*
X359Y3252D02*
X244D01*
X369Y825D02*
Y575D01*
Y825D02*
X297D01*
X369D02*
X541D01*
X369Y3502D02*
Y3252D01*
Y3502D02*
X297D01*
X369D02*
X541D01*
X431Y1987D02*
X519Y1900D01*
Y1761*
X433Y1675*
Y1491*
X431Y825*
Y1987D02*
X369Y1925D01*
X431Y1987D02*
X569Y2125D01*
Y2375*
X431Y4664D02*
X519Y4577D01*
Y4438*
X433Y4352*
Y4168*
X431Y3502*
Y4664D02*
X369Y4602D01*
X431Y4664D02*
X569Y4802D01*
Y5052*
X478Y3645D02*
X508D01*
Y3657*
G75*
G02X486Y3702I36J45*
G01*
G75*
G02X601I58*
G01*
G75*
G02X580Y3657I-58*
G01*
Y3646*
X641*
Y3679*
X675*
Y3689*
G75*
G02X688Y3720I44J0*
G01*
X793Y3826*
Y3884*
X780*
Y4029*
X933*
Y3961*
G75*
G02X940Y3963I11J-34*
G01*
Y4030*
X1011*
X1008Y4032*
Y4072*
X1020Y4084*
Y4165*
X992Y4136*
Y4119*
X964Y4091*
X924*
X917Y4098*
Y4082*
X889Y4054*
X849*
X821Y4082*
Y4122*
X833Y4134*
Y4252*
X828*
Y4339*
X820*
X806Y4326*
Y4132*
X817Y4122*
Y4082*
X789Y4054*
X756*
Y4032*
X767Y4022*
Y3982*
X739Y3954*
X699*
X671Y3982*
Y4022*
X681Y4032*
Y4386*
G75*
G02X692Y4413I38*
G01*
X720Y4441*
G75*
G02X747Y4452I27J-27*
G01*
X1106*
G75*
G02X1133Y4441I0J-38*
G01*
X1183Y4391*
G75*
G02X1185Y4388I-27J-27*
G01*
X1272*
Y4375*
X1383*
Y4386*
G75*
G02X1393Y4412I36J0*
G01*
X1421Y4440*
G75*
G02X1447Y4450I25J-25*
G01*
X1556*
X1563Y4457*
X1393Y4626*
G75*
G02X1391Y4628I25J25*
G01*
X1342*
G75*
G02X1333Y4613I-36J11*
G01*
X1208Y4488*
G75*
G02X1181Y4477I-27J27*
G01*
X749*
X739Y4466*
X699*
X671Y4494*
Y4534*
X699Y4562*
X721*
G75*
G02X720Y4563I26J27*
G01*
X692Y4591*
G75*
G02X681Y4617I27J27*
G01*
Y4621*
X671Y4632*
Y4672*
X699Y4700*
X739*
X744Y4695*
Y4859*
X739Y4854*
X699*
X671Y4882*
Y4922*
X683Y4934*
Y4976*
X637*
X614Y4999*
Y4802*
G75*
G02X601Y4770I-46*
G01*
X496Y4664*
X551Y4609*
G75*
G02X564Y4577I-32J-32*
G01*
Y4438*
G75*
G02X551Y4406I-46*
G01*
X478Y4333*
Y3645*
X593Y3841D02*
X558Y3877D01*
Y3927*
X593Y3963*
X644*
X680Y3927*
Y3877*
X644Y3841*
X593*
X478Y3902D02*
G36*
Y3645D01*
X508*
Y3657*
G75*
G02X486Y3702I36J45*
G01*
G75*
G02X601I58*
G01*
G75*
G02X580Y3657I-58*
G01*
Y3646*
X641*
Y3679*
X675*
Y3689*
G75*
G02X688Y3720I44J0*
G01*
X793Y3826*
Y3884*
X780*
Y3902*
X680*
Y3877*
X644Y3841*
X593*
X558Y3877*
Y3902*
X478*
G37*
X558D02*
G36*
Y3927D01*
X593Y3963*
X644*
X680Y3927*
Y3902*
X780*
Y4029*
X933*
Y3961*
G75*
G02X940Y3963I11J-34*
G01*
Y4030*
X1011*
X1008Y4032*
Y4072*
X1020Y4084*
Y4165*
X992Y4136*
Y4119*
X964Y4091*
X924*
X917Y4098*
Y4082*
X889Y4054*
X849*
X821Y4082*
Y4122*
X833Y4134*
Y4252*
X828*
Y4339*
X820*
X806Y4326*
Y4132*
X817Y4122*
Y4082*
X789Y4054*
X756*
Y4032*
X767Y4022*
Y3982*
X739Y3954*
X699*
X671Y3982*
Y4022*
X681Y4032*
Y4386*
G75*
G02X692Y4413I38*
G01*
X720Y4441*
G75*
G02X747Y4452I27J-27*
G01*
X1106*
G75*
G02X1133Y4441I0J-38*
G01*
X1183Y4391*
G75*
G02X1185Y4388I-27J-27*
G01*
X1272*
Y4375*
X1383*
Y4386*
G75*
G02X1393Y4412I36J0*
G01*
X1421Y4440*
G75*
G02X1447Y4450I25J-25*
G01*
X1556*
X1563Y4457*
X1393Y4626*
G75*
G02X1391Y4628I25J25*
G01*
X1342*
G75*
G02X1333Y4613I-36J11*
G01*
X1208Y4488*
G75*
G02X1181Y4477I-27J27*
G01*
X749*
X739Y4466*
X699*
X671Y4494*
Y4534*
X699Y4562*
X721*
G75*
G02X720Y4563I26J27*
G01*
X692Y4591*
G75*
G02X681Y4617I27J27*
G01*
Y4621*
X671Y4632*
Y4672*
X699Y4700*
X739*
X744Y4695*
Y4859*
X739Y4854*
X699*
X671Y4882*
Y4922*
X683Y4934*
Y4976*
X637*
X614Y4999*
Y4802*
G75*
G02X601Y4770I-46*
G01*
X496Y4664*
X551Y4609*
G75*
G02X564Y4577I-32J-32*
G01*
Y4438*
G75*
G02X551Y4406I-46*
G01*
X478Y4333*
Y3902*
X558*
G37*
X650Y5128D02*
X700D01*
X728Y5100*
X743Y5115*
X795*
X806Y5104*
Y5115*
X908*
Y5134*
X936Y5162*
X976*
X1004Y5134*
Y5094*
X992Y5082*
Y5014*
G75*
G02X982Y4989I-36*
G01*
X957Y4964*
G75*
G02X967Y4939I-26J-25*
G01*
Y4899*
X1002*
Y4887*
X1039*
X1060Y4865*
G75*
G02X1068Y4877I33J-14*
G01*
X1161Y4970*
Y5010*
X1179*
X1161Y5028*
Y5076*
X1195Y5110*
X1243*
X1260Y5093*
X1289Y5123*
X1348*
X1378Y5093*
X1395Y5110*
X1397*
X1341Y5166*
X650*
Y5128*
G36*
X700*
X728Y5100*
X743Y5115*
X795*
X806Y5104*
Y5115*
X908*
Y5134*
X936Y5162*
X976*
X1004Y5134*
Y5094*
X992Y5082*
Y5014*
G75*
G02X982Y4989I-36*
G01*
X957Y4964*
G75*
G02X967Y4939I-26J-25*
G01*
Y4899*
X1002*
Y4887*
X1039*
X1060Y4865*
G75*
G02X1068Y4877I33J-14*
G01*
X1161Y4970*
Y5010*
X1179*
X1161Y5028*
Y5076*
X1195Y5110*
X1243*
X1260Y5093*
X1289Y5123*
X1348*
X1378Y5093*
X1395Y5110*
X1397*
X1341Y5166*
X650*
Y5128*
G37*
X719Y925D02*
Y1012D01*
X856Y1150*
X719Y925D02*
X544D01*
X719Y3602D02*
Y3689D01*
X856Y3827*
X719Y3602D02*
X544D01*
X869Y2087D02*
Y2013D01*
Y4764D02*
Y4690D01*
X1068Y3903D02*
G75*
G02X1069Y3902I-24J-27D01*
G01*
X1094Y3877*
G75*
G02X1105Y3852I-25J-25*
G01*
Y3779*
X1269Y3615*
G75*
G02X1280Y3589I-25J-25*
G01*
Y3544*
G75*
G02X1294Y3526I-36J-43*
G01*
G75*
G02X1386Y3538I50J-25*
G01*
G75*
G02X1495Y3547I58J-37*
G01*
Y3804*
X1461*
X1436Y3829*
X1422*
X1442Y3809*
Y3769*
X1414Y3741*
X1374*
X1365Y3750*
G75*
G02X1279Y3741I-46J27*
G01*
X1231*
G75*
G02X1195Y3777J36*
G01*
Y3787*
X1169*
Y4006*
G75*
G02X1185Y4069I49J21*
G01*
X1176*
Y4065*
X1104*
Y4032*
X1081Y4009*
Y3924*
X1068*
Y3903*
G36*
G75*
G02X1069Y3902I-24J-27*
G01*
X1094Y3877*
G75*
G02X1105Y3852I-25J-25*
G01*
Y3779*
X1269Y3615*
G75*
G02X1280Y3589I-25J-25*
G01*
Y3544*
G75*
G02X1294Y3526I-36J-43*
G01*
G75*
G02X1386Y3538I50J-25*
G01*
G75*
G02X1495Y3547I58J-37*
G01*
Y3804*
X1461*
X1436Y3829*
X1422*
X1442Y3809*
Y3769*
X1414Y3741*
X1374*
X1365Y3750*
G75*
G02X1279Y3741I-46J27*
G01*
X1231*
G75*
G02X1195Y3777J36*
G01*
Y3787*
X1169*
Y4006*
G75*
G02X1185Y4069I49J21*
G01*
X1176*
Y4065*
X1104*
Y4032*
X1081Y4009*
Y3924*
X1068*
Y3903*
G37*
X1356Y287D02*
X1469Y200D01*
X1356Y287D02*
Y687D01*
X1394Y725*
X1356Y287D02*
X1044D01*
X844Y512*
Y787*
X719Y912*
X1356Y2964D02*
X1469Y2877D01*
X1356Y2964D02*
Y3364D01*
X1394Y3402*
X1356Y2964D02*
X1044D01*
X844Y3189*
Y3464*
X719Y3589*
X1431Y725D02*
X1394D01*
X1431Y3402D02*
X1394D01*
X1856Y2037D02*
Y1450D01*
X1981Y1325*
X1856Y4714D02*
Y4127D01*
X1981Y4002*
X1901Y2086D02*
X1982D01*
Y2081*
X1995*
Y2114*
X2097*
X2110Y2125*
Y2135*
X1995*
Y2139*
X1981*
G75*
G02X1945Y2175J36*
G01*
Y2180*
X1933Y2192*
Y2232*
X1961Y2260*
X1983*
Y2294*
X2011Y2323*
X2051*
X2079Y2294*
Y2264*
X2110*
Y2312*
X2093*
X2056Y2349*
Y2401*
X2093Y2438*
X2145*
X2182Y2401*
Y2375*
X2184Y2372*
G75*
G02X2198Y2341I-31J-32*
G01*
Y2103*
G75*
G02X2181Y2068I-44*
G01*
X2138Y2035*
Y2035*
X2137*
X2113Y2016*
Y1992*
G75*
G02X2121Y1989I-3J-21*
G01*
X2130*
G75*
G02X2154Y1987I11J-19*
G01*
Y1989*
X2254*
Y1986*
X2293*
X2308Y2000*
Y2347*
X2216Y2439*
X1969*
X1956Y2426*
X1982Y2401*
Y2349*
X1945Y2312*
X1930*
Y2162*
G75*
G02X1919Y2137I-36*
G01*
X1901Y2119*
Y2086*
G36*
X1982*
Y2081*
X1995*
Y2114*
X2097*
X2110Y2125*
Y2135*
X1995*
Y2139*
X1981*
G75*
G02X1945Y2175J36*
G01*
Y2180*
X1933Y2192*
Y2232*
X1961Y2260*
X1983*
Y2294*
X2011Y2323*
X2051*
X2079Y2294*
Y2264*
X2110*
Y2312*
X2093*
X2056Y2349*
Y2401*
X2093Y2438*
X2145*
X2182Y2401*
Y2375*
X2184Y2372*
G75*
G02X2198Y2341I-31J-32*
G01*
Y2103*
G75*
G02X2181Y2068I-44*
G01*
X2138Y2035*
Y2035*
X2137*
X2113Y2016*
Y1992*
G75*
G02X2121Y1989I-3J-21*
G01*
X2130*
G75*
G02X2154Y1987I11J-19*
G01*
Y1989*
X2254*
Y1986*
X2293*
X2308Y2000*
Y2347*
X2216Y2439*
X1969*
X1956Y2426*
X1982Y2401*
Y2349*
X1945Y2312*
X1930*
Y2162*
G75*
G02X1919Y2137I-36*
G01*
X1901Y2119*
Y2086*
G37*
X1930Y4843D02*
X1946D01*
G75*
G02X1945Y4852I35J8*
G01*
Y4857*
X1933Y4869*
Y4909*
X1961Y4937*
X1983*
Y4972*
X1987Y4976*
X1987*
X1960Y5003*
X1945Y4989*
X1930*
Y4843*
G36*
X1946*
G75*
G02X1945Y4852I35J8*
G01*
Y4857*
X1933Y4869*
Y4909*
X1961Y4937*
X1983*
Y4972*
X1987Y4976*
X1987*
X1960Y5003*
X1945Y4989*
X1930*
Y4843*
G37*
X1931Y1875D02*
X1939D01*
X1931Y4552D02*
X1939D01*
X1990Y1325D02*
X2094D01*
X1990Y4002D02*
X2094D01*
X2069Y2037D02*
X2154Y2103D01*
Y2341*
X2119Y2375*
X2069Y2037D02*
X1956D01*
X2069D02*
Y1975D01*
Y4714D02*
X2154Y4780D01*
Y5018*
X2119Y5052*
X2069Y4714D02*
X1956D01*
X2069D02*
Y4652D01*
X2113Y4669D02*
G75*
G02X2121Y4667I-3J-21D01*
G01*
X2130*
G75*
G02X2154Y4664I11J-19*
G01*
Y4667*
X2254*
Y4664*
X2293*
X2306Y4678*
Y4699*
X2187*
Y4751*
G75*
G02X2181Y4746I-33J29*
G01*
X2138Y4712*
Y4712*
X2137*
X2113Y4693*
Y4669*
G36*
G75*
G02X2121Y4667I-3J-21*
G01*
X2130*
G75*
G02X2154Y4664I11J-19*
G01*
Y4667*
X2254*
Y4664*
X2293*
X2306Y4678*
Y4699*
X2187*
Y4751*
G75*
G02X2181Y4746I-33J29*
G01*
X2138Y4712*
Y4712*
X2137*
X2113Y4693*
Y4669*
G37*
X2146Y5113D02*
X2182Y5078D01*
Y5052*
X2184Y5049*
G75*
G02X2198Y5018I-31J-32*
G01*
Y4955*
X2306*
Y5024*
X2216Y5114*
X2146*
G75*
G02X2146Y5113I-65J0*
G01*
G36*
X2182Y5078*
Y5052*
X2184Y5049*
G75*
G02X2198Y5018I-31J-32*
G01*
Y4955*
X2306*
Y5024*
X2216Y5114*
X2146*
G75*
G02X2146Y5113I-65J0*
G01*
G37*
X2769Y1925D02*
Y1562D01*
X2719Y1512*
X2769Y4602D02*
Y4239D01*
X2719Y4189*
X2993Y2675D02*
Y75D01*
X5793*
Y2675*
X2993*
X3069Y151D02*
Y399D01*
X3317*
Y151*
X3069*
X3085Y1829D02*
X3054Y1861D01*
G75*
G02X3043Y1887I27J27*
G01*
Y2127*
G75*
G02X3054Y2154I38J0*
G01*
X3250Y2351*
X3069*
Y2599*
X3317*
Y2452*
X3416Y2551*
G75*
G02X3443Y2562I27J-27*
G01*
X4230*
G75*
G02X4257Y2551I0J-38*
G01*
X4382Y2426*
G75*
G02X4393Y2400I-27J-27*
G01*
Y2230*
G75*
G02X4382Y2203I-38J0*
G01*
X4364Y2186*
G75*
G02X4352Y2177I-27J27*
G01*
G75*
G02X4396Y2125I-9J-53*
G01*
G75*
G02X4379Y2085I-54*
G01*
Y2074*
X4384*
X4391*
X4630Y2313*
Y2438*
X4655*
Y2467*
G75*
G02X4666Y2494I38J0*
G01*
X4711Y2539*
G75*
G02X4738Y2550I27J-27*
G01*
X5118*
G75*
G02X5144Y2539J-38*
G01*
X5282Y2401*
G75*
G02X5293Y2375I-27J-27*
G01*
Y1920*
G75*
G02X5282Y1893I-38*
G01*
X5237Y1848*
G75*
G02X5210Y1837I-27J27*
G01*
X5128*
Y1835*
X5028*
Y1859*
X5017*
Y1835*
X4924*
Y1815*
X4864*
X4822*
X4774*
Y1468*
X4873Y1369*
X4920*
Y1383*
X5015*
Y1316*
Y1283*
Y1268*
X5086Y1197*
Y1198*
X5286*
X5299*
X5486*
X5499*
X5669*
Y1201*
X5499*
X5486*
X5299*
X5286*
X5086*
Y1415*
X5135*
Y1454*
Y1476*
X4937*
X4925Y1464*
X4885*
X4857Y1492*
Y1532*
X4885Y1560*
X4925*
X4937Y1548*
X5135*
Y1562*
X5250*
Y1495*
Y1454*
Y1415*
X5286*
X5299*
X5335*
Y1454*
Y1495*
Y1523*
X5187Y1689*
X5173*
X5145Y1717*
Y1757*
X5173Y1785*
X5213*
X5241Y1757*
Y1737*
X5397Y1562*
X5450*
Y1495*
Y1454*
Y1415*
X5486*
X5499*
X5535*
Y1454*
Y1495*
Y1562*
X5580*
X5599Y1580*
Y1862*
X5580*
Y1980*
X5567Y1993*
Y2056*
X5594Y2084*
X5580Y2099*
Y2151*
X5594Y2165*
X5567Y2193*
Y2256*
X5611Y2301*
X5674*
X5719Y2256*
Y2193*
X5691Y2165*
X5706Y2151*
Y2113*
X5731Y2088*
G75*
G02X5741Y2062I-25J-25*
G01*
Y1019*
X5753Y1007*
Y967*
X5725Y939*
X5685*
X5657Y967*
Y985*
X5499*
X5486*
X5299*
X5286*
X5086*
Y1091*
X4960Y1216*
X4932*
Y1216*
Y1184*
Y1166*
Y1134*
Y1116*
Y1111*
X4953*
G75*
G02X5046Y1075I40J-36*
G01*
G75*
G02X4953Y1039I-54*
G01*
X4932*
Y1034*
Y1014*
X4932Y1014*
G75*
G02X4943Y987I-27J-27*
G01*
Y874*
G75*
G02X5018Y849I25J-50*
G01*
G75*
G02X5118I50J-25*
G01*
G75*
G02X5210Y861I50J-25*
G01*
G75*
G02X5336Y825I58J-37*
G01*
G75*
G02X5264Y756I-69*
G01*
G75*
G02X5273Y725I-46J-31*
G01*
G75*
G02X5168Y700I-56*
G01*
G75*
G02X5113Y669I-50J25*
G01*
X5107Y663*
G75*
G02X5107Y662I-52J-1*
G01*
G75*
G02X5018Y626I-52*
G01*
X4894*
X4831Y563*
G75*
G02X4964Y475I37J-89*
G01*
G75*
G02X4780Y436I-96*
G01*
X4746Y402*
G75*
G02X4746Y400I-53J-3*
G01*
G75*
G02X4639I-54*
G01*
G75*
G02X4695Y453I54*
G01*
X4719Y477*
Y538*
G75*
G02X4730Y564I36*
G01*
X4853Y688*
G75*
G02X4869Y697I25J-25*
G01*
G75*
G02X4862Y725I48J28*
G01*
G75*
G02X4868Y749I56*
G01*
Y972*
X4856Y984*
X4796*
Y1012*
X4783Y999*
G75*
G02X4757Y989I-25J25*
G01*
X4690*
Y984*
X4554*
Y1034*
Y1039*
X4532*
G75*
G02X4523Y1031I-40J36*
G01*
G75*
G02X4518Y1024I-31J19*
G01*
X4503Y1009*
Y992*
X4475Y964*
X4441*
Y873*
X4480*
X4502Y852*
X4510Y860*
X4547*
Y868*
X4689*
Y748*
X4547*
Y764*
X4510*
X4502Y773*
X4480Y751*
X4430*
X4406Y775*
X4349Y717*
G75*
G02X4305Y681I-43J8*
G01*
X4302*
G75*
G02X4275Y669I-34J44*
G01*
X4274Y669*
Y496*
G75*
G02X4464Y475I93J-22*
G01*
G75*
G02X4274Y453I-96*
G01*
Y309*
X4353Y248*
X4363*
X4391Y219*
Y180*
X4363Y152*
X4323*
X4295Y180*
Y181*
X4215Y243*
X3918*
G75*
G02X3885Y258J44*
G01*
X3685Y483*
G75*
G02X3674Y512I33J29*
G01*
Y634*
X3503*
Y816*
X3626*
X3597Y846*
X3516*
Y881*
X3487*
Y877*
Y864*
Y799*
X3500*
Y669*
X3330*
Y781*
X3319*
G75*
G02X3295I-12J44*
G01*
X3287*
Y665*
X3432*
Y484*
X3273*
Y497*
X3166*
Y531*
X3155*
G75*
G02X3060Y575I-37J44*
G01*
G75*
G02X3155Y619I58*
G01*
X3166*
Y652*
X3199*
Y726*
X3099*
Y923*
X3242*
Y870*
G75*
G02X3255Y869I1J-46*
G01*
X3261*
Y1675*
G75*
G02X3274Y1707I46J0*
G01*
X3347Y1779*
Y1881*
X3304Y1924*
X3301Y1920*
Y1901*
X3283Y1883*
X3301*
Y1767*
X3185*
Y1785*
X3167Y1767*
X3119*
X3085Y1801*
Y1829*
X3091Y1612D02*
X3080D01*
Y1738*
X3206*
Y1612*
X3195*
X3206Y1601*
Y1549*
X3182Y1525*
X3206Y1501*
Y1449*
X3182Y1425*
X3206Y1401*
Y1349*
X3182Y1325*
X3206Y1301*
Y1249*
X3191Y1234*
X3219Y1206*
Y1143*
X3174Y1099*
X3111*
X3067Y1143*
Y1206*
X3094Y1234*
X3080Y1249*
Y1301*
X3104Y1325*
X3080Y1349*
Y1401*
X3104Y1425*
X3080Y1449*
Y1501*
X3104Y1525*
X3080Y1549*
Y1601*
X3091Y1612*
X4702Y569D02*
X4534D01*
Y714*
X4702*
Y569*
X5222Y475D02*
G75*
G02X5414I96D01*
G01*
G75*
G02X5222I-96*
G01*
X5469Y151D02*
Y399D01*
X5717*
Y151*
X5469*
Y2351D02*
Y2599D01*
X5717*
Y2351*
X5469*
X2993Y275D02*
G36*
Y75D01*
X5793*
Y275*
X5717*
Y151*
X5469*
Y275*
X4318*
X4353Y248*
X4363*
X4391Y219*
Y180*
X4363Y152*
X4323*
X4295Y180*
Y181*
X4215Y243*
X3918*
G75*
G02X3885Y258J44*
G01*
X3870Y275*
X3317*
Y151*
X3069*
Y275*
X2993*
G37*
X3069D02*
G36*
Y399D01*
X3317*
Y275*
X3870*
X3692Y475*
X2993*
Y275*
X3069*
G37*
X5469D02*
G36*
Y399D01*
X5717*
Y275*
X5793*
Y475*
X5414*
G75*
G02X5222I-96*
G01*
X4964*
G75*
G02X4780Y436I-96*
G01*
X4746Y402*
G75*
G02X4746Y400I-53J-3*
G01*
G75*
G02X4639I-54*
G01*
G75*
G02X4695Y453I54*
G01*
X4719Y477*
Y538*
G75*
G02X4730Y564I36*
G01*
X4807Y642*
X4702*
Y569*
X4534*
Y642*
X4274*
Y496*
G75*
G02X4464Y475I93J-22*
G01*
G75*
G02X4274Y453I-96*
G01*
Y309*
X4318Y275*
X5469*
G37*
X2993Y1418D02*
G36*
Y642D01*
X3166*
Y652*
X3199*
Y726*
X3099*
Y923*
X3242*
Y870*
G75*
G02X3255Y869I1J-46*
G01*
X3261*
Y1418*
X3188*
X3206Y1401*
Y1349*
X3182Y1325*
X3206Y1301*
Y1249*
X3191Y1234*
X3219Y1206*
Y1143*
X3174Y1099*
X3111*
X3067Y1143*
Y1206*
X3094Y1234*
X3080Y1249*
Y1301*
X3104Y1325*
X3080Y1349*
Y1401*
X3097Y1418*
X2993*
G37*
X3097D02*
G36*
X3104Y1425D01*
X3080Y1449*
Y1501*
X3104Y1525*
X3080Y1549*
Y1601*
X3091Y1612*
X3080*
Y1738*
X3206*
Y1612*
X3195*
X3206Y1601*
Y1549*
X3182Y1525*
X3206Y1501*
Y1449*
X3182Y1425*
X3188Y1418*
X3261*
Y1675*
G75*
G02X3274Y1707I46J0*
G01*
X3347Y1779*
Y1881*
X3304Y1924*
X3301Y1920*
Y1901*
X3283Y1883*
X3301*
Y1767*
X3185*
Y1785*
X3167Y1767*
X3119*
X3085Y1801*
Y1829*
X3054Y1861*
G75*
G02X3043Y1887I27J27*
G01*
Y2127*
G75*
G02X3054Y2154I38J0*
G01*
X3250Y2351*
X3069*
Y2475*
X2993*
Y1418*
X3097*
G37*
X5741D02*
G36*
Y1019D01*
X5753Y1007*
Y967*
X5725Y939*
X5685*
X5657Y967*
Y985*
X5086*
Y1091*
X4960Y1216*
X4932*
Y1111*
X4953*
G75*
G02X5046Y1075I40J-36*
G01*
G75*
G02X4953Y1039I-54*
G01*
X4932*
Y1014*
X4932Y1014*
G75*
G02X4943Y987I-27J-27*
G01*
Y874*
G75*
G02X5018Y849I25J-50*
G01*
G75*
G02X5118I50J-25*
G01*
G75*
G02X5210Y861I50J-25*
G01*
G75*
G02X5336Y825I58J-37*
G01*
G75*
G02X5264Y756I-69*
G01*
G75*
G02X5273Y725I-46J-31*
G01*
G75*
G02X5168Y700I-56*
G01*
G75*
G02X5113Y669I-50J25*
G01*
X5107Y663*
G75*
G02X5107Y662I-52J-1*
G01*
G75*
G02X5103Y642I-52J0*
G01*
X5793*
Y1418*
X5741*
G37*
X5793D02*
G36*
Y2475D01*
X5717*
Y2351*
X5469*
Y2475*
X5208*
X5282Y2401*
G75*
G02X5293Y2375I-27J-27*
G01*
Y1920*
G75*
G02X5282Y1893I-38*
G01*
X5237Y1848*
G75*
G02X5210Y1837I-27J27*
G01*
X5128*
Y1835*
X5028*
Y1859*
X5017*
Y1835*
X4924*
Y1815*
X4774*
Y1468*
X4873Y1369*
X4920*
Y1383*
X5015*
Y1268*
X5086Y1197*
Y1198*
X5669*
Y1201*
X5086*
Y1415*
X5135*
Y1476*
X4937*
X4925Y1464*
X4885*
X4857Y1492*
Y1532*
X4885Y1560*
X4925*
X4937Y1548*
X5135*
Y1562*
X5250*
Y1415*
X5335*
Y1523*
X5187Y1689*
X5173*
X5145Y1717*
Y1757*
X5173Y1785*
X5213*
X5241Y1757*
Y1737*
X5397Y1562*
X5450*
Y1415*
X5535*
Y1562*
X5580*
X5599Y1580*
Y1862*
X5580*
Y1980*
X5567Y1993*
Y2056*
X5594Y2084*
X5580Y2099*
Y2151*
X5594Y2165*
X5567Y2193*
Y2256*
X5611Y2301*
X5674*
X5719Y2256*
Y2193*
X5691Y2165*
X5706Y2151*
Y2113*
X5731Y2088*
G75*
G02X5741Y2062I-25J-25*
G01*
Y1418*
X5793*
G37*
X2993Y642D02*
G36*
Y475D01*
X3692*
X3685Y483*
G75*
G02X3674Y512I33J29*
G01*
Y634*
X3503*
Y816*
X3626*
X3597Y846*
X3516*
Y881*
X3487*
Y799*
X3500*
Y669*
X3330*
Y781*
X3319*
G75*
G02X3295I-12J44*
G01*
X3287*
Y665*
X3432*
Y484*
X3273*
Y497*
X3166*
Y531*
X3155*
G75*
G02X3060Y575I-37J44*
G01*
G75*
G02X3155Y619I58*
G01*
X3166*
Y642*
X2993*
G37*
X4534D02*
G36*
Y714D01*
X4702*
Y642*
X4807*
X4853Y688*
G75*
G02X4869Y697I25J-25*
G01*
G75*
G02X4868Y749I48J28*
G01*
Y972*
X4856Y984*
X4796*
Y1012*
X4783Y999*
G75*
G02X4757Y989I-25J25*
G01*
X4690*
Y984*
X4554*
Y1039*
X4532*
G75*
G02X4523Y1031I-40J36*
G01*
G75*
G02X4518Y1024I-31J19*
G01*
X4503Y1009*
Y992*
X4475Y964*
X4441*
Y873*
X4480*
X4502Y852*
X4510Y860*
X4547*
Y868*
X4689*
Y748*
X4547*
Y764*
X4510*
X4502Y773*
X4480Y751*
X4430*
X4406Y775*
X4349Y717*
G75*
G02X4305Y681I-43J8*
G01*
X4302*
G75*
G02X4275Y669I-34J44*
G01*
X4274Y669*
Y642*
X4534*
G37*
X5103D02*
G36*
G75*
G02X5018Y626I-48J21D01*
G01*
X4894*
X4831Y563*
G75*
G02X4964Y475I37J-89*
G01*
X5222*
G75*
G02X5414I96*
G01*
X5793*
Y642*
X5103*
G37*
X3069Y2475D02*
G36*
Y2599D01*
X3317*
Y2452*
X3416Y2551*
G75*
G02X3443Y2562I27J-27*
G01*
X4230*
G75*
G02X4257Y2551I0J-38*
G01*
X4382Y2426*
G75*
G02X4393Y2400I-27J-27*
G01*
Y2230*
G75*
G02X4382Y2203I-38J0*
G01*
X4364Y2186*
G75*
G02X4352Y2177I-27J27*
G01*
G75*
G02X4379Y2085I-9J-53*
G01*
Y2074*
X4391*
X4630Y2313*
Y2438*
X4655*
Y2467*
G75*
G02X4666Y2494I38J0*
G01*
X4711Y2539*
G75*
G02X4738Y2550I27J-27*
G01*
X5118*
G75*
G02X5144Y2539J-38*
G01*
X5208Y2475*
X5469*
Y2599*
X5717*
Y2475*
X5793*
Y2675*
X2993*
Y2475*
X3069*
G37*
X2993Y5352D02*
Y2752D01*
X5793*
Y5352*
X2993*
X3069Y2828D02*
Y3076D01*
X3317*
Y2828*
X3069*
X3085Y4509D02*
X3055Y4539D01*
G75*
G02X3044Y4564I25J25*
G01*
Y4804*
G75*
G02X3055Y4830I36*
G01*
X3202Y4977*
X3253Y5028*
X3069*
Y5276*
X3317*
Y5127*
X3417Y5227*
G75*
G02X3443Y5238I25J-25*
G01*
X4230*
G75*
G02X4256Y5227J-36*
G01*
X4381Y5102*
G75*
G02X4391Y5077I-25J-25*
G01*
Y4907*
G75*
G02X4381Y4882I-36*
G01*
X4363Y4864*
G75*
G02X4349Y4855I-25J25*
G01*
G75*
G02X4396Y4802I-6J-53*
G01*
G75*
G02X4379Y4762I-54*
G01*
Y4751*
X4384*
X4391*
X4630Y4990*
Y5115*
X4655*
Y5144*
G75*
G02X4666Y5171I38J0*
G01*
X4711Y5216*
G75*
G02X4738Y5227I27J-27*
G01*
X5118*
G75*
G02X5144Y5216I0J-38*
G01*
X5282Y5078*
G75*
G02X5293Y5052I-27J-27*
G01*
Y4597*
G75*
G02X5282Y4570I-38J0*
G01*
X5237Y4525*
G75*
G02X5210Y4514I-27J27*
G01*
X5128*
Y4512*
X5028*
Y4537*
X5017*
Y4512*
X4924*
Y4492*
X4864*
X4822*
X4774*
Y4145*
X4873Y4046*
X4920*
Y4060*
X5015*
Y3993*
Y3961*
Y3943*
X5086Y3872*
Y3875*
X5286*
X5299*
X5486*
X5499*
X5669*
Y3878*
X5499*
X5486*
X5299*
X5286*
X5086*
Y4092*
X5135*
Y4132*
Y4153*
X4937*
X4925Y4141*
X4885*
X4857Y4169*
Y4209*
X4885Y4237*
X4925*
X4937Y4225*
X5135*
Y4239*
X5250*
Y4172*
Y4132*
Y4092*
X5286*
X5299*
X5335*
Y4132*
Y4172*
Y4200*
X5187Y4366*
X5173*
X5145Y4394*
Y4434*
X5173Y4462*
X5213*
X5241Y4434*
Y4414*
X5397Y4239*
X5450*
Y4172*
Y4132*
Y4092*
X5486*
X5499*
X5535*
Y4132*
Y4172*
Y4239*
X5580*
X5599Y4258*
Y4539*
X5580*
Y4657*
X5567Y4670*
Y4733*
X5594Y4761*
X5580Y4776*
Y4828*
X5594Y4843*
X5567Y4870*
Y4933*
X5611Y4978*
X5674*
X5719Y4933*
Y4870*
X5691Y4843*
X5706Y4828*
Y4790*
X5731Y4765*
G75*
G02X5741Y4739I-25J-25*
G01*
Y3696*
X5753Y3684*
Y3644*
X5725Y3616*
X5685*
X5657Y3644*
Y3662*
X5499*
X5486*
X5299*
X5286*
X5086*
Y3770*
X4962Y3894*
X4932*
Y3893*
Y3861*
Y3843*
Y3811*
Y3793*
Y3788*
X4953*
G75*
G02X5046Y3752I40J-36*
G01*
G75*
G02X4953Y3716I-54*
G01*
X4932*
Y3711*
Y3691*
X4932Y3691*
G75*
G02X4943Y3664I-27J-27*
G01*
Y3552*
G75*
G02X5018Y3526I25J-50*
G01*
G75*
G02X5118I50J-25*
G01*
G75*
G02X5210Y3538I50J-25*
G01*
G75*
G02X5336Y3502I58J-37*
G01*
G75*
G02X5264Y3433I-69*
G01*
G75*
G02X5273Y3402I-46J-31*
G01*
G75*
G02X5168Y3377I-56*
G01*
G75*
G02X5113Y3346I-50J25*
G01*
X5107Y3340*
G75*
G02X5107Y3339I-52J-1*
G01*
G75*
G02X5018Y3303I-52*
G01*
X4894*
X4831Y3240*
G75*
G02X4964Y3152I37J-89*
G01*
G75*
G02X4780Y3113I-96*
G01*
X4746Y3079*
G75*
G02X4746Y3077I-53J-3*
G01*
G75*
G02X4639I-54*
G01*
G75*
G02X4695Y3130I54*
G01*
X4719Y3154*
Y3216*
G75*
G02X4730Y3241I36*
G01*
X4853Y3365*
G75*
G02X4869Y3374I25J-25*
G01*
G75*
G02X4862Y3402I48J28*
G01*
G75*
G02X4868Y3426I56*
G01*
Y3649*
X4856Y3661*
X4796*
Y3689*
X4783Y3676*
G75*
G02X4757Y3666I-25J25*
G01*
X4690*
Y3661*
X4554*
Y3711*
Y3716*
X4532*
G75*
G02X4523Y3708I-40J36*
G01*
G75*
G02X4518Y3701I-31J19*
G01*
X4503Y3686*
Y3669*
X4475Y3641*
X4441*
Y3550*
X4480*
X4502Y3529*
X4510Y3537*
X4547*
Y3545*
X4689*
Y3425*
X4547*
Y3441*
X4510*
X4502Y3450*
X4480Y3428*
X4430*
X4406Y3452*
X4349Y3394*
G75*
G02X4305Y3358I-43J8*
G01*
X4302*
G75*
G02X4275Y3346I-34J44*
G01*
X4274Y3346*
Y3174*
G75*
G02X4464Y3152I93J-22*
G01*
G75*
G02X4274Y3130I-96*
G01*
Y2986*
X4353Y2925*
X4363*
X4391Y2897*
Y2857*
X4363Y2829*
X4323*
X4295Y2857*
Y2858*
X4215Y2920*
X3918*
G75*
G02X3885Y2935J44*
G01*
X3685Y3160*
G75*
G02X3674Y3189I33J29*
G01*
Y3311*
X3503*
Y3494*
X3626*
X3597Y3523*
X3516*
Y3558*
X3487*
Y3554*
Y3541*
Y3476*
X3500*
Y3346*
X3330*
Y3458*
X3319*
G75*
G02X3295I-12J44*
G01*
X3287*
Y3342*
X3432*
Y3162*
X3273*
Y3175*
X3166*
Y3208*
X3155*
G75*
G02X3060Y3252I-37J44*
G01*
G75*
G02X3155Y3296I58*
G01*
X3166*
Y3329*
X3199*
Y3403*
X3099*
Y3601*
X3242*
Y3547*
G75*
G02X3255Y3546I1J-46*
G01*
X3261*
Y4352*
G75*
G02X3274Y4384I46*
G01*
X3347Y4457*
Y4558*
X3304Y4601*
X3301Y4598*
Y4578*
X3283Y4560*
X3301*
Y4444*
X3185*
Y4462*
X3167Y4444*
X3119*
X3085Y4478*
Y4509*
X3091Y4289D02*
X3080D01*
Y4415*
X3206*
Y4289*
X3195*
X3206Y4278*
Y4226*
X3182Y4202*
X3206Y4178*
Y4126*
X3182Y4102*
X3206Y4078*
Y4026*
X3182Y4002*
X3206Y3978*
Y3926*
X3191Y3911*
X3219Y3883*
Y3820*
X3174Y3776*
X3111*
X3067Y3820*
Y3883*
X3094Y3911*
X3080Y3926*
Y3978*
X3104Y4002*
X3080Y4026*
Y4078*
X3104Y4102*
X3080Y4126*
Y4178*
X3104Y4202*
X3080Y4226*
Y4278*
X3091Y4289*
X4702Y3246D02*
X4534D01*
Y3392*
X4702*
Y3246*
X5222Y3152D02*
G75*
G02X5414I96D01*
G01*
G75*
G02X5222I-96*
G01*
X5469Y2828D02*
Y3076D01*
X5717*
Y2828*
X5469*
Y5028D02*
Y5276D01*
X5717*
Y5028*
X5469*
X2993Y2952D02*
G36*
Y2752D01*
X5793*
Y2952*
X5717*
Y2828*
X5469*
Y2952*
X4318*
X4353Y2925*
X4363*
X4391Y2897*
Y2857*
X4363Y2829*
X4323*
X4295Y2857*
Y2858*
X4215Y2920*
X3918*
G75*
G02X3885Y2935J44*
G01*
X3870Y2952*
X3317*
Y2828*
X3069*
Y2952*
X2993*
G37*
X3069D02*
G36*
Y3076D01*
X3317*
Y2952*
X3870*
X3692Y3152*
X2993*
Y2952*
X3069*
G37*
X5469D02*
G36*
Y3076D01*
X5717*
Y2952*
X5793*
Y3152*
X5414*
G75*
G02X5222I-96*
G01*
X4964*
G75*
G02X4780Y3113I-96*
G01*
X4746Y3079*
G75*
G02X4746Y3077I-53J-3*
G01*
G75*
G02X4639I-54*
G01*
G75*
G02X4695Y3130I54*
G01*
X4719Y3154*
Y3216*
G75*
G02X4730Y3241I36*
G01*
X4807Y3319*
X4702*
Y3246*
X4534*
Y3319*
X4274*
Y3174*
G75*
G02X4464Y3152I93J-22*
G01*
G75*
G02X4274Y3130I-96*
G01*
Y2986*
X4318Y2952*
X5469*
G37*
X2993Y4095D02*
G36*
Y3319D01*
X3166*
Y3329*
X3199*
Y3403*
X3099*
Y3601*
X3242*
Y3547*
G75*
G02X3255Y3546I1J-46*
G01*
X3261*
Y4095*
X3188*
X3206Y4078*
Y4026*
X3182Y4002*
X3206Y3978*
Y3926*
X3191Y3911*
X3219Y3883*
Y3820*
X3174Y3776*
X3111*
X3067Y3820*
Y3883*
X3094Y3911*
X3080Y3926*
Y3978*
X3104Y4002*
X3080Y4026*
Y4078*
X3097Y4095*
X2993*
G37*
X3097D02*
G36*
X3104Y4102D01*
X3080Y4126*
Y4178*
X3104Y4202*
X3080Y4226*
Y4278*
X3091Y4289*
X3080*
Y4415*
X3206*
Y4289*
X3195*
X3206Y4278*
Y4226*
X3182Y4202*
X3206Y4178*
Y4126*
X3182Y4102*
X3188Y4095*
X3261*
Y4352*
G75*
G02X3274Y4384I46*
G01*
X3347Y4457*
Y4558*
X3304Y4601*
X3301Y4598*
Y4578*
X3283Y4560*
X3301*
Y4444*
X3185*
Y4462*
X3167Y4444*
X3119*
X3085Y4478*
Y4509*
X3055Y4539*
G75*
G02X3044Y4564I25J25*
G01*
Y4804*
G75*
G02X3055Y4830I36*
G01*
X3202Y4977*
X3253Y5028*
X3069*
Y5152*
X2993*
Y4095*
X3097*
G37*
X5741D02*
G36*
Y3696D01*
X5753Y3684*
Y3644*
X5725Y3616*
X5685*
X5657Y3644*
Y3662*
X5086*
Y3770*
X4962Y3894*
X4932*
Y3788*
X4953*
G75*
G02X5046Y3752I40J-36*
G01*
G75*
G02X4953Y3716I-54*
G01*
X4932*
Y3691*
X4932Y3691*
G75*
G02X4943Y3664I-27J-27*
G01*
Y3552*
G75*
G02X5018Y3526I25J-50*
G01*
G75*
G02X5118I50J-25*
G01*
G75*
G02X5210Y3538I50J-25*
G01*
G75*
G02X5336Y3502I58J-37*
G01*
G75*
G02X5264Y3433I-69*
G01*
G75*
G02X5273Y3402I-46J-31*
G01*
G75*
G02X5168Y3377I-56*
G01*
G75*
G02X5113Y3346I-50J25*
G01*
X5107Y3340*
G75*
G02X5107Y3339I-52J-1*
G01*
G75*
G02X5103Y3319I-52J0*
G01*
X5793*
Y4095*
X5741*
G37*
X5793D02*
G36*
Y5152D01*
X5717*
Y5028*
X5469*
Y5152*
X5208*
X5282Y5078*
G75*
G02X5293Y5052I-27J-27*
G01*
Y4597*
G75*
G02X5282Y4570I-38J0*
G01*
X5237Y4525*
G75*
G02X5210Y4514I-27J27*
G01*
X5128*
Y4512*
X5028*
Y4537*
X5017*
Y4512*
X4924*
Y4492*
X4774*
Y4145*
X4873Y4046*
X4920*
Y4060*
X5015*
Y3943*
X5086Y3872*
Y3875*
X5669*
Y3878*
X5086*
Y4092*
X5135*
Y4153*
X4937*
X4925Y4141*
X4885*
X4857Y4169*
Y4209*
X4885Y4237*
X4925*
X4937Y4225*
X5135*
Y4239*
X5250*
Y4092*
X5335*
Y4200*
X5187Y4366*
X5173*
X5145Y4394*
Y4434*
X5173Y4462*
X5213*
X5241Y4434*
Y4414*
X5397Y4239*
X5450*
Y4092*
X5535*
Y4239*
X5580*
X5599Y4258*
Y4539*
X5580*
Y4657*
X5567Y4670*
Y4733*
X5594Y4761*
X5580Y4776*
Y4828*
X5594Y4843*
X5567Y4870*
Y4933*
X5611Y4978*
X5674*
X5719Y4933*
Y4870*
X5691Y4843*
X5706Y4828*
Y4790*
X5731Y4765*
G75*
G02X5741Y4739I-25J-25*
G01*
Y4095*
X5793*
G37*
X2993Y3319D02*
G36*
Y3152D01*
X3692*
X3685Y3160*
G75*
G02X3674Y3189I33J29*
G01*
Y3311*
X3503*
Y3494*
X3626*
X3597Y3523*
X3516*
Y3558*
X3487*
Y3476*
X3500*
Y3346*
X3330*
Y3458*
X3319*
G75*
G02X3295I-12J44*
G01*
X3287*
Y3342*
X3432*
Y3162*
X3273*
Y3175*
X3166*
Y3208*
X3155*
G75*
G02X3060Y3252I-37J44*
G01*
G75*
G02X3155Y3296I58*
G01*
X3166*
Y3319*
X2993*
G37*
X4534D02*
G36*
Y3392D01*
X4702*
Y3319*
X4807*
X4853Y3365*
G75*
G02X4869Y3374I25J-25*
G01*
G75*
G02X4868Y3426I48J28*
G01*
Y3649*
X4856Y3661*
X4796*
Y3689*
X4783Y3676*
G75*
G02X4757Y3666I-25J25*
G01*
X4690*
Y3661*
X4554*
Y3716*
X4532*
G75*
G02X4523Y3708I-40J36*
G01*
G75*
G02X4518Y3701I-31J19*
G01*
X4503Y3686*
Y3669*
X4475Y3641*
X4441*
Y3550*
X4480*
X4502Y3529*
X4510Y3537*
X4547*
Y3545*
X4689*
Y3425*
X4547*
Y3441*
X4510*
X4502Y3450*
X4480Y3428*
X4430*
X4406Y3452*
X4349Y3394*
G75*
G02X4305Y3358I-43J8*
G01*
X4302*
G75*
G02X4275Y3346I-34J44*
G01*
X4274Y3346*
Y3319*
X4534*
G37*
X5103D02*
G36*
G75*
G02X5018Y3303I-48J21D01*
G01*
X4894*
X4831Y3240*
G75*
G02X4964Y3152I37J-89*
G01*
X5222*
G75*
G02X5414I96*
G01*
X5793*
Y3319*
X5103*
G37*
X3069Y5152D02*
G36*
Y5276D01*
X3317*
Y5127*
X3417Y5227*
G75*
G02X3443Y5238I25J-25*
G01*
X4230*
G75*
G02X4256Y5227J-36*
G01*
X4381Y5102*
G75*
G02X4391Y5077I-25J-25*
G01*
Y4907*
G75*
G02X4381Y4882I-36*
G01*
X4363Y4864*
G75*
G02X4349Y4855I-25J25*
G01*
G75*
G02X4379Y4762I-6J-53*
G01*
Y4751*
X4391*
X4630Y4990*
Y5115*
X4655*
Y5144*
G75*
G02X4666Y5171I38J0*
G01*
X4711Y5216*
G75*
G02X4738Y5227I27J-27*
G01*
X5118*
G75*
G02X5144Y5216I0J-38*
G01*
X5208Y5152*
X5469*
Y5276*
X5717*
Y5152*
X5793*
Y5352*
X2993*
Y5152*
X3069*
G37*
X3116Y4773D02*
X3172D01*
X3202Y4743*
X3219Y4760*
X3267*
X3301Y4726*
Y4724*
X3397Y4821*
Y5008*
X3380Y5026*
Y5078*
X3415Y5113*
X3410Y5118*
X3354Y5062*
Y5042*
G75*
G02X3343Y5016I-36*
G01*
X3253Y4926*
X3116Y4789*
Y4773*
G36*
X3172*
X3202Y4743*
X3219Y4760*
X3267*
X3301Y4726*
Y4724*
X3397Y4821*
Y5008*
X3380Y5026*
Y5078*
X3415Y5113*
X3410Y5118*
X3354Y5062*
Y5042*
G75*
G02X3343Y5016I-36*
G01*
X3253Y4926*
X3116Y4789*
Y4773*
G37*
X3118Y2096D02*
X3172D01*
X3202Y2066*
X3219Y2083*
X3267*
X3301Y2049*
Y2045*
X3399Y2143*
Y2330*
X3380Y2349*
Y2401*
X3416Y2437*
X3412Y2441*
X3355Y2384*
Y2365*
G75*
G02X3344Y2338I-38J0*
G01*
X3118Y2112*
Y2096*
G36*
X3172*
X3202Y2066*
X3219Y2083*
X3267*
X3301Y2049*
Y2045*
X3399Y2143*
Y2330*
X3380Y2349*
Y2401*
X3416Y2437*
X3412Y2441*
X3355Y2384*
Y2365*
G75*
G02X3344Y2338I-38J0*
G01*
X3118Y2112*
Y2096*
G37*
X3233Y575D02*
X3118D01*
X3233Y3252D02*
X3118D01*
X3243Y825D02*
Y575D01*
Y825D02*
X3171D01*
X3243D02*
X3415D01*
X3243Y3502D02*
Y3252D01*
Y3502D02*
X3171D01*
X3243D02*
X3415D01*
X3305Y1987D02*
X3393Y1900D01*
Y1761*
X3307Y1675*
Y1491*
X3305Y825*
Y1987D02*
X3243Y1925D01*
X3305Y1987D02*
X3443Y2125D01*
Y2375*
X3305Y4664D02*
X3393Y4577D01*
Y4438*
X3307Y4352*
Y4168*
X3305Y3502*
Y4664D02*
X3243Y4602D01*
X3305Y4664D02*
X3443Y4802D01*
Y5052*
X3352Y968D02*
X3382D01*
Y980*
G75*
G02X3360Y1025I36J45*
G01*
G75*
G02X3475I58*
G01*
G75*
G02X3454Y980I-58*
G01*
Y969*
X3516*
Y1002*
X3549*
Y1012*
G75*
G02X3562Y1043I44J0*
G01*
X3667Y1148*
Y1207*
X3654*
Y1352*
X3807*
Y1284*
G75*
G02X3814Y1285I11J-34*
G01*
Y1352*
X3885*
X3882Y1355*
Y1394*
X3894Y1406*
Y1488*
X3866Y1459*
Y1442*
X3838Y1414*
X3798*
X3791Y1421*
Y1405*
X3763Y1377*
X3723*
X3695Y1405*
Y1444*
X3707Y1456*
Y1575*
X3702*
Y1662*
X3694*
X3680Y1649*
Y1455*
X3691Y1444*
Y1405*
X3663Y1377*
X3630*
Y1355*
X3641Y1344*
Y1305*
X3613Y1277*
X3573*
X3545Y1305*
Y1344*
X3555Y1355*
Y1709*
G75*
G02X3566Y1736I38J0*
G01*
X3594Y1764*
G75*
G02X3621Y1775I27J-27*
G01*
X3980*
G75*
G02X4007Y1764I0J-38*
G01*
X4057Y1714*
G75*
G02X4059Y1711I-27J-27*
G01*
X4147*
Y1698*
X4255*
Y1709*
G75*
G02X4266Y1736I38*
G01*
X4294Y1764*
G75*
G02X4321Y1775I27J-27*
G01*
X4431*
X4437Y1780*
X4267Y1949*
G75*
G02X4265Y1951I25J25*
G01*
X4216*
G75*
G02X4207Y1936I-36J11*
G01*
X4082Y1811*
G75*
G02X4055Y1800I-27J27*
G01*
X3623*
X3613Y1789*
X3573*
X3545Y1817*
Y1857*
X3573Y1885*
X3595*
G75*
G02X3594Y1886I26J27*
G01*
X3566Y1913*
G75*
G02X3555Y1940I27J27*
G01*
Y1944*
X3545Y1955*
Y1994*
X3573Y2023*
X3613*
X3618Y2018*
Y2182*
X3613Y2177*
X3573*
X3545Y2205*
Y2244*
X3557Y2256*
Y2299*
X3511*
X3487Y2323*
Y2125*
G75*
G02X3474Y2093I-44J0*
G01*
X3369Y1988*
X3425Y1932*
G75*
G02X3438Y1900I-32J-32*
G01*
Y1761*
G75*
G02X3425Y1728I-46J0*
G01*
X3352Y1656*
Y968*
X3467Y1164D02*
X3432Y1199D01*
Y1250*
X3467Y1286*
X3518*
X3554Y1250*
Y1199*
X3518Y1164*
X3467*
X3352Y1225D02*
G36*
Y968D01*
X3382*
Y980*
G75*
G02X3360Y1025I36J45*
G01*
G75*
G02X3475I58*
G01*
G75*
G02X3454Y980I-58*
G01*
Y969*
X3516*
Y1002*
X3549*
Y1012*
G75*
G02X3562Y1043I44J0*
G01*
X3667Y1148*
Y1207*
X3654*
Y1225*
X3554*
Y1199*
X3518Y1164*
X3467*
X3432Y1199*
Y1225*
X3352*
G37*
X3432D02*
G36*
Y1250D01*
X3467Y1286*
X3518*
X3554Y1250*
Y1225*
X3654*
Y1352*
X3807*
Y1284*
G75*
G02X3814Y1285I11J-34*
G01*
Y1352*
X3885*
X3882Y1355*
Y1394*
X3894Y1406*
Y1488*
X3866Y1459*
Y1442*
X3838Y1414*
X3798*
X3791Y1421*
Y1405*
X3763Y1377*
X3723*
X3695Y1405*
Y1444*
X3707Y1456*
Y1575*
X3702*
Y1662*
X3694*
X3680Y1649*
Y1455*
X3691Y1444*
Y1405*
X3663Y1377*
X3630*
Y1355*
X3641Y1344*
Y1305*
X3613Y1277*
X3573*
X3545Y1305*
Y1344*
X3555Y1355*
Y1709*
G75*
G02X3566Y1736I38J0*
G01*
X3594Y1764*
G75*
G02X3621Y1775I27J-27*
G01*
X3980*
G75*
G02X4007Y1764I0J-38*
G01*
X4057Y1714*
G75*
G02X4059Y1711I-27J-27*
G01*
X4147*
Y1698*
X4255*
Y1709*
G75*
G02X4266Y1736I38*
G01*
X4294Y1764*
G75*
G02X4321Y1775I27J-27*
G01*
X4431*
X4437Y1780*
X4267Y1949*
G75*
G02X4265Y1951I25J25*
G01*
X4216*
G75*
G02X4207Y1936I-36J11*
G01*
X4082Y1811*
G75*
G02X4055Y1800I-27J27*
G01*
X3623*
X3613Y1789*
X3573*
X3545Y1817*
Y1857*
X3573Y1885*
X3595*
G75*
G02X3594Y1886I26J27*
G01*
X3566Y1913*
G75*
G02X3555Y1940I27J27*
G01*
Y1944*
X3545Y1955*
Y1994*
X3573Y2023*
X3613*
X3618Y2018*
Y2182*
X3613Y2177*
X3573*
X3545Y2205*
Y2244*
X3557Y2256*
Y2299*
X3511*
X3487Y2323*
Y2125*
G75*
G02X3474Y2093I-44J0*
G01*
X3369Y1988*
X3425Y1932*
G75*
G02X3438Y1900I-32J-32*
G01*
Y1761*
G75*
G02X3425Y1728I-46J0*
G01*
X3352Y1656*
Y1225*
X3432*
G37*
X3352Y3645D02*
X3382D01*
Y3657*
G75*
G02X3360Y3702I36J45*
G01*
G75*
G02X3475I58*
G01*
G75*
G02X3454Y3657I-58*
G01*
Y3646*
X3516*
Y3679*
X3549*
Y3689*
G75*
G02X3562Y3720I44J0*
G01*
X3667Y3826*
Y3884*
X3654*
Y4029*
X3807*
Y3961*
G75*
G02X3814Y3963I11J-34*
G01*
Y4030*
X3885*
X3882Y4032*
Y4072*
X3894Y4084*
Y4165*
X3866Y4136*
Y4119*
X3838Y4091*
X3798*
X3791Y4098*
Y4082*
X3763Y4054*
X3723*
X3695Y4082*
Y4122*
X3707Y4134*
Y4252*
X3702*
Y4339*
X3694*
X3680Y4326*
Y4132*
X3691Y4122*
Y4082*
X3663Y4054*
X3630*
Y4032*
X3641Y4022*
Y3982*
X3613Y3954*
X3573*
X3545Y3982*
Y4022*
X3555Y4032*
Y4386*
G75*
G02X3566Y4413I38*
G01*
X3594Y4441*
G75*
G02X3621Y4452I27J-27*
G01*
X3980*
G75*
G02X4007Y4441I0J-38*
G01*
X4057Y4391*
G75*
G02X4059Y4388I-27J-27*
G01*
X4147*
Y4375*
X4257*
Y4386*
G75*
G02X4267Y4412I36*
G01*
X4295Y4440*
G75*
G02X4321Y4450I25J-25*
G01*
X4430*
X4437Y4457*
X4267Y4626*
G75*
G02X4265Y4628I25J25*
G01*
X4216*
G75*
G02X4207Y4613I-36J11*
G01*
X4082Y4488*
G75*
G02X4055Y4477I-27J27*
G01*
X3623*
X3613Y4466*
X3573*
X3545Y4494*
Y4534*
X3573Y4562*
X3595*
G75*
G02X3594Y4563I26J27*
G01*
X3566Y4591*
G75*
G02X3555Y4617I27J27*
G01*
Y4621*
X3545Y4632*
Y4672*
X3573Y4700*
X3613*
X3618Y4695*
Y4859*
X3613Y4854*
X3573*
X3545Y4882*
Y4922*
X3557Y4934*
Y4976*
X3511*
X3488Y4999*
Y4802*
G75*
G02X3475Y4770I-46*
G01*
X3370Y4664*
X3425Y4609*
G75*
G02X3438Y4577I-32J-32*
G01*
Y4438*
G75*
G02X3425Y4406I-46*
G01*
X3352Y4333*
Y3645*
X3467Y3841D02*
X3432Y3877D01*
Y3927*
X3467Y3963*
X3518*
X3554Y3927*
Y3877*
X3518Y3841*
X3467*
X3352Y3902D02*
G36*
Y3645D01*
X3382*
Y3657*
G75*
G02X3360Y3702I36J45*
G01*
G75*
G02X3475I58*
G01*
G75*
G02X3454Y3657I-58*
G01*
Y3646*
X3516*
Y3679*
X3549*
Y3689*
G75*
G02X3562Y3720I44J0*
G01*
X3667Y3826*
Y3884*
X3654*
Y3902*
X3554*
Y3877*
X3518Y3841*
X3467*
X3432Y3877*
Y3902*
X3352*
G37*
X3432D02*
G36*
Y3927D01*
X3467Y3963*
X3518*
X3554Y3927*
Y3902*
X3654*
Y4029*
X3807*
Y3961*
G75*
G02X3814Y3963I11J-34*
G01*
Y4030*
X3885*
X3882Y4032*
Y4072*
X3894Y4084*
Y4165*
X3866Y4136*
Y4119*
X3838Y4091*
X3798*
X3791Y4098*
Y4082*
X3763Y4054*
X3723*
X3695Y4082*
Y4122*
X3707Y4134*
Y4252*
X3702*
Y4339*
X3694*
X3680Y4326*
Y4132*
X3691Y4122*
Y4082*
X3663Y4054*
X3630*
Y4032*
X3641Y4022*
Y3982*
X3613Y3954*
X3573*
X3545Y3982*
Y4022*
X3555Y4032*
Y4386*
G75*
G02X3566Y4413I38*
G01*
X3594Y4441*
G75*
G02X3621Y4452I27J-27*
G01*
X3980*
G75*
G02X4007Y4441I0J-38*
G01*
X4057Y4391*
G75*
G02X4059Y4388I-27J-27*
G01*
X4147*
Y4375*
X4257*
Y4386*
G75*
G02X4267Y4412I36*
G01*
X4295Y4440*
G75*
G02X4321Y4450I25J-25*
G01*
X4430*
X4437Y4457*
X4267Y4626*
G75*
G02X4265Y4628I25J25*
G01*
X4216*
G75*
G02X4207Y4613I-36J11*
G01*
X4082Y4488*
G75*
G02X4055Y4477I-27J27*
G01*
X3623*
X3613Y4466*
X3573*
X3545Y4494*
Y4534*
X3573Y4562*
X3595*
G75*
G02X3594Y4563I26J27*
G01*
X3566Y4591*
G75*
G02X3555Y4617I27J27*
G01*
Y4621*
X3545Y4632*
Y4672*
X3573Y4700*
X3613*
X3618Y4695*
Y4859*
X3613Y4854*
X3573*
X3545Y4882*
Y4922*
X3557Y4934*
Y4976*
X3511*
X3488Y4999*
Y4802*
G75*
G02X3475Y4770I-46*
G01*
X3370Y4664*
X3425Y4609*
G75*
G02X3438Y4577I-32J-32*
G01*
Y4438*
G75*
G02X3425Y4406I-46*
G01*
X3352Y4333*
Y3902*
X3432*
G37*
X3525Y2451D02*
X3574D01*
X3602Y2423*
X3617Y2438*
X3669*
X3680Y2427*
Y2438*
X3782*
Y2457*
X3810Y2485*
X3850*
X3878Y2457*
Y2417*
X3866Y2405*
Y2337*
G75*
G02X3856Y2312I-36*
G01*
X3831Y2287*
G75*
G02X3841Y2262I-26J-25*
G01*
Y2222*
X3876*
Y2210*
X3913*
X3934Y2188*
G75*
G02X3942Y2200I33J-14*
G01*
X4035Y2293*
Y2333*
X4053*
X4035Y2351*
Y2399*
X4069Y2433*
X4117*
X4134Y2416*
X4163Y2446*
X4222*
X4252Y2416*
X4269Y2433*
X4269*
X4215Y2487*
X3525*
Y2451*
G36*
X3574*
X3602Y2423*
X3617Y2438*
X3669*
X3680Y2427*
Y2438*
X3782*
Y2457*
X3810Y2485*
X3850*
X3878Y2457*
Y2417*
X3866Y2405*
Y2337*
G75*
G02X3856Y2312I-36*
G01*
X3831Y2287*
G75*
G02X3841Y2262I-26J-25*
G01*
Y2222*
X3876*
Y2210*
X3913*
X3934Y2188*
G75*
G02X3942Y2200I33J-14*
G01*
X4035Y2293*
Y2333*
X4053*
X4035Y2351*
Y2399*
X4069Y2433*
X4117*
X4134Y2416*
X4163Y2446*
X4222*
X4252Y2416*
X4269Y2433*
X4269*
X4215Y2487*
X3525*
Y2451*
G37*
Y5128D02*
X3574D01*
X3602Y5100*
X3617Y5115*
X3669*
X3680Y5104*
Y5115*
X3782*
Y5134*
X3810Y5162*
X3850*
X3878Y5134*
Y5094*
X3866Y5082*
Y5014*
G75*
G02X3856Y4989I-36*
G01*
X3831Y4964*
G75*
G02X3841Y4939I-26J-25*
G01*
Y4899*
X3876*
Y4887*
X3913*
X3934Y4865*
G75*
G02X3942Y4877I33J-14*
G01*
X4035Y4970*
Y5010*
X4053*
X4035Y5028*
Y5076*
X4069Y5110*
X4117*
X4134Y5093*
X4163Y5123*
X4222*
X4252Y5093*
X4269Y5110*
X4271*
X4215Y5166*
X3525*
Y5128*
G36*
X3574*
X3602Y5100*
X3617Y5115*
X3669*
X3680Y5104*
Y5115*
X3782*
Y5134*
X3810Y5162*
X3850*
X3878Y5134*
Y5094*
X3866Y5082*
Y5014*
G75*
G02X3856Y4989I-36*
G01*
X3831Y4964*
G75*
G02X3841Y4939I-26J-25*
G01*
Y4899*
X3876*
Y4887*
X3913*
X3934Y4865*
G75*
G02X3942Y4877I33J-14*
G01*
X4035Y4970*
Y5010*
X4053*
X4035Y5028*
Y5076*
X4069Y5110*
X4117*
X4134Y5093*
X4163Y5123*
X4222*
X4252Y5093*
X4269Y5110*
X4271*
X4215Y5166*
X3525*
Y5128*
G37*
X3593Y925D02*
Y1012D01*
X3730Y1150*
X3593Y925D02*
X3418D01*
X3593Y3602D02*
Y3689D01*
X3730Y3827*
X3593Y3602D02*
X3418D01*
X3743Y2087D02*
Y2013D01*
Y4764D02*
Y4690D01*
X3942Y1226D02*
G75*
G02X3943Y1225I-24J-27D01*
G01*
X3968Y1200*
G75*
G02X3979Y1175I-25J-25*
G01*
Y1102*
X4143Y938*
G75*
G02X4154Y912I-25J-25*
G01*
Y867*
G75*
G02X4168Y849I-36J-43*
G01*
G75*
G02X4260Y861I50J-25*
G01*
G75*
G02X4369Y870I58J-37*
G01*
Y1127*
X4335*
X4310Y1152*
X4296*
X4316Y1132*
Y1092*
X4288Y1064*
X4248*
X4239Y1073*
G75*
G02X4153Y1064I-46J27*
G01*
X4105*
G75*
G02X4069Y1100J36*
G01*
Y1110*
X4043*
Y1329*
G75*
G02X4059Y1391I49J21*
G01*
X4050*
Y1388*
X3978*
Y1355*
X3955Y1331*
Y1247*
X3942*
Y1226*
G36*
G75*
G02X3943Y1225I-24J-27*
G01*
X3968Y1200*
G75*
G02X3979Y1175I-25J-25*
G01*
Y1102*
X4143Y938*
G75*
G02X4154Y912I-25J-25*
G01*
Y867*
G75*
G02X4168Y849I-36J-43*
G01*
G75*
G02X4260Y861I50J-25*
G01*
G75*
G02X4369Y870I58J-37*
G01*
Y1127*
X4335*
X4310Y1152*
X4296*
X4316Y1132*
Y1092*
X4288Y1064*
X4248*
X4239Y1073*
G75*
G02X4153Y1064I-46J27*
G01*
X4105*
G75*
G02X4069Y1100J36*
G01*
Y1110*
X4043*
Y1329*
G75*
G02X4059Y1391I49J21*
G01*
X4050*
Y1388*
X3978*
Y1355*
X3955Y1331*
Y1247*
X3942*
Y1226*
G37*
Y3903D02*
G75*
G02X3943Y3902I-24J-27D01*
G01*
X3968Y3877*
G75*
G02X3979Y3852I-25J-25*
G01*
Y3779*
X4143Y3615*
G75*
G02X4154Y3589I-25J-25*
G01*
Y3544*
G75*
G02X4168Y3526I-36J-43*
G01*
G75*
G02X4260Y3538I50J-25*
G01*
G75*
G02X4369Y3547I58J-37*
G01*
Y3804*
X4335*
X4310Y3829*
X4296*
X4316Y3809*
Y3769*
X4288Y3741*
X4248*
X4239Y3750*
G75*
G02X4153Y3741I-46J27*
G01*
X4105*
G75*
G02X4069Y3777J36*
G01*
Y3787*
X4043*
Y4006*
G75*
G02X4059Y4069I49J21*
G01*
X4050*
Y4065*
X3978*
Y4032*
X3955Y4009*
Y3924*
X3942*
Y3903*
G36*
G75*
G02X3943Y3902I-24J-27*
G01*
X3968Y3877*
G75*
G02X3979Y3852I-25J-25*
G01*
Y3779*
X4143Y3615*
G75*
G02X4154Y3589I-25J-25*
G01*
Y3544*
G75*
G02X4168Y3526I-36J-43*
G01*
G75*
G02X4260Y3538I50J-25*
G01*
G75*
G02X4369Y3547I58J-37*
G01*
Y3804*
X4335*
X4310Y3829*
X4296*
X4316Y3809*
Y3769*
X4288Y3741*
X4248*
X4239Y3750*
G75*
G02X4153Y3741I-46J27*
G01*
X4105*
G75*
G02X4069Y3777J36*
G01*
Y3787*
X4043*
Y4006*
G75*
G02X4059Y4069I49J21*
G01*
X4050*
Y4065*
X3978*
Y4032*
X3955Y4009*
Y3924*
X3942*
Y3903*
G37*
X4203Y1486D02*
X4276D01*
X4270Y1492*
Y1509*
X4239Y1540*
G75*
G02X4203Y1514I-46J27*
G01*
Y1486*
G36*
X4276*
X4270Y1492*
Y1509*
X4239Y1540*
G75*
G02X4203Y1514I-46J27*
G01*
Y1486*
G37*
Y4163D02*
X4276D01*
X4270Y4169*
Y4186*
X4239Y4217*
G75*
G02X4203Y4191I-46J27*
G01*
Y4163*
G36*
X4276*
X4270Y4169*
Y4186*
X4239Y4217*
G75*
G02X4203Y4191I-46J27*
G01*
Y4163*
G37*
X4230Y287D02*
X4343Y200D01*
X4230Y287D02*
Y687D01*
X4268Y725*
X4230Y287D02*
X3918D01*
X3718Y512*
Y787*
X3593Y912*
X4230Y2964D02*
X4343Y2877D01*
X4230Y2964D02*
Y3364D01*
X4268Y3402*
X4230Y2964D02*
X3918D01*
X3718Y3189*
Y3464*
X3593Y3589*
X4305Y725D02*
X4268D01*
X4305Y3402D02*
X4268D01*
X4730Y2037D02*
Y1450D01*
X4855Y1325*
X4730Y4714D02*
Y4127D01*
X4855Y4002*
X4804Y2166D02*
X4820D01*
G75*
G02X4819Y2175I35J8*
G01*
Y2180*
X4807Y2192*
Y2232*
X4835Y2260*
X4857*
Y2294*
X4861Y2299*
X4861*
X4834Y2326*
X4819Y2312*
X4804*
Y2166*
G36*
X4820*
G75*
G02X4819Y2175I35J8*
G01*
Y2180*
X4807Y2192*
Y2232*
X4835Y2260*
X4857*
Y2294*
X4861Y2299*
X4861*
X4834Y2326*
X4819Y2312*
X4804*
Y2166*
G37*
Y4843D02*
X4820D01*
G75*
G02X4819Y4852I35J8*
G01*
Y4857*
X4807Y4869*
Y4909*
X4835Y4937*
X4857*
Y4972*
X4861Y4976*
X4861*
X4834Y5003*
X4819Y4989*
X4804*
Y4843*
G36*
X4820*
G75*
G02X4819Y4852I35J8*
G01*
Y4857*
X4807Y4869*
Y4909*
X4835Y4937*
X4857*
Y4972*
X4861Y4976*
X4861*
X4834Y5003*
X4819Y4989*
X4804*
Y4843*
G37*
X4805Y1875D02*
X4813D01*
X4805Y4552D02*
X4813D01*
X4864Y1325D02*
X4968D01*
X4864Y4002D02*
X4968D01*
X4943Y2037D02*
X5028Y2103D01*
Y2341*
X4993Y2375*
X4943Y2037D02*
X4830D01*
X4943D02*
Y1975D01*
Y4714D02*
X5028Y4780D01*
Y5018*
X4993Y5052*
X4943Y4714D02*
X4830D01*
X4943D02*
Y4652D01*
X4987Y1992D02*
G75*
G02X4995Y1989I-3J-21D01*
G01*
X5004*
G75*
G02X5028Y1987I11J-19*
G01*
Y1989*
X5128*
Y1986*
X5167*
X5182Y2000*
Y2022*
X5061*
Y2074*
G75*
G02X5055Y2068I-33J29*
G01*
X5012Y2035*
Y2035*
X5011*
X4987Y2016*
Y1992*
G36*
G75*
G02X4995Y1989I-3J-21*
G01*
X5004*
G75*
G02X5028Y1987I11J-19*
G01*
Y1989*
X5128*
Y1986*
X5167*
X5182Y2000*
Y2022*
X5061*
Y2074*
G75*
G02X5055Y2068I-33J29*
G01*
X5012Y2035*
Y2035*
X5011*
X4987Y2016*
Y1992*
G37*
Y4669D02*
G75*
G02X4995Y4667I-3J-21D01*
G01*
X5004*
G75*
G02X5028Y4664I11J-19*
G01*
Y4667*
X5128*
Y4663*
X5167*
X5182Y4677*
Y4699*
X5061*
Y4751*
G75*
G02X5055Y4746I-33J29*
G01*
X5012Y4712*
Y4712*
X5011*
X4987Y4693*
Y4669*
G36*
G75*
G02X4995Y4667I-3J-21*
G01*
X5004*
G75*
G02X5028Y4664I11J-19*
G01*
Y4667*
X5128*
Y4663*
X5167*
X5182Y4677*
Y4699*
X5061*
Y4751*
G75*
G02X5055Y4746I-33J29*
G01*
X5012Y4712*
Y4712*
X5011*
X4987Y4693*
Y4669*
G37*
X5020Y2439D02*
G75*
G02X5020Y2437I-65J-1D01*
G01*
G75*
G02X5020Y2436I-65J0*
G01*
X5056Y2401*
Y2375*
X5058Y2372*
G75*
G02X5072Y2341I-31J-32*
G01*
Y2277*
X5182*
Y2347*
X5090Y2439*
X5020*
G36*
G75*
G02X5020Y2437I-65J-1*
G01*
G75*
G02X5020Y2436I-65J0*
G01*
X5056Y2401*
Y2375*
X5058Y2372*
G75*
G02X5072Y2341I-31J-32*
G01*
Y2277*
X5182*
Y2347*
X5090Y2439*
X5020*
G37*
Y5116D02*
G75*
G02X5020Y5114I-65J-1D01*
G01*
G75*
G02X5020Y5113I-65J0*
G01*
X5056Y5078*
Y5052*
X5058Y5049*
G75*
G02X5072Y5018I-31J-32*
G01*
Y4955*
X5182*
Y5024*
X5090Y5116*
X5020*
G36*
G75*
G02X5020Y5114I-65J-1*
G01*
G75*
G02X5020Y5113I-65J0*
G01*
X5056Y5078*
Y5052*
X5058Y5049*
G75*
G02X5072Y5018I-31J-32*
G01*
Y4955*
X5182*
Y5024*
X5090Y5116*
X5020*
G37*
X5643Y1925D02*
Y1562D01*
X5593Y1512*
X5643Y4602D02*
Y4239D01*
X5593Y4189*
X5867Y2675D02*
Y75D01*
X8667*
Y2675*
X5867*
X5943Y151D02*
Y399D01*
X6191*
Y151*
X5943*
X5959Y1832D02*
X5929Y1862D01*
G75*
G02X5918Y1887I25J25*
G01*
Y2127*
G75*
G02X5929Y2153I36*
G01*
X6076Y2300*
X6127Y2351*
X5943*
Y2599*
X6191*
Y2450*
X6291Y2550*
G75*
G02X6317Y2561I25J-25*
G01*
X7104*
G75*
G02X7130Y2550J-36*
G01*
X7255Y2425*
G75*
G02X7265Y2400I-25J-25*
G01*
Y2230*
G75*
G02X7255Y2204I-36*
G01*
X7237Y2187*
G75*
G02X7223Y2178I-25J25*
G01*
G75*
G02X7270Y2125I-6J-53*
G01*
G75*
G02X7253Y2085I-54*
G01*
Y2074*
X7258*
X7265*
X7504Y2313*
Y2438*
X7529*
Y2467*
G75*
G02X7540Y2494I38J0*
G01*
X7585Y2539*
G75*
G02X7612Y2550I27J-27*
G01*
X7992*
G75*
G02X8018Y2539J-38*
G01*
X8156Y2401*
G75*
G02X8167Y2375I-27J-27*
G01*
Y1920*
G75*
G02X8156Y1893I-38*
G01*
X8111Y1848*
G75*
G02X8084Y1837I-27J27*
G01*
X8002*
Y1835*
X7902*
Y1859*
X7891*
Y1835*
X7798*
Y1815*
X7738*
X7696*
X7648*
Y1468*
X7747Y1369*
X7794*
Y1383*
X7889*
Y1316*
Y1283*
Y1268*
X7960Y1197*
Y1198*
X8160*
X8173*
X8360*
X8373*
X8542*
Y1201*
X8373*
X8360*
X8173*
X8160*
X7960*
Y1415*
X8009*
Y1454*
Y1476*
X7811*
X7799Y1464*
X7759*
X7731Y1492*
Y1532*
X7759Y1560*
X7799*
X7811Y1548*
X8009*
Y1562*
X8124*
Y1495*
Y1454*
Y1415*
X8160*
X8173*
X8209*
Y1454*
Y1495*
Y1523*
X8061Y1689*
X8047*
X8019Y1717*
Y1757*
X8047Y1785*
X8087*
X8115Y1757*
Y1737*
X8271Y1562*
X8324*
Y1495*
Y1454*
Y1415*
X8360*
X8373*
X8409*
Y1454*
Y1495*
Y1562*
X8454*
X8473Y1580*
Y1862*
X8454*
Y1980*
X8441Y1993*
Y2056*
X8468Y2084*
X8454Y2099*
Y2151*
X8468Y2165*
X8441Y2193*
Y2256*
X8485Y2301*
X8548*
X8593Y2256*
Y2193*
X8565Y2165*
X8580Y2151*
Y2115*
X8606Y2089*
G75*
G02X8617Y2062I-27J-27*
G01*
Y1017*
X8627Y1007*
Y967*
X8599Y939*
X8559*
X8531Y967*
Y985*
X8373*
X8360*
X8173*
X8160*
X7960*
Y1091*
X7834Y1216*
X7806*
Y1216*
Y1184*
Y1166*
Y1134*
Y1116*
Y1111*
X7827*
G75*
G02X7920Y1075I40J-36*
G01*
G75*
G02X7827Y1039I-54*
G01*
X7806*
Y1034*
Y1014*
X7806Y1014*
G75*
G02X7817Y987I-27J-27*
G01*
Y874*
G75*
G02X7892Y849I25J-50*
G01*
G75*
G02X7992I50J-25*
G01*
G75*
G02X8084Y861I50J-25*
G01*
G75*
G02X8210Y825I58J-37*
G01*
G75*
G02X8138Y756I-69*
G01*
G75*
G02X8147Y725I-46J-31*
G01*
G75*
G02X8042Y700I-56*
G01*
G75*
G02X7987Y669I-50J25*
G01*
X7981Y663*
G75*
G02X7981Y662I-52J-1*
G01*
G75*
G02X7892Y626I-52*
G01*
X7768*
X7705Y563*
G75*
G02X7838Y475I37J-89*
G01*
G75*
G02X7654Y436I-96*
G01*
X7620Y402*
G75*
G02X7620Y400I-53J-3*
G01*
G75*
G02X7513I-54*
G01*
G75*
G02X7569Y453I54*
G01*
X7593Y477*
Y538*
G75*
G02X7604Y564I36*
G01*
X7727Y688*
G75*
G02X7743Y697I25J-25*
G01*
G75*
G02X7736Y725I48J28*
G01*
G75*
G02X7742Y749I56*
G01*
Y972*
X7730Y984*
X7670*
Y1012*
X7657Y999*
G75*
G02X7631Y989I-25J25*
G01*
X7564*
Y984*
X7428*
Y1034*
Y1039*
X7406*
G75*
G02X7397Y1031I-40J36*
G01*
G75*
G02X7392Y1024I-31J19*
G01*
X7377Y1009*
Y992*
X7349Y964*
X7315*
Y873*
X7355*
X7376Y852*
X7384Y860*
X7421*
Y868*
X7563*
Y748*
X7421*
Y764*
X7384*
X7376Y773*
X7355Y751*
X7304*
X7280Y775*
X7223Y717*
G75*
G02X7179Y681I-43J8*
G01*
X7176*
G75*
G02X7149Y669I-34J44*
G01*
X7148Y669*
Y496*
G75*
G02X7338Y475I93J-22*
G01*
G75*
G02X7148Y453I-96*
G01*
Y309*
X7227Y248*
X7237*
X7265Y219*
Y180*
X7237Y152*
X7197*
X7169Y180*
Y181*
X7089Y243*
X6792*
G75*
G02X6759Y258J44*
G01*
X6559Y483*
G75*
G02X6548Y512I33J29*
G01*
Y634*
X6377*
Y816*
X6500*
X6471Y846*
X6390*
Y881*
X6361*
Y877*
Y864*
Y799*
X6374*
Y669*
X6204*
Y781*
X6193*
G75*
G02X6169I-12J44*
G01*
X6161*
Y665*
X6306*
Y484*
X6147*
Y497*
X6040*
Y531*
X6029*
G75*
G02X5934Y575I-37J44*
G01*
G75*
G02X6029Y619I58*
G01*
X6040*
Y652*
X6073*
Y726*
X5973*
Y923*
X6116*
Y870*
G75*
G02X6129Y869I1J-46*
G01*
X6135*
Y1675*
G75*
G02X6149Y1707I46*
G01*
X6221Y1779*
Y1881*
X6179Y1923*
X6175Y1918*
Y1901*
X6157Y1883*
X6175*
Y1767*
X6059*
Y1785*
X6041Y1767*
X5993*
X5959Y1801*
Y1832*
X5965Y1612D02*
X5954D01*
Y1738*
X6080*
Y1612*
X6069*
X6080Y1601*
Y1549*
X6056Y1525*
X6080Y1501*
Y1449*
X6056Y1425*
X6080Y1401*
Y1349*
X6056Y1325*
X6080Y1301*
Y1249*
X6065Y1234*
X6093Y1206*
Y1143*
X6048Y1099*
X5985*
X5941Y1143*
Y1206*
X5968Y1234*
X5954Y1249*
Y1301*
X5978Y1325*
X5954Y1349*
Y1401*
X5978Y1425*
X5954Y1449*
Y1501*
X5978Y1525*
X5954Y1549*
Y1601*
X5965Y1612*
X7576Y569D02*
X7408D01*
Y714*
X7576*
Y569*
X8096Y475D02*
G75*
G02X8288I96D01*
G01*
G75*
G02X8096I-96*
G01*
X8343Y151D02*
Y399D01*
X8591*
Y151*
X8343*
Y2351D02*
Y2599D01*
X8591*
Y2351*
X8343*
X5867Y275D02*
G36*
Y75D01*
X8667*
Y275*
X8591*
Y151*
X8343*
Y275*
X7192*
X7227Y248*
X7237*
X7265Y219*
Y180*
X7237Y152*
X7197*
X7169Y180*
Y181*
X7089Y243*
X6792*
G75*
G02X6759Y258J44*
G01*
X6744Y275*
X6191*
Y151*
X5943*
Y275*
X5867*
G37*
X5943D02*
G36*
Y399D01*
X6191*
Y275*
X6744*
X6566Y475*
X5867*
Y275*
X5943*
G37*
X8343D02*
G36*
Y399D01*
X8591*
Y275*
X8667*
Y475*
X8288*
G75*
G02X8096I-96*
G01*
X7838*
G75*
G02X7654Y436I-96*
G01*
X7620Y402*
G75*
G02X7620Y400I-53J-3*
G01*
G75*
G02X7513I-54*
G01*
G75*
G02X7569Y453I54*
G01*
X7593Y477*
Y538*
G75*
G02X7604Y564I36*
G01*
X7681Y642*
X7576*
Y569*
X7408*
Y642*
X7148*
Y496*
G75*
G02X7338Y475I93J-22*
G01*
G75*
G02X7148Y453I-96*
G01*
Y309*
X7192Y275*
X8343*
G37*
X5867Y1418D02*
G36*
Y642D01*
X6040*
Y652*
X6073*
Y726*
X5973*
Y923*
X6116*
Y870*
G75*
G02X6129Y869I1J-46*
G01*
X6135*
Y1418*
X6062*
X6080Y1401*
Y1349*
X6056Y1325*
X6080Y1301*
Y1249*
X6065Y1234*
X6093Y1206*
Y1143*
X6048Y1099*
X5985*
X5941Y1143*
Y1206*
X5968Y1234*
X5954Y1249*
Y1301*
X5978Y1325*
X5954Y1349*
Y1401*
X5971Y1418*
X5867*
G37*
X5971D02*
G36*
X5978Y1425D01*
X5954Y1449*
Y1501*
X5978Y1525*
X5954Y1549*
Y1601*
X5965Y1612*
X5954*
Y1738*
X6080*
Y1612*
X6069*
X6080Y1601*
Y1549*
X6056Y1525*
X6080Y1501*
Y1449*
X6056Y1425*
X6062Y1418*
X6135*
Y1675*
G75*
G02X6149Y1707I46*
G01*
X6221Y1779*
Y1881*
X6179Y1923*
X6175Y1918*
Y1901*
X6157Y1883*
X6175*
Y1767*
X6059*
Y1785*
X6041Y1767*
X5993*
X5959Y1801*
Y1832*
X5929Y1862*
G75*
G02X5918Y1887I25J25*
G01*
Y2127*
G75*
G02X5929Y2153I36*
G01*
X6076Y2300*
X6127Y2351*
X5943*
Y2475*
X5867*
Y1418*
X5971*
G37*
X8617D02*
G36*
Y1017D01*
X8627Y1007*
Y967*
X8599Y939*
X8559*
X8531Y967*
Y985*
X7960*
Y1091*
X7834Y1216*
X7806*
Y1111*
X7827*
G75*
G02X7920Y1075I40J-36*
G01*
G75*
G02X7827Y1039I-54*
G01*
X7806*
Y1014*
X7806Y1014*
G75*
G02X7817Y987I-27J-27*
G01*
Y874*
G75*
G02X7892Y849I25J-50*
G01*
G75*
G02X7992I50J-25*
G01*
G75*
G02X8084Y861I50J-25*
G01*
G75*
G02X8210Y825I58J-37*
G01*
G75*
G02X8138Y756I-69*
G01*
G75*
G02X8147Y725I-46J-31*
G01*
G75*
G02X8042Y700I-56*
G01*
G75*
G02X7987Y669I-50J25*
G01*
X7981Y663*
G75*
G02X7981Y662I-52J-1*
G01*
G75*
G02X7977Y642I-52J0*
G01*
X8667*
Y1418*
X8617*
G37*
X8667D02*
G36*
Y2475D01*
X8591*
Y2351*
X8343*
Y2475*
X8082*
X8156Y2401*
G75*
G02X8167Y2375I-27J-27*
G01*
Y1920*
G75*
G02X8156Y1893I-38*
G01*
X8111Y1848*
G75*
G02X8084Y1837I-27J27*
G01*
X8002*
Y1835*
X7902*
Y1859*
X7891*
Y1835*
X7798*
Y1815*
X7648*
Y1468*
X7747Y1369*
X7794*
Y1383*
X7889*
Y1268*
X7960Y1197*
Y1198*
X8542*
Y1201*
X7960*
Y1415*
X8009*
Y1476*
X7811*
X7799Y1464*
X7759*
X7731Y1492*
Y1532*
X7759Y1560*
X7799*
X7811Y1548*
X8009*
Y1562*
X8124*
Y1415*
X8209*
Y1523*
X8061Y1689*
X8047*
X8019Y1717*
Y1757*
X8047Y1785*
X8087*
X8115Y1757*
Y1737*
X8271Y1562*
X8324*
Y1415*
X8409*
Y1562*
X8454*
X8473Y1580*
Y1862*
X8454*
Y1980*
X8441Y1993*
Y2056*
X8468Y2084*
X8454Y2099*
Y2151*
X8468Y2165*
X8441Y2193*
Y2256*
X8485Y2301*
X8548*
X8593Y2256*
Y2193*
X8565Y2165*
X8580Y2151*
Y2115*
X8606Y2089*
G75*
G02X8617Y2062I-27J-27*
G01*
Y1418*
X8667*
G37*
X5867Y642D02*
G36*
Y475D01*
X6566*
X6559Y483*
G75*
G02X6548Y512I33J29*
G01*
Y634*
X6377*
Y816*
X6500*
X6471Y846*
X6390*
Y881*
X6361*
Y799*
X6374*
Y669*
X6204*
Y781*
X6193*
G75*
G02X6169I-12J44*
G01*
X6161*
Y665*
X6306*
Y484*
X6147*
Y497*
X6040*
Y531*
X6029*
G75*
G02X5934Y575I-37J44*
G01*
G75*
G02X6029Y619I58*
G01*
X6040*
Y642*
X5867*
G37*
X7408D02*
G36*
Y714D01*
X7576*
Y642*
X7681*
X7727Y688*
G75*
G02X7743Y697I25J-25*
G01*
G75*
G02X7742Y749I48J28*
G01*
Y972*
X7730Y984*
X7670*
Y1012*
X7657Y999*
G75*
G02X7631Y989I-25J25*
G01*
X7564*
Y984*
X7428*
Y1039*
X7406*
G75*
G02X7397Y1031I-40J36*
G01*
G75*
G02X7392Y1024I-31J19*
G01*
X7377Y1009*
Y992*
X7349Y964*
X7315*
Y873*
X7355*
X7376Y852*
X7384Y860*
X7421*
Y868*
X7563*
Y748*
X7421*
Y764*
X7384*
X7376Y773*
X7355Y751*
X7304*
X7280Y775*
X7223Y717*
G75*
G02X7179Y681I-43J8*
G01*
X7176*
G75*
G02X7149Y669I-34J44*
G01*
X7148Y669*
Y642*
X7408*
G37*
X7977D02*
G36*
G75*
G02X7892Y626I-48J21D01*
G01*
X7768*
X7705Y563*
G75*
G02X7838Y475I37J-89*
G01*
X8096*
G75*
G02X8288I96*
G01*
X8667*
Y642*
X7977*
G37*
X5943Y2475D02*
G36*
Y2599D01*
X6191*
Y2450*
X6291Y2550*
G75*
G02X6317Y2561I25J-25*
G01*
X7104*
G75*
G02X7130Y2550J-36*
G01*
X7255Y2425*
G75*
G02X7265Y2400I-25J-25*
G01*
Y2230*
G75*
G02X7255Y2204I-36*
G01*
X7237Y2187*
G75*
G02X7223Y2178I-25J25*
G01*
G75*
G02X7253Y2085I-6J-53*
G01*
Y2074*
X7265*
X7504Y2313*
Y2438*
X7529*
Y2467*
G75*
G02X7540Y2494I38J0*
G01*
X7585Y2539*
G75*
G02X7612Y2550I27J-27*
G01*
X7992*
G75*
G02X8018Y2539J-38*
G01*
X8082Y2475*
X8343*
Y2599*
X8591*
Y2475*
X8667*
Y2675*
X5867*
Y2475*
X5943*
G37*
X5867Y5352D02*
Y2752D01*
X8667*
Y5352*
X5867*
X5943Y2828D02*
Y3076D01*
X6191*
Y2828*
X5943*
X5959Y4509D02*
X5929Y4539D01*
G75*
G02X5918Y4564I25J25*
G01*
Y4804*
G75*
G02X5929Y4830I36*
G01*
X6076Y4977*
X6127Y5028*
X5943*
Y5276*
X6191*
Y5127*
X6291Y5227*
G75*
G02X6317Y5238I25J-25*
G01*
X7104*
G75*
G02X7130Y5227J-36*
G01*
X7255Y5102*
G75*
G02X7265Y5077I-25J-25*
G01*
Y4907*
G75*
G02X7255Y4882I-36*
G01*
X7237Y4864*
G75*
G02X7223Y4855I-25J25*
G01*
G75*
G02X7270Y4802I-6J-53*
G01*
G75*
G02X7253Y4762I-54*
G01*
Y4751*
X7258*
X7265*
X7504Y4990*
Y5115*
X7529*
Y5144*
G75*
G02X7540Y5171I38J0*
G01*
X7585Y5216*
G75*
G02X7612Y5227I27J-27*
G01*
X7992*
G75*
G02X8018Y5216I0J-38*
G01*
X8156Y5078*
G75*
G02X8167Y5052I-27J-27*
G01*
Y4597*
G75*
G02X8156Y4570I-38J0*
G01*
X8111Y4525*
G75*
G02X8084Y4514I-27J27*
G01*
X8002*
Y4512*
X7902*
Y4537*
X7891*
Y4512*
X7798*
Y4492*
X7738*
X7696*
X7648*
Y4145*
X7747Y4046*
X7794*
Y4060*
X7889*
Y3993*
Y3961*
Y3943*
X7960Y3872*
Y3875*
X8160*
X8173*
X8360*
X8373*
X8542*
Y3878*
X8373*
X8360*
X8173*
X8160*
X7960*
Y4092*
X8009*
Y4132*
Y4153*
X7811*
X7799Y4141*
X7759*
X7731Y4169*
Y4209*
X7759Y4237*
X7799*
X7811Y4225*
X8009*
Y4239*
X8124*
Y4172*
Y4132*
Y4092*
X8160*
X8173*
X8209*
Y4132*
Y4172*
Y4200*
X8061Y4366*
X8047*
X8019Y4394*
Y4434*
X8047Y4462*
X8087*
X8115Y4434*
Y4414*
X8271Y4239*
X8324*
Y4172*
Y4132*
Y4092*
X8360*
X8373*
X8409*
Y4132*
Y4172*
Y4239*
X8454*
X8473Y4258*
Y4539*
X8454*
Y4657*
X8441Y4670*
Y4733*
X8468Y4761*
X8454Y4776*
Y4828*
X8468Y4843*
X8441Y4870*
Y4933*
X8485Y4978*
X8548*
X8593Y4933*
Y4870*
X8565Y4843*
X8580Y4828*
Y4792*
X8606Y4766*
G75*
G02X8617Y4739I-27J-27*
G01*
Y3695*
X8627Y3684*
Y3644*
X8599Y3616*
X8559*
X8531Y3644*
Y3662*
X8373*
X8360*
X8173*
X8160*
X7960*
Y3770*
X7836Y3894*
X7806*
Y3893*
Y3861*
Y3843*
Y3811*
Y3793*
Y3788*
X7827*
G75*
G02X7920Y3752I40J-36*
G01*
G75*
G02X7827Y3716I-54*
G01*
X7806*
Y3711*
Y3691*
X7806Y3691*
G75*
G02X7817Y3664I-27J-27*
G01*
Y3552*
G75*
G02X7892Y3526I25J-50*
G01*
G75*
G02X7992I50J-25*
G01*
G75*
G02X8084Y3538I50J-25*
G01*
G75*
G02X8210Y3502I58J-37*
G01*
G75*
G02X8138Y3433I-69*
G01*
G75*
G02X8147Y3402I-46J-31*
G01*
G75*
G02X8042Y3377I-56*
G01*
G75*
G02X7987Y3346I-50J25*
G01*
X7981Y3340*
G75*
G02X7981Y3339I-52J-1*
G01*
G75*
G02X7892Y3303I-52*
G01*
X7768*
X7705Y3240*
G75*
G02X7838Y3152I37J-89*
G01*
G75*
G02X7654Y3113I-96*
G01*
X7620Y3079*
G75*
G02X7620Y3077I-53J-3*
G01*
G75*
G02X7513I-54*
G01*
G75*
G02X7569Y3130I54*
G01*
X7593Y3154*
Y3216*
G75*
G02X7604Y3241I36*
G01*
X7727Y3365*
G75*
G02X7743Y3374I25J-25*
G01*
G75*
G02X7736Y3402I48J28*
G01*
G75*
G02X7742Y3426I56*
G01*
Y3649*
X7730Y3661*
X7670*
Y3689*
X7657Y3676*
G75*
G02X7631Y3666I-25J25*
G01*
X7564*
Y3661*
X7428*
Y3711*
Y3716*
X7406*
G75*
G02X7397Y3708I-40J36*
G01*
G75*
G02X7392Y3701I-31J19*
G01*
X7377Y3686*
Y3669*
X7349Y3641*
X7315*
Y3550*
X7355*
X7376Y3529*
X7384Y3537*
X7421*
Y3545*
X7563*
Y3425*
X7421*
Y3441*
X7384*
X7376Y3450*
X7355Y3428*
X7304*
X7280Y3452*
X7223Y3394*
G75*
G02X7179Y3358I-43J8*
G01*
X7176*
G75*
G02X7149Y3346I-34J44*
G01*
X7148Y3346*
Y3174*
G75*
G02X7338Y3152I93J-22*
G01*
G75*
G02X7148Y3130I-96*
G01*
Y2986*
X7227Y2925*
X7237*
X7265Y2897*
Y2857*
X7237Y2829*
X7197*
X7169Y2857*
Y2858*
X7089Y2920*
X6792*
G75*
G02X6759Y2935J44*
G01*
X6559Y3160*
G75*
G02X6548Y3189I33J29*
G01*
Y3311*
X6377*
Y3494*
X6500*
X6471Y3523*
X6390*
Y3558*
X6361*
Y3554*
Y3541*
Y3476*
X6374*
Y3346*
X6204*
Y3458*
X6193*
G75*
G02X6169I-12J44*
G01*
X6161*
Y3342*
X6306*
Y3162*
X6147*
Y3175*
X6040*
Y3208*
X6029*
G75*
G02X5934Y3252I-37J44*
G01*
G75*
G02X6029Y3296I58*
G01*
X6040*
Y3329*
X6073*
Y3403*
X5973*
Y3601*
X6116*
Y3547*
G75*
G02X6129Y3546I1J-46*
G01*
X6135*
Y4352*
G75*
G02X6149Y4384I46J0*
G01*
X6221Y4457*
Y4558*
X6178Y4601*
X6175Y4598*
Y4578*
X6157Y4560*
X6175*
Y4444*
X6059*
Y4462*
X6041Y4444*
X5993*
X5959Y4478*
Y4509*
X5965Y4289D02*
X5954D01*
Y4415*
X6080*
Y4289*
X6069*
X6080Y4278*
Y4226*
X6056Y4202*
X6080Y4178*
Y4126*
X6056Y4102*
X6080Y4078*
Y4026*
X6056Y4002*
X6080Y3978*
Y3926*
X6065Y3911*
X6093Y3883*
Y3820*
X6048Y3776*
X5985*
X5941Y3820*
Y3883*
X5968Y3911*
X5954Y3926*
Y3978*
X5978Y4002*
X5954Y4026*
Y4078*
X5978Y4102*
X5954Y4126*
Y4178*
X5978Y4202*
X5954Y4226*
Y4278*
X5965Y4289*
X7576Y3246D02*
X7408D01*
Y3392*
X7576*
Y3246*
X8096Y3152D02*
G75*
G02X8288I96D01*
G01*
G75*
G02X8096I-96*
G01*
X8343Y2828D02*
Y3076D01*
X8591*
Y2828*
X8343*
Y5028D02*
Y5276D01*
X8591*
Y5028*
X8343*
X5867Y2952D02*
G36*
Y2752D01*
X8667*
Y2952*
X8591*
Y2828*
X8343*
Y2952*
X7192*
X7227Y2925*
X7237*
X7265Y2897*
Y2857*
X7237Y2829*
X7197*
X7169Y2857*
Y2858*
X7089Y2920*
X6792*
G75*
G02X6759Y2935J44*
G01*
X6744Y2952*
X6191*
Y2828*
X5943*
Y2952*
X5867*
G37*
X5943D02*
G36*
Y3076D01*
X6191*
Y2952*
X6744*
X6566Y3152*
X5867*
Y2952*
X5943*
G37*
X8343D02*
G36*
Y3076D01*
X8591*
Y2952*
X8667*
Y3152*
X8288*
G75*
G02X8096I-96*
G01*
X7838*
G75*
G02X7654Y3113I-96*
G01*
X7620Y3079*
G75*
G02X7620Y3077I-53J-3*
G01*
G75*
G02X7513I-54*
G01*
G75*
G02X7569Y3130I54*
G01*
X7593Y3154*
Y3216*
G75*
G02X7604Y3241I36*
G01*
X7681Y3319*
X7576*
Y3246*
X7408*
Y3319*
X7148*
Y3174*
G75*
G02X7338Y3152I93J-22*
G01*
G75*
G02X7148Y3130I-96*
G01*
Y2986*
X7192Y2952*
X8343*
G37*
X5867Y4095D02*
G36*
Y3319D01*
X6040*
Y3329*
X6073*
Y3403*
X5973*
Y3601*
X6116*
Y3547*
G75*
G02X6129Y3546I1J-46*
G01*
X6135*
Y4095*
X6062*
X6080Y4078*
Y4026*
X6056Y4002*
X6080Y3978*
Y3926*
X6065Y3911*
X6093Y3883*
Y3820*
X6048Y3776*
X5985*
X5941Y3820*
Y3883*
X5968Y3911*
X5954Y3926*
Y3978*
X5978Y4002*
X5954Y4026*
Y4078*
X5971Y4095*
X5867*
G37*
X5971D02*
G36*
X5978Y4102D01*
X5954Y4126*
Y4178*
X5978Y4202*
X5954Y4226*
Y4278*
X5965Y4289*
X5954*
Y4415*
X6080*
Y4289*
X6069*
X6080Y4278*
Y4226*
X6056Y4202*
X6080Y4178*
Y4126*
X6056Y4102*
X6062Y4095*
X6135*
Y4352*
G75*
G02X6149Y4384I46J0*
G01*
X6221Y4457*
Y4558*
X6178Y4601*
X6175Y4598*
Y4578*
X6157Y4560*
X6175*
Y4444*
X6059*
Y4462*
X6041Y4444*
X5993*
X5959Y4478*
Y4509*
X5929Y4539*
G75*
G02X5918Y4564I25J25*
G01*
Y4804*
G75*
G02X5929Y4830I36*
G01*
X6076Y4977*
X6127Y5028*
X5943*
Y5152*
X5867*
Y4095*
X5971*
G37*
X8617D02*
G36*
Y3695D01*
X8627Y3684*
Y3644*
X8599Y3616*
X8559*
X8531Y3644*
Y3662*
X7960*
Y3770*
X7836Y3894*
X7806*
Y3788*
X7827*
G75*
G02X7920Y3752I40J-36*
G01*
G75*
G02X7827Y3716I-54*
G01*
X7806*
Y3691*
X7806Y3691*
G75*
G02X7817Y3664I-27J-27*
G01*
Y3552*
G75*
G02X7892Y3526I25J-50*
G01*
G75*
G02X7992I50J-25*
G01*
G75*
G02X8084Y3538I50J-25*
G01*
G75*
G02X8210Y3502I58J-37*
G01*
G75*
G02X8138Y3433I-69*
G01*
G75*
G02X8147Y3402I-46J-31*
G01*
G75*
G02X8042Y3377I-56*
G01*
G75*
G02X7987Y3346I-50J25*
G01*
X7981Y3340*
G75*
G02X7981Y3339I-52J-1*
G01*
G75*
G02X7977Y3319I-52J0*
G01*
X8667*
Y4095*
X8617*
G37*
X8667D02*
G36*
Y5152D01*
X8591*
Y5028*
X8343*
Y5152*
X8082*
X8156Y5078*
G75*
G02X8167Y5052I-27J-27*
G01*
Y4597*
G75*
G02X8156Y4570I-38J0*
G01*
X8111Y4525*
G75*
G02X8084Y4514I-27J27*
G01*
X8002*
Y4512*
X7902*
Y4537*
X7891*
Y4512*
X7798*
Y4492*
X7648*
Y4145*
X7747Y4046*
X7794*
Y4060*
X7889*
Y3943*
X7960Y3872*
Y3875*
X8542*
Y3878*
X7960*
Y4092*
X8009*
Y4153*
X7811*
X7799Y4141*
X7759*
X7731Y4169*
Y4209*
X7759Y4237*
X7799*
X7811Y4225*
X8009*
Y4239*
X8124*
Y4092*
X8209*
Y4200*
X8061Y4366*
X8047*
X8019Y4394*
Y4434*
X8047Y4462*
X8087*
X8115Y4434*
Y4414*
X8271Y4239*
X8324*
Y4092*
X8409*
Y4239*
X8454*
X8473Y4258*
Y4539*
X8454*
Y4657*
X8441Y4670*
Y4733*
X8468Y4761*
X8454Y4776*
Y4828*
X8468Y4843*
X8441Y4870*
Y4933*
X8485Y4978*
X8548*
X8593Y4933*
Y4870*
X8565Y4843*
X8580Y4828*
Y4792*
X8606Y4766*
G75*
G02X8617Y4739I-27J-27*
G01*
Y4095*
X8667*
G37*
X5867Y3319D02*
G36*
Y3152D01*
X6566*
X6559Y3160*
G75*
G02X6548Y3189I33J29*
G01*
Y3311*
X6377*
Y3494*
X6500*
X6471Y3523*
X6390*
Y3558*
X6361*
Y3476*
X6374*
Y3346*
X6204*
Y3458*
X6193*
G75*
G02X6169I-12J44*
G01*
X6161*
Y3342*
X6306*
Y3162*
X6147*
Y3175*
X6040*
Y3208*
X6029*
G75*
G02X5934Y3252I-37J44*
G01*
G75*
G02X6029Y3296I58*
G01*
X6040*
Y3319*
X5867*
G37*
X7408D02*
G36*
Y3392D01*
X7576*
Y3319*
X7681*
X7727Y3365*
G75*
G02X7743Y3374I25J-25*
G01*
G75*
G02X7742Y3426I48J28*
G01*
Y3649*
X7730Y3661*
X7670*
Y3689*
X7657Y3676*
G75*
G02X7631Y3666I-25J25*
G01*
X7564*
Y3661*
X7428*
Y3716*
X7406*
G75*
G02X7397Y3708I-40J36*
G01*
G75*
G02X7392Y3701I-31J19*
G01*
X7377Y3686*
Y3669*
X7349Y3641*
X7315*
Y3550*
X7355*
X7376Y3529*
X7384Y3537*
X7421*
Y3545*
X7563*
Y3425*
X7421*
Y3441*
X7384*
X7376Y3450*
X7355Y3428*
X7304*
X7280Y3452*
X7223Y3394*
G75*
G02X7179Y3358I-43J8*
G01*
X7176*
G75*
G02X7149Y3346I-34J44*
G01*
X7148Y3346*
Y3319*
X7408*
G37*
X7977D02*
G36*
G75*
G02X7892Y3303I-48J21D01*
G01*
X7768*
X7705Y3240*
G75*
G02X7838Y3152I37J-89*
G01*
X8096*
G75*
G02X8288I96*
G01*
X8667*
Y3319*
X7977*
G37*
X5943Y5152D02*
G36*
Y5276D01*
X6191*
Y5127*
X6291Y5227*
G75*
G02X6317Y5238I25J-25*
G01*
X7104*
G75*
G02X7130Y5227J-36*
G01*
X7255Y5102*
G75*
G02X7265Y5077I-25J-25*
G01*
Y4907*
G75*
G02X7255Y4882I-36*
G01*
X7237Y4864*
G75*
G02X7223Y4855I-25J25*
G01*
G75*
G02X7253Y4762I-6J-53*
G01*
Y4751*
X7265*
X7504Y4990*
Y5115*
X7529*
Y5144*
G75*
G02X7540Y5171I38J0*
G01*
X7585Y5216*
G75*
G02X7612Y5227I27J-27*
G01*
X7992*
G75*
G02X8018Y5216I0J-38*
G01*
X8082Y5152*
X8343*
Y5276*
X8591*
Y5152*
X8667*
Y5352*
X5867*
Y5152*
X5943*
G37*
X5990Y2096D02*
X6046D01*
X6076Y2066*
X6093Y2083*
X6141*
X6175Y2049*
Y2045*
X6273Y2143*
Y2330*
X6254Y2349*
Y2401*
X6291Y2438*
X6286Y2443*
X6228Y2385*
Y2365*
G75*
G02X6217Y2339I-36*
G01*
X6127Y2249*
X5990Y2112*
Y2096*
G36*
X6046*
X6076Y2066*
X6093Y2083*
X6141*
X6175Y2049*
Y2045*
X6273Y2143*
Y2330*
X6254Y2349*
Y2401*
X6291Y2438*
X6286Y2443*
X6228Y2385*
Y2365*
G75*
G02X6217Y2339I-36*
G01*
X6127Y2249*
X5990Y2112*
Y2096*
G37*
Y4773D02*
X6046D01*
X6076Y4743*
X6093Y4760*
X6141*
X6175Y4726*
Y4722*
X6273Y4820*
Y5007*
X6254Y5026*
Y5078*
X6289Y5114*
X6284Y5119*
X6228Y5062*
Y5042*
G75*
G02X6217Y5016I-36*
G01*
X6127Y4926*
X5990Y4789*
Y4773*
G36*
X6046*
X6076Y4743*
X6093Y4760*
X6141*
X6175Y4726*
Y4722*
X6273Y4820*
Y5007*
X6254Y5026*
Y5078*
X6289Y5114*
X6284Y5119*
X6228Y5062*
Y5042*
G75*
G02X6217Y5016I-36*
G01*
X6127Y4926*
X5990Y4789*
Y4773*
G37*
X6107Y575D02*
X5992D01*
X6107Y3252D02*
X5992D01*
X6117Y825D02*
Y575D01*
Y825D02*
X6045D01*
X6117D02*
X6289D01*
X6117Y3502D02*
Y3252D01*
Y3502D02*
X6045D01*
X6117D02*
X6289D01*
X6179Y1987D02*
X6267Y1900D01*
Y1761*
X6181Y1675*
Y1491*
X6179Y825*
Y1987D02*
X6117Y1925D01*
X6179Y1987D02*
X6317Y2125D01*
Y2375*
X6179Y4664D02*
X6267Y4577D01*
Y4438*
X6181Y4352*
Y4168*
X6179Y3502*
Y4664D02*
X6117Y4602D01*
X6179Y4664D02*
X6317Y4802D01*
Y5052*
X6226Y968D02*
X6256D01*
Y980*
G75*
G02X6234Y1025I36J45*
G01*
G75*
G02X6349I58*
G01*
G75*
G02X6328Y980I-58*
G01*
Y969*
X6390*
Y1002*
X6421*
Y1012*
G75*
G02X6435Y1044I46*
G01*
X6541Y1151*
Y1207*
X6528*
Y1352*
X6681*
Y1284*
G75*
G02X6688Y1285I11J-34*
G01*
Y1352*
X6759*
X6756Y1355*
Y1394*
X6768Y1406*
Y1488*
X6740Y1459*
Y1442*
X6712Y1414*
X6672*
X6665Y1421*
Y1405*
X6637Y1377*
X6597*
X6569Y1405*
Y1444*
X6581Y1456*
Y1575*
X6576*
Y1662*
X6568*
X6554Y1649*
Y1455*
X6565Y1444*
Y1405*
X6537Y1377*
X6504*
Y1355*
X6515Y1344*
Y1305*
X6487Y1277*
X6447*
X6419Y1305*
Y1344*
X6429Y1355*
Y1709*
G75*
G02X6440Y1736I38*
G01*
X6468Y1764*
G75*
G02X6495Y1775I27J-27*
G01*
X6854*
G75*
G02X6881Y1764J-38*
G01*
X6931Y1714*
G75*
G02X6933Y1711I-27J-27*
G01*
X7021*
Y1698*
X7129*
Y1709*
G75*
G02X7140Y1736I38*
G01*
X7168Y1764*
G75*
G02X7195Y1775I27J-27*
G01*
X7305*
X7311Y1780*
X7141Y1949*
G75*
G02X7139Y1951I25J25*
G01*
X7090*
G75*
G02X7081Y1936I-36J11*
G01*
X6956Y1811*
G75*
G02X6929Y1800I-27J27*
G01*
X6497*
X6487Y1789*
X6447*
X6419Y1817*
Y1857*
X6447Y1885*
X6469*
G75*
G02X6468Y1886I26J27*
G01*
X6440Y1913*
G75*
G02X6429Y1940I27J27*
G01*
Y1944*
X6419Y1955*
Y1994*
X6447Y2023*
X6487*
X6492Y2018*
Y2182*
X6487Y2177*
X6447*
X6419Y2205*
Y2244*
X6431Y2256*
Y2299*
X6385*
X6361Y2323*
Y2125*
G75*
G02X6348Y2093I-44*
G01*
X6243Y1988*
X6299Y1932*
G75*
G02X6312Y1900I-32J-32*
G01*
Y1761*
G75*
G02X6299Y1728I-46*
G01*
X6226Y1656*
Y968*
X6341Y1164D02*
X6306Y1199D01*
Y1250*
X6341Y1286*
X6392*
X6428Y1250*
Y1199*
X6392Y1164*
X6341*
X6226Y1225D02*
G36*
Y968D01*
X6256*
Y980*
G75*
G02X6234Y1025I36J45*
G01*
G75*
G02X6349I58*
G01*
G75*
G02X6328Y980I-58*
G01*
Y969*
X6390*
Y1002*
X6421*
Y1012*
G75*
G02X6435Y1044I46*
G01*
X6541Y1151*
Y1207*
X6528*
Y1225*
X6428*
Y1199*
X6392Y1164*
X6341*
X6306Y1199*
Y1225*
X6226*
G37*
X6306D02*
G36*
Y1250D01*
X6341Y1286*
X6392*
X6428Y1250*
Y1225*
X6528*
Y1352*
X6681*
Y1284*
G75*
G02X6688Y1285I11J-34*
G01*
Y1352*
X6759*
X6756Y1355*
Y1394*
X6768Y1406*
Y1488*
X6740Y1459*
Y1442*
X6712Y1414*
X6672*
X6665Y1421*
Y1405*
X6637Y1377*
X6597*
X6569Y1405*
Y1444*
X6581Y1456*
Y1575*
X6576*
Y1662*
X6568*
X6554Y1649*
Y1455*
X6565Y1444*
Y1405*
X6537Y1377*
X6504*
Y1355*
X6515Y1344*
Y1305*
X6487Y1277*
X6447*
X6419Y1305*
Y1344*
X6429Y1355*
Y1709*
G75*
G02X6440Y1736I38*
G01*
X6468Y1764*
G75*
G02X6495Y1775I27J-27*
G01*
X6854*
G75*
G02X6881Y1764J-38*
G01*
X6931Y1714*
G75*
G02X6933Y1711I-27J-27*
G01*
X7021*
Y1698*
X7129*
Y1709*
G75*
G02X7140Y1736I38*
G01*
X7168Y1764*
G75*
G02X7195Y1775I27J-27*
G01*
X7305*
X7311Y1780*
X7141Y1949*
G75*
G02X7139Y1951I25J25*
G01*
X7090*
G75*
G02X7081Y1936I-36J11*
G01*
X6956Y1811*
G75*
G02X6929Y1800I-27J27*
G01*
X6497*
X6487Y1789*
X6447*
X6419Y1817*
Y1857*
X6447Y1885*
X6469*
G75*
G02X6468Y1886I26J27*
G01*
X6440Y1913*
G75*
G02X6429Y1940I27J27*
G01*
Y1944*
X6419Y1955*
Y1994*
X6447Y2023*
X6487*
X6492Y2018*
Y2182*
X6487Y2177*
X6447*
X6419Y2205*
Y2244*
X6431Y2256*
Y2299*
X6385*
X6361Y2323*
Y2125*
G75*
G02X6348Y2093I-44*
G01*
X6243Y1988*
X6299Y1932*
G75*
G02X6312Y1900I-32J-32*
G01*
Y1761*
G75*
G02X6299Y1728I-46*
G01*
X6226Y1656*
Y1225*
X6306*
G37*
X6226Y3645D02*
X6256D01*
Y3657*
G75*
G02X6234Y3702I36J45*
G01*
G75*
G02X6349I58*
G01*
G75*
G02X6328Y3657I-58*
G01*
Y3646*
X6390*
Y3679*
X6421*
Y3689*
G75*
G02X6435Y3722I46*
G01*
X6541Y3828*
Y3884*
X6528*
Y4029*
X6681*
Y3961*
G75*
G02X6688Y3963I11J-34*
G01*
Y4030*
X6759*
X6756Y4032*
Y4072*
X6768Y4084*
Y4165*
X6740Y4136*
Y4119*
X6712Y4091*
X6672*
X6665Y4098*
Y4082*
X6637Y4054*
X6597*
X6569Y4082*
Y4122*
X6581Y4134*
Y4252*
X6576*
Y4339*
X6568*
X6554Y4326*
Y4132*
X6565Y4122*
Y4082*
X6537Y4054*
X6504*
Y4032*
X6515Y4022*
Y3982*
X6487Y3954*
X6447*
X6419Y3982*
Y4022*
X6429Y4032*
Y4386*
G75*
G02X6440Y4413I38J0*
G01*
X6468Y4441*
G75*
G02X6495Y4452I27J-27*
G01*
X6854*
G75*
G02X6881Y4441J-38*
G01*
X6931Y4391*
G75*
G02X6933Y4388I-27J-27*
G01*
X7021*
Y4375*
X7131*
Y4386*
G75*
G02X7141Y4412I36*
G01*
X7169Y4440*
G75*
G02X7195Y4450I25J-25*
G01*
X7304*
X7311Y4457*
X7141Y4626*
G75*
G02X7139Y4628I25J25*
G01*
X7090*
G75*
G02X7081Y4613I-36J11*
G01*
X6956Y4488*
G75*
G02X6929Y4477I-27J27*
G01*
X6497*
X6487Y4466*
X6447*
X6419Y4494*
Y4534*
X6447Y4562*
X6469*
G75*
G02X6468Y4563I26J27*
G01*
X6440Y4591*
G75*
G02X6429Y4617I27J27*
G01*
Y4621*
X6419Y4632*
Y4672*
X6447Y4700*
X6487*
X6492Y4695*
Y4859*
X6487Y4854*
X6447*
X6419Y4882*
Y4922*
X6431Y4934*
Y4976*
X6385*
X6361Y5000*
Y4802*
G75*
G02X6348Y4771I-44J0*
G01*
X6243Y4665*
X6299Y4609*
G75*
G02X6312Y4577I-32J-32*
G01*
Y4438*
G75*
G02X6299Y4406I-46J0*
G01*
X6226Y4333*
Y3645*
X6341Y3841D02*
X6306Y3877D01*
Y3927*
X6341Y3963*
X6392*
X6428Y3927*
Y3877*
X6392Y3841*
X6341*
X6226Y3902D02*
G36*
Y3645D01*
X6256*
Y3657*
G75*
G02X6234Y3702I36J45*
G01*
G75*
G02X6349I58*
G01*
G75*
G02X6328Y3657I-58*
G01*
Y3646*
X6390*
Y3679*
X6421*
Y3689*
G75*
G02X6435Y3722I46*
G01*
X6541Y3828*
Y3884*
X6528*
Y3902*
X6428*
Y3877*
X6392Y3841*
X6341*
X6306Y3877*
Y3902*
X6226*
G37*
X6306D02*
G36*
Y3927D01*
X6341Y3963*
X6392*
X6428Y3927*
Y3902*
X6528*
Y4029*
X6681*
Y3961*
G75*
G02X6688Y3963I11J-34*
G01*
Y4030*
X6759*
X6756Y4032*
Y4072*
X6768Y4084*
Y4165*
X6740Y4136*
Y4119*
X6712Y4091*
X6672*
X6665Y4098*
Y4082*
X6637Y4054*
X6597*
X6569Y4082*
Y4122*
X6581Y4134*
Y4252*
X6576*
Y4339*
X6568*
X6554Y4326*
Y4132*
X6565Y4122*
Y4082*
X6537Y4054*
X6504*
Y4032*
X6515Y4022*
Y3982*
X6487Y3954*
X6447*
X6419Y3982*
Y4022*
X6429Y4032*
Y4386*
G75*
G02X6440Y4413I38J0*
G01*
X6468Y4441*
G75*
G02X6495Y4452I27J-27*
G01*
X6854*
G75*
G02X6881Y4441J-38*
G01*
X6931Y4391*
G75*
G02X6933Y4388I-27J-27*
G01*
X7021*
Y4375*
X7131*
Y4386*
G75*
G02X7141Y4412I36*
G01*
X7169Y4440*
G75*
G02X7195Y4450I25J-25*
G01*
X7304*
X7311Y4457*
X7141Y4626*
G75*
G02X7139Y4628I25J25*
G01*
X7090*
G75*
G02X7081Y4613I-36J11*
G01*
X6956Y4488*
G75*
G02X6929Y4477I-27J27*
G01*
X6497*
X6487Y4466*
X6447*
X6419Y4494*
Y4534*
X6447Y4562*
X6469*
G75*
G02X6468Y4563I26J27*
G01*
X6440Y4591*
G75*
G02X6429Y4617I27J27*
G01*
Y4621*
X6419Y4632*
Y4672*
X6447Y4700*
X6487*
X6492Y4695*
Y4859*
X6487Y4854*
X6447*
X6419Y4882*
Y4922*
X6431Y4934*
Y4976*
X6385*
X6361Y5000*
Y4802*
G75*
G02X6348Y4771I-44J0*
G01*
X6243Y4665*
X6299Y4609*
G75*
G02X6312Y4577I-32J-32*
G01*
Y4438*
G75*
G02X6299Y4406I-46J0*
G01*
X6226Y4333*
Y3902*
X6306*
G37*
X6400Y2451D02*
X6448D01*
X6476Y2423*
X6491Y2438*
X6543*
X6554Y2427*
Y2438*
X6656*
Y2457*
X6684Y2485*
X6724*
X6752Y2457*
Y2417*
X6740Y2405*
Y2337*
G75*
G02X6730Y2312I-36J0*
G01*
X6705Y2287*
G75*
G02X6715Y2262I-26J-25*
G01*
Y2222*
X6750*
Y2210*
X6787*
X6807Y2189*
G75*
G02X6815Y2201I35J-15*
G01*
X6909Y2295*
Y2333*
X6927*
X6909Y2351*
Y2399*
X6943Y2433*
X6991*
X7008Y2416*
X7037Y2446*
X7096*
X7126Y2416*
X7143Y2433*
X7145*
X7089Y2489*
X6400*
Y2451*
G36*
X6448*
X6476Y2423*
X6491Y2438*
X6543*
X6554Y2427*
Y2438*
X6656*
Y2457*
X6684Y2485*
X6724*
X6752Y2457*
Y2417*
X6740Y2405*
Y2337*
G75*
G02X6730Y2312I-36J0*
G01*
X6705Y2287*
G75*
G02X6715Y2262I-26J-25*
G01*
Y2222*
X6750*
Y2210*
X6787*
X6807Y2189*
G75*
G02X6815Y2201I35J-15*
G01*
X6909Y2295*
Y2333*
X6927*
X6909Y2351*
Y2399*
X6943Y2433*
X6991*
X7008Y2416*
X7037Y2446*
X7096*
X7126Y2416*
X7143Y2433*
X7145*
X7089Y2489*
X6400*
Y2451*
G37*
Y5128D02*
X6448D01*
X6476Y5100*
X6491Y5115*
X6543*
X6554Y5104*
Y5115*
X6656*
Y5134*
X6684Y5162*
X6724*
X6752Y5134*
Y5094*
X6740Y5082*
Y5014*
G75*
G02X6730Y4989I-36J0*
G01*
X6705Y4964*
G75*
G02X6715Y4939I-26J-25*
G01*
Y4899*
X6750*
Y4887*
X6787*
X6808Y4865*
G75*
G02X6816Y4877I33J-14*
G01*
X6909Y4970*
Y5010*
X6927*
X6909Y5028*
Y5076*
X6943Y5110*
X6991*
X7008Y5093*
X7037Y5123*
X7096*
X7126Y5093*
X7143Y5110*
X7145*
X7089Y5166*
X6400*
Y5128*
G36*
X6448*
X6476Y5100*
X6491Y5115*
X6543*
X6554Y5104*
Y5115*
X6656*
Y5134*
X6684Y5162*
X6724*
X6752Y5134*
Y5094*
X6740Y5082*
Y5014*
G75*
G02X6730Y4989I-36J0*
G01*
X6705Y4964*
G75*
G02X6715Y4939I-26J-25*
G01*
Y4899*
X6750*
Y4887*
X6787*
X6808Y4865*
G75*
G02X6816Y4877I33J-14*
G01*
X6909Y4970*
Y5010*
X6927*
X6909Y5028*
Y5076*
X6943Y5110*
X6991*
X7008Y5093*
X7037Y5123*
X7096*
X7126Y5093*
X7143Y5110*
X7145*
X7089Y5166*
X6400*
Y5128*
G37*
X6467Y925D02*
Y1012D01*
X6604Y1150*
X6467Y925D02*
X6292D01*
X6467Y3602D02*
Y3689D01*
X6604Y3827*
X6467Y3602D02*
X6292D01*
X6617Y2087D02*
Y2013D01*
Y4764D02*
Y4690D01*
X6816Y1226D02*
G75*
G02X6817Y1225I-24J-27D01*
G01*
X6842Y1200*
G75*
G02X6853Y1175I-25J-25*
G01*
Y1102*
X7017Y938*
G75*
G02X7028Y912I-25J-25*
G01*
Y867*
G75*
G02X7042Y849I-36J-43*
G01*
G75*
G02X7134Y861I50J-25*
G01*
G75*
G02X7243Y870I58J-37*
G01*
Y1127*
X7209*
X7184Y1152*
X7170*
X7190Y1132*
Y1092*
X7162Y1064*
X7122*
X7113Y1073*
G75*
G02X7027Y1064I-46J27*
G01*
X6979*
G75*
G02X6943Y1100J36*
G01*
Y1110*
X6917*
Y1329*
G75*
G02X6933Y1391I49J21*
G01*
X6924*
Y1388*
X6852*
Y1355*
X6829Y1331*
Y1247*
X6816*
Y1226*
G36*
G75*
G02X6817Y1225I-24J-27*
G01*
X6842Y1200*
G75*
G02X6853Y1175I-25J-25*
G01*
Y1102*
X7017Y938*
G75*
G02X7028Y912I-25J-25*
G01*
Y867*
G75*
G02X7042Y849I-36J-43*
G01*
G75*
G02X7134Y861I50J-25*
G01*
G75*
G02X7243Y870I58J-37*
G01*
Y1127*
X7209*
X7184Y1152*
X7170*
X7190Y1132*
Y1092*
X7162Y1064*
X7122*
X7113Y1073*
G75*
G02X7027Y1064I-46J27*
G01*
X6979*
G75*
G02X6943Y1100J36*
G01*
Y1110*
X6917*
Y1329*
G75*
G02X6933Y1391I49J21*
G01*
X6924*
Y1388*
X6852*
Y1355*
X6829Y1331*
Y1247*
X6816*
Y1226*
G37*
Y3903D02*
G75*
G02X6817Y3902I-24J-27D01*
G01*
X6842Y3877*
G75*
G02X6853Y3852I-25J-25*
G01*
Y3779*
X7017Y3615*
G75*
G02X7028Y3589I-25J-25*
G01*
Y3544*
G75*
G02X7042Y3526I-36J-43*
G01*
G75*
G02X7134Y3538I50J-25*
G01*
G75*
G02X7243Y3547I58J-37*
G01*
Y3804*
X7209*
X7184Y3829*
X7170*
X7190Y3809*
Y3769*
X7162Y3741*
X7122*
X7113Y3750*
G75*
G02X7027Y3741I-46J27*
G01*
X6979*
G75*
G02X6943Y3777J36*
G01*
Y3787*
X6917*
Y4006*
G75*
G02X6933Y4069I49J21*
G01*
X6924*
Y4065*
X6852*
Y4032*
X6829Y4009*
Y3924*
X6816*
Y3903*
G36*
G75*
G02X6817Y3902I-24J-27*
G01*
X6842Y3877*
G75*
G02X6853Y3852I-25J-25*
G01*
Y3779*
X7017Y3615*
G75*
G02X7028Y3589I-25J-25*
G01*
Y3544*
G75*
G02X7042Y3526I-36J-43*
G01*
G75*
G02X7134Y3538I50J-25*
G01*
G75*
G02X7243Y3547I58J-37*
G01*
Y3804*
X7209*
X7184Y3829*
X7170*
X7190Y3809*
Y3769*
X7162Y3741*
X7122*
X7113Y3750*
G75*
G02X7027Y3741I-46J27*
G01*
X6979*
G75*
G02X6943Y3777J36*
G01*
Y3787*
X6917*
Y4006*
G75*
G02X6933Y4069I49J21*
G01*
X6924*
Y4065*
X6852*
Y4032*
X6829Y4009*
Y3924*
X6816*
Y3903*
G37*
X7077Y1486D02*
X7150D01*
X7144Y1492*
Y1509*
X7113Y1540*
G75*
G02X7077Y1514I-46J27*
G01*
Y1486*
G36*
X7150*
X7144Y1492*
Y1509*
X7113Y1540*
G75*
G02X7077Y1514I-46J27*
G01*
Y1486*
G37*
Y4163D02*
X7150D01*
X7144Y4169*
Y4186*
X7113Y4217*
G75*
G02X7077Y4191I-46J27*
G01*
Y4163*
G36*
X7150*
X7144Y4169*
Y4186*
X7113Y4217*
G75*
G02X7077Y4191I-46J27*
G01*
Y4163*
G37*
X7104Y287D02*
X7217Y200D01*
X7104Y287D02*
Y687D01*
X7142Y725*
X7104Y287D02*
X6792D01*
X6592Y512*
Y787*
X6467Y912*
X7104Y2964D02*
X7217Y2877D01*
X7104Y2964D02*
Y3364D01*
X7142Y3402*
X7104Y2964D02*
X6792D01*
X6592Y3189*
Y3464*
X6467Y3589*
X7179Y725D02*
X7142D01*
X7179Y3402D02*
X7142D01*
X7604Y2037D02*
Y1450D01*
X7729Y1325*
X7604Y4714D02*
Y4127D01*
X7729Y4002*
X7678Y2166D02*
X7694D01*
G75*
G02X7693Y2175I35J8*
G01*
Y2180*
X7681Y2192*
Y2232*
X7709Y2260*
X7731*
Y2294*
X7735Y2299*
X7735*
X7708Y2326*
X7693Y2312*
X7678*
Y2166*
G36*
X7694*
G75*
G02X7693Y2175I35J8*
G01*
Y2180*
X7681Y2192*
Y2232*
X7709Y2260*
X7731*
Y2294*
X7735Y2299*
X7735*
X7708Y2326*
X7693Y2312*
X7678*
Y2166*
G37*
Y4843D02*
X7694D01*
G75*
G02X7693Y4852I35J8*
G01*
Y4857*
X7681Y4869*
Y4909*
X7709Y4937*
X7731*
Y4972*
X7735Y4976*
X7735*
X7708Y5003*
X7693Y4989*
X7678*
Y4843*
G36*
X7694*
G75*
G02X7693Y4852I35J8*
G01*
Y4857*
X7681Y4869*
Y4909*
X7709Y4937*
X7731*
Y4972*
X7735Y4976*
X7735*
X7708Y5003*
X7693Y4989*
X7678*
Y4843*
G37*
X7679Y1875D02*
X7687D01*
X7679Y4552D02*
X7687D01*
X7738Y1325D02*
X7842D01*
X7738Y4002D02*
X7842D01*
X7817Y2037D02*
X7902Y2103D01*
Y2341*
X7867Y2375*
X7817Y2037D02*
X7704D01*
X7817D02*
Y1975D01*
Y4714D02*
X7902Y4780D01*
Y5018*
X7867Y5052*
X7817Y4714D02*
X7704D01*
X7817D02*
Y4652D01*
X7861Y1992D02*
G75*
G02X7869Y1989I-3J-21D01*
G01*
X7878*
G75*
G02X7902Y1987I11J-19*
G01*
Y1989*
X8002*
Y1986*
X8041*
X8056Y2000*
Y2022*
X7935*
Y2074*
G75*
G02X7929Y2068I-33J29*
G01*
X7886Y2035*
Y2035*
X7886*
X7861Y2016*
Y1992*
G36*
G75*
G02X7869Y1989I-3J-21*
G01*
X7878*
G75*
G02X7902Y1987I11J-19*
G01*
Y1989*
X8002*
Y1986*
X8041*
X8056Y2000*
Y2022*
X7935*
Y2074*
G75*
G02X7929Y2068I-33J29*
G01*
X7886Y2035*
Y2035*
X7886*
X7861Y2016*
Y1992*
G37*
Y4669D02*
G75*
G02X7869Y4667I-3J-21D01*
G01*
X7878*
G75*
G02X7902Y4664I11J-19*
G01*
Y4667*
X8002*
Y4663*
X8041*
X8056Y4677*
Y4699*
X7935*
Y4751*
G75*
G02X7929Y4746I-33J29*
G01*
X7886Y4712*
Y4712*
X7885*
X7861Y4693*
Y4669*
G36*
G75*
G02X7869Y4667I-3J-21*
G01*
X7878*
G75*
G02X7902Y4664I11J-19*
G01*
Y4667*
X8002*
Y4663*
X8041*
X8056Y4677*
Y4699*
X7935*
Y4751*
G75*
G02X7929Y4746I-33J29*
G01*
X7886Y4712*
Y4712*
X7885*
X7861Y4693*
Y4669*
G37*
X7894Y2439D02*
G75*
G02X7894Y2437I-65J-1D01*
G01*
G75*
G02X7894Y2436I-65J0*
G01*
X7930Y2401*
Y2375*
X7932Y2372*
G75*
G02X7946Y2341I-31J-32*
G01*
Y2277*
X8056*
Y2347*
X7964Y2439*
X7894*
G36*
G75*
G02X7894Y2437I-65J-1*
G01*
G75*
G02X7894Y2436I-65J0*
G01*
X7930Y2401*
Y2375*
X7932Y2372*
G75*
G02X7946Y2341I-31J-32*
G01*
Y2277*
X8056*
Y2347*
X7964Y2439*
X7894*
G37*
Y5116D02*
G75*
G02X7894Y5114I-65J-1D01*
G01*
G75*
G02X7894Y5113I-65J0*
G01*
X7930Y5078*
Y5052*
X7932Y5049*
G75*
G02X7946Y5018I-31J-32*
G01*
Y4955*
X8056*
Y5024*
X7964Y5116*
X7894*
G36*
G75*
G02X7894Y5114I-65J-1*
G01*
G75*
G02X7894Y5113I-65J0*
G01*
X7930Y5078*
Y5052*
X7932Y5049*
G75*
G02X7946Y5018I-31J-32*
G01*
Y4955*
X8056*
Y5024*
X7964Y5116*
X7894*
G37*
X8517Y1925D02*
Y1562D01*
X8467Y1512*
X8517Y4602D02*
Y4239D01*
X8467Y4189*
D02*
D151*
X1219Y1441D03*
Y1508D03*
Y4118D03*
Y4185D03*
X1269Y1441D03*
Y1508D03*
Y4118D03*
Y4185D03*
X1935Y2037D03*
Y2104D03*
Y4714D03*
Y4781D03*
X2094Y1266D03*
Y1333D03*
Y3943D03*
Y4010D03*
X4093Y1441D03*
Y1508D03*
Y4118D03*
Y4185D03*
X4143Y1441D03*
Y1508D03*
Y4118D03*
Y4185D03*
X4809Y2037D03*
Y2104D03*
Y4714D03*
Y4781D03*
X4968Y1266D03*
Y1333D03*
Y3943D03*
Y4010D03*
X6967Y1441D03*
Y1508D03*
Y4118D03*
Y4185D03*
X7017Y1441D03*
Y1508D03*
Y4118D03*
Y4185D03*
X7683Y2037D03*
Y2104D03*
Y4714D03*
Y4781D03*
X7842Y1266D03*
Y1333D03*
Y3943D03*
Y4010D03*
D02*
D152*
X885Y2100D03*
Y2175D03*
Y4777D03*
Y4852D03*
X952Y2100D03*
Y2175D03*
Y4777D03*
Y4852D03*
X3759Y2100D03*
Y2175D03*
Y4777D03*
Y4852D03*
X3826Y2100D03*
Y2175D03*
Y4777D03*
Y4852D03*
X6633Y2100D03*
Y2175D03*
Y4777D03*
Y4852D03*
X6700Y2100D03*
Y2175D03*
Y4777D03*
Y4852D03*
D02*
D153*
X359Y575D03*
Y3252D03*
X479Y575D03*
Y3252D03*
X3233Y575D03*
Y3252D03*
X3353Y575D03*
Y3252D03*
X6107Y575D03*
Y3252D03*
X6227Y575D03*
Y3252D03*
D02*
D154*
X856Y1169D03*
Y1280D03*
Y3847D03*
Y3957D03*
X3730Y1169D03*
Y1280D03*
Y3847D03*
Y3957D03*
X6604Y1169D03*
Y1280D03*
Y3847D03*
Y3957D03*
D02*
D155*
X719Y725D03*
Y924D03*
Y3402D03*
Y3601D03*
X3593Y725D03*
Y924D03*
Y3402D03*
Y3601D03*
X6467Y725D03*
Y924D03*
Y3402D03*
Y3601D03*
D02*
D156*
X1044Y475D03*
Y3152D03*
X1494Y475D03*
Y3152D03*
X1994Y475D03*
Y3152D03*
X2444Y475D03*
Y3152D03*
X3918Y475D03*
Y3152D03*
X4368Y475D03*
Y3152D03*
X4868Y475D03*
Y3152D03*
X5318Y475D03*
Y3152D03*
X6792Y475D03*
Y3152D03*
X7242Y475D03*
Y3152D03*
X7742Y475D03*
Y3152D03*
X8192Y475D03*
Y3152D03*
D02*
D157*
X1744Y642D03*
Y808D03*
Y3319D03*
Y3485D03*
X4618Y642D03*
Y808D03*
Y3319D03*
Y3485D03*
X7492Y642D03*
Y808D03*
Y3319D03*
Y3485D03*
D02*
D158*
X2066Y2075D03*
Y2125D03*
Y2175D03*
Y2225D03*
Y4752D03*
Y4802D03*
Y4852D03*
Y4902D03*
X2271Y2075D03*
Y2125D03*
Y2175D03*
Y2225D03*
Y4752D03*
Y4802D03*
Y4852D03*
Y4902D03*
X4940Y2075D03*
Y2125D03*
Y2175D03*
Y2225D03*
Y4752D03*
Y4802D03*
Y4852D03*
Y4902D03*
X5145Y2075D03*
Y2125D03*
Y2175D03*
Y2225D03*
Y4752D03*
Y4802D03*
Y4852D03*
Y4902D03*
X7814Y2075D03*
Y2125D03*
Y2175D03*
Y2225D03*
Y4752D03*
Y4802D03*
Y4852D03*
Y4902D03*
X8019Y2075D03*
Y2125D03*
Y2175D03*
Y2225D03*
Y4752D03*
Y4802D03*
Y4852D03*
Y4902D03*
D02*
D159*
X1748Y1025D03*
Y1075D03*
Y1125D03*
Y1175D03*
Y1225D03*
Y1275D03*
Y1325D03*
Y3702D03*
Y3752D03*
Y3802D03*
Y3852D03*
Y3902D03*
Y3952D03*
Y4002D03*
X1990Y1025D03*
Y1075D03*
Y1125D03*
Y1175D03*
Y1225D03*
Y1275D03*
Y1325D03*
Y3702D03*
Y3752D03*
Y3802D03*
Y3852D03*
Y3902D03*
Y3952D03*
Y4002D03*
X4622Y1025D03*
Y1075D03*
Y1125D03*
Y1175D03*
Y1225D03*
Y1275D03*
Y1325D03*
Y3702D03*
Y3752D03*
Y3802D03*
Y3852D03*
Y3902D03*
Y3952D03*
Y4002D03*
X4864Y1025D03*
Y1075D03*
Y1125D03*
Y1175D03*
Y1225D03*
Y1275D03*
Y1325D03*
Y3702D03*
Y3752D03*
Y3802D03*
Y3852D03*
Y3902D03*
Y3952D03*
Y4002D03*
X7496Y1025D03*
Y1075D03*
Y1125D03*
Y1175D03*
Y1225D03*
Y1275D03*
Y1325D03*
Y3702D03*
Y3752D03*
Y3802D03*
Y3852D03*
Y3902D03*
Y3952D03*
Y4002D03*
X7738Y1025D03*
Y1075D03*
Y1125D03*
Y1175D03*
Y1225D03*
Y1275D03*
Y1325D03*
Y3702D03*
Y3752D03*
Y3802D03*
Y3852D03*
Y3902D03*
Y3952D03*
Y4002D03*
D02*
D160*
X1010Y1150D03*
Y1200D03*
Y1250D03*
Y1300D03*
Y3827D03*
Y3877D03*
Y3927D03*
Y3977D03*
X1227Y1150D03*
Y1200D03*
Y1250D03*
Y1300D03*
Y3827D03*
Y3877D03*
Y3927D03*
Y3977D03*
X3884Y1150D03*
Y1200D03*
Y1250D03*
Y1300D03*
Y3827D03*
Y3877D03*
Y3927D03*
Y3977D03*
X4101Y1150D03*
Y1200D03*
Y1250D03*
Y1300D03*
Y3827D03*
Y3877D03*
Y3927D03*
Y3977D03*
X6758Y1150D03*
Y1200D03*
Y1250D03*
Y1300D03*
Y3827D03*
Y3877D03*
Y3927D03*
Y3977D03*
X6975Y1150D03*
Y1200D03*
Y1250D03*
Y1300D03*
Y3827D03*
Y3877D03*
Y3927D03*
Y3977D03*
D02*
D161*
X541Y734D03*
Y825D03*
Y916D03*
Y3411D03*
Y3502D03*
Y3593D03*
X3415Y734D03*
Y825D03*
Y916D03*
Y3411D03*
Y3502D03*
Y3593D03*
X6289Y734D03*
Y825D03*
Y916D03*
Y3411D03*
Y3502D03*
Y3593D03*
D02*
D162*
X297Y825D03*
Y3502D03*
X3171Y825D03*
Y3502D03*
X6045Y825D03*
Y3502D03*
D02*
D163*
X2319Y1091D03*
Y1308D03*
Y3769D03*
Y3985D03*
X2519Y1091D03*
Y1308D03*
Y3769D03*
Y3985D03*
X2719Y1091D03*
Y1308D03*
Y3769D03*
Y3985D03*
X5193Y1091D03*
Y1308D03*
Y3769D03*
Y3985D03*
X5393Y1091D03*
Y1308D03*
Y3769D03*
Y3985D03*
X5593Y1091D03*
Y1308D03*
Y3769D03*
Y3985D03*
X8067Y1091D03*
Y1308D03*
Y3769D03*
Y3985D03*
X8267Y1091D03*
Y1308D03*
Y3769D03*
Y3985D03*
X8467Y1091D03*
Y1308D03*
Y3769D03*
Y3985D03*
D02*
D164*
X1119Y1441D03*
Y1508D03*
Y4118D03*
Y4185D03*
X1469Y1291D03*
Y1358D03*
Y3968D03*
Y4035D03*
X1594Y1291D03*
Y1358D03*
Y3968D03*
Y4035D03*
X1708Y2049D03*
Y2116D03*
Y4726D03*
Y4793D03*
X1844Y2041D03*
Y2108D03*
Y4718D03*
Y4785D03*
X2319Y1441D03*
Y1508D03*
Y4118D03*
Y4185D03*
X2519Y1441D03*
Y1508D03*
Y4118D03*
Y4185D03*
X2719Y1441D03*
Y1508D03*
Y4118D03*
Y4185D03*
X3993Y1441D03*
Y1508D03*
Y4118D03*
Y4185D03*
X4343Y1291D03*
Y1358D03*
Y3968D03*
Y4035D03*
X4468Y1291D03*
Y1358D03*
Y3968D03*
Y4035D03*
X4582Y2049D03*
Y2116D03*
Y4726D03*
Y4793D03*
X4718Y2041D03*
Y2108D03*
Y4718D03*
Y4785D03*
X5193Y1441D03*
Y1508D03*
Y4118D03*
Y4185D03*
X5393Y1441D03*
Y1508D03*
Y4118D03*
Y4185D03*
X5593Y1441D03*
Y1508D03*
Y4118D03*
Y4185D03*
X6867Y1441D03*
Y1508D03*
Y4118D03*
Y4185D03*
X7217Y1291D03*
Y1358D03*
Y3968D03*
Y4035D03*
X7342Y1291D03*
Y1358D03*
Y3968D03*
Y4035D03*
X7456Y2049D03*
Y2116D03*
Y4726D03*
Y4793D03*
X7592Y2041D03*
Y2108D03*
Y4718D03*
Y4785D03*
X8067Y1441D03*
Y1508D03*
Y4118D03*
Y4185D03*
X8267Y1441D03*
Y1508D03*
Y4118D03*
Y4185D03*
X8467Y1441D03*
Y1508D03*
Y4118D03*
Y4185D03*
D02*
D165*
X1939Y1875D03*
Y4552D03*
X1999Y1875D03*
Y4552D03*
X4813Y1875D03*
Y4552D03*
X4873Y1875D03*
Y4552D03*
X7687Y1875D03*
Y4552D03*
X7747Y1875D03*
Y4552D03*
D02*
D166*
X919Y725D03*
Y3402D03*
X932Y1082D03*
Y3759D03*
X1219Y1350D03*
Y4027D03*
X1319Y1100D03*
Y1200D03*
Y1567D03*
Y3777D03*
Y3877D03*
Y4244D03*
X1394Y2125D03*
Y4802D03*
X1469Y2125D03*
Y4802D03*
X1619Y1075D03*
Y3752D03*
X1819Y400D03*
Y3077D03*
X2119Y1075D03*
Y3752D03*
X3793Y725D03*
Y3402D03*
X3806Y1082D03*
Y3759D03*
X4093Y1350D03*
Y4027D03*
X4193Y1100D03*
Y1200D03*
Y1567D03*
Y3777D03*
Y3877D03*
Y4244D03*
X4268Y2125D03*
Y4802D03*
X4343Y2125D03*
Y4802D03*
X4493Y1075D03*
Y3752D03*
X4693Y400D03*
Y3077D03*
X4993Y1075D03*
Y3752D03*
X6667Y725D03*
Y3402D03*
X6680Y1082D03*
Y3759D03*
X6967Y1350D03*
Y4027D03*
X7067Y1100D03*
Y1200D03*
Y1567D03*
Y3777D03*
Y3877D03*
Y4244D03*
X7142Y2125D03*
Y4802D03*
X7217Y2125D03*
Y4802D03*
X7367Y1075D03*
Y3752D03*
X7567Y400D03*
Y3077D03*
X7867Y1075D03*
Y3752D03*
D02*
D167*
X244Y575D03*
Y3252D03*
X544Y1025D03*
Y3702D03*
X3118Y575D03*
Y3252D03*
X3418Y1025D03*
Y3702D03*
X5992Y575D03*
Y3252D03*
X6292Y1025D03*
Y3702D03*
D02*
D168*
X2094Y1875D03*
Y1912D03*
Y1950D03*
Y4552D03*
Y4589D03*
Y4627D03*
X2204Y1875D03*
Y1950D03*
Y4552D03*
Y4627D03*
X4968Y1875D03*
Y1912D03*
Y1950D03*
Y4552D03*
Y4589D03*
Y4627D03*
X5078Y1875D03*
Y1950D03*
Y4552D03*
Y4627D03*
X7842Y1875D03*
Y1912D03*
Y1950D03*
Y4552D03*
Y4589D03*
Y4627D03*
X7952Y1875D03*
Y1950D03*
Y4552D03*
Y4627D03*
D02*
D169*
X869Y1636D03*
Y2013D03*
Y4314D03*
Y4690D03*
X919Y1636D03*
Y2013D03*
Y4314D03*
Y4690D03*
X969Y1636D03*
Y2013D03*
Y4314D03*
Y4690D03*
X1019Y1636D03*
Y2013D03*
Y4314D03*
Y4690D03*
X1069Y1636D03*
Y2013D03*
Y4314D03*
Y4690D03*
X1119Y1636D03*
Y2013D03*
Y4314D03*
Y4690D03*
X1169Y1636D03*
Y2013D03*
Y4314D03*
Y4690D03*
X1219Y1636D03*
Y2013D03*
Y4314D03*
Y4690D03*
X1269Y1636D03*
Y2013D03*
Y4314D03*
Y4690D03*
X1319Y1636D03*
Y2013D03*
Y4314D03*
Y4690D03*
X1369Y1636D03*
Y2013D03*
Y4314D03*
Y4690D03*
X1419Y1636D03*
Y2013D03*
Y4314D03*
Y4690D03*
X1469Y1636D03*
Y2013D03*
Y4314D03*
Y4690D03*
X1519Y1636D03*
Y2013D03*
Y4314D03*
Y4690D03*
X3743Y1636D03*
Y2013D03*
Y4314D03*
Y4690D03*
X3793Y1636D03*
Y2013D03*
Y4314D03*
Y4690D03*
X3843Y1636D03*
Y2013D03*
Y4314D03*
Y4690D03*
X3893Y1636D03*
Y2013D03*
Y4314D03*
Y4690D03*
X3943Y1636D03*
Y2013D03*
Y4314D03*
Y4690D03*
X3993Y1636D03*
Y2013D03*
Y4314D03*
Y4690D03*
X4043Y1636D03*
Y2013D03*
Y4314D03*
Y4690D03*
X4093Y1636D03*
Y2013D03*
Y4314D03*
Y4690D03*
X4143Y1636D03*
Y2013D03*
Y4314D03*
Y4690D03*
X4193Y1636D03*
Y2013D03*
Y4314D03*
Y4690D03*
X4243Y1636D03*
Y2013D03*
Y4314D03*
Y4690D03*
X4293Y1636D03*
Y2013D03*
Y4314D03*
Y4690D03*
X4343Y1636D03*
Y2013D03*
Y4314D03*
Y4690D03*
X4393Y1636D03*
Y2013D03*
Y4314D03*
Y4690D03*
X6617Y1636D03*
Y2013D03*
Y4314D03*
Y4690D03*
X6667Y1636D03*
Y2013D03*
Y4314D03*
Y4690D03*
X6717Y1636D03*
Y2013D03*
Y4314D03*
Y4690D03*
X6767Y1636D03*
Y2013D03*
Y4314D03*
Y4690D03*
X6817Y1636D03*
Y2013D03*
Y4314D03*
Y4690D03*
X6867Y1636D03*
Y2013D03*
Y4314D03*
Y4690D03*
X6917Y1636D03*
Y2013D03*
Y4314D03*
Y4690D03*
X6967Y1636D03*
Y2013D03*
Y4314D03*
Y4690D03*
X7017Y1636D03*
Y2013D03*
Y4314D03*
Y4690D03*
X7067Y1636D03*
Y2013D03*
Y4314D03*
Y4690D03*
X7117Y1636D03*
Y2013D03*
Y4314D03*
Y4690D03*
X7167Y1636D03*
Y2013D03*
Y4314D03*
Y4690D03*
X7217Y1636D03*
Y2013D03*
Y4314D03*
Y4690D03*
X7267Y1636D03*
Y2013D03*
Y4314D03*
Y4690D03*
D02*
D170*
X589Y2475D03*
Y5150D03*
X619Y1225D03*
Y3902D03*
X719Y1325D03*
Y1837D03*
Y1975D03*
Y2225D03*
Y4002D03*
Y4514D03*
Y4652D03*
Y4902D03*
X769Y1425D03*
Y4102D03*
X781Y2237D03*
Y4914D03*
X869Y1425D03*
Y4102D03*
X881Y2237D03*
Y4914D03*
X919Y1525D03*
Y4202D03*
X944Y1200D03*
Y1462D03*
Y3877D03*
Y4139D03*
X956Y2437D03*
Y5114D03*
X969Y1562D03*
Y4239D03*
X1019Y2162D03*
Y4839D03*
X1056Y1375D03*
Y4052D03*
X1206Y2162D03*
Y4839D03*
X1294Y387D03*
Y3064D03*
X1306Y2087D03*
Y4764D03*
X1394Y1112D03*
Y3789D03*
X1419Y1200D03*
Y3877D03*
X1444Y1512D03*
Y4189D03*
X1469Y200D03*
Y2877D03*
X1481Y1175D03*
Y1562D03*
Y3852D03*
Y4239D03*
X1569Y1650D03*
Y4327D03*
X1581Y812D03*
Y1012D03*
Y1225D03*
Y3489D03*
Y3689D03*
Y3902D03*
X1588Y1737D03*
Y4414D03*
X1619Y1175D03*
Y3852D03*
X1656Y812D03*
Y3489D03*
X1831Y1125D03*
Y3802D03*
X1931Y1975D03*
Y4652D03*
X1981Y2212D03*
Y4889D03*
X2031Y1512D03*
Y2275D03*
Y4189D03*
Y4952D03*
X2319Y1737D03*
Y4414D03*
X2831Y987D03*
Y3664D03*
X3464Y2475D03*
Y5150D03*
X3493Y1225D03*
Y3902D03*
X3593Y1325D03*
Y1837D03*
Y1975D03*
Y2225D03*
Y4002D03*
Y4514D03*
Y4652D03*
Y4902D03*
X3643Y1425D03*
Y4102D03*
X3655Y2237D03*
Y4914D03*
X3743Y1425D03*
Y4102D03*
X3755Y2237D03*
Y4914D03*
X3793Y1525D03*
Y4202D03*
X3818Y1200D03*
Y1462D03*
Y3877D03*
Y4139D03*
X3830Y2437D03*
Y5114D03*
X3843Y1562D03*
Y4239D03*
X3893Y2162D03*
Y4839D03*
X3930Y1375D03*
Y4052D03*
X4080Y2162D03*
Y4839D03*
X4168Y387D03*
Y3064D03*
X4180Y2087D03*
Y4764D03*
X4268Y1112D03*
Y3789D03*
X4293Y1200D03*
Y3877D03*
X4318Y1512D03*
Y4189D03*
X4343Y200D03*
Y2877D03*
X4355Y1175D03*
Y1562D03*
Y3852D03*
Y4239D03*
X4443Y1650D03*
Y4327D03*
X4455Y812D03*
Y1012D03*
Y1225D03*
Y3489D03*
Y3689D03*
Y3902D03*
X4462Y1737D03*
Y4414D03*
X4493Y1175D03*
Y3852D03*
X4530Y812D03*
Y3489D03*
X4705Y1125D03*
Y3802D03*
X4805Y1975D03*
Y4652D03*
X4855Y2212D03*
Y4889D03*
X4905Y1512D03*
Y2275D03*
Y4189D03*
Y4952D03*
X5193Y1737D03*
Y4414D03*
X5705Y987D03*
Y3664D03*
X6339Y2475D03*
Y5150D03*
X6367Y1225D03*
Y3902D03*
X6467Y1325D03*
Y1837D03*
Y1975D03*
Y2225D03*
Y4002D03*
Y4514D03*
Y4652D03*
Y4902D03*
X6517Y1425D03*
Y4102D03*
X6529Y2237D03*
Y4914D03*
X6617Y1425D03*
Y4102D03*
X6629Y2237D03*
Y4914D03*
X6667Y1525D03*
Y4202D03*
X6692Y1200D03*
Y1462D03*
Y3877D03*
Y4139D03*
X6704Y2437D03*
Y5114D03*
X6717Y1562D03*
Y4239D03*
X6767Y2162D03*
Y4839D03*
X6804Y1375D03*
Y4052D03*
X6954Y2162D03*
Y4839D03*
X7042Y387D03*
Y3064D03*
X7054Y2087D03*
Y4764D03*
X7142Y1112D03*
Y3789D03*
X7167Y1200D03*
Y3877D03*
X7192Y1512D03*
Y4189D03*
X7217Y200D03*
Y2877D03*
X7229Y1175D03*
Y1562D03*
Y3852D03*
Y4239D03*
X7317Y1650D03*
Y4327D03*
X7329Y812D03*
Y1012D03*
Y1225D03*
Y3489D03*
Y3689D03*
Y3902D03*
X7336Y1737D03*
Y4414D03*
X7367Y1175D03*
Y3852D03*
X7404Y812D03*
Y3489D03*
X7579Y1125D03*
Y3802D03*
X7679Y1975D03*
Y4652D03*
X7729Y2212D03*
Y4889D03*
X7779Y1512D03*
Y2275D03*
Y4189D03*
Y4952D03*
X8067Y1737D03*
Y4414D03*
X8579Y987D03*
Y3664D03*
D02*
D171*
X319Y275D03*
Y2475D03*
Y2952D03*
Y5152D03*
X2719Y275D03*
Y2475D03*
Y2952D03*
Y5152D03*
X3193Y275D03*
Y2475D03*
Y2952D03*
Y5152D03*
X5593Y275D03*
Y2475D03*
Y2952D03*
Y5152D03*
X6067Y275D03*
Y2475D03*
Y2952D03*
Y5152D03*
X8467Y275D03*
Y2475D03*
Y2952D03*
Y5152D03*
X0Y0D02*
M02*
