M48
INCH
T1C00.024
T2C00.035
T3C00.040
T4C00.126
T5C00.128
%
T001
X00589Y02475
X00589Y05150
X00619Y01225
X00619Y03902
X00719Y01325
X00719Y01837
X00719Y01975
X00719Y02225
X00719Y04002
X00719Y04514
X00719Y04652
X00719Y04902
X00769Y01425
X00769Y04102
X00781Y02237
X00781Y04914
X00869Y01425
X00869Y04102
X00881Y02237
X00881Y04914
X00919Y01525
X00919Y04202
X00944Y01200
X00944Y01462
X00944Y03877
X00944Y04139
X00956Y02437
X00956Y05114
X00969Y01562
X00969Y04239
X01019Y02162
X01019Y04839
X01056Y01375
X01056Y04052
X01206Y02162
X01206Y04839
X01294Y00387
X01294Y03064
X01306Y02087
X01306Y04764
X01394Y01112
X01394Y03789
X01419Y01200
X01419Y03877
X01444Y01512
X01444Y04189
X01469Y00200
X01469Y02877
X01481Y01175
X01481Y01562
X01481Y03852
X01481Y04239
X01569Y01650
X01569Y04327
X01581Y00812
X01581Y01012
X01581Y01225
X01581Y03489
X01581Y03689
X01581Y03902
X01588Y01737
X01588Y04414
X01619Y01175
X01619Y03852
X01656Y00812
X01656Y03489
X01831Y01125
X01831Y03802
X01931Y01975
X01931Y04652
X01981Y02212
X01981Y04889
X02031Y01512
X02031Y02275
X02031Y04189
X02031Y04952
X02081Y02437
X02081Y05114
X02181Y00662
X02181Y03339
X02319Y01737
X02319Y04414
X02831Y00987
X02831Y03664
X03464Y02475
X03464Y05150
X03493Y01225
X03493Y03902
X03593Y01325
X03593Y01837
X03593Y01975
X03593Y02225
X03593Y04002
X03593Y04514
X03593Y04652
X03593Y04902
X03643Y01425
X03643Y04102
X03655Y02237
X03655Y04914
X03743Y01425
X03743Y04102
X03755Y02237
X03755Y04914
X03793Y01525
X03793Y04202
X03818Y01200
X03818Y01462
X03818Y03877
X03818Y04139
X03830Y02437
X03830Y05114
X03843Y01562
X03843Y04239
X03893Y02162
X03893Y04839
X03930Y01375
X03930Y04052
X04080Y02162
X04080Y04839
X04168Y00387
X04168Y03064
X04180Y02087
X04180Y04764
X04268Y01112
X04268Y03789
X04293Y01200
X04293Y03877
X04318Y01512
X04318Y04189
X04343Y00200
X04343Y02877
X04355Y01175
X04355Y01562
X04355Y03852
X04355Y04239
X04443Y01650
X04443Y04327
X04455Y00812
X04455Y01012
X04455Y01225
X04455Y03489
X04455Y03689
X04455Y03902
X04462Y01737
X04462Y04414
X04493Y01175
X04493Y03852
X04530Y00812
X04530Y03489
X04705Y01125
X04705Y03802
X04805Y01975
X04805Y04652
X04855Y02212
X04855Y04889
X04905Y01512
X04905Y02275
X04905Y04189
X04905Y04952
X04955Y02437
X04955Y05114
X05055Y00662
X05055Y03339
X05193Y01737
X05193Y04414
X05705Y00987
X05705Y03664
X06339Y02475
X06339Y05150
X06367Y01225
X06367Y03902
X06467Y01325
X06467Y01837
X06467Y01975
X06467Y02225
X06467Y04002
X06467Y04514
X06467Y04652
X06467Y04902
X06517Y01425
X06517Y04102
X06529Y02237
X06529Y04914
X06617Y01425
X06617Y04102
X06629Y02237
X06629Y04914
X06667Y01525
X06667Y04202
X06692Y01200
X06692Y01462
X06692Y03877
X06692Y04139
X06704Y02437
X06704Y05114
X06717Y01562
X06717Y04239
X06767Y02162
X06767Y04839
X06804Y01375
X06804Y04052
X06954Y02162
X06954Y04839
X07042Y00387
X07042Y03064
X07054Y02087
X07054Y04764
X07142Y01112
X07142Y03789
X07167Y01200
X07167Y03877
X07192Y01512
X07192Y04189
X07217Y00200
X07217Y02877
X07229Y01175
X07229Y01562
X07229Y03852
X07229Y04239
X07317Y01650
X07317Y04327
X07329Y00812
X07329Y01012
X07329Y01225
X07329Y03489
X07329Y03689
X07329Y03902
X07336Y01737
X07336Y04414
X07367Y01175
X07367Y03852
X07404Y00812
X07404Y03489
X07579Y01125
X07579Y03802
X07679Y01975
X07679Y04652
X07729Y02212
X07729Y04889
X07779Y01512
X07779Y02275
X07779Y04189
X07779Y04952
X07829Y02437
X07829Y05114
X07929Y00662
X07929Y03339
X08067Y01737
X08067Y04414
X08579Y00987
X08579Y03664
T002
X01094Y00725
X01094Y03402
X01144Y00825
X01144Y03502
X01194Y00725
X01194Y03402
X01244Y00825
X01244Y03502
X01294Y00725
X01294Y03402
X01344Y00825
X01344Y03502
X01394Y00725
X01394Y03402
X01444Y00825
X01444Y03502
X02044Y00725
X02044Y03402
X02094Y00825
X02094Y03502
X02144Y00725
X02144Y03402
X02194Y00825
X02194Y03502
X02244Y00725
X02244Y03402
X02294Y00825
X02294Y03502
X02344Y00725
X02344Y03402
X02394Y00825
X02394Y03502
X03968Y00725
X03968Y03402
X04018Y00825
X04018Y03502
X04068Y00725
X04068Y03402
X04118Y00825
X04118Y03502
X04168Y00725
X04168Y03402
X04218Y00825
X04218Y03502
X04268Y00725
X04268Y03402
X04318Y00825
X04318Y03502
X04918Y00725
X04918Y03402
X04968Y00825
X04968Y03502
X05018Y00725
X05018Y03402
X05068Y00825
X05068Y03502
X05118Y00725
X05118Y03402
X05168Y00825
X05168Y03502
X05218Y00725
X05218Y03402
X05268Y00825
X05268Y03502
X06842Y00725
X06842Y03402
X06892Y00825
X06892Y03502
X06942Y00725
X06942Y03402
X06992Y00825
X06992Y03502
X07042Y00725
X07042Y03402
X07092Y00825
X07092Y03502
X07142Y00725
X07142Y03402
X07192Y00825
X07192Y03502
X07792Y00725
X07792Y03402
X07842Y00825
X07842Y03502
X07892Y00725
X07892Y03402
X07942Y00825
X07942Y03502
X07992Y00725
X07992Y03402
X08042Y00825
X08042Y03502
X08092Y00725
X08092Y03402
X08142Y00825
X08142Y03502
T003
X00269Y01175
X00269Y01275
X00269Y01375
X00269Y01475
X00269Y01575
X00269Y01675
X00269Y01825
X00269Y01925
X00269Y02025
X00269Y03852
X00269Y03952
X00269Y04052
X00269Y04152
X00269Y04252
X00269Y04352
X00269Y04502
X00269Y04602
X00269Y04702
X00369Y01825
X00369Y01925
X00369Y02025
X00369Y04502
X00369Y04602
X00369Y04702
X00569Y02375
X00569Y05052
X00669Y02375
X00669Y05052
X00769Y02375
X00769Y05052
X00869Y02375
X00869Y05052
X01219Y02275
X01219Y02375
X01219Y04952
X01219Y05052
X01319Y02275
X01319Y02375
X01319Y04952
X01319Y05052
X01419Y02275
X01419Y02375
X01419Y04952
X01419Y05052
X01819Y02375
X01819Y05052
X01919Y02375
X01919Y05052
X02019Y02375
X02019Y05052
X02119Y02375
X02119Y05052
X02769Y01925
X02769Y02025
X02769Y02125
X02769Y02225
X02769Y04602
X02769Y04702
X02769Y04802
X02769Y04902
X03143Y01175
X03143Y01275
X03143Y01375
X03143Y01475
X03143Y01575
X03143Y01675
X03143Y01825
X03143Y01925
X03143Y02025
X03143Y03852
X03143Y03952
X03143Y04052
X03143Y04152
X03143Y04252
X03143Y04352
X03143Y04502
X03143Y04602
X03143Y04702
X03243Y01825
X03243Y01925
X03243Y02025
X03243Y04502
X03243Y04602
X03243Y04702
X03443Y02375
X03443Y05052
X03543Y02375
X03543Y05052
X03643Y02375
X03643Y05052
X03743Y02375
X03743Y05052
X04093Y02275
X04093Y02375
X04093Y04952
X04093Y05052
X04193Y02275
X04193Y02375
X04193Y04952
X04193Y05052
X04293Y02275
X04293Y02375
X04293Y04952
X04293Y05052
X04693Y02375
X04693Y05052
X04793Y02375
X04793Y05052
X04893Y02375
X04893Y05052
X04993Y02375
X04993Y05052
X05643Y01925
X05643Y02025
X05643Y02125
X05643Y02225
X05643Y04602
X05643Y04702
X05643Y04802
X05643Y04902
X06017Y01175
X06017Y01275
X06017Y01375
X06017Y01475
X06017Y01575
X06017Y01675
X06017Y01825
X06017Y01925
X06017Y02025
X06017Y03852
X06017Y03952
X06017Y04052
X06017Y04152
X06017Y04252
X06017Y04352
X06017Y04502
X06017Y04602
X06017Y04702
X06117Y01825
X06117Y01925
X06117Y02025
X06117Y04502
X06117Y04602
X06117Y04702
X06317Y02375
X06317Y05052
X06417Y02375
X06417Y05052
X06517Y02375
X06517Y05052
X06617Y02375
X06617Y05052
X06967Y02275
X06967Y02375
X06967Y04952
X06967Y05052
X07067Y02275
X07067Y02375
X07067Y04952
X07067Y05052
X07167Y02275
X07167Y02375
X07167Y04952
X07167Y05052
X07567Y02375
X07567Y05052
X07667Y02375
X07667Y05052
X07767Y02375
X07767Y05052
X07867Y02375
X07867Y05052
X08517Y01925
X08517Y02025
X08517Y02125
X08517Y02225
X08517Y04602
X08517Y04702
X08517Y04802
X08517Y04902
T004
X00319Y00275
X00319Y02475
X00319Y02952
X00319Y05152
X02719Y00275
X02719Y02475
X02719Y02952
X02719Y05152
X03193Y00275
X03193Y02475
X03193Y02952
X03193Y05152
X05593Y00275
X05593Y02475
X05593Y02952
X05593Y05152
X06067Y00275
X06067Y02475
X06067Y02952
X06067Y05152
X08467Y00275
X08467Y02475
X08467Y02952
X08467Y05152
T005
X01044Y00475
X01044Y03152
X01494Y00475
X01494Y03152
X01994Y00475
X01994Y03152
X02444Y00475
X02444Y03152
X03918Y00475
X03918Y03152
X04368Y00475
X04368Y03152
X04868Y00475
X04868Y03152
X05318Y00475
X05318Y03152
X06792Y00475
X06792Y03152
X07242Y00475
X07242Y03152
X07742Y00475
X07742Y03152
X08192Y00475
X08192Y03152
M30
