%FSLAX23Y23*%
%MOIN*%
G04 EasyPC Gerber Version 14.0.2 Build 2922 *
%ADD107C,0.00400*%
%ADD106C,0.00448*%
%ADD105C,0.00600*%
X0Y0D02*
D02*
D105*
X1180Y237D02*
Y225D01*
Y375D02*
Y363D01*
Y2914D02*
Y2902D01*
Y3052D02*
Y3040D01*
X1180Y225D02*
X1358D01*
X1180Y375D02*
X1358D01*
X1180Y2902D02*
X1358D01*
X1180Y3052D02*
X1358D01*
X1358Y237D02*
Y225D01*
Y375D02*
Y363D01*
Y2914D02*
Y2902D01*
Y3052D02*
Y3040D01*
X2129Y236D02*
Y224D01*
Y374D02*
Y362D01*
Y2913D02*
Y2901D01*
Y3051D02*
Y3039D01*
X2129Y224D02*
X2307D01*
X2129Y374D02*
X2307D01*
X2129Y2901D02*
X2307D01*
X2129Y3051D02*
X2307D01*
X2307Y236D02*
Y224D01*
Y374D02*
Y362D01*
Y2913D02*
Y2901D01*
Y3051D02*
Y3039D01*
X4054Y237D02*
Y225D01*
Y375D02*
Y363D01*
Y2914D02*
Y2902D01*
Y3052D02*
Y3040D01*
X4054Y225D02*
X4232D01*
X4054Y375D02*
X4232D01*
X4054Y2902D02*
X4232D01*
X4054Y3052D02*
X4232D01*
X4232Y237D02*
Y225D01*
Y375D02*
Y363D01*
Y2914D02*
Y2902D01*
Y3052D02*
Y3040D01*
X5003Y236D02*
Y224D01*
Y374D02*
Y362D01*
Y2913D02*
Y2901D01*
Y3051D02*
Y3039D01*
X5003Y224D02*
X5181D01*
X5003Y374D02*
X5181D01*
X5003Y2901D02*
X5181D01*
X5003Y3051D02*
X5181D01*
X5181Y236D02*
Y224D01*
Y374D02*
Y362D01*
Y2913D02*
Y2901D01*
Y3051D02*
Y3039D01*
X6928Y237D02*
Y225D01*
Y375D02*
Y363D01*
Y2914D02*
Y2902D01*
Y3052D02*
Y3040D01*
X6928Y225D02*
X7106D01*
X6928Y375D02*
X7106D01*
X6928Y2902D02*
X7106D01*
X6928Y3052D02*
X7106D01*
X7106Y237D02*
Y225D01*
Y375D02*
Y363D01*
Y2914D02*
Y2902D01*
Y3052D02*
Y3040D01*
X7877Y236D02*
Y224D01*
Y374D02*
Y362D01*
Y2913D02*
Y2901D01*
Y3051D02*
Y3039D01*
X7877Y224D02*
X8055D01*
X7877Y374D02*
X8055D01*
X7877Y2901D02*
X8055D01*
X7877Y3051D02*
X8055D01*
X8055Y236D02*
Y224D01*
Y374D02*
Y362D01*
Y2913D02*
Y2901D01*
Y3051D02*
Y3039D01*
D02*
D106*
X1184Y205D02*
Y163D01*
X1205*
X1212Y166*
X1215Y170*
X1219Y177*
Y191*
X1215Y198*
X1212Y201*
X1205Y205*
X1184*
X1247D02*
X1261D01*
X1254D02*
Y163D01*
X1247Y170*
X1184Y2882D02*
Y2840D01*
X1205*
X1212Y2843*
X1215Y2847*
X1219Y2854*
Y2868*
X1215Y2875*
X1212Y2878*
X1205Y2882*
X1184*
X1247D02*
X1261D01*
X1254D02*
Y2840D01*
X1247Y2847*
X1299Y2878D02*
X1306Y2882D01*
X1313*
X1320Y2878*
X1324Y2871*
Y2850*
X1320Y2843*
X1313Y2840*
X1306*
X1299Y2843*
X1296Y2850*
Y2871*
X1299Y2878*
X1320Y2843*
X2133Y204D02*
Y162D01*
X2154*
X2161Y165*
X2165Y169*
X2168Y176*
Y190*
X2165Y197*
X2161Y200*
X2154Y204*
X2133*
X2217D02*
X2189D01*
X2214Y179*
X2217Y172*
X2214Y165*
X2207Y162*
X2196*
X2189Y165*
X2133Y2881D02*
Y2839D01*
X2154*
X2161Y2842*
X2165Y2846*
X2168Y2853*
Y2867*
X2165Y2874*
X2161Y2877*
X2154Y2881*
X2133*
X2196D02*
X2210D01*
X2203D02*
Y2839D01*
X2196Y2846*
X2252Y2881D02*
X2266D01*
X2259D02*
Y2839D01*
X2252Y2846*
X4058Y205D02*
Y163D01*
X4079*
X4086Y166*
X4089Y170*
X4093Y177*
Y191*
X4089Y198*
X4086Y201*
X4079Y205*
X4058*
X4114D02*
X4142Y163D01*
X4114*
X4058Y2882D02*
Y2840D01*
X4079*
X4086Y2843*
X4089Y2847*
X4093Y2854*
Y2868*
X4089Y2875*
X4086Y2878*
X4079Y2882*
X4058*
X4121D02*
X4135D01*
X4128D02*
Y2840D01*
X4121Y2847*
X4173Y2878D02*
X4180Y2882D01*
X4187*
X4194Y2878*
X4198Y2871*
X4194Y2864*
X4187Y2861*
X4180*
X4187D02*
X4194Y2857D01*
X4198Y2850*
X4194Y2843*
X4187Y2840*
X4180*
X4173Y2843*
X5007Y204D02*
Y162D01*
X5028*
X5035Y165*
X5039Y169*
X5042Y176*
Y190*
X5039Y197*
X5035Y200*
X5028Y204*
X5007*
X5074Y183D02*
X5081D01*
X5088Y179*
X5091Y172*
X5088Y165*
X5081Y162*
X5074*
X5067Y165*
X5063Y172*
X5067Y179*
X5074Y183*
X5067Y186*
X5063Y193*
X5067Y200*
X5074Y204*
X5081*
X5088Y200*
X5091Y193*
X5088Y186*
X5081Y183*
X5007Y2881D02*
Y2839D01*
X5028*
X5035Y2842*
X5039Y2846*
X5042Y2853*
Y2867*
X5039Y2874*
X5035Y2877*
X5028Y2881*
X5007*
X5070D02*
X5084D01*
X5077D02*
Y2839D01*
X5070Y2846*
X5137Y2881D02*
Y2839D01*
X5119Y2867*
X5147*
X6932Y205D02*
Y163D01*
X6953*
X6960Y166*
X6963Y170*
X6967Y177*
Y191*
X6963Y198*
X6960Y201*
X6953Y205*
X6932*
X7005D02*
Y163D01*
X6988Y191*
X7016*
X6932Y2882D02*
Y2840D01*
X6953*
X6960Y2843*
X6963Y2847*
X6967Y2854*
Y2868*
X6963Y2875*
X6960Y2878*
X6953Y2882*
X6932*
X6995D02*
X7009D01*
X7002D02*
Y2840D01*
X6995Y2847*
X7044Y2871D02*
X7047Y2864D01*
X7054Y2861*
X7061*
X7068Y2864*
X7072Y2871*
X7068Y2878*
X7061Y2882*
X7054*
X7047Y2878*
X7044Y2871*
Y2861*
X7047Y2850*
X7054Y2843*
X7061Y2840*
X7881Y204D02*
Y162D01*
X7902*
X7909Y165*
X7913Y169*
X7916Y176*
Y190*
X7913Y197*
X7909Y200*
X7902Y204*
X7881*
X7937Y200D02*
X7944Y204D01*
X7955*
X7962Y200*
X7965Y193*
Y190*
X7962Y183*
X7955Y179*
X7937*
Y162*
X7965*
X7881Y2881D02*
Y2839D01*
X7902*
X7909Y2842*
X7913Y2846*
X7916Y2853*
Y2867*
X7913Y2874*
X7909Y2877*
X7902Y2881*
X7881*
X7944D02*
X7958D01*
X7951D02*
Y2839D01*
X7944Y2846*
X7993Y2881D02*
X8021Y2839D01*
X7993*
D02*
D107*
X438Y1845D02*
X476D01*
Y1866*
X472Y1873*
X466Y1876*
X460Y1873*
X457Y1866*
Y1845*
Y1866D02*
X438Y1876D01*
Y1901D02*
Y1913D01*
Y1907D02*
X476D01*
X469Y1901*
X438Y4522D02*
X476D01*
Y4544*
X472Y4550*
X466Y4553*
X460Y4550*
X457Y4544*
Y4522*
Y4544D02*
X438Y4553D01*
Y4597D02*
Y4572D01*
X460Y4594*
X466Y4597*
X472Y4594*
X476Y4587*
Y4578*
X472Y4572*
X457Y4631D02*
Y4637D01*
X460Y4644*
X466Y4647*
X472Y4644*
X476Y4637*
Y4631*
X472Y4625*
X466Y4622*
X460Y4625*
X457Y4631*
X454Y4625*
X447Y4622*
X441Y4625*
X438Y4631*
Y4637*
X441Y4644*
X447Y4647*
X454Y4644*
X457Y4637*
X3312Y1845D02*
X3350D01*
Y1866*
X3346Y1873*
X3340Y1876*
X3334Y1873*
X3331Y1866*
Y1845*
Y1866D02*
X3312Y1876D01*
Y1901D02*
Y1913D01*
Y1907D02*
X3350D01*
X3343Y1901*
X3312Y1954D02*
X3315Y1960D01*
X3321Y1966*
X3331Y1970*
X3340*
X3346Y1966*
X3350Y1960*
Y1954*
X3346Y1948*
X3340Y1945*
X3334Y1948*
X3331Y1954*
Y1960*
X3334Y1966*
X3340Y1970*
X3312Y4522D02*
X3350D01*
Y4544*
X3346Y4550*
X3340Y4553*
X3334Y4550*
X3331Y4544*
Y4522*
Y4544D02*
X3312Y4553D01*
X3315Y4575D02*
X3312Y4581D01*
Y4587*
X3315Y4594*
X3321Y4597*
X3328Y4594*
X3331Y4587*
Y4581*
Y4587D02*
X3334Y4594D01*
X3340Y4597*
X3346Y4594*
X3350Y4587*
Y4581*
X3346Y4575*
X3312Y4622D02*
X3350Y4647D01*
Y4622*
X6186Y1845D02*
X6224D01*
Y1866*
X6220Y1873*
X6214Y1876*
X6208Y1873*
X6205Y1866*
Y1845*
Y1866D02*
X6186Y1876D01*
Y1901D02*
Y1913D01*
Y1907D02*
X6224D01*
X6217Y1901*
X6189Y1948D02*
X6186Y1954D01*
Y1960*
X6189Y1966*
X6195Y1970*
X6214*
X6220Y1966*
X6224Y1960*
Y1954*
X6220Y1948*
X6214Y1945*
X6195*
X6189Y1948*
X6220Y1966*
X6186Y4522D02*
X6224D01*
Y4544*
X6220Y4550*
X6214Y4553*
X6208Y4550*
X6205Y4544*
Y4522*
Y4544D02*
X6186Y4553D01*
Y4587D02*
X6224D01*
X6199Y4572*
Y4597*
X6195Y4622D02*
X6202Y4625D01*
X6205Y4631*
Y4637*
X6202Y4644*
X6195Y4647*
X6189Y4644*
X6186Y4637*
Y4631*
X6189Y4625*
X6195Y4622*
X6205*
X6214Y4625*
X6220Y4631*
X6224Y4637*
X0Y0D02*
M02*
