%FSLAX23Y23*%
%MOIN*%
G04 EasyPC Gerber Version 14.0.2 Build 2922 *
%AMT73*0 Octagon Pad at angle 0*4,1,8,-0.01243,-0.03000,0.01243,-0.03000,0.03000,-0.01243,0.03000,0.01243,0.01243,0.03000,-0.01243,0.03000,-0.03000,0.01243,-0.03000,-0.01243,-0.01243,-0.03000,0*%
%ADD73T73*%
%AMT29*0 Octagon Pad at angle 0*4,1,8,-0.01450,-0.03500,0.01450,-0.03500,0.03500,-0.01450,0.03500,0.01450,0.01450,0.03500,-0.01450,0.03500,-0.03500,0.01450,-0.03500,-0.01450,-0.01450,-0.03500,0*%
%ADD29T29*%
%ADD84O,0.06000X0.11000*%
%ADD88R,0.06988X0.09252*%
%ADD72R,0.06000X0.06000*%
%ADD28R,0.07000X0.07000*%
%ADD25R,0.23622X0.23622*%
%ADD16C,0.00787*%
%ADD12C,0.01000*%
%ADD101C,0.01500*%
%ADD138C,0.01969*%
%ADD14C,0.02362*%
%ADD137C,0.02500*%
%ADD100C,0.03000*%
%ADD26C,0.04800*%
%ADD103C,0.05000*%
%ADD89C,0.05543*%
%ADD99C,0.05600*%
%ADD27C,0.06000*%
%ADD82O,0.11000X0.06000*%
%ADD87R,0.09252X0.06988*%
%ADD98C,0.08600*%
%ADD90C,0.16000*%
X0Y0D02*
D02*
D12*
X246Y1815D02*
X219D01*
X265Y1796D02*
Y1769D01*
Y1834D02*
Y1861D01*
X284Y1815D02*
X312D01*
X534Y1303D02*
X506D01*
X553Y1284D02*
Y1256D01*
Y1322D02*
Y1349D01*
X572Y1303D02*
X599D01*
X677Y465D02*
X649D01*
X677Y4008D02*
X649D01*
X790Y352D02*
Y324D01*
Y578D02*
Y606D01*
Y3895D02*
Y3868D01*
Y4122D02*
Y4149D01*
X903Y465D02*
X931D01*
X903Y4008D02*
X931D01*
X1264Y753D02*
X1237D01*
X1264Y3553D02*
X1237D01*
X1378Y639D02*
Y612D01*
Y866D02*
Y893D01*
Y3439D02*
Y3412D01*
Y3666D02*
Y3693D01*
X1491Y753D02*
X1518D01*
X1491Y3553D02*
X1518D01*
X1880Y953D02*
X1852D01*
X1903Y930D02*
Y902D01*
Y976D02*
Y1003D01*
X1925Y953D02*
X1953D01*
X2065Y2828D02*
X2038D01*
X2065Y3303D02*
X2038D01*
X2103Y1709D02*
Y1681D01*
Y1747D02*
Y1774D01*
X2115Y2803D02*
Y2775D01*
Y3278D02*
Y3250D01*
X2122Y1728D02*
X2149D01*
X2165Y2828D02*
X2192D01*
X2165Y3303D02*
X2192D01*
X2240Y1310D02*
Y1283D01*
Y1370D02*
Y1398D01*
X2270Y1340D02*
X2297D01*
X2467Y1165D02*
X2439D01*
X2478Y778D02*
X2450D01*
X2478Y877D02*
X2450D01*
X2490Y1142D02*
Y1115D01*
Y1188D02*
Y1216D01*
X2503Y753D02*
Y725D01*
Y903D02*
Y930D01*
X2513Y1165D02*
X2541D01*
X2628Y390D02*
X2600D01*
X2653Y365D02*
Y338D01*
X2942Y3528D02*
X2915D01*
X2965Y3505D02*
Y3477D01*
Y3551D02*
Y3578D01*
X2988Y3528D02*
X3015D01*
X3103Y2478D02*
X3075D01*
X3203D02*
X3230D01*
X3403Y2590D02*
X3375D01*
X3484Y1178D02*
X3456D01*
X3503Y1159D02*
Y1131D01*
Y1197D02*
Y1224D01*
Y2590D02*
X3530D01*
X3522Y1178D02*
X3549D01*
X3605Y1378D02*
X3577D01*
X3628Y1355D02*
Y1327D01*
Y1401D02*
Y1428D01*
X3651Y1378D02*
X3678D01*
X3942Y2490D02*
X3914D01*
X3964Y753D02*
X3937D01*
X3965Y2467D02*
Y2439D01*
Y2513D02*
Y2541D01*
X3988Y2490D02*
X4016D01*
X4078Y639D02*
Y612D01*
Y866D02*
Y893D01*
X4080Y3065D02*
X4052D01*
X4103Y3042D02*
Y3015D01*
Y3088D02*
Y3116D01*
X4126Y3065D02*
X4153D01*
X4191Y753D02*
X4218D01*
X4330Y2803D02*
X4302D01*
X4353Y2780D02*
Y2752D01*
Y2826D02*
Y2853D01*
X4376Y2803D02*
X4403D01*
X4436Y1986D02*
X4409D01*
X4478Y1956D02*
Y1928D01*
Y2016D02*
Y2043D01*
X4519Y1986D02*
X4546D01*
X4614Y464D02*
X4586D01*
X4727Y351D02*
Y323D01*
Y577D02*
Y605D01*
X4740Y2103D02*
X4712D01*
X4740Y3063D02*
X4712D01*
X4763Y2125D02*
Y2153D01*
Y3085D02*
Y3113D01*
X4785Y2103D02*
X4813D01*
X4785Y3063D02*
X4813D01*
X4840Y464D02*
X4868D01*
X4978Y2442D02*
Y2415D01*
Y2488D02*
Y2516D01*
Y2830D02*
Y2802D01*
Y2876D02*
Y2903D01*
X5001Y2465D02*
X5028D01*
X5001Y2853D02*
X5028D01*
X5118Y3528D02*
X5091D01*
X5140Y3723D02*
Y3695D01*
Y3783D02*
Y3810D01*
Y3953D02*
Y3925D01*
X5148Y3486D02*
Y3459D01*
Y3569D02*
Y3596D01*
X5165Y3978D02*
X5193D01*
X5170Y3753D02*
X5198D01*
X5178Y3528D02*
X5206D01*
D02*
D14*
X403Y1303D02*
X553D01*
Y465*
X1390Y1240D02*
Y1290D01*
X1678Y1090D02*
X1665D01*
Y2178*
X1828Y1240D02*
Y1378D01*
X1878Y1428*
X2015*
X2103Y1515*
Y1728*
X1903Y953D02*
Y1053D01*
Y1165*
X2190Y3028D02*
X2878D01*
X2240Y1165D02*
X1903D01*
X2490D02*
X2240D01*
X2503D02*
Y877D01*
X2865Y2653D02*
X2765Y2753D01*
X2940Y1202D02*
Y1428D01*
X3015Y3528D02*
X3103Y3440D01*
X3040Y1528D02*
X3315D01*
X3053Y2090D02*
X2865Y2278D01*
X3178Y1965D02*
X3053Y2090D01*
X3215Y4328D02*
X3140D01*
X3278Y3428D02*
X3315Y3390D01*
Y3228*
Y3003*
X3428Y2890*
X3453*
X3353Y2590D02*
X3453D01*
X3415Y3828D02*
X3353D01*
X3453Y2890D02*
Y2790D01*
X3615Y2890D02*
Y2028D01*
X3628Y1378D02*
Y1228D01*
X3965Y1178D02*
X3503D01*
X3965Y2490D02*
X4265D01*
X4065Y1990D02*
X3965D01*
X4103Y3065D02*
X4278D01*
X4353Y2553D02*
Y2803D01*
Y2990D02*
Y2803D01*
X4865Y2053D02*
Y2115D01*
X4928Y2003D02*
Y2853D01*
X4978Y2465D02*
Y2528D01*
X5040Y3753D02*
X4953D01*
X5040Y3815D02*
Y3753D01*
D02*
D16*
X5290Y234D02*
X5287Y228D01*
X5281Y224*
X5268*
X5262Y228*
X5259Y234*
X5262Y240*
X5268Y243*
X5281*
X5287Y246*
X5290Y253*
X5287Y259*
X5281Y262*
X5268*
X5262Y259*
X5259Y253*
X5231Y224D02*
X5218D01*
X5224D02*
Y262D01*
X5231D02*
X5218D01*
X5190Y224D02*
Y262D01*
X5171*
X5165Y259*
X5162Y256*
X5159Y249*
Y237*
X5162Y231*
X5165Y228*
X5171Y224*
X5190*
X5140D02*
Y262D01*
X5109*
X5115Y243D02*
X5140D01*
Y224D02*
X5109D01*
X5015D02*
X5040D01*
X5018Y246*
X5015Y253*
X5018Y259*
X5024Y262*
X5034*
X5040Y259*
D02*
D25*
X790Y465D03*
Y4008D03*
X1378Y753D03*
Y3553D03*
X4078Y753D03*
Y3553D03*
X4727Y464D03*
Y4008D03*
D02*
D26*
X265Y1815D03*
X553Y1303D03*
X2040Y2378D03*
X2103Y1728D03*
X2315Y1628D03*
X3253Y1127D03*
X3503Y1178D03*
X3553Y1853D03*
D02*
D27*
X2503Y778D03*
Y877D03*
X2603Y778D03*
Y877D03*
X2703Y778D03*
Y877D03*
X2803Y778D03*
Y877D03*
X2903Y778D03*
Y877D03*
X3003Y778D03*
Y877D03*
X3103Y778D03*
Y877D03*
X3203Y778D03*
Y877D03*
X3303Y778D03*
Y877D03*
X3403Y778D03*
Y877D03*
X3503Y778D03*
Y877D03*
X3603Y778D03*
Y877D03*
X3703Y778D03*
Y877D03*
X3803Y778D03*
Y877D03*
D02*
D28*
X1940Y1340D03*
X5040Y3753D03*
D02*
D29*
X2040Y1340D03*
X2140D03*
X2240D03*
X5140Y3753D03*
D02*
D72*
X2953Y490D03*
X5040Y3978D03*
D02*
D73*
X2653Y390D03*
Y490D03*
X2753Y390D03*
Y490D03*
X2853Y390D03*
Y490D03*
X2953Y390D03*
X5040Y4078D03*
X5140Y3978D03*
Y4078D03*
D02*
D82*
X1815Y2828D03*
Y2928D03*
Y3028D03*
Y3128D03*
Y3303D03*
Y3403D03*
Y3503D03*
Y3603D03*
X2115Y2828D03*
Y2928D03*
Y3028D03*
Y3128D03*
Y3303D03*
Y3403D03*
Y3503D03*
Y3603D03*
X3153Y2178D03*
Y2278D03*
Y2378D03*
Y2478D03*
Y2590D03*
Y2690D03*
Y2790D03*
Y2890D03*
X3453Y2178D03*
Y2278D03*
Y2378D03*
Y2478D03*
Y2590D03*
Y2690D03*
Y2790D03*
Y2890D03*
D02*
D84*
X3965Y1690D03*
Y1990D03*
X4065Y1690D03*
Y1990D03*
X4165Y1690D03*
Y1990D03*
X4265Y1690D03*
Y1990D03*
D02*
D87*
X4478Y1819D03*
Y1986D03*
D02*
D88*
X4982Y3528D03*
X5007Y4228D03*
X5148Y3528D03*
X5173Y4228D03*
D02*
D89*
X4763Y1803D03*
Y1903D03*
Y2003D03*
Y2103D03*
Y2763D03*
Y2863D03*
Y2963D03*
Y3063D03*
X4863Y1753D03*
Y1853D03*
Y1953D03*
Y2053D03*
Y2713D03*
Y2813D03*
Y2913D03*
Y3013D03*
D02*
D90*
X5113Y1703D03*
Y2153D03*
Y2663D03*
Y3113D03*
D02*
D98*
X415Y765D03*
X428Y1465D03*
X915Y765D03*
X928Y1465D03*
D02*
D99*
X1390Y1240D03*
X1590Y3228D03*
Y3653D03*
X1678Y1090D03*
X1703Y2303D03*
X1903Y953D03*
X2240Y4328D03*
X2490Y1165D03*
X2590Y2765D03*
X2603Y1415D03*
X2765Y2753D03*
X2878Y3028D03*
X2940Y1202D03*
X2965Y3528D03*
X3053Y2090D03*
X3140Y4328D03*
X3153Y1603D03*
X3203Y3428D03*
X3315Y1528D03*
Y3228D03*
X3353Y3828D03*
X3453Y1690D03*
X3615Y2028D03*
Y2890D03*
X3628Y1378D03*
X3790Y1965D03*
X3853Y3315D03*
X3965Y2490D03*
X4103Y3065D03*
X4353Y2803D03*
X4978Y2465D03*
Y2853D03*
D02*
D100*
X265Y1440D02*
X403Y1303D01*
X553Y465D02*
X790D01*
X1378*
Y753*
X1390Y1290D02*
Y3103D01*
X1515Y3228*
X1590Y3290D02*
Y3578D01*
X1665Y2178D02*
X1703Y2215D01*
X1903Y1165D02*
X1828Y1240D01*
X2015Y2828D02*
X1965Y2878D01*
Y3253*
X2015Y3303*
X2240Y1340D02*
Y1165D01*
X2503Y653D02*
Y440D01*
X2553Y390*
X2503Y653D02*
Y778D01*
X1378*
Y753*
X2865Y2278D02*
Y2653D01*
X2915Y3528D02*
X2678D01*
X2440Y3290*
X2940Y1428D02*
X3040Y1528D01*
X3065Y4328D02*
X2390D01*
X3103Y3440D02*
Y3115D01*
X3265Y2953*
Y2678*
X3353Y2590*
X3628Y1228D02*
X3578Y1178D01*
X3740Y1965D02*
X3178D01*
X4078Y753D02*
Y653D01*
X2503*
X4078Y753D02*
Y1065D01*
X3965Y1178*
X4078Y3553D02*
X3628D01*
X3440Y3740*
X1453*
X1378Y3665*
Y3553*
X4265Y2078D02*
Y2490D01*
X4290*
X4353Y2553*
X4278Y3065D02*
X4353Y2990D01*
X4328Y1990D02*
X4540D01*
X4653Y2103*
X4703*
Y1903D02*
X4603D01*
X4519Y1819*
X4727Y4008D02*
Y4302D01*
X4790Y4365*
X5140*
X5173Y4332*
Y4228*
X4865Y2115D02*
Y2180D01*
X4528Y2518*
Y3615*
X4315Y3828*
X3415*
X4978Y2528D02*
Y2803D01*
Y2903D02*
Y3115D01*
X4928Y3165*
X4815*
X4765Y3115*
X5007Y4228D02*
X4990D01*
Y4078*
X5040Y3753D02*
Y3578D01*
X4990Y3528*
X4982*
X5140Y3753D02*
Y3528D01*
X5148*
X5173Y4228D02*
X5190D01*
Y4078*
D02*
D101*
X1515Y3228D02*
X1590D01*
Y3290*
Y3578D02*
Y3653D01*
X1703Y2215D02*
Y2303D01*
X2015Y3303D02*
X2115D01*
Y2828D02*
X2015D01*
X2115Y3028D02*
X2190D01*
X2315Y1628D02*
Y1440D01*
X2140*
Y1340*
X2390Y4328D02*
X2240D01*
X2440Y3290D02*
X2115D01*
Y3303*
X2490Y1165D02*
X2503D01*
X2553Y390D02*
X2653D01*
X2590Y2765D02*
Y1815D01*
X2803Y1603*
X3153*
X2603Y877D02*
X2553Y828D01*
X1865*
X1790Y903*
Y1403*
X1853Y1465*
X2003*
X2040Y1503*
Y2378*
X2603Y1415D02*
Y1565D01*
X2540Y1628*
X2315*
X2965Y3528D02*
X3015D01*
X2965D02*
X2915D01*
X3140Y4328D02*
X3065D01*
X3203Y3428D02*
X3278D01*
X3253Y1127D02*
Y1002D01*
X3278Y978*
X3378*
X3403Y953*
Y877*
X3453Y1690D02*
X3490D01*
X3553Y1753*
Y1853*
X3578Y1178D02*
X3503D01*
X3790Y1965D02*
X3740D01*
X4265Y1990D02*
X4328D01*
X4265D02*
Y2078D01*
X4519Y1819D02*
X4478D01*
X4703Y2103D02*
X4763D01*
Y1903D02*
X4703D01*
X4765Y3115D02*
Y3063D01*
X4763*
X4863Y1953D02*
X4878D01*
X4928Y2003*
X4863Y2053D02*
X4865D01*
X4928Y2853D02*
X4868Y2913D01*
X4863*
X4978Y2803D02*
Y2853D01*
Y2903*
X4990Y4078D02*
X5040D01*
Y3978D02*
Y3903D01*
X5190Y4078D02*
X5140D01*
D02*
D103*
X4953Y3753D02*
X4565D01*
X3990Y4328*
X3215*
X5040Y3903D02*
Y3815D01*
D02*
D137*
X1890Y2794D02*
G75*
G02X1840Y2767I-50J34D01*
G01*
X1790*
G75*
G02X1756Y2878J60*
G01*
G75*
G02Y2978I34J50*
G01*
G75*
G02Y3078I34J50*
G01*
G75*
G02X1790Y3188I34J50*
G01*
X1840*
G75*
G02X1890Y3161J-60*
G01*
Y3269*
G75*
G02X1840Y3242I-50J34*
G01*
X1790*
G75*
G02X1756Y3353J60*
G01*
G75*
G02Y3453I34J50*
G01*
G75*
G02Y3553I34J50*
G01*
G75*
G02X1790Y3663I34J50*
G01*
X1840*
G75*
G02X1890Y3636J-60*
G01*
Y4365*
X115*
Y115*
X5415*
Y1553*
X4328*
Y1903*
X3574*
G75*
G02X3590Y1813I-21J-50*
G01*
Y1753*
G75*
G02X3579Y1726I-38J0*
G01*
X3517Y1663*
G75*
G02X3498Y1653I-27J27*
G01*
G75*
G02X3394Y1690I-45J37*
G01*
G75*
G02X3485Y1739I58*
G01*
X3515Y1768*
Y1813*
G75*
G02X3531Y1903I38J39*
G01*
X3265*
Y1920*
X3178*
G75*
G02X3136Y1947J45*
G01*
X3051Y2032*
G75*
G02X2994Y2089I1J58*
G01*
X2847Y2236*
G75*
G02X2820Y2278I18J42*
G01*
Y2638*
X2764Y2694*
G75*
G02X2707Y2753I1J58*
G01*
G75*
G02X2823Y2754I58*
G01*
X2883Y2694*
G75*
G02X2910Y2653I-18J-42*
G01*
Y2292*
X3054Y2148*
G75*
G02X3078Y2142I-1J-58*
G01*
G75*
G02X3094Y2228I49J35*
G01*
G75*
G02Y2328I34J50*
G01*
G75*
G02X3101Y2432I34J50*
G01*
G75*
G02X3123Y2530I26J46*
G01*
G75*
G02X3094Y2640I5J60*
G01*
G75*
G02Y2740I34J50*
G01*
G75*
G02Y2840I34J50*
G01*
G75*
G02X3080Y2928I34J50*
G01*
X2528*
Y2615*
X1890*
Y2794*
X219Y1815D02*
G75*
G02X312I46D01*
G01*
G75*
G02X219I-46*
G01*
X488Y765D02*
G75*
G02X342I-73D01*
G01*
G75*
G02X488I73*
G01*
X501Y1465D02*
G75*
G02X354I-73D01*
G01*
G75*
G02X501I73*
G01*
X506Y1303D02*
G75*
G02X599I46D01*
G01*
G75*
G02X506I-46*
G01*
X649Y324D02*
Y606D01*
X931*
Y324*
X649*
Y3868D02*
Y4149D01*
X931*
Y3868*
X649*
X988Y765D02*
G75*
G02X842I-73D01*
G01*
G75*
G02X988I73*
G01*
X1001Y1465D02*
G75*
G02X854I-73D01*
G01*
G75*
G02X1001I73*
G01*
X1237Y612D02*
Y893D01*
X1518*
Y612*
X1237*
Y3412D02*
Y3693D01*
X1518*
Y3412*
X1237*
X1346Y1278D02*
G75*
G02X1345Y1290I44J12D01*
G01*
Y3103*
G75*
G02X1358Y3135I45J0*
G01*
X1483Y3260*
G75*
G02X1540Y3265I32J-32*
G01*
X1546*
G75*
G02X1550Y3270I44J-38*
G01*
G75*
G02X1545Y3290I41J20*
G01*
Y3578*
G75*
G02X1552Y3602I45*
G01*
Y3608*
G75*
G02X1532Y3653I38J44*
G01*
G75*
G02X1648I58*
G01*
G75*
G02X1628Y3608I-58*
G01*
Y3602*
G75*
G02X1635Y3578I-38J-25*
G01*
Y3290*
G75*
G02X1631Y3270I-45*
G01*
G75*
G02X1648Y3228I-41J-42*
G01*
G75*
G02X1546Y3190I-58*
G01*
X1541*
X1435Y3084*
Y1290*
G75*
G02X1434Y1278I-45*
G01*
G75*
G02X1448Y1240I-44J-38*
G01*
G75*
G02X1332I-58*
G01*
G75*
G02X1346Y1278I58*
G01*
X1623Y1118D02*
Y2161D01*
G75*
G02X1633Y2210I42J17*
G01*
X1665Y2241*
Y2258*
G75*
G02X1644Y2303I38J44*
G01*
G75*
G02X1761I58*
G01*
G75*
G02X1740Y2258I-58*
G01*
Y2240*
G75*
G02X1735Y2183I-38J-25*
G01*
X1707Y2156*
Y1144*
G75*
G02X1739Y1090I-30J-54*
G01*
G75*
G02X1616I-62*
G01*
G75*
G02X1623Y1118I62*
G01*
X1852Y953D02*
G75*
G02X1953I51D01*
G01*
G75*
G02X1852I-51*
G01*
X2002Y2338D02*
G75*
G02X1986Y2378I38J39D01*
G01*
G75*
G02X2094I54*
G01*
G75*
G02X2078Y2338I-54*
G01*
Y1767*
G75*
G02X2149Y1728I25J-39*
G01*
G75*
G02X2078Y1688I-46*
G01*
Y1503*
G75*
G02X2067Y1476I-38J0*
G01*
X2029Y1438*
G75*
G02X2003Y1427I-27J27*
G01*
X1868*
X1828Y1387*
Y918*
X1881Y865*
X2451*
G75*
G02X2450Y877I51J12*
G01*
G75*
G02X2548Y904I53*
G01*
G75*
G02X2653Y911I54J-26*
G01*
Y953*
X3249*
X3226Y976*
G75*
G02X3215Y1002I27J27*
G01*
Y1088*
G75*
G02X3198Y1127I38J39*
G01*
G75*
G02X3307I54*
G01*
G75*
G02X3290Y1088I-54*
G01*
Y1018*
X3293Y1015*
X3378*
G75*
G02X3404Y1004I0J-38*
G01*
X3429Y979*
G75*
G02X3440Y953I-27J-27*
G01*
X3890*
Y690*
X2653*
Y744*
G75*
G02X2548Y751I-50J34*
G01*
G75*
G02X2450Y778I-46J26*
G01*
G75*
G02X2451Y790I52J0*
G01*
X1865*
G75*
G02X1838Y801I0J38*
G01*
X1763Y876*
G75*
G02X1752Y903I27J27*
G01*
Y1403*
G75*
G02X1763Y1429I38J0*
G01*
X1826Y1492*
G75*
G02X1853Y1503I27J-27*
G01*
X1987*
X2002Y1518*
Y2338*
X2005Y1282D02*
Y1275D01*
X1875*
Y1405*
X2005*
Y1398*
X2013Y1405*
X2067*
X2090Y1382*
X2102Y1395*
Y1440*
G75*
G02X2140Y1478I38*
G01*
X2277*
Y1588*
G75*
G02X2261Y1628I38J39*
G01*
G75*
G02X2354Y1665I54*
G01*
X2540*
G75*
G02X2567Y1654I0J-38*
G01*
X2629Y1592*
G75*
G02X2640Y1565I-27J-27*
G01*
Y1459*
G75*
G02X2661Y1415I-38J-44*
G01*
G75*
G02X2544I-58*
G01*
G75*
G02X2565Y1459I58*
G01*
Y1549*
X2524Y1590*
X2354*
G75*
G02X2353Y1588I-39J38*
G01*
Y1440*
G75*
G02X2315Y1402I-38*
G01*
X2178*
Y1395*
X2196Y1377*
X2216Y1398*
X2264*
X2297Y1364*
Y1316*
X2264Y1283*
X2216*
X2196Y1303*
X2167Y1275*
X2113*
X2090Y1298*
X2067Y1275*
X2013*
X2005Y1282*
X2439Y1165D02*
G75*
G02X2541I51D01*
G01*
G75*
G02X2439I-51*
G01*
X2552Y2721D02*
G75*
G02X2532Y2765I38J44D01*
G01*
G75*
G02X2648I58*
G01*
G75*
G02X2628Y2721I-58*
G01*
Y1831*
X2818Y1640*
X3108*
G75*
G02X3211Y1603I44J-38*
G01*
G75*
G02X3201Y1570I-58J0*
G01*
X3275*
G75*
G02X3373Y1528I40J-42*
G01*
G75*
G02X3275Y1485I-58*
G01*
X3062*
X2982Y1406*
Y1243*
G75*
G02X2998Y1202I-42J-40*
G01*
G75*
G02X2882I-58*
G01*
G75*
G02X2898Y1243I58*
G01*
Y1411*
G75*
G02X2908Y1460I42J17*
G01*
X3008Y1560*
G75*
G02X3014Y1565I32J-32*
G01*
X2803*
G75*
G02X2776Y1576I0J38*
G01*
X2563Y1788*
G75*
G02X2552Y1815I27J27*
G01*
Y2721*
X2623Y434D02*
X2592Y465D01*
Y515*
X2628Y550*
X2678*
X2703Y525*
X2728Y550*
X2778*
X2803Y525*
X2828Y550*
X2878*
X2892Y536*
Y550*
X3013*
Y430*
X2998*
X3013Y415*
Y365*
X2978Y330*
X2928*
X2903Y355*
X2878Y330*
X2828*
X2803Y355*
X2778Y330*
X2728*
X2697Y360*
X2674Y338*
X2631*
X2600Y368*
Y412*
X2623Y434*
X3456Y1178D02*
G75*
G02X3549I46D01*
G01*
G75*
G02X3456I-46*
G01*
X3577Y1378D02*
G75*
G02X3678I51D01*
G01*
G75*
G02X3577I-51*
G01*
X3937Y612D02*
Y893D01*
X4218*
Y612*
X3937*
X4015Y1631D02*
G75*
G02X3905Y1665I-50J34D01*
G01*
Y1715*
G75*
G02X4015Y1749I60*
G01*
G75*
G02X4115I50J-34*
G01*
G75*
G02X4215I50J-34*
G01*
G75*
G02X4325Y1715I50J-34*
G01*
Y1665*
G75*
G02X4215Y1631I-60*
G01*
G75*
G02X4115I-50J34*
G01*
G75*
G02X4015I-50J34*
G01*
X4586Y323D02*
Y605D01*
X4868*
Y323*
X4586*
X5316Y211D02*
G75*
G02X5294Y189I-23D01*
G01*
X4986*
G75*
G02X4964Y211J23*
G01*
Y279*
G75*
G02X4986Y301I23*
G01*
X5294*
G75*
G02X5316Y279J-23*
G01*
Y211*
X115Y1815D02*
G36*
Y1690D01*
X1345*
Y1815*
X312*
G75*
G02X219I-46*
G01*
X115*
G37*
X219D02*
G36*
G75*
G02X312I46D01*
G01*
X1345*
Y3103*
G75*
G02X1358Y3135I45J0*
G01*
X1483Y3260*
G75*
G02X1540Y3265I32J-32*
G01*
X1546*
G75*
G02X1550Y3270I44J-38*
G01*
G75*
G02X1545Y3290I41J20*
G01*
Y3553*
X1518*
Y3412*
X1237*
Y3553*
X115*
Y1815*
X219*
G37*
X1435D02*
G36*
Y1690D01*
X1623*
Y1815*
X1435*
G37*
X1623D02*
G36*
Y2161D01*
G75*
G02X1633Y2210I42J17*
G01*
X1665Y2241*
Y2258*
G75*
G02X1644Y2303I38J44*
G01*
G75*
G02X1761I58*
G01*
G75*
G02X1740Y2258I-58*
G01*
Y2240*
G75*
G02X1735Y2183I-38J-25*
G01*
X1707Y2156*
Y1815*
X2002*
Y2338*
G75*
G02X1986Y2378I38J39*
G01*
G75*
G02X2094I54*
G01*
G75*
G02X2078Y2338I-54*
G01*
Y1815*
X2552*
Y2721*
G75*
G02X2532Y2765I38J44*
G01*
G75*
G02X2648I58*
G01*
G75*
G02X2628Y2721I-58*
G01*
Y1831*
X2644Y1815*
X3513*
G75*
G02X3531Y1903I39J38*
G01*
X3265*
Y1920*
X3178*
G75*
G02X3136Y1947J45*
G01*
X3051Y2032*
G75*
G02X2994Y2089I1J58*
G01*
X2847Y2236*
G75*
G02X2820Y2278I18J42*
G01*
Y2638*
X2764Y2694*
G75*
G02X2707Y2753I1J58*
G01*
G75*
G02X2823Y2754I58*
G01*
X2883Y2694*
G75*
G02X2910Y2653I-18J-42*
G01*
Y2292*
X3054Y2148*
G75*
G02X3078Y2142I-1J-58*
G01*
G75*
G02X3094Y2228I49J35*
G01*
G75*
G02Y2328I34J50*
G01*
G75*
G02X3101Y2432I34J50*
G01*
G75*
G02X3123Y2530I26J46*
G01*
G75*
G02X3094Y2640I5J60*
G01*
G75*
G02Y2740I34J50*
G01*
G75*
G02Y2840I34J50*
G01*
G75*
G02X3080Y2928I34J50*
G01*
X2528*
Y2615*
X1890*
Y2794*
G75*
G02X1840Y2767I-50J34*
G01*
X1790*
G75*
G02X1756Y2878J60*
G01*
G75*
G02Y2978I34J50*
G01*
G75*
G02Y3078I34J50*
G01*
G75*
G02X1790Y3188I34J50*
G01*
X1840*
G75*
G02X1890Y3161J-60*
G01*
Y3269*
G75*
G02X1840Y3242I-50J34*
G01*
X1790*
G75*
G02X1756Y3353J60*
G01*
G75*
G02Y3453I34J50*
G01*
G75*
G02Y3553I34J50*
G01*
X1635*
Y3290*
G75*
G02X1631Y3270I-45*
G01*
G75*
G02X1648Y3228I-41J-42*
G01*
G75*
G02X1546Y3190I-58*
G01*
X1541*
X1435Y3084*
Y1815*
X1623*
G37*
X1707D02*
G36*
Y1690D01*
X2002*
Y1815*
X1707*
G37*
X2078D02*
G36*
Y1767D01*
G75*
G02X2149Y1728I25J-39*
G01*
G75*
G02X2130Y1690I-46*
G01*
X2661*
X2563Y1788*
G75*
G02X2552Y1815I27J27*
G01*
X2078*
G37*
X2644D02*
G36*
X2769Y1690D01*
X3394*
G75*
G02X3485Y1739I58*
G01*
X3515Y1768*
Y1813*
G75*
G02X3513Y1815I38J39*
G01*
X2644*
G37*
X115Y765D02*
G36*
Y465D01*
X649*
Y606*
X931*
Y465*
X2592*
Y515*
X2628Y550*
X2678*
X2703Y525*
X2728Y550*
X2778*
X2803Y525*
X2828Y550*
X2878*
X2892Y536*
Y550*
X3013*
Y465*
X4586*
Y605*
X4868*
Y465*
X5415*
Y765*
X4218*
Y612*
X3937*
Y765*
X3890*
Y690*
X2653*
Y744*
G75*
G02X2548Y751I-50J34*
G01*
G75*
G02X2452Y765I-46J26*
G01*
X1518*
Y612*
X1237*
Y765*
X988*
G75*
G02X842I-73*
G01*
X488*
G75*
G02X342I-73*
G01*
X115*
G37*
X342D02*
G36*
G75*
G02X488I73D01*
G01*
X842*
G75*
G02X988I73*
G01*
X1237*
Y893*
X1518*
Y765*
X2452*
G75*
G02X2451Y790I51J12*
G01*
X1865*
G75*
G02X1838Y801I0J38*
G01*
X1763Y876*
G75*
G02X1752Y903I27J27*
G01*
Y953*
X115*
Y765*
X342*
G37*
X3890Y953D02*
G36*
Y765D01*
X3937*
Y893*
X4218*
Y765*
X5415*
Y953*
X3890*
G37*
X115Y1465D02*
G36*
Y1378D01*
X1345*
Y1465*
X1001*
G75*
G02X854I-73*
G01*
X501*
G75*
G02X354I-73*
G01*
X115*
G37*
X354D02*
G36*
G75*
G02X501I73D01*
G01*
X854*
G75*
G02X1001I73*
G01*
X1345*
Y1690*
X115*
Y1465*
X354*
G37*
X1435D02*
G36*
Y1378D01*
X1623*
Y1465*
X1435*
G37*
X1623D02*
G36*
Y1690D01*
X1435*
Y1465*
X1623*
G37*
X1707D02*
G36*
Y1378D01*
X1752*
Y1403*
G75*
G02X1763Y1429I38J0*
G01*
X1799Y1465*
X1707*
G37*
X1799D02*
G36*
X1826Y1492D01*
G75*
G02X1853Y1503I27J-27*
G01*
X1987*
X2002Y1518*
Y1690*
X1707*
Y1465*
X1799*
G37*
X2056D02*
G36*
X2029Y1438D01*
G75*
G02X2003Y1427I-27J27*
G01*
X1868*
X1828Y1387*
Y1378*
X1875*
Y1405*
X2005*
Y1398*
X2013Y1405*
X2067*
X2090Y1382*
X2102Y1395*
Y1440*
G75*
G02X2112Y1465I38*
G01*
X2056*
G37*
X2112D02*
G36*
G75*
G02X2140Y1478I28J-25D01*
G01*
X2277*
Y1588*
G75*
G02X2261Y1628I38J39*
G01*
G75*
G02X2354Y1665I54*
G01*
X2540*
G75*
G02X2567Y1654I0J-38*
G01*
X2629Y1592*
G75*
G02X2640Y1565I-27J-27*
G01*
Y1465*
X2913*
X3008Y1560*
G75*
G02X3014Y1565I32J-32*
G01*
X2803*
G75*
G02X2776Y1576I0J38*
G01*
X2661Y1690*
X2130*
G75*
G02X2078Y1688I-27J38*
G01*
Y1503*
G75*
G02X2067Y1476I-38J0*
G01*
X2056Y1465*
X2112*
G37*
X2640D02*
G36*
Y1459D01*
G75*
G02X2661Y1415I-38J-44*
G01*
G75*
G02X2647Y1378I-58*
G01*
X2898*
Y1411*
G75*
G02X2908Y1460I42J17*
G01*
X2913Y1465*
X2640*
G37*
X3042D02*
G36*
X2982Y1406D01*
Y1378*
X3577*
G75*
G02X3678I51*
G01*
X5415*
Y1465*
X3042*
G37*
X5415D02*
G36*
Y1553D01*
X4328*
Y1690*
X4325*
Y1665*
G75*
G02X4215Y1631I-60*
G01*
G75*
G02X4115I-50J34*
G01*
G75*
G02X4015I-50J34*
G01*
G75*
G02X3905Y1665I-50J34*
G01*
Y1690*
X3544*
X3517Y1663*
G75*
G02X3498Y1653I-27J27*
G01*
G75*
G02X3394Y1690I-45J37*
G01*
X2769*
X2818Y1640*
X3108*
G75*
G02X3201Y1570I44J-38*
G01*
X3275*
G75*
G02X3373Y1528I40J-42*
G01*
G75*
G02X3275Y1485I-58*
G01*
X3062*
X3042Y1465*
X5415*
G37*
X115Y1303D02*
G36*
Y1165D01*
X1623*
Y1303*
X1435*
Y1290*
G75*
G02X1434Y1278I-45*
G01*
G75*
G02X1448Y1240I-44J-38*
G01*
G75*
G02X1332I-58*
G01*
G75*
G02X1346Y1278I58*
G01*
G75*
G02X1345Y1290I44J12*
G01*
Y1303*
X599*
G75*
G02X506I-46*
G01*
X115*
G37*
X506D02*
G36*
G75*
G02X599I46D01*
G01*
X1345*
Y1378*
X115*
Y1303*
X506*
G37*
X1623D02*
G36*
Y1378D01*
X1435*
Y1303*
X1623*
G37*
X1707D02*
G36*
Y1165D01*
X1752*
Y1303*
X1707*
G37*
X1752D02*
G36*
Y1378D01*
X1707*
Y1303*
X1752*
G37*
X1828D02*
G36*
Y1165D01*
X2439*
G75*
G02X2541I51*
G01*
X2895*
G75*
G02X2882Y1202I45J38*
G01*
G75*
G02X2898Y1243I58*
G01*
Y1303*
X2284*
X2264Y1283*
X2216*
X2196Y1303*
X2167Y1275*
X2113*
X2090Y1298*
X2067Y1275*
X2013*
X2005Y1282*
Y1275*
X1875*
Y1303*
X1828*
G37*
X1875D02*
G36*
Y1378D01*
X1828*
Y1303*
X1875*
G37*
X2898D02*
G36*
Y1378D01*
X2647*
G75*
G02X2544Y1415I-45J38*
G01*
G75*
G02X2565Y1459I58*
G01*
Y1549*
X2524Y1590*
X2354*
G75*
G02X2353Y1588I-39J38*
G01*
Y1440*
G75*
G02X2315Y1402I-38*
G01*
X2178*
Y1395*
X2196Y1377*
X2216Y1398*
X2264*
X2297Y1364*
Y1316*
X2284Y1303*
X2898*
G37*
X2982D02*
G36*
Y1243D01*
G75*
G02X2998Y1202I-42J-40*
G01*
G75*
G02X2985Y1165I-58*
G01*
X3213*
G75*
G02X3292I39J-38*
G01*
X3458*
G75*
G02X3456Y1178I45J13*
G01*
G75*
G02X3549I46*
G01*
G75*
G02X3547Y1165I-46J0*
G01*
X5415*
Y1303*
X2982*
G37*
X5415D02*
G36*
Y1378D01*
X3678*
G75*
G02X3577I-51*
G01*
X2982*
Y1303*
X5415*
G37*
X115Y465D02*
G36*
Y245D01*
X4964*
Y279*
G75*
G02X4986Y301I23*
G01*
X5294*
G75*
G02X5316Y279J-23*
G01*
Y245*
X5415*
Y465*
X4868*
Y323*
X4586*
Y465*
X3013*
Y430*
X2998*
X3013Y415*
Y365*
X2978Y330*
X2928*
X2903Y355*
X2878Y330*
X2828*
X2803Y355*
X2778Y330*
X2728*
X2697Y360*
X2674Y338*
X2631*
X2600Y368*
Y412*
X2623Y434*
X2592Y465*
Y465*
X931*
Y324*
X649*
Y465*
X115*
G37*
Y4008D02*
G36*
Y3553D01*
X1237*
Y3693*
X1518*
Y3553*
X1545*
Y3578*
G75*
G02X1552Y3602I45*
G01*
Y3608*
G75*
G02X1532Y3653I38J44*
G01*
G75*
G02X1648I58*
G01*
G75*
G02X1628Y3608I-58*
G01*
Y3602*
G75*
G02X1635Y3578I-38J-25*
G01*
Y3553*
X1756*
G75*
G02X1790Y3663I34J50*
G01*
X1840*
G75*
G02X1890Y3636J-60*
G01*
Y4008*
X931*
Y3868*
X649*
Y4008*
X115*
G37*
X649D02*
G36*
Y4149D01*
X931*
Y4008*
X1890*
Y4365*
X115*
Y4008*
X649*
G37*
X1752Y953D02*
G36*
Y1165D01*
X1707*
Y1144*
G75*
G02X1739Y1090I-30J-54*
G01*
G75*
G02X1616I-62*
G01*
G75*
G02X1623Y1118I62*
G01*
Y1165*
X115*
Y953*
X1752*
G37*
X1828D02*
G36*
Y918D01*
X1881Y865*
X2451*
G75*
G02X2548Y904I51J12*
G01*
G75*
G02X2653Y911I54J-26*
G01*
Y953*
X1953*
G75*
G02X1852I-51*
G01*
X1828*
G37*
X1852D02*
G36*
G75*
G02X1953I51D01*
G01*
X3249*
X3226Y976*
G75*
G02X3215Y1002I27J27*
G01*
Y1088*
G75*
G02X3198Y1127I38J39*
G01*
G75*
G02X3213Y1165I54*
G01*
X2985*
G75*
G02X2895I-45J38*
G01*
X2541*
G75*
G02X2439I-51*
G01*
X1828*
Y953*
X1852*
G37*
X5415D02*
G36*
Y1165D01*
X3547*
G75*
G02X3458I-45J13*
G01*
X3292*
G75*
G02X3307Y1127I-39J-38*
G01*
G75*
G02X3290Y1088I-54*
G01*
Y1018*
X3293Y1015*
X3378*
G75*
G02X3404Y1004I0J-38*
G01*
X3429Y979*
G75*
G02X3440Y953I-27J-27*
G01*
X5415*
G37*
X3905Y1690D02*
G36*
Y1715D01*
G75*
G02X4015Y1749I60*
G01*
G75*
G02X4115I50J-34*
G01*
G75*
G02X4215I50J-34*
G01*
G75*
G02X4325Y1715I50J-34*
G01*
Y1690*
X4328*
Y1903*
X3574*
G75*
G02X3590Y1813I-21J-50*
G01*
Y1753*
G75*
G02X3579Y1726I-38J0*
G01*
X3544Y1690*
X3905*
G37*
X115Y245D02*
G36*
Y115D01*
X5415*
Y245*
X5316*
Y211*
G75*
G02X5294Y189I-23*
G01*
X4986*
G75*
G02X4964Y211J23*
G01*
Y245*
X115*
G37*
X1965Y3695D02*
Y2665D01*
X2478*
Y2985*
X2190*
G75*
G02X2184Y2986J42*
G01*
G75*
G02X2174Y2978I-44J42*
G01*
G75*
G02X2166Y2873I-34J-50*
G01*
G75*
G02X2140Y2775I-26J-46*
G01*
X2090*
G75*
G02X2064Y2873J53*
G01*
G75*
G02X2056Y2978I26J54*
G01*
G75*
G02Y3078I34J50*
G01*
G75*
G02X2090Y3188I34J50*
G01*
X2140*
G75*
G02X2174Y3078J-60*
G01*
G75*
G02X2184Y3069I-34J-50*
G01*
G75*
G02X2190Y3070I6J-42*
G01*
X2837*
G75*
G02X2930Y3003I40J-42*
G01*
X3273*
Y3187*
G75*
G02Y3268I42J40*
G01*
Y3373*
X3256Y3390*
X3247*
G75*
G02X3144Y3428I-44J38*
G01*
G75*
G02X3247Y3465I58*
G01*
X3259*
G75*
G02X3307Y3457I19J-38*
G01*
X3345Y3420*
G75*
G02X3357Y3390I-30J-30*
G01*
Y3268*
G75*
G02Y3187I-42J-40*
G01*
Y3020*
X3427Y2950*
G75*
G02X3428Y2950I1J-61*
G01*
X3478*
G75*
G02X3511Y2840J-60*
G01*
G75*
G02Y2740I-34J-50*
G01*
G75*
G02X3504Y2636I-34J-50*
G01*
G75*
G02X3482Y2538I-26J-46*
G01*
G75*
G02X3511Y2428I-5J-60*
G01*
G75*
G02Y2328I-34J-50*
G01*
G75*
G02Y2228I-34J-50*
G01*
G75*
G02X3478Y2117I-34J-50*
G01*
X3428*
G75*
G02X3394Y2228J60*
G01*
G75*
G02Y2328I34J50*
G01*
G75*
G02Y2428I34J50*
G01*
G75*
G02X3423Y2538I34J50*
G01*
G75*
G02X3401Y2636I5J52*
G01*
G75*
G02X3394Y2740I26J54*
G01*
G75*
G02Y2840I34J50*
G01*
G75*
G02X3367Y2891I34J50*
G01*
X3340Y2918*
Y2090*
X3573*
Y2850*
G75*
G02X3557Y2890I42J40*
G01*
G75*
G02X3673I58*
G01*
G75*
G02X3657Y2850I-58*
G01*
Y2090*
X4403*
Y1885*
X4520*
X4570Y1935*
G75*
G02X4603Y1948I32J-32*
G01*
X4703*
G75*
G02X4722Y1944I0J-45*
G01*
G75*
G02X4733Y1953I41J-41*
G01*
G75*
G02X4742Y2057I30J50*
G01*
G75*
G02X4763Y2153I21J46*
G01*
G75*
G02X4783Y2057J-50*
G01*
G75*
G02X4805Y2042I-21J-54*
G01*
G75*
G02X4823Y2095I57J11*
G01*
Y2098*
G75*
G02X4820Y2115I42J17*
G01*
Y2161*
X4495Y2485*
G75*
G02X4482Y2518I32J32*
G01*
Y3596*
X4296Y3782*
X3457*
G75*
G02X3472Y3772I-17J-42*
G01*
X3646Y3598*
X3929*
Y3701*
X4226*
Y3404*
X3929*
Y3507*
X3628*
G75*
G02X3595Y3520I0J45*
G01*
X3421Y3695*
X1965*
X2056Y3453D02*
G75*
G02Y3553I34J50D01*
G01*
G75*
G02X2090Y3663I34J50*
G01*
X2140*
G75*
G02X2174Y3553J-60*
G01*
G75*
G02Y3453I-34J-50*
G01*
G75*
G02X2166Y3348I-34J-50*
G01*
G75*
G02X2140Y3250I-26J-46*
G01*
X2090*
G75*
G02X2064Y3348J53*
G01*
G75*
G02X2056Y3453I26J54*
G01*
X2915Y3528D02*
G75*
G02X3015I51D01*
G01*
G75*
G02X2915I-51*
G01*
X3794Y3315D02*
G75*
G02X3911I58D01*
G01*
G75*
G02X3794I-58*
G01*
X3914Y2490D02*
G75*
G02X4016I51D01*
G01*
G75*
G02X3914I-51*
G01*
X4052Y3065D02*
G75*
G02X4153I51D01*
G01*
G75*
G02X4052I-51*
G01*
X4302Y2803D02*
G75*
G02X4403I51D01*
G01*
G75*
G02X4302I-51*
G01*
X4546Y1928D02*
X4409D01*
Y2043*
X4546*
Y1928*
X1965Y3456D02*
G36*
Y3315D01*
X2039*
G75*
G02X2064Y3348I51J-13*
G01*
G75*
G02X2056Y3453I26J54*
G01*
G75*
G02X2051Y3456I34J50*
G01*
X1965*
G37*
X2051D02*
G36*
G75*
G02X2035Y3528I39J46D01*
G01*
X1965*
Y3456*
X2051*
G37*
X2179D02*
G36*
G75*
G02X2174Y3453I-39J46D01*
G01*
G75*
G02X2166Y3348I-34J-50*
G01*
G75*
G02X2191Y3315I-26J-46*
G01*
X3273*
Y3373*
X3256Y3390*
X3247*
G75*
G02X3144Y3428I-44J38*
G01*
G75*
G02X3152Y3456I58*
G01*
X2179*
G37*
X3152D02*
G36*
G75*
G02X3247Y3465I51J-29D01*
G01*
X3259*
G75*
G02X3307Y3457I19J-38*
G01*
X3345Y3420*
G75*
G02X3357Y3390I-30J-30*
G01*
Y3315*
X3794*
G75*
G02X3911I58*
G01*
X4482*
Y3596*
X4296Y3782*
X3457*
G75*
G02X3472Y3772I-17J-42*
G01*
X3646Y3598*
X3929*
Y3701*
X4226*
Y3404*
X3929*
Y3507*
X3628*
G75*
G02X3595Y3520I0J45*
G01*
X3588Y3528*
X3015*
G75*
G02X2915I-51*
G01*
X2195*
G75*
G02X2179Y3456I-55J-25*
G01*
X3152*
G37*
X2035Y3528D02*
G36*
G75*
G02X2056Y3553I55J-25D01*
G01*
G75*
G02X2090Y3663I34J50*
G01*
X2140*
G75*
G02X2174Y3553J-60*
G01*
G75*
G02X2195Y3528I-34J-50*
G01*
X2915*
G75*
G02X3015I51*
G01*
X3588*
X3421Y3695*
X1965*
Y3528*
X2035*
G37*
X1965Y3315D02*
G36*
Y2665D01*
X2478*
Y2985*
X2190*
G75*
G02X2184Y2986J42*
G01*
G75*
G02X2174Y2978I-44J42*
G01*
G75*
G02X2166Y2873I-34J-50*
G01*
G75*
G02X2140Y2775I-26J-46*
G01*
X2090*
G75*
G02X2064Y2873J53*
G01*
G75*
G02X2056Y2978I26J54*
G01*
G75*
G02Y3078I34J50*
G01*
G75*
G02X2090Y3188I34J50*
G01*
X2140*
G75*
G02X2174Y3078J-60*
G01*
G75*
G02X2184Y3069I-34J-50*
G01*
G75*
G02X2190Y3070I6J-42*
G01*
X2837*
G75*
G02X2930Y3003I40J-42*
G01*
X3273*
Y3187*
G75*
G02Y3268I42J40*
G01*
Y3315*
X2191*
G75*
G02X2140Y3250I-51J-13*
G01*
X2090*
G75*
G02X2039Y3315J53*
G01*
X1965*
G37*
X3357D02*
G36*
Y3268D01*
G75*
G02Y3187I-42J-40*
G01*
Y3065*
X4052*
G75*
G02X4153I51*
G01*
X4482*
Y3315*
X3911*
G75*
G02X3794I-58*
G01*
X3357*
G37*
X3657Y2490D02*
G36*
Y2090D01*
X4403*
Y1986*
X4409*
Y2043*
X4546*
Y1986*
X4707*
G75*
G02X4742Y2057I56J17*
G01*
G75*
G02X4763Y2153I21J46*
G01*
G75*
G02X4783Y2057J-50*
G01*
G75*
G02X4805Y2042I-21J-54*
G01*
G75*
G02X4823Y2095I57J11*
G01*
Y2098*
G75*
G02X4820Y2115I42J17*
G01*
Y2161*
X4495Y2485*
G75*
G02X4491Y2490I32J32*
G01*
X4016*
G75*
G02X3914I-51*
G01*
X3657*
G37*
X3914D02*
G36*
G75*
G02X4016I51D01*
G01*
X4491*
G75*
G02X4482Y2518I36J28*
G01*
Y2803*
X4403*
G75*
G02X4302I-51*
G01*
X3657*
Y2490*
X3914*
G37*
X3357Y3065D02*
G36*
Y3020D01*
X3427Y2950*
G75*
G02X3428Y2950I1J-61*
G01*
X3478*
G75*
G02X3511Y2840J-60*
G01*
G75*
G02Y2740I-34J-50*
G01*
G75*
G02X3504Y2636I-34J-50*
G01*
G75*
G02X3482Y2538I-26J-46*
G01*
G75*
G02X3511Y2428I-5J-60*
G01*
G75*
G02Y2328I-34J-50*
G01*
G75*
G02Y2228I-34J-50*
G01*
G75*
G02X3478Y2117I-34J-50*
G01*
X3428*
G75*
G02X3394Y2228J60*
G01*
G75*
G02Y2328I34J50*
G01*
G75*
G02Y2428I34J50*
G01*
G75*
G02X3423Y2538I34J50*
G01*
G75*
G02X3401Y2636I5J52*
G01*
G75*
G02X3394Y2740I26J54*
G01*
G75*
G02Y2840I34J50*
G01*
G75*
G02X3367Y2891I34J50*
G01*
X3340Y2918*
Y2090*
X3573*
Y2850*
G75*
G02X3557Y2890I42J40*
G01*
G75*
G02X3673I58*
G01*
G75*
G02X3657Y2850I-58*
G01*
Y2803*
X4302*
G75*
G02X4403I51*
G01*
X4482*
Y3065*
X4153*
G75*
G02X4052I-51*
G01*
X3357*
G37*
X4403Y1986D02*
G36*
Y1885D01*
X4520*
X4570Y1935*
G75*
G02X4603Y1948I32J-32*
G01*
X4703*
G75*
G02X4722Y1944I0J-45*
G01*
G75*
G02X4733Y1953I41J-41*
G01*
G75*
G02X4707Y1986I30J50*
G01*
X4546*
Y1928*
X4409*
Y1986*
X4403*
G37*
X1965Y3785D02*
X3312D01*
G75*
G02X3393Y3870I40J42*
G01*
X3398*
G75*
G02X3415Y3873I17J-42*
G01*
X4315*
G75*
G02X4347Y3860I0J-45*
G01*
X4560Y3647*
G75*
G02X4573Y3615I-32J-32*
G01*
Y2536*
X4885Y2224*
Y2659*
G75*
G02X4805Y2723I-23J53*
G01*
G75*
G02X4763Y2704I-43J39*
G01*
G75*
G02X4733Y2813J58*
G01*
G75*
G02Y2913I30J50*
G01*
G75*
G02X4742Y3017I30J50*
G01*
G75*
G02X4763Y3113I21J46*
G01*
G75*
G02X4783Y3017J-50*
G01*
G75*
G02X4805Y3002I-21J-54*
G01*
G75*
G02X4863Y3071I57J11*
G01*
G75*
G02X4892Y2963J-58*
G01*
G75*
G02X4921Y2913I-30J-50*
G01*
X4941Y2892*
G75*
G02X4945Y2891I-14J-40*
G01*
G75*
G02X5028Y2853I33J-38*
G01*
G75*
G02X4970Y2803I-51*
G01*
Y2515*
G75*
G02X5028Y2465I8J-50*
G01*
G75*
G02X4970Y2415I-51*
G01*
Y2003*
G75*
G02X4941Y1963I-42*
G01*
X4919Y1941*
G75*
G02X4892Y1903I-57J12*
G01*
G75*
G02Y1803I-30J-50*
G01*
G75*
G02X4863Y1694I-30J-50*
G01*
G75*
G02X4805Y1763J58*
G01*
G75*
G02X4763Y1744I-43J39*
G01*
G75*
G02X4733Y1853J58*
G01*
G75*
G02X4722Y1861I30J50*
G01*
G75*
G02X4703Y1857I-19J41*
G01*
X4621*
X4554Y1790*
Y1754*
X4403*
Y1640*
X5022*
G75*
G02X5113Y1813I91J63*
G01*
G75*
G02X5203Y1640I0J-110*
G01*
X5428*
Y4365*
X5204*
X5205Y4364*
G75*
G02X5219Y4332I-32J-32*
G01*
Y4304*
X5238*
Y4151*
X5235*
Y4078*
G75*
G02X5181Y4033I-45*
G01*
X5170Y4022*
X5193Y3999*
Y3956*
X5162Y3925*
X5118*
X5100Y3943*
Y3917*
X5093*
G75*
G02X5095Y3903I-53J-15*
G01*
Y3818*
X5105*
Y3799*
X5116Y3810*
X5164*
X5198Y3776*
Y3729*
X5164Y3695*
X5116*
X5105Y3706*
Y3687*
X5085*
Y3578*
G75*
G02X5072Y3545I-45J0*
G01*
X5047Y3520*
Y3451*
X4917*
Y3604*
X4995*
Y3687*
X4975*
Y3702*
G75*
G02X4953Y3697I-22J51*
G01*
X4565*
G75*
G02X4526Y3713I0J55*
G01*
X3967Y4272*
X3215*
G75*
G02X3180Y4285I0J55*
G01*
G75*
G02X3096Y4290I-40J43*
G01*
X3090*
G75*
G02X3065Y4282I-25J38*
G01*
X2390*
G75*
G02X2365Y4290J45*
G01*
X2284*
G75*
G02X2195Y4365I-44J38*
G01*
X1965*
Y3785*
X5091Y3459D02*
Y3596D01*
X5206*
Y3459*
X5091*
X5113Y2042D02*
G75*
G02Y2263J110D01*
G01*
G75*
G02Y2042J-110*
G01*
Y2552D02*
G75*
G02Y2773J110D01*
G01*
G75*
G02Y2552J-110*
G01*
Y3002D02*
G75*
G02Y3223J110D01*
G01*
G75*
G02Y3002J-110*
G01*
X5054Y3528D02*
G36*
X5047Y3520D01*
Y3451*
X4917*
Y3604*
X4995*
Y3687*
X4975*
Y3702*
G75*
G02X4953Y3697I-22J51*
G01*
X4565*
G75*
G02X4526Y3713I0J55*
G01*
X3967Y4272*
X3215*
G75*
G02X3180Y4285I0J55*
G01*
G75*
G02X3096Y4290I-40J43*
G01*
X3090*
G75*
G02X3065Y4282I-25J38*
G01*
X2390*
G75*
G02X2365Y4290J45*
G01*
X2284*
G75*
G02X2195Y4365I-44J38*
G01*
X1965*
Y3785*
X3312*
G75*
G02X3393Y3870I40J42*
G01*
X3398*
G75*
G02X3415Y3873I17J-42*
G01*
X4315*
G75*
G02X4347Y3860I0J-45*
G01*
X4560Y3647*
G75*
G02X4573Y3615I-32J-32*
G01*
Y2536*
X4885Y2224*
Y2659*
G75*
G02X4805Y2723I-23J53*
G01*
G75*
G02X4763Y2704I-43J39*
G01*
G75*
G02X4733Y2813J58*
G01*
G75*
G02Y2913I30J50*
G01*
G75*
G02X4742Y3017I30J50*
G01*
G75*
G02X4763Y3113I21J46*
G01*
G75*
G02X4767Y3113J-50*
G01*
X5002*
G75*
G02X5113Y3223I110*
G01*
G75*
G02X5223Y3113J-110*
G01*
X5428*
Y3528*
X5206*
Y3459*
X5091*
Y3528*
X5054*
G37*
X5091D02*
G36*
Y3596D01*
X5206*
Y3528*
X5428*
Y4365*
X5204*
X5205Y4364*
G75*
G02X5219Y4332I-32J-32*
G01*
Y4304*
X5238*
Y4151*
X5235*
Y4078*
G75*
G02X5181Y4033I-45*
G01*
X5170Y4022*
X5193Y3999*
Y3956*
X5162Y3925*
X5118*
X5100Y3943*
Y3917*
X5093*
G75*
G02X5095Y3903I-53J-15*
G01*
Y3818*
X5105*
Y3799*
X5116Y3810*
X5164*
X5198Y3776*
Y3729*
X5164Y3695*
X5116*
X5105Y3706*
Y3687*
X5085*
Y3578*
G75*
G02X5072Y3545I-45J0*
G01*
X5054Y3528*
X5091*
G37*
X4970Y2153D02*
G36*
Y2003D01*
G75*
G02X4941Y1963I-42*
G01*
X4919Y1941*
G75*
G02X4892Y1903I-57J12*
G01*
G75*
G02Y1803I-30J-50*
G01*
G75*
G02X4863Y1694I-30J-50*
G01*
G75*
G02X4805Y1763J58*
G01*
G75*
G02X4763Y1744I-43J39*
G01*
G75*
G02X4733Y1853J58*
G01*
G75*
G02X4722Y1861I30J50*
G01*
G75*
G02X4703Y1857I-19J41*
G01*
X4621*
X4554Y1790*
Y1754*
X4403*
Y1640*
X5022*
G75*
G02X5113Y1813I91J63*
G01*
G75*
G02X5203Y1640I0J-110*
G01*
X5428*
Y2153*
X5223*
G75*
G02X5113Y2042I-110*
G01*
G75*
G02X5002Y2153J110*
G01*
X4970*
G37*
X5002D02*
G36*
G75*
G02X5113Y2263I110D01*
G01*
G75*
G02X5223Y2153J-110*
G01*
X5428*
Y2663*
X5223*
G75*
G02X5113Y2552I-110*
G01*
G75*
G02X5002Y2663J110*
G01*
X4970*
Y2515*
G75*
G02X5028Y2465I8J-50*
G01*
G75*
G02X4970Y2415I-51*
G01*
Y2153*
X5002*
G37*
Y2663D02*
G36*
G75*
G02X5113Y2773I110D01*
G01*
G75*
G02X5223Y2663J-110*
G01*
X5428*
Y3113*
X5223*
G75*
G02X5113Y3002I-110*
G01*
G75*
G02X5002Y3113J110*
G01*
X4767*
G75*
G02X4783Y3017I-5J-50*
G01*
G75*
G02X4805Y3002I-21J-54*
G01*
G75*
G02X4863Y3071I57J11*
G01*
G75*
G02X4892Y2963J-58*
G01*
G75*
G02X4921Y2913I-30J-50*
G01*
X4941Y2892*
G75*
G02X4945Y2891I-14J-40*
G01*
G75*
G02X5028Y2853I33J-38*
G01*
G75*
G02X4970Y2803I-51*
G01*
Y2663*
X5002*
G37*
X3265Y2010D02*
Y2613D01*
X3233Y2645*
G75*
G02X3226Y2654I32J32*
G01*
G75*
G02X3211Y2640I-49J36*
G01*
G75*
G02X3182Y2530I-34J-50*
G01*
G75*
G02X3204Y2432I-5J-52*
G01*
G75*
G02X3211Y2328I-26J-54*
G01*
G75*
G02Y2228I-34J-50*
G01*
G75*
G02X3178Y2117I-34J-50*
G01*
X3128*
G75*
G02X3100Y2124I0J60*
G01*
G75*
G02X3111Y2091I-48J-34*
G01*
X3192Y2010*
X3265*
G36*
Y2613*
X3233Y2645*
G75*
G02X3226Y2654I32J32*
G01*
G75*
G02X3211Y2640I-49J36*
G01*
G75*
G02X3182Y2530I-34J-50*
G01*
G75*
G02X3204Y2432I-5J-52*
G01*
G75*
G02X3211Y2328I-26J-54*
G01*
G75*
G02Y2228I-34J-50*
G01*
G75*
G02X3178Y2117I-34J-50*
G01*
X3128*
G75*
G02X3100Y2124I0J60*
G01*
G75*
G02X3111Y2091I-48J-34*
G01*
X3192Y2010*
X3265*
G37*
D02*
D138*
X265Y1815D02*
Y1440D01*
X0Y0D02*
M02*
