%FSLAX23Y23*%
%MOIN*%
G04 EasyPC Gerber Version 14.0.2 Build 2922 *
%ADD11C,0.00500*%
%ADD16C,0.00787*%
%ADD137C,0.02500*%
X0Y0D02*
D02*
D11*
X4377Y2041D02*
X4339D01*
Y2022*
X4342Y2016*
X4346Y2012*
X4352Y2009*
X4364*
X4371Y2012*
X4374Y2016*
X4377Y2022*
Y2041*
Y1966D02*
Y1991D01*
X4355Y1969*
X4349Y1966*
X4342Y1969*
X4339Y1975*
Y1984*
X4342Y1991*
X4534Y2031D02*
Y1774D01*
X4421*
Y2031*
X4534*
X5140Y3637D02*
Y3674D01*
X5121*
X5115Y3671*
X5112Y3668*
X5109Y3662*
Y3649*
X5112Y3643*
X5115Y3640*
X5121Y3637*
X5140*
X5084D02*
X5071D01*
X5078D02*
Y3674D01*
X5084Y3668*
X5040Y3640D02*
X5034Y3637D01*
X5024*
X5018Y3640*
X5015Y3646*
Y3649*
X5018Y3656*
X5024Y3659*
X5040*
Y3674*
X5015*
X5193Y3471D02*
X4937D01*
Y3584*
X5193*
Y3471*
X5218Y4171D02*
X4962D01*
Y4284*
X5218*
Y4171*
X5281Y4278D02*
X5243D01*
Y4259*
X5246Y4253*
X5249Y4249*
X5256Y4246*
X5268*
X5274Y4249*
X5278Y4253*
X5281Y4259*
Y4278*
Y4221D02*
Y4209D01*
Y4215D02*
X5243D01*
X5249Y4221*
X5271Y4178D02*
X5265Y4174D01*
X5262Y4168*
Y4162*
X5265Y4156*
X5271Y4153*
X5278Y4156*
X5281Y4162*
Y4168*
X5278Y4174*
X5271Y4178*
X5262*
X5253Y4174*
X5246Y4168*
X5243Y4162*
D02*
D16*
X1478Y2387D02*
Y2424D01*
X1462Y2406*
X1446Y2424*
Y2387*
X1428Y2399D02*
Y2412D01*
X1424Y2418*
X1421Y2421*
X1415Y2424*
X1409*
X1403Y2421*
X1399Y2418*
X1396Y2412*
Y2399*
X1399Y2393*
X1403Y2390*
X1409Y2387*
X1415*
X1421Y2390*
X1424Y2393*
X1428Y2399*
X1378Y2387D02*
Y2424D01*
X1359*
X1353Y2421*
X1349Y2418*
X1346Y2412*
Y2399*
X1349Y2393*
X1353Y2390*
X1359Y2387*
X1378*
X1306Y2406D02*
X1299Y2403D01*
X1296Y2396*
X1299Y2390*
X1306Y2387*
X1328*
Y2424*
X1306*
X1299Y2421*
X1296Y2415*
X1299Y2409*
X1306Y2406*
X1328*
X1278Y2424D02*
Y2396D01*
X1274Y2390*
X1268Y2387*
X1256*
X1249Y2390*
X1246Y2396*
Y2424*
X1228Y2396D02*
X1224Y2390D01*
X1218Y2387*
X1206*
X1199Y2390*
X1196Y2396*
X1199Y2403*
X1206Y2406*
X1218*
X1224Y2409*
X1228Y2415*
X1224Y2421*
X1218Y2424*
X1206*
X1199Y2421*
X1196Y2415*
X1127Y2396D02*
X1124Y2390D01*
X1118Y2387*
X1106*
X1099Y2390*
X1096Y2396*
X1099Y2403*
X1106Y2406*
X1118*
X1124Y2409*
X1127Y2415*
X1124Y2421*
X1118Y2424*
X1106*
X1099Y2421*
X1096Y2415*
X1077Y2387D02*
Y2424D01*
X1056*
X1049Y2421*
X1046Y2415*
X1049Y2409*
X1056Y2406*
X1077*
X1028Y2387D02*
Y2424D01*
X996*
X1002Y2406D02*
X1028D01*
Y2387D02*
X996D01*
X946Y2393D02*
X949Y2390D01*
X956Y2387*
X965*
X971Y2390*
X974Y2393*
X978Y2399*
Y2412*
X974Y2418*
X971Y2421*
X965Y2424*
X956*
X949Y2421*
X946Y2418*
X877Y2387D02*
Y2424D01*
X856*
X849Y2421*
X846Y2415*
X849Y2409*
X856Y2406*
X877*
X856D02*
X846Y2387D01*
X828Y2396D02*
X824Y2390D01*
X818Y2387*
X806*
X799Y2390*
X796Y2396*
X799Y2403*
X806Y2406*
X818*
X824Y2409*
X828Y2415*
X824Y2421*
X818Y2424*
X806*
X799Y2421*
X796Y2415*
X762Y2387D02*
Y2424D01*
X778Y2399*
X753*
X718Y2406D02*
X712D01*
X706Y2409*
X703Y2415*
X706Y2421*
X712Y2424*
X718*
X724Y2421*
X728Y2415*
X724Y2409*
X718Y2406*
X724Y2403*
X728Y2396*
X724Y2390*
X718Y2387*
X712*
X706Y2390*
X703Y2396*
X706Y2403*
X712Y2406*
X678Y2390D02*
X671Y2387D01*
X662*
X656Y2390*
X653Y2396*
Y2399*
X656Y2406*
X662Y2409*
X678*
Y2424*
X653*
X578D02*
X574Y2387D01*
X562Y2406*
X549Y2387*
X546Y2424*
X518Y2387D02*
X506D01*
X512D02*
Y2424D01*
X518D02*
X506D01*
X477Y2387D02*
Y2424D01*
X456*
X449Y2421*
X446Y2415*
X449Y2409*
X456Y2406*
X477*
X456D02*
X446Y2387D01*
X418D02*
X406D01*
X412D02*
Y2424D01*
X418D02*
X406D01*
X378Y2387D02*
Y2424D01*
X346Y2387*
Y2424*
X306Y2403D02*
X296D01*
Y2399*
X299Y2393*
X303Y2390*
X309Y2387*
X315*
X321Y2390*
X324Y2393*
X328Y2399*
Y2412*
X324Y2418*
X321Y2421*
X315Y2424*
X309*
X303Y2421*
X299Y2418*
X296Y2412*
X1478Y2327D02*
Y2364D01*
X1456*
X1449Y2361*
X1446Y2355*
X1449Y2349*
X1456Y2346*
X1478*
X1418Y2327D02*
X1406D01*
X1412D02*
Y2364D01*
X1418D02*
X1406D01*
X1378Y2327D02*
Y2364D01*
X1346Y2327*
Y2364*
X1262Y2327D02*
Y2364D01*
X1278Y2339*
X1252*
X1178D02*
X1153D01*
X1077Y2327D02*
Y2364D01*
X1059*
X1053Y2361*
X1049Y2358*
X1046Y2352*
Y2339*
X1049Y2333*
X1053Y2330*
X1059Y2327*
X1077*
X1006Y2346D02*
X999Y2342D01*
X996Y2336*
X999Y2330*
X1006Y2327*
X1028*
Y2364*
X1006*
X999Y2361*
X996Y2355*
X999Y2349*
X1006Y2346*
X1028*
X1478Y2267D02*
Y2304D01*
X1456*
X1449Y2301*
X1446Y2295*
X1449Y2289*
X1456Y2286*
X1478*
X1418Y2267D02*
X1406D01*
X1412D02*
Y2304D01*
X1418D02*
X1406D01*
X1378Y2267D02*
Y2304D01*
X1346Y2267*
Y2304*
X1278Y2270D02*
X1271Y2267D01*
X1262*
X1256Y2270*
X1252Y2276*
Y2279*
X1256Y2286*
X1262Y2289*
X1278*
Y2304*
X1252*
X1178Y2279D02*
X1153D01*
X1077Y2267D02*
Y2304D01*
X1059*
X1053Y2301*
X1049Y2298*
X1046Y2292*
Y2279*
X1049Y2273*
X1053Y2270*
X1059Y2267*
X1077*
X1028D02*
X1012Y2304D01*
X996Y2267*
X1021Y2283D02*
X1002D01*
X1478Y2207D02*
Y2244D01*
X1456*
X1449Y2241*
X1446Y2235*
X1449Y2229*
X1456Y2226*
X1478*
X1418Y2207D02*
X1406D01*
X1412D02*
Y2244D01*
X1418D02*
X1406D01*
X1378Y2207D02*
Y2244D01*
X1346Y2207*
Y2244*
X1278Y2207D02*
X1252Y2244D01*
X1278*
X1178Y2219D02*
X1153D01*
X1077Y2210D02*
X1071Y2207D01*
X1062*
X1056Y2210*
X1053Y2216*
Y2219*
X1056Y2226*
X1062Y2229*
X1077*
Y2244*
X1053*
X1028D02*
X1012Y2207D01*
X996Y2244*
X1478Y2147D02*
Y2184D01*
X1456*
X1449Y2181*
X1446Y2175*
X1449Y2169*
X1456Y2166*
X1478*
X1418Y2147D02*
X1406D01*
X1412D02*
Y2184D01*
X1418D02*
X1406D01*
X1378Y2147D02*
Y2184D01*
X1346Y2147*
Y2184*
X1268Y2166D02*
X1262D01*
X1256Y2169*
X1252Y2175*
X1256Y2181*
X1262Y2184*
X1268*
X1274Y2181*
X1278Y2175*
X1274Y2169*
X1268Y2166*
X1274Y2163*
X1278Y2156*
X1274Y2150*
X1268Y2147*
X1262*
X1256Y2150*
X1252Y2156*
X1256Y2163*
X1262Y2166*
X1178Y2159D02*
X1153D01*
X1056Y2163D02*
X1046D01*
Y2159*
X1049Y2153*
X1053Y2150*
X1059Y2147*
X1065*
X1071Y2150*
X1074Y2153*
X1077Y2159*
Y2172*
X1074Y2178*
X1071Y2181*
X1065Y2184*
X1059*
X1053Y2181*
X1049Y2178*
X1046Y2172*
X1028Y2147D02*
Y2184D01*
X996Y2147*
Y2184*
X978Y2147D02*
Y2184D01*
X959*
X953Y2181*
X949Y2178*
X946Y2172*
Y2159*
X949Y2153*
X953Y2150*
X959Y2147*
X978*
X1978Y646D02*
X1974Y640D01*
X1968Y637*
X1956*
X1949Y640*
X1946Y646*
X1949Y653*
X1956Y656*
X1968*
X1974Y659*
X1978Y665*
X1974Y671*
X1968Y674*
X1956*
X1949Y671*
X1946Y665*
X1918Y637D02*
X1906D01*
X1912D02*
Y674D01*
X1918D02*
X1906D01*
X1878Y637D02*
Y674D01*
X1859*
X1853Y671*
X1849Y668*
X1846Y662*
Y649*
X1849Y643*
X1853Y640*
X1859Y637*
X1878*
X1828D02*
Y674D01*
X1796*
X1803Y656D02*
X1828D01*
Y637D02*
X1796D01*
X1703D02*
X1728D01*
X1706Y659*
X1703Y665*
X1706Y671*
X1712Y674*
X1721*
X1728Y671*
D02*
D137*
X190Y2078D02*
X1540D01*
Y2503*
X190*
Y2078*
X0Y0D02*
M02*
