%FSLAX23Y23*%
%MOIN*%
G04 EasyPC Gerber Version 14.0.2 Build 2922 *
%ADD121O,0.06600X0.11600*%
%ADD112R,0.02214X0.04163*%
%ADD120R,0.03000X0.09300*%
%ADD134R,0.03002X0.06584*%
%ADD113R,0.04540X0.04930*%
%ADD116R,0.05700X0.06600*%
%ADD123R,0.06900X0.07690*%
%ADD125R,0.07588X0.09852*%
%ADD132R,0.08600X0.10100*%
%ADD131R,0.11131X0.13789*%
%ADD129R,0.16742X0.16939*%
%ADD109R,0.06600X0.06600*%
%ADD107R,0.07600X0.07600*%
%ADD133R,0.10100X0.10100*%
%ADD104R,0.24222X0.24222*%
%ADD16C,0.00787*%
%ADD105C,0.05400*%
%ADD119O,0.11600X0.06600*%
%ADD111R,0.08400X0.02800*%
%ADD128R,0.05580X0.02923*%
%ADD114R,0.04498X0.03317*%
%ADD117R,0.04930X0.04540*%
%ADD130R,0.08769X0.04891*%
%ADD118R,0.06600X0.05700*%
%ADD122R,0.07690X0.06900*%
%ADD124R,0.09852X0.07588*%
%ADD126C,0.06143*%
%ADD136C,0.06200*%
%ADD106C,0.06600*%
%ADD135C,0.09200*%
%AMT110*0 Octagon Pad at angle 0*4,1,8,-0.01366,-0.03300,0.01366,-0.03300,0.03300,-0.01366,0.03300,0.01366,0.01366,0.03300,-0.01366,0.03300,-0.03300,0.01366,-0.03300,-0.01366,-0.01366,-0.03300,0*%
%ADD110T110*%
%AMT108*0 Octagon Pad at angle 0*4,1,8,-0.01573,-0.03800,0.01573,-0.03800,0.03800,-0.01573,0.03800,0.01573,0.01573,0.03800,-0.01573,0.03800,-0.03800,0.01573,-0.03800,-0.01573,-0.01573,-0.03800,0*%
%ADD108T108*%
%ADD115R,0.16939X0.16742*%
%ADD127C,0.16600*%
X0Y0D02*
D02*
D16*
X5003Y346D02*
X5006Y340D01*
X5012Y337*
X5024*
X5031Y340*
X5034Y346*
X5031Y353*
X5024Y356*
X5012*
X5006Y359*
X5003Y365*
X5006Y371*
X5012Y374*
X5024*
X5031Y371*
X5034Y365*
X5062Y337D02*
X5074D01*
X5068D02*
Y374D01*
X5062D02*
X5074D01*
X5103Y337D02*
Y374D01*
X5121*
X5128Y371*
X5131Y368*
X5134Y362*
Y349*
X5131Y343*
X5128Y340*
X5121Y337*
X5103*
X5153D02*
Y374D01*
X5184*
X5178Y356D02*
X5153D01*
Y337D02*
X5184D01*
X5259D02*
X5271D01*
X5265D02*
Y374D01*
X5259Y368*
D02*
D104*
X790Y465D03*
Y4008D03*
X1378Y753D03*
Y3553D03*
X4078Y753D03*
Y3553D03*
X4727Y464D03*
Y4008D03*
D02*
D105*
X265Y1815D03*
X553Y1303D03*
X2040Y2378D03*
X2103Y1728D03*
X2315Y1628D03*
X3253Y1127D03*
X3503Y1178D03*
X3553Y1853D03*
D02*
D106*
X2503Y778D03*
Y877D03*
X2603Y778D03*
Y877D03*
X2703Y778D03*
Y877D03*
X2803Y778D03*
Y877D03*
X2903Y778D03*
Y877D03*
X3003Y778D03*
Y877D03*
X3103Y778D03*
Y877D03*
X3203Y778D03*
Y877D03*
X3303Y778D03*
Y877D03*
X3403Y778D03*
Y877D03*
X3503Y778D03*
Y877D03*
X3603Y778D03*
Y877D03*
X3703Y778D03*
Y877D03*
X3803Y778D03*
Y877D03*
D02*
D107*
X1940Y1340D03*
X5040Y3753D03*
D02*
D108*
X2040Y1340D03*
X2140D03*
X2240D03*
X5140Y3753D03*
D02*
D109*
X2953Y490D03*
X5040Y3978D03*
D02*
D110*
X2653Y390D03*
Y490D03*
X2753Y390D03*
Y490D03*
X2853Y390D03*
Y490D03*
X2953Y390D03*
X5040Y4078D03*
X5140Y3978D03*
Y4078D03*
D02*
D111*
X1587Y1628D03*
Y1678D03*
Y1728D03*
Y1778D03*
Y1828D03*
Y1878D03*
Y1928D03*
Y1978D03*
Y2028D03*
X1943Y1628D03*
Y1678D03*
Y1728D03*
Y1778D03*
Y1828D03*
Y1878D03*
Y1928D03*
Y1978D03*
Y2028D03*
X2035Y778D03*
Y828D03*
Y877D03*
Y928D03*
X2221Y778D03*
Y828D03*
Y877D03*
Y928D03*
D02*
D112*
X2627Y1014D03*
Y1166D03*
X2652Y1014D03*
Y1166D03*
X2678Y1014D03*
Y1166D03*
X2703Y1014D03*
Y1166D03*
D02*
D113*
X1605Y1515D03*
X1675D03*
X1755Y2165D03*
X1793Y2303D03*
X1825Y2165D03*
X1863Y2303D03*
X2105Y1002D03*
X2175D03*
X2418Y1328D03*
Y1415D03*
Y1503D03*
X2488Y1328D03*
Y1415D03*
Y1503D03*
X2493Y1252D03*
X2563D03*
X2980Y3428D03*
X3050D03*
D02*
D114*
X1789Y2390D03*
Y2465D03*
X1891Y2390D03*
Y2428D03*
Y2465D03*
X2664Y2603D03*
Y2640D03*
Y2677D03*
X2766Y2603D03*
Y2677D03*
X3689Y1815D03*
Y1853D03*
Y1890D03*
X3701Y2303D03*
Y2377D03*
X3791Y1815D03*
Y1890D03*
X3803Y2303D03*
Y2340D03*
Y2377D03*
D02*
D115*
X348Y2665D03*
Y2890D03*
Y3115D03*
Y3340D03*
Y3565D03*
X557Y2665D03*
Y2890D03*
Y3115D03*
Y3340D03*
Y3565D03*
D02*
D116*
X953Y2865D03*
Y2990D03*
Y3115D03*
Y3240D03*
Y3365D03*
X1028Y2865D03*
Y2990D03*
Y3115D03*
Y3240D03*
Y3365D03*
X1603Y3028D03*
Y3503D03*
X1678Y3028D03*
Y3503D03*
X3215Y1678D03*
Y1778D03*
X3290Y1678D03*
Y1778D03*
X4090Y2115D03*
X4165D03*
X4215Y1428D03*
Y1553D03*
X4290Y1428D03*
Y1553D03*
D02*
D117*
X2340Y880D03*
Y950D03*
X2353Y568D03*
Y638D03*
X2503Y1018D03*
Y1088D03*
X3428Y1218D03*
Y1288D03*
X3528Y1393D03*
Y1463D03*
X4028Y2818D03*
Y2888D03*
D02*
D118*
X2240Y3415D03*
Y3490D03*
X2265Y2940D03*
Y3015D03*
X2390Y4253D03*
Y4328D03*
X2953Y2315D03*
Y2390D03*
X2978Y2678D03*
Y2753D03*
Y2840D03*
Y2915D03*
X3028Y4253D03*
Y4328D03*
X3353Y4003D03*
Y4078D03*
X3428Y1378D03*
Y1453D03*
X3590Y2128D03*
Y2203D03*
Y2303D03*
Y2378D03*
X3615Y2715D03*
Y2790D03*
X3953Y4003D03*
Y4078D03*
D02*
D119*
X1815Y2828D03*
Y2928D03*
Y3028D03*
Y3128D03*
Y3303D03*
Y3403D03*
Y3503D03*
Y3603D03*
X2115Y2828D03*
Y2928D03*
Y3028D03*
Y3128D03*
Y3303D03*
Y3403D03*
Y3503D03*
Y3603D03*
X3153Y2178D03*
Y2278D03*
Y2378D03*
Y2478D03*
Y2590D03*
Y2690D03*
Y2790D03*
Y2890D03*
X3453Y2178D03*
Y2278D03*
Y2378D03*
Y2478D03*
Y2590D03*
Y2690D03*
Y2790D03*
Y2890D03*
D02*
D120*
X4115Y2603D03*
Y2807D03*
X4165Y2603D03*
Y2807D03*
X4215Y2603D03*
Y2807D03*
X4265Y2603D03*
Y2807D03*
D02*
D121*
X3965Y1690D03*
Y1990D03*
X4065Y1690D03*
Y1990D03*
X4165Y1690D03*
Y1990D03*
X4265Y1690D03*
Y1990D03*
D02*
D122*
X2365Y3373D03*
Y3483D03*
X2390Y2898D03*
Y3008D03*
X2778Y2322D03*
Y2433D03*
X3728Y2685D03*
Y2795D03*
X3965Y2260D03*
Y2370D03*
D02*
D123*
X2648Y2865D03*
X2758D03*
X3348Y2003D03*
X3458D03*
X4098Y2228D03*
X4207D03*
D02*
D124*
X4503Y1819D03*
Y1986D03*
D02*
D125*
X4982Y3328D03*
X5148D03*
D02*
D126*
X4763Y1803D03*
Y1903D03*
Y2003D03*
Y2103D03*
Y2763D03*
Y2863D03*
Y2963D03*
Y3063D03*
X4863Y1753D03*
Y1853D03*
Y1953D03*
Y2053D03*
Y2713D03*
Y2813D03*
Y2913D03*
Y3013D03*
D02*
D127*
X5113Y1703D03*
Y2153D03*
Y2663D03*
Y3113D03*
D02*
D128*
X2794Y3128D03*
Y3178D03*
Y3228D03*
Y3278D03*
X3011Y3128D03*
Y3178D03*
Y3228D03*
Y3278D03*
D02*
D129*
X2590Y4061D03*
Y4269D03*
X2828Y4061D03*
Y4269D03*
X3540Y4061D03*
Y4269D03*
X3778Y4061D03*
Y4269D03*
D02*
D130*
X608Y949D03*
Y1040D03*
Y1131D03*
X633Y1637D03*
Y1728D03*
Y1818D03*
D02*
D131*
X858Y1040D03*
X883Y1728D03*
D02*
D132*
X673Y1303D03*
X698Y1965D03*
X807Y1303D03*
X832Y1965D03*
D02*
D133*
X415Y930D03*
Y1150D03*
X428Y1593D03*
Y1813D03*
D02*
D134*
X3053Y1202D03*
Y1403D03*
X3103Y1202D03*
Y1403D03*
X3153Y1202D03*
Y1403D03*
X3203Y1202D03*
Y1403D03*
X3253Y1202D03*
Y1403D03*
X3303Y1202D03*
Y1403D03*
X3353Y1202D03*
Y1403D03*
D02*
D135*
X415Y765D03*
X428Y1465D03*
X915Y765D03*
X928Y1465D03*
D02*
D136*
X1390Y1240D03*
X1590Y3228D03*
Y3653D03*
X1678Y1090D03*
X1703Y2303D03*
X1903Y953D03*
X2240Y4328D03*
X2490Y1165D03*
X2590Y2765D03*
X2603Y1415D03*
X2765Y2753D03*
X2878Y3028D03*
X2940Y1202D03*
X2965Y3528D03*
X3053Y2090D03*
X3140Y4328D03*
X3153Y1603D03*
X3203Y3428D03*
X3315Y1528D03*
Y3228D03*
X3353Y3828D03*
X3453Y1690D03*
X3615Y2028D03*
Y2890D03*
X3628Y1378D03*
X3790Y1965D03*
X3853Y3315D03*
X3965Y2490D03*
X4103Y3065D03*
X4353Y2803D03*
X4978Y2465D03*
Y2853D03*
X0Y0D02*
M02*
