%FSLAX23Y23*%
%MOIN*%
G04 EasyPC Gerber Version 14.0.2 Build 2922 *
%ADD154C,0.00039*%
%ADD22C,0.00100*%
%ADD149C,0.00276*%
%ADD153C,0.00300*%
%ADD124C,0.00320*%
%ADD150C,0.00394*%
%ADD113C,0.00400*%
%ADD115C,0.00500*%
%ADD111C,0.00600*%
%ADD148C,0.00787*%
%ADD98C,0.00800*%
%ADD96C,0.01000*%
%ADD147C,0.01181*%
%ADD152C,0.01200*%
%ADD146C,0.01575*%
%ADD97C,0.01600*%
%ADD151C,0.01969*%
X0Y0D02*
D02*
D22*
X1518Y2216D02*
Y2231D01*
X1528*
Y2216*
X1518*
D02*
D96*
X1980Y1586D02*
Y1486D01*
X2293*
Y1586*
X1880*
Y1486*
X1980*
X3209Y4276D02*
X3109D01*
Y4176*
X3209Y4376D02*
Y4176D01*
X3009*
Y4376*
X3209*
X3364Y4176D02*
Y4376D01*
X3264*
Y4176*
X3364*
X4912Y2311D02*
X4818D01*
X5776Y1971D02*
X3461D01*
Y2061*
X3293*
Y3161*
X2493*
Y2849*
X1959*
Y4487*
X2056*
D02*
D97*
X505Y961D02*
X480D01*
X518Y1661D02*
X493D01*
X555Y1011D02*
Y911D01*
X505*
Y1011*
X555*
X568Y1711D02*
Y1611D01*
X518*
Y1711*
X568*
X805Y1011D02*
Y911D01*
X505*
Y1011*
X805*
X818Y1711D02*
Y1611D01*
X518*
Y1711*
X818*
X830Y961D02*
X805D01*
X843Y1661D02*
X818D01*
D02*
D98*
X1048Y3096D02*
Y3026D01*
X912*
Y3096*
X1048*
Y3221D02*
Y3151D01*
X912*
Y3221*
X1048*
Y3346D02*
Y3276D01*
X912*
Y3346*
X1048*
Y3471D02*
Y3401D01*
X912*
Y3471*
X1048*
Y3596D02*
Y3526D01*
X912*
Y3596*
X1048*
X1569Y1685D02*
Y1738D01*
X1692*
Y1685*
X1569*
X1698Y3259D02*
Y3189D01*
X1562*
Y3259*
X1698*
X1699Y3941D02*
X1614D01*
Y4124*
X1699*
Y3941*
X1702Y3675D02*
Y3605D01*
X1566*
Y3675*
X1702*
X1719Y2335D02*
Y2388D01*
X1842*
Y2335*
X1719*
X1756Y2472D02*
Y2525D01*
X1879*
Y2472*
X1756*
X2192Y1225D02*
Y1172D01*
X2069*
Y1225*
X2192*
X2199Y3658D02*
X2269D01*
Y3522*
X2199*
Y3658*
X2220Y3242D02*
X2290D01*
Y3106*
X2220*
Y3242*
X2304Y1173D02*
X2357D01*
Y1050*
X2304*
Y1173*
X2316Y3657D02*
X2401D01*
Y3474*
X2316*
Y3657*
X2330Y3962D02*
X2400D01*
Y3826*
X2330*
Y3962*
X2338Y3240D02*
X2423D01*
Y3057*
X2338*
Y3240*
X2369Y737D02*
X2316D01*
Y860*
X2369*
Y737*
X2381Y1497D02*
Y1550D01*
X2504*
Y1497*
X2381*
Y1585D02*
Y1638D01*
X2504*
Y1585*
X2381*
Y1672D02*
Y1725D01*
X2504*
Y1672*
X2381*
X2456Y1422D02*
Y1475D01*
X2579*
Y1422*
X2456*
X2466Y1310D02*
X2519D01*
Y1187*
X2466*
Y1310*
X2498Y3826D02*
X2428D01*
Y3962*
X2498*
Y3826*
X2784Y3104D02*
Y3019D01*
X2601*
Y3104*
X2784*
X2795Y1703D02*
Y1756D01*
X2918*
Y1703*
X2795*
X2810Y2482D02*
X2725D01*
Y2665*
X2810*
Y2482*
X2824Y683D02*
X2771D01*
Y806*
X2824*
Y683*
X2879Y2169D02*
Y2116D01*
X2756*
Y2169*
X2879*
X2885Y2040D02*
Y1970D01*
X2749*
Y2040*
X2885*
X2923Y683D02*
X2870D01*
Y806*
X2923*
Y683*
X2933Y2979D02*
X3003D01*
Y2843*
X2933*
Y2979*
Y3142D02*
X3003D01*
Y3006*
X2933*
Y3142*
X2978Y2481D02*
X2908D01*
Y2617*
X2978*
Y2481*
X3021Y683D02*
X2968D01*
Y806*
X3021*
Y683*
X3120D02*
X3067D01*
Y806*
X3120*
Y683*
X3175Y1939D02*
Y2009D01*
X3311*
Y1939*
X3175*
X3311Y1909D02*
Y1839D01*
X3175*
Y1909*
X3311*
X3383Y1679D02*
X3453D01*
Y1543*
X3383*
Y1679*
X3391Y1510D02*
X3444D01*
Y1387*
X3391*
Y1510*
X3484Y2241D02*
Y2156D01*
X3301*
Y2241*
X3484*
X3491Y1685D02*
X3544D01*
Y1562*
X3491*
Y1685*
X3545Y2429D02*
X3615D01*
Y2293*
X3545*
Y2429*
X3570Y3017D02*
X3640D01*
Y2881*
X3570*
Y3017*
X3615Y2468D02*
X3545D01*
Y2604*
X3615*
Y2468*
X3675Y3028D02*
X3760D01*
Y2845*
X3675*
Y3028*
X3784Y260D02*
Y207D01*
X3661*
Y260*
X3784*
Y338D02*
Y285D01*
X3661*
Y338*
X3784*
Y417D02*
Y364D01*
X3661*
Y417*
X3784*
Y614D02*
Y561D01*
X3661*
Y614*
X3784*
Y693D02*
Y640D01*
X3661*
Y693*
X3784*
Y771D02*
Y718D01*
X3661*
Y771*
X3784*
Y850D02*
Y797D01*
X3661*
Y850*
X3784*
X3998Y2420D02*
X3913D01*
Y2603*
X3998*
Y2420*
X4044Y2987D02*
X3991D01*
Y3110*
X4044*
Y2987*
X4050Y2276D02*
Y2346D01*
X4186*
Y2276*
X4050*
X4051Y2381D02*
Y2466D01*
X4234*
Y2381*
X4051*
X4175Y1589D02*
Y1659D01*
X4311*
Y1589*
X4175*
X4217Y738D02*
Y791D01*
X4340*
Y738*
X4217*
X4311Y1784D02*
Y1714D01*
X4175*
Y1784*
X4311*
X4560Y2600D02*
Y2670D01*
X4696*
Y2600*
X4560*
X4567Y2805D02*
Y2858D01*
X4690*
Y2805*
X4567*
X4670Y2149D02*
Y2096D01*
X4547*
Y2149*
X4670*
X4690Y2760D02*
Y2707D01*
X4567*
Y2760*
X4690*
X5012Y1842D02*
Y862D01*
X5081*
Y748*
X5186*
X5202Y1842D02*
X5144D01*
X5293Y748D02*
X5826D01*
X5436Y3604D02*
Y3674D01*
X5572*
Y3604*
X5436*
Y3800D02*
Y3870D01*
X5572*
Y3800*
X5436*
X5806Y1842D02*
X5320D01*
X6062D02*
X5940D01*
X6178Y748D02*
Y1754D01*
D02*
D111*
X1608Y1796D02*
X1903D01*
X1767D02*
G75*
G03X1743I-12D01*
G01*
X1903Y2251D02*
X1608D01*
X2071Y952D02*
X2164D01*
X2106Y1145D02*
G75*
G03X2130I12D01*
G01*
X2164D02*
X2071D01*
X4077Y2889D02*
G75*
G03Y2913J12D01*
G01*
X4086Y2853D02*
X4077D01*
Y2949*
X4086*
X4125Y2853D02*
X4136D01*
Y2949D02*
X4125D01*
X4175Y2853D02*
X4186D01*
Y2949D02*
X4175D01*
X4225Y2853D02*
X4236D01*
Y2949D02*
X4225D01*
X4275D02*
X4283D01*
Y2853*
X4275*
X4541Y2390D02*
G75*
G03Y2414J12D01*
G01*
X4550Y2354D02*
X4541D01*
Y2451*
X4550*
X4589Y2354D02*
X4600D01*
Y2451D02*
X4589D01*
X4639Y2354D02*
X4650D01*
Y2451D02*
X4639D01*
X4689Y2354D02*
X4700D01*
Y2451D02*
X4689D01*
X4739D02*
X4748D01*
Y2354*
X4739*
D02*
D113*
X1971Y2533D02*
Y2546D01*
Y2539D02*
X1933D01*
Y2533D02*
Y2546D01*
X1965Y2605D02*
X1968Y2602D01*
X1971Y2596*
Y2586*
X1968Y2580*
X1965Y2577*
X1958Y2574*
X1946*
X1940Y2577*
X1936Y2580*
X1933Y2586*
Y2596*
X1936Y2602*
X1940Y2605*
X1971Y2630D02*
Y2642D01*
Y2636D02*
X1933D01*
X1940Y2630*
X2540Y2902D02*
Y2889D01*
Y2896D02*
X2577D01*
Y2902D02*
Y2889D01*
X2546Y2830D02*
X2543Y2833D01*
X2540Y2839*
Y2849*
X2543Y2855*
X2546Y2858*
X2552Y2861*
X2565*
X2571Y2858*
X2574Y2855*
X2577Y2849*
Y2839*
X2574Y2833*
X2571Y2830*
X2540Y2786D02*
Y2811D01*
X2561Y2789*
X2568Y2786*
X2574Y2789*
X2577Y2796*
Y2805*
X2574Y2811*
X2729Y1798D02*
Y1810D01*
Y1804D02*
X2692D01*
Y1798D02*
Y1810D01*
X2723Y1869D02*
X2726Y1866D01*
X2729Y1860*
Y1851*
X2726Y1844*
X2723Y1841*
X2717Y1838*
X2704*
X2698Y1841*
X2695Y1844*
X2692Y1851*
Y1860*
X2695Y1866*
X2698Y1869*
X2726Y1891D02*
X2729Y1898D01*
Y1904*
X2726Y1910*
X2720Y1913*
X2714Y1910*
X2711Y1904*
Y1898*
Y1904D02*
X2707Y1910D01*
X2701Y1913*
X2695Y1910*
X2692Y1904*
Y1898*
X2695Y1891*
X3877Y1984D02*
Y1997D01*
Y1991D02*
X3840D01*
Y1984D02*
Y1997D01*
X3871Y2056D02*
X3874Y2053D01*
X3877Y2047*
Y2037*
X3874Y2031*
X3871Y2028*
X3865Y2025*
X3852*
X3846Y2028*
X3843Y2031*
X3840Y2037*
Y2047*
X3843Y2053*
X3846Y2056*
X3874Y2075D02*
X3877Y2081D01*
Y2091*
X3874Y2097*
X3868Y2100*
X3865*
X3858Y2097*
X3855Y2091*
Y2075*
X3840*
Y2100*
X3885Y2488D02*
Y2501D01*
Y2495D02*
X3847D01*
Y2488D02*
Y2501D01*
X3879Y2560D02*
X3882Y2557D01*
X3885Y2551*
Y2541*
X3882Y2535*
X3879Y2532*
X3872Y2529*
X3860*
X3854Y2532*
X3851Y2535*
X3847Y2541*
Y2551*
X3851Y2557*
X3854Y2560*
X3885Y2595D02*
X3847D01*
X3872Y2579*
Y2604*
X5518Y1145D02*
X5481Y1176D01*
Y1145D02*
X5518Y1176D01*
Y1201D02*
Y1214D01*
Y1208D02*
X5481D01*
X5487Y1201*
X5820Y2593D02*
X5757D01*
Y3912*
X5859*
X5833Y1977D02*
X5836Y1974D01*
X5840Y1967*
Y1958*
X5836Y1952*
X5833Y1949*
X5827Y1946*
X5815*
X5808Y1949*
X5805Y1952*
X5802Y1958*
Y1967*
X5805Y1974*
X5808Y1977*
X5827Y1996D02*
X5815D01*
X5808Y1999*
X5805Y2002*
X5802Y2008*
Y2014*
X5805Y2021*
X5808Y2024*
X5815Y2027*
X5827*
X5833Y2024*
X5836Y2021*
X5840Y2014*
Y2008*
X5836Y2002*
X5833Y1999*
X5827Y1996*
X5840Y2046D02*
X5802D01*
X5840Y2077*
X5802*
X5840Y2096D02*
X5802D01*
X5840Y2127*
X5802*
X5836Y2149D02*
X5840Y2155D01*
Y2161*
X5836Y2167*
X5830Y2171*
X5824Y2167*
X5821Y2161*
Y2155*
Y2161D02*
X5818Y2167D01*
X5811Y2171*
X5805Y2167*
X5802Y2161*
Y2155*
X5805Y2149*
X5833Y2666D02*
X5836Y2663D01*
X5840Y2656*
Y2647*
X5836Y2641*
X5833Y2638*
X5827Y2635*
X5815*
X5808Y2638*
X5805Y2641*
X5802Y2647*
Y2656*
X5805Y2663*
X5808Y2666*
X5827Y2685D02*
X5815D01*
X5808Y2688*
X5805Y2691*
X5802Y2697*
Y2703*
X5805Y2710*
X5808Y2713*
X5815Y2716*
X5827*
X5833Y2713*
X5836Y2710*
X5840Y2703*
Y2697*
X5836Y2691*
X5833Y2688*
X5827Y2685*
X5840Y2735D02*
X5802D01*
X5840Y2766*
X5802*
X5840Y2785D02*
X5802D01*
X5840Y2816*
X5802*
X5840Y2860D02*
Y2835D01*
X5818Y2856*
X5811Y2860*
X5805Y2856*
X5802Y2850*
Y2841*
X5805Y2835*
X5833Y3306D02*
X5836Y3302D01*
X5840Y3296*
Y3287*
X5836Y3281*
X5833Y3277*
X5827Y3274*
X5815*
X5808Y3277*
X5805Y3281*
X5802Y3287*
Y3296*
X5805Y3302*
X5808Y3306*
X5827Y3324D02*
X5815D01*
X5808Y3327*
X5805Y3331*
X5802Y3337*
Y3343*
X5805Y3349*
X5808Y3352*
X5815Y3356*
X5827*
X5833Y3352*
X5836Y3349*
X5840Y3343*
Y3337*
X5836Y3331*
X5833Y3327*
X5827Y3324*
X5840Y3374D02*
X5802D01*
X5840Y3406*
X5802*
X5840Y3424D02*
X5802D01*
X5840Y3456*
X5802*
X5840Y3481D02*
Y3493D01*
Y3487D02*
X5802D01*
X5808Y3481*
X6203Y823D02*
X6282D01*
G75*
G03X6321Y862J39*
G01*
Y1767*
G75*
G03X6282Y1807I-39*
G01*
X6203*
X6282Y823D02*
X6542D01*
G75*
G03X6581Y862J39*
G01*
Y1767*
G75*
G03X6542Y1807I-39*
G01*
X6282*
X6321Y823D02*
G75*
G03X6361Y862J39D01*
G01*
Y1767*
G75*
G03X6321Y1807I-39*
G01*
D02*
D115*
X199Y2958D02*
G75*
G03X211Y2954I6J-2D01*
G01*
G75*
G03X199Y2958I-6J2*
G01*
Y2962D02*
G75*
G03X211Y2950I6J-6D01*
G01*
G75*
G03X199Y2962I-6J6*
G01*
Y2966D02*
G75*
G03X211Y2946I6J-10D01*
G01*
G75*
G03X199Y2966I-6J10*
G01*
Y3183D02*
G75*
G03X211Y3179I6J-2D01*
G01*
G75*
G03X199Y3183I-6J2*
G01*
Y3187D02*
G75*
G03X211Y3175I6J-6D01*
G01*
G75*
G03X199Y3187I-6J6*
G01*
Y3191D02*
G75*
G03X211Y3171I6J-10D01*
G01*
G75*
G03X199Y3191I-6J10*
G01*
Y3408D02*
G75*
G03X211Y3404I6J-2D01*
G01*
G75*
G03X199Y3408I-6J2*
G01*
Y3412D02*
G75*
G03X211Y3400I6J-6D01*
G01*
G75*
G03X199Y3412I-6J6*
G01*
Y3416D02*
G75*
G03X211Y3396I6J-10D01*
G01*
G75*
G03X199Y3416I-6J10*
G01*
Y3633D02*
G75*
G03X211Y3629I6J-2D01*
G01*
G75*
G03X199Y3633I-6J2*
G01*
Y3637D02*
G75*
G03X211Y3625I6J-6D01*
G01*
G75*
G03X199Y3637I-6J6*
G01*
Y3641D02*
G75*
G03X211Y3621I6J-10D01*
G01*
G75*
G03X199Y3641I-6J10*
G01*
Y3858D02*
G75*
G03X211Y3854I6J-2D01*
G01*
G75*
G03X199Y3858I-6J2*
G01*
Y3862D02*
G75*
G03X211Y3850I6J-6D01*
G01*
G75*
G03X199Y3862I-6J6*
G01*
Y3866D02*
G75*
G03X211Y3846I6J-10D01*
G01*
G75*
G03X199Y3866I-6J10*
G01*
X203Y2958D02*
G75*
G03X207Y2954I2J-2D01*
G01*
G75*
G03X203Y2958I-2J2*
G01*
Y3183D02*
G75*
G03X207Y3179I2J-2D01*
G01*
G75*
G03X203Y3183I-2J2*
G01*
Y3408D02*
G75*
G03X207Y3404I2J-2D01*
G01*
G75*
G03X203Y3408I-2J2*
G01*
Y3633D02*
G75*
G03X207Y3629I2J-2D01*
G01*
G75*
G03X203Y3633I-2J2*
G01*
Y3858D02*
G75*
G03X207Y3854I2J-2D01*
G01*
G75*
G03X203Y3858I-2J2*
G01*
X246Y2768D02*
X640D01*
Y2954*
X246*
Y2768*
Y2993D02*
X640D01*
Y3179*
X246*
Y2993*
Y3218D02*
X640D01*
Y3404*
X246*
Y3218*
Y3443D02*
X640D01*
Y3629*
X246*
Y3443*
Y3668D02*
X640D01*
Y3854*
X246*
Y3668*
X246Y2769D02*
Y2954D01*
X250*
Y2769*
X242*
Y2954*
X238*
Y2769*
X246*
Y2994D02*
Y3179D01*
X250*
Y2994*
X242*
Y3179*
X238*
Y2994*
X246*
Y3219D02*
Y3404D01*
X250*
Y3219*
X242*
Y3404*
X238*
Y3219*
X246*
Y3444D02*
Y3629D01*
X250*
Y3444*
X242*
Y3629*
X238*
Y3444*
X246*
Y3669D02*
Y3854D01*
X250*
Y3669*
X242*
Y3854*
X238*
Y3669*
X246*
X399Y1439D02*
X396Y1436D01*
X390Y1433*
X380*
X374Y1436*
X371Y1439*
X368Y1446*
Y1458*
X371Y1464*
X374Y1467*
X380Y1471*
X390*
X396Y1467*
X399Y1464*
X421Y1436D02*
X427Y1433D01*
X433*
X440Y1436*
X443Y1442*
X440Y1449*
X433Y1452*
X427*
X433D02*
X440Y1455D01*
X443Y1461*
X440Y1467*
X433Y1471*
X427*
X421Y1467*
X399Y2102D02*
X396Y2099D01*
X390Y2096*
X380*
X374Y2099*
X371Y2102*
X368Y2108*
Y2121*
X371Y2127*
X374Y2130*
X380Y2133*
X390*
X396Y2130*
X399Y2127*
X424Y2096D02*
X436D01*
X430D02*
Y2133D01*
X424Y2127*
X460Y1072D02*
Y1400D01*
X350*
Y1072*
X460*
X473Y1735D02*
Y2063D01*
X363*
Y1735*
X473*
X655Y1033D02*
Y1071D01*
X674*
X680Y1067*
X683Y1064*
X686Y1058*
Y1046*
X683Y1039*
X680Y1036*
X674Y1033*
X655*
X705D02*
X730Y1071D01*
X705*
X655Y1733D02*
Y1771D01*
X674*
X680Y1767*
X683Y1764*
X686Y1758*
Y1746*
X683Y1739*
X680Y1736*
X674Y1733*
X655*
X705Y1742D02*
X708Y1749D01*
X715Y1752*
X721*
X727Y1749*
X730Y1742*
X727Y1736*
X721Y1733*
X715*
X708Y1736*
X705Y1742*
Y1752*
X708Y1761*
X715Y1767*
X721Y1771*
X680Y2783D02*
Y2821D01*
X699*
X705Y2817*
X708Y2814*
X711Y2808*
Y2796*
X708Y2789*
X705Y2786*
X699Y2783*
X680*
X730Y2786D02*
X736Y2783D01*
X746*
X752Y2786*
X755Y2792*
Y2796*
X752Y2802*
X746Y2805*
X730*
Y2821*
X755*
X680Y3008D02*
Y3046D01*
X699*
X705Y3042*
X708Y3039*
X711Y3033*
Y3021*
X708Y3014*
X705Y3011*
X699Y3008*
X680*
X746D02*
Y3046D01*
X730Y3021*
X755*
X680Y3233D02*
Y3271D01*
X699*
X705Y3267*
X708Y3264*
X711Y3258*
Y3246*
X708Y3239*
X705Y3236*
X699Y3233*
X680*
X733Y3236D02*
X740Y3233D01*
X746*
X752Y3236*
X755Y3242*
X752Y3249*
X746Y3252*
X740*
X746D02*
X752Y3255D01*
X755Y3261*
X752Y3267*
X746Y3271*
X740*
X733Y3267*
X680Y3458D02*
Y3496D01*
X699*
X705Y3492*
X708Y3489*
X711Y3483*
Y3471*
X708Y3464*
X705Y3461*
X699Y3458*
X680*
X755D02*
X730D01*
X752Y3480*
X755Y3486*
X752Y3492*
X746Y3496*
X736*
X730Y3492*
X680Y3683D02*
Y3721D01*
X699*
X705Y3717*
X708Y3714*
X711Y3708*
Y3696*
X708Y3689*
X705Y3686*
X699Y3683*
X680*
X736D02*
X749D01*
X743D02*
Y3721D01*
X736Y3714*
X761Y2264D02*
X758Y2261D01*
X752Y2258*
X743*
X736Y2261*
X733Y2264*
X730Y2271*
Y2283*
X733Y2289*
X736Y2292*
X743Y2296*
X752*
X758Y2292*
X761Y2289*
X780Y2258D02*
X805Y2296D01*
X780*
X846Y1554D02*
X614D01*
Y1444*
X846*
Y1554*
X899Y1502D02*
X896Y1499D01*
X890Y1496*
X880*
X874Y1499*
X871Y1502*
X868Y1508*
Y1521*
X871Y1527*
X874Y1530*
X880Y1533*
X890*
X896Y1530*
X899Y1527*
X927Y1514D02*
X933D01*
X940Y1517*
X943Y1524*
X940Y1530*
X933Y1533*
X927*
X921Y1530*
X918Y1524*
X921Y1517*
X927Y1514*
X921Y1511*
X918Y1505*
X921Y1499*
X927Y1496*
X933*
X940Y1499*
X943Y1505*
X940Y1511*
X933Y1514*
X871Y2216D02*
X639D01*
Y2106*
X871*
Y2216*
X923Y1368D02*
Y1104D01*
X532*
Y1368*
X923*
X990Y1224D02*
X961D01*
X955Y1221*
X952Y1214*
Y1202*
X955Y1196*
X961Y1192*
X990*
X952Y1149D02*
Y1174D01*
X974Y1152*
X980Y1149*
X986Y1152*
X990Y1158*
Y1167*
X986Y1174*
X948Y2055D02*
Y1792D01*
X557*
Y2055*
X948*
X1015Y2049D02*
X986D01*
X980Y2046*
X977Y2039*
Y2027*
X980Y2021*
X986Y2017*
X1015*
X977Y1992D02*
Y1980D01*
Y1986D02*
X1015D01*
X1008Y1992*
X1093Y799D02*
X4443D01*
Y4149*
X1093*
Y799*
X1118Y3033D02*
Y3071D01*
X1140*
X1146Y3067*
X1149Y3061*
X1146Y3055*
X1140Y3052*
X1118*
X1140D02*
X1149Y3033D01*
X1174D02*
X1186D01*
X1180D02*
Y3071D01*
X1174Y3064*
X1221Y3036D02*
X1227Y3033D01*
X1233*
X1240Y3036*
X1243Y3042*
X1240Y3049*
X1233Y3052*
X1227*
X1233D02*
X1240Y3055D01*
X1243Y3061*
X1240Y3067*
X1233Y3071*
X1227*
X1221Y3067*
X1118Y3158D02*
Y3196D01*
X1140*
X1146Y3192*
X1149Y3186*
X1146Y3180*
X1140Y3177*
X1118*
X1140D02*
X1149Y3158D01*
X1183D02*
Y3196D01*
X1168Y3171*
X1193*
X1118Y3296D02*
Y3333D01*
X1140*
X1146Y3330*
X1149Y3324*
X1146Y3317*
X1140Y3314*
X1118*
X1140D02*
X1149Y3296D01*
X1171Y3299D02*
X1177Y3296D01*
X1183*
X1190Y3299*
X1193Y3305*
X1190Y3311*
X1183Y3314*
X1177*
X1183D02*
X1190Y3317D01*
X1193Y3324*
X1190Y3330*
X1183Y3333*
X1177*
X1171Y3330*
X1118Y3408D02*
Y3446D01*
X1140*
X1146Y3442*
X1149Y3436*
X1146Y3430*
X1140Y3427*
X1118*
X1140D02*
X1149Y3408D01*
X1193D02*
X1168D01*
X1190Y3430*
X1193Y3436*
X1190Y3442*
X1183Y3446*
X1174*
X1168Y3442*
X1118Y3533D02*
Y3571D01*
X1140*
X1146Y3567*
X1149Y3561*
X1146Y3555*
X1140Y3552*
X1118*
X1140D02*
X1149Y3533D01*
X1174D02*
X1186D01*
X1180D02*
Y3571D01*
X1174Y3564*
X1568Y3283D02*
Y3321D01*
X1590*
X1596Y3317*
X1599Y3311*
X1596Y3305*
X1590Y3302*
X1568*
X1590D02*
X1599Y3283D01*
X1624D02*
X1636D01*
X1630D02*
Y3321D01*
X1624Y3314*
X1668Y3286D02*
X1674Y3283D01*
X1683*
X1690Y3286*
X1693Y3292*
Y3296*
X1690Y3302*
X1683Y3305*
X1668*
Y3321*
X1693*
X1571Y3699D02*
Y3737D01*
X1593*
X1599Y3734*
X1603Y3728*
X1599Y3721*
X1593Y3718*
X1571*
X1593D02*
X1603Y3699D01*
X1628D02*
X1640D01*
X1634D02*
Y3737D01*
X1628Y3731*
X1687Y3699D02*
Y3737D01*
X1671Y3712*
X1696*
X1581Y3965D02*
X1584Y3962D01*
X1588Y3956*
Y3946*
X1584Y3940*
X1581Y3937*
X1575Y3934*
X1563*
X1556Y3937*
X1553Y3940*
X1550Y3946*
Y3956*
X1553Y3962*
X1556Y3965*
X1588Y3993D02*
X1584Y3999D01*
X1578Y4006*
X1569Y4009*
X1559*
X1553Y4006*
X1550Y3999*
Y3993*
X1553Y3987*
X1559Y3984*
X1566Y3987*
X1569Y3993*
Y3999*
X1566Y4006*
X1559Y4009*
X1708Y3422D02*
X1736D01*
X1742Y3425*
X1745Y3431*
Y3444*
X1742Y3450*
X1736Y3453*
X1708*
X1742Y3472D02*
X1745Y3478D01*
Y3488*
X1742Y3494*
X1736Y3497*
X1733*
X1726Y3494*
X1723Y3488*
Y3472*
X1708*
Y3497*
X1736Y1646D02*
X1740Y1649D01*
X1746Y1652*
X1755*
X1761Y1649*
X1765Y1646*
X1768Y1639*
Y1627*
X1765Y1621*
X1761Y1617*
X1755Y1614*
X1746*
X1740Y1617*
X1736Y1621*
X1711Y1652D02*
X1699D01*
X1705D02*
Y1614D01*
X1711Y1621*
X1665Y1649D02*
X1658Y1652D01*
X1652*
X1646Y1649*
X1643Y1642*
Y1624*
X1646Y1617*
X1652Y1614*
X1658*
X1665Y1617*
X1668Y1624*
Y1642*
X1665Y1649*
X1646Y1617*
X1774Y4256D02*
Y4228D01*
X1777Y4222*
X1784Y4219*
X1796*
X1802Y4222*
X1805Y4228*
Y4256*
X1840Y4219D02*
Y4256D01*
X1824Y4231*
X1849*
X1780Y2958D02*
Y2930D01*
X1783Y2924*
X1790Y2921*
X1802*
X1808Y2924*
X1811Y2930*
Y2958*
X1830Y2930D02*
X1833Y2936D01*
X1840Y2939*
X1846*
X1852Y2936*
X1855Y2930*
X1852Y2924*
X1846Y2921*
X1840*
X1833Y2924*
X1830Y2930*
Y2939*
X1833Y2949*
X1840Y2955*
X1846Y2958*
X1896Y2299D02*
X1858D01*
Y2321*
X1861Y2327*
X1868Y2330*
X1874Y2327*
X1877Y2321*
Y2299*
Y2321D02*
X1896Y2330D01*
Y2355D02*
Y2367D01*
Y2361D02*
X1858D01*
X1865Y2355*
X1886Y2399D02*
X1880Y2402D01*
X1877Y2408*
Y2414*
X1880Y2421*
X1886Y2424*
X1893Y2421*
X1896Y2414*
Y2408*
X1893Y2402*
X1886Y2399*
X1877*
X1868Y2402*
X1861Y2408*
X1858Y2414*
X1905Y2999D02*
Y3349D01*
X1930*
X1955Y3324*
X1980Y3349*
X2005*
Y2999*
X1905*
X1909Y3415D02*
Y3765D01*
X1934*
X1959Y3740*
X1984Y3765*
X2009*
Y3415*
X1909*
X1949Y2439D02*
X1946Y2436D01*
X1940Y2433*
X1930*
X1924Y2436*
X1921Y2439*
X1918Y2446*
Y2458*
X1921Y2464*
X1924Y2467*
X1930Y2471*
X1940*
X1946Y2467*
X1949Y2464*
X1974Y2433D02*
X1986D01*
X1980D02*
Y2471D01*
X1974Y2464*
X2024Y2433D02*
X2036D01*
X2030D02*
Y2471D01*
X2024Y2464*
X2009Y4180D02*
Y3830D01*
X1984*
X1959Y3855*
X1934Y3830*
X1909*
Y4180*
X2009*
X2099Y1277D02*
X2096Y1274D01*
X2090Y1271*
X2080*
X2074Y1274*
X2071Y1277*
X2068Y1283*
Y1296*
X2071Y1302*
X2074Y1305*
X2080Y1308*
X2090*
X2096Y1305*
X2099Y1302*
X2124Y1271D02*
X2136D01*
X2130D02*
Y1308D01*
X2124Y1302*
X2193Y1271D02*
X2168D01*
X2190Y1292*
X2193Y1299*
X2190Y1305*
X2183Y1308*
X2174*
X2168Y1305*
X2205Y1608D02*
Y1646D01*
X2227*
X2233Y1642*
X2236Y1636*
X2233Y1630*
X2227Y1627*
X2205*
X2227D02*
X2236Y1608D01*
X2280D02*
X2255D01*
X2277Y1630*
X2280Y1636*
X2277Y1642*
X2271Y1646*
X2261*
X2255Y1642*
X2305Y1611D02*
X2311Y1608D01*
X2321*
X2327Y1611*
X2330Y1617*
Y1621*
X2327Y1627*
X2321Y1630*
X2305*
Y1646*
X2330*
X2205Y1683D02*
Y1721D01*
X2227*
X2233Y1717*
X2236Y1711*
X2233Y1705*
X2227Y1702*
X2205*
X2227D02*
X2236Y1683D01*
X2280D02*
X2255D01*
X2277Y1705*
X2280Y1711*
X2277Y1717*
X2271Y1721*
X2261*
X2255Y1717*
X2321Y1683D02*
Y1721D01*
X2305Y1696*
X2330*
X2257Y3678D02*
X2219D01*
Y3700*
X2223Y3706*
X2229Y3709*
X2235Y3706*
X2238Y3700*
Y3678*
Y3700D02*
X2257Y3709D01*
Y3734D02*
Y3747D01*
Y3740D02*
X2219D01*
X2226Y3734*
X2257Y3778D02*
X2219Y3803D01*
Y3778*
X2277Y3265D02*
X2239D01*
Y3286*
X2242Y3293*
X2248Y3296*
X2255Y3293*
X2258Y3286*
Y3265*
Y3286D02*
X2277Y3296D01*
Y3321D02*
Y3333D01*
Y3327D02*
X2239D01*
X2245Y3321*
X2258Y3374D02*
Y3380D01*
X2255Y3386*
X2248Y3390*
X2242Y3386*
X2239Y3380*
Y3374*
X2242Y3368*
X2248Y3365*
X2255Y3368*
X2258Y3374*
X2261Y3368*
X2267Y3365*
X2273Y3368*
X2277Y3374*
Y3380*
X2273Y3386*
X2267Y3390*
X2261Y3386*
X2258Y3380*
X2283Y736D02*
X2246D01*
Y758*
X2249Y764*
X2255Y767*
X2261Y764*
X2265Y758*
Y736*
Y758D02*
X2283Y767D01*
Y811D02*
Y786D01*
X2261Y808*
X2255Y811*
X2249Y808*
X2246Y802*
Y792*
X2249Y786*
X2283Y861D02*
Y836D01*
X2261Y858*
X2255Y861*
X2249Y858*
X2246Y852*
Y842*
X2249Y836*
X2336Y1439D02*
X2333Y1436D01*
X2327Y1433*
X2318*
X2311Y1436*
X2308Y1439*
X2305Y1446*
Y1458*
X2308Y1464*
X2311Y1467*
X2318Y1471*
X2327*
X2333Y1467*
X2336Y1464*
X2361Y1433D02*
X2374D01*
X2368D02*
Y1471D01*
X2361Y1464*
X2405Y1442D02*
X2408Y1449D01*
X2415Y1452*
X2421*
X2427Y1449*
X2430Y1442*
X2427Y1436*
X2421Y1433*
X2415*
X2408Y1436*
X2405Y1442*
Y1452*
X2408Y1461*
X2415Y1467*
X2421Y1471*
X2296Y3835D02*
X2259D01*
Y3857*
X2262Y3864*
X2268Y3867*
X2274Y3864*
X2278Y3857*
Y3835*
Y3857D02*
X2296Y3867D01*
Y3892D02*
Y3904D01*
Y3898D02*
X2259D01*
X2265Y3892*
X2296Y3945D02*
X2293Y3951D01*
X2287Y3957*
X2278Y3960*
X2268*
X2262Y3957*
X2259Y3951*
Y3945*
X2262Y3938*
X2268Y3935*
X2274Y3938*
X2278Y3945*
Y3951*
X2274Y3957*
X2268Y3960*
X2350Y1188D02*
X2312D01*
Y1209*
X2315Y1216*
X2321Y1219*
X2328Y1216*
X2331Y1209*
Y1188*
Y1209D02*
X2350Y1219D01*
Y1263D02*
Y1238D01*
X2328Y1259*
X2321Y1263*
X2315Y1259*
X2312Y1253*
Y1244*
X2315Y1238*
X2350Y1294D02*
Y1306D01*
Y1300D02*
X2312D01*
X2318Y1294*
X2369Y3709D02*
X2372Y3706D01*
X2375Y3700*
Y3690*
X2372Y3684*
X2369Y3681*
X2363Y3678*
X2350*
X2344Y3681*
X2341Y3684*
X2338Y3690*
Y3700*
X2341Y3706*
X2344Y3709*
X2375Y3734D02*
Y3747D01*
Y3740D02*
X2338D01*
X2344Y3734*
X2372Y3781D02*
X2375Y3787D01*
Y3794*
X2372Y3800*
X2366Y3803*
X2359Y3800*
X2356Y3794*
Y3787*
Y3794D02*
X2353Y3800D01*
X2347Y3803*
X2341Y3800*
X2338Y3794*
Y3787*
X2341Y3781*
X2388Y3296D02*
X2392Y3293D01*
X2395Y3286*
Y3277*
X2392Y3271*
X2388Y3268*
X2382Y3265*
X2370*
X2363Y3268*
X2360Y3271*
X2357Y3277*
Y3286*
X2360Y3293*
X2363Y3296*
X2395Y3321D02*
Y3333D01*
Y3327D02*
X2357D01*
X2363Y3321*
X2395Y3380D02*
X2357D01*
X2382Y3365*
Y3390*
X2402Y1061D02*
X2405Y1064D01*
X2408Y1071*
X2405Y1077*
X2402Y1080*
X2371*
Y1086*
Y1080D02*
Y1067D01*
X2405Y1114D02*
X2408Y1121D01*
Y1127*
X2405Y1133*
X2399Y1136*
X2393Y1133*
X2390Y1127*
Y1121*
Y1127D02*
X2386Y1133D01*
X2380Y1136*
X2374Y1133*
X2371Y1127*
Y1121*
X2374Y1114*
X2438Y1129D02*
X3848D01*
Y919*
X2438*
Y1129*
X2446Y1215D02*
X2449Y1212D01*
X2452Y1206*
Y1196*
X2449Y1190*
X2446Y1187*
X2439Y1184*
X2427*
X2421Y1187*
X2418Y1190*
X2414Y1196*
Y1206*
X2418Y1212*
X2421Y1215*
X2452Y1240D02*
Y1252D01*
Y1246D02*
X2414D01*
X2421Y1240*
X2449Y1284D02*
X2452Y1290D01*
Y1299*
X2449Y1306*
X2443Y1309*
X2439*
X2433Y1306*
X2430Y1299*
Y1284*
X2414*
Y1309*
X2530Y1508D02*
Y1546D01*
X2552*
X2558Y1542*
X2561Y1536*
X2558Y1530*
X2552Y1527*
X2530*
X2552D02*
X2561Y1508D01*
X2605D02*
X2580D01*
X2602Y1530*
X2605Y1536*
X2602Y1542*
X2596Y1546*
X2586*
X2580Y1542*
X2630Y1517D02*
X2633Y1524D01*
X2640Y1527*
X2646*
X2652Y1524*
X2655Y1517*
X2652Y1511*
X2646Y1508*
X2640*
X2633Y1511*
X2630Y1517*
Y1527*
X2633Y1536*
X2640Y1542*
X2646Y1546*
X2572Y3835D02*
X2534D01*
Y3857*
X2537Y3864*
X2544Y3867*
X2550Y3864*
X2553Y3857*
Y3835*
Y3857D02*
X2572Y3867D01*
Y3910D02*
Y3885D01*
X2550Y3907*
X2544Y3910*
X2537Y3907*
X2534Y3901*
Y3892*
X2537Y3885*
X2569Y3938D02*
X2572Y3945D01*
Y3951*
X2569Y3957*
X2562Y3960*
X2556Y3957*
X2553Y3951*
Y3945*
Y3951D02*
X2550Y3957D01*
X2544Y3960*
X2537Y3957*
X2534Y3951*
Y3945*
X2537Y3938*
X2593Y1458D02*
Y1430D01*
X2596Y1424*
X2602Y1421*
X2615*
X2621Y1424*
X2624Y1430*
Y1458*
X2652Y1439D02*
X2658D01*
X2665Y1442*
X2668Y1449*
X2665Y1455*
X2658Y1458*
X2652*
X2646Y1455*
X2643Y1449*
X2646Y1442*
X2652Y1439*
X2646Y1436*
X2643Y1430*
X2646Y1424*
X2652Y1421*
X2658*
X2665Y1424*
X2668Y1430*
X2665Y1436*
X2658Y1439*
X2599Y1390D02*
X2711D01*
Y1183*
X2599*
Y1271*
X2614*
Y1301*
X2599*
Y1390*
X2661Y3127D02*
X2658Y3124D01*
X2652Y3121*
X2643*
X2636Y3124*
X2633Y3127*
X2630Y3133*
Y3146*
X2633Y3152*
X2636Y3155*
X2643Y3158*
X2652*
X2658Y3155*
X2661Y3152*
X2686Y3121D02*
X2699D01*
X2693D02*
Y3158D01*
X2686Y3152*
X2730Y3121D02*
X2755Y3158D01*
X2730*
X2660Y1719D02*
Y1756D01*
X2682*
X2688Y1753*
X2691Y1747*
X2688Y1741*
X2682Y1738*
X2660*
X2682D02*
X2691Y1719D01*
X2735D02*
X2710D01*
X2732Y1741*
X2735Y1747*
X2732Y1753*
X2726Y1756*
X2716*
X2710Y1753*
X2769Y1719D02*
X2776Y1722D01*
X2782Y1728*
X2785Y1738*
Y1747*
X2782Y1753*
X2776Y1756*
X2769*
X2763Y1753*
X2760Y1747*
X2763Y1741*
X2769Y1738*
X2776*
X2782Y1741*
X2785Y1747*
X2749Y2402D02*
X2746Y2399D01*
X2740Y2396*
X2730*
X2724Y2399*
X2721Y2402*
X2718Y2408*
Y2421*
X2721Y2427*
X2724Y2430*
X2730Y2433*
X2740*
X2746Y2430*
X2749Y2427*
X2774Y2396D02*
X2786D01*
X2780D02*
Y2433D01*
X2774Y2427*
X2827Y2414D02*
X2833D01*
X2840Y2417*
X2843Y2424*
X2840Y2430*
X2833Y2433*
X2827*
X2821Y2430*
X2818Y2424*
X2821Y2417*
X2827Y2414*
X2821Y2411*
X2818Y2405*
X2821Y2399*
X2827Y2396*
X2833*
X2840Y2399*
X2843Y2405*
X2840Y2411*
X2833Y2414*
X2758Y2053D02*
Y2091D01*
X2780*
X2787Y2088*
X2790Y2082*
X2787Y2075*
X2780Y2072*
X2758*
X2780D02*
X2790Y2053D01*
X2833D02*
X2808D01*
X2830Y2075*
X2833Y2082*
X2830Y2088*
X2824Y2091*
X2815*
X2808Y2088*
X2868Y2072D02*
X2874D01*
X2880Y2075*
X2883Y2082*
X2880Y2088*
X2874Y2091*
X2868*
X2862Y2088*
X2858Y2082*
X2862Y2075*
X2868Y2072*
X2862Y2069*
X2858Y2063*
X2862Y2057*
X2868Y2053*
X2874*
X2880Y2057*
X2883Y2063*
X2880Y2069*
X2874Y2072*
X2790Y2197D02*
X2787Y2194D01*
X2780Y2191*
X2771*
X2765Y2194*
X2762Y2197*
X2758Y2204*
Y2216*
X2762Y2222*
X2765Y2226*
X2771Y2229*
X2780*
X2787Y2226*
X2790Y2222*
X2815Y2191D02*
X2827D01*
X2821D02*
Y2229D01*
X2815Y2222*
X2868Y2191D02*
X2874Y2194D01*
X2880Y2201*
X2883Y2210*
Y2219*
X2880Y2226*
X2874Y2229*
X2868*
X2862Y2226*
X2858Y2219*
X2862Y2213*
X2868Y2210*
X2874*
X2880Y2213*
X2883Y2219*
X2905Y2396D02*
Y2433D01*
X2927*
X2933Y2430*
X2936Y2424*
X2933Y2417*
X2927Y2414*
X2905*
X2927D02*
X2936Y2396D01*
X2958Y2399D02*
X2965Y2396D01*
X2971*
X2977Y2399*
X2980Y2405*
X2977Y2411*
X2971Y2414*
X2965*
X2971D02*
X2977Y2417D01*
X2980Y2424*
X2977Y2430*
X2971Y2433*
X2965*
X2958Y2430*
X3008Y2399D02*
X3015Y2396D01*
X3021*
X3027Y2399*
X3030Y2405*
X3027Y2411*
X3021Y2414*
X3015*
X3021D02*
X3027Y2417D01*
X3030Y2424*
X3027Y2430*
X3021Y2433*
X3015*
X3008Y2430*
X2896Y3011D02*
X2858D01*
Y3033*
X2861Y3039*
X2868Y3042*
X2874Y3039*
X2877Y3033*
Y3011*
Y3033D02*
X2896Y3042D01*
X2893Y3064D02*
X2896Y3071D01*
Y3077*
X2893Y3083*
X2886Y3086*
X2880Y3083*
X2877Y3077*
Y3071*
Y3077D02*
X2874Y3083D01*
X2868Y3086*
X2861Y3083*
X2858Y3077*
Y3071*
X2861Y3064*
X2896Y3117D02*
Y3130D01*
Y3124D02*
X2858D01*
X2865Y3117*
X2897Y2841D02*
X2859D01*
Y2863*
X2862Y2869*
X2869Y2872*
X2875Y2869*
X2878Y2863*
Y2841*
Y2863D02*
X2897Y2872D01*
X2894Y2894D02*
X2897Y2900D01*
Y2907*
X2894Y2913*
X2887Y2916*
X2881Y2913*
X2878Y2907*
Y2900*
Y2907D02*
X2875Y2913D01*
X2869Y2916*
X2862Y2913*
X2859Y2907*
Y2900*
X2862Y2894*
X2897Y2966D02*
Y2941D01*
X2875Y2963*
X2869Y2966*
X2862Y2963*
X2859Y2957*
Y2947*
X2862Y2941*
X3011Y1720D02*
Y1692D01*
X3014Y1686*
X3020Y1683*
X3033*
X3039Y1686*
X3042Y1692*
Y1720*
X3070Y1683D02*
X3077Y1686D01*
X3083Y1692*
X3086Y1701*
Y1711*
X3083Y1717*
X3077Y1720*
X3070*
X3064Y1717*
X3061Y1711*
X3064Y1705*
X3070Y1701*
X3077*
X3083Y1705*
X3086Y1711*
X3018Y1858D02*
Y1896D01*
X3040*
X3046Y1892*
X3049Y1886*
X3046Y1880*
X3040Y1877*
X3018*
X3040D02*
X3049Y1858D01*
X3071Y1861D02*
X3077Y1858D01*
X3083*
X3090Y1861*
X3093Y1867*
X3090Y1874*
X3083Y1877*
X3077*
X3083D02*
X3090Y1880D01*
X3093Y1886*
X3090Y1892*
X3083Y1896*
X3077*
X3071Y1892*
X3118Y1858D02*
X3143Y1896D01*
X3118*
X3020Y1945D02*
Y1982D01*
X3042*
X3048Y1979*
X3052Y1973*
X3048Y1967*
X3042Y1964*
X3020*
X3042D02*
X3052Y1945D01*
X3073Y1948D02*
X3080Y1945D01*
X3086*
X3092Y1948*
X3095Y1954*
X3092Y1961*
X3086Y1964*
X3080*
X3086D02*
X3092Y1967D01*
X3095Y1973*
X3092Y1979*
X3086Y1982*
X3080*
X3073Y1979*
X3120Y1954D02*
X3123Y1961D01*
X3130Y1964*
X3136*
X3142Y1961*
X3145Y1954*
X3142Y1948*
X3136Y1945*
X3130*
X3123Y1948*
X3120Y1954*
Y1964*
X3123Y1973*
X3130Y1979*
X3136Y1982*
X3021Y1638D02*
X3365D01*
Y1359*
X3021*
Y1484*
X3036*
Y1513*
X3021*
Y1638*
X3021Y2585D02*
X3049D01*
X3055Y2588*
X3058Y2595*
Y2607*
X3055Y2613*
X3049Y2616*
X3021*
X3058Y2641D02*
Y2654D01*
Y2648D02*
X3021D01*
X3027Y2641*
X3058Y2691D02*
Y2704D01*
Y2698D02*
X3021D01*
X3027Y2691*
X3025Y2991D02*
X3053D01*
X3059Y2994*
X3062Y3000*
Y3013*
X3059Y3019*
X3053Y3022*
X3025*
X3062Y3047D02*
Y3059D01*
Y3053D02*
X3025D01*
X3031Y3047*
X3059Y3094D02*
X3062Y3100D01*
Y3106*
X3059Y3113*
X3053Y3116*
X3034*
X3028Y3113*
X3025Y3106*
Y3100*
X3028Y3094*
X3034Y3091*
X3053*
X3059Y3094*
X3028Y3113*
X3243Y2761D02*
Y3111D01*
X3268*
X3293Y3086*
X3318Y3111*
X3343*
Y2761*
X3243*
X3336Y2264D02*
X3333Y2261D01*
X3327Y2258*
X3318*
X3311Y2261*
X3308Y2264*
X3305Y2271*
Y2283*
X3308Y2289*
X3311Y2292*
X3318Y2296*
X3327*
X3333Y2292*
X3336Y2289*
X3380Y2258D02*
X3355D01*
X3377Y2280*
X3380Y2286*
X3377Y2292*
X3371Y2296*
X3361*
X3355Y2292*
X3408Y2261D02*
X3415Y2258D01*
X3421*
X3427Y2261*
X3430Y2267*
Y2286*
X3427Y2292*
X3421Y2296*
X3415*
X3408Y2292*
X3405Y2286*
Y2267*
X3408Y2261*
X3427Y2292*
X3343Y2699D02*
Y2349D01*
X3318*
X3293Y2374*
X3268Y2349*
X3243*
Y2699*
X3343*
X3433Y1699D02*
X3396D01*
Y1721*
X3399Y1727*
X3405Y1730*
X3411Y1727*
X3415Y1721*
Y1699*
Y1721D02*
X3433Y1730D01*
X3430Y1752D02*
X3433Y1758D01*
Y1764*
X3430Y1771*
X3424Y1774*
X3418Y1771*
X3415Y1764*
Y1758*
Y1764D02*
X3411Y1771D01*
X3405Y1774*
X3399Y1771*
X3396Y1764*
Y1758*
X3399Y1752*
X3415Y1808D02*
Y1814D01*
X3411Y1821*
X3405Y1824*
X3399Y1821*
X3396Y1814*
Y1808*
X3399Y1802*
X3405Y1799*
X3411Y1802*
X3415Y1808*
X3418Y1802*
X3424Y1799*
X3430Y1802*
X3433Y1808*
Y1814*
X3430Y1821*
X3424Y1824*
X3418Y1821*
X3415Y1814*
X3502Y1442D02*
X3505Y1439D01*
X3508Y1433*
Y1424*
X3505Y1417*
X3502Y1414*
X3496Y1411*
X3483*
X3477Y1414*
X3474Y1417*
X3471Y1424*
Y1433*
X3474Y1439*
X3477Y1442*
X3508Y1486D02*
Y1461D01*
X3486Y1483*
X3480Y1486*
X3474Y1483*
X3471Y1477*
Y1467*
X3474Y1461*
X3508Y1517D02*
Y1530D01*
Y1524D02*
X3471D01*
X3477Y1517*
X3515Y1742D02*
X3518Y1739D01*
X3521Y1733*
Y1724*
X3518Y1717*
X3515Y1714*
X3508Y1711*
X3496*
X3490Y1714*
X3486Y1717*
X3483Y1724*
Y1733*
X3486Y1739*
X3490Y1742*
X3521Y1786D02*
Y1761D01*
X3499Y1783*
X3493Y1786*
X3486Y1783*
X3483Y1777*
Y1767*
X3486Y1761*
X3521Y1836D02*
Y1811D01*
X3499Y1833*
X3493Y1836*
X3486Y1833*
X3483Y1827*
Y1817*
X3486Y1811*
X3605Y2632D02*
X3568D01*
Y2654*
X3571Y2661*
X3577Y2664*
X3584Y2661*
X3587Y2654*
Y2632*
Y2654D02*
X3605Y2664D01*
X3602Y2686D02*
X3605Y2692D01*
Y2698*
X3602Y2704*
X3596Y2707*
X3590Y2704*
X3587Y2698*
Y2692*
Y2698D02*
X3584Y2704D01*
X3577Y2707*
X3571Y2704*
X3568Y2698*
Y2692*
X3571Y2686*
X3605Y2742D02*
X3602Y2748D01*
X3596Y2754*
X3587Y2757*
X3577*
X3571Y2754*
X3568Y2748*
Y2742*
X3571Y2736*
X3577Y2732*
X3584Y2736*
X3587Y2742*
Y2748*
X3584Y2754*
X3577Y2757*
X3621Y3136D02*
X3583D01*
Y3158*
X3586Y3164*
X3593Y3167*
X3599Y3164*
X3602Y3158*
Y3136*
Y3158D02*
X3621Y3167D01*
Y3202D02*
X3583D01*
X3608Y3186*
Y3211*
X3621Y3242D02*
Y3255D01*
Y3249D02*
X3583D01*
X3590Y3242*
X3672Y2294D02*
X3635D01*
Y2316*
X3638Y2322*
X3644Y2325*
X3651Y2322*
X3654Y2316*
Y2294*
Y2316D02*
X3672Y2325D01*
Y2359D02*
X3635D01*
X3660Y2344*
Y2369*
X3669Y2397D02*
X3672Y2403D01*
Y2409*
X3669Y2416*
X3663Y2419*
X3644*
X3638Y2416*
X3635Y2409*
Y2403*
X3638Y2397*
X3644Y2394*
X3663*
X3669Y2397*
X3638Y2416*
X3733Y3093D02*
X3736Y3090D01*
X3739Y3083*
Y3074*
X3736Y3068*
X3733Y3065*
X3727Y3062*
X3714*
X3708Y3065*
X3705Y3068*
X3702Y3074*
Y3083*
X3705Y3090*
X3708Y3093*
X3739Y3137D02*
Y3112D01*
X3717Y3133*
X3711Y3137*
X3705Y3133*
X3702Y3127*
Y3118*
X3705Y3112*
X3736Y3165D02*
X3739Y3171D01*
Y3177*
X3736Y3183*
X3730Y3187*
X3724Y3183*
X3721Y3177*
Y3171*
Y3177D02*
X3717Y3183D01*
X3711Y3187*
X3705Y3183*
X3702Y3177*
Y3171*
X3705Y3165*
X3820Y213D02*
Y250D01*
X3841*
X3848Y247*
X3851Y241*
X3848Y235*
X3841Y231*
X3820*
X3841D02*
X3851Y213D01*
X3885D02*
Y250D01*
X3870Y225*
X3895*
X3929Y231D02*
X3935D01*
X3941Y235*
X3945Y241*
X3941Y247*
X3935Y250*
X3929*
X3923Y247*
X3920Y241*
X3923Y235*
X3929Y231*
X3923Y228*
X3920Y222*
X3923Y216*
X3929Y213*
X3935*
X3941Y216*
X3945Y222*
X3941Y228*
X3935Y231*
X3820Y291D02*
Y329D01*
X3841*
X3848Y326*
X3851Y320*
X3848Y313*
X3841Y310*
X3820*
X3841D02*
X3851Y291D01*
X3885D02*
Y329D01*
X3870Y304*
X3895*
X3920Y291D02*
X3945Y329D01*
X3920*
X3821Y803D02*
Y841D01*
X3843*
X3850Y838*
X3853Y832*
X3850Y825*
X3843Y822*
X3821*
X3843D02*
X3853Y803D01*
X3887D02*
Y841D01*
X3871Y816*
X3896*
X3946Y803D02*
X3921D01*
X3943Y825*
X3946Y832*
X3943Y838*
X3937Y841*
X3928*
X3921Y838*
X3824Y366D02*
Y404D01*
X3845*
X3852Y401*
X3855Y394*
X3852Y388*
X3845Y385*
X3824*
X3845D02*
X3855Y366D01*
X3889D02*
Y404D01*
X3874Y379*
X3899*
X3924Y376D02*
X3927Y382D01*
X3933Y385*
X3939*
X3945Y382*
X3949Y376*
X3945Y369*
X3939Y366*
X3933*
X3927Y369*
X3924Y376*
Y385*
X3927Y394*
X3933Y401*
X3939Y404*
X3831Y567D02*
Y605D01*
X3853*
X3859Y602*
X3862Y595*
X3859Y589*
X3853Y586*
X3831*
X3853D02*
X3862Y567D01*
X3897D02*
Y605D01*
X3881Y580*
X3906*
X3931Y570D02*
X3937Y567D01*
X3947*
X3953Y570*
X3956Y577*
Y580*
X3953Y586*
X3947Y589*
X3931*
Y605*
X3956*
X3831Y646D02*
Y683D01*
X3853*
X3859Y680*
X3862Y674*
X3859Y668*
X3853Y665*
X3831*
X3853D02*
X3862Y646D01*
X3897D02*
Y683D01*
X3881Y658*
X3906*
X3947Y646D02*
Y683D01*
X3931Y658*
X3956*
X3831Y725D02*
Y762D01*
X3853*
X3859Y759*
X3862Y753*
X3859Y747*
X3853Y743*
X3831*
X3853D02*
X3862Y725D01*
X3897D02*
Y762D01*
X3881Y737*
X3906*
X3934Y728D02*
X3941Y725D01*
X3947*
X3953Y728*
X3956Y734*
X3953Y740*
X3947Y743*
X3941*
X3947D02*
X3953Y747D01*
X3956Y753*
X3953Y759*
X3947Y762*
X3941*
X3934Y759*
X3840Y1817D02*
X3868D01*
X3874Y1821*
X3877Y1827*
Y1839*
X3874Y1846*
X3868Y1849*
X3840*
X3877Y1874D02*
Y1886D01*
Y1880D02*
X3840D01*
X3846Y1874*
X3874Y1921D02*
X3877Y1927D01*
Y1933*
X3874Y1939*
X3868Y1942*
X3861Y1939*
X3858Y1933*
Y1927*
Y1933D02*
X3855Y1939D01*
X3849Y1942*
X3843Y1939*
X3840Y1933*
Y1927*
X3843Y1921*
X3894Y2291D02*
Y2329D01*
X3916*
X3922Y2326*
X3926Y2320*
X3922Y2313*
X3916Y2310*
X3894*
X3916D02*
X3926Y2291D01*
X3960D02*
Y2329D01*
X3944Y2304*
X3969*
X4004Y2291D02*
X4010Y2295D01*
X4016Y2301*
X4019Y2310*
Y2320*
X4016Y2326*
X4010Y2329*
X4004*
X3997Y2326*
X3994Y2320*
X3997Y2313*
X4004Y2310*
X4010*
X4016Y2313*
X4019Y2320*
X4028Y3164D02*
X4031Y3161D01*
X4035Y3154*
Y3145*
X4031Y3139*
X4028Y3136*
X4022Y3132*
X4010*
X4003Y3136*
X4000Y3139*
X3997Y3145*
Y3154*
X4000Y3161*
X4003Y3164*
X4035Y3207D02*
Y3182D01*
X4013Y3204*
X4006Y3207*
X4000Y3204*
X3997Y3198*
Y3189*
X4000Y3182*
X4031Y3232D02*
X4035Y3239D01*
Y3248*
X4031Y3254*
X4025Y3257*
X4022*
X4016Y3254*
X4013Y3248*
Y3232*
X3997*
Y3257*
X4032Y2463D02*
X4035Y2460D01*
X4039Y2454*
Y2444*
X4035Y2438*
X4032Y2435*
X4026Y2432*
X4014*
X4007Y2435*
X4004Y2438*
X4001Y2444*
Y2454*
X4004Y2460*
X4007Y2463*
X4039Y2507D02*
Y2482D01*
X4017Y2504*
X4010Y2507*
X4004Y2504*
X4001Y2497*
Y2488*
X4004Y2482*
X4039Y2547D02*
X4001D01*
X4026Y2532*
Y2557*
X4083Y2495D02*
X4080Y2491D01*
X4074Y2488*
X4064*
X4058Y2491*
X4055Y2495*
X4052Y2501*
Y2513*
X4055Y2520*
X4058Y2523*
X4064Y2526*
X4074*
X4080Y2523*
X4083Y2520*
X4127Y2488D02*
X4102D01*
X4124Y2510*
X4127Y2516*
X4124Y2523*
X4117Y2526*
X4108*
X4102Y2523*
X4152Y2498D02*
X4155Y2504D01*
X4161Y2507*
X4167*
X4174Y2504*
X4177Y2498*
X4174Y2491*
X4167Y2488*
X4161*
X4155Y2491*
X4152Y2498*
Y2507*
X4155Y2516*
X4161Y2523*
X4167Y2526*
X4107Y754D02*
X4104Y751D01*
X4097Y748*
X4088*
X4082Y751*
X4079Y754*
X4075Y761*
Y773*
X4079Y779*
X4082Y782*
X4088Y786*
X4097*
X4104Y782*
X4107Y779*
X4150Y748D02*
X4125D01*
X4147Y770*
X4150Y776*
X4147Y782*
X4141Y786*
X4132*
X4125Y782*
X4175Y748D02*
X4200Y786D01*
X4175*
X4280Y1986D02*
X3930D01*
Y2011*
X3955Y2036*
X3930Y2061*
Y2086*
X4280*
Y1986*
X4355Y1608D02*
Y1646D01*
X4377*
X4383Y1642*
X4386Y1636*
X4383Y1630*
X4377Y1627*
X4355*
X4377D02*
X4386Y1608D01*
X4405Y1611D02*
X4411Y1608D01*
X4421*
X4427Y1611*
X4430Y1617*
Y1621*
X4427Y1627*
X4421Y1630*
X4405*
Y1646*
X4430*
X4461Y1608D02*
X4474D01*
X4468D02*
Y1646D01*
X4461Y1639*
X4355Y1721D02*
Y1758D01*
X4377*
X4383Y1755*
X4386Y1749*
X4383Y1742*
X4377Y1739*
X4355*
X4377D02*
X4386Y1721D01*
X4405Y1724D02*
X4411Y1721D01*
X4421*
X4427Y1724*
X4430Y1730*
Y1733*
X4427Y1739*
X4421Y1742*
X4405*
Y1758*
X4430*
X4458Y1724D02*
X4465Y1721D01*
X4471*
X4477Y1724*
X4480Y1730*
Y1749*
X4477Y1755*
X4471Y1758*
X4465*
X4458Y1755*
X4455Y1749*
Y1730*
X4458Y1724*
X4477Y1755*
X4426Y175D02*
Y147D01*
X4429Y141*
X4435Y138*
X4448*
X4454Y141*
X4457Y147*
Y175*
X4482Y138D02*
X4495D01*
X4488D02*
Y175D01*
X4482Y169*
X4526Y141D02*
X4532Y138D01*
X4541*
X4548Y141*
X4551Y147*
Y150*
X4548Y157*
X4541Y160*
X4526*
Y175*
X4551*
X4434Y762D02*
Y734D01*
X4437Y728*
X4443Y724*
X4456*
X4462Y728*
X4465Y734*
Y762*
X4490Y724D02*
X4502D01*
X4496D02*
Y762D01*
X4490Y756*
X4549Y724D02*
Y762D01*
X4534Y737*
X4559*
X4554Y400D02*
Y184D01*
X4269*
Y400*
X4397*
Y385*
X4427*
Y400*
X4554*
Y715D02*
Y499D01*
X4269*
Y715*
X4397*
Y700*
X4427*
Y715*
X4554*
X4760Y2719D02*
X4757Y2716D01*
X4751Y2713*
X4742*
X4735Y2716*
X4732Y2719*
X4729Y2725*
Y2738*
X4732Y2744*
X4735Y2747*
X4742Y2750*
X4751*
X4757Y2747*
X4760Y2744*
X4782Y2716D02*
X4788Y2713D01*
X4795*
X4801Y2716*
X4804Y2722*
X4801Y2728*
X4795Y2731*
X4788*
X4795D02*
X4801Y2735D01*
X4804Y2741*
X4801Y2747*
X4795Y2750*
X4788*
X4782Y2747*
X4835Y2713D02*
X4848D01*
X4842D02*
Y2750D01*
X4835Y2744*
X4760Y2821D02*
X4757Y2818D01*
X4751Y2815*
X4742*
X4735Y2818*
X4732Y2821*
X4729Y2828*
Y2840*
X4732Y2846*
X4735Y2849*
X4742Y2853*
X4751*
X4757Y2849*
X4760Y2846*
X4804Y2815D02*
X4779D01*
X4801Y2837*
X4804Y2843*
X4801Y2849*
X4795Y2853*
X4785*
X4779Y2849*
X4838Y2834D02*
X4845D01*
X4851Y2837*
X4854Y2843*
X4851Y2849*
X4845Y2853*
X4838*
X4832Y2849*
X4829Y2843*
X4832Y2837*
X4838Y2834*
X4832Y2831*
X4829Y2824*
X4832Y2818*
X4838Y2815*
X4845*
X4851Y2818*
X4854Y2824*
X4851Y2831*
X4845Y2834*
X4733Y2638D02*
Y2675D01*
X4755*
X4761Y2672*
X4764Y2666*
X4761Y2660*
X4755Y2657*
X4733*
X4755D02*
X4764Y2638D01*
X4783Y2641D02*
X4789Y2638D01*
X4799*
X4805Y2641*
X4808Y2647*
Y2650*
X4805Y2657*
X4799Y2660*
X4783*
Y2675*
X4808*
X4858Y2638D02*
X4833D01*
X4855Y2660*
X4858Y2666*
X4855Y2672*
X4849Y2675*
X4839*
X4833Y2672*
X4745Y2132D02*
X4748Y2129D01*
X4751Y2123*
Y2113*
X4748Y2107*
X4745Y2104*
X4739Y2101*
X4726*
X4720Y2104*
X4717Y2107*
X4714Y2113*
Y2123*
X4717Y2129*
X4720Y2132*
X4748Y2154D02*
X4751Y2160D01*
Y2167*
X4748Y2173*
X4742Y2176*
X4736Y2173*
X4732Y2167*
Y2160*
Y2167D02*
X4729Y2173D01*
X4723Y2176*
X4717Y2173*
X4714Y2167*
Y2160*
X4717Y2154*
X4751Y2226D02*
Y2201D01*
X4729Y2223*
X4723Y2226*
X4717Y2223*
X4714Y2217*
Y2207*
X4717Y2201*
X4815Y2476D02*
X4915D01*
Y2276*
X4815*
Y2476*
X4865Y2276D02*
Y2226D01*
Y2526D02*
Y2476D01*
X4957Y3943D02*
X4954Y3940D01*
X4948Y3937*
X4938*
X4932Y3940*
X4929Y3943*
X4926Y3950*
Y3962*
X4929Y3968*
X4932Y3971*
X4938Y3975*
X4948*
X4954Y3971*
X4957Y3968*
X4979Y3940D02*
X4985Y3937D01*
X4991*
X4998Y3940*
X5001Y3946*
X4998Y3953*
X4991Y3956*
X4985*
X4991D02*
X4998Y3959D01*
X5001Y3965*
X4998Y3971*
X4991Y3975*
X4985*
X4979Y3971*
X5029Y3940D02*
X5035Y3937D01*
X5041*
X5048Y3940*
X5051Y3946*
X5048Y3953*
X5041Y3956*
X5035*
X5041D02*
X5048Y3959D01*
X5051Y3965*
X5048Y3971*
X5041Y3975*
X5035*
X5029Y3971*
X4928Y3912D02*
Y3680D01*
X5038*
Y3912*
X4928*
X4972Y2349D02*
X4934D01*
Y2368*
X4937Y2374*
X4940Y2377*
X4947Y2380*
X4959*
X4965Y2377*
X4968Y2374*
X4972Y2368*
Y2349*
X4953Y2408D02*
Y2415D01*
X4950Y2421*
X4943Y2424*
X4937Y2421*
X4934Y2415*
Y2408*
X4937Y2402*
X4943Y2399*
X4950Y2402*
X4953Y2408*
X4956Y2402*
X4962Y2399*
X4968Y2402*
X4972Y2408*
Y2415*
X4968Y2421*
X4962Y2424*
X4956Y2421*
X4953Y2415*
X5174Y3892D02*
Y3864D01*
X5177Y3858*
X5183Y3854*
X5196*
X5202Y3858*
X5205Y3864*
Y3892*
X5230Y3854D02*
X5243D01*
X5236D02*
Y3892D01*
X5230Y3886*
X5274Y3854D02*
X5299Y3892D01*
X5274*
X5321Y3834D02*
Y3719D01*
X5156*
Y3834*
X5224*
Y3819*
X5253*
Y3834*
X5321*
X5453Y699D02*
X5450Y696D01*
X5444Y693*
X5434*
X5428Y696*
X5425Y699*
X5422Y706*
Y718*
X5425Y724*
X5428Y727*
X5434Y731*
X5444*
X5450Y727*
X5453Y724*
X5475Y696D02*
X5481Y693D01*
X5488*
X5494Y696*
X5497Y702*
X5494Y709*
X5488Y712*
X5481*
X5488D02*
X5494Y715D01*
X5497Y721*
X5494Y727*
X5488Y731*
X5481*
X5475Y727*
X5538Y693D02*
Y731D01*
X5522Y706*
X5547*
X5426Y2588D02*
X5682D01*
Y2701*
X5426*
Y2588*
Y2755D02*
X5682D01*
Y2868*
X5426*
Y2755*
Y2923D02*
X5682D01*
Y3035*
X5426*
Y2923*
X5524Y3957D02*
Y3994D01*
X5543*
X5549Y3991*
X5552Y3988*
X5556Y3982*
Y3969*
X5552Y3963*
X5549Y3960*
X5543Y3957*
X5524*
X5581D02*
X5593D01*
X5587D02*
Y3994D01*
X5581Y3988*
X5649Y3957D02*
X5624D01*
X5646Y3979*
X5649Y3985*
X5646Y3991*
X5640Y3994*
X5631*
X5624Y3991*
X5530Y4406D02*
Y4012D01*
X5715*
Y4406*
X5530*
X5530Y4406D02*
X5715D01*
Y4402*
X5530*
Y4410*
X5715*
Y4414*
X5530*
Y4406*
X5540Y2870D02*
Y2908D01*
X5559*
X5565Y2905*
X5568Y2901*
X5571Y2895*
Y2883*
X5568Y2876*
X5565Y2873*
X5559Y2870*
X5540*
X5596D02*
X5609D01*
X5603D02*
Y2908D01*
X5596Y2901*
X5643Y2873D02*
X5649Y2870D01*
X5656*
X5662Y2873*
X5665Y2880*
Y2898*
X5662Y2905*
X5656Y2908*
X5649*
X5643Y2905*
X5640Y2898*
Y2880*
X5643Y2873*
X5662Y2905*
X5540Y641D02*
X5565D01*
X5548Y2709D02*
Y2746D01*
X5567*
X5573Y2743*
X5576Y2740*
X5579Y2734*
Y2721*
X5576Y2715*
X5573Y2712*
X5567Y2709*
X5548*
X5604D02*
X5617D01*
X5610D02*
Y2746D01*
X5604Y2740*
X5654Y2709D02*
X5667D01*
X5660D02*
Y2746D01*
X5654Y2740*
X5565Y616D02*
Y666D01*
Y641D02*
X5590D01*
X5595Y3059D02*
Y3097D01*
X5614*
X5620Y3094*
X5623Y3090*
X5626Y3084*
Y3072*
X5623Y3065*
X5620Y3062*
X5614Y3059*
X5595*
X5655D02*
X5661Y3062D01*
X5667Y3069*
X5670Y3078*
Y3087*
X5667Y3094*
X5661Y3097*
X5655*
X5648Y3094*
X5645Y3087*
X5648Y3081*
X5655Y3078*
X5661*
X5667Y3081*
X5670Y3087*
X5599Y3618D02*
Y3656D01*
X5621*
X5627Y3653*
X5630Y3646*
X5627Y3640*
X5621Y3637*
X5599*
X5621D02*
X5630Y3618D01*
X5649Y3621D02*
X5655Y3618D01*
X5665*
X5671Y3621*
X5674Y3628*
Y3631*
X5671Y3637*
X5665Y3640*
X5649*
Y3656*
X5674*
X5715Y3618D02*
Y3656D01*
X5699Y3631*
X5724*
X5599Y3823D02*
Y3860D01*
X5621*
X5627Y3857*
X5630Y3851*
X5627Y3845*
X5621Y3842*
X5599*
X5621D02*
X5630Y3823D01*
X5649Y3826D02*
X5655Y3823D01*
X5665*
X5671Y3826*
X5674Y3832*
Y3835*
X5671Y3842*
X5665Y3845*
X5649*
Y3860*
X5674*
X5702Y3826D02*
X5708Y3823D01*
X5715*
X5721Y3826*
X5724Y3832*
X5721Y3839*
X5715Y3842*
X5708*
X5715D02*
X5721Y3845D01*
X5724Y3851*
X5721Y3857*
X5715Y3860*
X5708*
X5702Y3857*
X5640Y716D02*
G75*
G03Y466J-125D01*
G01*
G75*
G03Y716J125*
G01*
X5719Y4449D02*
G75*
G03X5715Y4445I-2J-2D01*
G01*
G75*
G03X5719Y4449I2J2*
G01*
Y4453D02*
G75*
G03X5715Y4441I-2J-6D01*
G01*
G75*
G03X5719Y4453I2J6*
G01*
X5723D02*
G75*
G03X5711Y4441I-6J-6D01*
G01*
G75*
G03X5723Y4453I6J6*
G01*
X5727D02*
G75*
G03X5707Y4441I-10J-6D01*
G01*
G75*
G03X5727Y4453I10J6*
G01*
X5737Y4406D02*
Y4012D01*
X5922*
Y4406*
X5737*
X5737Y4406D02*
X5922D01*
Y4402*
X5737*
Y4410*
X5922*
Y4414*
X5737*
Y4406*
X5757Y3953D02*
Y3990D01*
X5775*
X5782Y3987*
X5785Y3984*
X5788Y3978*
Y3965*
X5785Y3959*
X5782Y3956*
X5775Y3953*
X5757*
X5813D02*
X5825D01*
X5819D02*
Y3990D01*
X5813Y3984*
X5860Y3956D02*
X5866Y3953D01*
X5872*
X5878Y3956*
X5882Y3962*
X5878Y3968*
X5872Y3972*
X5866*
X5872D02*
X5878Y3975D01*
X5882Y3981*
X5878Y3987*
X5872Y3990*
X5866*
X5860Y3987*
X5926Y4449D02*
G75*
G03X5922Y4445I-2J-2D01*
G01*
G75*
G03X5926Y4449I2J2*
G01*
Y4453D02*
G75*
G03X5922Y4441I-2J-6D01*
G01*
G75*
G03X5926Y4453I2J6*
G01*
X5930D02*
G75*
G03X5918Y4441I-6J-6D01*
G01*
G75*
G03X5930Y4453I6J6*
G01*
X5934D02*
G75*
G03X5914Y4441I-10J-6D01*
G01*
G75*
G03X5934Y4453I10J6*
G01*
X6657Y1936D02*
X5882D01*
Y2586*
X6657*
Y1936*
Y2605D02*
X5882D01*
Y3255*
X6657*
Y2605*
Y3264D02*
X5882D01*
Y3914*
X6657*
Y3264*
D02*
D124*
X2333Y1486D02*
X2335Y1488D01*
X2337Y1492*
X2335Y1496*
X2333Y1498*
X2313*
Y1502*
Y1498D02*
Y1490D01*
X2337Y1522D02*
Y1530D01*
Y1526D02*
X2313D01*
X2317Y1522*
X2753Y688D02*
X2723D01*
Y705*
X2726Y710*
X2731Y713*
X2736Y710*
X2738Y705*
Y688*
Y705D02*
X2753Y713D01*
Y748D02*
Y728D01*
X2736Y745*
X2731Y748*
X2726Y745*
X2723Y740*
Y733*
X2726Y728*
X2753Y768D02*
X2723Y788D01*
Y768*
X2863Y684D02*
X2833D01*
Y701*
X2836Y706*
X2841Y709*
X2846Y706*
X2848Y701*
Y684*
Y701D02*
X2863Y709D01*
X2861Y726D02*
X2863Y731D01*
Y736*
X2861Y741*
X2856Y744*
X2851Y741*
X2848Y736*
Y731*
Y736D02*
X2846Y741D01*
X2841Y744*
X2836Y741*
X2833Y736*
Y731*
X2836Y726*
X2861Y766D02*
X2863Y771D01*
Y776*
X2861Y781*
X2856Y784*
X2841*
X2836Y781*
X2833Y776*
Y771*
X2836Y766*
X2841Y764*
X2856*
X2861Y766*
X2836Y781*
X2958Y684D02*
X2928D01*
Y701*
X2930Y706*
X2935Y709*
X2940Y706*
X2943Y701*
Y684*
Y701D02*
X2958Y709D01*
X2955Y726D02*
X2958Y731D01*
Y736*
X2955Y741*
X2950Y744*
X2945Y741*
X2943Y736*
Y731*
Y736D02*
X2940Y741D01*
X2935Y744*
X2930Y741*
X2928Y736*
Y731*
X2930Y726*
X2958Y776D02*
X2928D01*
X2948Y764*
Y784*
X3060Y684D02*
X3030D01*
Y701*
X3033Y706*
X3038Y709*
X3043Y706*
X3045Y701*
Y684*
Y701D02*
X3060Y709D01*
X3058Y726D02*
X3060Y731D01*
Y736*
X3058Y741*
X3053Y744*
X3048Y741*
X3045Y736*
Y731*
Y736D02*
X3043Y741D01*
X3038Y744*
X3033Y741*
X3030Y736*
Y731*
X3033Y726*
X3058Y764D02*
X3060Y769D01*
Y776*
X3058Y781*
X3053Y784*
X3050*
X3045Y781*
X3043Y776*
Y764*
X3030*
Y784*
X3154Y4402D02*
X3156Y4400D01*
X3160Y4398*
X3164Y4400*
X3166Y4402*
Y4422*
X3170*
X3166D02*
X3158D01*
X3202Y4398D02*
X3186D01*
X3200Y4412*
X3202Y4416*
X3200Y4420*
X3196Y4422*
X3190*
X3186Y4420*
X3288Y4402D02*
X3290Y4400D01*
X3294Y4398*
X3298Y4400*
X3300Y4402*
Y4422*
X3304*
X3300D02*
X3292D01*
X3330Y4398D02*
Y4422D01*
X3320Y4406*
X3336*
D02*
D146*
X1816Y371D02*
X1812Y366D01*
X1803*
X1794*
X1785Y371*
X1781Y380*
Y393*
X1785Y397*
X1794Y402*
X1803*
X1812Y397*
X1816Y393*
Y389*
X1812Y384*
X1803Y380*
X1794*
X1785Y384*
X1781Y389*
X1852Y366D02*
Y402D01*
Y389D02*
X1856Y397D01*
X1865Y402*
X1874*
X1883Y397*
X1887Y389*
Y366*
X1958Y371D02*
X1954Y366D01*
X1945*
X1936*
X1927Y371*
X1923Y380*
Y393*
X1927Y397*
X1936Y402*
X1945*
X1954Y397*
X1958Y393*
Y389*
X1954Y384*
X1945Y380*
X1936*
X1927Y384*
X1923Y389*
X1993Y366D02*
Y402D01*
Y389D02*
X1998Y397D01*
X2007Y402*
X2016*
X2024Y397*
X2100Y389D02*
X2095Y397D01*
X2086Y402*
X2078*
X2069Y397*
X2064Y389*
Y384*
X2069Y375*
X2078Y371*
X2086*
X2095Y375*
X2100Y384*
Y402D02*
Y366D01*
X2095Y358*
X2086Y353*
X2073*
X2064Y358*
X2135Y402D02*
X2140Y384D01*
X2149Y375*
X2157*
X2166Y384*
X2171Y402*
X2166Y384D02*
X2162Y366D01*
X2157Y358*
X2149Y353*
X2140Y358*
X2277Y366D02*
Y420D01*
Y384D02*
X2290D01*
X2312Y402*
X2290Y384D02*
X2312Y366D01*
X2366D02*
Y402D01*
Y415D02*
X2419Y380*
X2423Y371D01*
X2432Y366*
X2441*
X2450Y371*
X2454Y380*
Y389*
X2450Y397*
X2441Y402*
X2432*
X2423Y397*
X2419Y389*
Y380*
X2490Y371D02*
X2498Y366D01*
X2516*
X2525Y371*
Y380*
X2516Y384*
X2498*
X2490Y389*
Y397*
X2498Y402*
X2516*
X2525Y397*
X2560Y366D02*
Y420D01*
Y384D02*
X2574D01*
X2596Y402*
X2574Y384D02*
X2596Y366D01*
X2702Y380D02*
X2707Y371D01*
X2715Y366*
X2724*
X2733Y371*
X2738Y380*
Y389*
X2733Y397*
X2724Y402*
X2715*
X2707Y397*
X2702Y389*
Y380*
X2773D02*
X2777Y371D01*
X2786Y366*
X2795*
X2804Y371*
X2808Y380*
Y389*
X2804Y397*
X2795Y402*
X2786*
X2777Y397*
X2773Y389*
Y366D02*
Y420D01*
X2844Y371D02*
X2853Y366D01*
X2870*
X2879Y371*
Y380*
X2870Y384*
X2853*
X2844Y389*
Y397*
X2853Y402*
X2870*
X2879Y397*
X2950Y371D02*
X2946Y366D01*
X2937*
X2928*
X2919Y371*
X2915Y380*
Y393*
X2919Y397*
X2928Y402*
X2937*
X2946Y397*
X2950Y393*
Y389*
X2946Y384*
X2937Y380*
X2928*
X2919Y384*
X2915Y389*
X2986Y366D02*
Y402D01*
Y389D02*
X2990Y397D01*
X2999Y402*
X3008*
X3017Y397*
X3056Y402D02*
X3074Y366D01*
X3092Y402*
X3163Y371D02*
X3158Y366D01*
X3149*
X3141*
X3132Y371*
X3127Y380*
Y393*
X3132Y397*
X3141Y402*
X3149*
X3158Y397*
X3163Y393*
Y389*
X3158Y384*
X3149Y380*
X3141*
X3132Y384*
X3127Y389*
X3198Y366D02*
Y402D01*
Y389D02*
X3203Y397D01*
X3211Y402*
X3220*
X3229Y397*
X2968Y3448D02*
X2978Y3443D01*
X2983Y3434*
X2978Y3424*
X2968Y3419*
X2934*
Y3478*
X2968*
X2978Y3473*
X2983Y3463*
X2978Y3453*
X2968Y3448*
X2934*
X3052Y3424D02*
X3047Y3419D01*
X3037*
X3027*
X3017Y3424*
X3012Y3434*
Y3448*
X3017Y3453*
X3027Y3458*
X3037*
X3047Y3453*
X3052Y3448*
Y3443*
X3047Y3439*
X3037Y3434*
X3027*
X3017Y3439*
X3012Y3443*
X3091Y3453D02*
X3101Y3458D01*
X3116*
X3126Y3453*
X3131Y3443*
Y3429*
X3126Y3424*
X3116Y3419*
X3106*
X3096Y3424*
X3091Y3429*
Y3434*
X3096Y3439*
X3106Y3443*
X3116*
X3126Y3439*
X3131Y3434*
Y3429D02*
Y3419D01*
X3209Y3443D02*
X3204Y3453D01*
X3195Y3458*
X3185*
X3175Y3453*
X3170Y3443*
Y3439*
X3175Y3429*
X3185Y3424*
X3195*
X3204Y3429*
X3209Y3439*
Y3458D02*
Y3419D01*
X3204Y3409*
X3195Y3404*
X3180*
X3170Y3409*
X3273Y3419D02*
X3268D01*
Y3478*
X3367Y3424D02*
X3362Y3419D01*
X3352*
X3342*
X3332Y3424*
X3327Y3434*
Y3448*
X3332Y3453*
X3342Y3458*
X3352*
X3362Y3453*
X3367Y3448*
Y3443*
X3362Y3439*
X3352Y3434*
X3342*
X3332Y3439*
X3327Y3443*
X3406Y3434D02*
X3411Y3424D01*
X3421Y3419*
X3431*
X3441Y3424*
X3446Y3434*
Y3443*
X3441Y3453*
X3431Y3458*
X3421*
X3411Y3453*
X3406Y3443*
Y3419D02*
Y3478D01*
X3485Y3434D02*
X3490Y3424D01*
X3500Y3419*
X3510*
X3519Y3424*
X3524Y3434*
Y3443*
X3519Y3453*
X3510Y3458*
X3500*
X3490Y3453*
X3485Y3443*
Y3434*
X3564Y3453D02*
X3574Y3458D01*
X3588*
X3598Y3453*
X3603Y3443*
Y3429*
X3598Y3424*
X3588Y3419*
X3578*
X3569Y3424*
X3564Y3429*
Y3434*
X3569Y3439*
X3578Y3443*
X3588*
X3598Y3439*
X3603Y3434*
Y3429D02*
Y3419D01*
X3642D02*
Y3458D01*
Y3443D02*
X3647Y3453D01*
X3657Y3458*
X3667*
X3677Y3453*
X3761Y3443D02*
X3756Y3453D01*
X3746Y3458*
X3736*
X3726Y3453*
X3721Y3443*
Y3434*
X3726Y3424*
X3736Y3419*
X3746*
X3756Y3424*
X3761Y3434*
Y3419D02*
Y3478D01*
X2934Y3324D02*
X2973Y3364D01*
Y3324D02*
X2934Y3364D01*
X3012Y3324D02*
Y3383D01*
X3037Y3354*
X3062Y3383*
Y3324*
D02*
D147*
X1779Y288D02*
X1793D01*
X1786D02*
Y330D01*
X1779D02*
X1793D01*
X1824Y288D02*
Y316D01*
Y313D02*
X1827Y316D01*
X1834*
X1837Y313*
Y302*
Y313D02*
X1841Y316D01*
X1848*
X1851Y313*
Y288*
X1879Y316D02*
Y278D01*
Y299D02*
X1882Y292D01*
X1889Y288*
X1896*
X1903Y292*
X1906Y299*
Y306*
X1903Y313*
X1896Y316*
X1889*
X1882Y313*
X1879Y306*
Y299*
X1961Y292D02*
X1958Y288D01*
X1951*
X1944*
X1937Y292*
X1934Y299*
Y309*
X1937Y313*
X1944Y316*
X1951*
X1958Y313*
X1961Y309*
Y306*
X1958Y302*
X1951Y299*
X1944*
X1937Y302*
X1934Y306*
X1989Y288D02*
Y316D01*
Y306D02*
X1992Y313D01*
X1999Y316*
X2006*
X2013Y313*
X2058Y288D02*
Y316D01*
Y326D02*
X2099Y313*
X2106Y316D01*
X2116*
X2123Y313*
X2127Y306*
Y295*
X2123Y292*
X2116Y288*
X2109*
X2103Y292*
X2099Y295*
Y299*
X2103Y302*
X2109Y306*
X2116*
X2123Y302*
X2127Y299*
Y295D02*
Y288D01*
X2171D02*
X2168D01*
Y330*
X2299Y295D02*
X2295Y292D01*
X2289Y288*
X2278*
X2271Y292*
X2268Y295*
X2264Y302*
Y316*
X2268Y323*
X2271Y326*
X2278Y330*
X2289*
X2295Y326*
X2299Y323*
X2320Y299D02*
X2323Y292D01*
X2330Y288*
X2337*
X2344Y292*
X2347Y299*
Y306*
X2344Y313*
X2337Y316*
X2330*
X2323Y313*
X2320Y306*
Y299*
X2392Y288D02*
X2388D01*
Y330*
X2447Y288D02*
X2444D01*
Y330*
X2512Y292D02*
X2509Y288D01*
X2502*
X2495*
X2488Y292*
X2485Y299*
Y309*
X2488Y313*
X2495Y316*
X2502*
X2509Y313*
X2512Y309*
Y306*
X2509Y302*
X2502Y299*
X2495*
X2488Y302*
X2485Y306*
X2568D02*
X2564Y313D01*
X2557Y316*
X2550*
X2543Y313*
X2540Y306*
Y302*
X2543Y295*
X2550Y292*
X2557*
X2564Y295*
X2568Y302*
Y316D02*
Y288D01*
X2564Y282*
X2557Y278*
X2547*
X2540Y282*
X2623Y292D02*
X2619Y288D01*
X2612*
X2605*
X2599Y292*
X2595Y299*
Y309*
X2599Y313*
X2605Y316*
X2612*
X2619Y313*
X2623Y309*
Y306*
X2619Y302*
X2612Y299*
X2605*
X2599Y302*
X2595Y306*
X2705Y330D02*
Y288D01*
X2740*
X2761Y299D02*
X2764Y292D01*
X2771Y288*
X2778*
X2785Y292*
X2788Y299*
Y306*
X2785Y313*
X2778Y316*
X2771*
X2764Y313*
X2761Y306*
Y299*
X2816Y288D02*
Y316D01*
Y306D02*
X2819Y313D01*
X2826Y316*
X2833*
X2840Y313*
X2843Y306*
Y288*
X2898Y306D02*
X2895Y313D01*
X2888Y316*
X2881*
X2874Y313*
X2871Y306*
Y299*
X2874Y292*
X2881Y288*
X2888*
X2895Y292*
X2898Y299*
Y288D02*
Y330D01*
X2926Y299D02*
X2929Y292D01*
X2936Y288*
X2943*
X2950Y292*
X2953Y299*
Y306*
X2950Y313*
X2943Y316*
X2936*
X2929Y313*
X2926Y306*
Y299*
X2981Y288D02*
Y316D01*
Y306D02*
X2984Y313D01*
X2991Y316*
X2998*
X3005Y313*
X3009Y306*
Y288*
X1781Y448D02*
Y478D01*
X1805*
X1801Y463D02*
X1781D01*
Y448D02*
X1805D01*
X1820D02*
Y478D01*
X1845*
X1840Y463D02*
X1820D01*
Y448D02*
X1845D01*
X1862Y450D02*
X1867Y448D01*
X1872*
X1877Y450*
X1879Y455*
X1877Y460*
X1872Y463*
X1867*
X1872D02*
X1877Y465D01*
X1879Y470*
X1877Y475*
X1872Y478*
X1867*
X1862Y475*
X1938Y448D02*
Y478D01*
X1953*
X1958Y475*
X1961Y473*
X1963Y468*
Y458*
X1961Y453*
X1958Y450*
X1953Y448*
X1938*
X1997Y450D02*
X1995Y448D01*
X1990*
X1985*
X1980Y450*
X1978Y455*
Y463*
X1980Y465*
X1985Y468*
X1990*
X1995Y465*
X1997Y463*
Y460*
X1995Y458*
X1990Y455*
X1985*
X1980Y458*
X1978Y460*
X2017Y450D02*
X2022Y448D01*
X2032*
X2037Y450*
Y455*
X2032Y458*
X2022*
X2017Y460*
Y465*
X2022Y468*
X2032*
X2037Y465*
X2066Y448D02*
Y468D01*
Y475D02*
X2116Y460*
X2113Y465D01*
X2108Y468*
X2103*
X2098Y465*
X2096Y460*
Y458*
X2098Y453*
X2103Y450*
X2108*
X2113Y453*
X2116Y458*
Y468D02*
Y448D01*
X2113Y443*
X2108Y441*
X2101*
X2096Y443*
X2135Y448D02*
Y468D01*
Y460D02*
X2138Y465D01*
X2143Y468*
X2148*
X2152Y465*
X2155Y460*
Y448*
X2214Y465D02*
X2219Y468D01*
X2226*
X2231Y465*
X2234Y460*
Y453*
X2231Y450*
X2226Y448*
X2221*
X2216Y450*
X2214Y453*
Y455*
X2216Y458*
X2221Y460*
X2226*
X2231Y458*
X2234Y455*
Y453D02*
Y448D01*
X2253D02*
Y468D01*
Y460D02*
X2256Y465D01*
X2261Y468*
X2266*
X2271Y465*
X2273Y460*
Y448*
X2312Y460D02*
X2310Y465D01*
X2305Y468*
X2300*
X2295Y465*
X2293Y460*
Y455*
X2295Y450*
X2300Y448*
X2305*
X2310Y450*
X2312Y455*
Y448D02*
Y478D01*
X2389Y463D02*
X2394Y460D01*
X2396Y455*
X2394Y450*
X2389Y448*
X2371*
Y478*
X2389*
X2394Y475*
X2396Y470*
X2394Y465*
X2389Y463*
X2371*
X2411Y468D02*
Y455D01*
X2413Y450*
X2418Y448*
X2423*
X2428Y450*
X2430Y455*
Y468D02*
Y448D01*
X2460D02*
Y468D01*
Y475D02*
X2502Y448*
X2499D01*
Y478*
X2549Y460D02*
X2546Y465D01*
X2541Y468*
X2536*
X2531Y465*
X2529Y460*
Y455*
X2531Y450*
X2536Y448*
X2541*
X2546Y450*
X2549Y455*
Y448D02*
Y478D01*
X2608Y448D02*
Y478D01*
X2625*
X2630Y475*
X2632Y470*
X2630Y465*
X2625Y463*
X2608*
X2647Y448D02*
Y468D01*
Y460D02*
X2649Y465D01*
X2654Y468*
X2659*
X2664Y465*
X2686Y455D02*
X2689Y450D01*
X2694Y448*
X2699*
X2704Y450*
X2706Y455*
Y460*
X2704Y465*
X2699Y468*
X2694*
X2689Y465*
X2686Y460*
Y455*
X2728Y443D02*
X2733Y441D01*
X2738Y443*
X2741Y448*
Y468*
Y475D02*
X2785Y450*
X2782Y448D01*
X2777*
X2773*
X2768Y450*
X2765Y455*
Y463*
X2768Y465*
X2773Y468*
X2777*
X2782Y465*
X2785Y463*
Y460*
X2782Y458*
X2777Y455*
X2773*
X2768Y458*
X2765Y460*
X2824Y465D02*
X2819Y468D01*
X2812*
X2807Y465*
X2805Y460*
Y455*
X2807Y450*
X2812Y448*
X2819*
X2824Y450*
X2849Y468D02*
X2859D01*
X2854Y473D02*
Y450D01*
X2856Y448*
X2859*
X2861Y450*
D02*
D148*
X81Y2846D02*
Y2884D01*
X112*
X106Y2865D02*
X81D01*
Y2846D02*
X112D01*
X131D02*
Y2884D01*
X153*
X159Y2881*
X162Y2874*
X159Y2868*
X153Y2865*
X131*
X153D02*
X162Y2846D01*
X181D02*
Y2884D01*
X203*
X209Y2881*
X212Y2874*
X209Y2868*
X203Y2865*
X181*
X203D02*
X212Y2846D01*
X81Y3084D02*
Y3121D01*
X97Y3103*
X112Y3121*
Y3084*
X153Y3103D02*
X159Y3099D01*
X162Y3093*
X159Y3087*
X153Y3084*
X131*
Y3121*
X153*
X159Y3118*
X162Y3112*
X159Y3106*
X153Y3103*
X131*
X81Y3296D02*
Y3334D01*
X97Y3315*
X112Y3334*
Y3296*
X153Y3315D02*
X159Y3312D01*
X162Y3306*
X159Y3299*
X153Y3296*
X131*
Y3334*
X153*
X159Y3331*
X162Y3324*
X159Y3318*
X153Y3315*
X131*
X81Y3521D02*
Y3559D01*
X112Y3521*
Y3559*
X131Y3521D02*
Y3559D01*
X162*
X156Y3540D02*
X131D01*
Y3521D02*
X162D01*
X197D02*
Y3559D01*
X181D02*
X212D01*
X81Y3756D02*
X84Y3749D01*
X91Y3746*
X103*
X109Y3749*
X112Y3756*
X109Y3762*
X103Y3765*
X91*
X84Y3768*
X81Y3774*
X84Y3781*
X91Y3784*
X103*
X109Y3781*
X112Y3774*
X147Y3746D02*
Y3765D01*
X131Y3784*
X147Y3765D02*
X162Y3784D01*
X181Y3746D02*
Y3784D01*
X212Y3746*
Y3784*
X180Y3904D02*
Y3941D01*
X198*
X205Y3938*
X208Y3935*
X211Y3929*
Y3916*
X208Y3910*
X205Y3907*
X198Y3904*
X180*
X239D02*
X252D01*
X245D02*
Y3941D01*
X239D02*
X252D01*
X280Y3904D02*
X295Y3941D01*
X311Y3904*
X286Y3919D02*
X305D01*
X352D02*
X361D01*
Y3916*
X358Y3910*
X355Y3907*
X348Y3904*
X342*
X336Y3907*
X333Y3910*
X330Y3916*
Y3929*
X333Y3935*
X336Y3938*
X342Y3941*
X348*
X355Y3938*
X358Y3935*
X361Y3929*
X380Y3904D02*
Y3941D01*
X411Y3904*
Y3941*
X430Y3916D02*
Y3929D01*
X433Y3935*
X436Y3938*
X442Y3941*
X448*
X455Y3938*
X458Y3935*
X461Y3929*
Y3916*
X458Y3910*
X455Y3907*
X448Y3904*
X442*
X436Y3907*
X433Y3910*
X430Y3916*
X480Y3913D02*
X483Y3907D01*
X489Y3904*
X502*
X508Y3907*
X511Y3913*
X508Y3919*
X502Y3923*
X489*
X483Y3926*
X480Y3932*
X483Y3938*
X489Y3941*
X502*
X508Y3938*
X511Y3932*
X545Y3904D02*
Y3941D01*
X530D02*
X561D01*
X589Y3904D02*
X602D01*
X595D02*
Y3941D01*
X589D02*
X602D01*
X661Y3910D02*
X658Y3907D01*
X652Y3904*
X642*
X636Y3907*
X633Y3910*
X630Y3916*
Y3929*
X633Y3935*
X636Y3938*
X642Y3941*
X652*
X658Y3938*
X661Y3935*
X680Y3913D02*
X683Y3907D01*
X689Y3904*
X702*
X708Y3907*
X711Y3913*
X708Y3919*
X702Y3923*
X689*
X683Y3926*
X680Y3932*
X683Y3938*
X689Y3941*
X702*
X708Y3938*
X711Y3932*
X1405Y1558D02*
Y1596D01*
X1427*
X1433Y1592*
X1436Y1586*
X1433Y1580*
X1427Y1577*
X1405*
X1486Y1564D02*
X1483Y1561D01*
X1477Y1558*
X1468*
X1461Y1561*
X1458Y1564*
X1455Y1571*
Y1583*
X1458Y1589*
X1461Y1592*
X1468Y1596*
X1477*
X1483Y1592*
X1486Y1589*
X1505Y1558D02*
X1521Y1596D01*
X1536Y1558*
X1511Y1574D02*
X1530D01*
X1565Y1558D02*
X1571Y1561D01*
X1577Y1567*
X1580Y1577*
Y1586*
X1577Y1592*
X1571Y1596*
X1565*
X1558Y1592*
X1555Y1586*
X1558Y1580*
X1565Y1577*
X1571*
X1577Y1580*
X1580Y1586*
X1608Y1561D02*
X1615Y1558D01*
X1621*
X1627Y1561*
X1630Y1567*
X1627Y1574*
X1621Y1577*
X1615*
X1621D02*
X1627Y1580D01*
X1630Y1586*
X1627Y1592*
X1621Y1596*
X1615*
X1608Y1592*
X1658Y1561D02*
X1665Y1558D01*
X1671*
X1677Y1561*
X1680Y1567*
Y1586*
X1677Y1592*
X1671Y1596*
X1665*
X1658Y1592*
X1655Y1586*
Y1567*
X1658Y1561*
X1677Y1592*
X1705Y1567D02*
X1708Y1574D01*
X1715Y1577*
X1721*
X1727Y1574*
X1730Y1567*
X1727Y1561*
X1721Y1558*
X1715*
X1708Y1561*
X1705Y1567*
Y1577*
X1708Y1586*
X1715Y1592*
X1721Y1596*
X1415Y1498D02*
X1427D01*
X1421D02*
Y1536D01*
X1415D02*
X1427D01*
X1480Y1498D02*
X1455D01*
X1477Y1520*
X1480Y1526*
X1477Y1532*
X1471Y1536*
X1461*
X1455Y1532*
X1536Y1504D02*
X1533Y1501D01*
X1527Y1498*
X1518*
X1511Y1501*
X1508Y1504*
X1505Y1511*
Y1523*
X1508Y1529*
X1511Y1532*
X1518Y1536*
X1527*
X1533Y1532*
X1536Y1529*
X1608Y1501D02*
X1615Y1498D01*
X1621*
X1627Y1501*
X1630Y1507*
X1627Y1514*
X1621Y1517*
X1615*
X1621D02*
X1627Y1520D01*
X1630Y1526*
X1627Y1532*
X1621Y1536*
X1615*
X1608Y1532*
X1655Y1536D02*
X1671Y1498D01*
X1686Y1536*
X1708Y1501D02*
X1715Y1498D01*
X1721*
X1727Y1501*
X1730Y1507*
X1727Y1514*
X1721Y1517*
X1715*
X1721D02*
X1727Y1520D01*
X1730Y1526*
X1727Y1532*
X1721Y1536*
X1715*
X1708Y1532*
X1821Y1498D02*
X1836Y1514D01*
X1821Y1529*
X1693Y842D02*
X1696Y836D01*
X1702Y833*
X1715*
X1721Y836*
X1724Y842*
X1721Y849*
X1715Y852*
X1702*
X1696Y855*
X1693Y861*
X1696Y867*
X1702Y871*
X1715*
X1721Y867*
X1724Y861*
X1752Y833D02*
X1765D01*
X1758D02*
Y871D01*
X1752D02*
X1765D01*
X1793Y833D02*
Y871D01*
X1811*
X1818Y867*
X1821Y864*
X1824Y858*
Y846*
X1821Y839*
X1818Y836*
X1811Y833*
X1793*
X1843D02*
Y871D01*
X1874*
X1868Y852D02*
X1843D01*
Y833D02*
X1874D01*
X1949D02*
X1961D01*
X1955D02*
Y871D01*
X1949Y864*
X1796Y1849D02*
X1758D01*
X1777Y1864*
X1758Y1880*
X1796*
X1790Y1930D02*
X1793Y1927D01*
X1796Y1921*
Y1911*
X1793Y1905*
X1790Y1902*
X1783Y1899*
X1771*
X1765Y1902*
X1761Y1905*
X1758Y1911*
Y1921*
X1761Y1927*
X1765Y1930*
X1796Y1949D02*
X1758D01*
Y1971*
X1761Y1977*
X1768Y1980*
X1774Y1977*
X1777Y1971*
Y1949*
X1796Y2024D02*
Y1999D01*
X1774Y2021*
X1768Y2024*
X1761Y2021*
X1758Y2014*
Y2005*
X1761Y1999*
X1793Y2052D02*
X1796Y2058D01*
Y2064*
X1793Y2071*
X1786Y2074*
X1780Y2071*
X1777Y2064*
Y2058*
Y2064D02*
X1774Y2071D01*
X1768Y2074*
X1761Y2071*
X1758Y2064*
Y2058*
X1761Y2052*
X1793Y2102D02*
X1796Y2108D01*
Y2114*
X1793Y2121*
X1786Y2124*
X1768*
X1761Y2121*
X1758Y2114*
Y2108*
X1761Y2102*
X1768Y2099*
X1786*
X1793Y2102*
X1761Y2121*
X1793Y2152D02*
X1796Y2158D01*
Y2164*
X1793Y2171*
X1786Y2174*
X1768*
X1761Y2171*
X1758Y2164*
Y2158*
X1761Y2152*
X1768Y2149*
X1786*
X1793Y2152*
X1761Y2171*
X1777Y2208D02*
Y2214D01*
X1774Y2221*
X1768Y2224*
X1761Y2221*
X1758Y2214*
Y2208*
X1761Y2202*
X1768Y2199*
X1774Y2202*
X1777Y2208*
X1780Y2202*
X1786Y2199*
X1793Y2202*
X1796Y2208*
Y2214*
X1793Y2221*
X1786Y2224*
X1780Y2221*
X1777Y2214*
X2465Y4325D02*
X2477D01*
X2471D02*
Y4363D01*
X2465D02*
X2477D01*
X2505Y4334D02*
X2508Y4328D01*
X2515Y4325*
X2527*
X2533Y4328*
X2537Y4334*
X2533Y4341*
X2527Y4344*
X2515*
X2508Y4347*
X2505Y4353*
X2508Y4359*
X2515Y4363*
X2527*
X2533Y4359*
X2537Y4353*
X2555Y4338D02*
Y4350D01*
X2558Y4356*
X2562Y4359*
X2568Y4363*
X2574*
X2580Y4359*
X2583Y4356*
X2587Y4350*
Y4338*
X2583Y4331*
X2580Y4328*
X2574Y4325*
X2568*
X2562Y4328*
X2558Y4331*
X2555Y4338*
X2605Y4363D02*
Y4325D01*
X2637*
X2655D02*
X2671Y4363D01*
X2687Y4325*
X2662Y4341D02*
X2680D01*
X2721Y4325D02*
Y4363D01*
X2705D02*
X2737D01*
X2765Y4325D02*
X2777D01*
X2771D02*
Y4363D01*
X2765D02*
X2777D01*
X2805Y4338D02*
Y4350D01*
X2808Y4356*
X2812Y4359*
X2818Y4363*
X2824*
X2830Y4359*
X2833Y4356*
X2837Y4350*
Y4338*
X2833Y4331*
X2830Y4328*
X2824Y4325*
X2818*
X2812Y4328*
X2808Y4331*
X2805Y4338*
X2855Y4325D02*
Y4363D01*
X2887Y4325*
Y4363*
X2463Y4275D02*
Y4287D01*
X2466Y4293*
X2469Y4296*
X2476Y4300*
X2482*
X2488Y4296*
X2491Y4293*
X2494Y4287*
Y4275*
X2491Y4268*
X2488Y4265*
X2482Y4262*
X2476*
X2469Y4265*
X2466Y4268*
X2463Y4275*
X2513Y4262D02*
X2544Y4300D01*
X2594Y4268D02*
X2591Y4265D01*
X2585Y4262*
X2576*
X2569Y4265*
X2566Y4268*
X2563Y4275*
Y4287*
X2566Y4293*
X2569Y4296*
X2576Y4300*
X2585*
X2591Y4296*
X2594Y4293*
X2663Y4268D02*
X2688D01*
Y4281D02*
X2663D01*
X2763Y4262D02*
Y4300D01*
X2794*
X2788Y4281D02*
X2763D01*
Y4262D02*
X2794D01*
X2813D02*
Y4300D01*
X2844Y4262*
Y4300*
X2494Y4208D02*
X2491Y4205D01*
X2485Y4202*
X2476*
X2469Y4205*
X2466Y4208*
X2463Y4215*
Y4227*
X2466Y4233*
X2469Y4236*
X2476Y4240*
X2485*
X2491Y4236*
X2494Y4233*
X2513Y4202D02*
X2544Y4240D01*
X2594Y4208D02*
X2591Y4205D01*
X2585Y4202*
X2576*
X2569Y4205*
X2566Y4208*
X2563Y4215*
Y4227*
X2566Y4233*
X2569Y4236*
X2576Y4240*
X2585*
X2591Y4236*
X2594Y4233*
X2663Y4208D02*
X2688D01*
Y4221D02*
X2663D01*
X2763Y4202D02*
Y4240D01*
X2782*
X2788Y4236*
X2791Y4233*
X2794Y4227*
Y4215*
X2791Y4208*
X2788Y4205*
X2782Y4202*
X2763*
X2823D02*
X2835D01*
X2829D02*
Y4240D01*
X2823D02*
X2835D01*
X2863Y4211D02*
X2866Y4205D01*
X2873Y4202*
X2885*
X2891Y4205*
X2894Y4211*
X2891Y4218*
X2885Y4221*
X2873*
X2866Y4224*
X2863Y4230*
X2866Y4236*
X2873Y4240*
X2885*
X2891Y4236*
X2894Y4230*
X2670Y3304D02*
X2633Y3320D01*
X2670Y3335*
X2655Y3310D02*
Y3329D01*
X2633Y3354D02*
X2670D01*
Y3385*
X2633Y3404D02*
X2670D01*
Y3435*
X2658Y3504D02*
X2645D01*
X2639Y3507*
X2636Y3510*
X2633Y3516*
Y3523*
X2636Y3529*
X2639Y3532*
X2645Y3535*
X2658*
X2664Y3532*
X2667Y3529*
X2670Y3523*
Y3516*
X2667Y3510*
X2664Y3507*
X2658Y3504*
X2670Y3554D02*
X2633D01*
Y3576*
X2636Y3582*
X2642Y3585*
X2648Y3582*
X2652Y3576*
Y3554*
X2670Y3620D02*
X2633D01*
Y3604D02*
Y3635D01*
X2658Y3654D02*
X2645D01*
X2639Y3657*
X2636Y3660*
X2633Y3666*
Y3673*
X2636Y3679*
X2639Y3682*
X2645Y3685*
X2658*
X2664Y3682*
X2667Y3679*
X2670Y3673*
Y3666*
X2667Y3660*
X2664Y3657*
X2658Y3654*
X2670Y3713D02*
Y3726D01*
Y3720D02*
X2633D01*
Y3713D02*
Y3726D01*
X2661Y3754D02*
X2667Y3757D01*
X2670Y3763*
Y3776*
X2667Y3782*
X2661Y3785*
X2655Y3782*
X2652Y3776*
Y3763*
X2648Y3757*
X2642Y3754*
X2636Y3757*
X2633Y3763*
Y3776*
X2636Y3782*
X2642Y3785*
X2658Y3804D02*
X2645D01*
X2639Y3807*
X2636Y3810*
X2633Y3816*
Y3823*
X2636Y3829*
X2639Y3832*
X2645Y3835*
X2658*
X2664Y3832*
X2667Y3829*
X2670Y3823*
Y3816*
X2667Y3810*
X2664Y3807*
X2658Y3804*
X2721Y3304D02*
X2715Y3307D01*
X2712Y3313*
Y3320*
X2715Y3326*
X2721Y3329*
X2727Y3326*
X2730Y3320*
Y3313*
X2727Y3307*
X2721Y3304*
X2712*
X2702Y3307*
X2696Y3313*
X2693Y3320*
X2730Y3354D02*
X2693D01*
X2730Y3385*
X2693*
X2730Y3410D02*
Y3423D01*
Y3416D02*
X2693D01*
X2699Y3410*
X2727Y3457D02*
X2730Y3463D01*
Y3470*
X2727Y3476*
X2721Y3479*
X2715Y3476*
X2712Y3470*
Y3463*
Y3470D02*
X2708Y3476D01*
X2702Y3479*
X2696Y3476*
X2693Y3470*
Y3463*
X2696Y3457*
X2730Y3504D02*
X2693Y3529D01*
Y3504*
X2771Y1186D02*
X2733D01*
Y1208*
X2736Y1214*
X2743Y1217*
X2749Y1214*
X2752Y1208*
Y1186*
X2765Y1267D02*
X2768Y1264D01*
X2771Y1258*
Y1249*
X2768Y1242*
X2765Y1239*
X2758Y1236*
X2746*
X2740Y1239*
X2736Y1242*
X2733Y1249*
Y1258*
X2736Y1264*
X2740Y1267*
X2771Y1286D02*
X2733Y1302D01*
X2771Y1317*
X2755Y1292D02*
Y1311D01*
X2771Y1346D02*
X2768Y1352D01*
X2761Y1358*
X2752Y1361*
X2743*
X2736Y1358*
X2733Y1352*
Y1346*
X2736Y1339*
X2743Y1336*
X2749Y1339*
X2752Y1346*
Y1352*
X2749Y1358*
X2743Y1361*
X2768Y1389D02*
X2771Y1396D01*
Y1402*
X2768Y1408*
X2761Y1411*
X2755Y1408*
X2752Y1402*
Y1396*
Y1402D02*
X2749Y1408D01*
X2743Y1411*
X2736Y1408*
X2733Y1402*
Y1396*
X2736Y1389*
X2768Y1439D02*
X2771Y1446D01*
Y1452*
X2768Y1458*
X2761Y1461*
X2743*
X2736Y1458*
X2733Y1452*
Y1446*
X2736Y1439*
X2743Y1436*
X2761*
X2768Y1439*
X2736Y1458*
X2761Y1486D02*
X2755Y1489D01*
X2752Y1496*
Y1502*
X2755Y1508*
X2761Y1511*
X2768Y1508*
X2771Y1502*
Y1496*
X2768Y1489*
X2761Y1486*
X2752*
X2743Y1489*
X2736Y1496*
X2733Y1502*
X3046Y1483D02*
Y1521D01*
X3030D02*
X3061D01*
X3080Y1483D02*
X3111Y1521D01*
X3080D02*
X3111Y1483D01*
X3130Y1492D02*
X3133Y1486D01*
X3140Y1483*
X3152*
X3158Y1486*
X3161Y1492*
X3158Y1499*
X3152Y1502*
X3140*
X3133Y1505*
X3130Y1511*
X3133Y1517*
X3140Y1521*
X3152*
X3158Y1517*
X3161Y1511*
X3183Y1486D02*
X3190Y1483D01*
X3196*
X3202Y1486*
X3205Y1492*
Y1511*
X3202Y1517*
X3196Y1521*
X3190*
X3183Y1517*
X3180Y1511*
Y1492*
X3183Y1486*
X3202Y1517*
X3236Y1483D02*
X3249D01*
X3243D02*
Y1521D01*
X3236Y1514*
X3283Y1486D02*
X3290Y1483D01*
X3296*
X3302Y1486*
X3305Y1492*
Y1511*
X3302Y1517*
X3296Y1521*
X3290*
X3283Y1517*
X3280Y1511*
Y1492*
X3283Y1486*
X3302Y1517*
X3346Y1483D02*
Y1521D01*
X3330Y1496*
X3355*
X3398Y4186D02*
X3423D01*
X3411Y4173D02*
Y4198D01*
X3443Y4207D02*
X3428Y4223D01*
X3443Y4238*
X3521Y4207D02*
X3534D01*
X3528D02*
Y4244D01*
X3521D02*
X3534D01*
X3562Y4216D02*
X3565Y4210D01*
X3571Y4207*
X3584*
X3590Y4210*
X3593Y4216*
X3590Y4223*
X3584Y4226*
X3571*
X3565Y4229*
X3562Y4235*
X3565Y4241*
X3571Y4244*
X3584*
X3590Y4241*
X3593Y4235*
X3612Y4219D02*
Y4232D01*
X3615Y4238*
X3618Y4241*
X3624Y4244*
X3631*
X3637Y4241*
X3640Y4238*
X3643Y4232*
Y4219*
X3640Y4213*
X3637Y4210*
X3631Y4207*
X3624*
X3618Y4210*
X3615Y4213*
X3612Y4219*
X3712Y4216D02*
X3715Y4210D01*
X3721Y4207*
X3734*
X3740Y4210*
X3743Y4216*
X3740Y4223*
X3734Y4226*
X3721*
X3715Y4229*
X3712Y4235*
X3715Y4241*
X3721Y4244*
X3734*
X3740Y4241*
X3743Y4235*
X3762Y4207D02*
Y4244D01*
X3784*
X3790Y4241*
X3793Y4235*
X3790Y4229*
X3784Y4226*
X3762*
X3784D02*
X3793Y4207D01*
X3843Y4213D02*
X3840Y4210D01*
X3834Y4207*
X3824*
X3818Y4210*
X3815Y4213*
X3812Y4219*
Y4232*
X3815Y4238*
X3818Y4241*
X3824Y4244*
X3834*
X3840Y4241*
X3843Y4238*
X3927Y1290D02*
X3924Y1288D01*
X3919Y1285*
X3912*
X3907Y1288*
X3905Y1290*
X3902Y1295*
Y1305*
X3905Y1310*
X3907Y1313*
X3912Y1315*
X3919*
X3924Y1313*
X3927Y1310*
X3942Y1285D02*
X3954Y1315D01*
X3966Y1285*
X3947Y1298D02*
X3961D01*
X3902Y1396D02*
Y1425D01*
X3919*
X3924Y1423*
X3927Y1418*
X3924Y1413*
X3919Y1410*
X3902*
X3919D02*
X3927Y1396D01*
X3942D02*
Y1425D01*
X3966*
X3961Y1410D02*
X3942D01*
Y1396D02*
X3966D01*
X3981Y1425D02*
X3993Y1396D01*
X4006Y1425*
X4028Y1396D02*
X4038D01*
X4033D02*
Y1425D01*
X4028D02*
X4038D01*
X4060Y1403D02*
X4062Y1398D01*
X4067Y1396*
X4077*
X4082Y1398*
X4084Y1403*
X4082Y1408*
X4077Y1410*
X4067*
X4062Y1413*
X4060Y1418*
X4062Y1423*
X4067Y1425*
X4077*
X4082Y1423*
X4084Y1418*
X4106Y1396D02*
X4116D01*
X4111D02*
Y1425D01*
X4106D02*
X4116D01*
X4138Y1406D02*
Y1415D01*
X4141Y1420*
X4143Y1423*
X4148Y1425*
X4153*
X4158Y1423*
X4161Y1420*
X4163Y1415*
Y1406*
X4161Y1401*
X4158Y1398*
X4153Y1396*
X4148*
X4143Y1398*
X4141Y1401*
X4138Y1406*
X4178Y1396D02*
Y1425D01*
X4202Y1396*
Y1425*
X4276Y1396D02*
X4257D01*
X4274Y1413*
X4276Y1418*
X4274Y1423*
X4269Y1425*
X4261*
X4257Y1423*
X3909Y1343D02*
X3914Y1341D01*
X3918*
X3923Y1343*
X3926Y1348*
Y1363*
X3923Y1368*
X3918Y1370*
X3914*
X3909Y1368*
X3906Y1363*
Y1348*
X3909Y1343*
X3923Y1368*
X3950Y1341D02*
X3960D01*
X3955D02*
Y1370D01*
X3950Y1365*
X3985Y1341D02*
X4010Y1370D01*
X4027Y1343D02*
X4032Y1341D01*
X4037*
X4042Y1343*
X4044Y1348*
Y1363*
X4042Y1368*
X4037Y1370*
X4032*
X4027Y1368*
X4024Y1363*
Y1348*
X4027Y1343*
X4042Y1368*
X4071Y1355D02*
X4076D01*
X4081Y1358*
X4083Y1363*
X4081Y1368*
X4076Y1370*
X4071*
X4066Y1368*
X4064Y1363*
X4066Y1358*
X4071Y1355*
X4066Y1353*
X4064Y1348*
X4066Y1343*
X4071Y1341*
X4076*
X4081Y1343*
X4083Y1348*
X4081Y1353*
X4076Y1355*
X4103Y1341D02*
X4128Y1370D01*
X4162Y1341D02*
X4142D01*
X4160Y1358*
X4162Y1363*
X4160Y1368*
X4155Y1370*
X4147*
X4142Y1368*
X4184Y1343D02*
X4189Y1341D01*
X4194*
X4199Y1343*
X4201Y1348*
Y1363*
X4199Y1368*
X4194Y1370*
X4189*
X4184Y1368*
X4182Y1363*
Y1348*
X4184Y1343*
X4199Y1368*
X4226Y1341D02*
X4236D01*
X4231D02*
Y1370D01*
X4226Y1365*
X4265Y1341D02*
X4275D01*
X4270D02*
Y1370D01*
X4265Y1365*
X4055Y2692D02*
X4058Y2686D01*
X4065Y2683*
X4077*
X4083Y2686*
X4086Y2692*
X4083Y2699*
X4077Y2702*
X4065*
X4058Y2705*
X4055Y2711*
X4058Y2717*
X4065Y2721*
X4077*
X4083Y2717*
X4086Y2711*
X4105Y2683D02*
Y2721D01*
X4127*
X4133Y2717*
X4136Y2711*
X4133Y2705*
X4127Y2702*
X4105*
X4171Y2683D02*
Y2721D01*
X4155Y2696*
X4180*
X4215Y2702D02*
X4221D01*
X4227Y2705*
X4230Y2711*
X4227Y2717*
X4221Y2721*
X4215*
X4208Y2717*
X4205Y2711*
X4208Y2705*
X4215Y2702*
X4208Y2699*
X4205Y2692*
X4208Y2686*
X4215Y2683*
X4221*
X4227Y2686*
X4230Y2692*
X4227Y2699*
X4221Y2702*
X4258Y2686D02*
X4265Y2683D01*
X4271*
X4277Y2686*
X4280Y2692*
X4277Y2699*
X4271Y2702*
X4265*
X4271D02*
X4277Y2705D01*
X4280Y2711*
X4277Y2717*
X4271Y2721*
X4265*
X4258Y2717*
X4305Y2683D02*
Y2721D01*
X4336*
X4330Y2702D02*
X4305D01*
Y2683D02*
X4336D01*
X4512Y3803D02*
Y3841D01*
X4528Y3822*
X4544Y3841*
Y3803*
X4562D02*
X4578Y3841D01*
X4594Y3803*
X4569Y3819D02*
X4587D01*
X4612Y3803D02*
X4644Y3841D01*
X4612D02*
X4644Y3803D01*
X4512Y3746D02*
X4519Y3743D01*
X4528*
X4534Y3746*
X4537Y3753*
Y3756*
X4534Y3762*
X4528Y3765*
X4512*
Y3781*
X4537*
X4566Y3746D02*
X4572Y3743D01*
X4578*
X4584Y3746*
X4587Y3753*
Y3771*
X4584Y3778*
X4578Y3781*
X4572*
X4566Y3778*
X4562Y3771*
Y3753*
X4566Y3746*
X4584Y3778*
X4616Y3746D02*
X4622Y3743D01*
X4628*
X4634Y3746*
X4637Y3753*
Y3771*
X4634Y3778*
X4628Y3781*
X4622*
X4616Y3778*
X4612Y3771*
Y3753*
X4616Y3746*
X4634Y3778*
X4662Y3743D02*
Y3768D01*
Y3765D02*
X4666Y3768D01*
X4672*
X4675Y3765*
Y3756*
Y3765D02*
X4678Y3768D01*
X4684*
X4687Y3765*
Y3743*
X4712D02*
X4728Y3781D01*
X4744Y3743*
X4719Y3759D02*
X4737D01*
X4828Y3743D02*
X4844Y3759D01*
X4828Y3774*
X5233Y4352D02*
X5239Y4349D01*
X5242Y4342*
X5239Y4336*
X5233Y4333*
X5211*
Y4370*
X5233*
X5239Y4367*
X5242Y4361*
X5239Y4355*
X5233Y4352*
X5211*
X5261Y4370D02*
Y4342D01*
X5264Y4336*
X5271Y4333*
X5283*
X5289Y4336*
X5292Y4342*
Y4370*
X5311Y4342D02*
X5314Y4336D01*
X5321Y4333*
X5333*
X5339Y4336*
X5342Y4342*
X5339Y4349*
X5333Y4352*
X5321*
X5314Y4355*
X5311Y4361*
X5314Y4367*
X5321Y4370*
X5333*
X5339Y4367*
X5342Y4361*
X5211Y4273D02*
Y4310D01*
X5233*
X5239Y4307*
X5242Y4301*
X5239Y4295*
X5233Y4292*
X5211*
X5261Y4310D02*
X5264Y4273D01*
X5277Y4292*
X5289Y4273*
X5292Y4310*
X5311Y4273D02*
Y4310D01*
X5333*
X5339Y4307*
X5342Y4301*
X5339Y4295*
X5333Y4292*
X5311*
X5333D02*
X5342Y4273D01*
X5427D02*
X5442Y4289D01*
X5427Y4304*
X5386Y2287D02*
Y2325D01*
X5405*
X5411Y2322*
X5415Y2319*
X5418Y2312*
Y2300*
X5415Y2294*
X5411Y2291*
X5405Y2287*
X5386*
X5446D02*
X5458D01*
X5452D02*
Y2325D01*
X5446D02*
X5458D01*
X5486Y2287D02*
Y2325D01*
X5508*
X5515Y2322*
X5518Y2316*
X5515Y2309*
X5508Y2306*
X5486*
X5508D02*
X5518Y2287D01*
X5536D02*
Y2325D01*
X5568*
X5561Y2306D02*
X5536D01*
Y2287D02*
X5568D01*
X5618Y2294D02*
X5615Y2291D01*
X5608Y2287*
X5599*
X5593Y2291*
X5590Y2294*
X5586Y2300*
Y2312*
X5590Y2319*
X5593Y2322*
X5599Y2325*
X5608*
X5615Y2322*
X5618Y2319*
X5652Y2287D02*
Y2325D01*
X5636D02*
X5668D01*
X5386Y2227D02*
Y2265D01*
X5408*
X5415Y2262*
X5418Y2256*
X5415Y2249*
X5408Y2246*
X5386*
X5436Y2240D02*
Y2252D01*
X5440Y2259*
X5443Y2262*
X5449Y2265*
X5455*
X5461Y2262*
X5465Y2259*
X5468Y2252*
Y2240*
X5465Y2234*
X5461Y2231*
X5455Y2227*
X5449*
X5443Y2231*
X5440Y2234*
X5436Y2240*
X5486Y2265D02*
X5490Y2227D01*
X5502Y2246*
X5515Y2227*
X5518Y2265*
X5536Y2227D02*
Y2265D01*
X5568*
X5561Y2246D02*
X5536D01*
Y2227D02*
X5568D01*
X5586D02*
Y2265D01*
X5608*
X5615Y2262*
X5618Y2256*
X5615Y2249*
X5608Y2246*
X5586*
X5608D02*
X5618Y2227D01*
X5702D02*
X5718Y2243D01*
X5702Y2259*
X5619Y4443D02*
X5631D01*
X5625D02*
Y4481D01*
X5619Y4474*
X5842Y4443D02*
X5817D01*
X5839Y4465*
X5842Y4471*
X5839Y4478*
X5833Y4481*
X5824*
X5817Y4478*
X6511Y1077D02*
X6473D01*
Y1096*
X6477Y1102*
X6480Y1105*
X6486Y1109*
X6498*
X6505Y1105*
X6508Y1102*
X6511Y1096*
Y1077*
Y1127D02*
X6473Y1143D01*
X6511Y1159*
X6495Y1134D02*
Y1152D01*
X6511Y1193D02*
X6473D01*
Y1177D02*
Y1209D01*
X6511Y1227D02*
X6473Y1243D01*
X6511Y1259*
X6495Y1234D02*
Y1252D01*
X6511Y1327D02*
X6473D01*
X6492Y1343*
X6473Y1359*
X6511*
Y1377D02*
X6473D01*
Y1409*
X6492Y1402D02*
Y1377D01*
X6511D02*
Y1409D01*
Y1427D02*
X6473D01*
X6492Y1443*
X6473Y1459*
X6511*
X6498Y1477D02*
X6486D01*
X6480Y1480*
X6477Y1484*
X6473Y1490*
Y1496*
X6477Y1502*
X6480Y1505*
X6486Y1509*
X6498*
X6505Y1505*
X6508Y1502*
X6511Y1496*
Y1490*
X6508Y1484*
X6505Y1480*
X6498Y1477*
X6511Y1527D02*
X6473D01*
Y1549*
X6477Y1555*
X6483Y1559*
X6489Y1555*
X6492Y1549*
Y1527*
Y1549D02*
X6511Y1559D01*
Y1593D02*
X6492D01*
X6473Y1577*
X6492Y1593D02*
X6473Y1609D01*
D02*
D149*
X1936Y1613D02*
X1938Y1616D01*
Y1619*
X1936Y1622*
X1933Y1624*
X1930Y1622*
X1929Y1619*
Y1616*
Y1619D02*
X1927Y1622D01*
X1924Y1624*
X1921Y1622*
X1919Y1619*
Y1616*
X1921Y1613*
X1919Y1636D02*
X1938Y1644D01*
X1919Y1652*
X1936Y1663D02*
X1938Y1666D01*
Y1669*
X1936Y1672*
X1933Y1674*
X1930Y1672*
X1929Y1669*
Y1666*
Y1669D02*
X1927Y1672D01*
X1924Y1674*
X1921Y1672*
X1919Y1669*
Y1666*
X1921Y1663*
X2033Y1611D02*
X2036Y1613D01*
X2038Y1616*
Y1622*
X2036Y1625*
X2033Y1627*
X2030Y1625*
X2029Y1622*
Y1616*
X2027Y1613*
X2024Y1611*
X2021Y1613*
X2019Y1616*
Y1622*
X2021Y1625*
X2024Y1627*
X2038Y1636D02*
X2019D01*
Y1646*
X2021Y1649*
X2022Y1650*
X2025Y1652*
X2032*
X2035Y1650*
X2036Y1649*
X2038Y1646*
Y1636*
Y1661D02*
X2019Y1669D01*
X2038Y1677*
X2030Y1664D02*
Y1674D01*
X2133Y1611D02*
X2136Y1613D01*
X2138Y1616*
Y1622*
X2136Y1625*
X2133Y1627*
X2130Y1625*
X2129Y1622*
Y1616*
X2127Y1613*
X2124Y1611*
X2121Y1613*
X2119Y1616*
Y1622*
X2121Y1625*
X2124Y1627*
X2135Y1652D02*
X2136Y1650D01*
X2138Y1647*
Y1642*
X2136Y1639*
X2135Y1638*
X2132Y1636*
X2125*
X2122Y1638*
X2121Y1639*
X2119Y1642*
Y1647*
X2121Y1650*
X2122Y1652*
X2119Y1661D02*
X2138D01*
Y1677*
X2180Y1622D02*
Y1627D01*
X2182*
X2185Y1625*
X2186Y1624*
X2188Y1621*
Y1617*
X2186Y1614*
X2185Y1613*
X2182Y1611*
X2175*
X2172Y1613*
X2171Y1614*
X2169Y1617*
Y1621*
X2171Y1624*
X2172Y1625*
X2175Y1627*
X2188Y1636D02*
X2169D01*
X2188Y1652*
X2169*
X2188Y1661D02*
X2169D01*
Y1671*
X2171Y1674*
X2172Y1675*
X2175Y1677*
X2182*
X2185Y1675*
X2186Y1674*
X2188Y1671*
Y1661*
D02*
D150*
X1141Y1618D02*
X1143Y1611D01*
X1148Y1607*
X1154Y1605*
X1161Y1607*
X1163Y1613*
X1161Y1620*
X1157Y1624*
X1161Y1620D02*
X1168Y1618D01*
X1174Y1620*
X1177Y1627*
X1174Y1633*
X1170Y1638*
X1163Y1640*
X1199Y1609D02*
X1183Y1571D01*
X1221Y1587*
X1212Y1547D02*
X1214Y1540D01*
X1219Y1536*
X1225Y1534*
X1232Y1536*
X1234Y1543*
X1232Y1549*
X1227Y1554*
X1232Y1549D02*
X1238Y1547D01*
X1245Y1549*
X1247Y1556*
X1245Y1563*
X1241Y1567*
X1234Y1569*
X1149Y1333D02*
X1161D01*
X1155D02*
Y1371D01*
X1149Y1364*
X1193Y1371D02*
X1208Y1333D01*
X1224Y1371*
X1252Y1352D02*
X1258D01*
X1265Y1355*
X1268Y1361*
X1265Y1367*
X1258Y1371*
X1252*
X1246Y1367*
X1243Y1361*
X1246Y1355*
X1252Y1352*
X1246Y1349*
X1243Y1342*
X1246Y1336*
X1252Y1333*
X1258*
X1265Y1336*
X1268Y1342*
X1265Y1349*
X1258Y1352*
X4497Y2951D02*
Y2980D01*
Y2966D02*
X4521D01*
Y2951D02*
Y2980D01*
X4536Y2951D02*
X4548Y2980D01*
X4561Y2951*
X4541Y2963D02*
X4556D01*
X4575Y2951D02*
Y2980D01*
X4593*
X4598Y2978*
X4600Y2973*
X4598Y2968*
X4593Y2966*
X4575*
X4593D02*
X4600Y2951D01*
X4615D02*
Y2980D01*
X4630*
X4635Y2978*
X4637Y2975*
X4639Y2971*
Y2961*
X4637Y2956*
X4635Y2953*
X4630Y2951*
X4615*
X4654Y2980D02*
X4657Y2951D01*
X4667Y2966*
X4676Y2951*
X4679Y2980*
X4694Y2951D02*
X4706Y2980D01*
X4718Y2951*
X4699Y2963D02*
X4713D01*
X4733Y2951D02*
Y2980D01*
X4750*
X4755Y2978*
X4758Y2973*
X4755Y2968*
X4750Y2966*
X4733*
X4750D02*
X4758Y2951D01*
X4772D02*
Y2980D01*
X4797*
X4792Y2966D02*
X4772D01*
Y2951D02*
X4797D01*
X4497Y2904D02*
Y2933D01*
X4514*
X4519Y2931*
X4521Y2926*
X4519Y2921*
X4514Y2918*
X4497*
X4514D02*
X4521Y2904D01*
X4548D02*
Y2933D01*
X4536D02*
X4561D01*
X4575Y2911D02*
X4578Y2906D01*
X4583Y2904*
X4593*
X4598Y2906*
X4600Y2911*
X4598Y2916*
X4593Y2918*
X4583*
X4578Y2921*
X4575Y2926*
X4578Y2931*
X4583Y2933*
X4593*
X4598Y2931*
X4600Y2926*
X4679Y2909D02*
X4676Y2906D01*
X4671Y2904*
X4664*
X4659Y2906*
X4657Y2909*
X4654Y2913*
Y2923*
X4657Y2928*
X4659Y2931*
X4664Y2933*
X4671*
X4676Y2931*
X4679Y2928*
X4694Y2913D02*
Y2923D01*
X4696Y2928*
X4699Y2931*
X4703Y2933*
X4708*
X4713Y2931*
X4716Y2928*
X4718Y2923*
Y2913*
X4716Y2909*
X4713Y2906*
X4708Y2904*
X4703*
X4699Y2906*
X4696Y2909*
X4694Y2913*
X4733Y2904D02*
Y2933D01*
X4758Y2904*
Y2933*
X4785Y2904D02*
Y2933D01*
X4772D02*
X4797D01*
X4812Y2904D02*
Y2933D01*
X4829*
X4834Y2931*
X4836Y2926*
X4834Y2921*
X4829Y2918*
X4812*
X4829D02*
X4836Y2904D01*
X4851Y2913D02*
Y2923D01*
X4854Y2928*
X4856Y2931*
X4861Y2933*
X4866*
X4871Y2931*
X4873Y2928*
X4876Y2923*
Y2913*
X4873Y2909*
X4871Y2906*
X4866Y2904*
X4861*
X4856Y2906*
X4854Y2909*
X4851Y2913*
X4890Y2933D02*
Y2904D01*
X4915*
X4616Y3291D02*
X4613Y3287D01*
X4607*
X4601*
X4594Y3291*
X4591Y3297*
Y3306*
X4594Y3309*
X4601Y3312*
X4607*
X4613Y3309*
X4616Y3306*
Y3303*
X4613Y3300*
X4607Y3297*
X4601*
X4594Y3300*
X4591Y3303*
X4641Y3287D02*
Y3312D01*
Y3303D02*
X4644Y3309D01*
X4651Y3312*
X4657*
X4663Y3309*
X4666Y3303*
Y3287*
X4716Y3291D02*
X4713Y3287D01*
X4707*
X4701*
X4694Y3291*
X4691Y3297*
Y3306*
X4694Y3309*
X4701Y3312*
X4707*
X4713Y3309*
X4716Y3306*
Y3303*
X4713Y3300*
X4707Y3297*
X4701*
X4694Y3300*
X4691Y3303*
X4741Y3287D02*
Y3312D01*
Y3303D02*
X4744Y3309D01*
X4751Y3312*
X4757*
X4763Y3309*
X4816Y3303D02*
X4813Y3309D01*
X4807Y3312*
X4801*
X4794Y3309*
X4791Y3303*
Y3300*
X4794Y3294*
X4801Y3291*
X4807*
X4813Y3294*
X4816Y3300*
Y3312D02*
Y3287D01*
X4813Y3281*
X4807Y3278*
X4797*
X4791Y3281*
X4841Y3312D02*
X4844Y3300D01*
X4851Y3294*
X4857*
X4863Y3300*
X4866Y3312*
X4863Y3300D02*
X4860Y3287D01*
X4857Y3281*
X4851Y3278*
X4844Y3281*
X4941Y3287D02*
Y3325D01*
Y3300D02*
X4951D01*
X4966Y3312*
X4951Y3300D02*
X4966Y3287D01*
X5004D02*
Y3312D01*
Y3322D02*
X5041Y3297*
X5044Y3291D01*
X5051Y3287*
X5057*
X5063Y3291*
X5066Y3297*
Y3303*
X5063Y3309*
X5057Y3312*
X5051*
X5044Y3309*
X5041Y3303*
Y3297*
X5091Y3291D02*
X5097Y3287D01*
X5110*
X5116Y3291*
Y3297*
X5110Y3300*
X5097*
X5091Y3303*
Y3309*
X5097Y3312*
X5110*
X5116Y3309*
X5141Y3287D02*
Y3325D01*
Y3300D02*
X5151D01*
X5166Y3312*
X5151Y3300D02*
X5166Y3287D01*
X5241Y3297D02*
X5244Y3291D01*
X5251Y3287*
X5257*
X5263Y3291*
X5266Y3297*
Y3303*
X5263Y3309*
X5257Y3312*
X5251*
X5244Y3309*
X5241Y3303*
Y3297*
X5291D02*
X5294Y3291D01*
X5301Y3287*
X5307*
X5313Y3291*
X5316Y3297*
Y3303*
X5313Y3309*
X5307Y3312*
X5301*
X5294Y3309*
X5291Y3303*
Y3287D02*
Y3325D01*
X5341Y3291D02*
X5347Y3287D01*
X5360*
X5366Y3291*
Y3297*
X5360Y3300*
X5347*
X5341Y3303*
Y3309*
X5347Y3312*
X5360*
X5366Y3309*
X5416Y3291D02*
X5413Y3287D01*
X5407*
X5401*
X5394Y3291*
X5391Y3297*
Y3306*
X5394Y3309*
X5401Y3312*
X5407*
X5413Y3309*
X5416Y3306*
Y3303*
X5413Y3300*
X5407Y3297*
X5401*
X5394Y3300*
X5391Y3303*
X5441Y3287D02*
Y3312D01*
Y3303D02*
X5444Y3309D01*
X5451Y3312*
X5457*
X5463Y3309*
X5491Y3312D02*
X5504Y3287D01*
X5516Y3312*
X5566Y3291D02*
X5563Y3287D01*
X5557*
X5551*
X5544Y3291*
X5541Y3297*
Y3306*
X5544Y3309*
X5551Y3312*
X5557*
X5563Y3309*
X5566Y3306*
Y3303*
X5563Y3300*
X5557Y3297*
X5551*
X5544Y3300*
X5541Y3303*
X5591Y3287D02*
Y3312D01*
Y3303D02*
X5594Y3309D01*
X5601Y3312*
X5607*
X5613Y3309*
X4765Y2341D02*
X4793D01*
X4799Y2344*
X4802Y2350*
Y2363*
X4799Y2369*
X4793Y2372*
X4765*
X4802Y2397D02*
Y2410D01*
Y2404D02*
X4765D01*
X4771Y2397*
X4793Y2441D02*
X4787Y2444D01*
X4784Y2450*
Y2457*
X4787Y2463*
X4793Y2466*
X4799Y2463*
X4802Y2457*
Y2450*
X4799Y2444*
X4793Y2441*
X4784*
X4774Y2444*
X4768Y2450*
X4765Y2457*
D02*
D151*
X4700Y3400D02*
X4692Y3391D01*
X4674*
X4657*
X4639Y3400*
X4631Y3417*
Y3443*
X4639Y3452*
X4657Y3461*
X4674*
X4692Y3452*
X4700Y3443*
Y3434*
X4692Y3426*
X4674Y3417*
X4657*
X4639Y3426*
X4631Y3434*
X4840D02*
X4831Y3452D01*
X4814Y3461*
X4796*
X4779Y3452*
X4770Y3434*
Y3417*
X4779Y3400*
X4796Y3391*
X4814*
X4831Y3400*
X4840Y3417*
Y3461D02*
Y3365D01*
X4857Y3382*
X4909Y3461D02*
Y3417D01*
X4918Y3400*
X4935Y3391*
X4953*
X4970Y3400*
X4979Y3417*
Y3461D02*
Y3391D01*
X5084D02*
Y3461D01*
Y3487D02*
X5188Y3391*
Y3461D01*
Y3434D02*
X5197Y3452D01*
X5214Y3461*
X5232*
X5249Y3452*
X5258Y3434*
Y3391*
X5327Y3417D02*
X5336Y3400D01*
X5354Y3391*
X5371*
X5388Y3400*
X5397Y3417*
Y3434*
X5388Y3452*
X5371Y3461*
X5354*
X5336Y3452*
X5327Y3434*
Y3417*
X5467Y3391D02*
X5536Y3461D01*
Y3391D02*
X5467Y3461D01*
D02*
D152*
X3742Y924D02*
X3842D01*
Y1024*
X3742*
Y924*
D02*
D153*
X1923Y2554D02*
Y2694D01*
X1735*
Y2554*
X1923*
X1943Y1735D02*
X1918D01*
X1937Y1747D02*
X1924Y1722D01*
X1937D02*
X1924Y1747D01*
X2015Y1213D02*
X2040D01*
X2021Y1200D02*
X2033Y1225D01*
X2021D02*
X2033Y1200D01*
X2613Y2906D02*
Y2766D01*
X2800*
Y2906*
X2613*
X2745Y1937D02*
Y1797D01*
X2932*
Y1937*
X2745*
X3638Y2119D02*
Y1979D01*
X3825*
Y2119*
X3638*
X3835Y2466D02*
Y2606D01*
X3648*
Y2466*
X3835*
X4041Y2799D02*
Y2824D01*
X4054Y2805D02*
X4029Y2817D01*
Y2805D02*
X4054Y2817D01*
X4506Y2300D02*
Y2325D01*
X4518Y2306D02*
X4493Y2319D01*
Y2306D02*
X4518Y2319D01*
D02*
D154*
X1881Y2624D02*
X1881D01*
X2654Y2836D02*
X2654D01*
X2786Y1867D02*
X2786D01*
X3679Y2049D02*
X3679D01*
X3793Y2536D02*
X3794D01*
X0Y0D02*
M02*
