%FSLAX23Y23*%
%MOIN*%
G04 EasyPC Gerber Version 14.0.2 Build 2922 *
%ADD10C,0.00100*%
%ADD11C,0.00500*%
X0Y0D02*
D02*
D10*
X2663Y400D02*
X2643D01*
Y380*
X2663*
Y400*
G36*
X2643*
Y380*
X2663*
Y400*
G37*
Y500D02*
X2643D01*
Y480*
X2663*
Y500*
G36*
X2643*
Y480*
X2663*
Y500*
G37*
X2763Y400D02*
X2743D01*
Y380*
X2763*
Y400*
G36*
X2743*
Y380*
X2763*
Y400*
G37*
Y500D02*
X2743D01*
Y480*
X2763*
Y500*
G36*
X2743*
Y480*
X2763*
Y500*
G37*
X2863Y400D02*
X2843D01*
Y380*
X2863*
Y400*
G36*
X2843*
Y380*
X2863*
Y400*
G37*
Y500D02*
X2843D01*
Y480*
X2863*
Y500*
G36*
X2843*
Y480*
X2863*
Y500*
G37*
X2963Y400D02*
X2943D01*
Y380*
X2963*
Y400*
G36*
X2943*
Y380*
X2963*
Y400*
G37*
Y500D02*
X2943D01*
Y480*
X2963*
Y500*
G36*
X2943*
Y480*
X2963*
Y500*
G37*
X5030Y3968D02*
X5050D01*
Y3988*
X5030*
Y3968*
G36*
X5050*
Y3988*
X5030*
Y3968*
G37*
Y4068D02*
X5050D01*
Y4088*
X5030*
Y4068*
G36*
X5050*
Y4088*
X5030*
Y4068*
G37*
X5130Y3968D02*
X5150D01*
Y3988*
X5130*
Y3968*
G36*
X5150*
Y3988*
X5130*
Y3968*
G37*
Y4068D02*
X5150D01*
Y4088*
X5130*
Y4068*
G36*
X5150*
Y4088*
X5130*
Y4068*
G37*
D02*
D11*
X3Y3D02*
X5514D01*
Y4471*
X3*
Y3*
X1965Y1543D02*
Y1571D01*
X1962Y1578*
X1956Y1581*
X1943*
X1937Y1578*
X1934Y1571*
Y1543*
X1909Y1581D02*
X1896D01*
X1903D02*
Y1543D01*
X1909Y1549*
X1865Y1578D02*
X1859Y1581D01*
X1849*
X1843Y1578*
X1840Y1571*
Y1568*
X1843Y1562*
X1849Y1559*
X1865*
Y1543*
X1840*
X2028Y737D02*
Y709D01*
X2031Y703*
X2037Y699*
X2049*
X2056Y703*
X2059Y709*
Y737*
X2084Y699D02*
X2096D01*
X2090D02*
Y737D01*
X2084Y731*
X2128Y699D02*
X2153Y737D01*
X2128*
X3868Y2546D02*
X3896D01*
X3902Y2549*
X3905Y2555*
Y2568*
X3902Y2574*
X3896Y2577*
X3868*
X3886Y2605D02*
Y2612D01*
X3883Y2618*
X3877Y2621*
X3871Y2618*
X3868Y2612*
Y2605*
X3871Y2599*
X3877Y2596*
X3883Y2599*
X3886Y2605*
X3889Y2599*
X3896Y2596*
X3902Y2599*
X3905Y2605*
Y2612*
X3902Y2618*
X3896Y2621*
X3889Y2618*
X3886Y2612*
X0Y0D02*
M02*
