M48
INCH
T1C00.016
T2C00.024
T3C00.030
T4C00.032
T5C00.035
T6C00.035
T7C00.040
T8C00.055
T9C00.062
T10C00.128
T11C00.154
%
T001
X02798Y00645
X02869Y01509
X02896Y00599
X02983Y01509
X02995Y00597
X03093Y00524
X03841Y00440
X03963Y00280
X04008Y00548
X04008Y00597
X04008Y00646
X04008Y00715
X04026Y00339
X04087Y00184
X04087Y00479
X04087Y00528
X04156Y00233
X04392Y00617
X04402Y00331
X04443Y00446
X04510Y00446
X04589Y00446
X04628Y00528
X04648Y02202
X04707Y00479
X04707Y00666
X04786Y00666
X04827Y00749
X04884Y00666
X04924Y00434
X04924Y01079
X04924Y01237
X04924Y01670
X04983Y00390
X04983Y01079
X04983Y01237
X04983Y01552
X05042Y00331
X05042Y01076
X05042Y01237
X05042Y01453
X05077Y03789
X05117Y03709
X05229Y00902
X05229Y00961
X05229Y01020
X05485Y00902
X05485Y00961
X05485Y01020
T002
X00255Y02011
X00543Y01499
X02030Y02574
X02093Y01924
X02305Y01824
X02453Y03455
X02455Y03564
X02640Y02005
X02817Y01394
X03243Y01324
X03493Y01374
X03543Y02049
X05357Y02644
X05794Y02953
X06176Y00654
T003
X02493Y00974
X02493Y01074
X02593Y00974
X02593Y01074
X02693Y00974
X02693Y01074
X02793Y00974
X02793Y01074
X02893Y00974
X02893Y01074
X02993Y00974
X02993Y01074
X03093Y00974
X03093Y01074
X03193Y00974
X03193Y01074
X03293Y00974
X03293Y01074
X03393Y00974
X03393Y01074
X03493Y00974
X03493Y01074
X03593Y00974
X03593Y01074
X03693Y00974
X03693Y01074
X03793Y00974
X03793Y01074
T004
X01024Y00310
X01380Y01436
X01583Y03383
X01583Y03790
X01668Y01286
X01693Y02499
X01805Y03024
X01805Y03124
X01805Y03224
X01805Y03324
X01809Y03440
X01809Y03540
X01809Y03640
X01809Y03740
X01809Y03855
X01809Y03955
X01809Y04055
X01809Y04155
X01893Y00949
X01893Y01149
X02105Y03024
X02105Y03124
X02105Y03224
X02105Y03324
X02109Y03440
X02109Y03540
X02109Y03640
X02109Y03740
X02109Y03855
X02109Y03955
X02109Y04055
X02109Y04155
X02345Y02871
X02365Y01761
X02480Y01361
X02580Y02961
X02593Y01611
X02747Y03637
X02755Y02949
X02868Y03224
X02930Y01399
X03043Y02286
X03143Y01799
X03143Y02374
X03143Y02474
X03143Y02574
X03143Y02674
X03143Y02786
X03143Y02886
X03143Y02986
X03143Y03086
X03159Y03857
X03304Y01723
X03443Y01886
X03443Y02374
X03443Y02474
X03443Y02574
X03443Y02674
X03443Y02786
X03443Y02886
X03443Y02986
X03443Y03086
X03605Y02224
X03605Y03086
X03625Y01589
X03780Y02161
X03780Y01723
X03955Y01886
X03955Y02186
X03955Y02686
X04055Y01886
X04055Y02186
X04075Y01589
X04077Y01178
X04093Y03261
X04155Y01886
X04155Y02186
X04255Y01886
X04255Y02186
X04310Y01107
X04343Y02999
X04455Y01296
X04717Y02034
X04865Y02176
X04865Y02576
X04979Y03631
X05278Y01296
X05377Y03639
X05386Y03835
X05423Y04394
X05475Y01355
X05475Y03107
X05583Y02507
X05721Y03766
T005
X05600Y00591
X05680Y00591
T006
X05932Y02136
X05932Y02236
X05932Y02336
X05932Y02436
X05932Y02805
X05932Y02905
X05932Y03005
X05932Y03105
X05932Y03464
X05932Y03564
X05932Y03664
X05932Y03764
X06032Y02086
X06032Y02186
X06032Y02286
X06032Y02386
X06032Y02755
X06032Y02855
X06032Y02955
X06032Y03055
X06032Y03414
X06032Y03514
X06032Y03614
X06032Y03714
T007
X01930Y01536
X02030Y01536
X02130Y01536
X02230Y01536
X03059Y04226
X03059Y04326
X03159Y04226
X03159Y04326
X03314Y04226
X03314Y04326
T008
X05928Y00827
X05928Y01771
T009
X00405Y00961
X00418Y01661
X00905Y00961
X00918Y01661
T010
X06282Y02036
X06282Y02486
X06282Y02705
X06282Y03155
X06282Y03364
X06282Y03814
T011
X01361Y00538
X01361Y04081
X01368Y00949
X01368Y03749
X04068Y00949
X04068Y03749
X05298Y00537
X05298Y04081
M30
