%FSLAX23Y23*%
%MOIN*%
G04 EasyPC Gerber Version 14.0.2 Build 2922 *
%ADD18C,0.00500*%
%ADD17C,0.00787*%
%ADD19C,0.00800*%
%ADD16C,0.02500*%
X0Y0D02*
D02*
D16*
X254Y2341D02*
X1593D01*
Y2855*
X254*
Y2341*
D02*
D17*
X1514Y2741D02*
Y2779D01*
X1499Y2760*
X1483Y2779*
Y2741*
X1464Y2754D02*
Y2766D01*
X1461Y2772*
X1458Y2775*
X1452Y2779*
X1446*
X1439Y2775*
X1436Y2772*
X1433Y2766*
Y2754*
X1436Y2747*
X1439Y2744*
X1446Y2741*
X1452*
X1458Y2744*
X1461Y2747*
X1464Y2754*
X1414Y2741D02*
Y2779D01*
X1396*
X1389Y2775*
X1386Y2772*
X1383Y2766*
Y2754*
X1386Y2747*
X1389Y2744*
X1396Y2741*
X1414*
X1342Y2760D02*
X1336Y2757D01*
X1333Y2750*
X1336Y2744*
X1342Y2741*
X1364*
Y2779*
X1342*
X1336Y2775*
X1333Y2769*
X1336Y2763*
X1342Y2760*
X1364*
X1314Y2779D02*
Y2750D01*
X1311Y2744*
X1305Y2741*
X1292*
X1286Y2744*
X1283Y2750*
Y2779*
X1264Y2750D02*
X1261Y2744D01*
X1255Y2741*
X1242*
X1236Y2744*
X1233Y2750*
X1236Y2757*
X1242Y2760*
X1255*
X1261Y2763*
X1264Y2769*
X1261Y2775*
X1255Y2779*
X1242*
X1236Y2775*
X1233Y2769*
X1164Y2750D02*
X1161Y2744D01*
X1155Y2741*
X1142*
X1136Y2744*
X1133Y2750*
X1136Y2757*
X1142Y2760*
X1155*
X1161Y2763*
X1164Y2769*
X1161Y2775*
X1155Y2779*
X1142*
X1136Y2775*
X1133Y2769*
X1114Y2741D02*
Y2779D01*
X1092*
X1086Y2775*
X1083Y2769*
X1086Y2763*
X1092Y2760*
X1114*
X1064Y2741D02*
Y2779D01*
X1033*
X1039Y2760D02*
X1064D01*
Y2741D02*
X1033D01*
X983Y2747D02*
X986Y2744D01*
X992Y2741*
X1002*
X1008Y2744*
X1011Y2747*
X1014Y2754*
Y2766*
X1011Y2772*
X1008Y2775*
X1002Y2779*
X992*
X986Y2775*
X983Y2772*
X914Y2741D02*
Y2779D01*
X892*
X886Y2775*
X883Y2769*
X886Y2763*
X892Y2760*
X914*
X892D02*
X883Y2741D01*
X864Y2750D02*
X861Y2744D01*
X855Y2741*
X842*
X836Y2744*
X833Y2750*
X836Y2757*
X842Y2760*
X855*
X861Y2763*
X864Y2769*
X861Y2775*
X855Y2779*
X842*
X836Y2775*
X833Y2769*
X799Y2741D02*
Y2779D01*
X814Y2754*
X789*
X755Y2760D02*
X749D01*
X742Y2763*
X739Y2769*
X742Y2775*
X749Y2779*
X755*
X761Y2775*
X764Y2769*
X761Y2763*
X755Y2760*
X761Y2757*
X764Y2750*
X761Y2744*
X755Y2741*
X749*
X742Y2744*
X739Y2750*
X742Y2757*
X749Y2760*
X714Y2744D02*
X708Y2741D01*
X699*
X692Y2744*
X689Y2750*
Y2754*
X692Y2760*
X699Y2763*
X714*
Y2779*
X689*
X614D02*
X611Y2741D01*
X599Y2760*
X586Y2741*
X583Y2779*
X555Y2741D02*
X542D01*
X549D02*
Y2779D01*
X555D02*
X542D01*
X514Y2741D02*
Y2779D01*
X492*
X486Y2775*
X483Y2769*
X486Y2763*
X492Y2760*
X514*
X492D02*
X483Y2741D01*
X455D02*
X442D01*
X449D02*
Y2779D01*
X455D02*
X442D01*
X414Y2741D02*
Y2779D01*
X383Y2741*
Y2779*
X342Y2757D02*
X333D01*
Y2754*
X336Y2747*
X339Y2744*
X346Y2741*
X352*
X358Y2744*
X361Y2747*
X364Y2754*
Y2766*
X361Y2772*
X358Y2775*
X352Y2779*
X346*
X339Y2775*
X336Y2772*
X333Y2766*
X1514Y2681D02*
Y2719D01*
X1492*
X1486Y2715*
X1483Y2709*
X1486Y2703*
X1492Y2700*
X1514*
X1455Y2681D02*
X1442D01*
X1449D02*
Y2719D01*
X1455D02*
X1442D01*
X1414Y2681D02*
Y2719D01*
X1383Y2681*
Y2719*
X1308Y2681D02*
X1296D01*
X1302D02*
Y2719D01*
X1308Y2712*
X1214Y2694D02*
X1189D01*
X1105Y2681D02*
X1092D01*
X1099D02*
Y2719D01*
X1105D02*
X1092D01*
X1064Y2681D02*
Y2719D01*
X1033Y2681*
Y2719*
X999Y2681D02*
Y2719D01*
X1014D02*
X983D01*
X964Y2681D02*
Y2719D01*
X933*
X939Y2700D02*
X964D01*
Y2681D02*
X933D01*
X914D02*
Y2719D01*
X892*
X886Y2715*
X883Y2709*
X886Y2703*
X892Y2700*
X914*
X892D02*
X883Y2681D01*
X864D02*
Y2719D01*
X842*
X836Y2715*
X833Y2709*
X836Y2703*
X842Y2700*
X864*
X842D02*
X833Y2681D01*
X814Y2719D02*
Y2690D01*
X811Y2684*
X805Y2681*
X792*
X786Y2684*
X783Y2690*
Y2719*
X764Y2681D02*
Y2719D01*
X742*
X736Y2715*
X733Y2709*
X736Y2703*
X742Y2700*
X764*
X699Y2681D02*
Y2719D01*
X714D02*
X683D01*
X592Y2681D02*
X599Y2690D01*
Y2712*
X592Y2719*
X564Y2694D02*
Y2706D01*
X561Y2712*
X558Y2715*
X552Y2719*
X546*
X539Y2715*
X536Y2712*
X533Y2706*
Y2694*
X536Y2687*
X539Y2684*
X546Y2681*
X552*
X558Y2684*
X561Y2687*
X564Y2694*
X514Y2681D02*
X483Y2719D01*
X464Y2681D02*
Y2719D01*
X446*
X439Y2715*
X436Y2712*
X433Y2706*
Y2694*
X436Y2687*
X439Y2684*
X446Y2681*
X464*
X405D02*
X399Y2690D01*
Y2712*
X405Y2719*
X1514Y2621D02*
Y2659D01*
X1492*
X1486Y2655*
X1483Y2649*
X1486Y2643*
X1492Y2640*
X1514*
X1455Y2621D02*
X1442D01*
X1449D02*
Y2659D01*
X1455D02*
X1442D01*
X1414Y2621D02*
Y2659D01*
X1383Y2621*
Y2659*
X1299Y2621D02*
Y2659D01*
X1314Y2634*
X1289*
X1214D02*
X1189D01*
X1114Y2621D02*
Y2659D01*
X1096*
X1089Y2655*
X1086Y2652*
X1083Y2646*
Y2634*
X1086Y2627*
X1089Y2624*
X1096Y2621*
X1114*
X1042Y2640D02*
X1036Y2637D01*
X1033Y2630*
X1036Y2624*
X1042Y2621*
X1064*
Y2659*
X1042*
X1036Y2655*
X1033Y2649*
X1036Y2643*
X1042Y2640*
X1064*
X1514Y2561D02*
Y2599D01*
X1492*
X1486Y2595*
X1483Y2589*
X1486Y2583*
X1492Y2580*
X1514*
X1455Y2561D02*
X1442D01*
X1449D02*
Y2599D01*
X1455D02*
X1442D01*
X1414Y2561D02*
Y2599D01*
X1383Y2561*
Y2599*
X1314Y2564D02*
X1308Y2561D01*
X1299*
X1292Y2564*
X1289Y2570*
Y2574*
X1292Y2580*
X1299Y2583*
X1314*
Y2599*
X1289*
X1214Y2574D02*
X1189D01*
X1114Y2561D02*
Y2599D01*
X1096*
X1089Y2595*
X1086Y2592*
X1083Y2586*
Y2574*
X1086Y2567*
X1089Y2564*
X1096Y2561*
X1114*
X1064D02*
X1049Y2599D01*
X1033Y2561*
X1058Y2577D02*
X1039D01*
X1514Y2501D02*
Y2539D01*
X1492*
X1486Y2535*
X1483Y2529*
X1486Y2523*
X1492Y2520*
X1514*
X1455Y2501D02*
X1442D01*
X1449D02*
Y2539D01*
X1455D02*
X1442D01*
X1414Y2501D02*
Y2539D01*
X1383Y2501*
Y2539*
X1314Y2501D02*
X1289Y2539D01*
X1314*
X1214Y2514D02*
X1189D01*
X1114Y2504D02*
X1108Y2501D01*
X1099*
X1092Y2504*
X1089Y2510*
Y2514*
X1092Y2520*
X1099Y2523*
X1114*
Y2539*
X1089*
X1064D02*
X1049Y2501D01*
X1033Y2539*
X1514Y2441D02*
Y2479D01*
X1492*
X1486Y2475*
X1483Y2469*
X1486Y2463*
X1492Y2460*
X1514*
X1455Y2441D02*
X1442D01*
X1449D02*
Y2479D01*
X1455D02*
X1442D01*
X1414Y2441D02*
Y2479D01*
X1383Y2441*
Y2479*
X1305Y2460D02*
X1299D01*
X1292Y2463*
X1289Y2469*
X1292Y2475*
X1299Y2479*
X1305*
X1311Y2475*
X1314Y2469*
X1311Y2463*
X1305Y2460*
X1311Y2457*
X1314Y2450*
X1311Y2444*
X1305Y2441*
X1299*
X1292Y2444*
X1289Y2450*
X1292Y2457*
X1299Y2460*
X1214Y2454D02*
X1189D01*
X1092Y2457D02*
X1083D01*
Y2454*
X1086Y2447*
X1089Y2444*
X1096Y2441*
X1102*
X1108Y2444*
X1111Y2447*
X1114Y2454*
Y2466*
X1111Y2472*
X1108Y2475*
X1102Y2479*
X1096*
X1089Y2475*
X1086Y2472*
X1083Y2466*
X1064Y2441D02*
Y2479D01*
X1033Y2441*
Y2479*
X1014Y2441D02*
Y2479D01*
X996*
X989Y2475*
X986Y2472*
X983Y2466*
Y2454*
X986Y2447*
X989Y2444*
X996Y2441*
X1014*
X1968Y842D02*
X1965Y836D01*
X1958Y833*
X1946*
X1940Y836*
X1936Y842*
X1940Y849*
X1946Y852*
X1958*
X1965Y855*
X1968Y861*
X1965Y867*
X1958Y871*
X1946*
X1940Y867*
X1936Y861*
X1908Y833D02*
X1896D01*
X1902D02*
Y871D01*
X1908D02*
X1896D01*
X1868Y833D02*
Y871D01*
X1849*
X1843Y867*
X1840Y864*
X1836Y858*
Y846*
X1840Y839*
X1843Y836*
X1849Y833*
X1868*
X1818D02*
Y871D01*
X1786*
X1793Y852D02*
X1818D01*
Y833D02*
X1786D01*
X1693D02*
X1718D01*
X1696Y855*
X1693Y861*
X1696Y867*
X1702Y871*
X1711*
X1718Y867*
D02*
D18*
X2697Y4432D02*
Y4394D01*
X2715*
X2722Y4397*
X2725Y4400*
X2728Y4407*
Y4419*
X2725Y4425*
X2722Y4428*
X2715Y4432*
X2697*
X2753D02*
X2765D01*
X2759D02*
Y4394D01*
X2753Y4400*
X2797Y4422D02*
X2800Y4416D01*
X2806Y4413*
X2812*
X2818Y4416*
X2822Y4422*
X2818Y4428*
X2812Y4432*
X2806*
X2800Y4428*
X2797Y4422*
Y4413*
X2800Y4403*
X2806Y4397*
X2812Y4394*
X2803Y4369D02*
Y4113D01*
X2690*
Y4369*
X2803*
X3527Y4363D02*
X3489D01*
Y4344*
X3493Y4338*
X3496Y4335*
X3502Y4332*
X3514*
X3521Y4335*
X3524Y4338*
X3527Y4344*
Y4363*
Y4307D02*
Y4294D01*
Y4301D02*
X3489D01*
X3496Y4307*
X3524Y4263D02*
X3527Y4257D01*
Y4248*
X3524Y4241*
X3518Y4238*
X3514*
X3508Y4241*
X3505Y4248*
Y4263*
X3489*
Y4238*
X3636Y1262D02*
Y1300D01*
X3614*
X3608Y1296*
X3605Y1290*
X3608Y1284*
X3614Y1281*
X3636*
X3614D02*
X3605Y1262D01*
X3561D02*
X3586D01*
X3564Y1284*
X3561Y1290*
X3564Y1296*
X3571Y1300*
X3580*
X3586Y1296*
X3533Y1265D02*
X3527Y1262D01*
X3521*
X3514Y1265*
X3511Y1271*
Y1290*
X3514Y1296*
X3521Y1300*
X3527*
X3533Y1296*
X3536Y1290*
Y1271*
X3533Y1265*
X3514Y1296*
X3693Y4416D02*
Y4160D01*
X3580*
Y4416*
X3693*
X4530Y757D02*
X4527Y760D01*
X4520Y763*
X4511*
X4505Y760*
X4502Y757*
X4499Y751*
Y738*
X4502Y732*
X4505Y729*
X4511Y726*
X4520*
X4527Y729*
X4530Y732*
X4549Y760D02*
X4555Y763D01*
X4564*
X4570Y760*
X4574Y754*
Y751*
X4570Y744*
X4564Y741*
X4549*
Y726*
X4574*
X4522Y218D02*
X4525Y221D01*
X4529Y227*
Y236*
X4525Y243*
X4522Y246*
X4516Y249*
X4504*
X4497Y246*
X4494Y243*
X4491Y236*
Y227*
X4494Y221*
X4497Y218*
X4529Y183D02*
X4491D01*
X4516Y199*
Y174*
X4652Y214D02*
X4655Y217D01*
X4658Y223*
Y232*
X4655Y239*
X4652Y242*
X4646Y245*
X4633*
X4627Y242*
X4624Y239*
X4621Y232*
Y223*
X4624Y217*
X4627Y214*
X4649Y195D02*
X4643Y192D01*
X4640Y185*
Y179*
X4643Y173*
X4649Y170*
X4655Y173*
X4658Y179*
Y185*
X4655Y192*
X4649Y195*
X4640*
X4630Y192*
X4624Y185*
X4621Y179*
X4697Y845D02*
Y882D01*
X4675*
X4669Y879*
X4666Y873*
X4669Y867*
X4675Y864*
X4697*
X4675D02*
X4666Y845D01*
X4647Y848D02*
X4641Y845D01*
X4632*
X4625Y848*
X4622Y854*
Y857*
X4625Y864*
X4632Y867*
X4647*
Y882*
X4622*
X4699Y951D02*
Y989D01*
X4677*
X4671Y985*
X4668Y979*
X4671Y973*
X4677Y970*
X4699*
X4677D02*
X4668Y951D01*
X4649Y960D02*
X4646Y967D01*
X4640Y970*
X4634*
X4627Y967*
X4624Y960*
X4627Y954*
X4634Y951*
X4640*
X4646Y954*
X4649Y960*
Y970*
X4646Y979*
X4640Y985*
X4634Y989*
X5211Y1199D02*
Y1237D01*
X5189*
X5183Y1233*
X5180Y1227*
X5183Y1221*
X5189Y1218*
X5211*
X5189D02*
X5180Y1199D01*
X5155D02*
X5142D01*
X5149D02*
Y1237D01*
X5155Y1230*
X5086Y1199D02*
X5111D01*
X5089Y1221*
X5086Y1227*
X5089Y1233*
X5096Y1237*
X5105*
X5111Y1233*
X5324Y796D02*
X5286D01*
Y774*
X5289Y768*
X5296Y765*
X5302Y768*
X5305Y774*
Y796*
Y774D02*
X5324Y765D01*
X5305Y737D02*
Y730D01*
X5302Y724*
X5296Y721*
X5289Y724*
X5286Y730*
Y737*
X5289Y743*
X5296Y746*
X5302Y743*
X5305Y737*
X5308Y743*
X5314Y746*
X5321Y743*
X5324Y737*
Y730*
X5321Y724*
X5314Y721*
X5308Y724*
X5305Y730*
X5373Y1538D02*
Y1575D01*
X5351*
X5344Y1572*
X5341Y1566*
X5344Y1560*
X5351Y1556*
X5373*
X5351D02*
X5341Y1538D01*
X5316D02*
X5304D01*
X5310D02*
Y1575D01*
X5316Y1569*
X5266Y1538D02*
X5254D01*
X5260D02*
Y1575D01*
X5266Y1569*
X5377Y1652D02*
Y1689D01*
X5355*
X5348Y1686*
X5345Y1680*
X5348Y1674*
X5355Y1671*
X5377*
X5355D02*
X5345Y1652D01*
X5320D02*
X5308D01*
X5314D02*
Y1689D01*
X5320Y1683*
X5273Y1655D02*
X5267Y1652D01*
X5261*
X5255Y1655*
X5252Y1661*
Y1680*
X5255Y1686*
X5261Y1689*
X5267*
X5273Y1686*
X5277Y1680*
Y1661*
X5273Y1655*
X5255Y1686*
X5396Y1276D02*
X5400Y1273D01*
X5406Y1270*
X5415*
X5421Y1273*
X5425Y1276*
X5428Y1282*
Y1295*
X5425Y1301*
X5421Y1304*
X5415Y1307*
X5406*
X5400Y1304*
X5396Y1301*
X5353Y1270D02*
X5378D01*
X5356Y1292*
X5353Y1298*
X5356Y1304*
X5362Y1307*
X5371*
X5378Y1304*
X5505Y705D02*
X5467D01*
Y684*
X5471Y677*
X5477Y674*
X5483Y677*
X5486Y684*
Y705*
Y684D02*
X5505Y674D01*
Y646D02*
X5502Y640D01*
X5496Y634*
X5486Y630*
X5477*
X5471Y634*
X5467Y640*
Y646*
X5471Y652*
X5477Y655*
X5483Y652*
X5486Y646*
Y640*
X5483Y634*
X5477Y630*
X5623Y709D02*
X5586D01*
Y688*
X5589Y681*
X5595Y678*
X5601Y681*
X5604Y688*
Y709*
Y688D02*
X5623Y678D01*
Y659D02*
X5586Y634D01*
Y659*
X6139Y3164D02*
X6136Y3161D01*
X6133Y3155*
Y3146*
X6136Y3139*
X6139Y3136*
X6145Y3133*
X6158*
X6164Y3136*
X6167Y3139*
X6170Y3146*
Y3155*
X6167Y3161*
X6164Y3164*
X6136Y3186D02*
X6133Y3192D01*
Y3199*
X6136Y3205*
X6142Y3208*
X6148Y3205*
X6151Y3199*
Y3192*
Y3199D02*
X6155Y3205D01*
X6161Y3208*
X6167Y3205*
X6170Y3199*
Y3192*
X6167Y3186*
X6136Y3236D02*
X6133Y3242D01*
Y3249*
X6136Y3255*
X6142Y3258*
X6161*
X6167Y3255*
X6170Y3249*
Y3242*
X6167Y3236*
X6161Y3233*
X6142*
X6136Y3236*
X6167Y3255*
X6139Y3893D02*
X6136Y3890D01*
X6133Y3883*
Y3874*
X6136Y3868*
X6139Y3865*
X6145Y3861*
X6158*
X6164Y3865*
X6167Y3868*
X6170Y3874*
Y3883*
X6167Y3890*
X6164Y3893*
X6133Y3936D02*
Y3911D01*
X6155Y3933*
X6161Y3936*
X6167Y3933*
X6170Y3927*
Y3918*
X6167Y3911*
X6133Y3971D02*
X6136Y3977D01*
X6142Y3983*
X6151Y3986*
X6161*
X6167Y3983*
X6170Y3977*
Y3971*
X6167Y3965*
X6161Y3961*
X6155Y3965*
X6151Y3971*
Y3977*
X6155Y3983*
X6161Y3986*
D02*
D19*
X3631Y1179D02*
Y1232D01*
X3508*
Y1179*
X3631*
X4484Y278D02*
X4537D01*
Y401*
X4484*
Y278*
X4606Y771D02*
Y718D01*
X4729*
Y771*
X4606*
X4614Y278D02*
X4667D01*
Y401*
X4614*
Y278*
X4720Y898D02*
Y828D01*
X4856*
Y898*
X4720*
X4724Y1004D02*
Y934D01*
X4860*
Y1004*
X4724*
X5218Y1261D02*
Y1331D01*
X5082*
Y1261*
X5218*
Y1517D02*
Y1587D01*
X5082*
Y1517*
X5218*
Y1635D02*
Y1705D01*
X5082*
Y1635*
X5218*
X5342Y726D02*
X5412D01*
Y862*
X5342*
Y726*
X5428Y1329D02*
Y1382D01*
X5305*
Y1329*
X5428*
X5450Y726D02*
X5520D01*
Y862*
X5450*
Y726*
X5568D02*
X5638D01*
Y862*
X5568*
Y726*
X6078Y3153D02*
Y3238D01*
X5895*
Y3153*
X6078*
Y3881D02*
Y3966D01*
X5895*
Y3881*
X6078*
X0Y0D02*
M02*
