%FSLAX23Y23*%
%MOIN*%
G04 EasyPC Gerber Version 14.0.2 Build 2922 *
%ADD121O,0.06600X0.11600*%
%ADD125R,0.07588X0.09852*%
%ADD109R,0.06600X0.06600*%
%ADD107R,0.07600X0.07600*%
%ADD104R,0.24222X0.24222*%
%ADD16C,0.00787*%
%ADD105C,0.05400*%
%ADD119O,0.11600X0.06600*%
%ADD124R,0.09852X0.07588*%
%ADD126C,0.06143*%
%ADD136C,0.06200*%
%ADD106C,0.06600*%
%ADD135C,0.09200*%
%AMT110*0 Octagon Pad at angle 0*4,1,8,-0.01366,-0.03300,0.01366,-0.03300,0.03300,-0.01366,0.03300,0.01366,0.01366,0.03300,-0.01366,0.03300,-0.03300,0.01366,-0.03300,-0.01366,-0.01366,-0.03300,0*%
%ADD110T110*%
%AMT108*0 Octagon Pad at angle 0*4,1,8,-0.01573,-0.03800,0.01573,-0.03800,0.03800,-0.01573,0.03800,0.01573,0.01573,0.03800,-0.01573,0.03800,-0.03800,0.01573,-0.03800,-0.01573,-0.01573,-0.03800,0*%
%ADD108T108*%
%ADD127C,0.16600*%
X0Y0D02*
D02*
D16*
X5278Y346D02*
X5274Y340D01*
X5268Y337*
X5256*
X5249Y340*
X5246Y346*
X5249Y353*
X5256Y356*
X5268*
X5274Y359*
X5278Y365*
X5274Y371*
X5268Y374*
X5256*
X5249Y371*
X5246Y365*
X5218Y337D02*
X5206D01*
X5212D02*
Y374D01*
X5218D02*
X5206D01*
X5178Y337D02*
Y374D01*
X5159*
X5153Y371*
X5149Y368*
X5146Y362*
Y349*
X5149Y343*
X5153Y340*
X5159Y337*
X5178*
X5128D02*
Y374D01*
X5096*
X5103Y356D02*
X5128D01*
Y337D02*
X5096D01*
X5003D02*
X5028D01*
X5006Y359*
X5003Y365*
X5006Y371*
X5012Y374*
X5021*
X5028Y371*
D02*
D104*
X790Y465D03*
Y4008D03*
X1378Y753D03*
Y3553D03*
X4078Y753D03*
Y3553D03*
X4727Y464D03*
Y4008D03*
D02*
D105*
X265Y1815D03*
X553Y1303D03*
X2040Y2378D03*
X2103Y1728D03*
X2315Y1628D03*
X3253Y1127D03*
X3503Y1178D03*
X3553Y1853D03*
D02*
D106*
X2503Y778D03*
Y877D03*
X2603Y778D03*
Y877D03*
X2703Y778D03*
Y877D03*
X2803Y778D03*
Y877D03*
X2903Y778D03*
Y877D03*
X3003Y778D03*
Y877D03*
X3103Y778D03*
Y877D03*
X3203Y778D03*
Y877D03*
X3303Y778D03*
Y877D03*
X3403Y778D03*
Y877D03*
X3503Y778D03*
Y877D03*
X3603Y778D03*
Y877D03*
X3703Y778D03*
Y877D03*
X3803Y778D03*
Y877D03*
D02*
D107*
X1940Y1340D03*
X5040Y3753D03*
D02*
D108*
X2040Y1340D03*
X2140D03*
X2240D03*
X5140Y3753D03*
D02*
D109*
X2953Y490D03*
X5040Y3978D03*
D02*
D110*
X2653Y390D03*
Y490D03*
X2753Y390D03*
Y490D03*
X2853Y390D03*
Y490D03*
X2953Y390D03*
X5040Y4078D03*
X5140Y3978D03*
Y4078D03*
D02*
D119*
X1815Y2828D03*
Y2928D03*
Y3028D03*
Y3128D03*
Y3303D03*
Y3403D03*
Y3503D03*
Y3603D03*
X2115Y2828D03*
Y2928D03*
Y3028D03*
Y3128D03*
Y3303D03*
Y3403D03*
Y3503D03*
Y3603D03*
X3153Y2178D03*
Y2278D03*
Y2378D03*
Y2478D03*
Y2590D03*
Y2690D03*
Y2790D03*
Y2890D03*
X3453Y2178D03*
Y2278D03*
Y2378D03*
Y2478D03*
Y2590D03*
Y2690D03*
Y2790D03*
Y2890D03*
D02*
D121*
X3965Y1690D03*
Y1990D03*
X4065Y1690D03*
Y1990D03*
X4165Y1690D03*
Y1990D03*
X4265Y1690D03*
Y1990D03*
D02*
D124*
X4478Y1819D03*
Y1986D03*
D02*
D125*
X4982Y3528D03*
X5007Y4228D03*
X5148Y3528D03*
X5173Y4228D03*
D02*
D126*
X4763Y1803D03*
Y1903D03*
Y2003D03*
Y2103D03*
Y2763D03*
Y2863D03*
Y2963D03*
Y3063D03*
X4863Y1753D03*
Y1853D03*
Y1953D03*
Y2053D03*
Y2713D03*
Y2813D03*
Y2913D03*
Y3013D03*
D02*
D127*
X5113Y1703D03*
Y2153D03*
Y2663D03*
Y3113D03*
D02*
D135*
X415Y765D03*
X428Y1465D03*
X915Y765D03*
X928Y1465D03*
D02*
D136*
X1390Y1240D03*
X1590Y3228D03*
Y3653D03*
X1678Y1090D03*
X1703Y2303D03*
X1903Y953D03*
X2240Y4328D03*
X2490Y1165D03*
X2590Y2765D03*
X2603Y1415D03*
X2765Y2753D03*
X2878Y3028D03*
X2940Y1202D03*
X2965Y3528D03*
X3053Y2090D03*
X3140Y4328D03*
X3153Y1603D03*
X3203Y3428D03*
X3315Y1528D03*
Y3228D03*
X3353Y3828D03*
X3453Y1690D03*
X3615Y2028D03*
Y2890D03*
X3628Y1378D03*
X3790Y1965D03*
X3853Y3315D03*
X3965Y2490D03*
X4103Y3065D03*
X4353Y2803D03*
X4978Y2465D03*
Y2853D03*
X0Y0D02*
M02*
