%FSLAX23Y23*%
%MOIN*%
G04 EasyPC Gerber Version 14.0.2 Build 2922 *
%ADD11C,0.00500*%
%ADD139C,0.10000*%
X0Y0D02*
D02*
D11*
X387Y1893D02*
X393Y1890D01*
X396Y1884*
X393Y1878*
X387Y1874*
X365*
Y1912*
X387*
X393Y1909*
X396Y1903*
X393Y1896*
X387Y1893*
X365*
X515Y824D02*
Y862D01*
Y843D02*
X546D01*
Y824D02*
Y862D01*
X527Y1524D02*
Y1562D01*
Y1543D02*
X559D01*
Y1524D02*
Y1562D01*
X674Y1381D02*
X681Y1378D01*
X684Y1371*
X681Y1365*
X674Y1362*
X653*
Y1399*
X674*
X681Y1396*
X684Y1390*
X681Y1384*
X674Y1381*
X653*
X890Y524D02*
X906Y562D01*
X921Y524*
X896Y540D02*
X915D01*
X890Y4068D02*
X906Y4105D01*
X921Y4068*
X896Y4083D02*
X915D01*
X1015Y824D02*
Y862D01*
Y843D02*
X1046D01*
Y824D02*
Y862D01*
X1028Y1524D02*
Y1562D01*
Y1543D02*
X1059D01*
Y1524D02*
Y1562D01*
X1478Y812D02*
X1493Y849D01*
X1509Y812*
X1484Y828D02*
X1503D01*
X1478Y3612D02*
X1493Y3649D01*
X1509Y3612*
X1484Y3628D02*
X1503D01*
X1490Y1299D02*
Y1337D01*
X1521*
X1515Y1318D02*
X1490D01*
Y1299D02*
X1521D01*
X1690Y3287D02*
Y3324D01*
X1721*
X1715Y3306D02*
X1690D01*
Y3287D02*
X1721D01*
X1690Y3712D02*
Y3749D01*
X1721*
X1715Y3731D02*
X1690D01*
Y3712D02*
X1721D01*
X1778Y1149D02*
Y1187D01*
X1809*
X1803Y1168D02*
X1778D01*
Y1149D02*
X1809D01*
X1803Y2362D02*
Y2399D01*
X1834*
X1828Y2381D02*
X1803D01*
Y2362D02*
X1834D01*
X1915Y2887D02*
Y2924D01*
X1946*
X1940Y2906D02*
X1915D01*
Y2887D02*
X1946D01*
X1915Y2987D02*
Y3024D01*
X1946*
X1940Y3006D02*
X1915D01*
Y2987D02*
X1946D01*
X1915Y3087D02*
Y3124D01*
X1946*
X1940Y3106D02*
X1915D01*
Y3087D02*
X1946D01*
X1915Y3187D02*
Y3224D01*
X1946*
X1940Y3206D02*
X1915D01*
Y3187D02*
X1946D01*
X1915Y3362D02*
Y3399D01*
X1946*
X1940Y3381D02*
X1915D01*
Y3362D02*
X1946D01*
X1915Y3462D02*
Y3499D01*
X1946*
X1940Y3481D02*
X1915D01*
Y3462D02*
X1946D01*
X1915Y3562D02*
Y3599D01*
X1946*
X1940Y3581D02*
X1915D01*
Y3562D02*
X1946D01*
X1915Y3662D02*
Y3699D01*
X1946*
X1940Y3681D02*
X1915D01*
Y3662D02*
X1946D01*
X2003Y1012D02*
Y1049D01*
X2034*
X2028Y1031D02*
X2003D01*
Y1012D02*
X2034D01*
X2040Y1399D02*
Y1437D01*
X2059*
X2065Y1434*
X2068Y1431*
X2071Y1424*
Y1412*
X2068Y1406*
X2065Y1403*
X2059Y1399*
X2040*
X2140D02*
Y1437D01*
X2159*
X2165Y1434*
X2168Y1431*
X2171Y1424*
Y1412*
X2168Y1406*
X2165Y1403*
X2159Y1399*
X2140*
X2162Y2456D02*
X2168Y2453D01*
X2171Y2446*
X2168Y2440*
X2162Y2437*
X2140*
Y2474*
X2162*
X2168Y2471*
X2171Y2465*
X2168Y2459*
X2162Y2456*
X2140*
X2224Y1806D02*
X2231Y1803D01*
X2234Y1796*
X2231Y1790*
X2224Y1787*
X2203*
Y1824*
X2224*
X2231Y1821*
X2234Y1815*
X2231Y1809*
X2224Y1806*
X2203*
X2215Y2887D02*
Y2924D01*
X2246*
X2240Y2906D02*
X2215D01*
Y2887D02*
X2246D01*
X2215Y2987D02*
Y3024D01*
X2246*
X2240Y3006D02*
X2215D01*
Y2987D02*
X2246D01*
X2215Y3087D02*
Y3124D01*
X2246*
X2240Y3106D02*
X2215D01*
Y3087D02*
X2246D01*
X2215Y3187D02*
Y3224D01*
X2246*
X2240Y3206D02*
X2215D01*
Y3187D02*
X2246D01*
X2215Y3362D02*
Y3399D01*
X2246*
X2240Y3381D02*
X2215D01*
Y3362D02*
X2246D01*
X2215Y3462D02*
Y3499D01*
X2246*
X2240Y3481D02*
X2215D01*
Y3462D02*
X2246D01*
X2215Y3562D02*
Y3599D01*
X2246*
X2240Y3581D02*
X2215D01*
Y3562D02*
X2246D01*
X2215Y3662D02*
Y3699D01*
X2246*
X2240Y3681D02*
X2215D01*
Y3662D02*
X2246D01*
X2240Y1399D02*
Y1437D01*
X2259*
X2265Y1434*
X2268Y1431*
X2271Y1424*
Y1412*
X2268Y1406*
X2265Y1403*
X2259Y1399*
X2240*
X2340D02*
Y1437D01*
X2359*
X2365Y1434*
X2368Y1431*
X2371Y1424*
Y1412*
X2368Y1406*
X2365Y1403*
X2359Y1399*
X2340*
Y4387D02*
Y4424D01*
X2371*
X2365Y4406D02*
X2340D01*
Y4387D02*
X2371D01*
X2437Y1706D02*
X2443Y1703D01*
X2446Y1696*
X2443Y1690*
X2437Y1687*
X2415*
Y1724*
X2437*
X2443Y1721*
X2446Y1715*
X2443Y1709*
X2437Y1706*
X2415*
X2590Y1224D02*
Y1262D01*
X2621*
X2615Y1243D02*
X2590D01*
Y1224D02*
X2621D01*
X2634Y843D02*
X2631Y840D01*
X2624Y837*
X2615*
X2609Y840*
X2606Y843*
X2603Y849*
Y862*
X2606Y868*
X2609Y871*
X2615Y874*
X2624*
X2631Y871*
X2634Y868*
Y943D02*
X2631Y940D01*
X2624Y937*
X2615*
X2609Y940*
X2606Y943*
X2603Y949*
Y962*
X2606Y968*
X2609Y971*
X2615Y974*
X2624*
X2631Y971*
X2634Y968*
X2690Y2824D02*
Y2862D01*
X2721*
X2715Y2843D02*
X2690D01*
Y2824D02*
X2721D01*
X2734Y843D02*
X2731Y840D01*
X2724Y837*
X2715*
X2709Y840*
X2706Y843*
X2703Y849*
Y862*
X2706Y868*
X2709Y871*
X2715Y874*
X2724*
X2731Y871*
X2734Y868*
Y943D02*
X2731Y940D01*
X2724Y937*
X2715*
X2709Y940*
X2706Y943*
X2703Y949*
Y962*
X2706Y968*
X2709Y971*
X2715Y974*
X2724*
X2731Y971*
X2734Y968*
X2703Y1474D02*
Y1512D01*
X2734*
X2728Y1493D02*
X2703D01*
Y1474D02*
X2734D01*
X2753Y449D02*
Y487D01*
X2771*
X2778Y484*
X2781Y481*
X2784Y474*
Y462*
X2781Y456*
X2778Y453*
X2771Y449*
X2753*
Y549D02*
Y587D01*
X2771*
X2778Y584*
X2781Y581*
X2784Y574*
Y562*
X2781Y556*
X2778Y553*
X2771Y549*
X2753*
X2834Y843D02*
X2831Y840D01*
X2824Y837*
X2815*
X2809Y840*
X2806Y843*
X2803Y849*
Y862*
X2806Y868*
X2809Y871*
X2815Y874*
X2824*
X2831Y871*
X2834Y868*
Y943D02*
X2831Y940D01*
X2824Y937*
X2815*
X2809Y940*
X2806Y943*
X2803Y949*
Y962*
X2806Y968*
X2809Y971*
X2815Y974*
X2824*
X2831Y971*
X2834Y968*
X2853Y449D02*
Y487D01*
X2871*
X2878Y484*
X2881Y481*
X2884Y474*
Y462*
X2881Y456*
X2878Y453*
X2871Y449*
X2853*
Y549D02*
Y587D01*
X2871*
X2878Y584*
X2881Y581*
X2884Y574*
Y562*
X2881Y556*
X2878Y553*
X2871Y549*
X2853*
X2865Y2812D02*
Y2849D01*
X2896*
X2890Y2831D02*
X2865D01*
Y2812D02*
X2896D01*
X2934Y843D02*
X2931Y840D01*
X2924Y837*
X2915*
X2909Y840*
X2906Y843*
X2903Y849*
Y862*
X2906Y868*
X2909Y871*
X2915Y874*
X2924*
X2931Y871*
X2934Y868*
Y943D02*
X2931Y940D01*
X2924Y937*
X2915*
X2909Y940*
X2906Y943*
X2903Y949*
Y962*
X2906Y968*
X2909Y971*
X2915Y974*
X2924*
X2931Y971*
X2934Y968*
X2953Y449D02*
Y487D01*
X2971*
X2978Y484*
X2981Y481*
X2984Y474*
Y462*
X2981Y456*
X2978Y453*
X2971Y449*
X2953*
Y549D02*
Y587D01*
X2971*
X2978Y584*
X2981Y581*
X2984Y574*
Y562*
X2981Y556*
X2978Y553*
X2971Y549*
X2953*
X2978Y3087D02*
Y3124D01*
X3009*
X3003Y3106D02*
X2978D01*
Y3087D02*
X3009D01*
X3034Y843D02*
X3031Y840D01*
X3024Y837*
X3015*
X3009Y840*
X3006Y843*
X3003Y849*
Y862*
X3006Y868*
X3009Y871*
X3015Y874*
X3024*
X3031Y871*
X3034Y868*
Y943D02*
X3031Y940D01*
X3024Y937*
X3015*
X3009Y940*
X3006Y943*
X3003Y949*
Y962*
X3006Y968*
X3009Y971*
X3015Y974*
X3024*
X3031Y971*
X3034Y968*
X3040Y1262D02*
Y1299D01*
X3071*
X3065Y1281D02*
X3040D01*
Y1262D02*
X3071D01*
X3053Y449D02*
Y487D01*
X3071*
X3078Y484*
X3081Y481*
X3084Y474*
Y462*
X3081Y456*
X3078Y453*
X3071Y449*
X3053*
Y549D02*
Y587D01*
X3071*
X3078Y584*
X3081Y581*
X3084Y574*
Y562*
X3081Y556*
X3078Y553*
X3071Y549*
X3053*
X3065Y3587D02*
Y3624D01*
X3096*
X3090Y3606D02*
X3065D01*
Y3587D02*
X3096D01*
X3134Y843D02*
X3131Y840D01*
X3124Y837*
X3115*
X3109Y840*
X3106Y843*
X3103Y849*
Y862*
X3106Y868*
X3109Y871*
X3115Y874*
X3124*
X3131Y871*
X3134Y868*
Y943D02*
X3131Y940D01*
X3124Y937*
X3115*
X3109Y940*
X3106Y943*
X3103Y949*
Y962*
X3106Y968*
X3109Y971*
X3115Y974*
X3124*
X3131Y971*
X3134Y968*
X3153Y2149D02*
Y2187D01*
X3184*
X3178Y2168D02*
X3153D01*
Y2149D02*
X3184D01*
X3234Y843D02*
X3231Y840D01*
X3224Y837*
X3215*
X3209Y840*
X3206Y843*
X3203Y849*
Y862*
X3206Y868*
X3209Y871*
X3215Y874*
X3224*
X3231Y871*
X3234Y868*
Y943D02*
X3231Y940D01*
X3224Y937*
X3215*
X3209Y940*
X3206Y943*
X3203Y949*
Y962*
X3206Y968*
X3209Y971*
X3215Y974*
X3224*
X3231Y971*
X3234Y968*
X3240Y4387D02*
Y4424D01*
X3271*
X3265Y4406D02*
X3240D01*
Y4387D02*
X3271D01*
X3253Y1662D02*
Y1699D01*
X3284*
X3278Y1681D02*
X3253D01*
Y1662D02*
X3284D01*
X3253Y2237D02*
Y2274D01*
X3284*
X3278Y2256D02*
X3253D01*
Y2237D02*
X3284D01*
X3253Y2337D02*
Y2374D01*
X3284*
X3278Y2356D02*
X3253D01*
Y2337D02*
X3284D01*
X3253Y2437D02*
Y2474D01*
X3284*
X3278Y2456D02*
X3253D01*
Y2437D02*
X3284D01*
X3253Y2537D02*
Y2574D01*
X3284*
X3278Y2556D02*
X3253D01*
Y2537D02*
X3284D01*
X3253Y2649D02*
Y2687D01*
X3284*
X3278Y2668D02*
X3253D01*
Y2649D02*
X3284D01*
X3253Y2749D02*
Y2787D01*
X3284*
X3278Y2768D02*
X3253D01*
Y2749D02*
X3284D01*
X3253Y2849D02*
Y2887D01*
X3284*
X3278Y2868D02*
X3253D01*
Y2849D02*
X3284D01*
X3253Y2949D02*
Y2987D01*
X3284*
X3278Y2968D02*
X3253D01*
Y2949D02*
X3284D01*
X3334Y843D02*
X3331Y840D01*
X3324Y837*
X3315*
X3309Y840*
X3306Y843*
X3303Y849*
Y862*
X3306Y868*
X3309Y871*
X3315Y874*
X3324*
X3331Y871*
X3334Y868*
Y943D02*
X3331Y940D01*
X3324Y937*
X3315*
X3309Y940*
X3306Y943*
X3303Y949*
Y962*
X3306Y968*
X3309Y971*
X3315Y974*
X3324*
X3331Y971*
X3334Y968*
X3303Y3487D02*
Y3524D01*
X3334*
X3328Y3506D02*
X3303D01*
Y3487D02*
X3334D01*
X3374Y1206D02*
X3381Y1202D01*
X3384Y1196*
X3381Y1190*
X3374Y1187*
X3353*
Y1224*
X3374*
X3381Y1221*
X3384Y1215*
X3381Y1209*
X3374Y1206*
X3353*
X3434Y843D02*
X3431Y840D01*
X3424Y837*
X3415*
X3409Y840*
X3406Y843*
X3403Y849*
Y862*
X3406Y868*
X3409Y871*
X3415Y874*
X3424*
X3431Y871*
X3434Y868*
Y943D02*
X3431Y940D01*
X3424Y937*
X3415*
X3409Y940*
X3406Y943*
X3403Y949*
Y962*
X3406Y968*
X3409Y971*
X3415Y974*
X3424*
X3431Y971*
X3434Y968*
X3415Y1587D02*
Y1624D01*
X3446*
X3440Y1606D02*
X3415D01*
Y1587D02*
X3446D01*
X3415Y3287D02*
Y3324D01*
X3446*
X3440Y3306D02*
X3415D01*
Y3287D02*
X3446D01*
X3453Y3887D02*
Y3924D01*
X3484*
X3478Y3906D02*
X3453D01*
Y3887D02*
X3484D01*
X3534Y843D02*
X3531Y840D01*
X3524Y837*
X3515*
X3509Y840*
X3506Y843*
X3503Y849*
Y862*
X3506Y868*
X3509Y871*
X3515Y874*
X3524*
X3531Y871*
X3534Y868*
Y943D02*
X3531Y940D01*
X3524Y937*
X3515*
X3509Y940*
X3506Y943*
X3503Y949*
Y962*
X3506Y968*
X3509Y971*
X3515Y974*
X3524*
X3531Y971*
X3534Y968*
X3553Y1749D02*
Y1787D01*
X3584*
X3578Y1768D02*
X3553D01*
Y1749D02*
X3584D01*
X3553Y2237D02*
Y2274D01*
X3584*
X3578Y2256D02*
X3553D01*
Y2237D02*
X3584D01*
X3553Y2337D02*
Y2374D01*
X3584*
X3578Y2356D02*
X3553D01*
Y2337D02*
X3584D01*
X3553Y2437D02*
Y2474D01*
X3584*
X3578Y2456D02*
X3553D01*
Y2437D02*
X3584D01*
X3553Y2537D02*
Y2574D01*
X3584*
X3578Y2556D02*
X3553D01*
Y2537D02*
X3584D01*
X3553Y2649D02*
Y2687D01*
X3584*
X3578Y2668D02*
X3553D01*
Y2649D02*
X3584D01*
X3553Y2749D02*
Y2787D01*
X3584*
X3578Y2768D02*
X3553D01*
Y2749D02*
X3584D01*
X3553Y2849D02*
Y2887D01*
X3584*
X3578Y2868D02*
X3553D01*
Y2849D02*
X3584D01*
X3553Y2949D02*
Y2987D01*
X3584*
X3578Y2968D02*
X3553D01*
Y2949D02*
X3584D01*
X3634Y843D02*
X3631Y840D01*
X3624Y837*
X3615*
X3609Y840*
X3606Y843*
X3603Y849*
Y862*
X3606Y868*
X3609Y871*
X3615Y874*
X3624*
X3631Y871*
X3634Y868*
Y943D02*
X3631Y940D01*
X3624Y937*
X3615*
X3609Y940*
X3606Y943*
X3603Y949*
Y962*
X3606Y968*
X3609Y971*
X3615Y974*
X3624*
X3631Y971*
X3634Y968*
X3624Y1256D02*
X3631Y1252D01*
X3634Y1246*
X3631Y1240*
X3624Y1237*
X3603*
Y1274*
X3624*
X3631Y1271*
X3634Y1265*
X3631Y1259*
X3624Y1256*
X3603*
X3674Y1931D02*
X3681Y1928D01*
X3684Y1921*
X3681Y1915*
X3674Y1912*
X3653*
Y1949*
X3674*
X3681Y1946*
X3684Y1940*
X3681Y1934*
X3674Y1931*
X3653*
X3734Y843D02*
X3731Y840D01*
X3724Y837*
X3715*
X3709Y840*
X3706Y843*
X3703Y849*
Y862*
X3706Y868*
X3709Y871*
X3715Y874*
X3724*
X3731Y871*
X3734Y868*
Y943D02*
X3731Y940D01*
X3724Y937*
X3715*
X3709Y940*
X3706Y943*
X3703Y949*
Y962*
X3706Y968*
X3709Y971*
X3715Y974*
X3724*
X3731Y971*
X3734Y968*
X3715Y2087D02*
Y2124D01*
X3746*
X3740Y2106D02*
X3715D01*
Y2087D02*
X3746D01*
X3715Y2949D02*
Y2987D01*
X3746*
X3740Y2968D02*
X3715D01*
Y2949D02*
X3746D01*
X3728Y1437D02*
Y1474D01*
X3759*
X3753Y1456D02*
X3728D01*
Y1437D02*
X3759D01*
X3834Y843D02*
X3831Y840D01*
X3824Y837*
X3815*
X3809Y840*
X3806Y843*
X3803Y849*
Y862*
X3806Y868*
X3809Y871*
X3815Y874*
X3824*
X3831Y871*
X3834Y868*
Y943D02*
X3831Y940D01*
X3824Y937*
X3815*
X3809Y940*
X3806Y943*
X3803Y949*
Y962*
X3806Y968*
X3809Y971*
X3815Y974*
X3824*
X3831Y971*
X3834Y968*
X3890Y2024D02*
Y2062D01*
X3921*
X3915Y2043D02*
X3890D01*
Y2024D02*
X3921D01*
X3934Y843D02*
X3931Y840D01*
X3924Y837*
X3915*
X3909Y840*
X3906Y843*
X3903Y849*
Y862*
X3906Y868*
X3909Y871*
X3915Y874*
X3924*
X3931Y871*
X3934Y868*
Y943D02*
X3931Y940D01*
X3924Y937*
X3915*
X3909Y940*
X3906Y943*
X3903Y949*
Y962*
X3906Y968*
X3909Y971*
X3915Y974*
X3924*
X3931Y971*
X3934Y968*
X3953Y3374D02*
Y3412D01*
X3984*
X3978Y3393D02*
X3953D01*
Y3374D02*
X3984D01*
X4065Y1749D02*
Y1787D01*
X4096*
X4090Y1768D02*
X4065D01*
Y1749D02*
X4096D01*
X4065Y2049D02*
Y2087D01*
X4096*
X4090Y2068D02*
X4065D01*
Y2049D02*
X4096D01*
X4065Y2549D02*
Y2587D01*
X4096*
X4090Y2568D02*
X4065D01*
Y2549D02*
X4096D01*
X4165Y1749D02*
Y1787D01*
X4196*
X4190Y1768D02*
X4165D01*
Y1749D02*
X4196D01*
X4165Y2049D02*
Y2087D01*
X4196*
X4190Y2068D02*
X4165D01*
Y2049D02*
X4196D01*
X4178Y812D02*
X4193Y849D01*
X4209Y812*
X4184Y828D02*
X4203D01*
X4178Y3612D02*
X4193Y3649D01*
X4209Y3612*
X4184Y3628D02*
X4203D01*
Y3124D02*
Y3162D01*
X4234*
X4228Y3143D02*
X4203D01*
Y3124D02*
X4234D01*
X4265Y1749D02*
Y1787D01*
X4296*
X4290Y1768D02*
X4265D01*
Y1749D02*
X4296D01*
X4265Y2049D02*
Y2087D01*
X4296*
X4290Y2068D02*
X4265D01*
Y2049D02*
X4296D01*
X4365Y1749D02*
Y1787D01*
X4396*
X4390Y1768D02*
X4365D01*
Y1749D02*
X4396D01*
X4365Y2049D02*
Y2087D01*
X4396*
X4390Y2068D02*
X4365D01*
Y2049D02*
X4396D01*
X4453Y2862D02*
Y2899D01*
X4484*
X4478Y2881D02*
X4453D01*
Y2862D02*
X4484D01*
X4827Y523D02*
X4843Y561D01*
X4858Y523*
X4833Y539D02*
X4852D01*
X4827Y4068D02*
X4843Y4105D01*
X4858Y4068*
X4833Y4083D02*
X4852D01*
X4863Y1862D02*
Y1899D01*
X4894*
X4888Y1881D02*
X4863D01*
Y1962D02*
Y1999D01*
X4894*
X4888Y1981D02*
X4863D01*
Y2062D02*
Y2099D01*
X4894*
X4888Y2081D02*
X4863D01*
Y2162D02*
Y2199D01*
X4894*
X4888Y2181D02*
X4863D01*
Y2822D02*
Y2859D01*
X4894*
X4888Y2841D02*
X4863D01*
Y2922D02*
Y2959D01*
X4894*
X4888Y2941D02*
X4863D01*
Y3022D02*
Y3059D01*
X4894*
X4888Y3041D02*
X4863D01*
Y3122D02*
Y3159D01*
X4894*
X4888Y3141D02*
X4863D01*
X4963Y1812D02*
Y1849D01*
X4994*
X4988Y1831D02*
X4963D01*
Y1912D02*
Y1949D01*
X4994*
X4988Y1931D02*
X4963D01*
Y2012D02*
Y2049D01*
X4994*
X4988Y2031D02*
X4963D01*
Y2112D02*
Y2149D01*
X4994*
X4988Y2131D02*
X4963D01*
Y2772D02*
Y2809D01*
X4994*
X4988Y2791D02*
X4963D01*
Y2872D02*
Y2909D01*
X4994*
X4988Y2891D02*
X4963D01*
Y2972D02*
Y3009D01*
X4994*
X4988Y2991D02*
X4963D01*
Y3072D02*
Y3109D01*
X4994*
X4988Y3091D02*
X4963D01*
X5078Y2524D02*
Y2562D01*
X5109*
X5103Y2543D02*
X5078D01*
Y2524D02*
X5109D01*
X5078Y2912D02*
Y2949D01*
X5109*
X5103Y2931D02*
X5078D01*
Y2912D02*
X5109D01*
X5140Y3812D02*
Y3849D01*
X5159*
X5165Y3846*
X5168Y3843*
X5171Y3837*
Y3824*
X5168Y3818*
X5165Y3815*
X5159Y3812*
X5140*
Y4037D02*
Y4074D01*
X5159*
X5165Y4071*
X5168Y4068*
X5171Y4062*
Y4049*
X5168Y4043*
X5165Y4040*
X5159Y4037*
X5140*
Y4137D02*
Y4174D01*
X5159*
X5165Y4171*
X5168Y4168*
X5171Y4162*
Y4149*
X5168Y4143*
X5165Y4140*
X5159Y4137*
X5140*
X5234Y1778D02*
X5244D01*
Y1774*
X5241Y1768*
X5238Y1765*
X5231Y1762*
X5225*
X5219Y1765*
X5216Y1768*
X5213Y1774*
Y1787*
X5216Y1793*
X5219Y1796*
X5225Y1799*
X5231*
X5238Y1796*
X5241Y1793*
X5244Y1787*
X5234Y2228D02*
X5244D01*
Y2224*
X5241Y2218*
X5238Y2215*
X5231Y2212*
X5225*
X5219Y2215*
X5216Y2218*
X5213Y2224*
Y2237*
X5216Y2243*
X5219Y2246*
X5225Y2249*
X5231*
X5238Y2246*
X5241Y2243*
X5244Y2237*
X5234Y2738D02*
X5244D01*
Y2734*
X5241Y2728*
X5238Y2725*
X5231Y2722*
X5225*
X5219Y2725*
X5216Y2728*
X5213Y2734*
Y2747*
X5216Y2753*
X5219Y2756*
X5225Y2759*
X5231*
X5238Y2756*
X5241Y2753*
X5244Y2747*
X5234Y3188D02*
X5244D01*
Y3184*
X5241Y3178*
X5238Y3175*
X5231Y3172*
X5225*
X5219Y3175*
X5216Y3178*
X5213Y3184*
Y3197*
X5216Y3203*
X5219Y3206*
X5225Y3209*
X5231*
X5238Y3206*
X5241Y3203*
X5244Y3197*
X5240Y3812D02*
Y3849D01*
X5259*
X5265Y3846*
X5268Y3843*
X5271Y3837*
Y3824*
X5268Y3818*
X5265Y3815*
X5259Y3812*
X5240*
Y4037D02*
Y4074D01*
X5259*
X5265Y4071*
X5268Y4068*
X5271Y4062*
Y4049*
X5268Y4043*
X5265Y4040*
X5259Y4037*
X5240*
Y4137D02*
Y4174D01*
X5259*
X5265Y4171*
X5268Y4168*
X5271Y4162*
Y4149*
X5268Y4143*
X5265Y4140*
X5259Y4137*
X5240*
D02*
D139*
X265Y1815D03*
X415Y765D03*
X428Y1465D03*
X553Y1303D03*
X790Y465D03*
Y4008D03*
X915Y765D03*
X928Y1465D03*
X1378Y753D03*
Y3553D03*
X1390Y1240D03*
X1590Y3228D03*
Y3653D03*
X1678Y1090D03*
X1703Y2303D03*
X1815Y2828D03*
Y2928D03*
Y3028D03*
Y3128D03*
Y3303D03*
Y3403D03*
Y3503D03*
Y3603D03*
X1903Y953D03*
X1940Y1340D03*
X2040D03*
Y2378D03*
X2103Y1728D03*
X2115Y2828D03*
Y2928D03*
Y3028D03*
Y3128D03*
Y3303D03*
Y3403D03*
Y3503D03*
Y3603D03*
X2140Y1340D03*
X2240D03*
Y4328D03*
X2315Y1628D03*
X2490Y1165D03*
X2503Y778D03*
Y877D03*
X2590Y2765D03*
X2603Y778D03*
Y877D03*
Y1415D03*
X2653Y390D03*
Y490D03*
X2703Y778D03*
Y877D03*
X2753Y390D03*
Y490D03*
X2765Y2753D03*
X2803Y778D03*
Y877D03*
X2853Y390D03*
Y490D03*
X2878Y3028D03*
X2903Y778D03*
Y877D03*
X2940Y1202D03*
X2953Y390D03*
Y490D03*
X2965Y3528D03*
X3003Y778D03*
Y877D03*
X3053Y2090D03*
X3103Y778D03*
Y877D03*
X3140Y4328D03*
X3153Y1603D03*
Y2178D03*
Y2278D03*
Y2378D03*
Y2478D03*
Y2590D03*
Y2690D03*
Y2790D03*
Y2890D03*
X3203Y778D03*
Y877D03*
Y3428D03*
X3253Y1127D03*
X3303Y778D03*
Y877D03*
X3315Y1528D03*
Y3228D03*
X3353Y3828D03*
X3403Y778D03*
Y877D03*
X3453Y1690D03*
Y2178D03*
Y2278D03*
Y2378D03*
Y2478D03*
Y2590D03*
Y2690D03*
Y2790D03*
Y2890D03*
X3503Y778D03*
Y877D03*
Y1178D03*
X3553Y1853D03*
X3603Y778D03*
Y877D03*
X3615Y2028D03*
Y2890D03*
X3628Y1378D03*
X3703Y778D03*
Y877D03*
X3790Y1965D03*
X3803Y778D03*
Y877D03*
X3853Y3315D03*
X3965Y1690D03*
Y1990D03*
Y2490D03*
X4065Y1690D03*
Y1990D03*
X4078Y753D03*
Y3553D03*
X4103Y3065D03*
X4165Y1690D03*
Y1990D03*
X4265Y1690D03*
Y1990D03*
X4353Y2803D03*
X4727Y464D03*
Y4008D03*
X4763Y1803D03*
Y1903D03*
Y2003D03*
Y2103D03*
Y2763D03*
Y2863D03*
Y2963D03*
Y3063D03*
X4863Y1753D03*
Y1853D03*
Y1953D03*
Y2053D03*
Y2713D03*
Y2813D03*
Y2913D03*
Y3013D03*
X4978Y2465D03*
Y2853D03*
X5040Y3753D03*
Y3978D03*
Y4078D03*
X5113Y1703D03*
Y2153D03*
Y2663D03*
Y3113D03*
X5140Y3753D03*
Y3978D03*
Y4078D03*
X0Y0D02*
M02*
