%FSLAX23Y23*%
%MOIN*%
G04 EasyPC Gerber Version 14.0.2 Build 2922 *
%ADD18C,0.00500*%
%ADD83C,0.10000*%
X0Y0D02*
D02*
D18*
X377Y2089D02*
X383Y2086D01*
X386Y2080*
X383Y2074*
X377Y2071*
X355*
Y2108*
X377*
X383Y2105*
X386Y2099*
X383Y2092*
X377Y2089*
X355*
X505Y1021D02*
Y1058D01*
Y1039D02*
X536D01*
Y1021D02*
Y1058D01*
X518Y1721D02*
Y1758D01*
Y1739D02*
X549D01*
Y1721D02*
Y1758D01*
X665Y1577D02*
X671Y1574D01*
X674Y1567*
X671Y1561*
X665Y1558*
X643*
Y1596*
X665*
X671Y1592*
X674Y1586*
X671Y1580*
X665Y1577*
X643*
X1005Y1021D02*
Y1058D01*
Y1039D02*
X1036D01*
Y1021D02*
Y1058D01*
X1018Y1721D02*
Y1758D01*
Y1739D02*
X1049D01*
Y1721D02*
Y1758D01*
X1124Y369D02*
Y406D01*
X1156*
X1149Y388D02*
X1124D01*
Y369D02*
X1156D01*
X1461Y598D02*
X1476Y635D01*
X1492Y598*
X1467Y613D02*
X1486D01*
X1461Y4141D02*
X1476Y4178D01*
X1492Y4141*
X1467Y4156D02*
X1486D01*
X1468Y1008D02*
X1483Y1046D01*
X1499Y1008*
X1474Y1024D02*
X1493D01*
X1468Y3808D02*
X1483Y3846D01*
X1499Y3808*
X1474Y3824D02*
X1493D01*
X1480Y1496D02*
Y1533D01*
X1511*
X1505Y1514D02*
X1480D01*
Y1496D02*
X1511D01*
X1683Y3442D02*
Y3480D01*
X1715*
X1708Y3461D02*
X1683D01*
Y3442D02*
X1715D01*
X1683Y3849D02*
Y3887D01*
X1715*
X1708Y3868D02*
X1683D01*
Y3849D02*
X1715D01*
X1768Y1346D02*
Y1383D01*
X1799*
X1793Y1364D02*
X1768D01*
Y1346D02*
X1799D01*
X1793Y2558D02*
Y2596D01*
X1824*
X1818Y2577D02*
X1793D01*
Y2558D02*
X1824D01*
X1905Y3083D02*
Y3121D01*
X1936*
X1930Y3102D02*
X1905D01*
Y3083D02*
X1936D01*
X1905Y3183D02*
Y3221D01*
X1936*
X1930Y3202D02*
X1905D01*
Y3183D02*
X1936D01*
X1905Y3283D02*
Y3321D01*
X1936*
X1930Y3302D02*
X1905D01*
Y3283D02*
X1936D01*
X1905Y3383D02*
Y3421D01*
X1936*
X1930Y3402D02*
X1905D01*
Y3383D02*
X1936D01*
X1909Y3499D02*
Y3537D01*
X1940*
X1934Y3518D02*
X1909D01*
Y3499D02*
X1940D01*
X1909Y3599D02*
Y3637D01*
X1940*
X1934Y3618D02*
X1909D01*
Y3599D02*
X1940D01*
X1909Y3699D02*
Y3737D01*
X1940*
X1934Y3718D02*
X1909D01*
Y3699D02*
X1940D01*
X1909Y3799D02*
Y3837D01*
X1940*
X1934Y3818D02*
X1909D01*
Y3799D02*
X1940D01*
X1909Y3914D02*
Y3952D01*
X1940*
X1934Y3933D02*
X1909D01*
Y3914D02*
X1940D01*
X1909Y4014D02*
Y4052D01*
X1940*
X1934Y4033D02*
X1909D01*
Y4014D02*
X1940D01*
X1909Y4114D02*
Y4152D01*
X1940*
X1934Y4133D02*
X1909D01*
Y4114D02*
X1940D01*
X1909Y4214D02*
Y4252D01*
X1940*
X1934Y4233D02*
X1909D01*
Y4214D02*
X1940D01*
X1993Y1008D02*
Y1046D01*
X2024*
X2018Y1027D02*
X1993D01*
Y1008D02*
X2024D01*
X1993Y1208D02*
Y1246D01*
X2024*
X2018Y1227D02*
X1993D01*
Y1208D02*
X2024D01*
X2030Y1596D02*
Y1633D01*
X2049*
X2055Y1630*
X2058Y1627*
X2061Y1621*
Y1608*
X2058Y1602*
X2055Y1599*
X2049Y1596*
X2030*
X2130D02*
Y1633D01*
X2149*
X2155Y1630*
X2158Y1627*
X2161Y1621*
Y1608*
X2158Y1602*
X2155Y1599*
X2149Y1596*
X2130*
X2152Y2652D02*
X2158Y2649D01*
X2161Y2642*
X2158Y2636*
X2152Y2633*
X2130*
Y2671*
X2152*
X2158Y2667*
X2161Y2661*
X2158Y2655*
X2152Y2652*
X2130*
X2215Y2002D02*
X2221Y1999D01*
X2224Y1992*
X2221Y1986*
X2215Y1983*
X2193*
Y2021*
X2215*
X2221Y2017*
X2224Y2011*
X2221Y2005*
X2215Y2002*
X2193*
X2205Y3083D02*
Y3121D01*
X2236*
X2230Y3102D02*
X2205D01*
Y3083D02*
X2236D01*
X2205Y3183D02*
Y3221D01*
X2236*
X2230Y3202D02*
X2205D01*
Y3183D02*
X2236D01*
X2205Y3283D02*
Y3321D01*
X2236*
X2230Y3302D02*
X2205D01*
Y3283D02*
X2236D01*
X2205Y3383D02*
Y3421D01*
X2236*
X2230Y3402D02*
X2205D01*
Y3383D02*
X2236D01*
X2209Y3499D02*
Y3537D01*
X2240*
X2234Y3518D02*
X2209D01*
Y3499D02*
X2240D01*
X2209Y3599D02*
Y3637D01*
X2240*
X2234Y3618D02*
X2209D01*
Y3599D02*
X2240D01*
X2209Y3699D02*
Y3737D01*
X2240*
X2234Y3718D02*
X2209D01*
Y3699D02*
X2240D01*
X2209Y3799D02*
Y3837D01*
X2240*
X2234Y3818D02*
X2209D01*
Y3799D02*
X2240D01*
X2209Y3914D02*
Y3952D01*
X2240*
X2234Y3933D02*
X2209D01*
Y3914D02*
X2240D01*
X2209Y4014D02*
Y4052D01*
X2240*
X2234Y4033D02*
X2209D01*
Y4014D02*
X2240D01*
X2209Y4114D02*
Y4152D01*
X2240*
X2234Y4133D02*
X2209D01*
Y4114D02*
X2240D01*
X2209Y4214D02*
Y4252D01*
X2240*
X2234Y4233D02*
X2209D01*
Y4214D02*
X2240D01*
X2230Y1596D02*
Y1633D01*
X2249*
X2255Y1630*
X2258Y1627*
X2261Y1621*
Y1608*
X2258Y1602*
X2255Y1599*
X2249Y1596*
X2230*
X2330D02*
Y1633D01*
X2349*
X2355Y1630*
X2358Y1627*
X2361Y1621*
Y1608*
X2358Y1602*
X2355Y1599*
X2349Y1596*
X2330*
X2427Y1902D02*
X2433Y1899D01*
X2436Y1892*
X2433Y1886*
X2427Y1883*
X2405*
Y1921*
X2427*
X2433Y1917*
X2436Y1911*
X2433Y1905*
X2427Y1902*
X2405*
X2445Y2930D02*
Y2968D01*
X2476*
X2470Y2949D02*
X2445D01*
Y2930D02*
X2476D01*
X2465Y1820D02*
Y1857D01*
X2496*
X2490Y1839D02*
X2465D01*
Y1820D02*
X2496D01*
X2575Y3533D02*
X2582Y3530D01*
X2585Y3524*
X2582Y3518*
X2575Y3515*
X2553*
Y3552*
X2575*
X2582Y3549*
X2585Y3543*
X2582Y3537*
X2575Y3533*
X2553*
X2577Y3642D02*
X2583Y3639D01*
X2587Y3632*
X2583Y3626*
X2577Y3623*
X2555*
Y3661*
X2577*
X2583Y3657*
X2587Y3651*
X2583Y3645*
X2577Y3642*
X2555*
X2580Y1421D02*
Y1458D01*
X2611*
X2605Y1439D02*
X2580D01*
Y1421D02*
X2611D01*
X2624Y1039D02*
X2621Y1036D01*
X2615Y1033*
X2605*
X2599Y1036*
X2596Y1039*
X2593Y1046*
Y1058*
X2596Y1064*
X2599Y1067*
X2605Y1071*
X2615*
X2621Y1067*
X2624Y1064*
Y1139D02*
X2621Y1136D01*
X2615Y1133*
X2605*
X2599Y1136*
X2596Y1139*
X2593Y1146*
Y1158*
X2596Y1164*
X2599Y1167*
X2605Y1171*
X2615*
X2621Y1167*
X2624Y1164*
X2680Y3021D02*
Y3058D01*
X2711*
X2705Y3039D02*
X2680D01*
Y3021D02*
X2711D01*
X2724Y1039D02*
X2721Y1036D01*
X2715Y1033*
X2705*
X2699Y1036*
X2696Y1039*
X2693Y1046*
Y1058*
X2696Y1064*
X2699Y1067*
X2705Y1071*
X2715*
X2721Y1067*
X2724Y1064*
Y1139D02*
X2721Y1136D01*
X2715Y1133*
X2705*
X2699Y1136*
X2696Y1139*
X2693Y1146*
Y1158*
X2696Y1164*
X2699Y1167*
X2705Y1171*
X2715*
X2721Y1167*
X2724Y1164*
X2693Y1671D02*
Y1708D01*
X2724*
X2718Y1689D02*
X2693D01*
Y1671D02*
X2724D01*
X2762Y2083D02*
X2768Y2080D01*
X2772Y2073*
X2768Y2067*
X2762Y2064*
X2740*
Y2102*
X2762*
X2768Y2098*
X2772Y2092*
X2768Y2086*
X2762Y2083*
X2740*
X2824Y1039D02*
X2821Y1036D01*
X2815Y1033*
X2805*
X2799Y1036*
X2796Y1039*
X2793Y1046*
Y1058*
X2796Y1064*
X2799Y1067*
X2805Y1071*
X2815*
X2821Y1067*
X2824Y1064*
Y1139D02*
X2821Y1136D01*
X2815Y1133*
X2805*
X2799Y1136*
X2796Y1139*
X2793Y1146*
Y1158*
X2796Y1164*
X2799Y1167*
X2805Y1171*
X2815*
X2821Y1167*
X2824Y1164*
X2847Y3697D02*
Y3734D01*
X2878*
X2872Y3715D02*
X2847D01*
Y3697D02*
X2878D01*
X2855Y3008D02*
Y3046D01*
X2886*
X2880Y3027D02*
X2855D01*
Y3008D02*
X2886D01*
X2924Y1039D02*
X2921Y1036D01*
X2915Y1033*
X2905*
X2899Y1036*
X2896Y1039*
X2893Y1046*
Y1058*
X2896Y1064*
X2899Y1067*
X2905Y1071*
X2915*
X2921Y1067*
X2924Y1064*
Y1139D02*
X2921Y1136D01*
X2915Y1133*
X2905*
X2899Y1136*
X2896Y1139*
X2893Y1146*
Y1158*
X2896Y1164*
X2899Y1167*
X2905Y1171*
X2915*
X2921Y1167*
X2924Y1164*
X2898Y742D02*
Y705D01*
X2929*
X2939Y1473D02*
X2946Y1469D01*
X2949Y1463*
X2946Y1457*
X2939Y1454*
X2917*
Y1491*
X2939*
X2946Y1488*
X2949Y1482*
X2946Y1476*
X2939Y1473*
X2917*
X2968Y3283D02*
Y3321D01*
X2999*
X2993Y3302D02*
X2968D01*
Y3283D02*
X2999D01*
X2969Y1605D02*
Y1568D01*
X3000*
X3024Y1039D02*
X3021Y1036D01*
X3015Y1033*
X3005*
X2999Y1036*
X2996Y1039*
X2993Y1046*
Y1058*
X2996Y1064*
X2999Y1067*
X3005Y1071*
X3015*
X3021Y1067*
X3024Y1064*
Y1139D02*
X3021Y1136D01*
X3015Y1133*
X3005*
X2999Y1136*
X2996Y1139*
X2993Y1146*
Y1158*
X2996Y1164*
X2999Y1167*
X3005Y1171*
X3015*
X3021Y1167*
X3024Y1164*
X2996Y696D02*
Y659D01*
X3027*
X3030Y1458D02*
Y1496D01*
X3061*
X3055Y1477D02*
X3030D01*
Y1458D02*
X3061D01*
X3083Y1605D02*
Y1568D01*
X3114*
X3124Y1039D02*
X3121Y1036D01*
X3115Y1033*
X3105*
X3099Y1036*
X3096Y1039*
X3093Y1046*
Y1058*
X3096Y1064*
X3099Y1067*
X3105Y1071*
X3115*
X3121Y1067*
X3124Y1064*
Y1139D02*
X3121Y1136D01*
X3115Y1133*
X3105*
X3099Y1136*
X3096Y1139*
X3093Y1146*
Y1158*
X3096Y1164*
X3099Y1167*
X3105Y1171*
X3115*
X3121Y1167*
X3124Y1164*
X3095Y694D02*
Y657D01*
X3126*
X3143Y2346D02*
Y2383D01*
X3174*
X3168Y2364D02*
X3143D01*
Y2346D02*
X3174D01*
X3159Y4286D02*
Y4323D01*
X3178*
X3184Y4320*
X3187Y4317*
X3190Y4311*
Y4298*
X3187Y4292*
X3184Y4289*
X3178Y4286*
X3159*
Y4386D02*
Y4423D01*
X3178*
X3184Y4420*
X3187Y4417*
X3190Y4411*
Y4398*
X3187Y4392*
X3184Y4389*
X3178Y4386*
X3159*
X3224Y1039D02*
X3221Y1036D01*
X3215Y1033*
X3205*
X3199Y1036*
X3196Y1039*
X3193Y1046*
Y1058*
X3196Y1064*
X3199Y1067*
X3205Y1071*
X3215*
X3221Y1067*
X3224Y1064*
Y1139D02*
X3221Y1136D01*
X3215Y1133*
X3205*
X3199Y1136*
X3196Y1139*
X3193Y1146*
Y1158*
X3196Y1164*
X3199Y1167*
X3205Y1171*
X3215*
X3221Y1167*
X3224Y1164*
X3193Y621D02*
Y583D01*
X3224*
X3243Y1858D02*
Y1896D01*
X3274*
X3268Y1877D02*
X3243D01*
Y1858D02*
X3274D01*
X3243Y2433D02*
Y2471D01*
X3274*
X3268Y2452D02*
X3243D01*
Y2433D02*
X3274D01*
X3243Y2533D02*
Y2571D01*
X3274*
X3268Y2552D02*
X3243D01*
Y2533D02*
X3274D01*
X3243Y2633D02*
Y2671D01*
X3274*
X3268Y2652D02*
X3243D01*
Y2633D02*
X3274D01*
X3243Y2733D02*
Y2771D01*
X3274*
X3268Y2752D02*
X3243D01*
Y2733D02*
X3274D01*
X3243Y2846D02*
Y2883D01*
X3274*
X3268Y2864D02*
X3243D01*
Y2846D02*
X3274D01*
X3243Y2946D02*
Y2983D01*
X3274*
X3268Y2964D02*
X3243D01*
Y2946D02*
X3274D01*
X3243Y3046D02*
Y3083D01*
X3274*
X3268Y3064D02*
X3243D01*
Y3046D02*
X3274D01*
X3243Y3146D02*
Y3183D01*
X3274*
X3268Y3164D02*
X3243D01*
Y3146D02*
X3274D01*
X3259Y3916D02*
Y3954D01*
X3290*
X3284Y3935D02*
X3259D01*
Y3916D02*
X3290D01*
X3259Y4286D02*
Y4323D01*
X3278*
X3284Y4320*
X3287Y4317*
X3290Y4311*
Y4298*
X3287Y4292*
X3284Y4289*
X3278Y4286*
X3259*
Y4386D02*
Y4423D01*
X3278*
X3284Y4420*
X3287Y4417*
X3290Y4411*
Y4398*
X3287Y4392*
X3284Y4389*
X3278Y4386*
X3259*
X3324Y1039D02*
X3321Y1036D01*
X3315Y1033*
X3305*
X3299Y1036*
X3296Y1039*
X3293Y1046*
Y1058*
X3296Y1064*
X3299Y1067*
X3305Y1071*
X3315*
X3321Y1067*
X3324Y1064*
Y1139D02*
X3321Y1136D01*
X3315Y1133*
X3305*
X3299Y1136*
X3296Y1139*
X3293Y1146*
Y1158*
X3296Y1164*
X3299Y1167*
X3305Y1171*
X3315*
X3321Y1167*
X3324Y1164*
X3365Y1402D02*
X3371Y1399D01*
X3374Y1392*
X3371Y1386*
X3365Y1383*
X3343*
Y1421*
X3365*
X3371Y1417*
X3374Y1411*
X3371Y1405*
X3365Y1402*
X3343*
X3424Y1039D02*
X3421Y1036D01*
X3415Y1033*
X3405*
X3399Y1036*
X3396Y1039*
X3393Y1046*
Y1058*
X3396Y1064*
X3399Y1067*
X3405Y1071*
X3415*
X3421Y1067*
X3424Y1064*
Y1139D02*
X3421Y1136D01*
X3415Y1133*
X3405*
X3399Y1136*
X3396Y1139*
X3393Y1146*
Y1158*
X3396Y1164*
X3399Y1167*
X3405Y1171*
X3415*
X3421Y1167*
X3424Y1164*
X3404Y1782D02*
Y1820D01*
X3435*
X3429Y1801D02*
X3404D01*
Y1782D02*
X3435D01*
X3414Y4286D02*
Y4323D01*
X3432*
X3439Y4320*
X3442Y4317*
X3445Y4311*
Y4298*
X3442Y4292*
X3439Y4289*
X3432Y4286*
X3414*
Y4386D02*
Y4423D01*
X3432*
X3439Y4420*
X3442Y4417*
X3445Y4411*
Y4398*
X3442Y4392*
X3439Y4389*
X3432Y4386*
X3414*
X3524Y1039D02*
X3521Y1036D01*
X3515Y1033*
X3505*
X3499Y1036*
X3496Y1039*
X3493Y1046*
Y1058*
X3496Y1064*
X3499Y1067*
X3505Y1071*
X3515*
X3521Y1067*
X3524Y1064*
Y1139D02*
X3521Y1136D01*
X3515Y1133*
X3505*
X3499Y1136*
X3496Y1139*
X3493Y1146*
Y1158*
X3496Y1164*
X3499Y1167*
X3505Y1171*
X3515*
X3521Y1167*
X3524Y1164*
X3543Y1946D02*
Y1983D01*
X3574*
X3568Y1964D02*
X3543D01*
Y1946D02*
X3574D01*
X3543Y2433D02*
Y2471D01*
X3574*
X3568Y2452D02*
X3543D01*
Y2433D02*
X3574D01*
X3543Y2533D02*
Y2571D01*
X3574*
X3568Y2552D02*
X3543D01*
Y2533D02*
X3574D01*
X3543Y2633D02*
Y2671D01*
X3574*
X3568Y2652D02*
X3543D01*
Y2633D02*
X3574D01*
X3543Y2733D02*
Y2771D01*
X3574*
X3568Y2752D02*
X3543D01*
Y2733D02*
X3574D01*
X3543Y2846D02*
Y2883D01*
X3574*
X3568Y2864D02*
X3543D01*
Y2846D02*
X3574D01*
X3543Y2946D02*
Y2983D01*
X3574*
X3568Y2964D02*
X3543D01*
Y2946D02*
X3574D01*
X3543Y3046D02*
Y3083D01*
X3574*
X3568Y3064D02*
X3543D01*
Y3046D02*
X3574D01*
X3543Y3146D02*
Y3183D01*
X3574*
X3568Y3164D02*
X3543D01*
Y3146D02*
X3574D01*
X3624Y1039D02*
X3621Y1036D01*
X3615Y1033*
X3605*
X3599Y1036*
X3596Y1039*
X3593Y1046*
Y1058*
X3596Y1064*
X3599Y1067*
X3605Y1071*
X3615*
X3621Y1067*
X3624Y1064*
Y1139D02*
X3621Y1136D01*
X3615Y1133*
X3605*
X3599Y1136*
X3596Y1139*
X3593Y1146*
Y1158*
X3596Y1164*
X3599Y1167*
X3605Y1171*
X3615*
X3621Y1167*
X3624Y1164*
X3615Y1452D02*
X3621Y1449D01*
X3624Y1442*
X3621Y1436*
X3615Y1433*
X3593*
Y1471*
X3615*
X3621Y1467*
X3624Y1461*
X3621Y1455*
X3615Y1452*
X3593*
X3665Y2127D02*
X3671Y2124D01*
X3674Y2117*
X3671Y2111*
X3665Y2108*
X3643*
Y2146*
X3665*
X3671Y2142*
X3674Y2136*
X3671Y2130*
X3665Y2127*
X3643*
X3724Y1039D02*
X3721Y1036D01*
X3715Y1033*
X3705*
X3699Y1036*
X3696Y1039*
X3693Y1046*
Y1058*
X3696Y1064*
X3699Y1067*
X3705Y1071*
X3715*
X3721Y1067*
X3724Y1064*
Y1139D02*
X3721Y1136D01*
X3715Y1133*
X3705*
X3699Y1136*
X3696Y1139*
X3693Y1146*
Y1158*
X3696Y1164*
X3699Y1167*
X3705Y1171*
X3715*
X3721Y1167*
X3724Y1164*
X3705Y2283D02*
Y2321D01*
X3736*
X3730Y2302D02*
X3705D01*
Y2283D02*
X3736D01*
X3705Y3146D02*
Y3183D01*
X3736*
X3730Y3164D02*
X3705D01*
Y3146D02*
X3736D01*
X3725Y1649D02*
Y1686D01*
X3756*
X3750Y1667D02*
X3725D01*
Y1649D02*
X3756D01*
X3824Y1039D02*
X3821Y1036D01*
X3815Y1033*
X3805*
X3799Y1036*
X3796Y1039*
X3793Y1046*
Y1058*
X3796Y1064*
X3799Y1067*
X3805Y1071*
X3815*
X3821Y1067*
X3824Y1064*
Y1139D02*
X3821Y1136D01*
X3815Y1133*
X3805*
X3799Y1136*
X3796Y1139*
X3793Y1146*
Y1158*
X3796Y1164*
X3799Y1167*
X3805Y1171*
X3815*
X3821Y1167*
X3824Y1164*
X3880Y2221D02*
Y2258D01*
X3911*
X3905Y2239D02*
X3880D01*
Y2221D02*
X3911D01*
X3880Y1782D02*
Y1820D01*
X3911*
X3905Y1801D02*
X3880D01*
Y1782D02*
X3911D01*
X3924Y1039D02*
X3921Y1036D01*
X3915Y1033*
X3905*
X3899Y1036*
X3896Y1039*
X3893Y1046*
Y1058*
X3896Y1064*
X3899Y1067*
X3905Y1071*
X3915*
X3921Y1067*
X3924Y1064*
Y1139D02*
X3921Y1136D01*
X3915Y1133*
X3905*
X3899Y1136*
X3896Y1139*
X3893Y1146*
Y1158*
X3896Y1164*
X3899Y1167*
X3905Y1171*
X3915*
X3921Y1167*
X3924Y1164*
X3941Y537D02*
Y499D01*
X3972*
X4055Y1946D02*
Y1983D01*
X4086*
X4080Y1964D02*
X4055D01*
Y1946D02*
X4086D01*
X4055Y2246D02*
Y2283D01*
X4086*
X4080Y2264D02*
X4055D01*
Y2246D02*
X4086D01*
X4055Y2746D02*
Y2783D01*
X4086*
X4080Y2764D02*
X4055D01*
Y2746D02*
X4086D01*
X4063Y377D02*
Y340D01*
X4094*
X4108Y645D02*
Y607D01*
X4140*
X4108Y694D02*
Y657D01*
X4140*
X4108Y743D02*
Y706D01*
X4140*
X4108Y812D02*
Y775D01*
X4140*
X4126Y436D02*
Y399D01*
X4157*
X4155Y1946D02*
Y1983D01*
X4186*
X4180Y1964D02*
X4155D01*
Y1946D02*
X4186D01*
X4155Y2246D02*
Y2283D01*
X4186*
X4180Y2264D02*
X4155D01*
Y2246D02*
X4186D01*
X4168Y1008D02*
X4183Y1046D01*
X4199Y1008*
X4174Y1024D02*
X4193D01*
X4168Y3808D02*
X4183Y3846D01*
X4199Y3808*
X4174Y3824D02*
X4193D01*
X4175Y1649D02*
Y1686D01*
X4207*
X4200Y1667D02*
X4175D01*
Y1649D02*
X4207D01*
X4177Y1237D02*
Y1275D01*
X4209*
X4202Y1256D02*
X4177D01*
Y1237D02*
X4209D01*
X4187Y281D02*
Y243D01*
X4218*
X4187Y576D02*
Y538D01*
X4218*
X4187Y625D02*
Y588D01*
X4218*
X4193Y3321D02*
Y3358D01*
X4224*
X4218Y3339D02*
X4193D01*
Y3321D02*
X4224D01*
X4255Y1946D02*
Y1983D01*
X4286*
X4280Y1964D02*
X4255D01*
Y1946D02*
X4286D01*
X4255Y2246D02*
Y2283D01*
X4286*
X4280Y2264D02*
X4255D01*
Y2246D02*
X4286D01*
X4256Y330D02*
Y292D01*
X4287*
X4355Y1946D02*
Y1983D01*
X4386*
X4380Y1964D02*
X4355D01*
Y1946D02*
X4386D01*
X4355Y2246D02*
Y2283D01*
X4386*
X4380Y2264D02*
X4355D01*
Y2246D02*
X4386D01*
X4410Y1166D02*
Y1204D01*
X4441*
X4435Y1185D02*
X4410D01*
Y1166D02*
X4441D01*
X4443Y3058D02*
Y3096D01*
X4474*
X4468Y3077D02*
X4443D01*
Y3058D02*
X4474D01*
X4492Y714D02*
Y676D01*
X4524*
X4502Y428D02*
Y391D01*
X4533*
X4543Y542D02*
Y505D01*
X4575*
X4555Y1355D02*
Y1393D01*
X4587*
X4580Y1374D02*
X4555D01*
Y1355D02*
X4587D01*
X4610Y542D02*
Y505D01*
X4642*
X4689Y542D02*
Y505D01*
X4720*
X4728Y625D02*
Y588D01*
X4760*
X4748Y2298D02*
Y2261D01*
X4779*
X4807Y576D02*
Y538D01*
X4838*
X4807Y763D02*
Y725D01*
X4838*
X4817Y2094D02*
Y2131D01*
X4848*
X4842Y2112D02*
X4817D01*
Y2094D02*
X4848D01*
X4886Y763D02*
Y725D01*
X4917*
X4927Y846D02*
Y808D01*
X4958*
X4965Y2235D02*
Y2272D01*
X4996*
X4990Y2254D02*
X4965D01*
Y2235D02*
X4996D01*
X4965Y2635D02*
Y2672D01*
X4996*
X4990Y2654D02*
X4965D01*
Y2635D02*
X4996D01*
X4984Y763D02*
Y725D01*
X5016*
X5024Y531D02*
Y493D01*
X5055*
X5024Y1176D02*
Y1139D01*
X5055*
X5024Y1334D02*
Y1296D01*
X5055*
X5024Y1767D02*
Y1729D01*
X5055*
X5079Y3690D02*
Y3728D01*
X5110*
X5104Y3709D02*
X5079D01*
Y3690D02*
X5110D01*
X5083Y487D02*
Y450D01*
X5114*
X5083Y1176D02*
Y1139D01*
X5114*
X5083Y1334D02*
Y1296D01*
X5114*
X5083Y1649D02*
Y1611D01*
X5114*
X5142Y428D02*
Y391D01*
X5173*
X5142Y1172D02*
Y1135D01*
X5173*
X5142Y1334D02*
Y1296D01*
X5173*
X5142Y1550D02*
Y1513D01*
X5173*
X5177Y3886D02*
Y3848D01*
X5209*
X5217Y3806D02*
Y3769D01*
X5248*
X5329Y999D02*
Y962D01*
X5360*
X5329Y1058D02*
Y1021D01*
X5360*
X5329Y1117D02*
Y1080D01*
X5360*
X5378Y1355D02*
Y1393D01*
X5409*
X5403Y1374D02*
X5378D01*
Y1355D02*
X5409D01*
X5398Y596D02*
X5413Y634D01*
X5429Y596*
X5404Y612D02*
X5423D01*
X5398Y4141D02*
X5413Y4178D01*
X5429Y4141*
X5404Y4156D02*
X5423D01*
X5479Y2723D02*
X5485Y2719D01*
X5488Y2713*
X5485Y2707*
X5479Y2704*
X5457*
Y2741*
X5479*
X5485Y2738*
X5488Y2732*
X5485Y2726*
X5479Y2723*
X5457*
X5477Y3698D02*
Y3735D01*
X5508*
X5502Y3717D02*
X5477D01*
Y3698D02*
X5508D01*
X5486Y3895D02*
Y3932D01*
X5518*
X5511Y3913D02*
X5486D01*
Y3895D02*
X5518D01*
X5523Y4454D02*
Y4491D01*
X5554*
X5548Y4473D02*
X5523D01*
Y4454D02*
X5554D01*
X5575Y1414D02*
Y1452D01*
X5606*
X5600Y1433D02*
X5575D01*
Y1414D02*
X5606D01*
X5575Y3166D02*
Y3204D01*
X5606*
X5600Y3185D02*
X5575D01*
Y3166D02*
X5606D01*
X5585Y999D02*
Y962D01*
X5616*
X5585Y1058D02*
Y1021D01*
X5616*
X5585Y1117D02*
Y1080D01*
X5616*
X5683Y2566D02*
Y2604D01*
X5714*
X5708Y2585D02*
X5683D01*
Y2566D02*
X5714D01*
X5700Y651D02*
Y688D01*
Y669D02*
X5710D01*
X5732Y688*
X5710Y669D02*
X5732Y651D01*
X5780D02*
Y688D01*
Y669D02*
X5790D01*
X5812Y688*
X5790Y669D02*
X5812Y651D01*
X5821Y3826D02*
Y3863D01*
X5852*
X5846Y3845D02*
X5821D01*
Y3826D02*
X5852D01*
X5916Y3032D02*
X5922Y3028D01*
X5925Y3022*
X5922Y3016*
X5916Y3013*
X5894*
Y3050*
X5916*
X5922Y3047*
X5925Y3041*
X5922Y3035*
X5916Y3032*
X5894*
X6028Y892D02*
X6031Y889D01*
X6037Y886*
X6043Y889*
X6046Y892*
Y923*
X6053*
X6046D02*
X6034D01*
X6028Y1837D02*
X6031Y1834D01*
X6037Y1831*
X6043Y1834*
X6046Y1837*
Y1868*
X6053*
X6046D02*
X6034D01*
X6032Y2195D02*
Y2232D01*
X6063*
X6057Y2214D02*
X6032D01*
Y2295D02*
Y2332D01*
X6063*
X6057Y2314D02*
X6032D01*
Y2395D02*
Y2432D01*
X6063*
X6057Y2414D02*
X6032D01*
Y2495D02*
Y2532D01*
X6063*
X6057Y2514D02*
X6032D01*
Y2864D02*
Y2902D01*
X6063*
X6057Y2883D02*
X6032D01*
Y2964D02*
Y3002D01*
X6063*
X6057Y2983D02*
X6032D01*
Y3064D02*
Y3102D01*
X6063*
X6057Y3083D02*
X6032D01*
Y3164D02*
Y3202D01*
X6063*
X6057Y3183D02*
X6032D01*
Y3524D02*
Y3561D01*
X6063*
X6057Y3542D02*
X6032D01*
Y3624D02*
Y3661D01*
X6063*
X6057Y3642D02*
X6032D01*
Y3724D02*
Y3761D01*
X6063*
X6057Y3742D02*
X6032D01*
Y3824D02*
Y3861D01*
X6063*
X6057Y3842D02*
X6032D01*
X6132Y2145D02*
Y2182D01*
X6163*
X6157Y2164D02*
X6132D01*
Y2245D02*
Y2282D01*
X6163*
X6157Y2264D02*
X6132D01*
Y2345D02*
Y2382D01*
X6163*
X6157Y2364D02*
X6132D01*
Y2445D02*
Y2482D01*
X6163*
X6157Y2464D02*
X6132D01*
Y2814D02*
Y2852D01*
X6163*
X6157Y2833D02*
X6132D01*
Y2914D02*
Y2952D01*
X6163*
X6157Y2933D02*
X6132D01*
Y3014D02*
Y3052D01*
X6163*
X6157Y3033D02*
X6132D01*
Y3114D02*
Y3152D01*
X6163*
X6157Y3133D02*
X6132D01*
Y3474D02*
Y3511D01*
X6163*
X6157Y3492D02*
X6132D01*
Y3574D02*
Y3611D01*
X6163*
X6157Y3592D02*
X6132D01*
Y3674D02*
Y3711D01*
X6163*
X6157Y3692D02*
X6132D01*
Y3774D02*
Y3811D01*
X6163*
X6157Y3792D02*
X6132D01*
X6298Y732D02*
X6304Y729D01*
X6307Y723*
X6304Y717*
X6298Y714*
X6276*
Y751*
X6298*
X6304Y748*
X6307Y742*
X6304Y736*
X6298Y732*
X6276*
X6404Y2111D02*
X6413D01*
Y2107*
X6410Y2101*
X6407Y2098*
X6401Y2095*
X6395*
X6388Y2098*
X6385Y2101*
X6382Y2107*
Y2120*
X6385Y2126*
X6388Y2129*
X6395Y2132*
X6401*
X6407Y2129*
X6410Y2126*
X6413Y2120*
X6404Y2561D02*
X6413D01*
Y2557*
X6410Y2551*
X6407Y2548*
X6401Y2545*
X6395*
X6388Y2548*
X6385Y2551*
X6382Y2557*
Y2570*
X6385Y2576*
X6388Y2579*
X6395Y2582*
X6401*
X6407Y2579*
X6410Y2576*
X6413Y2570*
X6404Y2780D02*
X6413D01*
Y2777*
X6410Y2770*
X6407Y2767*
X6401Y2764*
X6395*
X6388Y2767*
X6385Y2770*
X6382Y2777*
Y2789*
X6385Y2795*
X6388Y2799*
X6395Y2802*
X6401*
X6407Y2799*
X6410Y2795*
X6413Y2789*
X6404Y3230D02*
X6413D01*
Y3227*
X6410Y3220*
X6407Y3217*
X6401Y3214*
X6395*
X6388Y3217*
X6385Y3220*
X6382Y3227*
Y3239*
X6385Y3245*
X6388Y3249*
X6395Y3252*
X6401*
X6407Y3249*
X6410Y3245*
X6413Y3239*
X6404Y3439D02*
X6413D01*
Y3436*
X6410Y3430*
X6407Y3427*
X6401Y3424*
X6395*
X6388Y3427*
X6385Y3430*
X6382Y3436*
Y3449*
X6385Y3455*
X6388Y3458*
X6395Y3461*
X6401*
X6407Y3458*
X6410Y3455*
X6413Y3449*
X6404Y3889D02*
X6413D01*
Y3886*
X6410Y3880*
X6407Y3877*
X6401Y3874*
X6395*
X6388Y3877*
X6385Y3880*
X6382Y3886*
Y3899*
X6385Y3905*
X6388Y3908*
X6395Y3911*
X6401*
X6407Y3908*
X6410Y3905*
X6413Y3899*
D02*
D83*
X255Y2011D03*
X405Y961D03*
X418Y1661D03*
X543Y1499D03*
X905Y961D03*
X918Y1661D03*
X1024Y310D03*
X1361Y538D03*
Y4081D03*
X1368Y949D03*
Y3749D03*
X1380Y1436D03*
X1583Y3383D03*
Y3790D03*
X1668Y1286D03*
X1693Y2499D03*
X1805Y3024D03*
Y3124D03*
Y3224D03*
Y3324D03*
X1809Y3440D03*
Y3540D03*
Y3640D03*
Y3740D03*
Y3855D03*
Y3955D03*
Y4055D03*
Y4155D03*
X1893Y949D03*
Y1149D03*
X1930Y1536D03*
X2030D03*
Y2574D03*
X2093Y1924D03*
X2105Y3024D03*
Y3124D03*
Y3224D03*
Y3324D03*
X2109Y3440D03*
Y3540D03*
Y3640D03*
Y3740D03*
Y3855D03*
Y3955D03*
Y4055D03*
Y4155D03*
X2130Y1536D03*
X2230D03*
X2305Y1824D03*
X2345Y2871D03*
X2365Y1761D03*
X2453Y3455D03*
X2455Y3564D03*
X2480Y1361D03*
X2493Y974D03*
Y1074D03*
X2580Y2961D03*
X2593Y974D03*
Y1074D03*
Y1611D03*
X2640Y2005D03*
X2693Y974D03*
Y1074D03*
X2747Y3637D03*
X2755Y2949D03*
X2793Y974D03*
Y1074D03*
X2798Y645D03*
X2817Y1394D03*
X2868Y3224D03*
X2869Y1509D03*
X2893Y974D03*
Y1074D03*
X2896Y599D03*
X2930Y1399D03*
X2983Y1509D03*
X2993Y974D03*
Y1074D03*
X2995Y597D03*
X3043Y2286D03*
X3059Y4226D03*
Y4326D03*
X3093Y974D03*
Y1074D03*
X3093Y524D03*
X3143Y1799D03*
Y2374D03*
Y2474D03*
Y2574D03*
Y2674D03*
Y2786D03*
Y2886D03*
Y2986D03*
Y3086D03*
X3159Y3857D03*
Y4226D03*
Y4326D03*
X3193Y974D03*
Y1074D03*
X3243Y1324D03*
X3293Y974D03*
Y1074D03*
X3304Y1723D03*
X3314Y4226D03*
Y4326D03*
X3393Y974D03*
Y1074D03*
X3443Y1886D03*
Y2374D03*
Y2474D03*
Y2574D03*
Y2674D03*
Y2786D03*
Y2886D03*
Y2986D03*
Y3086D03*
X3493Y974D03*
Y1074D03*
Y1374D03*
X3543Y2049D03*
X3593Y974D03*
Y1074D03*
X3605Y2224D03*
Y3086D03*
X3625Y1589D03*
X3693Y974D03*
Y1074D03*
X3780Y2161D03*
X3780Y1723D03*
X3793Y974D03*
Y1074D03*
X3841Y440D03*
X3955Y1886D03*
Y2186D03*
Y2686D03*
X3963Y280D03*
X4008Y548D03*
Y597D03*
Y646D03*
Y715D03*
X4026Y339D03*
X4055Y1886D03*
Y2186D03*
X4068Y949D03*
Y3749D03*
X4075Y1589D03*
X4077Y1178D03*
X4087Y184D03*
Y479D03*
Y528D03*
X4093Y3261D03*
X4155Y1886D03*
Y2186D03*
X4156Y233D03*
X4255Y1886D03*
Y2186D03*
X4310Y1107D03*
X4343Y2999D03*
X4392Y617D03*
X4402Y331D03*
X4443Y446D03*
X4455Y1296D03*
X4510Y446D03*
X4589D03*
X4628Y528D03*
X4648Y2202D03*
X4707Y479D03*
Y666D03*
X4717Y2034D03*
X4786Y666D03*
X4827Y749D03*
X4865Y2176D03*
Y2576D03*
X4884Y666D03*
X4924Y434D03*
Y1079D03*
Y1237D03*
Y1670D03*
X4979Y3631D03*
X4983Y390D03*
Y1079D03*
Y1237D03*
Y1552D03*
X5042Y331D03*
Y1076D03*
Y1237D03*
Y1453D03*
X5077Y3789D03*
X5117Y3709D03*
X5229Y902D03*
Y961D03*
Y1020D03*
X5278Y1296D03*
X5298Y537D03*
Y4081D03*
X5357Y2644D03*
X5377Y3639D03*
X5386Y3835D03*
X5423Y4394D03*
X5475Y1355D03*
Y3107D03*
X5485Y902D03*
Y961D03*
Y1020D03*
X5583Y2507D03*
X5600Y591D03*
X5680D03*
X5721Y3766D03*
X5794Y2953D03*
X5928Y827D03*
Y1771D03*
X5932Y2136D03*
Y2236D03*
Y2336D03*
Y2436D03*
Y2805D03*
Y2905D03*
Y3005D03*
Y3105D03*
Y3464D03*
Y3564D03*
Y3664D03*
Y3764D03*
X6032Y2086D03*
Y2186D03*
Y2286D03*
Y2386D03*
Y2755D03*
Y2855D03*
Y2955D03*
Y3055D03*
Y3414D03*
Y3514D03*
Y3614D03*
Y3714D03*
X6176Y654D03*
X6282Y2036D03*
Y2486D03*
Y2705D03*
Y3155D03*
Y3364D03*
Y3814D03*
X0Y0D02*
M02*
