%FSLAX23Y23*%
%MOIN*%
G04 EasyPC Gerber Version 14.0.2 Build 2922 *
%AMT73*0 Octagon Pad at angle 0*4,1,8,-0.01243,-0.03000,0.01243,-0.03000,0.03000,-0.01243,0.03000,0.01243,0.01243,0.03000,-0.01243,0.03000,-0.03000,0.01243,-0.03000,-0.01243,-0.01243,-0.03000,0*%
%ADD73T73*%
%AMT29*0 Octagon Pad at angle 0*4,1,8,-0.01450,-0.03500,0.01450,-0.03500,0.03500,-0.01450,0.03500,0.01450,0.01450,0.03500,-0.01450,0.03500,-0.03500,0.01450,-0.03500,-0.01450,-0.01450,-0.03500,0*%
%ADD29T29*%
%ADD84O,0.06000X0.11000*%
%ADD75R,0.01614X0.03563*%
%ADD83R,0.02400X0.08700*%
%ADD97R,0.02402X0.05984*%
%ADD76R,0.03940X0.04330*%
%ADD79R,0.05100X0.06000*%
%ADD86R,0.06300X0.07090*%
%ADD88R,0.06988X0.09252*%
%ADD95R,0.08000X0.09500*%
%ADD94R,0.10531X0.13189*%
%ADD92R,0.16142X0.16339*%
%ADD72R,0.06000X0.06000*%
%ADD28R,0.07000X0.07000*%
%ADD96R,0.09500X0.09500*%
%ADD25R,0.23622X0.23622*%
%ADD16C,0.00787*%
%ADD12C,0.01000*%
%ADD101C,0.01500*%
%ADD102C,0.01772*%
%ADD14C,0.02362*%
%ADD100C,0.03000*%
%ADD26C,0.04800*%
%ADD103C,0.05000*%
%ADD89C,0.05543*%
%ADD99C,0.05600*%
%ADD27C,0.06000*%
%ADD82O,0.11000X0.06000*%
%ADD74R,0.07800X0.02200*%
%ADD91R,0.04980X0.02323*%
%ADD77R,0.03898X0.02717*%
%ADD80R,0.04330X0.03940*%
%ADD93R,0.08169X0.04291*%
%ADD81R,0.06000X0.05100*%
%ADD85R,0.07090X0.06300*%
%ADD87R,0.09252X0.06988*%
%ADD78R,0.16339X0.16142*%
%ADD98C,0.08600*%
%ADD90C,0.16000*%
X0Y0D02*
D02*
D12*
X2678Y953D02*
Y1014D01*
X2678*
X2703Y1015D02*
X2728D01*
X2753Y990*
Y815*
X3615Y2715D02*
Y2740D01*
X3815*
X3890Y2315D02*
X4040D01*
X4153Y2115D02*
Y2303D01*
D02*
D14*
X415Y765D02*
Y930D01*
X428Y1593D02*
Y1465D01*
X915Y765D02*
Y1040D01*
X928Y1465D02*
X1053D01*
X1390Y1240D02*
X1265D01*
X1613D02*
X1390D01*
X1678Y1015D02*
Y1090D01*
X1753*
X1678D02*
X1590D01*
X2103Y1728D02*
X1943D01*
X2103Y1965D02*
Y1728D01*
X2240Y4328D02*
X2190Y4278D01*
X2490Y1165D02*
X2540D01*
X2765Y2753D02*
X2766Y2865D01*
Y2677D02*
X2765Y2753D01*
X2815Y2478D02*
X3153D01*
X2878Y3028D02*
X3328D01*
X3453Y2903*
Y2890*
X2940Y1165D02*
Y1202D01*
X3053*
X2965Y3528D02*
X2980D01*
X3011Y3228D02*
X3315D01*
X3053Y1403D02*
Y2090D01*
Y2103*
X3078*
X3153Y2178*
Y2278*
X2953*
X3153Y2478D02*
X3253D01*
X3315Y1528D02*
X3390D01*
X3353Y3828D02*
Y3765D01*
Y3828D02*
Y3890D01*
X3453Y2590D02*
X3678D01*
X3528Y1393D02*
X3628D01*
Y1378*
X3615Y2028D02*
Y2128D01*
Y2790D02*
Y2890D01*
Y2790D02*
X3453D01*
X3628Y1665D02*
Y1378D01*
X3790Y1890D02*
Y1965D01*
X3803Y877D02*
X3865D01*
X3803D02*
Y940D01*
X3853Y3315D02*
X3915D01*
X3853D02*
Y3253D01*
Y3315D02*
Y3378D01*
X3965Y1990D02*
Y2078D01*
Y2370D02*
Y2490D01*
X4028Y3003D02*
X4090Y3065D01*
X4103*
X4065Y1990D02*
Y2115D01*
X4165Y1990D02*
Y2115D01*
X4265Y1990D02*
Y2078D01*
Y2807D02*
X4353D01*
Y2803*
X4978Y2403D02*
Y2465D01*
D02*
D16*
X5015Y234D02*
X5018Y228D01*
X5024Y224*
X5037*
X5043Y228*
X5046Y234*
X5043Y240*
X5037Y243*
X5024*
X5018Y246*
X5015Y253*
X5018Y259*
X5024Y262*
X5037*
X5043Y259*
X5046Y253*
X5074Y224D02*
X5087D01*
X5081D02*
Y262D01*
X5074D02*
X5087D01*
X5115Y224D02*
Y262D01*
X5134*
X5140Y259*
X5143Y256*
X5146Y249*
Y237*
X5143Y231*
X5140Y228*
X5134Y224*
X5115*
X5165D02*
Y262D01*
X5196*
X5190Y243D02*
X5165D01*
Y224D02*
X5196D01*
X5271D02*
X5284D01*
X5278D02*
Y262D01*
X5271Y256*
D02*
D25*
X790Y465D03*
Y4008D03*
X1378Y753D03*
Y3553D03*
X4078Y753D03*
Y3553D03*
X4727Y464D03*
Y4008D03*
D02*
D26*
X265Y1815D03*
X553Y1303D03*
X2040Y2378D03*
X2103Y1728D03*
X2315Y1628D03*
X3253Y1127D03*
X3503Y1178D03*
X3553Y1853D03*
D02*
D27*
X2503Y778D03*
Y877D03*
X2603Y778D03*
Y877D03*
X2703Y778D03*
Y877D03*
X2803Y778D03*
Y877D03*
X2903Y778D03*
Y877D03*
X3003Y778D03*
Y877D03*
X3103Y778D03*
Y877D03*
X3203Y778D03*
Y877D03*
X3303Y778D03*
Y877D03*
X3403Y778D03*
Y877D03*
X3503Y778D03*
Y877D03*
X3603Y778D03*
Y877D03*
X3703Y778D03*
Y877D03*
X3803Y778D03*
Y877D03*
D02*
D28*
X1940Y1340D03*
X5040Y3753D03*
D02*
D29*
X2040Y1340D03*
X2140D03*
X2240D03*
X5140Y3753D03*
D02*
D72*
X2953Y490D03*
X5040Y3978D03*
D02*
D73*
X2653Y390D03*
Y490D03*
X2753Y390D03*
Y490D03*
X2853Y390D03*
Y490D03*
X2953Y390D03*
X5040Y4078D03*
X5140Y3978D03*
Y4078D03*
D02*
D74*
X1587Y1628D03*
Y1678D03*
Y1728D03*
Y1778D03*
Y1828D03*
Y1878D03*
Y1928D03*
Y1978D03*
Y2028D03*
X1943Y1628D03*
Y1678D03*
Y1728D03*
Y1778D03*
Y1828D03*
Y1878D03*
Y1928D03*
Y1978D03*
Y2028D03*
X2035Y778D03*
Y828D03*
Y877D03*
Y928D03*
X2221Y778D03*
Y828D03*
Y877D03*
Y928D03*
D02*
D75*
X2627Y1014D03*
Y1166D03*
X2652Y1014D03*
Y1166D03*
X2678Y1014D03*
Y1166D03*
X2703Y1014D03*
Y1166D03*
D02*
D76*
X1605Y1515D03*
X1675D03*
X1755Y2165D03*
X1793Y2303D03*
X1825Y2165D03*
X1863Y2303D03*
X2105Y1002D03*
X2175D03*
X2418Y1328D03*
Y1415D03*
Y1503D03*
X2488Y1328D03*
Y1415D03*
Y1503D03*
X2493Y1252D03*
X2563D03*
X2980Y3428D03*
X3050D03*
D02*
D77*
X1789Y2390D03*
Y2465D03*
X1891Y2390D03*
Y2428D03*
Y2465D03*
X2664Y2603D03*
Y2640D03*
Y2677D03*
X2766Y2603D03*
Y2677D03*
X3689Y1815D03*
Y1853D03*
Y1890D03*
X3701Y2303D03*
Y2377D03*
X3791Y1815D03*
Y1890D03*
X3803Y2303D03*
Y2340D03*
Y2377D03*
D02*
D78*
X348Y2665D03*
Y2890D03*
Y3115D03*
Y3340D03*
Y3565D03*
X557Y2665D03*
Y2890D03*
Y3115D03*
Y3340D03*
Y3565D03*
D02*
D79*
X953Y2865D03*
Y2990D03*
Y3115D03*
Y3240D03*
Y3365D03*
X1028Y2865D03*
Y2990D03*
Y3115D03*
Y3240D03*
Y3365D03*
X1603Y3028D03*
Y3503D03*
X1678Y3028D03*
Y3503D03*
X3215Y1678D03*
Y1778D03*
X3290Y1678D03*
Y1778D03*
X4090Y2115D03*
X4165D03*
X4215Y1428D03*
Y1553D03*
X4290Y1428D03*
Y1553D03*
D02*
D80*
X2340Y880D03*
Y950D03*
X2353Y568D03*
Y638D03*
X2503Y1018D03*
Y1088D03*
X3428Y1218D03*
Y1288D03*
X3528Y1393D03*
Y1463D03*
X4028Y2818D03*
Y2888D03*
D02*
D81*
X2240Y3415D03*
Y3490D03*
X2265Y2940D03*
Y3015D03*
X2390Y4253D03*
Y4328D03*
X2953Y2315D03*
Y2390D03*
X2978Y2678D03*
Y2753D03*
Y2840D03*
Y2915D03*
X3028Y4253D03*
Y4328D03*
X3353Y4003D03*
Y4078D03*
X3428Y1378D03*
Y1453D03*
X3590Y2128D03*
Y2203D03*
Y2303D03*
Y2378D03*
X3615Y2715D03*
Y2790D03*
X3953Y4003D03*
Y4078D03*
D02*
D82*
X1815Y2828D03*
Y2928D03*
Y3028D03*
Y3128D03*
Y3303D03*
Y3403D03*
Y3503D03*
Y3603D03*
X2115Y2828D03*
Y2928D03*
Y3028D03*
Y3128D03*
Y3303D03*
Y3403D03*
Y3503D03*
Y3603D03*
X3153Y2178D03*
Y2278D03*
Y2378D03*
Y2478D03*
Y2590D03*
Y2690D03*
Y2790D03*
Y2890D03*
X3453Y2178D03*
Y2278D03*
Y2378D03*
Y2478D03*
Y2590D03*
Y2690D03*
Y2790D03*
Y2890D03*
D02*
D83*
X4115Y2603D03*
Y2807D03*
X4165Y2603D03*
Y2807D03*
X4215Y2603D03*
Y2807D03*
X4265Y2603D03*
Y2807D03*
D02*
D84*
X3965Y1690D03*
Y1990D03*
X4065Y1690D03*
Y1990D03*
X4165Y1690D03*
Y1990D03*
X4265Y1690D03*
Y1990D03*
D02*
D85*
X2365Y3373D03*
Y3483D03*
X2390Y2898D03*
Y3008D03*
X2778Y2322D03*
Y2433D03*
X3728Y2685D03*
Y2795D03*
X3965Y2260D03*
Y2370D03*
D02*
D86*
X2648Y2865D03*
X2758D03*
X3348Y2003D03*
X3458D03*
X4098Y2228D03*
X4207D03*
D02*
D87*
X4503Y1819D03*
Y1986D03*
D02*
D88*
X4982Y3328D03*
X5148D03*
D02*
D89*
X4763Y1803D03*
Y1903D03*
Y2003D03*
Y2103D03*
Y2763D03*
Y2863D03*
Y2963D03*
Y3063D03*
X4863Y1753D03*
Y1853D03*
Y1953D03*
Y2053D03*
Y2713D03*
Y2813D03*
Y2913D03*
Y3013D03*
D02*
D90*
X5113Y1703D03*
Y2153D03*
Y2663D03*
Y3113D03*
D02*
D91*
X2794Y3128D03*
Y3178D03*
Y3228D03*
Y3278D03*
X3011Y3128D03*
Y3178D03*
Y3228D03*
Y3278D03*
D02*
D92*
X2590Y4061D03*
Y4269D03*
X2828Y4061D03*
Y4269D03*
X3540Y4061D03*
Y4269D03*
X3778Y4061D03*
Y4269D03*
D02*
D93*
X608Y949D03*
Y1040D03*
Y1131D03*
X633Y1637D03*
Y1728D03*
Y1818D03*
D02*
D94*
X858Y1040D03*
X883Y1728D03*
D02*
D95*
X673Y1303D03*
X698Y1965D03*
X807Y1303D03*
X832Y1965D03*
D02*
D96*
X415Y930D03*
Y1150D03*
X428Y1593D03*
Y1813D03*
D02*
D97*
X3053Y1202D03*
Y1403D03*
X3103Y1202D03*
Y1403D03*
X3153Y1202D03*
Y1403D03*
X3203Y1202D03*
Y1403D03*
X3253Y1202D03*
Y1403D03*
X3303Y1202D03*
Y1403D03*
X3353Y1202D03*
Y1403D03*
D02*
D98*
X415Y765D03*
X428Y1465D03*
X915Y765D03*
X928Y1465D03*
D02*
D99*
X1390Y1240D03*
X1590Y3228D03*
Y3653D03*
X1678Y1090D03*
X1703Y2303D03*
X1903Y953D03*
X2240Y4328D03*
X2490Y1165D03*
X2590Y2765D03*
X2603Y1415D03*
X2765Y2753D03*
X2878Y3028D03*
X2940Y1202D03*
X2965Y3528D03*
X3053Y2090D03*
X3140Y4328D03*
X3153Y1603D03*
X3203Y3428D03*
X3315Y1528D03*
Y3228D03*
X3353Y3828D03*
X3453Y1690D03*
X3615Y2028D03*
Y2890D03*
X3628Y1378D03*
X3790Y1965D03*
X3853Y3315D03*
X3965Y2490D03*
X4103Y3065D03*
X4353Y2803D03*
X4978Y2465D03*
Y2853D03*
D02*
D100*
X348Y2665D02*
X340D01*
Y2403*
X698Y2045*
Y1965*
X348Y2890D02*
Y2665D01*
Y3115D02*
Y2890D01*
Y3115D02*
Y3340D01*
Y3565D02*
Y3915D01*
X442Y4008*
X790*
X348Y3565D02*
Y3340D01*
X415Y930D02*
Y928D01*
Y1150D02*
X608D01*
Y1131*
Y930D02*
Y949D01*
Y1131D02*
Y1252D01*
X658Y1303*
X673*
X627Y1593D02*
Y1603D01*
X633*
Y1728D02*
X883D01*
X633Y1818D02*
X428D01*
Y1813*
X698Y1965D02*
X671D01*
X633Y1928*
Y1818*
X790Y4008D02*
Y4015D01*
X1278*
X1378Y3915*
Y3553*
X807Y1303D02*
X828D01*
X865Y1265*
Y1040*
X858*
X608*
X858Y1090D02*
Y1040D01*
X883Y1622D02*
Y1728D01*
Y1928*
X846Y1965*
X832*
X915Y1040D02*
X858D01*
X1053Y1465D02*
Y1453D01*
X1587Y1628D02*
X1665D01*
X1703Y1665*
Y2165*
X1755*
X1587Y1628D02*
Y1240D01*
X1613*
X1590Y3165D02*
Y3028D01*
X1603*
X1590Y3590D02*
Y3503D01*
X1603*
X1793Y2303D02*
X1778D01*
Y2390*
X1789*
X1863Y2303D02*
X1893D01*
X1943Y2253*
Y2028*
X1940Y1340D02*
Y1240D01*
X1943Y1728D02*
Y1778D01*
Y1728D02*
X1878D01*
X1790Y1640*
Y1565*
X1740Y1515*
X1675*
X1943Y1778D02*
Y1828D01*
Y2028D02*
X2040D01*
X2103Y1965*
X2028Y3128D02*
X1965Y3190D01*
Y3440*
X2028Y3503*
X2035Y828D02*
Y778D01*
Y877D02*
X1940D01*
X1903Y915*
X2035Y877D02*
X2221D01*
X2035D02*
Y828D01*
Y928D02*
Y877D01*
X2053Y2465D02*
X2103Y2415D01*
Y2403*
Y1965*
X2105Y1002D02*
Y993D01*
X2040Y928*
X2035*
X2175Y1002D02*
X2221D01*
X2340*
X2221D02*
Y928D01*
X2240Y3490D02*
X2365D01*
Y3483*
X2265Y3015D02*
Y3028D01*
X2390*
Y3008*
X2265Y3028D02*
Y3015D01*
X2328Y3303D02*
X2365Y3340D01*
Y3373*
X2340Y950D02*
Y1002D01*
Y1090*
X2353Y490D02*
X1753D01*
X1678Y565*
Y1015*
X2353Y568D02*
Y490D01*
X2390Y2898D02*
Y2865D01*
X2353Y2828*
X2228*
X2418Y1328D02*
X2415D01*
Y1240*
X2418Y1415D02*
Y1503D01*
Y1415D02*
Y1328D01*
X2478Y2603D02*
X2153D01*
X2103Y2553*
Y2403*
X2478Y2603D02*
X2578D01*
Y2603*
X2615*
Y2603*
X2503Y877D02*
Y990D01*
X2528Y1015*
X2503Y877D02*
Y778D01*
X2540Y1165D02*
X2563D01*
Y1252*
X2590Y490D02*
X2353D01*
X2590Y4253D02*
X2390D01*
X2648Y2865D02*
X2565D01*
X2503Y2803*
Y2603*
X2478*
X2652Y1090D02*
X2865D01*
X2940Y1165*
X2665Y2515D02*
X2740Y2440D01*
X2778*
Y2433*
X2758Y2865D02*
Y2840D01*
X2978*
X2766Y2865D02*
X2758D01*
X2778Y2433D02*
Y2440D01*
X2815Y2478*
X2953Y2278D02*
Y2315D01*
X2778*
Y2322*
X2978Y2753D02*
Y2840D01*
X2980Y3428D02*
X2978D01*
X2940Y3390*
Y3205*
X2968Y3178*
X3011*
X3015Y3578D02*
X3178Y3740D01*
Y4178*
X3269Y4269*
X3540*
X3028Y4253D02*
X2828D01*
X3253Y2478D02*
X3340Y2390D01*
Y1953*
X3515Y1778*
X3290D02*
X3365D01*
X3515*
X3353Y3765D02*
Y3378D01*
X3253Y3278*
X3011*
X3353Y3890D02*
Y4003D01*
X3390Y1528D02*
X3428Y1490D01*
Y1453*
X3515Y1778D02*
X3628Y1665D01*
X3528Y1463D02*
X3428D01*
Y1453*
X3540Y4269D02*
X3778D01*
X3590Y2128D02*
X3665D01*
X3701Y2164*
Y2190*
X3590Y2303D02*
X3701D01*
Y2303*
X3615Y2128D02*
X3590D01*
X3628Y1765D02*
Y1665D01*
X3678Y2590D02*
X3728Y2640D01*
Y2685*
X3690Y1303D02*
X3090D01*
X3053Y1340*
Y1403*
X3701Y2190D02*
Y2303D01*
X3728Y2795D02*
X4115D01*
Y2807*
X3728Y2795D02*
X3615D01*
Y2790*
X3740Y1965D02*
X3458D01*
Y2003*
X3791Y1890D02*
Y1890D01*
X4228*
X4328Y1790*
Y1553*
X4290*
X3791Y1890D02*
X3790D01*
X3803Y2615D02*
X3728Y2690D01*
Y2685*
X3853Y3253D02*
Y3228D01*
X3753Y3128*
X3011*
X3853Y3378D02*
Y3678D01*
X3953Y3778*
Y4003*
X3915Y3315D02*
X4728D01*
X4863Y3180*
X4865*
Y3065*
X3965Y2078D02*
Y2260D01*
Y2228*
X3928Y2190*
X3701*
X3965Y2377D02*
Y2370D01*
X4028Y2888D02*
Y3003D01*
X4078Y753D02*
X4440D01*
X4727Y466*
Y464*
X4078Y3553D02*
X4278D01*
X4727Y4002*
Y4008*
X4090Y2115D02*
Y2228D01*
X4098*
X4265Y2078D02*
Y2228D01*
X4207*
X4290Y1428D02*
Y1553D01*
X4503Y1819D02*
Y1703D01*
X4528Y1678*
X4915*
X4940Y1703*
Y1915*
X4915Y1940*
X4703Y1903D02*
X4640D01*
X4559Y1984*
X4765Y2165D02*
Y2213D01*
X4978Y2403*
X4982Y3328D02*
Y2992D01*
X4903Y2913*
X5040Y2853D02*
X5203D01*
X5290Y2940*
Y3253*
X5215Y3328*
X5148*
X5140Y3915D02*
Y3753D01*
X5148Y3328D02*
X5140D01*
Y3753*
D02*
D101*
X428Y1815D02*
Y1813D01*
X553Y1303D02*
X673D01*
X557Y2665D02*
X778D01*
X928Y2865*
X953*
X557Y3565D02*
X803D01*
X953Y3365*
Y2990D02*
X890D01*
X790Y2890*
X557*
X953Y3115D02*
X557D01*
X953Y3240D02*
X890D01*
X803Y3340*
X557*
X1587Y1678D02*
X1315D01*
X1115Y1878*
Y2815*
X1065Y2865*
X1028*
X1587Y1728D02*
X1340D01*
X1153Y1915*
Y2915*
X1077Y2990*
X1028*
X1587Y1778D02*
X1365D01*
X1190Y1953*
Y3028*
X1103Y3115*
X1028*
X1587Y1828D02*
X1378D01*
X1228Y1978*
Y3153*
X1140Y3240*
X1028*
X1587Y1878D02*
X1390D01*
X1265Y2003*
Y3278*
X1178Y3365*
X1028*
X1587Y1978D02*
X1528D01*
X1478Y2028*
Y3328*
X1553Y3403*
X1815*
X1587Y2028D02*
X1565D01*
Y2840*
X1653Y2928*
X1815*
X1590Y3228D02*
Y3165D01*
Y3653D02*
Y3590D01*
X1703Y2303D02*
X1793D01*
X1789Y2465D02*
X1677D01*
X1640Y2428*
Y2265*
X1678Y2228*
X1825*
Y2165*
X1815Y3028D02*
X1678D01*
X1815Y3503D02*
X1678D01*
X1825Y2165D02*
Y1928D01*
X1875Y1878*
X1943*
X1891Y2465D02*
X2053D01*
X1903Y915D02*
Y953D01*
X1943Y1678D02*
X1890D01*
X1865Y1653*
Y1578*
X2040Y1403*
Y1340*
X2028Y3503D02*
X2115D01*
X2040Y2378D02*
X1990Y2428D01*
X1891*
X2115Y2928D02*
Y2940D01*
X2265*
X2115Y3028D02*
X2265D01*
X2115Y3128D02*
X2028D01*
X2115D02*
Y3028D01*
Y3303D02*
X2328D01*
X2115Y3403D02*
X2240D01*
Y3415*
X2115Y3503D02*
Y3603D01*
Y3678D02*
Y3603D01*
X2228Y2828D02*
X2115D01*
X2240Y3415D02*
Y3428D01*
X2528*
X2678Y3278*
X2794*
X2240Y3490D02*
X2115D01*
Y3503*
X2240Y4328D02*
X2390D01*
X2265Y2940D02*
Y2953D01*
X2515*
X2690Y3128*
X2794*
X2315Y1628D02*
X1943D01*
X2328Y828D02*
X2221D01*
X2340Y880D02*
X2328D01*
Y828*
X2353Y638D02*
Y703D01*
X2303*
X2278Y728*
Y778*
X2221*
X2488Y1503D02*
Y1593D01*
X2403Y1678*
X1943*
X2493Y1252D02*
Y1328D01*
X2488*
X2528Y1015D02*
X2627D01*
Y1014*
X2590Y4269D02*
Y4253D01*
X2603Y1415D02*
X2488D01*
X2615Y2603D02*
X2664Y2603D01*
X2627Y1166D02*
Y1190D01*
X2640*
Y1202*
Y1291*
X2603Y1328*
X2488*
X2652Y1014D02*
Y1090D01*
Y1166D02*
Y1202D01*
X2640*
X2653Y490D02*
X2590D01*
X2664Y2603D02*
X2665D01*
Y2515*
X2664Y2640D02*
X2615D01*
X2590Y2665*
Y2765*
X2678Y1166D02*
Y1365D01*
X2628Y1415*
X2603*
X2703Y778D02*
Y753D01*
X2653Y703*
X2353*
X2703Y877D02*
X2678D01*
X2653Y853*
Y753*
X2628Y728*
X2353*
X2328Y753*
Y828*
X2703Y877D02*
Y928D01*
X2678Y953*
X2703Y1014D02*
Y1015D01*
Y1166D02*
Y1465D01*
X2666Y1503*
X2488*
X2753Y490D02*
Y653D01*
X2853Y753*
Y803*
X2828Y828*
X2803*
Y877*
X2753Y815D02*
X2715Y778D01*
X2703*
X2766Y2603D02*
X2978D01*
Y2678*
X2794Y3228D02*
X2840D01*
X2853Y3240*
Y3553*
X2603Y3803*
Y4061*
X2590*
X2828D02*
Y3815D01*
X2890Y3753*
Y3203*
X2865Y3178*
X2794*
X2828Y4253D02*
Y4269D01*
X2853Y390D02*
X2878D01*
X2903Y415*
Y553*
X2928Y578*
X2990*
X3153Y740*
Y853*
X3128Y877*
X3103*
X2853Y490D02*
Y578D01*
X2940Y665*
X2978*
X3053Y740*
Y840*
X3015Y877*
X3003*
X2903D02*
X2928D01*
X2953Y853*
Y740*
X2803Y590*
Y428*
X2765Y390*
X2753*
X2953D02*
X3040D01*
X3353Y703*
Y853*
X3328Y877*
X3303*
X2953Y490D02*
X3015D01*
X3253Y728*
Y840*
X3215Y877*
X3203*
X2953Y2390D02*
X3153D01*
Y2378*
X2965Y3528D02*
X3015Y3578D01*
X2978Y2678D02*
X3153D01*
Y2690*
X2980Y3528D02*
Y3428D01*
X3028Y4328D02*
X3140D01*
X3050Y3428D02*
X3203D01*
X3153Y1202D02*
Y1077D01*
X3203Y1028*
X3553*
X3603Y978*
Y877*
X3153Y1403D02*
Y1603D01*
Y2378D02*
X3240D01*
Y1890*
X3103Y1753*
Y1403*
X3153Y2790D02*
X3090D01*
X3065Y2815*
Y2878*
X3028Y2915*
X2978*
X3203Y1202D02*
Y1077D01*
X3228Y1053*
X3628*
X3703Y978*
Y877*
X3203Y1403D02*
Y1678D01*
X3215*
Y1778D02*
Y1678D01*
X3253Y1202D02*
Y1127D01*
X3290Y1678D02*
Y1690D01*
X3453*
X3290Y1678D02*
Y1640D01*
X3253Y1603*
Y1403*
X3353D02*
Y1378D01*
X3428*
X3353Y4078D02*
X3540D01*
Y4061*
X3428Y1218D02*
X3353D01*
Y1202*
X3453Y2278D02*
X3465D01*
X3540Y2203*
X3590*
X3453Y2378D02*
X3701D01*
Y2377*
X3453Y2690D02*
X3615D01*
Y2715*
X3503Y877D02*
Y953D01*
X3453Y1002*
X3178*
X3103Y1077*
Y1202*
X3503Y1178D02*
X3428D01*
Y1218*
X3553Y1853D02*
X3689D01*
Y1815D02*
X3678D01*
X3628Y1765*
X3778Y4061D02*
X3953D01*
Y4078*
X3790Y1965D02*
X3740D01*
X3791Y1815D02*
Y1815D01*
X4115*
X4165Y1765*
Y1690*
X3803Y2340D02*
X3865D01*
X3890Y2315*
X3803Y2377D02*
X3965D01*
X3803D02*
X3803D01*
Y2615*
X3815Y2740D02*
X3928D01*
X3978Y2690*
X4228*
X4265Y2653*
Y2603*
X4040Y2315D02*
X4115Y2390D01*
Y2603*
X4065Y2115D02*
X4090D01*
X4165D02*
X4153D01*
X4165Y2603D02*
X4215D01*
X4165D02*
Y2315D01*
X4153Y2303*
X4165Y2807D02*
Y2753D01*
X4190Y2728*
X4553*
X4215Y1428D02*
X4165D01*
X4065Y1528*
Y1690*
X4215Y1553D02*
Y1565D01*
X4165Y1615*
Y1690*
X4215Y2807D02*
Y2863D01*
X4265Y2913*
X4863*
X4503Y1986D02*
X4559D01*
Y1984*
X4553Y2728D02*
X4688Y2863D01*
X4763*
X4559Y1984D02*
X4553Y1990D01*
Y2728*
X4763Y1903D02*
X4703D01*
X4763Y2103D02*
X4765Y2165D01*
X4865Y3065D02*
Y3013D01*
X4863*
X4903Y2913D02*
X4863D01*
X4915Y1940D02*
X4863D01*
Y1953*
X4978Y2853D02*
X5040D01*
Y4165D02*
Y4078D01*
X5140Y3978D02*
Y3915D01*
D02*
D102*
X265Y1815D02*
X428D01*
D02*
D103*
X240Y953D02*
Y1540D01*
X293Y1593*
X428*
X415Y928D02*
X265D01*
X240Y953*
X415Y930D02*
X608D01*
X428Y1593D02*
X627D01*
X633Y1603D02*
Y1637D01*
X1053Y1453D02*
X883Y1622D01*
X1265Y1240D02*
X1053Y1453D01*
X1590Y1090D02*
X858D01*
X1753D02*
X2340D01*
X1940Y1240D02*
X1613D01*
X2190Y4278D02*
X2115Y4203D01*
Y3678*
X2340Y1090D02*
X2652D01*
X2415Y1240D02*
X1940D01*
X3803Y940D02*
Y1178D01*
Y1190*
X3690Y1303*
X3803Y1178D02*
X5115D01*
X5378Y1440*
Y4153*
X5290Y4240*
X5115*
X5040Y4165*
X3865Y877D02*
X3903Y840D01*
Y365*
X3790Y253*
X440*
X240Y453*
Y953*
X0Y0D02*
M02*
