M48
INCH
T1C00.024
T2C00.030
T3C00.032
T4C00.035
T5C00.040
T6C00.062
T7C00.128
T8C00.154
%
T001
X00265Y01815
X00553Y01303
X02040Y02378
X02103Y01728
X02315Y01628
X03253Y01128
X03503Y01178
X03553Y01853
T002
X02503Y00778
X02503Y00878
X02603Y00778
X02603Y00878
X02703Y00778
X02703Y00878
X02803Y00778
X02803Y00878
X02903Y00778
X02903Y00878
X03003Y00778
X03003Y00878
X03103Y00778
X03103Y00878
X03203Y00778
X03203Y00878
X03303Y00778
X03303Y00878
X03403Y00778
X03403Y00878
X03503Y00778
X03503Y00878
X03603Y00778
X03603Y00878
X03703Y00778
X03703Y00878
X03803Y00778
X03803Y00878
T003
X01390Y01240
X01590Y03228
X01590Y03653
X01678Y01090
X01703Y02303
X01815Y02828
X01815Y02928
X01815Y03028
X01815Y03128
X01815Y03303
X01815Y03403
X01815Y03503
X01815Y03603
X01903Y00953
X02115Y02828
X02115Y02928
X02115Y03028
X02115Y03128
X02115Y03303
X02115Y03403
X02115Y03503
X02115Y03603
X02240Y04328
X02490Y01165
X02590Y02765
X02603Y01415
X02765Y02753
X02878Y03028
X02940Y01203
X02965Y03528
X03053Y02090
X03140Y04328
X03153Y01603
X03153Y02178
X03153Y02278
X03153Y02378
X03153Y02478
X03153Y02590
X03153Y02690
X03153Y02790
X03153Y02890
X03203Y03428
X03315Y01528
X03315Y03228
X03353Y03828
X03453Y01690
X03453Y02178
X03453Y02278
X03453Y02378
X03453Y02478
X03453Y02590
X03453Y02690
X03453Y02790
X03453Y02890
X03615Y02027
X03615Y02890
X03628Y01378
X03790Y01965
X03853Y03315
X03965Y01690
X03965Y01990
X03965Y02490
X04065Y01690
X04065Y01990
X04103Y03065
X04165Y01690
X04165Y01990
X04265Y01690
X04265Y01990
X04353Y02803
X04978Y02465
X04978Y02853
T004
X04763Y01803
X04763Y01903
X04763Y02003
X04763Y02103
X04763Y02763
X04763Y02863
X04763Y02963
X04763Y03063
X04863Y01753
X04863Y01853
X04863Y01953
X04863Y02053
X04863Y02713
X04863Y02813
X04863Y02913
X04863Y03013
T005
X01940Y01340
X02040Y01340
X02140Y01340
X02240Y01340
X02653Y00390
X02653Y00490
X02753Y00390
X02753Y00490
X02853Y00390
X02853Y00490
X02953Y00390
X02953Y00490
X05040Y03753
X05040Y03978
X05040Y04077
X05140Y03753
X05140Y03978
X05140Y04077
T006
X00415Y00765
X00428Y01465
X00915Y00765
X00928Y01465
T007
X05113Y01703
X05113Y02153
X05113Y02663
X05113Y03113
T008
X00790Y00465
X00790Y04008
X01378Y00753
X01378Y03553
X04077Y00753
X04077Y03553
X04727Y00464
X04727Y04008
M30
