%FSLAX23Y23*%
%MOIN*%
G04 EasyPC Gerber Version 14.0.2 Build 2922 *
%AMT110*0 Octagon Pad at angle 0*4,1,8,-0.01243,-0.03000,0.01243,-0.03000,0.03000,-0.01243,0.03000,0.01243,0.01243,0.03000,-0.01243,0.03000,-0.03000,0.01243,-0.03000,-0.01243,-0.01243,-0.03000,0*%
%ADD110T110*%
%AMT108*0 Octagon Pad at angle 0*4,1,8,-0.01450,-0.03500,0.01450,-0.03500,0.03500,-0.01450,0.03500,0.01450,0.01450,0.03500,-0.01450,0.03500,-0.03500,0.01450,-0.03500,-0.01450,-0.01450,-0.03500,0*%
%ADD108T108*%
%ADD163O,0.06000X0.11000*%
%ADD155R,0.03940X0.04330*%
%ADD158R,0.05100X0.06000*%
%ADD165R,0.06300X0.07090*%
%ADD109R,0.06000X0.06000*%
%ADD107R,0.07000X0.07000*%
%ADD151R,0.23622X0.23622*%
%ADD150C,0.00039*%
%ADD79C,0.00787*%
%ADD106C,0.01000*%
%ADD192C,0.01500*%
%ADD114C,0.01969*%
%ADD191C,0.02362*%
%ADD190C,0.03000*%
%ADD113C,0.03200*%
%ADD189C,0.04800*%
%ADD193C,0.05000*%
%ADD112C,0.05543*%
%ADD188C,0.05600*%
%ADD187C,0.06000*%
%ADD152C,0.06000*%
%ADD161O,0.11000X0.06000*%
%ADD159R,0.04330X0.03940*%
%ADD160R,0.06000X0.05100*%
%ADD111R,0.09252X0.06988*%
%ADD177C,0.06000*%
%ADD186C,0.07000*%
%ADD174C,0.08600*%
%ADD167C,0.16000*%
X0Y0D02*
D02*
D79*
X4227Y3938D02*
X4224Y3932D01*
X4218Y3929*
X4205*
X4199Y3932*
X4196Y3938*
X4199Y3945*
X4205Y3948*
X4218*
X4224Y3951*
X4227Y3957*
X4224Y3963*
X4218Y3967*
X4205*
X4199Y3963*
X4196Y3957*
X4168Y3929D02*
X4155D01*
X4161D02*
Y3967D01*
X4168D02*
X4155D01*
X4127Y3929D02*
Y3967D01*
X4108*
X4102Y3963*
X4099Y3960*
X4096Y3954*
Y3942*
X4099Y3935*
X4102Y3932*
X4108Y3929*
X4127*
X4077D02*
Y3967D01*
X4046*
X4052Y3948D02*
X4077D01*
Y3929D02*
X4046D01*
X3952D02*
X3977D01*
X3955Y3951*
X3952Y3957*
X3955Y3963*
X3961Y3967*
X3971*
X3977Y3963*
D02*
D106*
X236Y2011D02*
X216D01*
X255Y1992D02*
Y1972D01*
Y2030D02*
Y2050D01*
X274Y2011D02*
X294D01*
X524Y1499D02*
X504D01*
X543Y1480D02*
Y1460D01*
Y1518D02*
Y1538D01*
X562Y1499D02*
X582D01*
X1248Y538D02*
X1228D01*
X1248Y4081D02*
X1228D01*
X1255Y949D02*
X1235D01*
X1255Y3749D02*
X1235D01*
X1361Y425D02*
Y405D01*
Y651D02*
Y671D01*
Y3968D02*
Y3948D01*
Y4195D02*
Y4215D01*
X1368Y836D02*
Y816D01*
Y1062D02*
Y1082D01*
Y3636D02*
Y3616D01*
Y3862D02*
Y3882D01*
X1474Y538D02*
X1494D01*
X1474Y4081D02*
X1494D01*
X1481Y949D02*
X1501D01*
X1481Y3749D02*
X1501D01*
X1759Y4155D02*
X1739D01*
X1809Y4130D02*
Y4110D01*
Y4180D02*
Y4200D01*
X1859Y4155D02*
X1879D01*
X1870Y949D02*
X1850D01*
X1870Y1149D02*
X1850D01*
X1893Y926D02*
Y906D01*
Y972D02*
Y992D01*
Y1126D02*
Y1106D01*
Y1172D02*
Y1192D01*
X1916Y949D02*
X1936D01*
X1916Y1149D02*
X1936D01*
X2055Y3024D02*
X2035D01*
X2059Y3440D02*
X2039D01*
X2093Y1905D02*
Y1885D01*
Y1943D02*
Y1963D01*
X2105Y3049D02*
Y3069D01*
X2109Y3415D02*
Y3395D01*
Y3465D02*
Y3485D01*
X2112Y1924D02*
X2132D01*
X2155Y3024D02*
X2175D01*
X2159Y3440D02*
X2179D01*
X2230Y1506D02*
Y1486D01*
Y1566D02*
Y1586D01*
X2260Y1536D02*
X2280D01*
X2457Y1361D02*
X2437D01*
X2468Y974D02*
X2448D01*
X2468Y1074D02*
X2448D01*
X2480Y1338D02*
Y1318D01*
Y1384D02*
Y1404D01*
X2493Y949D02*
Y929D01*
Y1099D02*
Y1119D01*
X2503Y1361D02*
X2523D01*
X2518Y974D02*
X2538D01*
X2518Y1074D02*
X2538D01*
X2705Y4324D02*
X2685D01*
X2747Y4294D02*
Y4274D01*
Y4354D02*
Y4374D01*
X2788Y4324D02*
X2808D01*
X3093Y2674D02*
X3073D01*
X3134Y4326D02*
X3114D01*
X3143Y2649D02*
Y2629D01*
Y2699D02*
Y2719D01*
X3159Y4301D02*
Y4281D01*
Y4351D02*
Y4371D01*
X3184Y4326D02*
X3204D01*
X3284D02*
X3264D01*
X3314Y4356D02*
Y4376D01*
X3344Y4326D02*
X3364D01*
X3393Y2786D02*
X3373D01*
X3443Y2761D02*
Y2741D01*
Y2811D02*
Y2831D01*
X3474Y1374D02*
X3454D01*
X3493Y1355D02*
Y1335D01*
Y1393D02*
Y1413D01*
Y2786D02*
X3513D01*
X3512Y1374D02*
X3532D01*
X3595Y4371D02*
X3575D01*
X3602Y1589D02*
X3582D01*
X3625Y1566D02*
Y1546D01*
Y1612D02*
Y1632D01*
X3636Y4341D02*
Y4321D01*
Y4401D02*
Y4421D01*
X3648Y1589D02*
X3668D01*
X3678Y4371D02*
X3698D01*
X3932Y2686D02*
X3912D01*
X3955Y2663D02*
Y2643D01*
Y2709D02*
Y2729D01*
X3978Y2686D02*
X3998D01*
X4052Y1589D02*
X4032D01*
X4054Y1178D02*
X4034D01*
X4068Y836D02*
Y816D01*
Y1062D02*
Y1082D01*
X4070Y3261D02*
X4050D01*
X4075Y1566D02*
Y1546D01*
Y1612D02*
Y1632D01*
X4077Y1155D02*
Y1135D01*
X4093Y3238D02*
Y3218D01*
Y3284D02*
Y3304D01*
X4098Y1589D02*
X4118D01*
X4100Y1178D02*
X4120D01*
X4116Y3261D02*
X4136D01*
X4181Y949D02*
X4201D01*
X4230Y2186D02*
X4210D01*
X4255Y2236D02*
Y2256D01*
X4280Y2186D02*
X4300D01*
X4320Y2999D02*
X4300D01*
X4343Y2976D02*
Y2956D01*
Y3022D02*
Y3042D01*
X4366Y2999D02*
X4386D01*
X4432Y446D02*
X4412D01*
X4443Y435D02*
Y415D01*
Y457D02*
Y477D01*
X4494Y304D02*
X4474D01*
X4510Y290D02*
Y270D01*
X4527Y304D02*
X4547D01*
X4617Y528D02*
X4597D01*
X4618Y745D02*
X4598D01*
X4624Y304D02*
X4604D01*
X4628Y517D02*
Y497D01*
Y539D02*
Y559D01*
X4633Y728D02*
Y708D01*
Y761D02*
Y781D01*
X4639Y528D02*
X4659D01*
X4640Y290D02*
Y270D01*
X4657Y304D02*
X4677D01*
X4775Y666D02*
X4755D01*
X4786Y655D02*
Y635D01*
Y677D02*
Y697D01*
X4884Y655D02*
Y635D01*
Y677D02*
Y697D01*
X4956Y3631D02*
X4936D01*
X4979Y3608D02*
Y3588D01*
Y3654D02*
Y3674D01*
X5002Y3631D02*
X5022D01*
X5185Y537D02*
X5165D01*
X5298Y424D02*
Y404D01*
Y650D02*
Y670D01*
X5400Y4394D02*
X5380D01*
X5402Y1338D02*
Y1318D01*
Y1372D02*
Y1392D01*
X5411Y537D02*
X5431D01*
X5423Y4371D02*
Y4351D01*
Y4417D02*
Y4437D01*
X5446Y4394D02*
X5466D01*
X5452Y3107D02*
X5432D01*
X5475Y1332D02*
Y1312D01*
Y1378D02*
Y1398D01*
Y3084D02*
Y3064D01*
Y3130D02*
Y3150D01*
X5498Y1355D02*
X5518D01*
X5498Y3107D02*
X5518D01*
X5680Y566D02*
Y546D01*
Y616D02*
Y636D01*
X5698Y3766D02*
X5678D01*
X5705Y591D02*
X5725D01*
X5721Y3743D02*
Y3723D01*
Y3789D02*
Y3809D01*
X5744Y3766D02*
X5764D01*
X5898Y827D02*
X5878D01*
X5898Y1771D02*
X5878D01*
X5905Y3196D02*
X5885D01*
X5905Y3924D02*
X5885D01*
X5909Y2436D02*
X5889D01*
X5909Y3105D02*
X5889D01*
X5909Y3764D02*
X5889D01*
X5928Y797D02*
Y777D01*
Y857D02*
Y877D01*
Y1741D02*
Y1721D01*
Y1801D02*
Y1821D01*
X5932Y3226D02*
Y3246D01*
Y3894D02*
Y3874D01*
Y3954D02*
Y3974D01*
X5932Y2413D02*
Y2393D01*
Y3082D02*
Y3062D01*
Y3742D02*
Y3722D01*
Y3787D02*
Y3807D01*
X5955Y2436D02*
X5975D01*
X5955Y3105D02*
X5975D01*
X5955Y3764D02*
X5975D01*
X5958Y827D02*
X5978D01*
X5958Y1771D02*
X5978D01*
X5958Y3196D02*
X5978D01*
X5958Y3924D02*
X5978D01*
D02*
D107*
X1930Y1536D03*
X3314Y4226D03*
D02*
D108*
X2030Y1536D03*
X2130D03*
X2230D03*
X3314Y4326D03*
D02*
D109*
X3159Y4226D03*
D02*
D110*
X3059D03*
Y4326D03*
X3159D03*
D02*
D111*
X2747Y4158D03*
Y4324D03*
X3636Y4205D03*
Y4371D03*
D02*
D112*
X5932Y2136D03*
Y2236D03*
Y2336D03*
Y2436D03*
Y2805D03*
Y2905D03*
Y3005D03*
Y3105D03*
Y3464D03*
Y3564D03*
Y3664D03*
Y3764D03*
X6032Y2086D03*
Y2186D03*
Y2286D03*
Y2386D03*
Y2755D03*
Y2855D03*
Y2955D03*
Y3055D03*
Y3414D03*
Y3514D03*
Y3614D03*
Y3714D03*
D02*
D113*
X2798Y645D03*
X2869Y1509D03*
X2896Y599D03*
X2983Y1509D03*
X2995Y597D03*
X3093Y524D03*
X3841Y440D03*
X3963Y280D03*
X4008Y548D03*
Y597D03*
Y646D03*
Y715D03*
X4026Y339D03*
X4087Y184D03*
Y479D03*
Y528D03*
X4156Y233D03*
X4392Y617D03*
X4402Y331D03*
X4443Y446D03*
X4510D03*
X4589D03*
X4628Y528D03*
X4648Y2202D03*
X4707Y479D03*
Y666D03*
X4786D03*
X4827Y749D03*
X4884Y666D03*
X4924Y434D03*
Y1079D03*
Y1237D03*
Y1670D03*
X4983Y390D03*
Y1079D03*
Y1237D03*
Y1552D03*
X5042Y331D03*
Y1076D03*
Y1237D03*
Y1453D03*
X5077Y3789D03*
X5117Y3709D03*
X5229Y902D03*
Y961D03*
Y1020D03*
X5485Y902D03*
Y961D03*
Y1020D03*
D02*
D114*
X255Y1636D02*
Y2011D01*
D02*
D150*
X1873Y2992D02*
G75*
G02X1870Y2996I20J16D01*
G01*
G75*
G02X1830Y2976I-40J27*
G01*
X1780*
G75*
G02Y3072J48*
G01*
X1830*
G75*
G02X1867Y3055J-48*
G01*
Y3092*
G75*
G02X1830Y3076I-37J31*
G01*
X1780*
G75*
G02Y3172J48*
G01*
X1830*
G75*
G02X1867Y3155J-48*
G01*
Y3192*
G75*
G02X1830Y3176I-37J31*
G01*
X1780*
G75*
G02Y3272J48*
G01*
X1830*
G75*
G02X1867Y3255J-48*
G01*
Y3292*
G75*
G02X1830Y3276I-37J31*
G01*
X1780*
G75*
G02Y3372J48*
G01*
X1830*
G75*
G02X1867Y3355J-48*
G01*
Y3405*
G75*
G02X1834Y3392I-33J35*
G01*
X1784*
G75*
G02Y3488J48*
G01*
X1834*
G75*
G02X1867Y3475J-48*
G01*
Y3505*
G75*
G02X1834Y3492I-33J35*
G01*
X1784*
G75*
G02Y3588J48*
G01*
X1834*
G75*
G02X1867Y3575J-48*
G01*
Y3605*
G75*
G02X1834Y3592I-33J35*
G01*
X1784*
G75*
G02Y3688J48*
G01*
X1834*
G75*
G02X1867Y3675J-48*
G01*
Y3705*
G75*
G02X1834Y3692I-33J35*
G01*
X1784*
G75*
G02Y3788J48*
G01*
X1834*
G75*
G02X1867Y3775J-48*
G01*
Y3820*
G75*
G02X1834Y3807I-33J35*
G01*
X1784*
G75*
G02Y3903J48*
G01*
X1834*
G75*
G02X1867Y3890J-48*
G01*
Y3920*
G75*
G02X1834Y3907I-33J35*
G01*
X1784*
G75*
G02Y4003J48*
G01*
X1834*
G75*
G02X1867Y3990J-48*
G01*
Y4002*
X1856Y4012*
G75*
G02X1834Y4007I-22J43*
G01*
X1784*
G75*
G02Y4103J48*
G01*
X1834*
G75*
G02X1882Y4059J-48*
G01*
X1910Y4031*
G75*
G02X1918Y4013I-18J-18*
G01*
Y3757*
X2039*
G75*
G02X2084Y3788I45J-17*
G01*
X2134*
G75*
G02X2179Y3757J-48*
G01*
X2714*
Y4093*
G75*
G02X2712Y4103I33J11*
G01*
G75*
G02X2712Y4105I35J0*
G01*
X2682*
Y4211*
X2806*
X2841Y4246*
G75*
G02X2865Y4256I23J-23*
G01*
X2896*
Y4485*
X652*
Y4013*
X101*
Y607*
X652*
Y154*
X4001*
Y317*
G75*
G02X3992Y339I26J23*
G01*
G75*
G02X4060I34*
G01*
G75*
G02X4052Y317I-34*
G01*
Y172*
X4055*
G75*
G02X4062Y206I32J12*
G01*
Y457*
G75*
G02X4053Y478I26J23*
G01*
X3997Y422*
G75*
G02X3979Y414I-18J18*
G01*
X3864*
G75*
G02X3807Y440I-23J26*
G01*
G75*
G02X3864Y465I34*
G01*
X3968*
X4018Y515*
G75*
G02X3975Y542I-10J33*
G01*
X3182*
X3146Y506*
G75*
G02X3142Y503I-18J18*
G01*
X3550*
G75*
G02X3568Y495I0J-26*
G01*
X3757Y306*
X3941*
G75*
G02X3997Y280I23J-26*
G01*
G75*
G02X3941Y255I-34*
G01*
X3747*
G75*
G02X3729Y262I0J26*
G01*
X3539Y452*
X3034*
G75*
G02X3016Y459I0J26*
G01*
X2976Y499*
X2924*
G75*
G02X2906Y506I0J26*
G01*
X2878Y534*
G75*
G02X2871Y552I18J18*
G01*
Y577*
G75*
G02X2869Y619I26J23*
G01*
X2820*
G75*
G02X2764Y645I-22J26*
G01*
G75*
G02X2817Y674I34*
G01*
X3988*
G75*
G02X4032Y622I21J-27*
G01*
G75*
G02Y573I-24J-25*
G01*
G75*
G02X4041Y538I-24J-25*
G01*
X4049Y546*
G75*
G02X4064Y554I18J-18*
G01*
G75*
G02X4111Y504I23J-25*
G01*
G75*
G02X4113Y457I-24J-25*
G01*
Y206*
G75*
G02X4119Y172I-26J-23*
G01*
X4750*
X4802Y224*
Y645*
G75*
G02X4760Y666I-16J21*
G01*
G75*
G02X4802Y687I26*
G01*
Y722*
G75*
G02X4800Y774I26J27*
G01*
Y815*
X4707*
Y911*
X4715*
Y921*
X4711*
Y1017*
X4715*
Y1052*
X4694Y1074*
X4536*
Y468*
G75*
G02Y423I-26J-23*
G01*
Y412*
X4550*
Y337*
X4471*
Y412*
X4485*
Y423*
G75*
G02Y468I26J23*
G01*
Y1074*
X4342*
G75*
G02X4264Y1107I-32J33*
G01*
G75*
G02X4342Y1140I46*
G01*
X4707*
G75*
G02X4731Y1130I0J-33*
G01*
X4772Y1089*
G75*
G02X4782Y1066I-23J-23*
G01*
Y1017*
X4806*
Y1180*
X4223*
G75*
G02X4205Y1187I0J26*
G01*
X4181Y1211*
X4096*
G75*
G02X4116Y1178I-18J-33*
G01*
G75*
G02X4039I-38*
G01*
G75*
G02X4059Y1211I38*
G01*
X4041*
X4017Y1187*
G75*
G02X3999Y1180I-18J18*
G01*
X3642*
Y1166*
X3497*
Y1180*
X3458*
X3418Y1140*
Y1114*
G75*
G02X3441Y1074I-26J-41*
G01*
G75*
G02X3345I-48*
G01*
G75*
G02X3367Y1114I48*
G01*
Y1138*
X3357Y1148*
X3268*
G75*
G02X3250Y1156I0J26*
G01*
X3225Y1181*
G75*
G02X3217Y1199I18J18*
G01*
Y1290*
G75*
G02X3201Y1324I26J33*
G01*
G75*
G02X3285I42*
G01*
G75*
G02X3268Y1290I-42*
G01*
Y1209*
X3278Y1199*
X3368*
G75*
G02X3386Y1192I0J-26*
G01*
X3392Y1186*
X3429Y1224*
G75*
G02X3447Y1231I18J-18*
G01*
X3497*
Y1245*
X3642*
Y1231*
X3988*
X4012Y1255*
G75*
G02X4030Y1263I18J-18*
G01*
X4191*
G75*
G02X4210Y1255I0J-26*
G01*
X4234Y1231*
X4822*
G75*
G02X4840I9J-26*
G01*
X4890*
G75*
G02X4898Y1259I34J6*
G01*
Y1648*
G75*
G02X4946Y1696I26J23*
G01*
X5069*
Y1718*
X5231*
Y1622*
X5221*
Y1600*
X5231*
Y1504*
X5221*
Y1344*
X5231*
Y1322*
X5240*
G75*
G02X5253Y1334I38J-26*
G01*
Y1355*
G75*
G02X5278Y1381I26*
G01*
X5294*
Y1395*
X5369*
Y1315*
X5320*
G75*
G02X5240Y1270I-42J-19*
G01*
X5231*
Y1248*
X5074*
G75*
G02X5075Y1231I-32J-11*
G01*
X6050*
G75*
G02X6068Y1224I0J-26*
G01*
X6194Y1098*
G75*
G02X6201Y1079I-18J-18*
G01*
Y688*
G75*
G02X6208Y627I-26J-33*
G01*
X6577*
Y1965*
X6350*
G75*
G02X6214I-68J70*
G01*
X3568*
Y1949*
G75*
G02X3561Y1931I-26J0*
G01*
X3498Y1868*
G75*
G02X3481Y1861I-18J18*
G01*
G75*
G02X3397Y1886I-38J26*
G01*
G75*
G02X3476Y1918I46*
G01*
X3517Y1959*
Y1965*
X3211*
Y2128*
X3168*
G75*
G02X3137Y2150J33*
G01*
X3100Y2186*
G75*
G02X3101Y2182I-27J-5*
G01*
Y1987*
X3162Y1926*
G75*
G02X3170Y1907I-19J-19*
G01*
Y1836*
G75*
G02X3160Y1756I-27J-37*
G01*
X3272*
G75*
G02X3336I32J-33*
G01*
X3748*
G75*
G02X3826Y1723I32J-33*
G01*
G75*
G02X3748Y1690I-46*
G01*
X3336*
G75*
G02X3272I-32J33*
G01*
X3042*
X2960Y1608*
Y1534*
G75*
G02X2991Y1542I23J-25*
G01*
X3298*
G75*
G02X3321Y1532I0J-33*
G01*
X3376Y1477*
G75*
G02X3386Y1453I-23J-23*
G01*
Y1357*
X3414Y1329*
X4423*
G75*
G02X4501Y1296I32J-33*
G01*
G75*
G02X4423Y1263I-46*
G01*
X3400*
G75*
G02X3377Y1273I0J33*
G01*
X3330Y1320*
G75*
G02X3320Y1343I23J23*
G01*
Y1440*
X3284Y1476*
X2991*
G75*
G02X2960Y1483I-8J33*
G01*
Y1434*
G75*
G02X2976Y1399I-30J-35*
G01*
G75*
G02X2884I-46*
G01*
G75*
G02X2900Y1434I46*
G01*
Y1496*
G75*
G02X2860Y1476I-32J13*
G01*
X2365*
G75*
G02X2332Y1509J33*
G01*
Y1728*
G75*
G02X2324Y1783I33J32*
G01*
G75*
G02X2311Y1779I-19J41*
G01*
X2156Y1623*
Y1586*
X2183Y1558*
Y1514*
X2152Y1483*
X2108*
X2080Y1511*
X2052Y1483*
X2008*
X1983Y1508*
Y1483*
X1877*
Y1589*
X1983*
Y1564*
X2008Y1589*
X2052*
X2080Y1561*
X2105Y1586*
Y1636*
G75*
G02X2120Y1659I26*
G01*
X2264Y1804*
G75*
G02X2342Y1849I41J19*
G01*
X2498*
G75*
G02X2516Y1842I0J-26*
G01*
X2611Y1747*
G75*
G02X2618Y1729I-18J-18*
G01*
Y1649*
G75*
G02X2639Y1611I-26J-38*
G01*
G75*
G02X2547I-46*
G01*
G75*
G02X2567Y1649I46*
G01*
Y1718*
X2487Y1798*
X2391*
G75*
G02X2398Y1728I-27J-38*
G01*
Y1542*
X2860*
G75*
G02X2900Y1521I8J-33*
G01*
Y1611*
G75*
G02X2907Y1648I30J14*
G01*
X3005Y1746*
G75*
G02X3028Y1756I23J-23*
G01*
X3125*
G75*
G02X3116Y1836I18J43*
G01*
Y1895*
X3054Y1957*
G75*
G02X3046Y1976I19J19*
G01*
Y2171*
X2562Y2655*
G75*
G02X2554Y2674I19J19*
G01*
Y2890*
X2490*
X2447Y2847*
G75*
G02X2424Y2838I-23J23*
G01*
X2377*
G75*
G02X2303Y2890I-32J33*
G01*
X2154*
Y2074*
X2198Y2030*
X2607*
G75*
G02X2682Y2005I33J-26*
G01*
G75*
G02X2607Y1979I-42*
G01*
X2188*
G75*
G02X2169Y1987I0J26*
G01*
X2110Y2046*
G75*
G02X2103Y2064I18J18*
G01*
Y2890*
X1873*
Y2992*
X221Y2011D02*
G75*
G02X289I34D01*
G01*
G75*
G02X221I-34*
G01*
X466Y961D02*
G75*
G02X344I-61D01*
G01*
G75*
G02X466I61*
G01*
X479Y1661D02*
G75*
G02X357I-61D01*
G01*
G75*
G02X479I61*
G01*
X508Y1499D02*
G75*
G02X577I34D01*
G01*
G75*
G02X508I-34*
G01*
X966Y961D02*
G75*
G02X844I-61D01*
G01*
G75*
G02X966I61*
G01*
X979Y1661D02*
G75*
G02X857I-61D01*
G01*
G75*
G02X979I61*
G01*
X1041Y267D02*
G75*
G02X978Y310I-16J43D01*
G01*
G75*
G02X1041Y353I46*
G01*
X1503*
X2004Y854*
G75*
G02X2034Y867I30J-30*
G01*
X3802*
X3850Y915*
Y1018*
X3827Y1040*
G75*
G02X3745Y1074I-35J33*
G01*
G75*
G02X3828Y1107I48*
G01*
G75*
G02X3886Y1104I28J-33*
G01*
X3923Y1067*
G75*
G02X3936Y1036I-30J-30*
G01*
Y897*
G75*
G02X3923Y866I-43*
G01*
X3850Y793*
G75*
G02X3820Y780I-30J30*
G01*
X2052*
X1551Y279*
G75*
G02X1520Y267I-30J30*
G01*
X1041*
X1232Y410D02*
Y666D01*
X1489*
Y410*
X1232*
Y3953D02*
Y4210D01*
X1489*
Y3953*
X1232*
X1239Y820D02*
Y1077D01*
X1496*
Y820*
X1239*
Y3620D02*
Y3877D01*
X1496*
Y3620*
X1239*
X1350Y1471D02*
Y1472D01*
G75*
G02X1347Y1486I30J14*
G01*
Y3236*
G75*
G02X1357Y3260I33J0*
G01*
X1503Y3406*
G75*
G02X1527Y3416I23J-23*
G01*
X1550*
Y3758*
G75*
G02X1537Y3790I33J32*
G01*
G75*
G02X1629I46*
G01*
G75*
G02X1616Y3758I-46*
G01*
Y3415*
G75*
G02X1629Y3383I-33J-32*
G01*
G75*
G02X1551Y3350I-46*
G01*
X1540*
X1413Y3223*
Y1486*
G75*
G02X1410Y1472I-33*
G01*
Y1471*
G75*
G02X1426Y1436I-30J-35*
G01*
G75*
G02X1334I-46*
G01*
G75*
G02X1350Y1471I46*
G01*
X1625Y1311D02*
Y2359D01*
G75*
G02X1632Y2397I30J14*
G01*
X1660Y2425*
Y2467*
G75*
G02X1647Y2499I33J32*
G01*
G75*
G02X1739I46*
G01*
G75*
G02X1726Y2467I-46*
G01*
Y2411*
G75*
G02X1716Y2388I-33J0*
G01*
X1685Y2357*
Y1332*
G75*
G02X1717Y1286I-17J-46*
G01*
G75*
G02X1618I-49*
G01*
G75*
G02X1625Y1311I49*
G01*
X1834Y4115D02*
X1784D01*
G75*
G02Y4195J40*
G01*
X1834*
G75*
G02Y4115J-40*
G01*
X1854Y949D02*
G75*
G02X1931I38D01*
G01*
G75*
G02X1854I-38*
G01*
Y1149D02*
G75*
G02X1931I38D01*
G01*
G75*
G02X1854I-38*
G01*
X2005Y2540D02*
G75*
G02X1988Y2574I26J33D01*
G01*
G75*
G02X2072I42*
G01*
G75*
G02X2056Y2540I-42*
G01*
Y1699*
G75*
G02X2048Y1681I-26J0*
G01*
X2011Y1643*
G75*
G02X1993Y1636I-18J18*
G01*
X1853*
X1806Y1588*
Y1109*
X1866Y1049*
X2461*
G75*
G02X2452Y1074I32J24*
G01*
G75*
G02X2533I40*
G01*
G75*
G02X2525Y1049I-40*
G01*
X2532*
X2546Y1063*
G75*
G02X2545Y1074I47J11*
G01*
G75*
G02X2641I48*
G01*
G75*
G02X2582Y1027I-48*
G01*
X2572Y1017*
G75*
G02X2641Y974I20J-44*
G01*
G75*
G02X2545I-48*
G01*
G75*
G02X2552Y1000I48J0*
G01*
G75*
G02X2543Y998I-10J24*
G01*
X2525*
G75*
G02X2533Y974I-32J-24*
G01*
G75*
G02X2452I-40*
G01*
G75*
G02X2461Y998I40*
G01*
X1855*
G75*
G02X1837Y1006I0J26*
G01*
X1762Y1081*
G75*
G02X1755Y1099I18J18*
G01*
Y1599*
G75*
G02X1762Y1617I26J0*
G01*
X1825Y1679*
G75*
G02X1843Y1687I18J-18*
G01*
X1982*
X2005Y1709*
Y2540*
X2058Y1924D02*
G75*
G02X2127I34D01*
G01*
G75*
G02X2058I-34*
G01*
X2134Y3807D02*
X2084D01*
G75*
G02Y3903J48*
G01*
X2134*
G75*
G02Y3807J-48*
G01*
Y3907D02*
X2084D01*
G75*
G02Y4003J48*
G01*
X2134*
G75*
G02Y3907J-48*
G01*
Y4007D02*
X2084D01*
G75*
G02Y4103J48*
G01*
X2134*
G75*
G02Y4007J-48*
G01*
Y4107D02*
X2084D01*
G75*
G02Y4203J48*
G01*
X2134*
G75*
G02Y4107J-48*
G01*
X2211Y1491D02*
X2185Y1517D01*
Y1555*
X2211Y1581*
X2249*
X2275Y1555*
Y1517*
X2249Y1491*
X2211*
X2442Y1361D02*
G75*
G02X2518I38D01*
G01*
G75*
G02X2442I-38*
G01*
X2645Y974D02*
G75*
G02X2741I48D01*
G01*
G75*
G02X2645I-48*
G01*
Y1074D02*
G75*
G02X2741I48D01*
G01*
G75*
G02X2645I-48*
G01*
X2745Y974D02*
G75*
G02X2841I48D01*
G01*
G75*
G02X2745I-48*
G01*
X2792Y1122D02*
Y1361D01*
G75*
G02X2775Y1394I26J33*
G01*
G75*
G02X2860I42*
G01*
G75*
G02X2843Y1361I-42*
G01*
Y1099*
G75*
G02X2839Y1086I-26J0*
G01*
G75*
G02X2841Y1074I-47J-12*
G01*
G75*
G02X2745I-48*
G01*
G75*
G02X2792Y1122I48*
G01*
X2803Y4279D02*
X2690D01*
Y4369*
X2803*
Y4279*
X2845Y974D02*
G75*
G02X2941I48D01*
G01*
G75*
G02X2845I-48*
G01*
Y1074D02*
G75*
G02X2941I48D01*
G01*
G75*
G02X2845I-48*
G01*
X2945Y974D02*
G75*
G02X3041I48D01*
G01*
G75*
G02X2945I-48*
G01*
Y1074D02*
G75*
G02X3041I48D01*
G01*
G75*
G02X2945I-48*
G01*
X3045Y974D02*
G75*
G02X3141I48D01*
G01*
G75*
G02X3045I-48*
G01*
Y1074D02*
G75*
G02X3141I48D01*
G01*
G75*
G02X3045I-48*
G01*
X3145Y974D02*
G75*
G02X3241I48D01*
G01*
G75*
G02X3145I-48*
G01*
Y1074D02*
G75*
G02X3241I48D01*
G01*
G75*
G02X3145I-48*
G01*
X3245Y974D02*
G75*
G02X3341I48D01*
G01*
G75*
G02X3245I-48*
G01*
Y1074D02*
G75*
G02X3341I48D01*
G01*
G75*
G02X3245I-48*
G01*
X3345Y974D02*
G75*
G02X3441I48D01*
G01*
G75*
G02X3345I-48*
G01*
X3445D02*
G75*
G02X3541I48D01*
G01*
G75*
G02X3445I-48*
G01*
Y1074D02*
G75*
G02X3541I48D01*
G01*
G75*
G02X3445I-48*
G01*
X3458Y1374D02*
G75*
G02X3527I34D01*
G01*
G75*
G02X3458I-34*
G01*
X3545Y974D02*
G75*
G02X3641I48D01*
G01*
G75*
G02X3545I-48*
G01*
Y1074D02*
G75*
G02X3641I48D01*
G01*
G75*
G02X3545I-48*
G01*
X3586Y1589D02*
G75*
G02X3663I38D01*
G01*
G75*
G02X3586I-38*
G01*
X3645Y974D02*
G75*
G02X3741I48D01*
G01*
G75*
G02X3645I-48*
G01*
Y1074D02*
G75*
G02X3741I48D01*
G01*
G75*
G02X3645I-48*
G01*
X3745Y974D02*
G75*
G02X3841I48D01*
G01*
G75*
G02X3745I-48*
G01*
X3907Y1861D02*
Y1911D01*
G75*
G02X4003I48*
G01*
Y1861*
G75*
G02X3907I-48*
G01*
X3939Y820D02*
Y1077D01*
X4196*
Y820*
X3939*
X4007Y1861D02*
Y1911D01*
G75*
G02X4103I48*
G01*
Y1861*
G75*
G02X4007I-48*
G01*
X4031Y690D02*
G75*
G02X3974Y715I-23J26D01*
G01*
G75*
G02X4031Y741I34*
G01*
X4333*
G75*
G02X4351Y733I0J-26*
G01*
X4410Y674*
G75*
G02X4418Y656I-18J-18*
G01*
Y639*
G75*
G02X4426Y617I-26J-23*
G01*
G75*
G02X4358I-34*
G01*
G75*
G02X4367Y639I34*
G01*
Y646*
X4323Y690*
X4031*
X4037Y1589D02*
G75*
G02X4114I38D01*
G01*
G75*
G02X4037I-38*
G01*
X4107Y1861D02*
Y1911D01*
G75*
G02X4203I48*
G01*
Y1861*
G75*
G02X4107I-48*
G01*
X4179Y207D02*
G75*
G02X4122Y233I-23J26D01*
G01*
G75*
G02X4179Y259I34*
G01*
X4362*
X4377Y273*
Y309*
G75*
G02X4368Y331I26J23*
G01*
G75*
G02X4436I34*
G01*
G75*
G02X4428Y309I-34*
G01*
Y263*
G75*
G02X4420Y244I-26J0*
G01*
X4391Y215*
G75*
G02X4373Y207I-18J18*
G01*
X4179*
X4207Y1861D02*
Y1911D01*
G75*
G02X4303I48*
G01*
Y1861*
G75*
G02X4207I-48*
G01*
X4417Y446D02*
G75*
G02X4470I26D01*
G01*
G75*
G02X4417I-26*
G01*
X4479Y334D02*
X4542D01*
Y274*
X4479*
Y334*
X4602Y528D02*
G75*
G02X4655I26D01*
G01*
G75*
G02X4602I-26*
G01*
X4608Y334D02*
X4672D01*
Y274*
X4608*
Y334*
X4611Y419D02*
G75*
G02X4555Y446I-22J26D01*
G01*
G75*
G02X4612Y471I34*
G01*
X4621*
G75*
G02X4639Y464I0J-26*
G01*
X4658Y444*
G75*
G02X4666Y426I-18J-18*
G01*
Y412*
X4680*
Y337*
X4601*
Y412*
X4615*
Y415*
X4611Y419*
X4663Y777D02*
Y713D01*
X4603*
Y777*
X4663*
X4677Y688D02*
Y705D01*
X4665*
Y785*
X4741*
Y705*
X4728*
Y697*
G75*
G02X4744Y666I-21J-31*
G01*
G75*
G02X4733Y639I-37*
G01*
Y502*
G75*
G02X4741Y479I-26J-23*
G01*
G75*
G02X4673I-34*
G01*
G75*
G02X4682Y502I34*
G01*
Y639*
G75*
G02X4670Y666I26J27*
G01*
G75*
G02X4677Y688I37*
G01*
X5372Y1323D02*
Y1387D01*
X5432*
Y1323*
X5372*
X5437Y1355D02*
G75*
G02X5513I38D01*
G01*
G75*
G02X5437I-38*
G01*
X5928Y1726D02*
G75*
G02Y1817J45D01*
G01*
G75*
G02Y1726J-45*
G01*
X101Y2011D02*
G36*
Y1924D01*
X1347*
Y2011*
X289*
G75*
G02X221I-34*
G01*
X101*
G37*
X221D02*
G36*
G75*
G02X289I34D01*
G01*
X1347*
Y3236*
G75*
G02X1357Y3260I33J0*
G01*
X1503Y3406*
G75*
G02X1527Y3416I23J-23*
G01*
X1550*
Y3749*
X1496*
Y3620*
X1239*
Y3749*
X101*
Y2011*
X221*
G37*
X1413D02*
G36*
Y1924D01*
X1625*
Y2011*
X1413*
G37*
X1625D02*
G36*
Y2359D01*
G75*
G02X1632Y2397I30J14*
G01*
X1660Y2425*
Y2467*
G75*
G02X1647Y2499I33J32*
G01*
G75*
G02X1739I46*
G01*
G75*
G02X1726Y2467I-46*
G01*
Y2411*
G75*
G02X1716Y2388I-33J0*
G01*
X1685Y2357*
Y2011*
X2005*
Y2540*
G75*
G02X1988Y2574I26J33*
G01*
G75*
G02X2072I42*
G01*
G75*
G02X2056Y2540I-42*
G01*
Y2011*
X2145*
X2110Y2046*
G75*
G02X2103Y2064I18J18*
G01*
Y2890*
X1873*
Y2992*
G75*
G02X1870Y2996I20J16*
G01*
G75*
G02X1830Y2976I-40J27*
G01*
X1780*
G75*
G02Y3072J48*
G01*
X1830*
G75*
G02X1867Y3055J-48*
G01*
Y3092*
G75*
G02X1830Y3076I-37J31*
G01*
X1780*
G75*
G02Y3172J48*
G01*
X1830*
G75*
G02X1867Y3155J-48*
G01*
Y3192*
G75*
G02X1830Y3176I-37J31*
G01*
X1780*
G75*
G02Y3272J48*
G01*
X1830*
G75*
G02X1867Y3255J-48*
G01*
Y3292*
G75*
G02X1830Y3276I-37J31*
G01*
X1780*
G75*
G02Y3372J48*
G01*
X1830*
G75*
G02X1867Y3355J-48*
G01*
Y3405*
G75*
G02X1834Y3392I-33J35*
G01*
X1784*
G75*
G02Y3488J48*
G01*
X1834*
G75*
G02X1867Y3475J-48*
G01*
Y3505*
G75*
G02X1834Y3492I-33J35*
G01*
X1784*
G75*
G02Y3588J48*
G01*
X1834*
G75*
G02X1867Y3575J-48*
G01*
Y3605*
G75*
G02X1834Y3592I-33J35*
G01*
X1784*
G75*
G02Y3688J48*
G01*
X1834*
G75*
G02X1867Y3675J-48*
G01*
Y3705*
G75*
G02X1834Y3692I-33J35*
G01*
X1784*
G75*
G02X1736Y3749J48*
G01*
X1616*
Y3415*
G75*
G02X1551Y3350I-33J-32*
G01*
X1540*
X1413Y3223*
Y2011*
X1625*
G37*
X1685D02*
G36*
Y1924D01*
X2005*
Y2011*
X1685*
G37*
X2056D02*
G36*
Y1924D01*
X2058*
G75*
G02X2127I34*
G01*
X3087*
X3054Y1957*
G75*
G02X3046Y1976I19J19*
G01*
Y2171*
X2562Y2655*
G75*
G02X2554Y2674I19J19*
G01*
Y2890*
X2490*
X2447Y2847*
G75*
G02X2424Y2838I-23J23*
G01*
X2377*
G75*
G02X2303Y2890I-32J33*
G01*
X2154*
Y2074*
X2198Y2030*
X2607*
G75*
G02X2682Y2005I33J-26*
G01*
G75*
G02X2607Y1979I-42*
G01*
X2188*
G75*
G02X2169Y1987I0J26*
G01*
X2145Y2011*
X2056*
G37*
X101Y961D02*
G36*
Y745D01*
X1895*
X2004Y854*
G75*
G02X2034Y867I30J-30*
G01*
X3802*
X3850Y915*
Y961*
X3839*
G75*
G02X3746I-46J13*
G01*
X3739*
G75*
G02X3646I-46J13*
G01*
X3639*
G75*
G02X3546I-46J13*
G01*
X3539*
G75*
G02X3446I-46J13*
G01*
X3439*
G75*
G02X3346I-46J13*
G01*
X3339*
G75*
G02X3246I-46J13*
G01*
X3239*
G75*
G02X3146I-46J13*
G01*
X3139*
G75*
G02X3046I-46J13*
G01*
X3039*
G75*
G02X2946I-46J13*
G01*
X2939*
G75*
G02X2846I-46J13*
G01*
X2839*
G75*
G02X2746I-46J13*
G01*
X2739*
G75*
G02X2646I-46J13*
G01*
X2639*
G75*
G02X2545Y974I-46J13*
G01*
G75*
G02X2552Y1000I48J0*
G01*
G75*
G02X2543Y998I-10J24*
G01*
X2525*
G75*
G02X2533Y974I-32J-24*
G01*
G75*
G02X2454Y961I-40*
G01*
X1929*
G75*
G02X1931Y949I-36J-12*
G01*
G75*
G02X1854I-38*
G01*
G75*
G02X1857Y961I38J0*
G01*
X1496*
Y820*
X1239*
Y961*
X966*
G75*
G02X844I-61*
G01*
X466*
G75*
G02X344I-61*
G01*
X101*
G37*
X344D02*
G36*
G75*
G02X466I61D01*
G01*
X844*
G75*
G02X966I61*
G01*
X1239*
Y1074*
X101*
Y961*
X344*
G37*
X1857D02*
G36*
G75*
G02X1929I36J-13D01*
G01*
X2454*
G75*
G02X2452Y974I38J12*
G01*
G75*
G02X2461Y998I40*
G01*
X1855*
G75*
G02X1837Y1006I0J26*
G01*
X1769Y1074*
X1496*
Y961*
X1857*
G37*
X2646D02*
G36*
G75*
G02X2645Y974I46J13D01*
G01*
G75*
G02X2741I48*
G01*
G75*
G02X2739Y961I-48*
G01*
X2746*
G75*
G02X2745Y974I46J13*
G01*
G75*
G02X2841I48*
G01*
G75*
G02X2839Y961I-48*
G01*
X2846*
G75*
G02X2845Y974I46J13*
G01*
G75*
G02X2941I48*
G01*
G75*
G02X2939Y961I-48*
G01*
X2946*
G75*
G02X2945Y974I46J13*
G01*
G75*
G02X3041I48*
G01*
G75*
G02X3039Y961I-48*
G01*
X3046*
G75*
G02X3045Y974I46J13*
G01*
G75*
G02X3141I48*
G01*
G75*
G02X3139Y961I-48*
G01*
X3146*
G75*
G02X3145Y974I46J13*
G01*
G75*
G02X3241I48*
G01*
G75*
G02X3239Y961I-48*
G01*
X3246*
G75*
G02X3245Y974I46J13*
G01*
G75*
G02X3341I48*
G01*
G75*
G02X3339Y961I-48*
G01*
X3346*
G75*
G02X3345Y974I46J13*
G01*
G75*
G02X3441I48*
G01*
G75*
G02X3439Y961I-48*
G01*
X3446*
G75*
G02X3445Y974I46J13*
G01*
G75*
G02X3541I48*
G01*
G75*
G02X3539Y961I-48*
G01*
X3546*
G75*
G02X3545Y974I46J13*
G01*
G75*
G02X3641I48*
G01*
G75*
G02X3639Y961I-48*
G01*
X3646*
G75*
G02X3645Y974I46J13*
G01*
G75*
G02X3741I48*
G01*
G75*
G02X3739Y961I-48*
G01*
X3746*
G75*
G02X3745Y974I46J13*
G01*
G75*
G02X3841I48*
G01*
G75*
G02X3839Y961I-48*
G01*
X3850*
Y1018*
X3827Y1040*
G75*
G02X3745Y1074I-35J33*
G01*
X3741*
G75*
G02X3645I-48*
G01*
X3641*
G75*
G02X3545I-48*
G01*
X3541*
G75*
G02X3445I-48*
G01*
X3441*
G75*
G02X3345I-48*
G01*
X3341*
G75*
G02X3245I-48*
G01*
X3241*
G75*
G02X3145I-48*
G01*
X3141*
G75*
G02X3045I-48*
G01*
X3041*
G75*
G02X2945I-48*
G01*
X2941*
G75*
G02X2845I-48*
G01*
X2841*
G75*
G02X2745I-48*
G01*
X2741*
G75*
G02X2645I-48*
G01*
X2641*
G75*
G02X2582Y1027I-48*
G01*
X2572Y1017*
G75*
G02X2641Y974I20J-44*
G01*
G75*
G02X2639Y961I-48*
G01*
X2646*
G37*
X3936D02*
G36*
Y897D01*
G75*
G02X3923Y866I-43*
G01*
X3850Y793*
G75*
G02X3820Y780I-30J30*
G01*
X2052*
X2016Y745*
X3991*
G75*
G02X4025I17J-30*
G01*
X4485*
Y961*
X4196*
Y820*
X3939*
Y961*
X3936*
G37*
X3939D02*
G36*
Y1074D01*
X3916*
X3923Y1067*
G75*
G02X3936Y1036I-30J-30*
G01*
Y961*
X3939*
G37*
X4485D02*
G36*
Y1074D01*
X4342*
G75*
G02X4278Y1074I-32J33*
G01*
X4196*
Y961*
X4485*
G37*
X101Y1661D02*
G36*
Y1589D01*
X1347*
Y1661*
X979*
G75*
G02X857I-61*
G01*
X479*
G75*
G02X357I-61*
G01*
X101*
G37*
X357D02*
G36*
G75*
G02X479I61D01*
G01*
X857*
G75*
G02X979I61*
G01*
X1347*
Y1771*
X101*
Y1661*
X357*
G37*
X1413D02*
G36*
Y1589D01*
X1625*
Y1661*
X1413*
G37*
X1625D02*
G36*
Y1771D01*
X1413*
Y1661*
X1625*
G37*
X1685D02*
G36*
Y1589D01*
X1755*
Y1599*
G75*
G02X1762Y1617I26J0*
G01*
X1806Y1661*
X1685*
G37*
X1806D02*
G36*
X1825Y1679D01*
G75*
G02X1843Y1687I18J-18*
G01*
X1982*
X2005Y1709*
Y1771*
X1685*
Y1661*
X1806*
G37*
X2029D02*
G36*
X2011Y1643D01*
G75*
G02X1993Y1636I-18J18*
G01*
X1853*
X1807Y1589*
X1877*
Y1589*
X1983*
Y1564*
X2008Y1589*
X2052*
X2080Y1561*
X2105Y1586*
Y1636*
G75*
G02X2120Y1659I26*
G01*
X2121Y1661*
X2029*
G37*
X2121D02*
G36*
X2231Y1771D01*
X2056*
Y1699*
G75*
G02X2048Y1681I-26J0*
G01*
X2029Y1661*
X2121*
G37*
X101Y1499D02*
G36*
Y1361D01*
X1625*
Y1499*
X1413*
Y1486*
G75*
G02X1410Y1472I-33*
G01*
Y1471*
G75*
G02X1426Y1436I-30J-35*
G01*
G75*
G02X1334I-46*
G01*
G75*
G02X1350Y1471I46*
G01*
Y1472*
G75*
G02X1347Y1486I30J14*
G01*
Y1499*
X577*
G75*
G02X508I-34*
G01*
X101*
G37*
X508D02*
G36*
G75*
G02X577I34D01*
G01*
X1347*
Y1589*
X101*
Y1499*
X508*
G37*
X1625D02*
G36*
Y1589D01*
X1413*
Y1499*
X1625*
G37*
X1685D02*
G36*
Y1361D01*
X1755*
Y1499*
X1685*
G37*
X1755D02*
G36*
Y1589D01*
X1685*
Y1499*
X1755*
G37*
X1806D02*
G36*
Y1361D01*
X2442*
G75*
G02X2518I38*
G01*
X2792*
G75*
G02X2775Y1394I26J33*
G01*
G75*
G02X2860I42*
G01*
G75*
G02X2843Y1361I-42*
G01*
X2903*
G75*
G02X2884Y1399I27J38*
G01*
G75*
G02X2900Y1434I46*
G01*
Y1496*
G75*
G02X2860Y1476I-32J13*
G01*
X2365*
G75*
G02X2333Y1499J33*
G01*
X2257*
X2249Y1491*
X2211*
X2204Y1499*
X2168*
X2152Y1483*
X2108*
X2080Y1511*
X2052Y1483*
X2008*
X1983Y1508*
Y1483*
X1877*
Y1499*
X1806*
G37*
X1877D02*
G36*
Y1589D01*
X1807*
X1806Y1588*
Y1499*
X1877*
G37*
X2204D02*
G36*
X2185Y1517D01*
Y1555*
X2211Y1581*
X2249*
X2275Y1555*
Y1517*
X2257Y1499*
X2333*
G75*
G02X2332Y1509I32J10*
G01*
Y1728*
G75*
G02X2324Y1783I33J32*
G01*
G75*
G02X2311Y1779I-19J41*
G01*
X2156Y1623*
Y1586*
X2183Y1558*
Y1514*
X2168Y1499*
X2204*
G37*
X652Y538D02*
G36*
Y446D01*
X1232*
Y538*
X652*
G37*
X1232D02*
G36*
Y666D01*
X101*
Y607*
X652*
Y538*
X1232*
G37*
X1489D02*
G36*
Y446D01*
X1595*
X1688Y538*
X1489*
G37*
X1688D02*
G36*
X1816Y666D01*
X1489*
Y538*
X1688*
G37*
X1810D02*
G36*
X1717Y446D01*
X3545*
X3539Y452*
X3034*
G75*
G02X3016Y459I0J26*
G01*
X2976Y499*
X2924*
G75*
G02X2906Y506I0J26*
G01*
X2878Y534*
G75*
G02X2875Y538I18J18*
G01*
X1810*
G37*
X2875D02*
G36*
G75*
G02X2871Y552I22J14D01*
G01*
Y577*
G75*
G02X2869Y619I26J23*
G01*
X2820*
G75*
G02X2764Y645I-22J26*
G01*
G75*
G02X2771Y666I34*
G01*
X1938*
X1810Y538*
X2875*
G37*
X4536D02*
G36*
Y468D01*
G75*
G02X4544Y446I-26J-23*
G01*
X4555*
G75*
G02X4612Y471I34*
G01*
X4621*
G75*
G02X4639Y464I0J-26*
G01*
X4657Y446*
X4701*
G75*
G02X4673Y479I6J33*
G01*
G75*
G02X4682Y502I34*
G01*
Y538*
X4653*
G75*
G02X4655Y528I-24J-10*
G01*
G75*
G02X4602I-26*
G01*
G75*
G02X4604Y538I26J0*
G01*
X4536*
G37*
X4604D02*
G36*
G75*
G02X4653I24J-10D01*
G01*
X4682*
Y639*
G75*
G02X4670Y666I26J27*
G01*
X4536*
Y538*
X4604*
G37*
X4733D02*
G36*
Y502D01*
G75*
G02X4741Y479I-26J-23*
G01*
G75*
G02X4714Y446I-34*
G01*
X4802*
Y538*
X4733*
G37*
X4802D02*
G36*
Y645D01*
G75*
G02X4760Y666I-16J21*
G01*
X4744*
G75*
G02X4733Y639I-37*
G01*
Y538*
X4802*
G37*
X652Y4081D02*
G36*
Y4013D01*
X101*
Y3955*
X1232*
Y4081*
X652*
G37*
X1232D02*
G36*
Y4155D01*
X652*
Y4081*
X1232*
G37*
X1489D02*
G36*
Y3955D01*
X1736*
G75*
G02X1784Y4003I48*
G01*
X1834*
G75*
G02X1867Y3990J-48*
G01*
Y4002*
X1856Y4012*
G75*
G02X1834Y4007I-22J43*
G01*
X1784*
G75*
G02X1744Y4081J48*
G01*
X1489*
G37*
X1744D02*
G36*
G75*
G02X1784Y4103I40J-26D01*
G01*
X1834*
G75*
G02X1874Y4081J-48*
G01*
X2044*
G75*
G02X2084Y4103I40J-26*
G01*
X2134*
G75*
G02X2174Y4081J-48*
G01*
X2714*
Y4093*
G75*
G02X2712Y4103I33J11*
G01*
G75*
G02X2712Y4105I35J0*
G01*
X2682*
Y4155*
X2182*
G75*
G02X2134Y4107I-48*
G01*
X2084*
G75*
G02X2036Y4155J48*
G01*
X1874*
G75*
G02X1834Y4115I-40*
G01*
X1784*
G75*
G02X1744Y4155J40*
G01*
X1489*
Y4081*
X1744*
G37*
X1874D02*
G36*
G75*
G02X1882Y4059I-40J-26D01*
G01*
X1910Y4031*
G75*
G02X1918Y4013I-18J-18*
G01*
Y3955*
X2036*
G75*
G02X2084Y4003I48*
G01*
X2134*
G75*
G02X2182Y3955J-48*
G01*
X2714*
Y4081*
X2174*
G75*
G02X2134Y4007I-40J-26*
G01*
X2084*
G75*
G02X2044Y4081J48*
G01*
X1874*
G37*
X1239Y3749D02*
G36*
Y3855D01*
X101*
Y3749*
X1239*
G37*
X1550D02*
G36*
Y3758D01*
G75*
G02X1537Y3790I33J32*
G01*
G75*
G02X1629I46*
G01*
G75*
G02X1616Y3758I-46*
G01*
Y3749*
X1736*
G75*
G02X1784Y3788I47J-9*
G01*
X1834*
G75*
G02X1867Y3775J-48*
G01*
Y3820*
G75*
G02X1834Y3807I-33J35*
G01*
X1784*
G75*
G02X1736Y3855J48*
G01*
X1496*
Y3749*
X1550*
G37*
X1232Y4155D02*
G36*
Y4210D01*
X1489*
Y4155*
X1744*
G75*
G02X1784Y4195I40*
G01*
X1834*
G75*
G02X1874Y4155J-40*
G01*
X2036*
G75*
G02X2084Y4203I48*
G01*
X2134*
G75*
G02X2182Y4155J-48*
G01*
X2682*
Y4211*
X2806*
X2841Y4246*
G75*
G02X2865Y4256I23J-23*
G01*
X2896*
Y4324*
X2803*
Y4279*
X2690*
Y4324*
X652*
Y4155*
X1232*
G37*
X101Y1149D02*
G36*
Y1074D01*
X1239*
Y1077*
X1496*
Y1074*
X1769*
X1762Y1081*
G75*
G02X1755Y1099I18J18*
G01*
Y1149*
X101*
G37*
X1755D02*
G36*
Y1361D01*
X1685*
Y1332*
G75*
G02X1717Y1286I-17J-46*
G01*
G75*
G02X1618I-49*
G01*
G75*
G02X1625Y1311I49*
G01*
Y1361*
X101*
Y1149*
X1755*
G37*
X1806D02*
G36*
Y1109D01*
X1866Y1049*
X2461*
G75*
G02X2452Y1074I32J24*
G01*
G75*
G02X2533I40*
G01*
G75*
G02X2525Y1049I-40*
G01*
X2532*
X2546Y1063*
G75*
G02X2545Y1074I47J11*
G01*
G75*
G02X2641I48*
G01*
X2645*
G75*
G02X2741I48*
G01*
X2745*
G75*
G02X2792Y1122I48*
G01*
Y1149*
X1931*
G75*
G02X1854I-38*
G01*
X1806*
G37*
X1854D02*
G36*
G75*
G02X1931I38D01*
G01*
X2792*
Y1361*
X2518Y1361*
G75*
G02X2442I-38*
G01*
X1806*
Y1149*
X1854*
G37*
X2843D02*
G36*
Y1099D01*
G75*
G02X2839Y1086I-26J0*
G01*
G75*
G02X2841Y1074I-47J-12*
G01*
X2845*
G75*
G02X2941I48*
G01*
X2945*
G75*
G02X3041I48*
G01*
X3045*
G75*
G02X3141I48*
G01*
X3145*
G75*
G02X3241I48*
G01*
X3245*
G75*
G02X3341I48*
G01*
X3345*
G75*
G02X3367Y1114I48*
G01*
Y1138*
X3357Y1148*
X3268*
G75*
G02X3262Y1149I0J26*
G01*
X2843*
G37*
X3262D02*
G36*
G75*
G02X3250Y1156I5J25D01*
G01*
X3225Y1181*
G75*
G02X3217Y1199I18J18*
G01*
Y1290*
G75*
G02X3201Y1324I26J33*
G01*
G75*
G02X3285I42*
G01*
G75*
G02X3268Y1290I-42*
G01*
Y1209*
X3278Y1199*
X3368*
G75*
G02X3386Y1192I0J-26*
G01*
X3392Y1186*
X3429Y1224*
G75*
G02X3447Y1231I18J-18*
G01*
X3497*
Y1245*
X3642*
Y1231*
X3988*
X4012Y1255*
G75*
G02X4030Y1263I18J-18*
G01*
X4191*
G75*
G02X4210Y1255I0J-26*
G01*
X4234Y1231*
X4822*
G75*
G02X4840I9J-26*
G01*
X4890*
G75*
G02X4898Y1259I34J6*
G01*
Y1361*
X3524*
G75*
G02X3461I-32J13*
G01*
X3386*
Y1357*
X3414Y1329*
X4423*
G75*
G02X4501Y1296I32J-33*
G01*
G75*
G02X4423Y1263I-46*
G01*
X3400*
G75*
G02X3377Y1273I0J33*
G01*
X3330Y1320*
G75*
G02X3320Y1343I23J23*
G01*
Y1440*
X3284Y1476*
X2991*
G75*
G02X2960Y1483I-8J33*
G01*
Y1434*
G75*
G02X2976Y1399I-30J-35*
G01*
G75*
G02X2903Y1361I-46*
G01*
X2843*
X2843Y1149*
X3262*
G37*
X101Y1924D02*
G36*
Y1771D01*
X1347*
Y1924*
X101*
G37*
X1413D02*
G36*
Y1771D01*
X1625*
Y1924*
X1413*
G37*
X1685D02*
G36*
Y1771D01*
X2005*
Y1924*
X1685*
G37*
X2056D02*
G36*
Y1771D01*
X2231*
X2264Y1804*
G75*
G02X2342Y1849I41J19*
G01*
X2498*
G75*
G02X2516Y1842I0J-26*
G01*
X2611Y1747*
G75*
G02X2618Y1729I-18J-18*
G01*
Y1649*
G75*
G02X2639Y1611I-26J-38*
G01*
G75*
G02X2547I-46*
G01*
G75*
G02X2567Y1649I46*
G01*
Y1718*
X2487Y1798*
X2391*
G75*
G02X2398Y1728I-27J-38*
G01*
Y1542*
X2860*
G75*
G02X2900Y1521I8J-33*
G01*
Y1611*
G75*
G02X2907Y1648I30J14*
G01*
X3005Y1746*
G75*
G02X3028Y1756I23J-23*
G01*
X3125*
G75*
G02X3116Y1836I18J43*
G01*
Y1895*
X3087Y1924*
X2127*
G75*
G02X2058I-34*
G01*
X2056*
G37*
X3554D02*
G36*
X3498Y1868D01*
G75*
G02X3481Y1861I-18J18*
G01*
G75*
G02X3397Y1886I-38J26*
G01*
G75*
G02X3476Y1918I46*
G01*
X3517Y1959*
Y1965*
X3211*
Y2128*
X3168*
G75*
G02X3137Y2150J33*
G01*
X3100Y2186*
G75*
G02X3101Y2182I-27J-5*
G01*
Y1987*
X3162Y1926*
G75*
G02X3170Y1907I-19J-19*
G01*
Y1836*
G75*
G02X3180Y1771I-27J-37*
G01*
X5883*
G75*
G02X5928Y1817I45*
G01*
G75*
G02X5973Y1771J-45*
G01*
X6577*
Y1924*
X4302*
G75*
G02X4303Y1911I-46J-13*
G01*
Y1861*
G75*
G02X4207I-48*
G01*
Y1911*
G75*
G02X4209Y1924I48*
G01*
X4202*
G75*
G02X4203Y1911I-46J-13*
G01*
Y1861*
G75*
G02X4107I-48*
G01*
Y1911*
G75*
G02X4109Y1924I48*
G01*
X4102*
G75*
G02X4103Y1911I-46J-13*
G01*
Y1861*
G75*
G02X4007I-48*
G01*
Y1911*
G75*
G02X4009Y1924I48*
G01*
X4002*
G75*
G02X4003Y1911I-46J-13*
G01*
Y1861*
G75*
G02X3907I-48*
G01*
Y1911*
G75*
G02X3909Y1924I48*
G01*
X3554*
G37*
X3909D02*
G36*
G75*
G02X4002I46J-13D01*
G01*
X4009*
G75*
G02X4102I46J-13*
G01*
X4109*
G75*
G02X4202I46J-13*
G01*
X4209*
G75*
G02X4302I46J-13*
G01*
X6577*
Y1965*
X6350*
G75*
G02X6214I-68J70*
G01*
X3568*
Y1949*
G75*
G02X3561Y1931I-26J0*
G01*
X3554Y1924*
X3909*
G37*
X1239Y3855D02*
G36*
Y3877D01*
X1496*
Y3855*
X1736*
G75*
G02X1784Y3903I48*
G01*
X1834*
G75*
G02X1867Y3890J-48*
G01*
Y3920*
G75*
G02X1834Y3907I-33J35*
G01*
X1784*
G75*
G02X1736Y3955J48*
G01*
X1489*
Y3953*
X1232*
Y3955*
X101*
Y3855*
X1239*
G37*
X1918D02*
G36*
Y3757D01*
X2039*
G75*
G02X2084Y3788I45J-17*
G01*
X2134*
G75*
G02X2179Y3757J-48*
G01*
X2714*
Y3855*
X2182*
G75*
G02X2134Y3807I-48*
G01*
X2084*
G75*
G02X2036Y3855J48*
G01*
X1918*
G37*
X2036D02*
G36*
G75*
G02X2084Y3903I48D01*
G01*
X2134*
G75*
G02X2182Y3855J-48*
G01*
X2714*
Y3955*
X2182*
G75*
G02X2134Y3907I-48*
G01*
X2084*
G75*
G02X2036Y3955J48*
G01*
X1918*
Y3855*
X2036*
G37*
X3461Y1361D02*
G36*
G75*
G02X3458Y1374I32J13D01*
G01*
G75*
G02X3527I34*
G01*
G75*
G02X3524Y1361I-34*
G01*
X4898*
Y1589*
X4114*
G75*
G02X4037I-38*
G01*
X3663*
G75*
G02X3586I-38*
G01*
X2960*
Y1534*
G75*
G02X2991Y1542I23J-25*
G01*
X3298*
G75*
G02X3321Y1532I0J-33*
G01*
X3376Y1477*
G75*
G02X3386Y1453I-23J-23*
G01*
Y1361*
X3461*
G37*
X5369D02*
G36*
Y1315D01*
X5320*
G75*
G02X5240Y1270I-42J-19*
G01*
X5231*
Y1248*
X5074*
G75*
G02X5075Y1231I-32J-11*
G01*
X6050*
G75*
G02X6068Y1224I0J-26*
G01*
X6194Y1098*
G75*
G02X6201Y1079I-18J-18*
G01*
Y688*
G75*
G02X6208Y627I-26J-33*
G01*
X6577*
Y1361*
X5513*
G75*
G02X5513Y1355I-38J-6*
G01*
G75*
G02X5437I-38*
G01*
G75*
G02X5437Y1361I38J0*
G01*
X5432*
Y1323*
X5372*
Y1361*
X5369*
G37*
X5372D02*
G36*
Y1387D01*
X5432*
Y1361*
X5437*
G75*
G02X5513I38J-6*
G01*
X6577*
Y1771*
X5973*
G75*
G02X5928Y1726I-45*
G01*
G75*
G02X5883Y1771J45*
G01*
X3180*
G75*
G02X3160Y1756I-37J27*
G01*
X3272*
G75*
G02X3336I32J-33*
G01*
X3748*
G75*
G02X3826Y1723I32J-33*
G01*
G75*
G02X3748Y1690I-46*
G01*
X3336*
G75*
G02X3272I-32J33*
G01*
X3042*
X2960Y1608*
Y1589*
X3586*
G75*
G02X3663I38*
G01*
X4037*
G75*
G02X4114I38*
G01*
X4898*
Y1648*
G75*
G02X4946Y1696I26J23*
G01*
X5069*
Y1718*
X5231*
Y1622*
X5221*
Y1600*
X5231*
Y1504*
X5221*
Y1344*
X5231*
Y1322*
X5240*
G75*
G02X5253Y1334I38J-26*
G01*
Y1355*
G75*
G02X5278Y1381I26*
G01*
X5294*
Y1395*
X5369*
Y1361*
X5372*
G37*
X3445Y1074D02*
G36*
G75*
G02X3541I48D01*
G01*
X3545*
G75*
G02X3641I48*
G01*
X3645*
G75*
G02X3741I48*
G01*
X3745*
G75*
G02X3828Y1107I48*
G01*
G75*
G02X3886Y1104I28J-33*
G01*
X3916Y1074*
X3939*
Y1077*
X4196*
Y1074*
X4278*
G75*
G02X4264Y1107I32J33*
G01*
G75*
G02X4342Y1140I46*
G01*
X4707*
G75*
G02X4731Y1130I0J-33*
G01*
X4772Y1089*
G75*
G02X4782Y1066I-23J-23*
G01*
Y1017*
X4806*
Y1180*
X4223*
G75*
G02X4205Y1187I0J26*
G01*
X4181Y1211*
X4096*
G75*
G02X4116Y1178I-18J-33*
G01*
G75*
G02X4039I-38*
G01*
G75*
G02X4059Y1211I38*
G01*
X4041*
X4017Y1187*
G75*
G02X3999Y1180I-18J18*
G01*
X3642*
Y1166*
X3497*
Y1180*
X3458*
X3418Y1140*
Y1114*
G75*
G02X3441Y1074I-26J-41*
G01*
X3445*
G37*
X2690Y4324D02*
G36*
Y4369D01*
X2803*
Y4324*
X2896*
Y4485*
X652*
Y4324*
X2690*
G37*
X1232Y666D02*
G36*
Y666D01*
X1489*
Y666*
X1816*
X1895Y745*
X101*
Y666*
X1232*
G37*
X2771D02*
G36*
G75*
G02X2817Y674I27J-21D01*
G01*
X3988*
G75*
G02X4036Y666I21J-27*
G01*
X4346*
X4323Y690*
X4031*
G75*
G02X3974Y715I-23J26*
G01*
G75*
G02X3991Y745I34*
G01*
X2016*
X1938Y666*
X2771*
G37*
X4036D02*
G36*
G75*
G02X4032Y622I-28J-20D01*
G01*
G75*
G02Y573I-24J-25*
G01*
G75*
G02X4041Y538I-24J-25*
G01*
X4049Y546*
G75*
G02X4064Y554I18J-18*
G01*
G75*
G02X4111Y504I23J-25*
G01*
G75*
G02X4113Y457I-24J-25*
G01*
Y446*
X4417*
G75*
G02X4470I26*
G01*
X4476*
G75*
G02X4485Y468I34*
G01*
Y666*
X4416*
G75*
G02X4418Y656I-24J-10*
G01*
Y639*
G75*
G02X4426Y617I-26J-23*
G01*
G75*
G02X4358I-34*
G01*
G75*
G02X4367Y639I34*
G01*
Y646*
X4346Y666*
X4036*
G37*
X4485D02*
G36*
Y745D01*
X4025*
G75*
G02X4031Y741I-17J-30*
G01*
X4333*
G75*
G02X4351Y733I0J-26*
G01*
X4410Y674*
G75*
G02X4416Y666I-18J-18*
G01*
X4485*
G37*
X4670D02*
G36*
G75*
G02X4677Y688I37D01*
G01*
Y705*
X4665*
Y745*
X4663*
Y713*
X4603*
Y745*
X4536*
Y666*
X4670*
G37*
X4760D02*
G36*
G75*
G02X4802Y687I26D01*
G01*
Y722*
G75*
G02X4790Y745I26J27*
G01*
X4741*
Y705*
X4728*
Y697*
G75*
G02X4744Y666I-21J-31*
G01*
X4760*
G37*
X652Y282D02*
G36*
Y154D01*
X4001*
Y317*
G75*
G02X3992Y339I26J23*
G01*
G75*
G02X4060I34*
G01*
G75*
G02X4052Y317I-34*
G01*
Y172*
X4055*
G75*
G02X4062Y206I32J12*
G01*
Y457*
G75*
G02X4053Y478I26J23*
G01*
X3997Y422*
G75*
G02X3979Y414I-18J18*
G01*
X3864*
G75*
G02X3807Y440I-23J26*
G01*
G75*
G02X3864Y465I34*
G01*
X3968*
X4018Y515*
G75*
G02X3975Y542I-10J33*
G01*
X3182*
X3146Y506*
G75*
G02X3142Y503I-18J18*
G01*
X3550*
G75*
G02X3568Y495I0J-26*
G01*
X3757Y306*
X3941*
G75*
G02X3997Y280I23J-26*
G01*
G75*
G02X3941Y255I-34*
G01*
X3747*
G75*
G02X3729Y262I0J26*
G01*
X3708Y282*
X1554*
X1551Y279*
G75*
G02X1520Y267I-30J30*
G01*
X1041*
G75*
G02X987Y282I-16J43*
G01*
X652*
G37*
X987D02*
G36*
G75*
G02X978Y310I37J27D01*
G01*
G75*
G02X1041Y353I46*
G01*
X1503*
X1595Y446*
X1489*
Y410*
X1232*
Y446*
X652*
Y282*
X987*
G37*
X3708D02*
G36*
X3545Y446D01*
X1717*
X1554Y282*
X3708*
G37*
X4113D02*
G36*
Y206D01*
G75*
G02X4119Y172I-26J-23*
G01*
X4750*
X4802Y224*
Y282*
X4672*
Y274*
X4608*
Y282*
X4542*
Y274*
X4479*
Y282*
X4428*
Y263*
G75*
G02X4420Y244I-26J0*
G01*
X4391Y215*
G75*
G02X4373Y207I-18J18*
G01*
X4179*
G75*
G02X4122Y233I-23J26*
G01*
G75*
G02X4179Y259I34*
G01*
X4362*
X4377Y273*
Y282*
X4113*
G37*
X4377D02*
G36*
Y309D01*
G75*
G02X4368Y331I26J23*
G01*
G75*
G02X4436I34*
G01*
G75*
G02X4428Y309I-34*
G01*
Y282*
X4479*
Y334*
X4542*
Y282*
X4608*
Y334*
X4672*
Y282*
X4802*
Y446*
X4714*
G75*
G02X4701I-6J33*
G01*
X4657*
X4658Y444*
G75*
G02X4666Y426I-18J-18*
G01*
Y412*
X4680*
Y337*
X4601*
Y412*
X4615*
Y415*
X4611Y419*
G75*
G02X4555Y446I-22J26*
G01*
X4544*
G75*
G02X4536Y423I-34*
G01*
Y412*
X4550*
Y337*
X4471*
Y412*
X4485*
Y423*
G75*
G02X4476Y446I26J23*
G01*
X4470*
G75*
G02X4417I-26*
G01*
X4113*
Y282*
X4377*
G37*
X4603Y745D02*
G36*
Y777D01*
X4663*
Y745*
X4665*
Y785*
X4741*
Y745*
X4790*
G75*
G02X4800Y774I37J4*
G01*
Y815*
X4707*
Y911*
X4715*
Y921*
X4711*
Y1017*
X4715*
Y1052*
X4694Y1074*
X4536*
Y745*
X4603*
G37*
X2060Y2989D02*
G75*
G02X2080Y3064I20J35D01*
G01*
X2130*
G75*
G02X2150Y2989J-40*
G01*
X2450*
G75*
G02X2459Y3012I33J0*
G01*
X2538Y3091*
G75*
G02X2562Y3101I23J-23*
G01*
X2680*
G75*
G02X2703Y3091I0J-33*
G01*
X2782Y3012*
G75*
G02X2791Y2989I-23J-23*
G01*
X3070*
G75*
G02X3118Y3034I48J-3*
G01*
X3168*
G75*
G02X3216Y2989J-48*
G01*
X3270*
Y2194*
X3570*
G75*
G02X3575Y2259I35J29*
G01*
Y3051*
G75*
G02X3559Y3086I30J35*
G01*
G75*
G02X3651I46*
G01*
G75*
G02X3635Y3051I-46*
G01*
Y2259*
G75*
G02X3641Y2194I-30J-35*
G01*
X3748*
G75*
G02X3826Y2161I32J-33*
G01*
G75*
G02X3748Y2128I-46*
G01*
X3270*
Y2044*
X3501*
G75*
G02X3501Y2049I42J5*
G01*
G75*
G02X3585I42*
G01*
G75*
G02X3584Y2044I-42J0*
G01*
X4050*
X4032Y2062*
G75*
G02X4022Y2086I23J23*
G01*
Y2126*
G75*
G02X4007Y2156I33J35*
G01*
X4003*
G75*
G02X3907Y2161I-48J5*
G01*
Y2211*
G75*
G02X4003Y2216I48*
G01*
X4007*
G75*
G02X4103Y2211I48J-5*
G01*
Y2161*
G75*
G02X4088Y2126I-48*
G01*
Y2100*
X4121Y2067*
X4180*
G75*
G02X4177Y2069I16J20*
G01*
X4137Y2110*
G75*
G02X4131Y2120I18J18*
G01*
G75*
G02X4107Y2161I24J41*
G01*
Y2211*
G75*
G02X4203I48*
G01*
Y2161*
G75*
G02X4190Y2128I-48*
G01*
X4206Y2113*
X4396*
X4503Y2220*
G75*
G02X4521Y2227I18J-18*
G01*
X4626*
G75*
G02X4682Y2202I23J-26*
G01*
G75*
G02X4626Y2176I-34*
G01*
X4531*
X4425Y2069*
G75*
G02X4422Y2067I-18J18*
G01*
X4685*
G75*
G02X4762Y2044I32J-33*
G01*
X6013*
G75*
G02X6032Y2131I19J42*
G01*
G75*
G02X6051Y2044J-46*
G01*
X6184*
G75*
G02X6380I98J-8*
G01*
X6577*
Y4052*
X6006*
Y4485*
X2955*
Y4360*
X3025*
X3039Y4374*
X3079*
X3107Y4346*
Y4306*
X3079Y4278*
X3039*
X3026Y4291*
X2955*
Y4256*
X3021*
X3039Y4274*
X3079*
X3107Y4246*
Y4206*
X3079Y4178*
X3039*
X3027Y4190*
X2955*
Y3698*
X2780*
Y3669*
G75*
G02X2793Y3637I-33J-32*
G01*
G75*
G02X2701I-46*
G01*
G75*
G02X2714Y3669I46*
G01*
Y3698*
X2156*
G75*
G02X2134Y3692I-22J43*
G01*
X2084*
G75*
G02X2061Y3698J48*
G01*
X2010*
Y2989*
X2060*
X2080Y3172D02*
X2130D01*
G75*
G02Y3076J-48*
G01*
X2080*
G75*
G02Y3172J48*
G01*
Y3372D02*
X2130D01*
G75*
G02Y3276J-48*
G01*
X2080*
G75*
G02Y3372J48*
G01*
X2084Y3480D02*
X2134D01*
G75*
G02Y3400J-40*
G01*
X2084*
G75*
G02Y3480J40*
G01*
Y3588D02*
X2134D01*
G75*
G02Y3492J-48*
G01*
X2084*
G75*
G02Y3588J48*
G01*
Y3688D02*
X2134D01*
G75*
G02Y3592J-48*
G01*
X2084*
G75*
G02Y3688J48*
G01*
X2165Y3191D02*
G75*
G02X2130Y3176I-35J33D01*
G01*
X2080*
G75*
G02Y3272J48*
G01*
X2130*
G75*
G02X2165Y3257J-48*
G01*
X2836*
G75*
G02X2914Y3224I32J-33*
G01*
G75*
G02X2836Y3191I-46*
G01*
X2165*
X2449Y3519D02*
G75*
G02X2410Y3564I6J45D01*
G01*
G75*
G02X2500I45*
G01*
G75*
G02X2500Y3561I-45J0*
G01*
X2508Y3553*
X5023*
X5052Y3582*
Y3767*
G75*
G02X5043Y3789I26J23*
G01*
G75*
G02X5111I34*
G01*
G75*
G02X5103Y3767I-34*
G01*
Y3741*
G75*
G02X5151Y3709I14J-31*
G01*
G75*
G02X5142Y3687I-34*
G01*
Y3548*
G75*
G02X5135Y3530I-26J0*
G01*
X5057Y3452*
G75*
G02X5024Y3422I-33J3*
G01*
X2479*
G75*
G02X2411Y3455I-26J33*
G01*
G75*
G02X2479Y3488I42*
G01*
X2487*
G75*
G02X2471Y3497I8J32*
G01*
X2449Y3519*
X3118Y3134D02*
X3168D01*
G75*
G02Y3038J-48*
G01*
X3118*
G75*
G02Y3134J48*
G01*
X3126Y3889D02*
Y4178D01*
X3111*
Y4274*
X3207*
Y4259*
X3260*
Y4279*
X3367*
Y4259*
X3636*
G75*
G02X3646Y4258J-33*
G01*
X3701*
Y4152*
X3572*
Y4193*
X3367*
Y4173*
X3260*
Y4193*
X3207*
Y4178*
X3192*
Y3889*
G75*
G02X3205Y3857I-33J-32*
G01*
G75*
G02X3113I-46*
G01*
G75*
G02X3126Y3889I46*
G01*
X3199Y4310D02*
X3175Y4286D01*
X3142*
X3119Y4310*
Y4343*
X3142Y4367*
X3175*
X3199Y4343*
Y4310*
X3359Y4308D02*
X3332Y4281D01*
X3295*
X3268Y4308*
Y4345*
X3295Y4372*
X3332*
X3359Y4345*
Y4308*
X3410Y3034D02*
Y3039D01*
G75*
G02X3418Y3134I8J47*
G01*
X3468*
G75*
G02X3476Y3039J-48*
G01*
Y3034*
G75*
G02X3468Y2938I-8J-47*
G01*
X3418*
G75*
G02X3410Y3034J48*
G01*
X3418Y2826D02*
X3468D01*
G75*
G02Y2746J-40*
G01*
X3418*
G75*
G02Y2826J40*
G01*
Y2934D02*
X3468D01*
G75*
G02Y2838J-48*
G01*
X3418*
G75*
G02Y2934J48*
G01*
X3468Y2326D02*
X3418D01*
G75*
G02Y2422J48*
G01*
X3468*
G75*
G02Y2326J-48*
G01*
Y2426D02*
X3418D01*
G75*
G02Y2522J48*
G01*
X3468*
G75*
G02Y2426J-48*
G01*
Y2526D02*
X3418D01*
G75*
G02Y2622J48*
G01*
X3468*
G75*
G02Y2526J-48*
G01*
Y2626D02*
X3418D01*
G75*
G02Y2722J48*
G01*
X3468*
G75*
G02Y2626J-48*
G01*
X3693Y4326D02*
X3580D01*
Y4416*
X3693*
Y4326*
X3917Y2686D02*
G75*
G02X3993I38D01*
G01*
G75*
G02X3917I-38*
G01*
X4054Y3261D02*
G75*
G02X4131I38D01*
G01*
G75*
G02X4054I-38*
G01*
X4204Y3716D02*
Y3612D01*
X3931*
Y3885*
X4204*
Y3782*
X4556*
Y4081*
G75*
G02X4589Y4115I33*
G01*
X5162*
Y4218*
X5434*
Y3945*
X5162*
Y4048*
X4622*
Y3749*
G75*
G02X4589Y3716I-33*
G01*
X4204*
X4215Y2161D02*
Y2211D01*
G75*
G02X4295I40*
G01*
Y2161*
G75*
G02X4215I-40*
G01*
X4241Y3916D02*
G75*
G02X4231Y3906I-10D01*
G01*
X3923*
G75*
G02X3913Y3916J10*
G01*
Y3984*
G75*
G02X3923Y3994I10*
G01*
X4231*
G75*
G02X4241Y3984J-10*
G01*
Y3916*
X4304Y2999D02*
G75*
G02X4381I38D01*
G01*
G75*
G02X4304I-38*
G01*
X4913Y2176D02*
G75*
G02X4817I-48D01*
G01*
G75*
G02X4913I48*
G01*
Y2576D02*
G75*
G02X4817I-48D01*
G01*
G75*
G02X4913I48*
G01*
X4941Y3631D02*
G75*
G02X5017I38D01*
G01*
G75*
G02X4941I-38*
G01*
X5322Y2668D02*
Y2916D01*
G75*
G02X5332Y2939I33J0*
G01*
X5369Y2977*
G75*
G02X5393Y2987I23J-23*
G01*
X5768*
G75*
G02X5826Y2981I26J-33*
G01*
X5893*
G75*
G02X5932Y3051I39J24*
G01*
G75*
G02X5971Y2981J-46*
G01*
X5994*
G75*
G02X6032Y3001I38J-26*
G01*
G75*
G02X6070Y2980J-46*
G01*
X6119*
Y3569*
X6099Y3589*
X6070*
G75*
G02X6032Y3569I-38J26*
G01*
G75*
G02Y3660J46*
G01*
G75*
G02X6070Y3640J-46*
G01*
X6109*
G75*
G02X6127Y3632I0J-26*
G01*
X6162Y3598*
G75*
G02X6170Y3579I-18J-18*
G01*
Y2969*
G75*
G02X6171Y2959I-26J-9*
G01*
G75*
G02X6170Y2950I-27*
G01*
Y2335*
G75*
G02X6162Y2317I-26J0*
G01*
X6113Y2267*
G75*
G02X6095Y2260I-18J18*
G01*
X6070*
G75*
G02X6032Y2240I-38J26*
G01*
G75*
G02Y2331J46*
G01*
G75*
G02X6070Y2311J-46*
G01*
X6084*
X6119Y2345*
Y2929*
X6070*
G75*
G02X6032Y2909I-38J26*
G01*
G75*
G02X5996Y2926J46*
G01*
X5972*
G75*
G02X5932Y2859I-40J-21*
G01*
G75*
G02X5892Y2926J46*
G01*
X5826*
G75*
G02X5768Y2920I-32J27*
G01*
X5406*
X5388Y2902*
Y2673*
G75*
G02X5399Y2644I-31J-28*
G01*
G75*
G02X5315I-42*
G01*
G75*
G02X5322Y2668I42*
G01*
X5342Y3603D02*
G75*
G02X5327Y3639I34J35D01*
G01*
G75*
G02X5426I49*
G01*
G75*
G02X5420Y3615I-49*
G01*
X5460Y3575*
X5751*
G75*
G02X5775Y3565I0J-35*
G01*
X5834Y3506*
G75*
G02X5844Y3481I-25J-24*
G01*
Y3377*
X5873Y3348*
X5983*
G75*
G02X6007Y3338I0J-35*
G01*
X6057Y3289*
G75*
G02X6067Y3265I-25J-24*
G01*
Y3249*
X6091*
Y3142*
X6067*
Y3085*
G75*
G02X6032Y3009I-35J-30*
G01*
G75*
G02X5997Y3085J46*
G01*
Y3142*
X5992*
Y3249*
X5997*
Y3250*
X5968Y3279*
X5859*
G75*
G02X5834Y3289I0J35*
G01*
X5785Y3338*
G75*
G02X5775Y3363I25J24*
G01*
Y3467*
X5736Y3505*
X5445*
G75*
G02X5421Y3516I0J35*
G01*
X5352Y3584*
G75*
G02X5342Y3603I25J24*
G01*
X5385Y4394D02*
G75*
G02X5461I38D01*
G01*
G75*
G02X5385I-38*
G01*
X5397Y3883D02*
X5550Y4036D01*
G75*
G02X5573Y4046I23J-23*
G01*
X5997*
G75*
G02X6020Y4036I0J-33*
G01*
X6069Y3987*
G75*
G02X6076Y3977I-23J-23*
G01*
X6091*
Y3870*
X6067*
Y3744*
G75*
G02X6032Y3669I-35J-30*
G01*
G75*
G02X5998Y3744J46*
G01*
Y3870*
X5992*
Y3970*
X5983Y3979*
X5587*
X5435Y3827*
G75*
G02X5337Y3835I-49J8*
G01*
G75*
G02X5397Y3883I49*
G01*
X5437Y3107D02*
G75*
G02X5513I38D01*
G01*
G75*
G02X5437I-38*
G01*
X5614Y2472D02*
G75*
G02X5537Y2507I-30J35D01*
G01*
G75*
G02X5614Y2541I46*
G01*
X5993*
G75*
G02X6017Y2531I0J-35*
G01*
X6057Y2492*
G75*
G02X6067Y2467I-25J-24*
G01*
Y2416*
G75*
G02X6032Y2340I-35J-30*
G01*
G75*
G02X5997Y2416J46*
G01*
Y2453*
X5978Y2472*
X5943*
G75*
G02X5932Y2398I-11J-36*
G01*
G75*
G02X5921Y2472J38*
G01*
X5614*
X5683Y3766D02*
G75*
G02X5759I38D01*
G01*
G75*
G02X5683I-38*
G01*
X5890Y3150D02*
Y3241D01*
X5973*
Y3150*
X5890*
Y3878D02*
Y3970D01*
X5973*
Y3878*
X5890*
X5932Y2090D02*
G75*
G02Y2181J46D01*
G01*
G75*
G02Y2090J-46*
G01*
Y2190D02*
G75*
G02Y2281J46D01*
G01*
G75*
G02Y2190J-46*
G01*
Y2290D02*
G75*
G02Y2381J46D01*
G01*
G75*
G02Y2290J-46*
G01*
Y2759D02*
G75*
G02Y2851J46D01*
G01*
G75*
G02Y2759J-46*
G01*
Y3067D02*
G75*
G02Y3143J38D01*
G01*
G75*
G02Y3067J-38*
G01*
Y3419D02*
G75*
G02Y3510J46D01*
G01*
G75*
G02Y3419J-46*
G01*
Y3519D02*
G75*
G02Y3610J46D01*
G01*
G75*
G02Y3519J-46*
G01*
Y3619D02*
G75*
G02Y3710J46D01*
G01*
G75*
G02Y3619J-46*
G01*
Y3726D02*
G75*
G02Y3802J38D01*
G01*
G75*
G02Y3726J-38*
G01*
X6032Y2140D02*
G75*
G02Y2231J46D01*
G01*
G75*
G02Y2140J-46*
G01*
Y2709D02*
G75*
G02Y2801J46D01*
G01*
G75*
G02Y2709J-46*
G01*
Y2809D02*
G75*
G02Y2901J46D01*
G01*
G75*
G02Y2809J-46*
G01*
Y3369D02*
G75*
G02Y3460J46D01*
G01*
G75*
G02Y3369J-46*
G01*
Y3469D02*
G75*
G02Y3560J46D01*
G01*
G75*
G02Y3469J-46*
G01*
X6282Y2388D02*
G75*
G02Y2584J98D01*
G01*
G75*
G02Y2388J-98*
G01*
Y2607D02*
G75*
G02Y2803J98D01*
G01*
G75*
G02Y2607J-98*
G01*
Y3057D02*
G75*
G02Y3253J98D01*
G01*
G75*
G02Y3057J-98*
G01*
Y3266D02*
G75*
G02Y3462J98D01*
G01*
G75*
G02Y3266J-98*
G01*
Y3716D02*
G75*
G02Y3912J98D01*
G01*
G75*
G02Y3716J-98*
G01*
X2010Y3124D02*
G36*
Y2989D01*
X2060*
G75*
G02X2080Y3064I20J35*
G01*
X2130*
G75*
G02X2150Y2989J-40*
G01*
X2450*
G75*
G02X2459Y3012I33J0*
G01*
X2538Y3091*
G75*
G02X2562Y3101I23J-23*
G01*
X2680*
G75*
G02X2703Y3091I0J-33*
G01*
X2782Y3012*
G75*
G02X2791Y2989I-23J-23*
G01*
X3070*
G75*
G02X3118Y3034I48J-3*
G01*
X3168*
G75*
G02X3214Y2999J-48*
G01*
X3371*
G75*
G02X3410Y3034I46J-13*
G01*
Y3039*
G75*
G02X3388Y3124I8J47*
G01*
X3198*
G75*
G02X3168Y3038I-30J-38*
G01*
X3118*
G75*
G02X3088Y3124J48*
G01*
X2178*
G75*
G02X2130Y3076I-48*
G01*
X2080*
G75*
G02X2032Y3124J48*
G01*
X2010*
G37*
X2032D02*
G36*
G75*
G02X2080Y3172I48D01*
G01*
X2130*
G75*
G02X2178Y3124J-48*
G01*
X3088*
G75*
G02X3118Y3134I30J-38*
G01*
X3168*
G75*
G02X3198Y3124J-48*
G01*
X3388*
G75*
G02X3418Y3134I30J-38*
G01*
X3468*
G75*
G02X3498Y3124J-48*
G01*
X3578*
G75*
G02X3632I27J-38*
G01*
X5441*
G75*
G02X5509I34J-17*
G01*
X5899*
G75*
G02X5932Y3143I33J-19*
G01*
G75*
G02X5965Y3124J-38*
G01*
X5997*
Y3142*
X5992*
Y3224*
X5973*
Y3150*
X5890*
Y3224*
X4100*
G75*
G02X4085I-7J38*
G01*
X2914*
G75*
G02X2836Y3191I-46*
G01*
X2165*
G75*
G02X2130Y3176I-35J33*
G01*
X2080*
G75*
G02X2032Y3224J48*
G01*
X2010*
Y3124*
X2032*
G37*
X3498D02*
G36*
G75*
G02X3476Y3039I-30J-38D01*
G01*
Y3034*
G75*
G02X3514Y2999I-8J-47*
G01*
X3575*
Y3051*
G75*
G02X3559Y3086I30J35*
G01*
G75*
G02X3578Y3124I46*
G01*
X3498*
G37*
X3632D02*
G36*
G75*
G02X3651Y3086I-27J-38D01*
G01*
G75*
G02X3635Y3051I-46*
G01*
Y2999*
X4304*
G75*
G02X4381I38*
G01*
X5887*
G75*
G02X5932Y3051I45J6*
G01*
G75*
G02X5971Y2981J-46*
G01*
X5994*
G75*
G02X6070Y2980I38J-26*
G01*
X6119*
Y3124*
X6067*
Y3085*
G75*
G02X6032Y3009I-35J-30*
G01*
G75*
G02X5997Y3085J46*
G01*
Y3124*
X5965*
G75*
G02X5932Y3067I-33J-19*
G01*
G75*
G02X5899Y3124J38*
G01*
X5509*
G75*
G02X5513Y3107I-34J-17*
G01*
G75*
G02X5437I-38*
G01*
G75*
G02X5441Y3124I38J0*
G01*
X3632*
G37*
X6119D02*
G36*
Y3224D01*
X6091*
Y3142*
X6067*
Y3124*
X6119*
G37*
X6170D02*
G36*
Y2999D01*
X6577*
Y3124*
X6375*
G75*
G02X6282Y3057I-93J31*
G01*
G75*
G02X6189Y3124J98*
G01*
X6170*
G37*
X6189D02*
G36*
G75*
G02X6212Y3224I93J31D01*
G01*
X6170*
Y3124*
X6189*
G37*
X6577D02*
G36*
Y3224D01*
X6352*
G75*
G02X6375Y3124I-70J-69*
G01*
X6577*
G37*
X2010Y3324D02*
G36*
Y3224D01*
X2032*
G75*
G02X2080Y3272I48*
G01*
X2130*
G75*
G02X2165Y3257J-48*
G01*
X2836*
G75*
G02X2914Y3224I32J-33*
G01*
X4085*
G75*
G02X4054Y3261I7J38*
G01*
G75*
G02X4131I38*
G01*
G75*
G02X4100Y3224I-38*
G01*
X5890*
Y3241*
X5973*
Y3224*
X5992*
Y3249*
X5997*
Y3250*
X5968Y3279*
X5859*
G75*
G02X5834Y3289I0J35*
G01*
X5800Y3324*
X2178*
G75*
G02X2130Y3276I-48*
G01*
X2080*
G75*
G02X2032Y3324J48*
G01*
X2010*
G37*
X2032D02*
G36*
G75*
G02X2080Y3372I48D01*
G01*
X2130*
G75*
G02X2178Y3324J-48*
G01*
X5800*
X5785Y3338*
G75*
G02X5775Y3363I25J24*
G01*
Y3440*
X5054*
G75*
G02X5024Y3422I-29J15*
G01*
X2479*
G75*
G02X2414Y3440I-26J33*
G01*
X2174*
G75*
G02X2134Y3400I-40*
G01*
X2084*
G75*
G02X2044Y3440J40*
G01*
X2010*
Y3324*
X2032*
G37*
X6022D02*
G36*
X6057Y3289D01*
G75*
G02X6067Y3265I-25J-24*
G01*
Y3249*
X6091*
Y3224*
X6119*
Y3324*
X6022*
G37*
X6119D02*
G36*
Y3440D01*
X6070*
G75*
G02X6032Y3369I-38J-26*
G01*
G75*
G02X5994Y3440J46*
G01*
X5971*
G75*
G02X5932Y3419I-39J24*
G01*
G75*
G02X5893Y3440J46*
G01*
X5844*
Y3377*
X5873Y3348*
X5983*
G75*
G02X6007Y3338I0J-35*
G01*
X6022Y3324*
X6119*
G37*
X6170D02*
G36*
Y3224D01*
X6212*
G75*
G02X6282Y3253I70J-69*
G01*
G75*
G02X6352Y3224J-98*
G01*
X6577*
Y3324*
X6371*
G75*
G02X6282Y3266I-89J41*
G01*
G75*
G02X6193Y3324J98*
G01*
X6170*
G37*
X6193D02*
G36*
G75*
G02X6220Y3440I89J41D01*
G01*
X6170*
Y3324*
X6193*
G37*
X6577D02*
G36*
Y3440D01*
X6344*
G75*
G02X6371Y3324I-62J-76*
G01*
X6577*
G37*
X2044Y3440D02*
G36*
G75*
G02X2084Y3480I40D01*
G01*
X2134*
G75*
G02X2174Y3440J-40*
G01*
X2414*
G75*
G02X2411Y3455I39J15*
G01*
G75*
G02X2479Y3488I42*
G01*
X2487*
G75*
G02X2471Y3497I8J32*
G01*
X2449Y3519*
G75*
G02X2417Y3540I6J45*
G01*
X2182*
G75*
G02X2134Y3492I-48*
G01*
X2084*
G75*
G02X2036Y3540J48*
G01*
X2010*
Y3440*
X2044*
G37*
X5775D02*
G36*
Y3467D01*
X5736Y3505*
X5445*
G75*
G02X5421Y3516I0J35*
G01*
X5396Y3540*
X5141*
G75*
G02X5135Y3530I-24J8*
G01*
X5057Y3452*
G75*
G02X5054Y3440I-33J3*
G01*
X5775*
G37*
X5893D02*
G36*
G75*
G02X5932Y3510I39J24D01*
G01*
G75*
G02X5971Y3440J-46*
G01*
X5994*
G75*
G02X6032Y3460I38J-26*
G01*
G75*
G02X6070Y3440J-46*
G01*
X6119*
Y3540*
X6070*
G75*
G02X6032Y3469I-38J-26*
G01*
G75*
G02X5994Y3540J46*
G01*
X5971*
G75*
G02X5932Y3519I-39J24*
G01*
G75*
G02X5893Y3540J46*
G01*
X5800*
X5834Y3506*
G75*
G02X5844Y3481I-25J-24*
G01*
Y3440*
X5893*
G37*
X6220D02*
G36*
G75*
G02X6282Y3462I62J-76D01*
G01*
G75*
G02X6344Y3440J-98*
G01*
X6577*
Y3540*
X6170*
Y3440*
X6220*
G37*
X2036Y3540D02*
G36*
G75*
G02X2084Y3588I48D01*
G01*
X2134*
G75*
G02X2182Y3540J-48*
G01*
X2417*
G75*
G02X2410Y3564I39J24*
G01*
G75*
G02X2500I45*
G01*
G75*
G02X2500Y3561I-45J0*
G01*
X2508Y3553*
X5023*
X5052Y3582*
Y3640*
X5016*
G75*
G02X5017Y3631I-37J-9*
G01*
G75*
G02X4941I-38*
G01*
G75*
G02X4942Y3640I38J0*
G01*
X4204*
Y3612*
X3931*
Y3640*
X2793*
G75*
G02X2793Y3637I-46J-3*
G01*
G75*
G02X2701I-46*
G01*
G75*
G02X2701Y3640I46J0*
G01*
X2182*
G75*
G02X2134Y3592I-48*
G01*
X2084*
G75*
G02X2036Y3640J48*
G01*
X2010*
Y3540*
X2036*
G37*
X5396D02*
G36*
X5352Y3584D01*
G75*
G02X5342Y3603I25J24*
G01*
G75*
G02X5327Y3639I34J35*
G01*
G75*
G02X5327Y3640I49J0*
G01*
X5142*
Y3548*
G75*
G02X5141Y3540I-26J0*
G01*
X5396*
G37*
X5893D02*
G36*
G75*
G02X5932Y3610I39J24D01*
G01*
G75*
G02X5971Y3540J-46*
G01*
X5994*
G75*
G02X6032Y3560I38J-26*
G01*
G75*
G02X6070Y3540J-46*
G01*
X6119*
Y3569*
X6099Y3589*
X6070*
G75*
G02X6032Y3569I-38J26*
G01*
G75*
G02X5994Y3640J46*
G01*
X5971*
G75*
G02X5932Y3619I-39J24*
G01*
G75*
G02X5893Y3640J46*
G01*
X5426*
G75*
G02X5426Y3639I-49J-2*
G01*
G75*
G02X5420Y3615I-49*
G01*
X5460Y3575*
X5751*
G75*
G02X5775Y3565I0J-35*
G01*
X5800Y3540*
X5893*
G37*
X6577D02*
G36*
Y3640D01*
X6070*
X6109Y3640*
G75*
G02X6127Y3632I0J-26*
G01*
X6162Y3598*
G75*
G02X6170Y3579I-18J-18*
G01*
Y3540*
X6577*
G37*
X2036Y3640D02*
G36*
G75*
G02X2084Y3688I48D01*
G01*
X2134*
G75*
G02X2182Y3640J-48*
G01*
X2701*
G75*
G02X2714Y3669I46J-3*
G01*
Y3698*
X2156*
G75*
G02X2134Y3692I-22J43*
G01*
X2084*
G75*
G02X2061Y3698J48*
G01*
X2010*
Y3640*
X2036*
G37*
X3931D02*
G36*
Y3766D01*
X2955*
Y3698*
X2780*
Y3669*
G75*
G02X2793Y3640I-33J-32*
G01*
X3931*
G37*
X4942D02*
G36*
G75*
G02X5016I37J-9D01*
G01*
X5052*
Y3766*
X4622*
Y3749*
G75*
G02X4589Y3716I-33*
G01*
X4204*
Y3640*
X4942*
G37*
X5327D02*
G36*
G75*
G02X5426I49J-2D01*
G01*
X5893*
G75*
G02X5932Y3710I39J24*
G01*
G75*
G02X5971Y3640J-46*
G01*
X5994*
G75*
G02X6032Y3660I38J-26*
G01*
G75*
G02X6070Y3640J-46*
G01*
X6577*
Y3766*
X6368*
G75*
G02X6282Y3716I-86J48*
G01*
G75*
G02X6196Y3766J98*
G01*
X6067*
Y3744*
G75*
G02X6032Y3669I-35J-30*
G01*
G75*
G02X5998Y3744J46*
G01*
Y3766*
X5970*
G75*
G02X5932Y3726I-38J-2*
G01*
G75*
G02X5894Y3766J38*
G01*
X5759*
G75*
G02X5683I-38*
G01*
X5103*
Y3741*
G75*
G02X5142Y3687I14J-31*
G01*
Y3640*
X5327*
G37*
X2955Y4045D02*
G36*
Y3950D01*
X3126*
Y4045*
X2955*
G37*
X3126D02*
G36*
Y4178D01*
X3111*
Y4274*
X3207*
Y4259*
X3260*
Y4279*
X3367*
Y4259*
X3636*
G75*
G02X3646Y4258J-33*
G01*
X3701*
Y4152*
X3572*
Y4193*
X3367*
Y4173*
X3260*
Y4193*
X3207*
Y4178*
X3192*
Y4045*
X4556*
Y4081*
G75*
G02X4589Y4115I33*
G01*
X5162*
Y4218*
X5434*
Y4045*
X5568*
G75*
G02X5573Y4046I6J-33*
G01*
X5997*
G75*
G02X6002Y4045I0J-33*
G01*
X6577*
Y4052*
X6006*
Y4326*
X3693*
Y4326*
X3580*
Y4326*
X3359*
Y4308*
X3332Y4281*
X3295*
X3268Y4308*
Y4326*
X3199*
Y4310*
X3175Y4286*
X3142*
X3119Y4310*
Y4326*
X3107*
Y4306*
X3079Y4278*
X3039*
X3026Y4291*
X2955*
Y4256*
X3021*
X3039Y4274*
X3079*
X3107Y4246*
Y4206*
X3079Y4178*
X3039*
X3027Y4190*
X2955*
Y4045*
X3126*
G37*
X3192D02*
G36*
Y3950D01*
X3913*
Y3984*
G75*
G02X3923Y3994I10*
G01*
X4231*
G75*
G02X4241Y3984J-10*
G01*
Y3950*
X4556*
Y4045*
X3192*
G37*
X5434D02*
G36*
Y3950D01*
X5464*
X5550Y4036*
G75*
G02X5568Y4045I23J-23*
G01*
X5434*
G37*
X6002D02*
G36*
G75*
G02X6020Y4036I-6J-33D01*
G01*
X6069Y3987*
G75*
G02X6076Y3977I-23J-23*
G01*
X6091*
Y3950*
X6577*
Y4045*
X6002*
G37*
X3119Y4326D02*
G36*
Y4343D01*
X3142Y4367*
X3175*
X3199Y4343*
Y4326*
X3268*
Y4345*
X3295Y4372*
X3332*
X3359Y4345*
Y4326*
X3580*
Y4394*
X2955*
Y4360*
X3025*
X3039Y4374*
X3079*
X3107Y4346*
Y4326*
X3119*
G37*
X6006D02*
G36*
Y4394D01*
X5461*
G75*
G02X5385I-38*
G01*
X3693*
Y4326*
X6006*
G37*
X3270Y2786D02*
G36*
Y2674D01*
X3370*
G75*
G02X3418Y2722I48*
G01*
X3468*
G75*
G02X3516Y2674J-48*
G01*
X3575*
Y2786*
X3508*
G75*
G02X3468Y2746I-40*
G01*
X3418*
G75*
G02X3377Y2786J40*
G01*
X3270*
G37*
X3377D02*
G36*
G75*
G02X3418Y2826I40D01*
G01*
X3468*
G75*
G02X3508Y2786J-40*
G01*
X3575*
Y2886*
X3516*
G75*
G02X3468Y2838I-48*
G01*
X3418*
G75*
G02X3370Y2886J48*
G01*
X3270*
Y2786*
X3377*
G37*
X3635D02*
G36*
Y2674D01*
X3919*
G75*
G02X3917Y2686I36J12*
G01*
G75*
G02X3993I38*
G01*
G75*
G02X3991Y2674I-38J0*
G01*
X5322*
Y2786*
X3635*
G37*
X5322D02*
G36*
Y2886D01*
X3635*
Y2786*
X5322*
G37*
X5388D02*
G36*
Y2673D01*
G75*
G02X5399Y2644I-31J-28*
G01*
G75*
G02X5315I-42*
G01*
G75*
G02X5322Y2668I42*
G01*
Y2674*
X3991*
G75*
G02X3919I-36J13*
G01*
X3635*
Y2574*
X4817*
G75*
G02X4817Y2576I48J2*
G01*
G75*
G02X4913I48*
G01*
G75*
G02X4913Y2574I-48J0*
G01*
X6119*
Y2786*
X6065*
G75*
G02X6032Y2709I-33J-31*
G01*
G75*
G02X5999Y2786J46*
G01*
X5974*
G75*
G02X5932Y2759I-42J19*
G01*
G75*
G02X5890Y2786J46*
G01*
X5388*
G37*
X5890D02*
G36*
G75*
G02X5932Y2851I42J19D01*
G01*
G75*
G02X5974Y2786J-46*
G01*
X5999*
G75*
G02X6032Y2801I33J-31*
G01*
G75*
G02X6065Y2786J-46*
G01*
X6119*
Y2886*
X6065*
G75*
G02X6032Y2809I-33J-31*
G01*
G75*
G02X5999Y2886J46*
G01*
X5974*
G75*
G02X5932Y2859I-42J19*
G01*
G75*
G02X5892Y2926J46*
G01*
X5826*
G75*
G02X5768Y2920I-32J27*
G01*
X5406*
X5388Y2902*
Y2786*
X5890*
G37*
X6170D02*
G36*
Y2674D01*
X6189*
G75*
G02X6227Y2786I93J31*
G01*
X6170*
G37*
X6227D02*
G36*
G75*
G02X6282Y2803I55J-81D01*
G01*
G75*
G02X6337Y2786J-98*
G01*
X6577*
Y2886*
X6170*
Y2786*
X6227*
G37*
X6337D02*
G36*
G75*
G02X6375Y2674I-55J-81D01*
G01*
X6577*
Y2786*
X6337*
G37*
X3370Y2886D02*
G36*
G75*
G02X3418Y2934I48D01*
G01*
X3468*
G75*
G02X3516Y2886J-48*
G01*
X3575*
Y2999*
X3514*
G75*
G02X3468Y2938I-46J-13*
G01*
X3418*
G75*
G02X3371Y2999J48*
G01*
X3214*
G75*
G02X3216Y2989I-46J-13*
G01*
X3270*
Y2886*
X3370*
G37*
X5322D02*
G36*
Y2916D01*
G75*
G02X5332Y2939I33J0*
G01*
X5369Y2977*
G75*
G02X5393Y2987I23J-23*
G01*
X5768*
G75*
G02X5826Y2981I26J-33*
G01*
X5893*
G75*
G02X5887Y2999I39J24*
G01*
X4381*
G75*
G02X4304I-38*
G01*
X3635*
Y2886*
X5322*
G37*
X5999D02*
G36*
G75*
G02X6032Y2901I33J-31D01*
G01*
G75*
G02X6065Y2886J-46*
G01*
X6119*
Y2929*
X6070*
G75*
G02X5996Y2926I-38J26*
G01*
X5972*
G75*
G02X5974Y2886I-40J-21*
G01*
X5999*
G37*
X6577D02*
G36*
Y2999D01*
X6170*
Y2969*
G75*
G02Y2950I-26J-9*
G01*
Y2886*
X6577*
G37*
X3270Y2374D02*
G36*
Y2194D01*
X3570*
G75*
G02X3575Y2259I35J29*
G01*
Y2374*
X3516*
G75*
G02X3468Y2326I-48*
G01*
X3418*
G75*
G02X3370Y2374J48*
G01*
X3270*
G37*
X3370D02*
G36*
G75*
G02X3418Y2422I48D01*
G01*
X3468*
G75*
G02X3516Y2374J-48*
G01*
X3575*
Y2474*
X3516*
G75*
G02X3468Y2426I-48*
G01*
X3418*
G75*
G02X3370Y2474J48*
G01*
X3270*
Y2374*
X3370*
G37*
X3635D02*
G36*
Y2259D01*
G75*
G02X3641Y2194I-30J-35*
G01*
X3748*
G75*
G02X3826Y2161I32J-33*
G01*
G75*
G02X3748Y2128I-46*
G01*
X3270*
Y2044*
X3501*
G75*
G02X3501Y2049I42J5*
G01*
G75*
G02X3585I42*
G01*
G75*
G02X3584Y2044I-42J0*
G01*
X4050*
X4032Y2062*
G75*
G02X4022Y2086I23J23*
G01*
Y2126*
G75*
G02X4007Y2156I33J35*
G01*
X4003*
G75*
G02X3907Y2161I-48J5*
G01*
Y2211*
G75*
G02X4003Y2216I48*
G01*
X4007*
G75*
G02X4103Y2211I48J-5*
G01*
Y2161*
G75*
G02X4088Y2126I-48*
G01*
Y2100*
X4121Y2067*
X4180*
G75*
G02X4177Y2069I16J20*
G01*
X4137Y2110*
G75*
G02X4131Y2120I18J18*
G01*
G75*
G02X4107Y2161I24J41*
G01*
Y2211*
G75*
G02X4197Y2236I48*
G01*
X4223*
G75*
G02X4287I32J-24*
G01*
X5886*
G75*
G02X5932Y2281I46*
G01*
G75*
G02X5978Y2236J-46*
G01*
X6577*
Y2374*
X6170*
Y2335*
G75*
G02X6162Y2317I-26J0*
G01*
X6113Y2267*
G75*
G02X6095Y2260I-18J18*
G01*
X6070*
G75*
G02X6032Y2240I-38J26*
G01*
G75*
G02Y2331J46*
G01*
G75*
G02X6070Y2311J-46*
G01*
X6084*
X6119Y2345*
Y2374*
X6076*
G75*
G02X6032Y2340I-44J12*
G01*
G75*
G02X5988Y2374J46*
G01*
X5957*
G75*
G02X5932Y2290I-25J-38*
G01*
G75*
G02X5907Y2374J46*
G01*
X3635*
G37*
X5907D02*
G36*
G75*
G02X5932Y2381I25J-38D01*
G01*
G75*
G02X5957Y2374J-46*
G01*
X5988*
G75*
G02X5997Y2416I44J12*
G01*
Y2453*
X5978Y2472*
X5943*
G75*
G02X5932Y2398I-11J-36*
G01*
G75*
G02X5921Y2472J38*
G01*
X5614*
G75*
G02X5551Y2474I-30J35*
G01*
X3635*
Y2374*
X5907*
G37*
X6119D02*
G36*
Y2474D01*
X6066*
G75*
G02X6067Y2467I-34J-6*
G01*
Y2416*
G75*
G02X6076Y2374I-35J-30*
G01*
X6119*
G37*
X6577D02*
G36*
Y2474D01*
X6379*
G75*
G02X6282Y2388I-97J12*
G01*
G75*
G02X6185Y2474J98*
G01*
X6170*
Y2374*
X6577*
G37*
X3370Y2474D02*
G36*
G75*
G02X3418Y2522I48D01*
G01*
X3468*
G75*
G02X3516Y2474J-48*
G01*
X3575*
Y2574*
X3516*
G75*
G02X3468Y2526I-48*
G01*
X3418*
G75*
G02X3370Y2574J48*
G01*
X3270*
Y2474*
X3370*
G37*
X5551D02*
G36*
G75*
G02X5537Y2507I32J33D01*
G01*
G75*
G02X5614Y2541I46*
G01*
X5993*
G75*
G02X6017Y2531I0J-35*
G01*
X6057Y2492*
G75*
G02X6066Y2474I-25J-24*
G01*
X6119*
Y2574*
X4913*
G75*
G02X4817I-48J2*
G01*
X3635*
Y2474*
X5551*
G37*
X6185D02*
G36*
G75*
G02X6239Y2574I97J12D01*
G01*
X6170*
Y2474*
X6185*
G37*
X6577D02*
G36*
Y2574D01*
X6325*
G75*
G02X6379Y2474I-43J-88*
G01*
X6577*
G37*
X3370Y2574D02*
G36*
G75*
G02X3418Y2622I48D01*
G01*
X3468*
G75*
G02X3516Y2574J-48*
G01*
X3575*
Y2674*
X3516*
G75*
G02X3468Y2626I-48*
G01*
X3418*
G75*
G02X3370Y2674J48*
G01*
X3270*
Y2574*
X3370*
G37*
X6239D02*
G36*
G75*
G02X6282Y2584I43J-88D01*
G01*
G75*
G02X6325Y2574J-98*
G01*
X6577*
Y2674*
X6375*
G75*
G02X6282Y2607I-93J31*
G01*
G75*
G02X6189Y2674J98*
G01*
X6170*
Y2574*
X6239*
G37*
X4203Y2186D02*
G36*
Y2161D01*
G75*
G02X4196Y2136I-48*
G01*
X4224*
G75*
G02X4215Y2161I31J26*
G01*
Y2186*
X4203*
G37*
X4215D02*
G36*
Y2211D01*
G75*
G02X4223Y2236I40*
G01*
X4197*
G75*
G02X4203Y2211I-41J-24*
G01*
Y2186*
X4215*
G37*
X4295D02*
G36*
Y2161D01*
G75*
G02X4286Y2136I-40*
G01*
X4419*
X4469Y2186*
X4295*
G37*
X4469D02*
G36*
X4503Y2220D01*
G75*
G02X4521Y2227I18J-18*
G01*
X4626*
G75*
G02X4647Y2236I23J-26*
G01*
X4287*
G75*
G02X4295Y2211I-32J-24*
G01*
Y2186*
X4469*
G37*
X4649Y2236D02*
G36*
G75*
G02X4682Y2202I-1J-34D01*
G01*
G75*
G02X4679Y2186I-34J0*
G01*
X4818*
G75*
G02X4912I47J-11*
G01*
X5986*
G75*
G02X6032Y2231I46J-1*
G01*
G75*
G02X6078Y2186I0J-46*
G01*
X6577*
Y2236*
X5978*
G75*
G02X5932Y2190I-46*
G01*
G75*
G02X5886Y2236J46*
G01*
X4649*
G37*
X4679Y2186D02*
G36*
G75*
G02X4626Y2176I-30J15D01*
G01*
X4531*
X4491Y2136*
X4838*
G75*
G02X4817Y2176I27J40*
G01*
G75*
G02X4818Y2186I48J0*
G01*
X4679*
G37*
X4912D02*
G36*
G75*
G02X4913Y2176I-47J-11D01*
G01*
G75*
G02X4891Y2136I-48*
G01*
X5886*
G75*
G02X5932Y2181I46*
G01*
G75*
G02X5978Y2136J-46*
G01*
X6577*
Y2186*
X6078*
G75*
G02X6032Y2140I-46J-1*
G01*
G75*
G02X5986Y2186J46*
G01*
X4912*
G37*
X2955Y3950D02*
G36*
Y3766D01*
X3931*
Y3885*
X4204*
Y3782*
X4556*
Y3950*
X4241*
Y3916*
G75*
G02X4231Y3906I-10*
G01*
X3923*
G75*
G02X3913Y3916J10*
G01*
Y3950*
X3192*
Y3889*
G75*
G02X3205Y3857I-33J-32*
G01*
G75*
G02X3113I-46*
G01*
G75*
G02X3126Y3889I46*
G01*
Y3950*
X2955*
G37*
X5434D02*
G36*
Y3945D01*
X5162*
Y4048*
X4622*
Y3766*
X5052*
Y3767*
G75*
G02X5043Y3789I26J23*
G01*
G75*
G02X5111I34*
G01*
G75*
G02X5103Y3767I-34*
G01*
Y3766*
X5683*
G75*
G02X5759I38*
G01*
X5894*
G75*
G02X5932Y3802I38J-2*
G01*
G75*
G02X5970Y3766J-38*
G01*
X5998*
Y3870*
X5992*
Y3950*
X5973*
Y3878*
X5890*
Y3950*
X5557*
X5435Y3827*
G75*
G02X5337Y3835I-49J8*
G01*
G75*
G02X5397Y3883I49*
G01*
X5464Y3950*
X5434*
G37*
X5890D02*
G36*
Y3970D01*
X5973*
Y3950*
X5992*
Y3970*
X5983Y3979*
X5587*
X5557Y3950*
X5890*
G37*
X6091D02*
G36*
Y3870D01*
X6067*
Y3766*
X6196*
G75*
G02X6282Y3912I86J48*
G01*
G75*
G02X6368Y3766J-98*
G01*
X6577*
Y3950*
X6091*
G37*
X3580Y4394D02*
G36*
Y4416D01*
X3693*
Y4394*
X5385*
G75*
G02X5461I38*
G01*
X6006*
Y4485*
X2955*
Y4394*
X3580*
G37*
X4196Y2136D02*
G36*
G75*
G02X4190Y2128I-41J26D01*
G01*
X4206Y2113*
X4396*
X4419Y2136*
X4286*
G75*
G02X4224I-31J26*
G01*
X4196*
G37*
X4491D02*
G36*
X4425Y2069D01*
G75*
G02X4422Y2067I-18J18*
G01*
X4685*
G75*
G02X4762Y2044I32J-33*
G01*
X6013*
G75*
G02X6032Y2131I19J42*
G01*
G75*
G02X6051Y2044J-46*
G01*
X6184*
G75*
G02X6380I98J-8*
G01*
X6577*
Y2136*
X5978*
G75*
G02X5932Y2090I-46*
G01*
G75*
G02X5886Y2136J46*
G01*
X4891*
G75*
G02X4838I-27J40*
G01*
X4491*
G37*
X2856Y2890D02*
X2866Y2880D01*
G75*
G02X2888Y2849I-11J-31*
G01*
Y2483*
X3039Y2332*
G75*
G02X3089Y2282I4J-46*
G01*
X3177Y2194*
X3211*
Y2353*
G75*
G02X3168Y2326I-44J20*
G01*
X3118*
G75*
G02Y2422J48*
G01*
X3168*
G75*
G02X3211Y2394J-48*
G01*
Y2453*
G75*
G02X3168Y2426I-44J20*
G01*
X3118*
G75*
G02Y2522J48*
G01*
X3168*
G75*
G02X3211Y2494J-48*
G01*
Y2553*
G75*
G02X3168Y2526I-44J20*
G01*
X3118*
G75*
G02Y2622J48*
G01*
X3168*
G75*
G02X3211Y2594J-48*
G01*
Y2766*
G75*
G02X3168Y2738I-44J20*
G01*
X3118*
G75*
G02Y2834J48*
G01*
X3168*
G75*
G02X3211Y2807J-48*
G01*
Y2866*
G75*
G02X3168Y2838I-44J20*
G01*
X3118*
G75*
G02X3070Y2890J48*
G01*
X2856*
X3168Y2633D02*
X3118D01*
G75*
G02Y2714J40*
G01*
X3168*
G75*
G02Y2633J-40*
G01*
X2888Y2674D02*
G36*
Y2483D01*
X3039Y2332*
G75*
G02X3089Y2282I4J-46*
G01*
X3177Y2194*
X3211*
Y2353*
G75*
G02X3168Y2326I-44J20*
G01*
X3118*
G75*
G02Y2422J48*
G01*
X3168*
G75*
G02X3211Y2394J-48*
G01*
Y2453*
G75*
G02X3168Y2426I-44J20*
G01*
X3118*
G75*
G02Y2522J48*
G01*
X3168*
G75*
G02X3211Y2494J-48*
G01*
Y2553*
G75*
G02X3168Y2526I-44J20*
G01*
X3118*
G75*
G02Y2622J48*
G01*
X3168*
G75*
G02X3211Y2594J-48*
G01*
Y2674*
X3208*
G75*
G02X3168Y2633I-40*
G01*
X3118*
G75*
G02X3077Y2674J40*
G01*
X2888*
G37*
X3077D02*
G36*
G75*
G02X3118Y2714I40D01*
G01*
X3168*
G75*
G02X3208Y2674J-40*
G01*
X3211*
Y2766*
G75*
G02X3168Y2738I-44J20*
G01*
X3118*
G75*
G02Y2834J48*
G01*
X3168*
G75*
G02X3211Y2807J-48*
G01*
Y2866*
G75*
G02X3168Y2838I-44J20*
G01*
X3118*
G75*
G02X3070Y2890J48*
G01*
X2856*
X2866Y2880*
G75*
G02X2888Y2849I-11J-31*
G01*
Y2674*
X3077*
G37*
X4804Y154D02*
X5987D01*
Y627*
X6144*
G75*
G02X6150Y688I32J28*
G01*
Y1069*
X6039Y1180*
X4857*
Y1017*
X4873*
Y921*
X4782*
Y911*
X4869*
Y815*
X4851*
Y777*
G75*
G02X4853Y722I-24J-29*
G01*
Y213*
G75*
G02X4845Y195I-26J0*
G01*
X4804Y154*
X4898Y456D02*
Y644D01*
G75*
G02X4858Y666I-14J22*
G01*
G75*
G02X4898Y688I26*
G01*
Y1057*
G75*
G02X4890Y1079I26J23*
G01*
G75*
G02X4953Y1096I34*
G01*
G75*
G02X5013Y1094I30J-17*
G01*
G75*
G02X5076Y1076I28J-19*
G01*
G75*
G02X5067Y1053I-34*
G01*
Y354*
G75*
G02X5076Y331I-26J-23*
G01*
G75*
G02X5008I-34*
G01*
G75*
G02X5016Y354I34*
G01*
Y384*
G75*
G02X4949Y390I-33J6*
G01*
G75*
G02X4957Y413I34*
G01*
Y428*
G75*
G02X4890Y434I-33J6*
G01*
G75*
G02X4898Y456I34*
G01*
X5169Y409D02*
Y665D01*
X5426*
Y409*
X5169*
X5206Y987D02*
G75*
G02X5212Y991I23J-26D01*
G01*
G75*
G02X5195Y1020I17J30*
G01*
G75*
G02X5251Y1046I34*
G01*
X5462*
G75*
G02X5507I23J-26*
G01*
X5564*
G75*
G02X5582Y1038I0J-26*
G01*
X5621Y999*
G75*
G02X5628Y981I-18J-18*
G01*
Y875*
X5651*
Y800*
Y788*
Y713*
X5555*
Y723*
X5533*
Y713*
X5518*
Y650*
X5544Y624*
X5565*
G75*
G02X5645Y610I35J-33*
G01*
G75*
G02X5720Y591I36J-19*
G01*
G75*
G02X5645Y573I-40*
G01*
G75*
G02X5565Y558I-44J19*
G01*
X5530*
G75*
G02X5507Y568I0J33*
G01*
X5461Y613*
G75*
G02X5452Y637I23J23*
G01*
Y713*
X5437*
Y723*
X5425*
Y713*
X5328*
Y788*
Y800*
Y806*
X5190*
G75*
G02X5171Y813I0J26*
G01*
X5132Y853*
G75*
G02X5125Y871I18J18*
G01*
Y922*
G75*
G02X5132Y940I26J0*
G01*
X5171Y979*
G75*
G02X5190Y987I18J-18*
G01*
X5206*
X5928Y781D02*
G75*
G02Y872J45D01*
G01*
G75*
G02Y781J-45*
G01*
X4853Y705D02*
G36*
Y537D01*
X4898*
Y644*
G75*
G02X4858Y666I-14J22*
G01*
G75*
G02X4898Y688I26*
G01*
Y705*
X4853*
G37*
X4898D02*
G36*
Y827D01*
X4869*
Y815*
X4851*
Y777*
G75*
G02X4853Y722I-24J-29*
G01*
Y705*
X4898*
G37*
X5067D02*
G36*
Y537D01*
X5169*
Y665*
X5426*
Y537*
X5987*
Y627*
X6144*
G75*
G02X6150Y688I32J28*
G01*
Y705*
X5518*
Y650*
X5544Y624*
X5565*
G75*
G02X5645Y610I35J-33*
G01*
G75*
G02X5720Y591I36J-19*
G01*
G75*
G02X5645Y573I-40*
G01*
G75*
G02X5565Y558I-44J19*
G01*
X5530*
G75*
G02X5507Y568I0J33*
G01*
X5461Y613*
G75*
G02X5452Y637I23J23*
G01*
Y705*
X5067*
G37*
X5452D02*
G36*
Y713D01*
X5437*
Y723*
X5425*
Y713*
X5328*
Y806*
X5190*
G75*
G02X5171Y813I0J26*
G01*
X5158Y827*
X5067*
Y705*
X5452*
G37*
X6150D02*
G36*
Y827D01*
X5973*
G75*
G02X5928Y781I-45*
G01*
G75*
G02X5883Y827J45*
G01*
X5651*
Y713*
X5555*
Y723*
X5533*
Y713*
X5518*
Y705*
X6150*
G37*
X4853Y537D02*
G36*
Y213D01*
G75*
G02X4845Y195I-26J0*
G01*
X4804Y154*
X5987*
Y537*
X5426*
Y409*
X5169*
Y537*
X5067*
Y354*
G75*
G02X5076Y331I-26J-23*
G01*
G75*
G02X5008I-34*
G01*
G75*
G02X5016Y354I34*
G01*
Y384*
G75*
G02X4949Y390I-33J6*
G01*
G75*
G02X4957Y413I34*
G01*
Y428*
G75*
G02X4890Y434I-33J6*
G01*
G75*
G02X4898Y456I34*
G01*
Y537*
X4853*
G37*
X4898Y827D02*
G36*
Y1057D01*
G75*
G02X4890Y1079I26J23*
G01*
G75*
G02X4953Y1096I34*
G01*
G75*
G02X5013Y1094I30J-17*
G01*
G75*
G02X5076Y1076I28J-19*
G01*
G75*
G02X5067Y1053I-34*
G01*
Y827*
X5158*
X5132Y853*
G75*
G02X5125Y871I18J18*
G01*
Y922*
G75*
G02X5132Y940I26J0*
G01*
X5171Y979*
G75*
G02X5190Y987I18J-18*
G01*
X5206*
G75*
G02X5212Y991I23J-26*
G01*
G75*
G02X5195Y1020I17J30*
G01*
G75*
G02X5251Y1046I34*
G01*
X5462*
G75*
G02X5507I23J-26*
G01*
X5564*
G75*
G02X5582Y1038I0J-26*
G01*
X5621Y999*
G75*
G02X5628Y981I-18J-18*
G01*
Y875*
X5651*
Y827*
X5883*
G75*
G02X5928Y872I45*
G01*
G75*
G02X5973Y827J-45*
G01*
X6150*
Y1069*
X6039Y1180*
X4857*
Y1017*
X4873*
Y921*
X4782*
Y911*
X4869*
Y827*
X4898*
G37*
D02*
D151*
X1361Y538D03*
Y4081D03*
X1368Y949D03*
Y3749D03*
X4068Y949D03*
Y3749D03*
X5298Y537D03*
Y4081D03*
D02*
D152*
X2493Y974D03*
Y1074D03*
X2593Y974D03*
Y1074D03*
X2693Y974D03*
Y1074D03*
X2793Y974D03*
Y1074D03*
X2893Y974D03*
Y1074D03*
X2993Y974D03*
Y1074D03*
X3093Y974D03*
Y1074D03*
X3193Y974D03*
Y1074D03*
X3293Y974D03*
Y1074D03*
X3393Y974D03*
Y1074D03*
X3493Y974D03*
Y1074D03*
X3593Y974D03*
Y1074D03*
X3693Y974D03*
Y1074D03*
X3793Y974D03*
Y1074D03*
D02*
D155*
X3534Y1205D03*
X3604D03*
X4633Y745D03*
X4703D03*
X5332Y1355D03*
X5402D03*
D02*
D158*
X4750Y863D03*
X4754Y969D03*
X4825Y863D03*
X4829Y969D03*
X5113Y1296D03*
Y1552D03*
Y1670D03*
X5188Y1296D03*
Y1552D03*
Y1670D03*
D02*
D159*
X4510Y304D03*
Y374D03*
X4640Y304D03*
Y374D03*
D02*
D160*
X5377Y757D03*
Y832D03*
X5485Y757D03*
Y832D03*
X5603Y757D03*
Y832D03*
D02*
D161*
X1805Y3024D03*
Y3124D03*
Y3224D03*
Y3324D03*
X1809Y3440D03*
Y3540D03*
Y3640D03*
Y3740D03*
Y3855D03*
Y3955D03*
Y4055D03*
Y4155D03*
X2105Y3024D03*
Y3124D03*
Y3224D03*
Y3324D03*
X2109Y3440D03*
Y3540D03*
Y3640D03*
Y3740D03*
Y3855D03*
Y3955D03*
Y4055D03*
Y4155D03*
X3143Y2374D03*
Y2474D03*
Y2574D03*
Y2674D03*
Y2786D03*
Y2886D03*
Y2986D03*
Y3086D03*
X3443Y2374D03*
Y2474D03*
Y2574D03*
Y2674D03*
Y2786D03*
Y2886D03*
Y2986D03*
Y3086D03*
D02*
D163*
X3955Y1886D03*
Y2186D03*
X4055Y1886D03*
Y2186D03*
X4155Y1886D03*
Y2186D03*
X4255Y1886D03*
Y2186D03*
D02*
D165*
X5932Y3196D03*
Y3924D03*
X6042Y3196D03*
Y3924D03*
D02*
D167*
X6282Y2036D03*
Y2486D03*
Y2705D03*
Y3155D03*
Y3364D03*
Y3814D03*
D02*
D174*
X405Y961D03*
X418Y1661D03*
X905Y961D03*
X918Y1661D03*
D02*
D177*
X4865Y2176D03*
Y2576D03*
D02*
D186*
X5928Y827D03*
Y1771D03*
D02*
D187*
X5600Y591D03*
X5680D03*
D02*
D188*
X1024Y310D03*
X1380Y1436D03*
X1583Y3383D03*
Y3790D03*
X1668Y1286D03*
X1693Y2499D03*
X1893Y949D03*
Y1149D03*
X2345Y2871D03*
X2365Y1761D03*
X2480Y1361D03*
X2580Y2961D03*
X2593Y1611D03*
X2747Y3637D03*
X2755Y2949D03*
X2868Y3224D03*
X2930Y1399D03*
X3043Y2286D03*
X3143Y1799D03*
X3159Y3857D03*
X3304Y1723D03*
X3443Y1886D03*
X3605Y2224D03*
Y3086D03*
X3625Y1589D03*
X3780Y2161D03*
X3780Y1723D03*
X3955Y2686D03*
X4075Y1589D03*
X4077Y1178D03*
X4093Y3261D03*
X4310Y1107D03*
X4343Y2999D03*
X4455Y1296D03*
X4717Y2034D03*
X4979Y3631D03*
X5278Y1296D03*
X5377Y3639D03*
X5386Y3835D03*
X5423Y4394D03*
X5475Y1355D03*
Y3107D03*
X5583Y2507D03*
X5721Y3766D03*
D02*
D189*
X255Y2011D03*
X543Y1499D03*
X2030Y2574D03*
X2093Y1924D03*
X2305Y1824D03*
X2453Y3455D03*
X2455Y3564D03*
X2640Y2005D03*
X2817Y1394D03*
X3243Y1324D03*
X3493Y1374D03*
X3543Y2049D03*
X5357Y2644D03*
X5794Y2953D03*
X6176Y654D03*
D02*
D190*
X393Y1499D02*
X255Y1636D01*
X544Y1432D02*
Y900D01*
X695Y749*
X1368*
Y949*
X1361Y538D02*
Y949D01*
X1368*
X1893*
X1380Y1486D02*
Y3236D01*
X1527Y3383*
X1583*
Y3790D02*
Y3383D01*
X1655Y2374D02*
X1693Y2411D01*
Y2499*
X1809Y4155D02*
Y4215D01*
X1920Y4326*
X2731*
X1893Y1361D02*
X1818Y1436D01*
X2105Y3024D02*
X2286D01*
Y3028*
X2404Y3146*
X3034*
X3054Y3166*
X3270*
X3310Y3127*
Y2831*
X3349Y2792*
X3443*
X2105Y3028D02*
X1971D01*
X1951Y3048*
Y3383*
X2009Y3440*
X2105Y3224D02*
X2868D01*
X2230Y1536D02*
Y1361D01*
X2453Y3455D02*
X5024D01*
X2455Y3560D02*
X2495Y3520D01*
X5026*
X2747Y4103D02*
Y3637D01*
Y4103D02*
Y4105D01*
X2865Y4223*
X3060*
X2747Y4158D02*
Y4103D01*
Y4324D02*
Y4325D01*
X2731*
Y4326*
X2758Y2949D02*
Y2989D01*
X2680Y3068*
X2562*
X2483Y2989*
Y2930*
X2424Y2871*
X2345*
X2855Y2474D02*
Y2849D01*
X2869Y1509D02*
X2365D01*
Y1761*
X2983Y1509D02*
X3298D01*
X3353Y1453*
Y1343*
X3400Y1296*
X4455*
X3059Y4325D02*
X2886D01*
X2731Y4326*
X3159Y4226D02*
Y3857D01*
Y4326D02*
X3314D01*
X3160D02*
Y4402D01*
X3195Y4438*
X3404*
X3447Y4394*
X3628*
X3304Y1723D02*
X3780D01*
X3304D02*
X3028D01*
X2930Y1625*
X3314Y4226D02*
X3159D01*
X3314D02*
X3636D01*
Y4205*
X3443Y3086D02*
Y2986D01*
X3623Y1589D02*
Y1432D01*
X3565Y1374*
X3493*
X3628Y4394D02*
X5423D01*
X3636Y4371D02*
Y4394D01*
X3628*
X3780Y2161D02*
X3168D01*
X4055Y2186D02*
Y2086D01*
X4107Y2034*
X4717*
X4068Y949D02*
X4077D01*
X4068Y3749D02*
X4589D01*
Y4081*
X5298*
X4075Y1589D02*
X3625D01*
X4255Y2186D02*
Y2686D01*
X4280*
X4343Y2749*
X4268Y3261D02*
X4343Y3186D01*
X4310Y1107D02*
X4510D01*
X4310D02*
X4707D01*
X4748Y1066*
Y969*
Y859*
X4750*
Y863*
X4754Y969D02*
X4748D01*
X4979Y3631D02*
Y3871D01*
X5014Y3906*
X5195*
X5243Y3859*
Y3814*
X5290Y3766*
X5188Y1552D02*
Y1296D01*
Y1670D02*
Y1552D01*
X5290Y3766D02*
X5721D01*
X5298Y537D02*
Y528D01*
X5317Y509*
X5650*
X5680Y539*
Y591*
X5355Y2668D02*
Y2916D01*
X5393Y2953*
X5794*
X5377Y757D02*
X5485D01*
X5475Y3107D02*
X5497D01*
Y3105*
X5932*
X5475Y3107D02*
X5290D01*
Y3766*
X5475Y3107D02*
X4343D01*
X5485Y757D02*
Y637D01*
X5530Y591*
X5600*
X5603Y757D02*
X5485D01*
X5906Y3766D02*
X5721D01*
Y3766*
X5721*
X5914Y2436D02*
Y2436D01*
X5426Y2436*
X5298Y2564*
Y3009*
X5396Y3107*
X5475*
X5932Y3924D02*
Y3764D01*
X5932Y3105D02*
Y3196D01*
X5932*
X6032Y2412D02*
X6032D01*
X6032Y2467*
X5993Y2507*
X5583*
X6032Y3077D02*
X6032D01*
X6032Y3265*
X5983Y3314*
X5859*
X5810Y3363*
Y3481*
X5751Y3540*
X5445*
X5377Y3609*
Y3639*
X6032Y3743D02*
X6032Y3924D01*
X6042*
X6046*
Y3963*
X5997Y4013*
X5573*
X5396Y3835*
X5386*
D02*
D191*
X477Y1499D02*
X393Y1499D01*
X1380Y1436D02*
Y1486D01*
X1668Y1286D02*
X1655D01*
Y2374*
X1818Y1436D02*
Y1574D01*
X1868Y1624*
X2005*
X2093Y1711*
Y1924*
X1893Y1149D02*
Y1361D01*
X2230D02*
X1893D01*
X2480D02*
X2230D01*
X2493D02*
Y1074D01*
X2855Y2849D02*
X2755Y2949D01*
X2930Y1625D02*
Y1399D01*
X3043Y2286D02*
X2855Y2474D01*
X3168Y2161D02*
X3043Y2286D01*
X3605Y3086D02*
Y2224D01*
X3855Y1074D02*
X3793D01*
X3955Y2686D02*
X4255D01*
X4055Y2186D02*
X3955D01*
X4093Y3261D02*
X4268D01*
X4343Y2749D02*
Y2999D01*
Y3107D02*
Y2999D01*
Y3186D02*
Y3107D01*
D02*
D192*
X543Y1499D02*
X544D01*
Y1432*
X543Y1499D02*
Y1499D01*
X477*
X2009Y3440D02*
X2109D01*
X2105Y3024D02*
Y3028D01*
X2305Y1824D02*
Y1809D01*
X2132Y1636*
X2130*
Y1536*
X2455Y3564D02*
Y3560D01*
X2480Y1361D02*
X2493D01*
X2593Y1074D02*
X2543Y1024D01*
X1855*
X1780Y1099*
Y1599*
X1843Y1661*
X1993*
X2030Y1699*
Y2574*
X2593Y1611D02*
Y1729D01*
X2498Y1824*
X2305*
X2640Y2005D02*
X2188D01*
X2128Y2064*
Y2910*
X2089Y2950*
X1951*
X1892Y3009*
Y4013*
X1850Y4055*
X1809*
X2755Y2949D02*
X2758D01*
X2817Y1394D02*
Y1099D01*
X2798Y1079*
X2793*
Y1074*
X3059Y4326D02*
Y4325D01*
X3060Y4223D02*
Y4226D01*
X3059*
X3093Y524D02*
X3128D01*
X3172Y568*
X3989*
X4008Y548*
X3143Y1799D02*
Y1907D01*
X3073Y1976*
Y2182*
X2581Y2674*
Y2961*
X2580*
X3159Y4326D02*
X3160D01*
X3243Y1324D02*
Y1199D01*
X3268Y1174*
X3368*
X3393Y1149*
Y1074*
X3443Y1886D02*
X3480D01*
X3543Y1949*
Y2049*
X3443Y2792D02*
Y2786D01*
X3534Y1205D02*
X3447D01*
X3393Y1151*
Y1074*
X3604Y1205D02*
X3999D01*
X4030Y1237*
X4191*
X4223Y1205*
X4831*
X3625Y1589D02*
X3623D01*
X3841Y440D02*
X3979D01*
X4067Y528*
X4087*
X3963Y280D02*
X3747D01*
X3550Y477*
X3034*
X2987Y524*
X2924*
X2896Y552*
Y599*
X4008Y597D02*
X2995D01*
X4008Y646D02*
X2798Y645D01*
X4008Y715D02*
X4333D01*
X4392Y656*
Y617*
X4026Y339D02*
Y146D01*
X4760*
X4827Y213*
Y749*
X4077Y949D02*
Y1178D01*
X4087Y479D02*
Y184D01*
X4402Y331D02*
Y263D01*
X4373Y233*
X4156*
X4510Y304D02*
X4471D01*
X4443Y331*
Y446*
X4510Y374D02*
Y446D01*
Y1107D02*
Y446D01*
X4633Y745D02*
Y794D01*
X4786*
Y666*
X4633Y745D02*
Y528D01*
X4628*
X4640Y304D02*
X4510D01*
X4640Y374D02*
Y426D01*
X4621Y446*
X4589*
X4648Y2202D02*
X4521D01*
X4406Y2087*
X4195*
X4155Y2128*
Y2186*
X4703Y745D02*
Y666D01*
X4707*
Y479*
X4825Y863D02*
Y749D01*
X4827*
X4829Y969D02*
X4831D01*
Y1205*
X6050*
X6176Y1079*
Y654*
X4924Y1079D02*
Y434D01*
Y1237D02*
Y1670D01*
X4983Y390D02*
Y1079D01*
Y1237D02*
Y1552D01*
X5024Y3455D02*
X5117Y3548D01*
Y3709*
X5026Y3520D02*
X5077Y3572D01*
Y3789*
X5042Y331D02*
Y1076D01*
Y1237D02*
Y1296D01*
Y1453*
X5113Y1296D02*
X5042D01*
X5113Y1552D02*
X4983D01*
X5113Y1670D02*
X4924D01*
X5188Y1296D02*
X5278D01*
X5332Y1355D02*
X5278D01*
Y1296*
X5357Y2644D02*
Y2668D01*
X5355*
X5377Y832D02*
X5190D01*
X5150Y871*
Y922*
X5190Y961*
X5229*
X5402Y1355D02*
X5475D01*
X5485Y832D02*
Y902D01*
X5229*
X5485Y961D02*
X5229D01*
X5485Y1020D02*
X5229D01*
X5603Y832D02*
Y981D01*
X5564Y1020*
X5485*
X5794Y2953D02*
X6056D01*
Y2955*
X6032*
X5932Y3764D02*
X5932D01*
Y2436D02*
X5914D01*
X5932Y3105D02*
Y3105D01*
Y3764D02*
Y3762D01*
X5906*
Y3766*
X6032Y2286D02*
X6095D01*
X6144Y2335*
Y2959*
X6032Y2386D02*
Y2412D01*
Y3055D02*
Y3077D01*
Y3614D02*
X6109D01*
X6144Y3579*
Y2959*
X6032Y3714D02*
X6032D01*
Y3743*
X6144Y2959D02*
Y2955D01*
X6032*
D02*
D193*
X1024Y310D02*
X1520D01*
X2034Y824*
X3820*
X3893Y897*
Y1036*
X3855Y1074*
X0Y0D02*
M02*
