%FSLAX23Y23*%
%MOIN*%
G04 EasyPC Gerber Version 14.0.2 Build 2922 *
%ADD113C,0.00400*%
%ADD112C,0.00448*%
%ADD110C,0.00480*%
%ADD111C,0.00600*%
%ADD109C,0.00750*%
X0Y0D02*
D02*
D109*
X804Y484D02*
Y463D01*
X801Y459*
X794*
X791Y463*
Y472*
Y463D02*
X788Y459D01*
X782*
X779Y463*
Y484*
X754D02*
Y463D01*
X751Y459*
X744*
X741Y463*
Y472*
Y463D02*
X738Y459D01*
X732*
X729Y463*
Y484*
X704D02*
Y463D01*
X701Y459*
X694*
X691Y463*
Y472*
Y463D02*
X688Y459D01*
X682*
X679Y463*
Y484*
X651Y459D02*
X648Y463D01*
X651Y466*
X654Y463*
X651Y459*
X579Y463D02*
X582Y459D01*
X588*
X594*
X601Y463*
X604Y469*
Y478*
X601Y481*
X594Y484*
X588*
X582Y481*
X579Y478*
Y475*
X582Y472*
X588Y469*
X594*
X601Y472*
X604Y475*
X554Y459D02*
Y497D01*
Y472D02*
X544D01*
X529Y484*
X544Y472D02*
X529Y459D01*
X504Y469D02*
X501Y463D01*
X494Y459*
X488*
X482Y463*
X479Y469*
Y475*
X482Y481*
X488Y484*
X494*
X501Y481*
X504Y475*
Y469*
X454Y459D02*
Y497D01*
Y475D02*
X451Y481D01*
X444Y484*
X438*
X432Y481*
X429Y475*
Y459*
X404Y484D02*
Y469D01*
X401Y463*
X394Y459*
X388*
X382Y463*
X379Y469*
Y484D02*
Y459D01*
X354Y469D02*
X351Y463D01*
X344Y459*
X338*
X332Y463*
X329Y469*
Y475*
X332Y481*
X338Y484*
X344*
X351Y481*
X354Y475*
Y459D02*
Y497D01*
X301Y459D02*
X297Y463D01*
X301Y466*
X304Y463*
X301Y459*
X254Y469D02*
X251Y463D01*
X244Y459*
X238*
X232Y463*
X229Y469*
Y475*
X232Y481*
X238Y484*
X244*
X251Y481*
X254Y475*
Y469*
X204Y459D02*
Y484D01*
Y475D02*
X201Y481D01*
X194Y484*
X188*
X182Y481*
X129Y475D02*
X132Y481D01*
X138Y484*
X144*
X151Y481*
X154Y475*
Y472*
X151Y466*
X144Y463*
X138*
X132Y466*
X129Y472*
Y484D02*
Y459D01*
X132Y453*
X138Y450*
X147*
X154Y453*
X804Y559D02*
Y538D01*
X801Y534*
X794*
X791Y538*
Y547*
Y538D02*
X788Y534D01*
X782*
X779Y538*
Y559*
X754D02*
Y538D01*
X751Y534*
X744*
X741Y538*
Y547*
Y538D02*
X738Y534D01*
X732*
X729Y538*
Y559*
X704D02*
Y538D01*
X701Y534*
X694*
X691Y538*
Y547*
Y538D02*
X688Y534D01*
X682*
X679Y538*
Y559*
X651Y534D02*
X648Y538D01*
X651Y541*
X654Y538*
X651Y534*
X579Y538D02*
X582Y534D01*
X588*
X594*
X601Y538*
X604Y544*
Y553*
X601Y556*
X594Y559*
X588*
X582Y556*
X579Y553*
Y550*
X582Y547*
X588Y544*
X594*
X601Y547*
X604Y550*
X551Y534D02*
X548Y538D01*
X551Y541*
X554Y538*
X551Y534*
X479Y550D02*
X482Y556D01*
X488Y559*
X494*
X501Y556*
X504Y550*
Y544*
X501Y538*
X494Y534*
X488*
X482Y538*
X479Y544*
Y559D02*
Y525D01*
X473Y531*
X454Y559D02*
Y544D01*
X451Y538*
X444Y534*
X438*
X432Y538*
X429Y544*
Y559D02*
Y534D01*
X391D02*
Y559D01*
Y569D02*
X354Y534*
Y559D01*
Y550D02*
X351Y556D01*
X344Y559*
X338*
X332Y556*
X329Y550*
Y534*
X304Y544D02*
X301Y538D01*
X294Y534*
X288*
X282Y538*
X279Y544*
Y550*
X282Y556*
X288Y559*
X294*
X301Y556*
X304Y550*
Y544*
X254Y534D02*
X229Y559D01*
Y534D02*
X254Y559D01*
X201Y534D02*
X198Y538D01*
X201Y541*
X204Y538*
X201Y534*
X154Y544D02*
X151Y538D01*
X144Y534*
X138*
X132Y538*
X129Y544*
Y550*
X132Y556*
X138Y559*
X144*
X151Y556*
X154Y550*
Y544*
X104Y534D02*
Y559D01*
Y550D02*
X101Y556D01*
X94Y559*
X88*
X82Y556*
X29Y550D02*
X32Y556D01*
X38Y559*
X44*
X51Y556*
X54Y550*
Y547*
X51Y541*
X44Y538*
X38*
X32Y541*
X29Y547*
Y559D02*
Y534D01*
X32Y528*
X38Y525*
X48*
X54Y528*
X804Y3284D02*
Y3263D01*
X801Y3259*
X794*
X791Y3263*
Y3272*
Y3263D02*
X788Y3259D01*
X782*
X779Y3263*
Y3284*
X754D02*
Y3263D01*
X751Y3259*
X744*
X741Y3263*
Y3272*
Y3263D02*
X738Y3259D01*
X732*
X729Y3263*
Y3284*
X704D02*
Y3263D01*
X701Y3259*
X694*
X691Y3263*
Y3272*
Y3263D02*
X688Y3259D01*
X682*
X679Y3263*
Y3284*
X651Y3259D02*
X648Y3263D01*
X651Y3266*
X654Y3263*
X651Y3259*
X579Y3263D02*
X582Y3259D01*
X588*
X594*
X601Y3263*
X604Y3269*
Y3278*
X601Y3281*
X594Y3284*
X588*
X582Y3281*
X579Y3278*
Y3275*
X582Y3272*
X588Y3269*
X594*
X601Y3272*
X604Y3275*
X554Y3259D02*
Y3297D01*
Y3272D02*
X544D01*
X529Y3284*
X544Y3272D02*
X529Y3259D01*
X504Y3269D02*
X501Y3263D01*
X494Y3259*
X488*
X482Y3263*
X479Y3269*
Y3275*
X482Y3281*
X488Y3284*
X494*
X501Y3281*
X504Y3275*
Y3269*
X454Y3259D02*
Y3297D01*
Y3275D02*
X451Y3281D01*
X444Y3284*
X438*
X432Y3281*
X429Y3275*
Y3259*
X404Y3284D02*
Y3269D01*
X401Y3263*
X394Y3259*
X388*
X382Y3263*
X379Y3269*
Y3284D02*
Y3259D01*
X354Y3269D02*
X351Y3263D01*
X344Y3259*
X338*
X332Y3263*
X329Y3269*
Y3275*
X332Y3281*
X338Y3284*
X344*
X351Y3281*
X354Y3275*
Y3259D02*
Y3297D01*
X301Y3259D02*
X297Y3263D01*
X301Y3266*
X304Y3263*
X301Y3259*
X254Y3269D02*
X251Y3263D01*
X244Y3259*
X238*
X232Y3263*
X229Y3269*
Y3275*
X232Y3281*
X238Y3284*
X244*
X251Y3281*
X254Y3275*
Y3269*
X204Y3259D02*
Y3284D01*
Y3275D02*
X201Y3281D01*
X194Y3284*
X188*
X182Y3281*
X129Y3275D02*
X132Y3281D01*
X138Y3284*
X144*
X151Y3281*
X154Y3275*
Y3272*
X151Y3266*
X144Y3263*
X138*
X132Y3266*
X129Y3272*
Y3284D02*
Y3259D01*
X132Y3253*
X138Y3250*
X147*
X154Y3253*
X804Y3359D02*
Y3338D01*
X801Y3334*
X794*
X791Y3338*
Y3347*
Y3338D02*
X788Y3334D01*
X782*
X779Y3338*
Y3359*
X754D02*
Y3338D01*
X751Y3334*
X744*
X741Y3338*
Y3347*
Y3338D02*
X738Y3334D01*
X732*
X729Y3338*
Y3359*
X704D02*
Y3338D01*
X701Y3334*
X694*
X691Y3338*
Y3347*
Y3338D02*
X688Y3334D01*
X682*
X679Y3338*
Y3359*
X651Y3334D02*
X648Y3338D01*
X651Y3341*
X654Y3338*
X651Y3334*
X579Y3338D02*
X582Y3334D01*
X588*
X594*
X601Y3338*
X604Y3344*
Y3353*
X601Y3356*
X594Y3359*
X588*
X582Y3356*
X579Y3353*
Y3350*
X582Y3347*
X588Y3344*
X594*
X601Y3347*
X604Y3350*
X551Y3334D02*
X548Y3338D01*
X551Y3341*
X554Y3338*
X551Y3334*
X479Y3350D02*
X482Y3356D01*
X488Y3359*
X494*
X501Y3356*
X504Y3350*
Y3344*
X501Y3338*
X494Y3334*
X488*
X482Y3338*
X479Y3344*
Y3359D02*
Y3325D01*
X473Y3331*
X454Y3359D02*
Y3344D01*
X451Y3338*
X444Y3334*
X438*
X432Y3338*
X429Y3344*
Y3359D02*
Y3334D01*
X391D02*
Y3359D01*
Y3369D02*
X354Y3334*
Y3359D01*
Y3350D02*
X351Y3356D01*
X344Y3359*
X338*
X332Y3356*
X329Y3350*
Y3334*
X304Y3344D02*
X301Y3338D01*
X294Y3334*
X288*
X282Y3338*
X279Y3344*
Y3350*
X282Y3356*
X288Y3359*
X294*
X301Y3356*
X304Y3350*
Y3344*
X254Y3334D02*
X229Y3359D01*
Y3334D02*
X254Y3359D01*
X201Y3334D02*
X198Y3338D01*
X201Y3341*
X204Y3338*
X201Y3334*
X154Y3344D02*
X151Y3338D01*
X144Y3334*
X138*
X132Y3338*
X129Y3344*
Y3350*
X132Y3356*
X138Y3359*
X144*
X151Y3356*
X154Y3350*
Y3344*
X104Y3334D02*
Y3359D01*
Y3350D02*
X101Y3356D01*
X94Y3359*
X88*
X82Y3356*
X29Y3350D02*
X32Y3356D01*
X38Y3359*
X44*
X51Y3356*
X54Y3350*
Y3347*
X51Y3341*
X44Y3338*
X38*
X32Y3341*
X29Y3347*
Y3359D02*
Y3334D01*
X32Y3328*
X38Y3325*
X48*
X54Y3328*
X3804Y484D02*
Y463D01*
X3801Y459*
X3794*
X3791Y463*
Y472*
Y463D02*
X3788Y459D01*
X3782*
X3779Y463*
Y484*
X3754D02*
Y463D01*
X3751Y459*
X3744*
X3741Y463*
Y472*
Y463D02*
X3738Y459D01*
X3732*
X3729Y463*
Y484*
X3704D02*
Y463D01*
X3701Y459*
X3694*
X3691Y463*
Y472*
Y463D02*
X3688Y459D01*
X3682*
X3679Y463*
Y484*
X3651Y459D02*
X3648Y463D01*
X3651Y466*
X3654Y463*
X3651Y459*
X3579Y463D02*
X3582Y459D01*
X3588*
X3594*
X3601Y463*
X3604Y469*
Y478*
X3601Y481*
X3594Y484*
X3588*
X3582Y481*
X3579Y478*
Y475*
X3582Y472*
X3588Y469*
X3594*
X3601Y472*
X3604Y475*
X3554Y459D02*
Y497D01*
Y472D02*
X3544D01*
X3529Y484*
X3544Y472D02*
X3529Y459D01*
X3504Y469D02*
X3501Y463D01*
X3494Y459*
X3488*
X3482Y463*
X3479Y469*
Y475*
X3482Y481*
X3488Y484*
X3494*
X3501Y481*
X3504Y475*
Y469*
X3454Y459D02*
Y497D01*
Y475D02*
X3451Y481D01*
X3444Y484*
X3438*
X3432Y481*
X3429Y475*
Y459*
X3404Y484D02*
Y469D01*
X3401Y463*
X3394Y459*
X3388*
X3382Y463*
X3379Y469*
Y484D02*
Y459D01*
X3354Y469D02*
X3351Y463D01*
X3344Y459*
X3338*
X3332Y463*
X3329Y469*
Y475*
X3332Y481*
X3338Y484*
X3344*
X3351Y481*
X3354Y475*
Y459D02*
Y497D01*
X3301Y459D02*
X3298Y463D01*
X3301Y466*
X3304Y463*
X3301Y459*
X3254Y469D02*
X3251Y463D01*
X3244Y459*
X3238*
X3232Y463*
X3229Y469*
Y475*
X3232Y481*
X3238Y484*
X3244*
X3251Y481*
X3254Y475*
Y469*
X3204Y459D02*
Y484D01*
Y475D02*
X3201Y481D01*
X3194Y484*
X3188*
X3182Y481*
X3129Y475D02*
X3132Y481D01*
X3138Y484*
X3144*
X3151Y481*
X3154Y475*
Y472*
X3151Y466*
X3144Y463*
X3138*
X3132Y466*
X3129Y472*
Y484D02*
Y459D01*
X3132Y453*
X3138Y450*
X3148*
X3154Y453*
X3804Y559D02*
Y538D01*
X3801Y534*
X3794*
X3791Y538*
Y547*
Y538D02*
X3788Y534D01*
X3782*
X3779Y538*
Y559*
X3754D02*
Y538D01*
X3751Y534*
X3744*
X3741Y538*
Y547*
Y538D02*
X3738Y534D01*
X3732*
X3729Y538*
Y559*
X3704D02*
Y538D01*
X3701Y534*
X3694*
X3691Y538*
Y547*
Y538D02*
X3688Y534D01*
X3682*
X3679Y538*
Y559*
X3651Y534D02*
X3648Y538D01*
X3651Y541*
X3654Y538*
X3651Y534*
X3579Y538D02*
X3582Y534D01*
X3588*
X3594*
X3601Y538*
X3604Y544*
Y553*
X3601Y556*
X3594Y559*
X3588*
X3582Y556*
X3579Y553*
Y550*
X3582Y547*
X3588Y544*
X3594*
X3601Y547*
X3604Y550*
X3551Y534D02*
X3548Y538D01*
X3551Y541*
X3554Y538*
X3551Y534*
X3479Y550D02*
X3482Y556D01*
X3488Y559*
X3494*
X3501Y556*
X3504Y550*
Y544*
X3501Y538*
X3494Y534*
X3488*
X3482Y538*
X3479Y544*
Y559D02*
Y525D01*
X3473Y531*
X3454Y559D02*
Y544D01*
X3451Y538*
X3444Y534*
X3438*
X3432Y538*
X3429Y544*
Y559D02*
Y534D01*
X3391D02*
Y559D01*
Y569D02*
X3354Y534*
Y559D01*
Y550D02*
X3351Y556D01*
X3344Y559*
X3338*
X3332Y556*
X3329Y550*
Y534*
X3304Y544D02*
X3301Y538D01*
X3294Y534*
X3288*
X3282Y538*
X3279Y544*
Y550*
X3282Y556*
X3288Y559*
X3294*
X3301Y556*
X3304Y550*
Y544*
X3254Y534D02*
X3229Y559D01*
Y534D02*
X3254Y559D01*
X3201Y534D02*
X3198Y538D01*
X3201Y541*
X3204Y538*
X3201Y534*
X3154Y544D02*
X3151Y538D01*
X3144Y534*
X3138*
X3132Y538*
X3129Y544*
Y550*
X3132Y556*
X3138Y559*
X3144*
X3151Y556*
X3154Y550*
Y544*
X3104Y534D02*
Y559D01*
Y550D02*
X3101Y556D01*
X3094Y559*
X3088*
X3082Y556*
X3029Y550D02*
X3032Y556D01*
X3038Y559*
X3044*
X3051Y556*
X3054Y550*
Y547*
X3051Y541*
X3044Y538*
X3038*
X3032Y541*
X3029Y547*
Y559D02*
Y534D01*
X3032Y528*
X3038Y525*
X3048*
X3054Y528*
X3804Y3284D02*
Y3263D01*
X3801Y3259*
X3794*
X3791Y3263*
Y3272*
Y3263D02*
X3788Y3259D01*
X3782*
X3779Y3263*
Y3284*
X3754D02*
Y3263D01*
X3751Y3259*
X3744*
X3741Y3263*
Y3272*
Y3263D02*
X3738Y3259D01*
X3732*
X3729Y3263*
Y3284*
X3704D02*
Y3263D01*
X3701Y3259*
X3694*
X3691Y3263*
Y3272*
Y3263D02*
X3688Y3259D01*
X3682*
X3679Y3263*
Y3284*
X3651Y3259D02*
X3648Y3263D01*
X3651Y3266*
X3654Y3263*
X3651Y3259*
X3579Y3263D02*
X3582Y3259D01*
X3588*
X3594*
X3601Y3263*
X3604Y3269*
Y3278*
X3601Y3281*
X3594Y3284*
X3588*
X3582Y3281*
X3579Y3278*
Y3275*
X3582Y3272*
X3588Y3269*
X3594*
X3601Y3272*
X3604Y3275*
X3554Y3259D02*
Y3297D01*
Y3272D02*
X3544D01*
X3529Y3284*
X3544Y3272D02*
X3529Y3259D01*
X3504Y3269D02*
X3501Y3263D01*
X3494Y3259*
X3488*
X3482Y3263*
X3479Y3269*
Y3275*
X3482Y3281*
X3488Y3284*
X3494*
X3501Y3281*
X3504Y3275*
Y3269*
X3454Y3259D02*
Y3297D01*
Y3275D02*
X3451Y3281D01*
X3444Y3284*
X3438*
X3432Y3281*
X3429Y3275*
Y3259*
X3404Y3284D02*
Y3269D01*
X3401Y3263*
X3394Y3259*
X3388*
X3382Y3263*
X3379Y3269*
Y3284D02*
Y3259D01*
X3354Y3269D02*
X3351Y3263D01*
X3344Y3259*
X3338*
X3332Y3263*
X3329Y3269*
Y3275*
X3332Y3281*
X3338Y3284*
X3344*
X3351Y3281*
X3354Y3275*
Y3259D02*
Y3297D01*
X3301Y3259D02*
X3298Y3263D01*
X3301Y3266*
X3304Y3263*
X3301Y3259*
X3254Y3269D02*
X3251Y3263D01*
X3244Y3259*
X3238*
X3232Y3263*
X3229Y3269*
Y3275*
X3232Y3281*
X3238Y3284*
X3244*
X3251Y3281*
X3254Y3275*
Y3269*
X3204Y3259D02*
Y3284D01*
Y3275D02*
X3201Y3281D01*
X3194Y3284*
X3188*
X3182Y3281*
X3129Y3275D02*
X3132Y3281D01*
X3138Y3284*
X3144*
X3151Y3281*
X3154Y3275*
Y3272*
X3151Y3266*
X3144Y3263*
X3138*
X3132Y3266*
X3129Y3272*
Y3284D02*
Y3259D01*
X3132Y3253*
X3138Y3250*
X3148*
X3154Y3253*
X3804Y3359D02*
Y3338D01*
X3801Y3334*
X3794*
X3791Y3338*
Y3347*
Y3338D02*
X3788Y3334D01*
X3782*
X3779Y3338*
Y3359*
X3754D02*
Y3338D01*
X3751Y3334*
X3744*
X3741Y3338*
Y3347*
Y3338D02*
X3738Y3334D01*
X3732*
X3729Y3338*
Y3359*
X3704D02*
Y3338D01*
X3701Y3334*
X3694*
X3691Y3338*
Y3347*
Y3338D02*
X3688Y3334D01*
X3682*
X3679Y3338*
Y3359*
X3651Y3334D02*
X3648Y3338D01*
X3651Y3341*
X3654Y3338*
X3651Y3334*
X3579Y3338D02*
X3582Y3334D01*
X3588*
X3594*
X3601Y3338*
X3604Y3344*
Y3353*
X3601Y3356*
X3594Y3359*
X3588*
X3582Y3356*
X3579Y3353*
Y3350*
X3582Y3347*
X3588Y3344*
X3594*
X3601Y3347*
X3604Y3350*
X3551Y3334D02*
X3548Y3338D01*
X3551Y3341*
X3554Y3338*
X3551Y3334*
X3479Y3350D02*
X3482Y3356D01*
X3488Y3359*
X3494*
X3501Y3356*
X3504Y3350*
Y3344*
X3501Y3338*
X3494Y3334*
X3488*
X3482Y3338*
X3479Y3344*
Y3359D02*
Y3325D01*
X3473Y3331*
X3454Y3359D02*
Y3344D01*
X3451Y3338*
X3444Y3334*
X3438*
X3432Y3338*
X3429Y3344*
Y3359D02*
Y3334D01*
X3391D02*
Y3359D01*
Y3369D02*
X3354Y3334*
Y3359D01*
Y3350D02*
X3351Y3356D01*
X3344Y3359*
X3338*
X3332Y3356*
X3329Y3350*
Y3334*
X3304Y3344D02*
X3301Y3338D01*
X3294Y3334*
X3288*
X3282Y3338*
X3279Y3344*
Y3350*
X3282Y3356*
X3288Y3359*
X3294*
X3301Y3356*
X3304Y3350*
Y3344*
X3254Y3334D02*
X3229Y3359D01*
Y3334D02*
X3254Y3359D01*
X3201Y3334D02*
X3198Y3338D01*
X3201Y3341*
X3204Y3338*
X3201Y3334*
X3154Y3344D02*
X3151Y3338D01*
X3144Y3334*
X3138*
X3132Y3338*
X3129Y3344*
Y3350*
X3132Y3356*
X3138Y3359*
X3144*
X3151Y3356*
X3154Y3350*
Y3344*
X3104Y3334D02*
Y3359D01*
Y3350D02*
X3101Y3356D01*
X3094Y3359*
X3088*
X3082Y3356*
X3029Y3350D02*
X3032Y3356D01*
X3038Y3359*
X3044*
X3051Y3356*
X3054Y3350*
Y3347*
X3051Y3341*
X3044Y3338*
X3038*
X3032Y3341*
X3029Y3347*
Y3359D02*
Y3334D01*
X3032Y3328*
X3038Y3325*
X3048*
X3054Y3328*
X6804Y484D02*
Y463D01*
X6801Y459*
X6794*
X6791Y463*
Y472*
Y463D02*
X6788Y459D01*
X6782*
X6779Y463*
Y484*
X6754D02*
Y463D01*
X6751Y459*
X6744*
X6741Y463*
Y472*
Y463D02*
X6738Y459D01*
X6732*
X6729Y463*
Y484*
X6704D02*
Y463D01*
X6701Y459*
X6694*
X6691Y463*
Y472*
Y463D02*
X6688Y459D01*
X6682*
X6679Y463*
Y484*
X6651Y459D02*
X6648Y463D01*
X6651Y466*
X6654Y463*
X6651Y459*
X6579Y463D02*
X6582Y459D01*
X6588*
X6594*
X6601Y463*
X6604Y469*
Y478*
X6601Y481*
X6594Y484*
X6588*
X6582Y481*
X6579Y478*
Y475*
X6582Y472*
X6588Y469*
X6594*
X6601Y472*
X6604Y475*
X6554Y459D02*
Y497D01*
Y472D02*
X6544D01*
X6529Y484*
X6544Y472D02*
X6529Y459D01*
X6504Y469D02*
X6501Y463D01*
X6494Y459*
X6488*
X6482Y463*
X6479Y469*
Y475*
X6482Y481*
X6488Y484*
X6494*
X6501Y481*
X6504Y475*
Y469*
X6454Y459D02*
Y497D01*
Y475D02*
X6451Y481D01*
X6444Y484*
X6438*
X6432Y481*
X6429Y475*
Y459*
X6404Y484D02*
Y469D01*
X6401Y463*
X6394Y459*
X6388*
X6382Y463*
X6379Y469*
Y484D02*
Y459D01*
X6354Y469D02*
X6351Y463D01*
X6344Y459*
X6338*
X6332Y463*
X6329Y469*
Y475*
X6332Y481*
X6338Y484*
X6344*
X6351Y481*
X6354Y475*
Y459D02*
Y497D01*
X6301Y459D02*
X6298Y463D01*
X6301Y466*
X6304Y463*
X6301Y459*
X6254Y469D02*
X6251Y463D01*
X6244Y459*
X6238*
X6232Y463*
X6229Y469*
Y475*
X6232Y481*
X6238Y484*
X6244*
X6251Y481*
X6254Y475*
Y469*
X6204Y459D02*
Y484D01*
Y475D02*
X6201Y481D01*
X6194Y484*
X6188*
X6182Y481*
X6129Y475D02*
X6132Y481D01*
X6138Y484*
X6144*
X6151Y481*
X6154Y475*
Y472*
X6151Y466*
X6144Y463*
X6138*
X6132Y466*
X6129Y472*
Y484D02*
Y459D01*
X6132Y453*
X6138Y450*
X6148*
X6154Y453*
X6804Y559D02*
Y538D01*
X6801Y534*
X6794*
X6791Y538*
Y547*
Y538D02*
X6788Y534D01*
X6782*
X6779Y538*
Y559*
X6754D02*
Y538D01*
X6751Y534*
X6744*
X6741Y538*
Y547*
Y538D02*
X6738Y534D01*
X6732*
X6729Y538*
Y559*
X6704D02*
Y538D01*
X6701Y534*
X6694*
X6691Y538*
Y547*
Y538D02*
X6688Y534D01*
X6682*
X6679Y538*
Y559*
X6651Y534D02*
X6648Y538D01*
X6651Y541*
X6654Y538*
X6651Y534*
X6579Y538D02*
X6582Y534D01*
X6588*
X6594*
X6601Y538*
X6604Y544*
Y553*
X6601Y556*
X6594Y559*
X6588*
X6582Y556*
X6579Y553*
Y550*
X6582Y547*
X6588Y544*
X6594*
X6601Y547*
X6604Y550*
X6551Y534D02*
X6548Y538D01*
X6551Y541*
X6554Y538*
X6551Y534*
X6479Y550D02*
X6482Y556D01*
X6488Y559*
X6494*
X6501Y556*
X6504Y550*
Y544*
X6501Y538*
X6494Y534*
X6488*
X6482Y538*
X6479Y544*
Y559D02*
Y525D01*
X6473Y531*
X6454Y559D02*
Y544D01*
X6451Y538*
X6444Y534*
X6438*
X6432Y538*
X6429Y544*
Y559D02*
Y534D01*
X6391D02*
Y559D01*
Y569D02*
X6354Y534*
Y559D01*
Y550D02*
X6351Y556D01*
X6344Y559*
X6338*
X6332Y556*
X6329Y550*
Y534*
X6304Y544D02*
X6301Y538D01*
X6294Y534*
X6288*
X6282Y538*
X6279Y544*
Y550*
X6282Y556*
X6288Y559*
X6294*
X6301Y556*
X6304Y550*
Y544*
X6254Y534D02*
X6229Y559D01*
Y534D02*
X6254Y559D01*
X6201Y534D02*
X6198Y538D01*
X6201Y541*
X6204Y538*
X6201Y534*
X6154Y544D02*
X6151Y538D01*
X6144Y534*
X6138*
X6132Y538*
X6129Y544*
Y550*
X6132Y556*
X6138Y559*
X6144*
X6151Y556*
X6154Y550*
Y544*
X6104Y534D02*
Y559D01*
Y550D02*
X6101Y556D01*
X6094Y559*
X6088*
X6082Y556*
X6029Y550D02*
X6032Y556D01*
X6038Y559*
X6044*
X6051Y556*
X6054Y550*
Y547*
X6051Y541*
X6044Y538*
X6038*
X6032Y541*
X6029Y547*
Y559D02*
Y534D01*
X6032Y528*
X6038Y525*
X6048*
X6054Y528*
X6804Y3284D02*
Y3263D01*
X6801Y3259*
X6794*
X6791Y3263*
Y3272*
Y3263D02*
X6788Y3259D01*
X6782*
X6779Y3263*
Y3284*
X6754D02*
Y3263D01*
X6751Y3259*
X6744*
X6741Y3263*
Y3272*
Y3263D02*
X6738Y3259D01*
X6732*
X6729Y3263*
Y3284*
X6704D02*
Y3263D01*
X6701Y3259*
X6694*
X6691Y3263*
Y3272*
Y3263D02*
X6688Y3259D01*
X6682*
X6679Y3263*
Y3284*
X6651Y3259D02*
X6648Y3263D01*
X6651Y3266*
X6654Y3263*
X6651Y3259*
X6579Y3263D02*
X6582Y3259D01*
X6588*
X6594*
X6601Y3263*
X6604Y3269*
Y3278*
X6601Y3281*
X6594Y3284*
X6588*
X6582Y3281*
X6579Y3278*
Y3275*
X6582Y3272*
X6588Y3269*
X6594*
X6601Y3272*
X6604Y3275*
X6554Y3259D02*
Y3297D01*
Y3272D02*
X6544D01*
X6529Y3284*
X6544Y3272D02*
X6529Y3259D01*
X6504Y3269D02*
X6501Y3263D01*
X6494Y3259*
X6488*
X6482Y3263*
X6479Y3269*
Y3275*
X6482Y3281*
X6488Y3284*
X6494*
X6501Y3281*
X6504Y3275*
Y3269*
X6454Y3259D02*
Y3297D01*
Y3275D02*
X6451Y3281D01*
X6444Y3284*
X6438*
X6432Y3281*
X6429Y3275*
Y3259*
X6404Y3284D02*
Y3269D01*
X6401Y3263*
X6394Y3259*
X6388*
X6382Y3263*
X6379Y3269*
Y3284D02*
Y3259D01*
X6354Y3269D02*
X6351Y3263D01*
X6344Y3259*
X6338*
X6332Y3263*
X6329Y3269*
Y3275*
X6332Y3281*
X6338Y3284*
X6344*
X6351Y3281*
X6354Y3275*
Y3259D02*
Y3297D01*
X6301Y3259D02*
X6298Y3263D01*
X6301Y3266*
X6304Y3263*
X6301Y3259*
X6254Y3269D02*
X6251Y3263D01*
X6244Y3259*
X6238*
X6232Y3263*
X6229Y3269*
Y3275*
X6232Y3281*
X6238Y3284*
X6244*
X6251Y3281*
X6254Y3275*
Y3269*
X6204Y3259D02*
Y3284D01*
Y3275D02*
X6201Y3281D01*
X6194Y3284*
X6188*
X6182Y3281*
X6129Y3275D02*
X6132Y3281D01*
X6138Y3284*
X6144*
X6151Y3281*
X6154Y3275*
Y3272*
X6151Y3266*
X6144Y3263*
X6138*
X6132Y3266*
X6129Y3272*
Y3284D02*
Y3259D01*
X6132Y3253*
X6138Y3250*
X6148*
X6154Y3253*
X6804Y3359D02*
Y3338D01*
X6801Y3334*
X6794*
X6791Y3338*
Y3347*
Y3338D02*
X6788Y3334D01*
X6782*
X6779Y3338*
Y3359*
X6754D02*
Y3338D01*
X6751Y3334*
X6744*
X6741Y3338*
Y3347*
Y3338D02*
X6738Y3334D01*
X6732*
X6729Y3338*
Y3359*
X6704D02*
Y3338D01*
X6701Y3334*
X6694*
X6691Y3338*
Y3347*
Y3338D02*
X6688Y3334D01*
X6682*
X6679Y3338*
Y3359*
X6651Y3334D02*
X6648Y3338D01*
X6651Y3341*
X6654Y3338*
X6651Y3334*
X6579Y3338D02*
X6582Y3334D01*
X6588*
X6594*
X6601Y3338*
X6604Y3344*
Y3353*
X6601Y3356*
X6594Y3359*
X6588*
X6582Y3356*
X6579Y3353*
Y3350*
X6582Y3347*
X6588Y3344*
X6594*
X6601Y3347*
X6604Y3350*
X6551Y3334D02*
X6548Y3338D01*
X6551Y3341*
X6554Y3338*
X6551Y3334*
X6479Y3350D02*
X6482Y3356D01*
X6488Y3359*
X6494*
X6501Y3356*
X6504Y3350*
Y3344*
X6501Y3338*
X6494Y3334*
X6488*
X6482Y3338*
X6479Y3344*
Y3359D02*
Y3325D01*
X6473Y3331*
X6454Y3359D02*
Y3344D01*
X6451Y3338*
X6444Y3334*
X6438*
X6432Y3338*
X6429Y3344*
Y3359D02*
Y3334D01*
X6391D02*
Y3359D01*
Y3369D02*
X6354Y3334*
Y3359D01*
Y3350D02*
X6351Y3356D01*
X6344Y3359*
X6338*
X6332Y3356*
X6329Y3350*
Y3334*
X6304Y3344D02*
X6301Y3338D01*
X6294Y3334*
X6288*
X6282Y3338*
X6279Y3344*
Y3350*
X6282Y3356*
X6288Y3359*
X6294*
X6301Y3356*
X6304Y3350*
Y3344*
X6254Y3334D02*
X6229Y3359D01*
Y3334D02*
X6254Y3359D01*
X6201Y3334D02*
X6198Y3338D01*
X6201Y3341*
X6204Y3338*
X6201Y3334*
X6154Y3344D02*
X6151Y3338D01*
X6144Y3334*
X6138*
X6132Y3338*
X6129Y3344*
Y3350*
X6132Y3356*
X6138Y3359*
X6144*
X6151Y3356*
X6154Y3350*
Y3344*
X6104Y3334D02*
Y3359D01*
Y3350D02*
X6101Y3356D01*
X6094Y3359*
X6088*
X6082Y3356*
X6029Y3350D02*
X6032Y3356D01*
X6038Y3359*
X6044*
X6051Y3356*
X6054Y3350*
Y3347*
X6051Y3341*
X6044Y3338*
X6038*
X6032Y3341*
X6029Y3347*
Y3359D02*
Y3334D01*
X6032Y3328*
X6038Y3325*
X6048*
X6054Y3328*
D02*
D110*
X1129Y608D02*
X1123Y614D01*
X1126Y611D02*
X1143Y628D01*
X1146Y625D02*
X1140Y631D01*
X1110Y627D02*
X1127Y644D01*
X1096Y641*
X1113Y658*
X1081Y657D02*
X1098Y674D01*
X1105Y666D02*
X1091Y681D01*
X1065Y672D02*
X1082Y689D01*
X1072Y699*
X1068Y700*
X1064Y699*
X1062Y695*
X1064Y691*
X1074Y681*
X1064Y691D02*
X1051Y686D01*
X1129Y3408D02*
X1123Y3414D01*
X1126Y3411D02*
X1143Y3428D01*
X1146Y3425D02*
X1140Y3431D01*
X1110Y3427D02*
X1127Y3444D01*
X1096Y3441*
X1113Y3458*
X1081Y3457D02*
X1098Y3474D01*
X1105Y3466D02*
X1091Y3481D01*
X1065Y3472D02*
X1082Y3489D01*
X1072Y3499*
X1068Y3500*
X1064Y3499*
X1062Y3495*
X1064Y3491*
X1074Y3481*
X1064Y3491D02*
X1051Y3486D01*
X1208Y904D02*
X1225Y921D01*
X1216Y930*
X1212Y931*
X1209*
X1205Y930*
X1200Y924*
X1198Y920*
Y917*
X1200Y913*
X1208Y904*
X1184Y945D02*
X1180Y947D01*
X1175Y945*
X1174Y941*
X1175Y937*
X1185Y927*
X1202Y944*
X1192Y954*
X1188Y955*
X1184Y954*
X1183Y949*
X1184Y945*
X1194Y935*
X1208Y3704D02*
X1225Y3721D01*
X1216Y3730*
X1212Y3731*
X1209*
X1205Y3730*
X1200Y3724*
X1198Y3720*
Y3717*
X1200Y3713*
X1208Y3704*
X1184Y3745D02*
X1180Y3747D01*
X1175Y3745*
X1174Y3741*
X1175Y3737*
X1185Y3727*
X1202Y3744*
X1192Y3754*
X1188Y3755*
X1184Y3754*
X1183Y3749*
X1184Y3745*
X1194Y3735*
X1283Y604D02*
X1300Y621D01*
X1291Y630*
X1287Y631*
X1284*
X1280Y630*
X1275Y624*
X1273Y620*
Y617*
X1275Y613*
X1283Y604*
X1260Y627D02*
X1270Y651D01*
X1246Y641*
X1265Y637D02*
X1256Y645D01*
X1283Y3404D02*
X1300Y3421D01*
X1291Y3430*
X1287Y3431*
X1284*
X1280Y3430*
X1275Y3424*
X1273Y3420*
Y3417*
X1275Y3413*
X1283Y3404*
X1260Y3427D02*
X1270Y3451D01*
X1246Y3441*
X1265Y3437D02*
X1256Y3445D01*
X1414Y610D02*
X1402Y621D01*
Y610D02*
X1414Y621D01*
X1387Y628D02*
X1383Y630D01*
X1378Y634*
X1377Y638*
X1378Y642*
X1380Y644*
X1384Y645*
X1388Y644*
X1395Y637*
X1402Y644*
X1391Y655*
X1380Y666D02*
X1356Y657D01*
X1366Y681*
X1405Y921D02*
X1401Y925D01*
X1400Y924*
X1398Y920*
Y917*
X1400Y913*
X1402Y910*
X1407Y908*
X1409*
X1414Y910*
X1419Y916*
X1421Y920*
Y923*
X1419Y927*
X1416Y930*
X1412Y931*
X1409*
X1405Y930*
X1385Y927D02*
X1402Y944D01*
X1371Y941*
X1388Y958*
X1363Y949D02*
X1380Y966D01*
X1371Y975*
X1367Y976*
X1364*
X1360Y975*
X1354Y969*
X1353Y965*
Y962*
X1354Y958*
X1363Y949*
X1414Y3410D02*
X1402Y3421D01*
Y3410D02*
X1414Y3421D01*
X1387Y3428D02*
X1383Y3430D01*
X1378Y3434*
X1377Y3438*
X1378Y3442*
X1380Y3444*
X1384Y3445*
X1388Y3444*
X1395Y3437*
X1402Y3444*
X1391Y3455*
X1380Y3466D02*
X1356Y3457D01*
X1366Y3481*
X1405Y3721D02*
X1401Y3725D01*
X1400Y3724*
X1398Y3720*
Y3717*
X1400Y3713*
X1402Y3710*
X1407Y3708*
X1409*
X1414Y3710*
X1419Y3716*
X1421Y3720*
Y3723*
X1419Y3727*
X1416Y3730*
X1412Y3731*
X1409*
X1405Y3730*
X1385Y3727D02*
X1402Y3744D01*
X1371Y3741*
X1388Y3758*
X1363Y3749D02*
X1380Y3766D01*
X1371Y3775*
X1367Y3776*
X1364*
X1360Y3775*
X1354Y3769*
X1353Y3765*
Y3762*
X1354Y3758*
X1363Y3749*
X4129Y608D02*
X4123Y614D01*
X4126Y611D02*
X4143Y628D01*
X4146Y625D02*
X4140Y631D01*
X4110Y627D02*
X4127Y644D01*
X4096Y641*
X4113Y658*
X4081Y657D02*
X4098Y674D01*
X4105Y666D02*
X4091Y681D01*
X4065Y672D02*
X4082Y689D01*
X4072Y699*
X4068Y700*
X4064Y699*
X4062Y695*
X4064Y691*
X4074Y681*
X4064Y691D02*
X4051Y686D01*
X4129Y3408D02*
X4123Y3414D01*
X4126Y3411D02*
X4143Y3428D01*
X4146Y3425D02*
X4140Y3431D01*
X4110Y3427D02*
X4127Y3444D01*
X4096Y3441*
X4113Y3458*
X4081Y3457D02*
X4098Y3474D01*
X4105Y3466D02*
X4091Y3481D01*
X4065Y3472D02*
X4082Y3489D01*
X4072Y3499*
X4068Y3500*
X4064Y3499*
X4062Y3495*
X4064Y3491*
X4074Y3481*
X4064Y3491D02*
X4051Y3486D01*
X4208Y904D02*
X4225Y921D01*
X4216Y930*
X4212Y931*
X4209*
X4205Y930*
X4200Y924*
X4198Y920*
Y917*
X4200Y913*
X4208Y904*
X4184Y945D02*
X4180Y947D01*
X4175Y945*
X4174Y941*
X4175Y937*
X4185Y927*
X4202Y944*
X4192Y954*
X4188Y955*
X4184Y954*
X4183Y949*
X4184Y945*
X4194Y935*
X4208Y3704D02*
X4225Y3721D01*
X4216Y3730*
X4212Y3731*
X4209*
X4205Y3730*
X4200Y3724*
X4198Y3720*
Y3717*
X4200Y3713*
X4208Y3704*
X4184Y3745D02*
X4180Y3747D01*
X4175Y3745*
X4174Y3741*
X4175Y3737*
X4185Y3727*
X4202Y3744*
X4192Y3754*
X4188Y3755*
X4184Y3754*
X4183Y3749*
X4184Y3745*
X4194Y3735*
X4283Y604D02*
X4300Y621D01*
X4291Y630*
X4287Y631*
X4284*
X4280Y630*
X4275Y624*
X4273Y620*
Y617*
X4275Y613*
X4283Y604*
X4260Y627D02*
X4270Y651D01*
X4246Y641*
X4265Y637D02*
X4256Y645D01*
X4283Y3404D02*
X4300Y3421D01*
X4291Y3430*
X4287Y3431*
X4284*
X4280Y3430*
X4275Y3424*
X4273Y3420*
Y3417*
X4275Y3413*
X4283Y3404*
X4260Y3427D02*
X4270Y3451D01*
X4246Y3441*
X4265Y3437D02*
X4256Y3445D01*
X4414Y610D02*
X4402Y621D01*
Y610D02*
X4414Y621D01*
X4387Y628D02*
X4383Y630D01*
X4378Y634*
X4377Y638*
X4378Y642*
X4380Y644*
X4384Y645*
X4388Y644*
X4395Y637*
X4402Y644*
X4391Y655*
X4380Y666D02*
X4356Y657D01*
X4366Y681*
X4405Y921D02*
X4401Y925D01*
X4400Y924*
X4398Y920*
Y917*
X4400Y913*
X4402Y910*
X4407Y908*
X4409*
X4414Y910*
X4419Y916*
X4421Y920*
Y923*
X4419Y927*
X4416Y930*
X4412Y931*
X4409*
X4405Y930*
X4385Y927D02*
X4402Y944D01*
X4371Y941*
X4388Y958*
X4363Y949D02*
X4380Y966D01*
X4371Y975*
X4367Y976*
X4364*
X4360Y975*
X4354Y969*
X4353Y965*
Y962*
X4354Y958*
X4363Y949*
X4414Y3410D02*
X4402Y3421D01*
Y3410D02*
X4414Y3421D01*
X4387Y3428D02*
X4383Y3430D01*
X4378Y3434*
X4377Y3438*
X4378Y3442*
X4380Y3444*
X4384Y3445*
X4388Y3444*
X4395Y3437*
X4402Y3444*
X4391Y3455*
X4380Y3466D02*
X4356Y3457D01*
X4366Y3481*
X4405Y3721D02*
X4401Y3725D01*
X4400Y3724*
X4398Y3720*
Y3717*
X4400Y3713*
X4402Y3710*
X4407Y3708*
X4409*
X4414Y3710*
X4419Y3716*
X4421Y3720*
Y3723*
X4419Y3727*
X4416Y3730*
X4412Y3731*
X4409*
X4405Y3730*
X4385Y3727D02*
X4402Y3744D01*
X4371Y3741*
X4388Y3758*
X4363Y3749D02*
X4380Y3766D01*
X4371Y3775*
X4367Y3776*
X4364*
X4360Y3775*
X4354Y3769*
X4353Y3765*
Y3762*
X4354Y3758*
X4363Y3749*
X7129Y608D02*
X7123Y614D01*
X7126Y611D02*
X7143Y628D01*
X7146Y625D02*
X7140Y631D01*
X7110Y627D02*
X7127Y644D01*
X7096Y641*
X7113Y658*
X7081Y657D02*
X7098Y674D01*
X7105Y666D02*
X7091Y681D01*
X7065Y672D02*
X7082Y689D01*
X7072Y699*
X7068Y700*
X7064Y699*
X7062Y695*
X7064Y691*
X7074Y681*
X7064Y691D02*
X7051Y686D01*
X7129Y3408D02*
X7123Y3414D01*
X7126Y3411D02*
X7143Y3428D01*
X7146Y3425D02*
X7140Y3431D01*
X7110Y3427D02*
X7127Y3444D01*
X7096Y3441*
X7113Y3458*
X7081Y3457D02*
X7098Y3474D01*
X7105Y3466D02*
X7091Y3481D01*
X7065Y3472D02*
X7082Y3489D01*
X7072Y3499*
X7068Y3500*
X7064Y3499*
X7062Y3495*
X7064Y3491*
X7074Y3481*
X7064Y3491D02*
X7051Y3486D01*
X7208Y904D02*
X7225Y921D01*
X7216Y930*
X7212Y931*
X7209*
X7205Y930*
X7200Y924*
X7198Y920*
Y917*
X7200Y913*
X7208Y904*
X7184Y945D02*
X7180Y947D01*
X7175Y945*
X7174Y941*
X7175Y937*
X7185Y927*
X7202Y944*
X7192Y954*
X7188Y955*
X7184Y954*
X7183Y949*
X7184Y945*
X7194Y935*
X7208Y3704D02*
X7225Y3721D01*
X7216Y3730*
X7212Y3731*
X7209*
X7205Y3730*
X7200Y3724*
X7198Y3720*
Y3717*
X7200Y3713*
X7208Y3704*
X7184Y3745D02*
X7180Y3747D01*
X7175Y3745*
X7174Y3741*
X7175Y3737*
X7185Y3727*
X7202Y3744*
X7192Y3754*
X7188Y3755*
X7184Y3754*
X7183Y3749*
X7184Y3745*
X7194Y3735*
X7283Y604D02*
X7300Y621D01*
X7291Y630*
X7287Y631*
X7284*
X7280Y630*
X7275Y624*
X7273Y620*
Y617*
X7275Y613*
X7283Y604*
X7260Y627D02*
X7270Y651D01*
X7246Y641*
X7265Y637D02*
X7256Y645D01*
X7283Y3404D02*
X7300Y3421D01*
X7291Y3430*
X7287Y3431*
X7284*
X7280Y3430*
X7275Y3424*
X7273Y3420*
Y3417*
X7275Y3413*
X7283Y3404*
X7260Y3427D02*
X7270Y3451D01*
X7246Y3441*
X7265Y3437D02*
X7256Y3445D01*
X7414Y610D02*
X7402Y621D01*
Y610D02*
X7414Y621D01*
X7387Y628D02*
X7383Y630D01*
X7378Y634*
X7377Y638*
X7378Y642*
X7380Y644*
X7384Y645*
X7388Y644*
X7395Y637*
X7402Y644*
X7391Y655*
X7380Y666D02*
X7356Y657D01*
X7366Y681*
X7405Y921D02*
X7401Y925D01*
X7400Y924*
X7398Y920*
Y917*
X7400Y913*
X7402Y910*
X7407Y908*
X7409*
X7414Y910*
X7419Y916*
X7421Y920*
Y923*
X7419Y927*
X7416Y930*
X7412Y931*
X7409*
X7405Y930*
X7385Y927D02*
X7402Y944D01*
X7371Y941*
X7388Y958*
X7363Y949D02*
X7380Y966D01*
X7371Y975*
X7367Y976*
X7364*
X7360Y975*
X7354Y969*
X7353Y965*
Y962*
X7354Y958*
X7363Y949*
X7414Y3410D02*
X7402Y3421D01*
Y3410D02*
X7414Y3421D01*
X7387Y3428D02*
X7383Y3430D01*
X7378Y3434*
X7377Y3438*
X7378Y3442*
X7380Y3444*
X7384Y3445*
X7388Y3444*
X7395Y3437*
X7402Y3444*
X7391Y3455*
X7380Y3466D02*
X7356Y3457D01*
X7366Y3481*
X7405Y3721D02*
X7401Y3725D01*
X7400Y3724*
X7398Y3720*
Y3717*
X7400Y3713*
X7402Y3710*
X7407Y3708*
X7409*
X7414Y3710*
X7419Y3716*
X7421Y3720*
Y3723*
X7419Y3727*
X7416Y3730*
X7412Y3731*
X7409*
X7405Y3730*
X7385Y3727D02*
X7402Y3744D01*
X7371Y3741*
X7388Y3758*
X7363Y3749D02*
X7380Y3766D01*
X7371Y3775*
X7367Y3776*
X7364*
X7360Y3775*
X7354Y3769*
X7353Y3765*
Y3762*
X7354Y3758*
X7363Y3749*
D02*
D111*
X1140Y238D02*
Y225D01*
Y375D02*
Y363D01*
Y3038D02*
Y3025D01*
Y3175D02*
Y3163D01*
X1140Y225D02*
X1318D01*
X1140Y375D02*
X1318D01*
X1140Y3025D02*
X1318D01*
X1140Y3175D02*
X1318D01*
X1318Y238D02*
Y225D01*
Y375D02*
Y363D01*
Y3038D02*
Y3025D01*
Y3175D02*
Y3163D01*
X2089Y237D02*
Y225D01*
Y375D02*
Y362D01*
Y3037D02*
Y3025D01*
Y3175D02*
Y3162D01*
X2089Y225D02*
X2267D01*
X2089Y375D02*
X2267D01*
X2089Y3025D02*
X2267D01*
X2089Y3175D02*
X2267D01*
X2267Y237D02*
Y225D01*
Y375D02*
Y362D01*
Y3037D02*
Y3025D01*
Y3175D02*
Y3162D01*
X4140Y238D02*
Y225D01*
Y375D02*
Y363D01*
Y3038D02*
Y3025D01*
Y3175D02*
Y3163D01*
X4140Y225D02*
X4318D01*
X4140Y375D02*
X4318D01*
X4140Y3025D02*
X4318D01*
X4140Y3175D02*
X4318D01*
X4318Y238D02*
Y225D01*
Y375D02*
Y363D01*
Y3038D02*
Y3025D01*
Y3175D02*
Y3163D01*
X5089Y237D02*
Y225D01*
Y375D02*
Y362D01*
Y3037D02*
Y3025D01*
Y3175D02*
Y3162D01*
X5089Y225D02*
X5267D01*
X5089Y375D02*
X5267D01*
X5089Y3025D02*
X5267D01*
X5089Y3175D02*
X5267D01*
X5267Y237D02*
Y225D01*
Y375D02*
Y362D01*
Y3037D02*
Y3025D01*
Y3175D02*
Y3162D01*
X7140Y238D02*
Y225D01*
Y375D02*
Y363D01*
Y3038D02*
Y3025D01*
Y3175D02*
Y3163D01*
X7140Y225D02*
X7318D01*
X7140Y375D02*
X7318D01*
X7140Y3025D02*
X7318D01*
X7140Y3175D02*
X7318D01*
X7318Y238D02*
Y225D01*
Y375D02*
Y363D01*
Y3038D02*
Y3025D01*
Y3175D02*
Y3163D01*
X8089Y237D02*
Y225D01*
Y375D02*
Y362D01*
Y3037D02*
Y3025D01*
Y3175D02*
Y3162D01*
X8089Y225D02*
X8267D01*
X8089Y375D02*
X8267D01*
X8089Y3025D02*
X8267D01*
X8089Y3175D02*
X8267D01*
X8267Y237D02*
Y225D01*
Y375D02*
Y362D01*
Y3037D02*
Y3025D01*
Y3175D02*
Y3162D01*
D02*
D112*
X1144Y205D02*
Y163D01*
X1165*
X1172Y166*
X1175Y170*
X1179Y177*
Y191*
X1175Y198*
X1172Y201*
X1165Y205*
X1144*
X1207D02*
X1221D01*
X1214D02*
Y163D01*
X1207Y170*
X1144Y3005D02*
Y2963D01*
X1165*
X1172Y2966*
X1175Y2970*
X1179Y2977*
Y2991*
X1175Y2998*
X1172Y3001*
X1165Y3005*
X1144*
X1207D02*
X1221D01*
X1214D02*
Y2963D01*
X1207Y2970*
X1259Y3001D02*
X1266Y3005D01*
X1273*
X1280Y3001*
X1284Y2994*
Y2973*
X1280Y2966*
X1273Y2963*
X1266*
X1259Y2966*
X1256Y2973*
Y2994*
X1259Y3001*
X1280Y2966*
X2093Y204D02*
Y162D01*
X2114*
X2121Y166*
X2125Y169*
X2128Y176*
Y190*
X2125Y197*
X2121Y200*
X2114Y204*
X2093*
X2177D02*
X2149D01*
X2174Y180*
X2177Y173*
X2174Y166*
X2167Y162*
X2156*
X2149Y166*
X2093Y3004D02*
Y2962D01*
X2114*
X2121Y2966*
X2125Y2969*
X2128Y2976*
Y2990*
X2125Y2997*
X2121Y3001*
X2114Y3004*
X2093*
X2156D02*
X2170D01*
X2163D02*
Y2962D01*
X2156Y2969*
X2212Y3004D02*
X2226D01*
X2219D02*
Y2962D01*
X2212Y2969*
X4144Y205D02*
Y163D01*
X4165*
X4172Y166*
X4175Y170*
X4179Y177*
Y191*
X4175Y198*
X4172Y201*
X4165Y205*
X4144*
X4217D02*
Y163D01*
X4200Y191*
X4228*
X4144Y3005D02*
Y2963D01*
X4165*
X4172Y2966*
X4175Y2970*
X4179Y2977*
Y2991*
X4175Y2998*
X4172Y3001*
X4165Y3005*
X4144*
X4207D02*
X4221D01*
X4214D02*
Y2963D01*
X4207Y2970*
X4259Y3001D02*
X4266Y3005D01*
X4273*
X4280Y3001*
X4284Y2994*
X4280Y2987*
X4273Y2984*
X4266*
X4273D02*
X4280Y2980D01*
X4284Y2973*
X4280Y2966*
X4273Y2963*
X4266*
X4259Y2966*
X5093Y204D02*
Y162D01*
X5114*
X5121Y166*
X5125Y169*
X5128Y176*
Y190*
X5125Y197*
X5121Y200*
X5114Y204*
X5093*
X5149Y200D02*
X5156Y204D01*
X5167*
X5174Y200*
X5177Y194*
Y190*
X5174Y183*
X5167Y180*
X5149*
Y162*
X5177*
X5093Y3004D02*
Y2962D01*
X5114*
X5121Y2966*
X5125Y2969*
X5128Y2976*
Y2990*
X5125Y2997*
X5121Y3001*
X5114Y3004*
X5093*
X5156D02*
X5170D01*
X5163D02*
Y2962D01*
X5156Y2969*
X5223Y3004D02*
Y2962D01*
X5205Y2990*
X5233*
X7144Y205D02*
Y163D01*
X7165*
X7172Y166*
X7175Y170*
X7179Y177*
Y191*
X7175Y198*
X7172Y201*
X7165Y205*
X7144*
X7200D02*
X7228Y163D01*
X7200*
X7144Y3005D02*
Y2963D01*
X7165*
X7172Y2966*
X7175Y2970*
X7179Y2977*
Y2991*
X7175Y2998*
X7172Y3001*
X7165Y3005*
X7144*
X7207D02*
X7221D01*
X7214D02*
Y2963D01*
X7207Y2970*
X7256Y2994D02*
X7259Y2987D01*
X7266Y2984*
X7273*
X7280Y2987*
X7284Y2994*
X7280Y3001*
X7273Y3005*
X7266*
X7259Y3001*
X7256Y2994*
Y2984*
X7259Y2973*
X7266Y2966*
X7273Y2963*
X8093Y204D02*
Y162D01*
X8114*
X8121Y166*
X8125Y169*
X8128Y176*
Y190*
X8125Y197*
X8121Y200*
X8114Y204*
X8093*
X8160Y183D02*
X8167D01*
X8174Y180*
X8177Y173*
X8174Y166*
X8167Y162*
X8160*
X8153Y166*
X8149Y173*
X8153Y180*
X8160Y183*
X8153Y187*
X8149Y194*
X8153Y200*
X8160Y204*
X8167*
X8174Y200*
X8177Y194*
X8174Y187*
X8167Y183*
X8093Y3004D02*
Y2962D01*
X8114*
X8121Y2966*
X8125Y2969*
X8128Y2976*
Y2990*
X8125Y2997*
X8121Y3001*
X8114Y3004*
X8093*
X8156D02*
X8170D01*
X8163D02*
Y2962D01*
X8156Y2969*
X8205Y3004D02*
X8233Y2962D01*
X8205*
D02*
D113*
X398Y1845D02*
X436D01*
Y1867*
X433Y1873*
X426Y1876*
X420Y1873*
X417Y1867*
Y1845*
Y1867D02*
X398Y1876D01*
Y1901D02*
Y1914D01*
Y1908D02*
X436D01*
X429Y1901*
X398Y4645D02*
X436D01*
Y4667*
X433Y4673*
X426Y4676*
X420Y4673*
X417Y4667*
Y4645*
Y4667D02*
X398Y4676D01*
Y4720D02*
Y4695D01*
X420Y4717*
X426Y4720*
X433Y4717*
X436Y4711*
Y4701*
X433Y4695*
X417Y4754D02*
Y4761D01*
X420Y4767*
X426Y4770*
X433Y4767*
X436Y4761*
Y4754*
X433Y4748*
X426Y4745*
X420Y4748*
X417Y4754*
X414Y4748*
X408Y4745*
X401Y4748*
X398Y4754*
Y4761*
X401Y4767*
X408Y4770*
X414Y4767*
X417Y4761*
X3398Y1845D02*
X3436D01*
Y1867*
X3433Y1873*
X3426Y1876*
X3420Y1873*
X3417Y1867*
Y1845*
Y1867D02*
X3398Y1876D01*
Y1901D02*
Y1914D01*
Y1908D02*
X3436D01*
X3429Y1901*
X3401Y1948D02*
X3398Y1954D01*
Y1961*
X3401Y1967*
X3408Y1970*
X3426*
X3433Y1967*
X3436Y1961*
Y1954*
X3433Y1948*
X3426Y1945*
X3408*
X3401Y1948*
X3433Y1967*
X3398Y4645D02*
X3436D01*
Y4667*
X3433Y4673*
X3426Y4676*
X3420Y4673*
X3417Y4667*
Y4645*
Y4667D02*
X3398Y4676D01*
X3401Y4698D02*
X3398Y4704D01*
Y4711*
X3401Y4717*
X3408Y4720*
X3414Y4717*
X3417Y4711*
Y4704*
Y4711D02*
X3420Y4717D01*
X3426Y4720*
X3433Y4717*
X3436Y4711*
Y4704*
X3433Y4698*
X3398Y4745D02*
X3436Y4770D01*
Y4745*
X6398Y1845D02*
X6436D01*
Y1867*
X6433Y1873*
X6426Y1876*
X6420Y1873*
X6417Y1867*
Y1845*
Y1867D02*
X6398Y1876D01*
Y1901D02*
Y1914D01*
Y1908D02*
X6436D01*
X6429Y1901*
X6398Y1954D02*
X6401Y1961D01*
X6408Y1967*
X6417Y1970*
X6426*
X6433Y1967*
X6436Y1961*
Y1954*
X6433Y1948*
X6426Y1945*
X6420Y1948*
X6417Y1954*
Y1961*
X6420Y1967*
X6426Y1970*
X6398Y4645D02*
X6436D01*
Y4667*
X6433Y4673*
X6426Y4676*
X6420Y4673*
X6417Y4667*
Y4645*
Y4667D02*
X6398Y4676D01*
Y4711D02*
X6436D01*
X6411Y4695*
Y4720*
X6408Y4745D02*
X6414Y4748D01*
X6417Y4754*
Y4761*
X6414Y4767*
X6408Y4770*
X6401Y4767*
X6398Y4761*
Y4754*
X6401Y4748*
X6408Y4745*
X6417*
X6426Y4748*
X6433Y4754*
X6436Y4761*
X0Y0D02*
M02*
