%FSLAX23Y23*%
%MOIN*%
G04 EasyPC Gerber Version 14.0.2 Build 2922 *
%AMT107*0 Octagon Pad at angle 0*4,1,8,-0.00828,-0.02000,0.00828,-0.02000,0.02000,-0.00828,0.02000,0.00828,0.00828,0.02000,-0.00828,0.02000,-0.02000,0.00828,-0.02000,-0.00828,-0.00828,-0.02000,0*%
%ADD107T107*%
%AMT103*0 Octagon Pad at angle 0*4,1,8,-0.01243,-0.03000,0.01243,-0.03000,0.03000,-0.01243,0.03000,0.01243,0.01243,0.03000,-0.01243,0.03000,-0.03000,0.01243,-0.03000,-0.01243,-0.01243,-0.03000,0*%
%ADD103T103*%
%AMT105*0 Octagon Pad at angle 0*4,1,8,-0.01450,-0.03500,0.01450,-0.03500,0.03500,-0.01450,0.03500,0.01450,0.01450,0.03500,-0.01450,0.03500,-0.03500,0.01450,-0.03500,-0.01450,-0.01450,-0.03500,0*%
%ADD105T105*%
%ADD144R,0.02559X0.06693*%
%ADD129R,0.04331X0.03937*%
%ADD140R,0.04600X0.06300*%
%ADD143R,0.04331X0.02362*%
%ADD136R,0.05906X0.02362*%
%ADD134R,0.08661X0.02362*%
%ADD135R,0.08000X0.02600*%
%ADD128R,0.03937X0.04331*%
%ADD137R,0.08800X0.04800*%
%ADD130R,0.07677X0.09843*%
%ADD106R,0.05906X0.05118*%
%ADD131R,0.07087X0.06299*%
%ADD133R,0.08583X0.06378*%
%ADD132R,0.09843X0.10039*%
%ADD102R,0.06000X0.06000*%
%ADD104R,0.07000X0.07000*%
%ADD139R,0.15748X0.15748*%
%ADD108R,0.16598X0.16598*%
%ADD115C,0.00500*%
%ADD98C,0.00800*%
%ADD96C,0.01000*%
%ADD97C,0.01600*%
%ADD95C,0.03200*%
%ADD141C,0.05118*%
%ADD99C,0.05543*%
%ADD142C,0.05906*%
%ADD100C,0.13595*%
%ADD138R,0.08661X0.14173*%
X0Y0D02*
D02*
D95*
X79Y2675D02*
Y75D01*
X2879*
Y2675*
X79*
X165Y161D02*
Y389D01*
X393*
Y161*
X165*
X173Y1833D02*
X142Y1863D01*
G75*
G02X132Y1888I24J24*
G01*
Y2128*
G75*
G02X142Y2152I34J0*
G01*
X352Y2361*
X165*
Y2589*
X393*
Y2437*
X505Y2549*
G75*
G02X529Y2559I24J-24*
G01*
X1316*
G75*
G02X1340Y2549I0J-34*
G01*
X1465Y2424*
G75*
G02X1475Y2400I-24J-24*
G01*
Y2230*
G75*
G02X1465Y2206I-34J0*
G01*
X1448Y2188*
G75*
G02X1424Y2179I-24J24*
G01*
X1305*
X1260Y2134*
X1285*
X1300Y2119*
G75*
G02X1302Y2121I29J-19*
G01*
G75*
G02X1302Y2125I51J4*
G01*
G75*
G02X1391Y2160I52*
G01*
G75*
G02X1480Y2125I38J-35*
G01*
G75*
G02X1463Y2086I-52*
G01*
Y2073*
X1468*
X1478*
X1720Y2314*
X1718*
Y2436*
X1743*
Y2467*
G75*
G02X1754Y2493I36J0*
G01*
X1799Y2538*
G75*
G02X1824Y2548I25J-25*
G01*
X2204*
G75*
G02X2229Y2538I0J-36*
G01*
X2366Y2400*
G75*
G02X2377Y2375I-25J-25*
G01*
Y1920*
G75*
G02X2366Y1895I-36J0*
G01*
X2321Y1850*
G75*
G02X2296Y1840I-25J25*
G01*
X2212*
Y1837*
X2116*
Y1912*
Y1913*
Y1927*
G75*
G02X2106Y1919I-17J11*
G01*
Y1870*
X2101*
Y1837*
X2061*
X2080Y1819*
Y1797*
X2170Y1684*
X2408*
G75*
G02X2432Y1674I0J-34*
G01*
X2503Y1603*
G75*
G02X2513Y1579I-24J-24*
G01*
Y1560*
X2534*
Y1493*
Y1457*
Y1413*
X2574*
X2583*
X2623*
Y1457*
Y1493*
Y1560*
X2667*
X2687Y1580*
Y1864*
X2668*
Y1986*
X2674*
X2663Y1998*
Y2052*
X2689Y2079*
X2668Y2100*
Y2150*
X2689Y2171*
X2663Y2198*
Y2252*
X2701Y2291*
X2756*
X2795Y2252*
Y2198*
X2769Y2171*
X2790Y2150*
Y2112*
X2815Y2087*
G75*
G02X2825Y2063I-24J-24*
G01*
Y919*
X2837Y907*
Y868*
X2810Y842*
X2772*
X2745Y868*
Y907*
X2757Y919*
Y982*
X2588*
X2569*
X2388*
X2369*
X2169*
Y1201*
X2369*
X2388*
X2569*
X2588*
X2757*
Y1204*
X2583*
X2574*
X2383*
X2374*
X2174*
Y1413*
X2223*
Y1457*
Y1479*
X2022*
X2010Y1466*
X1972*
X1945Y1493*
Y1532*
X1972Y1559*
X2010*
X2022Y1547*
X2223*
Y1560*
X2334*
Y1493*
Y1457*
Y1413*
X2374*
X2383*
X2423*
Y1457*
Y1493*
Y1560*
X2445*
Y1565*
X2394Y1616*
X2154*
G75*
G02X2127Y1629J34*
G01*
X2027Y1754*
X2015*
X1988Y1780*
Y1817*
X1948*
X1910*
X1858*
Y1467*
X1958Y1368*
G75*
G02X1962Y1367I-8J-43*
G01*
X2008*
Y1381*
X2099*
Y1319*
X2104*
Y1214*
X2021*
Y1131*
X2016*
Y1114*
Y1109*
X2048*
X2060Y1121*
X2098*
X2125Y1094*
Y1056*
X2098Y1029*
X2060*
X2048Y1041*
X2016*
Y1036*
Y1011*
G75*
G02X2025Y988I-25J-24*
G01*
Y871*
G75*
G02X2104Y845I29J-46*
G01*
G75*
G02X2204I50J-20*
G01*
G75*
G02X2301Y851I50J-20*
G01*
G75*
G02X2412Y825I53J-26*
G01*
G75*
G02X2333Y770I-59*
G01*
G75*
G02X2357Y725I-29J-45*
G01*
G75*
G02X2254Y705I-54*
G01*
G75*
G02X2198Y672I-50J20*
G01*
X2165Y638*
G75*
G02X2141Y629I-24J24*
G01*
X1979*
X1907Y557*
G75*
G02X2048Y475I47J-82*
G01*
G75*
G02X1867Y440I-94*
G01*
G75*
G02X1865Y438I-25J23*
G01*
X1830Y403*
G75*
G02X1830Y400I-51J-3*
G01*
G75*
G02X1727I-52*
G01*
G75*
G02X1782Y451I52*
G01*
X1807Y477*
Y539*
G75*
G02X1817Y563I34J0*
G01*
X1941Y687*
G75*
G02X1959Y696I24J-24*
G01*
G75*
G02X1950Y725I45J29*
G01*
G75*
G02X1957Y752I54*
G01*
Y973*
X1945Y986*
X1884*
Y1036*
Y1064*
Y1086*
Y1114*
Y1131*
X1879*
Y1219*
X1884*
Y1231*
X1879*
Y1319*
X1884*
Y1323*
X1787Y1420*
G75*
G02X1774Y1450I30J30*
G01*
Y1990*
X1748*
Y2014*
X1723*
Y1998*
X1612*
Y2065*
Y2101*
Y2110*
X1518Y2016*
Y1954*
X1498*
X1728Y1724*
G75*
G02X1738Y1700I-24J-24*
G01*
Y1445*
X1803Y1380*
G75*
G02X1813Y1356I-24J-24*
G01*
Y1250*
G75*
G02X1803Y1226I-34J0*
G01*
X1778Y1201*
G75*
G02X1774Y1198I-24J24*
G01*
Y1186*
Y1171*
X1810*
X1837Y1144*
Y1106*
X1810Y1079*
X1774*
Y1069*
X1779*
Y981*
X1637*
Y1041*
X1618*
G75*
G02X1608Y1032I-39J34*
G01*
G75*
G02X1603Y1026I-29J18*
G01*
X1587Y1010*
Y993*
X1560Y967*
X1525*
Y864*
X1562*
X1582Y844*
X1597Y859*
X1635*
Y866*
X1773*
Y750*
X1635*
Y766*
X1597*
X1582Y781*
X1562Y761*
X1520*
X1498Y784*
X1433Y718*
G75*
G02X1391Y683I-41J7*
G01*
X1387*
G75*
G02X1360Y672I-33J42*
G01*
X1358Y670*
Y308*
X1438Y246*
X1448*
X1475Y219*
Y181*
X1448Y154*
X1410*
X1383Y181*
Y183*
X1302Y246*
X1004*
G75*
G02X972Y260I0J42*
G01*
X772Y485*
G75*
G02X762Y513I31J28*
G01*
Y770*
X759Y773*
Y644*
X599*
Y807*
X725*
X684Y848*
X604*
Y883*
X571*
Y875*
Y866*
Y789*
X576*
Y679*
X426*
Y783*
X403*
G75*
G02X379I-12J42*
G01*
X371*
Y655*
X508*
Y495*
X369*
Y500*
X254*
Y533*
X240*
G75*
G02X148Y575I-36J42*
G01*
G75*
G02X240Y617I56*
G01*
X254*
Y650*
X287*
Y728*
X187*
Y922*
X326*
Y869*
G75*
G02X341Y867I3J-44*
G01*
X348*
Y1675*
G75*
G02X361Y1706I44*
G01*
X435Y1779*
Y1882*
X390Y1927*
X385Y1922*
Y1902*
X364Y1881*
X385*
Y1769*
X273*
Y1790*
X252Y1769*
X206*
X173Y1802*
Y1833*
X181Y1614D02*
X168D01*
Y1736*
X290*
Y1614*
X276*
X290Y1600*
Y1550*
X265Y1525*
X290Y1500*
Y1450*
X265Y1425*
X290Y1400*
Y1350*
X265Y1325*
X290Y1300*
Y1250*
X269Y1229*
X295Y1202*
Y1148*
X256Y1109*
X201*
X163Y1148*
Y1202*
X189Y1229*
X168Y1250*
Y1300*
X192Y1325*
X168Y1350*
Y1400*
X192Y1425*
X168Y1450*
Y1500*
X192Y1525*
X168Y1550*
Y1600*
X181Y1614*
X1360Y475D02*
G75*
G02X1548I94D01*
G01*
G75*
G02X1360I-94*
G01*
X1778Y579D02*
X1630D01*
Y705*
X1778*
Y579*
X2310Y475D02*
G75*
G02X2498I94D01*
G01*
G75*
G02X2310I-94*
G01*
X2375Y170D02*
G75*
G02X2349Y196J26D01*
G01*
Y252*
G75*
G02X2375Y278I26*
G01*
X2503*
G75*
G02X2529Y252J-26*
G01*
Y196*
G75*
G02X2503Y170I-26*
G01*
X2375*
X2565Y161D02*
Y389D01*
X2793*
Y161*
X2565*
Y2361D02*
Y2589D01*
X2793*
Y2361*
X2565*
X79Y275D02*
G36*
Y75D01*
X2879*
Y275*
X2793*
Y161*
X2565*
Y275*
X2515*
G75*
G02X2529Y252I-12J-23*
G01*
Y196*
G75*
G02X2503Y170I-26*
G01*
X2375*
G75*
G02X2349Y196J26*
G01*
Y252*
G75*
G02X2363Y275I26*
G01*
X1401*
X1438Y246*
X1448*
X1475Y219*
Y181*
X1448Y154*
X1410*
X1383Y181*
Y183*
X1302Y246*
X1004*
G75*
G02X972Y260I0J42*
G01*
X959Y275*
X393*
Y161*
X165*
Y275*
X79*
G37*
X165D02*
G36*
Y389D01*
X393*
Y275*
X959*
X781Y475*
X79*
Y275*
X165*
G37*
X2363D02*
G36*
G75*
G02X2375Y278I12J-23D01*
G01*
X2503*
G75*
G02X2515Y275J-26*
G01*
X2565*
Y389*
X2793*
Y275*
X2879*
Y475*
X2498*
G75*
G02X2310I-94*
G01*
X2048*
G75*
G02X1867Y440I-94*
G01*
G75*
G02X1865Y438I-25J23*
G01*
X1830Y403*
G75*
G02X1830Y400I-51J-3*
G01*
G75*
G02X1727I-52*
G01*
G75*
G02X1782Y451I52*
G01*
X1806Y475*
X1548*
G75*
G02X1360I-94*
G01*
X1358*
Y308*
X1401Y275*
X2363*
G37*
X79Y1423D02*
G36*
Y642D01*
X254*
Y650*
X287*
Y728*
X187*
Y922*
X326*
Y869*
G75*
G02X341Y867I3J-44*
G01*
X348*
Y1423*
X268*
X290Y1400*
Y1350*
X265Y1325*
X290Y1300*
Y1250*
X269Y1229*
X295Y1202*
Y1148*
X256Y1109*
X201*
X163Y1148*
Y1202*
X189Y1229*
X168Y1250*
Y1300*
X192Y1325*
X168Y1350*
Y1400*
X190Y1423*
X79*
G37*
X190D02*
G36*
X192Y1425D01*
X168Y1450*
Y1500*
X192Y1525*
X168Y1550*
Y1600*
X181Y1614*
X168*
Y1736*
X290*
Y1614*
X276*
X290Y1600*
Y1550*
X265Y1525*
X290Y1500*
Y1450*
X265Y1425*
X268Y1423*
X348*
Y1675*
G75*
G02X361Y1706I44*
G01*
X435Y1779*
Y1882*
X390Y1927*
X385Y1922*
Y1902*
X364Y1881*
X385*
Y1769*
X273*
Y1790*
X252Y1769*
X206*
X173Y1802*
Y1833*
X142Y1863*
G75*
G02X132Y1888I24J24*
G01*
Y2128*
G75*
G02X142Y2152I34J0*
G01*
X352Y2361*
X165*
Y2475*
X79*
Y1423*
X190*
G37*
X2825D02*
G36*
Y919D01*
X2837Y907*
Y868*
X2810Y842*
X2772*
X2745Y868*
Y907*
X2757Y919*
Y982*
X2169*
Y1201*
X2757*
Y1204*
X2174*
Y1413*
X2223*
Y1479*
X2022*
X2010Y1466*
X1972*
X1945Y1493*
Y1532*
X1972Y1559*
X2010*
X2022Y1547*
X2223*
Y1560*
X2334*
Y1413*
X2423*
Y1560*
X2445*
Y1565*
X2394Y1616*
X2154*
G75*
G02X2127Y1629J34*
G01*
X2027Y1754*
X2015*
X1988Y1780*
Y1817*
X1858*
Y1467*
X1958Y1368*
G75*
G02X1962Y1367I-8J-43*
G01*
X2008*
Y1381*
X2099*
Y1319*
X2104*
Y1214*
X2021*
Y1131*
X2016*
Y1109*
X2048*
X2060Y1121*
X2098*
X2125Y1094*
Y1056*
X2098Y1029*
X2060*
X2048Y1041*
X2016*
Y1011*
G75*
G02X2025Y988I-25J-24*
G01*
Y871*
G75*
G02X2104Y845I29J-46*
G01*
G75*
G02X2204I50J-20*
G01*
G75*
G02X2301Y851I50J-20*
G01*
G75*
G02X2412Y825I53J-26*
G01*
G75*
G02X2333Y770I-59*
G01*
G75*
G02X2357Y725I-29J-45*
G01*
G75*
G02X2254Y705I-54*
G01*
G75*
G02X2198Y672I-50J20*
G01*
X2169Y642*
X2879*
Y1423*
X2825*
G37*
X2879D02*
G36*
Y2475D01*
X2793*
Y2361*
X2565*
Y2475*
X2292*
X2366Y2400*
G75*
G02X2377Y2375I-25J-25*
G01*
Y1920*
G75*
G02X2366Y1895I-36J0*
G01*
X2321Y1850*
G75*
G02X2296Y1840I-25J25*
G01*
X2212*
Y1837*
X2116*
Y1927*
G75*
G02X2106Y1919I-17J11*
G01*
Y1870*
X2101*
Y1837*
X2061*
X2080Y1819*
Y1797*
X2170Y1684*
X2408*
G75*
G02X2432Y1674I0J-34*
G01*
X2503Y1603*
G75*
G02X2513Y1579I-24J-24*
G01*
Y1560*
X2534*
Y1413*
X2623*
Y1560*
X2667*
X2687Y1580*
Y1864*
X2668*
Y1986*
X2674*
X2663Y1998*
Y2052*
X2689Y2079*
X2668Y2100*
Y2150*
X2689Y2171*
X2663Y2198*
Y2252*
X2701Y2291*
X2756*
X2795Y2252*
Y2198*
X2769Y2171*
X2790Y2150*
Y2112*
X2815Y2087*
G75*
G02X2825Y2063I-24J-24*
G01*
Y1423*
X2879*
G37*
X781Y475D02*
G36*
X772Y485D01*
G75*
G02X762Y513I31J28*
G01*
Y770*
X759Y773*
Y644*
X599*
Y807*
X725*
X684Y848*
X604*
Y883*
X571*
Y789*
X576*
Y679*
X426*
Y783*
X403*
G75*
G02X379I-12J42*
G01*
X371*
Y655*
X508*
Y495*
X369*
Y500*
X254*
Y533*
X240*
G75*
G02X148Y575I-36J42*
G01*
G75*
G02X240Y617I56*
G01*
X254*
Y642*
X79*
Y475*
X781*
G37*
X1360D02*
G36*
G75*
G02X1548I94D01*
G01*
X1806*
X1807Y477*
Y539*
G75*
G02X1817Y563I34J0*
G01*
X1896Y642*
X1778*
Y579*
X1630*
Y642*
X1358*
Y475*
X1360*
G37*
X2310D02*
G36*
G75*
G02X2498I94D01*
G01*
X2879*
Y642*
X2169*
X2165Y638*
G75*
G02X2141Y629I-24J24*
G01*
X1979*
X1907Y557*
G75*
G02X2048Y475I47J-82*
G01*
X2310*
G37*
X1630Y642D02*
G36*
Y705D01*
X1778*
Y642*
X1896*
X1941Y687*
G75*
G02X1959Y696I24J-24*
G01*
G75*
G02X1957Y752I45J29*
G01*
Y973*
X1945Y986*
X1884*
Y1131*
X1879*
Y1219*
X1884*
Y1231*
X1879*
Y1319*
X1884*
Y1323*
X1787Y1420*
G75*
G02X1774Y1450I30J30*
G01*
Y1990*
X1748*
Y2014*
X1723*
Y1998*
X1612*
Y2110*
X1518Y2016*
Y1954*
X1498*
X1728Y1724*
G75*
G02X1738Y1700I-24J-24*
G01*
Y1445*
X1803Y1380*
G75*
G02X1813Y1356I-24J-24*
G01*
Y1250*
G75*
G02X1803Y1226I-34J0*
G01*
X1778Y1201*
G75*
G02X1774Y1198I-24J24*
G01*
Y1171*
X1810*
X1837Y1144*
Y1106*
X1810Y1079*
X1774*
Y1069*
X1779*
Y981*
X1637*
Y1041*
X1618*
G75*
G02X1608Y1032I-39J34*
G01*
G75*
G02X1603Y1026I-29J18*
G01*
X1587Y1010*
Y993*
X1560Y967*
X1525*
Y864*
X1562*
X1582Y844*
X1597Y859*
X1635*
Y866*
X1773*
Y750*
X1635*
Y766*
X1597*
X1582Y781*
X1562Y761*
X1520*
X1498Y784*
X1433Y718*
G75*
G02X1391Y683I-41J7*
G01*
X1387*
G75*
G02X1360Y672I-33J42*
G01*
X1358Y670*
Y642*
X1630*
G37*
X165Y2475D02*
G36*
Y2589D01*
X393*
Y2437*
X505Y2549*
G75*
G02X529Y2559I24J-24*
G01*
X1316*
G75*
G02X1340Y2549I0J-34*
G01*
X1465Y2424*
G75*
G02X1475Y2400I-24J-24*
G01*
Y2230*
G75*
G02X1465Y2206I-34J0*
G01*
X1448Y2188*
G75*
G02X1424Y2179I-24J24*
G01*
X1305*
X1260Y2134*
X1285*
X1300Y2119*
G75*
G02X1302Y2121I29J-19*
G01*
G75*
G02X1302Y2125I51J4*
G01*
G75*
G02X1391Y2160I52*
G01*
G75*
G02X1480Y2125I38J-35*
G01*
G75*
G02X1463Y2086I-52*
G01*
Y2073*
X1478*
X1720Y2314*
X1718*
Y2436*
X1743*
Y2467*
G75*
G02X1754Y2493I36J0*
G01*
X1799Y2538*
G75*
G02X1824Y2548I25J-25*
G01*
X2204*
G75*
G02X2229Y2538I0J-36*
G01*
X2292Y2475*
X2565*
Y2589*
X2793*
Y2475*
X2879*
Y2675*
X79*
Y2475*
X165*
G37*
X79Y5475D02*
Y2875D01*
X2879*
Y5475*
X79*
X165Y2961D02*
Y3189D01*
X393*
Y2961*
X165*
X173Y4631D02*
X141Y4662D01*
G75*
G02X131Y4687I25J25*
G01*
Y4928*
G75*
G02X141Y4953I36*
G01*
X349Y5161*
X165*
Y5389*
X393*
Y5239*
X504Y5350*
G75*
G02X529Y5361I25J-25*
G01*
X1316*
G75*
G02X1341Y5350I0J-36*
G01*
X1466Y5225*
G75*
G02X1477Y5200I-25J-25*
G01*
Y5030*
G75*
G02X1466Y5005I-36J0*
G01*
X1449Y4987*
G75*
G02X1424Y4977I-25J25*
G01*
X1306*
X1263Y4934*
X1285*
X1300Y4919*
G75*
G02X1302Y4921I28J-19*
G01*
G75*
G02X1302Y4925I51J4*
G01*
G75*
G02X1391Y4960I52*
G01*
G75*
G02X1480Y4925I38J-35*
G01*
G75*
G02X1463Y4886I-52*
G01*
Y4873*
X1468*
X1478*
X1720Y5114*
X1718*
Y5236*
X1743*
Y5267*
G75*
G02X1754Y5293I36*
G01*
X1799Y5338*
G75*
G02X1824Y5348I25J-25*
G01*
X2204*
G75*
G02X2229Y5338J-36*
G01*
X2366Y5200*
G75*
G02X2377Y5175I-25J-25*
G01*
Y4720*
G75*
G02X2366Y4695I-36*
G01*
X2321Y4650*
G75*
G02X2296Y4640I-25J25*
G01*
X2212*
Y4637*
X2116*
Y4712*
Y4713*
Y4727*
G75*
G02X2106Y4719I-17J11*
G01*
Y4670*
X2101*
Y4637*
X2061*
X2080Y4619*
Y4596*
X2170Y4484*
X2408*
G75*
G02X2432Y4474I0J-34*
G01*
X2503Y4403*
G75*
G02X2513Y4379I-24J-24*
G01*
Y4360*
X2534*
Y4293*
Y4257*
Y4213*
X2574*
X2583*
X2623*
Y4257*
Y4293*
Y4360*
X2667*
X2687Y4380*
Y4664*
X2668*
Y4786*
X2674*
X2663Y4798*
Y4852*
X2689Y4879*
X2668Y4900*
Y4950*
X2689Y4971*
X2663Y4998*
Y5052*
X2701Y5091*
X2756*
X2795Y5052*
Y4998*
X2769Y4971*
X2790Y4950*
Y4914*
X2816Y4888*
G75*
G02X2827Y4863I-25J-25*
G01*
Y3717*
X2837Y3707*
Y3668*
X2810Y3642*
X2772*
X2745Y3668*
Y3707*
X2756Y3717*
Y3782*
X2588*
X2569*
X2388*
X2369*
X2169*
Y4001*
X2369*
X2388*
X2569*
X2588*
X2756*
Y4004*
X2583*
X2574*
X2383*
X2374*
X2174*
Y4213*
X2223*
Y4257*
Y4279*
X2022*
X2010Y4267*
X1972*
X1945Y4293*
Y4332*
X1972Y4359*
X2010*
X2022Y4347*
X2223*
Y4360*
X2334*
Y4293*
Y4257*
Y4213*
X2374*
X2383*
X2423*
Y4257*
Y4293*
Y4360*
X2445*
Y4365*
X2394Y4416*
X2154*
G75*
G02X2127Y4429J34*
G01*
X2027Y4553*
X2015*
X1988Y4580*
Y4618*
X1948*
X1910*
X1858*
Y4267*
X1958Y4168*
G75*
G02X1962Y4167I-8J-43*
G01*
X2008*
Y4181*
X2099*
Y4119*
X2104*
Y4014*
X2021*
Y3931*
X2016*
Y3914*
Y3909*
X2048*
X2060Y3921*
X2098*
X2125Y3894*
Y3856*
X2098Y3829*
X2060*
X2048Y3841*
X2016*
Y3836*
Y3811*
G75*
G02X2025Y3788I-25J-24*
G01*
Y3671*
G75*
G02X2104Y3645I29J-46*
G01*
G75*
G02X2204I50J-20*
G01*
G75*
G02X2301Y3651I50J-20*
G01*
G75*
G02X2412Y3625I53J-26*
G01*
G75*
G02X2333Y3570I-59*
G01*
G75*
G02X2357Y3525I-29J-45*
G01*
G75*
G02X2254Y3505I-54*
G01*
G75*
G02X2198Y3472I-50J20*
G01*
X2165Y3438*
G75*
G02X2141Y3429I-24J24*
G01*
X1979*
X1907Y3357*
G75*
G02X2048Y3275I47J-82*
G01*
G75*
G02X1867Y3240I-94*
G01*
G75*
G02X1865Y3238I-25J23*
G01*
X1830Y3203*
G75*
G02X1830Y3200I-51J-3*
G01*
G75*
G02X1727I-52*
G01*
G75*
G02X1782Y3251I52*
G01*
X1807Y3277*
Y3339*
G75*
G02X1817Y3363I34J0*
G01*
X1941Y3487*
G75*
G02X1959Y3496I24J-24*
G01*
G75*
G02X1950Y3525I45J29*
G01*
G75*
G02X1957Y3552I54*
G01*
Y3773*
X1945Y3786*
X1884*
Y3836*
Y3864*
Y3886*
Y3914*
Y3931*
X1879*
Y4019*
X1884*
Y4031*
X1879*
Y4119*
X1884*
Y4123*
X1787Y4220*
G75*
G02X1774Y4250I30J30*
G01*
Y4790*
X1748*
Y4814*
X1723*
Y4798*
X1612*
Y4865*
Y4901*
Y4910*
X1518Y4816*
Y4754*
X1498*
X1728Y4524*
G75*
G02X1738Y4500I-24J-24*
G01*
Y4245*
X1803Y4180*
G75*
G02X1813Y4156I-24J-24*
G01*
Y4050*
G75*
G02X1803Y4026I-34J0*
G01*
X1778Y4001*
G75*
G02X1774Y3998I-24J24*
G01*
Y3986*
Y3971*
X1810*
X1837Y3944*
Y3906*
X1810Y3879*
X1774*
Y3869*
X1779*
Y3781*
X1637*
Y3841*
X1618*
G75*
G02X1608Y3832I-39J34*
G01*
G75*
G02X1603Y3826I-29J18*
G01*
X1587Y3810*
Y3793*
X1560Y3767*
X1525*
Y3663*
X1562*
X1582Y3644*
X1597Y3659*
X1635*
Y3666*
X1773*
Y3550*
X1635*
Y3567*
X1597*
X1582Y3581*
X1562Y3562*
X1520*
X1498Y3584*
X1433Y3518*
G75*
G02X1391Y3483I-41J7*
G01*
X1387*
G75*
G02X1360Y3472I-33J42*
G01*
X1358Y3470*
Y3108*
X1438Y3046*
X1448*
X1475Y3019*
Y2981*
X1448Y2954*
X1410*
X1383Y2981*
Y2983*
X1302Y3046*
X1004*
G75*
G02X972Y3060I0J42*
G01*
X772Y3285*
G75*
G02X762Y3313I31J28*
G01*
Y3570*
X759Y3573*
Y3444*
X599*
Y3607*
X725*
X684Y3648*
X604*
Y3683*
X571*
Y3675*
Y3666*
Y3589*
X576*
Y3479*
X426*
Y3583*
X403*
G75*
G02X379I-12J42*
G01*
X371*
Y3455*
X508*
Y3295*
X369*
Y3300*
X254*
Y3333*
X240*
G75*
G02X148Y3375I-36J42*
G01*
G75*
G02X240Y3417I56*
G01*
X254*
Y3450*
X287*
Y3528*
X187*
Y3722*
X326*
Y3669*
G75*
G02X341Y3667I3J-44*
G01*
X348*
Y4475*
G75*
G02X361Y4506I44*
G01*
X435Y4579*
Y4682*
X390Y4727*
X385Y4722*
Y4702*
X364Y4681*
X385*
Y4569*
X273*
Y4590*
X252Y4569*
X206*
X173Y4602*
Y4631*
X181Y4414D02*
X168D01*
Y4536*
X290*
Y4414*
X276*
X290Y4400*
Y4350*
X265Y4325*
X290Y4300*
Y4250*
X265Y4225*
X290Y4200*
Y4150*
X265Y4125*
X290Y4100*
Y4050*
X269Y4029*
X295Y4002*
Y3948*
X256Y3909*
X201*
X163Y3948*
Y4002*
X189Y4029*
X168Y4050*
Y4100*
X192Y4125*
X168Y4150*
Y4200*
X192Y4225*
X168Y4250*
Y4300*
X192Y4325*
X168Y4350*
Y4400*
X181Y4414*
X1360Y3275D02*
G75*
G02X1548I94D01*
G01*
G75*
G02X1360I-94*
G01*
X1778Y3379D02*
X1630D01*
Y3505*
X1778*
Y3379*
X2310Y3275D02*
G75*
G02X2498I94D01*
G01*
G75*
G02X2310I-94*
G01*
X2375Y2970D02*
G75*
G02X2349Y2996J26D01*
G01*
Y3052*
G75*
G02X2375Y3078I26*
G01*
X2503*
G75*
G02X2529Y3052J-26*
G01*
Y2996*
G75*
G02X2503Y2970I-26*
G01*
X2375*
X2565Y2961D02*
Y3189D01*
X2793*
Y2961*
X2565*
Y5161D02*
Y5389D01*
X2793*
Y5161*
X2565*
X79Y3075D02*
G36*
Y2875D01*
X2879*
Y3075*
X2793*
Y2961*
X2565*
Y3075*
X2515*
G75*
G02X2529Y3052I-12J-23*
G01*
Y2996*
G75*
G02X2503Y2970I-26*
G01*
X2375*
G75*
G02X2349Y2996J26*
G01*
Y3052*
G75*
G02X2363Y3075I26*
G01*
X1401*
X1438Y3046*
X1448*
X1475Y3019*
Y2981*
X1448Y2954*
X1410*
X1383Y2981*
Y2983*
X1302Y3046*
X1004*
G75*
G02X972Y3060I0J42*
G01*
X959Y3075*
X393*
Y2961*
X165*
Y3075*
X79*
G37*
X165D02*
G36*
Y3189D01*
X393*
Y3075*
X959*
X781Y3275*
X79*
Y3075*
X165*
G37*
X2363D02*
G36*
G75*
G02X2375Y3078I12J-23D01*
G01*
X2503*
G75*
G02X2515Y3075J-26*
G01*
X2565*
Y3189*
X2793*
Y3075*
X2879*
Y3275*
X2498*
G75*
G02X2310I-94*
G01*
X2048*
G75*
G02X1867Y3240I-94*
G01*
G75*
G02X1865Y3238I-25J23*
G01*
X1830Y3203*
G75*
G02X1830Y3200I-51J-3*
G01*
G75*
G02X1727I-52*
G01*
G75*
G02X1782Y3251I52*
G01*
X1806Y3275*
X1548*
G75*
G02X1360I-94*
G01*
X1358*
Y3108*
X1401Y3075*
X2363*
G37*
X79Y4223D02*
G36*
Y3442D01*
X254*
Y3450*
X287*
Y3528*
X187*
Y3722*
X326*
Y3669*
G75*
G02X341Y3667I3J-44*
G01*
X348*
Y4223*
X268*
X290Y4200*
Y4150*
X265Y4125*
X290Y4100*
Y4050*
X269Y4029*
X295Y4002*
Y3948*
X256Y3909*
X201*
X163Y3948*
Y4002*
X189Y4029*
X168Y4050*
Y4100*
X192Y4125*
X168Y4150*
Y4200*
X190Y4223*
X79*
G37*
X190D02*
G36*
X192Y4225D01*
X168Y4250*
Y4300*
X192Y4325*
X168Y4350*
Y4400*
X181Y4414*
X168*
Y4536*
X290*
Y4414*
X276*
X290Y4400*
Y4350*
X265Y4325*
X290Y4300*
Y4250*
X265Y4225*
X268Y4223*
X348*
Y4475*
G75*
G02X361Y4506I44*
G01*
X435Y4579*
Y4682*
X390Y4727*
X385Y4722*
Y4702*
X364Y4681*
X385*
Y4569*
X273*
Y4590*
X252Y4569*
X206*
X173Y4602*
Y4631*
X141Y4662*
G75*
G02X131Y4687I25J25*
G01*
Y4928*
G75*
G02X141Y4953I36*
G01*
X349Y5161*
X165*
Y5275*
X79*
Y4223*
X190*
G37*
X2827D02*
G36*
Y3717D01*
X2837Y3707*
Y3668*
X2810Y3642*
X2772*
X2745Y3668*
Y3707*
X2756Y3717*
Y3782*
X2169*
Y4001*
X2756*
Y4004*
X2174*
Y4213*
X2223*
Y4279*
X2022*
X2010Y4267*
X1972*
X1945Y4293*
Y4332*
X1972Y4359*
X2010*
X2022Y4347*
X2223*
Y4360*
X2334*
Y4213*
X2423*
Y4360*
X2445*
Y4365*
X2394Y4416*
X2154*
G75*
G02X2127Y4429J34*
G01*
X2027Y4553*
X2015*
X1988Y4580*
Y4618*
X1858*
Y4267*
X1958Y4168*
G75*
G02X1962Y4167I-8J-43*
G01*
X2008*
Y4181*
X2099*
Y4119*
X2104*
Y4014*
X2021*
Y3931*
X2016*
Y3909*
X2048*
X2060Y3921*
X2098*
X2125Y3894*
Y3856*
X2098Y3829*
X2060*
X2048Y3841*
X2016*
Y3811*
G75*
G02X2025Y3788I-25J-24*
G01*
Y3671*
G75*
G02X2104Y3645I29J-46*
G01*
G75*
G02X2204I50J-20*
G01*
G75*
G02X2301Y3651I50J-20*
G01*
G75*
G02X2412Y3625I53J-26*
G01*
G75*
G02X2333Y3570I-59*
G01*
G75*
G02X2357Y3525I-29J-45*
G01*
G75*
G02X2254Y3505I-54*
G01*
G75*
G02X2198Y3472I-50J20*
G01*
X2169Y3442*
X2879*
Y4223*
X2827*
G37*
X2879D02*
G36*
Y5275D01*
X2793*
Y5161*
X2565*
Y5275*
X2292*
X2366Y5200*
G75*
G02X2377Y5175I-25J-25*
G01*
Y4720*
G75*
G02X2366Y4695I-36*
G01*
X2321Y4650*
G75*
G02X2296Y4640I-25J25*
G01*
X2212*
Y4637*
X2116*
Y4727*
G75*
G02X2106Y4719I-17J11*
G01*
Y4670*
X2101*
Y4637*
X2061*
X2080Y4619*
Y4596*
X2170Y4484*
X2408*
G75*
G02X2432Y4474I0J-34*
G01*
X2503Y4403*
G75*
G02X2513Y4379I-24J-24*
G01*
Y4360*
X2534*
Y4213*
X2623*
Y4360*
X2667*
X2687Y4380*
Y4664*
X2668*
Y4786*
X2674*
X2663Y4798*
Y4852*
X2689Y4879*
X2668Y4900*
Y4950*
X2689Y4971*
X2663Y4998*
Y5052*
X2701Y5091*
X2756*
X2795Y5052*
Y4998*
X2769Y4971*
X2790Y4950*
Y4914*
X2816Y4888*
G75*
G02X2827Y4863I-25J-25*
G01*
Y4223*
X2879*
G37*
X781Y3275D02*
G36*
X772Y3285D01*
G75*
G02X762Y3313I31J28*
G01*
Y3570*
X759Y3573*
Y3444*
X599*
Y3607*
X725*
X684Y3648*
X604*
Y3683*
X571*
Y3589*
X576*
Y3479*
X426*
Y3583*
X403*
G75*
G02X379I-12J42*
G01*
X371*
Y3455*
X508*
Y3295*
X369*
Y3300*
X254*
Y3333*
X240*
G75*
G02X148Y3375I-36J42*
G01*
G75*
G02X240Y3417I56*
G01*
X254*
Y3442*
X79*
Y3275*
X781*
G37*
X1360D02*
G36*
G75*
G02X1548I94D01*
G01*
X1806*
X1807Y3277*
Y3339*
G75*
G02X1817Y3363I34J0*
G01*
X1896Y3442*
X1778*
Y3379*
X1630*
Y3442*
X1358*
Y3275*
X1360*
G37*
X2310D02*
G36*
G75*
G02X2498I94D01*
G01*
X2879*
Y3442*
X2169*
X2165Y3438*
G75*
G02X2141Y3429I-24J24*
G01*
X1979*
X1907Y3357*
G75*
G02X2048Y3275I47J-82*
G01*
X2310*
G37*
X1630Y3442D02*
G36*
Y3505D01*
X1778*
Y3442*
X1896*
X1941Y3487*
G75*
G02X1959Y3496I24J-24*
G01*
G75*
G02X1957Y3552I45J29*
G01*
Y3773*
X1945Y3786*
X1884*
Y3931*
X1879*
Y4019*
X1884*
Y4031*
X1879*
Y4119*
X1884*
Y4123*
X1787Y4220*
G75*
G02X1774Y4250I30J30*
G01*
Y4790*
X1748*
Y4814*
X1723*
Y4798*
X1612*
Y4910*
X1518Y4816*
Y4754*
X1498*
X1728Y4524*
G75*
G02X1738Y4500I-24J-24*
G01*
Y4245*
X1803Y4180*
G75*
G02X1813Y4156I-24J-24*
G01*
Y4050*
G75*
G02X1803Y4026I-34J0*
G01*
X1778Y4001*
G75*
G02X1774Y3998I-24J24*
G01*
Y3971*
X1810*
X1837Y3944*
Y3906*
X1810Y3879*
X1774*
Y3869*
X1779*
Y3781*
X1637*
Y3841*
X1618*
G75*
G02X1608Y3832I-39J34*
G01*
G75*
G02X1603Y3826I-29J18*
G01*
X1587Y3810*
Y3793*
X1560Y3767*
X1525*
Y3663*
X1562*
X1582Y3644*
X1597Y3659*
X1635*
Y3666*
X1773*
Y3550*
X1635*
Y3567*
X1597*
X1582Y3581*
X1562Y3562*
X1520*
X1498Y3584*
X1433Y3518*
G75*
G02X1391Y3483I-41J7*
G01*
X1387*
G75*
G02X1360Y3472I-33J42*
G01*
X1358Y3470*
Y3442*
X1630*
G37*
X165Y5275D02*
G36*
Y5389D01*
X393*
Y5239*
X504Y5350*
G75*
G02X529Y5361I25J-25*
G01*
X1316*
G75*
G02X1341Y5350I0J-36*
G01*
X1466Y5225*
G75*
G02X1477Y5200I-25J-25*
G01*
Y5030*
G75*
G02X1466Y5005I-36J0*
G01*
X1449Y4987*
G75*
G02X1424Y4977I-25J25*
G01*
X1306*
X1263Y4934*
X1285*
X1300Y4919*
G75*
G02X1302Y4921I28J-19*
G01*
G75*
G02X1302Y4925I51J4*
G01*
G75*
G02X1391Y4960I52*
G01*
G75*
G02X1480Y4925I38J-35*
G01*
G75*
G02X1463Y4886I-52*
G01*
Y4873*
X1478*
X1720Y5114*
X1718*
Y5236*
X1743*
Y5267*
G75*
G02X1754Y5293I36*
G01*
X1799Y5338*
G75*
G02X1824Y5348I25J-25*
G01*
X2204*
G75*
G02X2229Y5338J-36*
G01*
X2292Y5275*
X2565*
Y5389*
X2793*
Y5275*
X2879*
Y5475*
X79*
Y5275*
X165*
G37*
X200Y2083D02*
X203Y2086D01*
X254*
X282Y2058*
X306Y2081*
X352*
X385Y2048*
Y2040*
X487Y2142*
Y2331*
X468Y2350*
Y2400*
X503Y2436*
X554*
X575Y2415*
X601Y2441*
X656*
X682Y2415*
X703Y2436*
X754*
X768Y2422*
Y2436*
X870*
Y2457*
X897Y2483*
X935*
X962Y2457*
Y2418*
X950Y2406*
Y2338*
G75*
G02X940Y2313I-34J0*
G01*
X914Y2288*
X915Y2287*
G75*
G02X925Y2263I-24J-24*
G01*
Y2221*
X960*
Y2213*
X1000*
X1023Y2190*
G75*
G02X1030Y2199I30J-15*
G01*
X1123Y2292*
Y2331*
X1144*
X1123Y2352*
Y2398*
X1156Y2431*
X1202*
X1225Y2408*
X1253Y2436*
X1304*
X1332Y2408*
X1356Y2431*
X1362*
X1302Y2491*
X543*
X438Y2386*
Y2365*
G75*
G02X428Y2341I-34J0*
G01*
X200Y2114*
Y2083*
G36*
X203Y2086*
X254*
X282Y2058*
X306Y2081*
X352*
X385Y2048*
Y2040*
X487Y2142*
Y2331*
X468Y2350*
Y2400*
X503Y2436*
X554*
X575Y2415*
X601Y2441*
X656*
X682Y2415*
X703Y2436*
X754*
X768Y2422*
Y2436*
X870*
Y2457*
X897Y2483*
X935*
X962Y2457*
Y2418*
X950Y2406*
Y2338*
G75*
G02X940Y2313I-34J0*
G01*
X914Y2288*
X915Y2287*
G75*
G02X925Y2263I-24J-24*
G01*
Y2221*
X960*
Y2213*
X1000*
X1023Y2190*
G75*
G02X1030Y2199I30J-15*
G01*
X1123Y2292*
Y2331*
X1144*
X1123Y2352*
Y2398*
X1156Y2431*
X1202*
X1225Y2408*
X1253Y2436*
X1304*
X1332Y2408*
X1356Y2431*
X1362*
X1302Y2491*
X543*
X438Y2386*
Y2365*
G75*
G02X428Y2341I-34J0*
G01*
X200Y2114*
Y2083*
G37*
X202Y4884D02*
X203Y4886D01*
X254*
X282Y4858*
X306Y4881*
X352*
X385Y4848*
Y4843*
X485Y4943*
Y5132*
X468Y5150*
Y5200*
X503Y5236*
X554*
X575Y5215*
X601Y5241*
X656*
X682Y5215*
X703Y5236*
X754*
X768Y5222*
Y5236*
X870*
Y5257*
X897Y5283*
X935*
X962Y5257*
Y5218*
X950Y5206*
Y5138*
G75*
G02X940Y5113I-34*
G01*
X915Y5089*
X916Y5088*
G75*
G02X927Y5063I-25J-25*
G01*
Y5021*
X960*
Y5013*
X1000*
X1022Y4991*
G75*
G02X1029Y5000I32J-16*
G01*
X1123Y5094*
Y5131*
X1144*
X1123Y5152*
Y5198*
X1156Y5231*
X1202*
X1225Y5208*
X1253Y5236*
X1304*
X1332Y5208*
X1356Y5231*
X1360*
X1302Y5289*
X543*
X439Y5185*
Y5165*
G75*
G02X429Y5140I-36*
G01*
X202Y4913*
Y4884*
G36*
X203Y4886*
X254*
X282Y4858*
X306Y4881*
X352*
X385Y4848*
Y4843*
X485Y4943*
Y5132*
X468Y5150*
Y5200*
X503Y5236*
X554*
X575Y5215*
X601Y5241*
X656*
X682Y5215*
X703Y5236*
X754*
X768Y5222*
Y5236*
X870*
Y5257*
X897Y5283*
X935*
X962Y5257*
Y5218*
X950Y5206*
Y5138*
G75*
G02X940Y5113I-34*
G01*
X915Y5089*
X916Y5088*
G75*
G02X927Y5063I-25J-25*
G01*
Y5021*
X960*
Y5013*
X1000*
X1022Y4991*
G75*
G02X1029Y5000I32J-16*
G01*
X1123Y5094*
Y5131*
X1144*
X1123Y5152*
Y5198*
X1156Y5231*
X1202*
X1225Y5208*
X1253Y5236*
X1304*
X1332Y5208*
X1356Y5231*
X1360*
X1302Y5289*
X543*
X439Y5185*
Y5165*
G75*
G02X429Y5140I-36*
G01*
X202Y4913*
Y4884*
G37*
X204Y575D02*
X319D01*
X204Y3375D02*
X319D01*
X329Y825D02*
Y575D01*
Y825D02*
X257D01*
X329D02*
X391D01*
X329Y3625D02*
Y3375D01*
Y3625D02*
X257D01*
X329D02*
X391D01*
Y825D02*
X393Y1491D01*
Y1675*
X479Y1761*
Y1900*
X391Y1988*
Y825D02*
X501D01*
X391Y1988D02*
X329Y1925D01*
X391Y1988D02*
X529Y2125D01*
Y2375*
X391Y3625D02*
X393Y4291D01*
Y4475*
X479Y4561*
Y4700*
X391Y4788*
Y3625D02*
X501D01*
X391Y4788D02*
X329Y4725D01*
X391Y4788D02*
X529Y4925D01*
Y5175*
X435Y966D02*
X470D01*
Y981*
G75*
G02X448Y1025I34J44*
G01*
G75*
G02X559I56*
G01*
G75*
G02X538Y981I-56*
G01*
Y967*
X604*
Y1001*
X637*
Y1013*
G75*
G02X649Y1042I42J0*
G01*
X755Y1148*
Y1218*
X750*
Y1343*
X883*
Y1277*
G75*
G02X904Y1284I21J-27*
G01*
X910*
Y1343*
X983*
X970Y1356*
Y1394*
X982Y1406*
Y1493*
X950Y1460*
Y1443*
X923Y1417*
X885*
X875Y1426*
Y1406*
X848Y1379*
X810*
X783Y1406*
Y1444*
X795Y1456*
Y1577*
X790*
Y1664*
X779*
X764Y1650*
Y1454*
X775Y1444*
Y1406*
X748Y1379*
X714*
Y1354*
X725Y1344*
Y1306*
X698Y1279*
X660*
X633Y1306*
Y1344*
X643Y1354*
Y1710*
G75*
G02X654Y1735I36J0*
G01*
X682Y1763*
G75*
G02X707Y1773I25J-25*
G01*
X1066*
G75*
G02X1091Y1763I0J-36*
G01*
X1141Y1713*
G75*
G02X1149Y1701I-25J-25*
G01*
X1195*
Y1704*
X1160*
X1133Y1731*
Y1769*
X1160Y1796*
X1198*
X1210Y1783*
G75*
G02X1228Y1774I-7J-33*
G01*
X1253Y1749*
G75*
G02X1263Y1725I-24J-24*
G01*
Y1696*
X1345*
Y1710*
G75*
G02X1355Y1734I34J0*
G01*
X1383Y1762*
G75*
G02X1407Y1772I24J-24*
G01*
X1517*
X1525Y1780*
X1355Y1951*
G75*
G02X1352Y1954I24J24*
G01*
X1301*
G75*
G02X1291Y1937I-34J9*
G01*
X1166Y1812*
G75*
G02X1141Y1802I-25J25*
G01*
X708*
X698Y1791*
X660*
X633Y1818*
Y1857*
X660Y1884*
X686*
G75*
G02X682Y1887I21J29*
G01*
X654Y1915*
G75*
G02X643Y1940I25J25*
G01*
Y1946*
X633Y1956*
Y1994*
X660Y2021*
X698*
X706Y2013*
Y2187*
X698Y2179*
X660*
X633Y2206*
Y2244*
X645Y2256*
Y2309*
X601*
X575Y2335*
X571Y2331*
Y2125*
G75*
G02X558Y2095I-42J0*
G01*
X452Y1989*
X510Y1931*
G75*
G02X522Y1900I-31J-31*
G01*
Y1761*
G75*
G02X509Y1730I-44*
G01*
X435Y1657*
Y966*
X558Y1174D02*
X528Y1204D01*
Y1246*
X558Y1276*
X600*
X630Y1246*
Y1204*
X600Y1174*
X558*
X435Y1225D02*
G36*
Y966D01*
X470*
Y981*
G75*
G02X448Y1025I34J44*
G01*
G75*
G02X559I56*
G01*
G75*
G02X538Y981I-56*
G01*
Y967*
X604*
Y1001*
X637*
Y1013*
G75*
G02X649Y1042I42J0*
G01*
X755Y1148*
Y1218*
X750*
Y1225*
X630*
Y1204*
X600Y1174*
X558*
X528Y1204*
Y1225*
X435*
G37*
X528D02*
G36*
Y1246D01*
X558Y1276*
X600*
X630Y1246*
Y1225*
X750*
Y1343*
X883*
Y1277*
G75*
G02X904Y1284I21J-27*
G01*
X910*
Y1343*
X983*
X970Y1356*
Y1394*
X982Y1406*
Y1493*
X950Y1460*
Y1443*
X923Y1417*
X885*
X875Y1426*
Y1406*
X848Y1379*
X810*
X783Y1406*
Y1444*
X795Y1456*
Y1577*
X790*
Y1664*
X779*
X764Y1650*
Y1454*
X775Y1444*
Y1406*
X748Y1379*
X714*
Y1354*
X725Y1344*
Y1306*
X698Y1279*
X660*
X633Y1306*
Y1344*
X643Y1354*
Y1710*
G75*
G02X654Y1735I36J0*
G01*
X682Y1763*
G75*
G02X707Y1773I25J-25*
G01*
X1066*
G75*
G02X1091Y1763I0J-36*
G01*
X1141Y1713*
G75*
G02X1149Y1701I-25J-25*
G01*
X1195*
Y1704*
X1160*
X1133Y1731*
Y1769*
X1160Y1796*
X1198*
X1210Y1783*
G75*
G02X1228Y1774I-7J-33*
G01*
X1253Y1749*
G75*
G02X1263Y1725I-24J-24*
G01*
Y1696*
X1345*
Y1710*
G75*
G02X1355Y1734I34J0*
G01*
X1383Y1762*
G75*
G02X1407Y1772I24J-24*
G01*
X1517*
X1525Y1780*
X1355Y1951*
G75*
G02X1352Y1954I24J24*
G01*
X1301*
G75*
G02X1291Y1937I-34J9*
G01*
X1166Y1812*
G75*
G02X1141Y1802I-25J25*
G01*
X708*
X698Y1791*
X660*
X633Y1818*
Y1857*
X660Y1884*
X686*
G75*
G02X682Y1887I21J29*
G01*
X654Y1915*
G75*
G02X643Y1940I25J25*
G01*
Y1946*
X633Y1956*
Y1994*
X660Y2021*
X698*
X706Y2013*
Y2187*
X698Y2179*
X660*
X633Y2206*
Y2244*
X645Y2256*
Y2309*
X601*
X575Y2335*
X571Y2331*
Y2125*
G75*
G02X558Y2095I-42J0*
G01*
X452Y1989*
X510Y1931*
G75*
G02X522Y1900I-31J-31*
G01*
Y1761*
G75*
G02X509Y1730I-44*
G01*
X435Y1657*
Y1225*
X528*
G37*
X435Y3766D02*
X470D01*
Y3781*
G75*
G02X448Y3825I34J44*
G01*
G75*
G02X559I56*
G01*
G75*
G02X538Y3781I-56*
G01*
Y3767*
X604*
Y3801*
X637*
Y3813*
G75*
G02X649Y3842I42J0*
G01*
X755Y3948*
Y4018*
X750*
Y4143*
X883*
Y4077*
G75*
G02X904Y4084I21J-27*
G01*
X910*
Y4143*
X983*
X970Y4156*
Y4194*
X982Y4206*
Y4293*
X950Y4260*
Y4243*
X923Y4216*
X885*
X875Y4226*
Y4206*
X848Y4179*
X810*
X783Y4206*
Y4244*
X795Y4256*
Y4377*
X790*
Y4464*
X779*
X764Y4450*
Y4254*
X775Y4244*
Y4206*
X748Y4179*
X714*
Y4154*
X725Y4144*
Y4106*
X698Y4079*
X660*
X633Y4106*
Y4144*
X643Y4154*
Y4510*
G75*
G02X654Y4535I36*
G01*
X682Y4563*
G75*
G02X707Y4573I25J-25*
G01*
X1066*
G75*
G02X1091Y4563I0J-36*
G01*
X1141Y4513*
G75*
G02X1149Y4501I-25J-25*
G01*
X1195*
Y4504*
X1160*
X1133Y4531*
Y4569*
X1160Y4596*
X1198*
X1210Y4583*
G75*
G02X1228Y4574I-7J-33*
G01*
X1253Y4549*
G75*
G02X1263Y4525I-24J-24*
G01*
Y4496*
X1345*
Y4510*
G75*
G02X1355Y4534I34*
G01*
X1383Y4562*
G75*
G02X1407Y4572I24J-24*
G01*
X1517*
X1525Y4580*
X1355Y4751*
G75*
G02X1352Y4754I24J24*
G01*
X1301*
G75*
G02X1291Y4737I-34J9*
G01*
X1166Y4612*
G75*
G02X1141Y4602I-25J25*
G01*
X708*
X698Y4592*
X660*
X633Y4618*
Y4657*
X660Y4684*
X686*
G75*
G02X682Y4687I21J29*
G01*
X654Y4715*
G75*
G02X643Y4740I25J25*
G01*
Y4746*
X633Y4756*
Y4794*
X660Y4821*
X698*
X706Y4813*
Y4987*
X698Y4979*
X660*
X633Y5006*
Y5044*
X645Y5056*
Y5109*
X601*
X575Y5135*
X572Y5132*
Y4925*
G75*
G02X560Y4894I-44J0*
G01*
X453Y4788*
X510Y4731*
G75*
G02X522Y4700I-31J-31*
G01*
Y4561*
G75*
G02X509Y4530I-44*
G01*
X435Y4457*
Y3766*
X558Y3974D02*
X528Y4004D01*
Y4046*
X558Y4076*
X600*
X630Y4046*
Y4004*
X600Y3974*
X558*
X435Y4025D02*
G36*
Y3766D01*
X470*
Y3781*
G75*
G02X448Y3825I34J44*
G01*
G75*
G02X559I56*
G01*
G75*
G02X538Y3781I-56*
G01*
Y3767*
X604*
Y3801*
X637*
Y3813*
G75*
G02X649Y3842I42J0*
G01*
X755Y3948*
Y4018*
X750*
Y4025*
X630*
Y4004*
X600Y3974*
X558*
X528Y4004*
Y4025*
X435*
G37*
X528D02*
G36*
Y4046D01*
X558Y4076*
X600*
X630Y4046*
Y4025*
X750*
Y4143*
X883*
Y4077*
G75*
G02X904Y4084I21J-27*
G01*
X910*
Y4143*
X983*
X970Y4156*
Y4194*
X982Y4206*
Y4293*
X950Y4260*
Y4243*
X923Y4216*
X885*
X875Y4226*
Y4206*
X848Y4179*
X810*
X783Y4206*
Y4244*
X795Y4256*
Y4377*
X790*
Y4464*
X779*
X764Y4450*
Y4254*
X775Y4244*
Y4206*
X748Y4179*
X714*
Y4154*
X725Y4144*
Y4106*
X698Y4079*
X660*
X633Y4106*
Y4144*
X643Y4154*
Y4510*
G75*
G02X654Y4535I36*
G01*
X682Y4563*
G75*
G02X707Y4573I25J-25*
G01*
X1066*
G75*
G02X1091Y4563I0J-36*
G01*
X1141Y4513*
G75*
G02X1149Y4501I-25J-25*
G01*
X1195*
Y4504*
X1160*
X1133Y4531*
Y4569*
X1160Y4596*
X1198*
X1210Y4583*
G75*
G02X1228Y4574I-7J-33*
G01*
X1253Y4549*
G75*
G02X1263Y4525I-24J-24*
G01*
Y4496*
X1345*
Y4510*
G75*
G02X1355Y4534I34*
G01*
X1383Y4562*
G75*
G02X1407Y4572I24J-24*
G01*
X1517*
X1525Y4580*
X1355Y4751*
G75*
G02X1352Y4754I24J24*
G01*
X1301*
G75*
G02X1291Y4737I-34J9*
G01*
X1166Y4612*
G75*
G02X1141Y4602I-25J25*
G01*
X708*
X698Y4592*
X660*
X633Y4618*
Y4657*
X660Y4684*
X686*
G75*
G02X682Y4687I21J29*
G01*
X654Y4715*
G75*
G02X643Y4740I25J25*
G01*
Y4746*
X633Y4756*
Y4794*
X660Y4821*
X698*
X706Y4813*
Y4987*
X698Y4979*
X660*
X633Y5006*
Y5044*
X645Y5056*
Y5109*
X601*
X575Y5135*
X572Y5132*
Y4925*
G75*
G02X560Y4894I-44J0*
G01*
X453Y4788*
X510Y4731*
G75*
G02X522Y4700I-31J-31*
G01*
Y4561*
G75*
G02X509Y4530I-44*
G01*
X435Y4457*
Y4025*
X528*
G37*
X679Y913D02*
X804Y788D01*
Y513*
X1004Y288*
X1316*
X679Y925D02*
X504D01*
X679Y3713D02*
X804Y3588D01*
Y3313*
X1004Y3088*
X1316*
X679Y3725D02*
X504D01*
X726Y1001D02*
X754D01*
Y897*
X833Y817*
G75*
G02X846Y788I-30J-30*
G01*
Y765*
G75*
G02X918Y759I33J-40*
G01*
X1012*
G75*
G02X1104Y745I42J-34*
G01*
G75*
G02X1204I50J-20*
G01*
G75*
G02X1304I50J-20*
G01*
G75*
G02X1372Y775I50J-20*
G01*
G75*
G02X1351Y799I31J50*
G01*
G75*
G02X1254Y805I-47J26*
G01*
G75*
G02X1154I-50J20*
G01*
G75*
G02X1050Y825I-50J20*
G01*
G75*
G02X1154Y845I54*
G01*
G75*
G02X1170Y867I50J-20*
G01*
Y898*
X1015Y1054*
X935*
G75*
G02X840Y1082I-43J29*
G01*
G75*
G02X850Y1112I52*
G01*
X838*
X726Y1001*
G36*
X754*
Y897*
X833Y817*
G75*
G02X846Y788I-30J-30*
G01*
Y765*
G75*
G02X918Y759I33J-40*
G01*
X1012*
G75*
G02X1104Y745I42J-34*
G01*
G75*
G02X1204I50J-20*
G01*
G75*
G02X1304I50J-20*
G01*
G75*
G02X1372Y775I50J-20*
G01*
G75*
G02X1351Y799I31J50*
G01*
G75*
G02X1254Y805I-47J26*
G01*
G75*
G02X1154I-50J20*
G01*
G75*
G02X1050Y825I-50J20*
G01*
G75*
G02X1154Y845I54*
G01*
G75*
G02X1170Y867I50J-20*
G01*
Y898*
X1015Y1054*
X935*
G75*
G02X840Y1082I-43J29*
G01*
G75*
G02X850Y1112I52*
G01*
X838*
X726Y1001*
G37*
Y3801D02*
X754D01*
Y3697*
X833Y3617*
G75*
G02X846Y3588I-30J-30*
G01*
Y3565*
G75*
G02X918Y3559I33J-40*
G01*
X1012*
G75*
G02X1104Y3545I42J-34*
G01*
G75*
G02X1204I50J-20*
G01*
G75*
G02X1304I50J-20*
G01*
G75*
G02X1372Y3575I50J-20*
G01*
G75*
G02X1351Y3599I31J50*
G01*
G75*
G02X1254Y3605I-47J26*
G01*
G75*
G02X1154I-50J20*
G01*
G75*
G02X1050Y3625I-50J20*
G01*
G75*
G02X1154Y3645I54*
G01*
G75*
G02X1170Y3667I50J-20*
G01*
Y3698*
X1015Y3853*
X935*
G75*
G02X840Y3882I-43J29*
G01*
G75*
G02X850Y3912I52*
G01*
X838*
X726Y3801*
G36*
X754*
Y3697*
X833Y3617*
G75*
G02X846Y3588I-30J-30*
G01*
Y3565*
G75*
G02X918Y3559I33J-40*
G01*
X1012*
G75*
G02X1104Y3545I42J-34*
G01*
G75*
G02X1204I50J-20*
G01*
G75*
G02X1304I50J-20*
G01*
G75*
G02X1372Y3575I50J-20*
G01*
G75*
G02X1351Y3599I31J50*
G01*
G75*
G02X1254Y3605I-47J26*
G01*
G75*
G02X1154I-50J20*
G01*
G75*
G02X1050Y3625I-50J20*
G01*
G75*
G02X1154Y3645I54*
G01*
G75*
G02X1170Y3667I50J-20*
G01*
Y3698*
X1015Y3853*
X935*
G75*
G02X840Y3882I-43J29*
G01*
G75*
G02X850Y3912I52*
G01*
X838*
X726Y3801*
G37*
X816Y1150D02*
X679Y1013D01*
Y925*
X816Y3950D02*
X679Y3813D01*
Y3725*
X829Y2088D02*
Y2013D01*
Y4888D02*
Y4813D01*
X1026Y1226D02*
G75*
G02X1028Y1224I-22J-26D01*
G01*
X1053Y1199*
G75*
G02X1063Y1175I-24J-24*
G01*
Y1102*
X1228Y937*
G75*
G02X1238Y913I-24J-24*
G01*
Y867*
G75*
G02X1254Y845I-34J-42*
G01*
G75*
G02X1351Y851I50J-20*
G01*
G75*
G02X1457Y849I53J-26*
G01*
Y1129*
X1422*
X1397Y1154*
X1377*
X1400Y1132*
Y1093*
X1373Y1067*
X1335*
X1325Y1077*
G75*
G02X1240Y1066I-46J23*
G01*
X1191*
G75*
G02X1157Y1100J34*
G01*
Y1112*
X1131*
Y1329*
G75*
G02X1152Y1394I47J21*
G01*
X1134*
Y1390*
X1062*
Y1356*
X1035Y1329*
X1031*
Y1257*
X1026*
Y1226*
G36*
G75*
G02X1028Y1224I-22J-26*
G01*
X1053Y1199*
G75*
G02X1063Y1175I-24J-24*
G01*
Y1102*
X1228Y937*
G75*
G02X1238Y913I-24J-24*
G01*
Y867*
G75*
G02X1254Y845I-34J-42*
G01*
G75*
G02X1351Y851I50J-20*
G01*
G75*
G02X1457Y849I53J-26*
G01*
Y1129*
X1422*
X1397Y1154*
X1377*
X1400Y1132*
Y1093*
X1373Y1067*
X1335*
X1325Y1077*
G75*
G02X1240Y1066I-46J23*
G01*
X1191*
G75*
G02X1157Y1100J34*
G01*
Y1112*
X1131*
Y1329*
G75*
G02X1152Y1394I47J21*
G01*
X1134*
Y1390*
X1062*
Y1356*
X1035Y1329*
X1031*
Y1257*
X1026*
Y1226*
G37*
Y4026D02*
G75*
G02X1028Y4024I-22J-26D01*
G01*
X1053Y3999*
G75*
G02X1063Y3975I-24J-24*
G01*
Y3902*
X1228Y3737*
G75*
G02X1238Y3713I-24J-24*
G01*
Y3667*
G75*
G02X1254Y3645I-34J-42*
G01*
G75*
G02X1351Y3651I50J-20*
G01*
G75*
G02X1457Y3649I53J-26*
G01*
Y3929*
X1422*
X1397Y3954*
X1377*
X1400Y3932*
Y3893*
X1373Y3867*
X1335*
X1325Y3877*
G75*
G02X1240Y3866I-46J23*
G01*
X1191*
G75*
G02X1157Y3900J34*
G01*
Y3912*
X1131*
Y4129*
G75*
G02X1152Y4194I47J21*
G01*
X1134*
Y4190*
X1062*
Y4156*
X1035Y4129*
X1031*
Y4057*
X1026*
Y4026*
G36*
G75*
G02X1028Y4024I-22J-26*
G01*
X1053Y3999*
G75*
G02X1063Y3975I-24J-24*
G01*
Y3902*
X1228Y3737*
G75*
G02X1238Y3713I-24J-24*
G01*
Y3667*
G75*
G02X1254Y3645I-34J-42*
G01*
G75*
G02X1351Y3651I50J-20*
G01*
G75*
G02X1457Y3649I53J-26*
G01*
Y3929*
X1422*
X1397Y3954*
X1377*
X1400Y3932*
Y3893*
X1373Y3867*
X1335*
X1325Y3877*
G75*
G02X1240Y3866I-46J23*
G01*
X1191*
G75*
G02X1157Y3900J34*
G01*
Y3912*
X1131*
Y4129*
G75*
G02X1152Y4194I47J21*
G01*
X1134*
Y4190*
X1062*
Y4156*
X1035Y4129*
X1031*
Y4057*
X1026*
Y4026*
G37*
X1279Y1484D02*
X1367D01*
X1358Y1493*
Y1510*
X1325Y1543*
G75*
G02X1279Y1515I-46J24*
G01*
Y1484*
G36*
X1367*
X1358Y1493*
Y1510*
X1325Y1543*
G75*
G02X1279Y1515I-46J24*
G01*
Y1484*
G37*
Y4284D02*
X1367D01*
X1358Y4293*
Y4310*
X1325Y4344*
G75*
G02X1279Y4315I-46J23*
G01*
Y4284*
G36*
X1367*
X1358Y4293*
Y4310*
X1325Y4344*
G75*
G02X1279Y4315I-46J23*
G01*
Y4284*
G37*
X1316Y288D02*
X1429Y200D01*
X1316Y288D02*
Y688D01*
X1354Y725*
X1316Y3088D02*
X1429Y3000D01*
X1316Y3088D02*
Y3488D01*
X1354Y3525*
X1391Y725D02*
X1354D01*
X1391Y3525D02*
X1354D01*
X1816Y2038D02*
Y1450D01*
X1941Y1325*
X1816Y4838D02*
Y4250D01*
X1941Y4125*
X1887Y2157D02*
X1913D01*
G75*
G02X1907Y2175I29J18*
G01*
Y2181*
X1895Y2193*
Y2232*
X1922Y2259*
X1945*
Y2294*
X1960Y2309*
X1951*
X1925Y2335*
X1904Y2314*
X1888*
Y2163*
G75*
G02X1887Y2157I-34J0*
G01*
G36*
X1913*
G75*
G02X1907Y2175I29J18*
G01*
Y2181*
X1895Y2193*
Y2232*
X1922Y2259*
X1945*
Y2294*
X1960Y2309*
X1951*
X1925Y2335*
X1904Y2314*
X1888*
Y2163*
G75*
G02X1887Y2157I-34J0*
G01*
G37*
X1889Y4957D02*
X1913D01*
G75*
G02X1907Y4975I29J18*
G01*
Y4981*
X1895Y4993*
Y5032*
X1922Y5059*
X1945*
Y5094*
X1960Y5109*
X1951*
X1925Y5135*
X1904Y5114*
X1889*
Y4962*
G75*
G02X1889Y4957I-36*
G01*
G36*
X1913*
G75*
G02X1907Y4975I29J18*
G01*
Y4981*
X1895Y4993*
Y5032*
X1922Y5059*
X1945*
Y5094*
X1960Y5109*
X1951*
X1925Y5135*
X1904Y5114*
X1889*
Y4962*
G75*
G02X1889Y4957I-36*
G01*
G37*
X1891Y1875D02*
X1899D01*
X1891Y4675D02*
X1899D01*
X2029Y1975D02*
Y2038D01*
X1916*
X2029Y4775D02*
Y4838D01*
X1916*
X2054Y1325D02*
X1950D01*
X2054Y4125D02*
X1950D01*
X2071Y1990D02*
G75*
G02X2081Y1988I0J-20D01*
G01*
X2090*
G75*
G02X2116Y1981I10J-18*
G01*
Y1988*
X2212*
Y1984*
X2254*
X2270Y1999*
Y2032*
X2157*
Y2268*
X2270*
Y2348*
X2177Y2441*
X2096*
G75*
G02X2096Y2438I-55J-3*
G01*
G75*
G02X2096Y2436I-55J0*
G01*
X2104*
X2140Y2400*
Y2374*
X2143Y2371*
G75*
G02X2156Y2341I-29J-30*
G01*
Y2104*
G75*
G02X2140Y2070I-42*
G01*
X2071Y2017*
Y1990*
G36*
G75*
G02X2081Y1988I0J-20*
G01*
X2090*
G75*
G02X2116Y1981I10J-18*
G01*
Y1988*
X2212*
Y1984*
X2254*
X2270Y1999*
Y2032*
X2157*
Y2268*
X2270*
Y2348*
X2177Y2441*
X2096*
G75*
G02X2096Y2438I-55J-3*
G01*
G75*
G02X2096Y2436I-55J0*
G01*
X2104*
X2140Y2400*
Y2374*
X2143Y2371*
G75*
G02X2156Y2341I-29J-30*
G01*
Y2104*
G75*
G02X2140Y2070I-42*
G01*
X2071Y2017*
Y1990*
G37*
Y4790D02*
G75*
G02X2081Y4788I0J-20D01*
G01*
X2090*
G75*
G02X2116Y4781I10J-18*
G01*
Y4788*
X2212*
Y4784*
X2254*
X2270Y4799*
Y4832*
X2157*
Y5068*
X2270*
Y5148*
X2177Y5250*
X2104*
G75*
G02X2096Y5237I-199J111*
G01*
G75*
G02X2096Y5236I-55J0*
G01*
X2104*
X2140Y5200*
Y5174*
X2143Y5171*
G75*
G02X2156Y5141I-29J-30*
G01*
Y4904*
G75*
G02X2140Y4870I-42*
G01*
X2071Y4817*
Y4790*
G36*
G75*
G02X2081Y4788I0J-20*
G01*
X2090*
G75*
G02X2116Y4781I10J-18*
G01*
Y4788*
X2212*
Y4784*
X2254*
X2270Y4799*
Y4832*
X2157*
Y5068*
X2270*
Y5148*
X2177Y5250*
X2104*
G75*
G02X2096Y5237I-199J111*
G01*
G75*
G02X2096Y5236I-55J0*
G01*
X2104*
X2140Y5200*
Y5174*
X2143Y5171*
G75*
G02X2156Y5141I-29J-30*
G01*
Y4904*
G75*
G02X2140Y4870I-42*
G01*
X2071Y4817*
Y4790*
G37*
X2079Y2375D02*
X2114Y2341D01*
Y2104*
X2029Y2038*
X2079Y5175D02*
X2114Y5141D01*
Y4904*
X2029Y4838*
X2729Y1925D02*
Y1563D01*
X2679Y1513*
X2729Y4725D02*
Y4363D01*
X2679Y4313*
X3079Y2675D02*
Y75D01*
X5879*
Y2675*
X3079*
X3165Y161D02*
Y389D01*
X3393*
Y161*
X3165*
X3173Y1831D02*
X3141Y1862D01*
G75*
G02X3131Y1888I25J25*
G01*
Y2128*
G75*
G02X3141Y2153I36J0*
G01*
X3349Y2361*
X3165*
Y2589*
X3393*
Y2439*
X3504Y2550*
G75*
G02X3529Y2561I25J-25*
G01*
X4316*
G75*
G02X4341Y2550I0J-36*
G01*
X4466Y2425*
G75*
G02X4477Y2400I-25J-25*
G01*
Y2230*
G75*
G02X4466Y2205I-36J0*
G01*
X4449Y2187*
G75*
G02X4424Y2177I-25J25*
G01*
X4306*
X4263Y2134*
X4285*
X4300Y2119*
G75*
G02X4302Y2121I29J-19*
G01*
G75*
G02X4302Y2125I51J4*
G01*
G75*
G02X4391Y2160I52*
G01*
G75*
G02X4480Y2125I38J-35*
G01*
G75*
G02X4463Y2086I-52*
G01*
Y2073*
X4468*
X4478*
X4720Y2314*
X4718*
Y2436*
X4743*
Y2467*
G75*
G02X4754Y2493I36*
G01*
X4799Y2538*
G75*
G02X4824Y2548I25J-25*
G01*
X5204*
G75*
G02X5229Y2538J-36*
G01*
X5366Y2400*
G75*
G02X5377Y2375I-25J-25*
G01*
Y1920*
G75*
G02X5366Y1895I-36*
G01*
X5321Y1850*
G75*
G02X5296Y1840I-25J25*
G01*
X5212*
Y1837*
X5116*
Y1912*
Y1913*
Y1927*
G75*
G02X5106Y1919I-17J11*
G01*
Y1870*
X5101*
Y1837*
X5061*
X5080Y1819*
Y1797*
X5170Y1684*
X5408*
G75*
G02X5432Y1674I0J-34*
G01*
X5503Y1603*
G75*
G02X5513Y1579I-24J-24*
G01*
Y1560*
X5534*
Y1493*
Y1457*
Y1413*
X5574*
X5583*
X5623*
Y1457*
Y1493*
Y1560*
X5667*
X5687Y1580*
Y1864*
X5668*
Y1986*
X5674*
X5663Y1998*
Y2052*
X5689Y2079*
X5668Y2100*
Y2150*
X5689Y2171*
X5663Y2198*
Y2252*
X5701Y2291*
X5756*
X5795Y2252*
Y2198*
X5769Y2171*
X5790Y2150*
Y2112*
X5815Y2087*
G75*
G02X5825Y2063I-24J-24*
G01*
Y919*
X5837Y907*
Y868*
X5810Y842*
X5772*
X5745Y868*
Y907*
X5757Y919*
Y982*
X5588*
X5569*
X5388*
X5369*
X5169*
Y1201*
X5369*
X5388*
X5569*
X5588*
X5757*
Y1204*
X5583*
X5574*
X5383*
X5374*
X5174*
Y1413*
X5223*
Y1457*
Y1479*
X5022*
X5010Y1466*
X4972*
X4945Y1493*
Y1532*
X4972Y1559*
X5010*
X5022Y1547*
X5223*
Y1560*
X5334*
Y1493*
Y1457*
Y1413*
X5374*
X5383*
X5423*
Y1457*
Y1493*
Y1560*
X5445*
Y1565*
X5394Y1616*
X5154*
G75*
G02X5127Y1629J34*
G01*
X5027Y1754*
X5015*
X4988Y1780*
Y1817*
X4948*
X4910*
X4858*
Y1467*
X4959Y1367*
X5008*
Y1381*
X5099*
Y1319*
X5104*
Y1214*
X5021*
Y1131*
X5016*
Y1114*
Y1109*
X5048*
X5060Y1121*
X5098*
X5125Y1094*
Y1056*
X5098Y1029*
X5060*
X5048Y1041*
X5016*
Y1036*
Y1013*
X5016Y1013*
G75*
G02X5027Y988I-25J-25*
G01*
Y871*
G75*
G02X5104Y845I27J-46*
G01*
G75*
G02X5204I50J-20*
G01*
G75*
G02X5301Y851I50J-20*
G01*
G75*
G02X5412Y825I53J-26*
G01*
G75*
G02X5333Y770I-59*
G01*
G75*
G02X5357Y725I-29J-45*
G01*
G75*
G02X5254Y705I-54*
G01*
G75*
G02X5200Y671I-50J20*
G01*
X5166Y637*
G75*
G02X5141Y627I-25J25*
G01*
X4980*
X4912Y559*
G75*
G02X5048Y475I42J-84*
G01*
G75*
G02X4867Y438I-94*
G01*
G75*
G02X4866Y437I-26J24*
G01*
X4830Y401*
G75*
G02X4830Y400I-52J-1*
G01*
G75*
G02X4727I-52*
G01*
G75*
G02X4780Y452I52*
G01*
X4806Y477*
Y539*
G75*
G02X4816Y564I36J0*
G01*
X4940Y688*
G75*
G02X4958Y697I25J-25*
G01*
G75*
G02X4950Y725I46J28*
G01*
G75*
G02X4956Y749I54*
G01*
Y973*
X4942Y986*
X4884*
Y1036*
Y1064*
Y1086*
Y1114*
Y1131*
X4879*
Y1219*
X4884*
Y1231*
X4879*
Y1319*
X4884*
Y1323*
X4787Y1420*
G75*
G02X4774Y1450I30J30*
G01*
Y1990*
X4748*
Y2014*
X4723*
Y1998*
X4612*
Y2065*
Y2101*
Y2110*
X4518Y2016*
Y1954*
X4498*
X4728Y1724*
G75*
G02X4738Y1700I-24J-24*
G01*
Y1445*
X4803Y1380*
G75*
G02X4813Y1356I-24J-24*
G01*
Y1250*
G75*
G02X4803Y1226I-34J0*
G01*
X4778Y1201*
G75*
G02X4774Y1198I-24J24*
G01*
Y1186*
Y1171*
X4810*
X4837Y1144*
Y1106*
X4810Y1079*
X4774*
Y1069*
X4779*
Y981*
X4637*
Y1041*
X4618*
G75*
G02X4608Y1032I-39J34*
G01*
G75*
G02X4603Y1026I-29J18*
G01*
X4587Y1010*
Y993*
X4560Y967*
X4525*
Y864*
X4562*
X4582Y844*
X4597Y859*
X4635*
Y866*
X4773*
Y750*
X4635*
Y766*
X4597*
X4582Y781*
X4562Y761*
X4520*
X4498Y784*
X4433Y718*
G75*
G02X4391Y683I-41J7*
G01*
X4387*
G75*
G02X4360Y672I-33J42*
G01*
X4358Y670*
Y308*
X4438Y246*
X4448*
X4475Y219*
Y181*
X4448Y154*
X4410*
X4383Y181*
Y183*
X4302Y246*
X4004*
G75*
G02X3972Y260I0J42*
G01*
X3772Y485*
G75*
G02X3762Y513I31J28*
G01*
Y770*
X3759Y773*
Y644*
X3599*
Y807*
X3725*
X3684Y848*
X3604*
Y883*
X3571*
Y875*
Y866*
Y789*
X3576*
Y679*
X3426*
Y783*
X3403*
G75*
G02X3379I-12J42*
G01*
X3371*
Y655*
X3508*
Y495*
X3369*
Y500*
X3254*
Y533*
X3240*
G75*
G02X3148Y575I-36J42*
G01*
G75*
G02X3240Y617I56*
G01*
X3254*
Y650*
X3287*
Y728*
X3187*
Y922*
X3326*
Y869*
G75*
G02X3341Y867I3J-44*
G01*
X3348*
Y1675*
G75*
G02X3361Y1706I44*
G01*
X3435Y1779*
Y1882*
X3390Y1927*
X3385Y1922*
Y1902*
X3364Y1881*
X3385*
Y1769*
X3273*
Y1790*
X3252Y1769*
X3206*
X3173Y1802*
Y1831*
X3181Y1614D02*
X3168D01*
Y1736*
X3290*
Y1614*
X3276*
X3290Y1600*
Y1550*
X3265Y1525*
X3290Y1500*
Y1450*
X3265Y1425*
X3290Y1400*
Y1350*
X3265Y1325*
X3290Y1300*
Y1250*
X3269Y1229*
X3295Y1202*
Y1148*
X3256Y1109*
X3201*
X3163Y1148*
Y1202*
X3189Y1229*
X3168Y1250*
Y1300*
X3192Y1325*
X3168Y1350*
Y1400*
X3192Y1425*
X3168Y1450*
Y1500*
X3192Y1525*
X3168Y1550*
Y1600*
X3181Y1614*
X4360Y475D02*
G75*
G02X4548I94D01*
G01*
G75*
G02X4360I-94*
G01*
X4778Y579D02*
X4630D01*
Y705*
X4778*
Y579*
X5310Y475D02*
G75*
G02X5498I94D01*
G01*
G75*
G02X5310I-94*
G01*
X5375Y170D02*
G75*
G02X5349Y196J26D01*
G01*
Y252*
G75*
G02X5375Y278I26*
G01*
X5503*
G75*
G02X5529Y252J-26*
G01*
Y196*
G75*
G02X5503Y170I-26*
G01*
X5375*
X5565Y161D02*
Y389D01*
X5793*
Y161*
X5565*
Y2361D02*
Y2589D01*
X5793*
Y2361*
X5565*
X3079Y275D02*
G36*
Y75D01*
X5879*
Y275*
X5793*
Y161*
X5565*
Y275*
X5515*
G75*
G02X5529Y252I-12J-23*
G01*
Y196*
G75*
G02X5503Y170I-26*
G01*
X5375*
G75*
G02X5349Y196J26*
G01*
Y252*
G75*
G02X5363Y275I26*
G01*
X4401*
X4438Y246*
X4448*
X4475Y219*
Y181*
X4448Y154*
X4410*
X4383Y181*
Y183*
X4302Y246*
X4004*
G75*
G02X3972Y260I0J42*
G01*
X3959Y275*
X3393*
Y161*
X3165*
Y275*
X3079*
G37*
X3165D02*
G36*
Y389D01*
X3393*
Y275*
X3959*
X3781Y475*
X3079*
Y275*
X3165*
G37*
X5363D02*
G36*
G75*
G02X5375Y278I12J-23D01*
G01*
X5503*
G75*
G02X5515Y275J-26*
G01*
X5565*
Y389*
X5793*
Y275*
X5879*
Y475*
X5498*
G75*
G02X5310I-94*
G01*
X5048*
G75*
G02X4867Y438I-94*
G01*
G75*
G02X4866Y437I-26J24*
G01*
X4830Y401*
G75*
G02X4830Y400I-52J-1*
G01*
G75*
G02X4727I-52*
G01*
G75*
G02X4780Y452I52*
G01*
X4803Y475*
X4548*
G75*
G02X4360I-94*
G01*
X4358*
Y308*
X4401Y275*
X5363*
G37*
X3079Y1423D02*
G36*
Y642D01*
X3254*
Y650*
X3287*
Y728*
X3187*
Y922*
X3326*
Y869*
G75*
G02X3341Y867I3J-44*
G01*
X3348*
Y1423*
X3268*
X3290Y1400*
Y1350*
X3265Y1325*
X3290Y1300*
Y1250*
X3269Y1229*
X3295Y1202*
Y1148*
X3256Y1109*
X3201*
X3163Y1148*
Y1202*
X3189Y1229*
X3168Y1250*
Y1300*
X3192Y1325*
X3168Y1350*
Y1400*
X3190Y1423*
X3079*
G37*
X3190D02*
G36*
X3192Y1425D01*
X3168Y1450*
Y1500*
X3192Y1525*
X3168Y1550*
Y1600*
X3181Y1614*
X3168*
Y1736*
X3290*
Y1614*
X3276*
X3290Y1600*
Y1550*
X3265Y1525*
X3290Y1500*
Y1450*
X3265Y1425*
X3268Y1423*
X3348*
Y1675*
G75*
G02X3361Y1706I44*
G01*
X3435Y1779*
Y1882*
X3390Y1927*
X3385Y1922*
Y1902*
X3364Y1881*
X3385*
Y1769*
X3273*
Y1790*
X3252Y1769*
X3206*
X3173Y1802*
Y1831*
X3141Y1862*
G75*
G02X3131Y1888I25J25*
G01*
Y2128*
G75*
G02X3141Y2153I36J0*
G01*
X3349Y2361*
X3165*
Y2475*
X3079*
Y1423*
X3190*
G37*
X5825D02*
G36*
Y919D01*
X5837Y907*
Y868*
X5810Y842*
X5772*
X5745Y868*
Y907*
X5757Y919*
Y982*
X5169*
Y1201*
X5757*
Y1204*
X5174*
Y1413*
X5223*
Y1479*
X5022*
X5010Y1466*
X4972*
X4945Y1493*
Y1532*
X4972Y1559*
X5010*
X5022Y1547*
X5223*
Y1560*
X5334*
Y1413*
X5423*
Y1560*
X5445*
Y1565*
X5394Y1616*
X5154*
G75*
G02X5127Y1629J34*
G01*
X5027Y1754*
X5015*
X4988Y1780*
Y1817*
X4858*
Y1467*
X4959Y1367*
X5008*
Y1381*
X5099*
Y1319*
X5104*
Y1214*
X5021*
Y1131*
X5016*
Y1109*
X5048*
X5060Y1121*
X5098*
X5125Y1094*
Y1056*
X5098Y1029*
X5060*
X5048Y1041*
X5016*
Y1013*
X5016Y1013*
G75*
G02X5027Y988I-25J-25*
G01*
Y871*
G75*
G02X5104Y845I27J-46*
G01*
G75*
G02X5204I50J-20*
G01*
G75*
G02X5301Y851I50J-20*
G01*
G75*
G02X5412Y825I53J-26*
G01*
G75*
G02X5333Y770I-59*
G01*
G75*
G02X5357Y725I-29J-45*
G01*
G75*
G02X5254Y705I-54*
G01*
G75*
G02X5200Y671I-50J20*
G01*
X5171Y642*
X5879*
Y1423*
X5825*
G37*
X5879D02*
G36*
Y2475D01*
X5793*
Y2361*
X5565*
Y2475*
X5292*
X5366Y2400*
G75*
G02X5377Y2375I-25J-25*
G01*
Y1920*
G75*
G02X5366Y1895I-36*
G01*
X5321Y1850*
G75*
G02X5296Y1840I-25J25*
G01*
X5212*
Y1837*
X5116*
Y1927*
G75*
G02X5106Y1919I-17J11*
G01*
Y1870*
X5101*
Y1837*
X5061*
X5080Y1819*
Y1797*
X5170Y1684*
X5408*
G75*
G02X5432Y1674I0J-34*
G01*
X5503Y1603*
G75*
G02X5513Y1579I-24J-24*
G01*
Y1560*
X5534*
Y1413*
X5623*
Y1560*
X5667*
X5687Y1580*
Y1864*
X5668*
Y1986*
X5674*
X5663Y1998*
Y2052*
X5689Y2079*
X5668Y2100*
Y2150*
X5689Y2171*
X5663Y2198*
Y2252*
X5701Y2291*
X5756*
X5795Y2252*
Y2198*
X5769Y2171*
X5790Y2150*
Y2112*
X5815Y2087*
G75*
G02X5825Y2063I-24J-24*
G01*
Y1423*
X5879*
G37*
X3781Y475D02*
G36*
X3772Y485D01*
G75*
G02X3762Y513I31J28*
G01*
Y770*
X3759Y773*
Y644*
X3599*
Y807*
X3725*
X3684Y848*
X3604*
Y883*
X3571*
Y789*
X3576*
Y679*
X3426*
Y783*
X3403*
G75*
G02X3379I-12J42*
G01*
X3371*
Y655*
X3508*
Y495*
X3369*
Y500*
X3254*
Y533*
X3240*
G75*
G02X3148Y575I-36J42*
G01*
G75*
G02X3240Y617I56*
G01*
X3254*
Y642*
X3079*
Y475*
X3781*
G37*
X4360D02*
G36*
G75*
G02X4548I94D01*
G01*
X4803*
X4806Y477*
Y539*
G75*
G02X4816Y564I36J0*
G01*
X4894Y642*
X4778*
Y579*
X4630*
Y642*
X4358*
Y475*
X4360*
G37*
X5310D02*
G36*
G75*
G02X5498I94D01*
G01*
X5879*
Y642*
X5171*
X5166Y637*
G75*
G02X5141Y627I-25J25*
G01*
X4980*
X4912Y559*
G75*
G02X5048Y475I42J-84*
G01*
X5310*
G37*
X4630Y642D02*
G36*
Y705D01*
X4778*
Y642*
X4894*
X4940Y688*
G75*
G02X4958Y697I25J-25*
G01*
G75*
G02X4956Y749I46J28*
G01*
Y973*
X4942Y986*
X4884*
Y1131*
X4879*
Y1219*
X4884*
Y1231*
X4879*
Y1319*
X4884*
Y1323*
X4787Y1420*
G75*
G02X4774Y1450I30J30*
G01*
Y1990*
X4748*
Y2014*
X4723*
Y1998*
X4612*
Y2110*
X4518Y2016*
Y1954*
X4498*
X4728Y1724*
G75*
G02X4738Y1700I-24J-24*
G01*
Y1445*
X4803Y1380*
G75*
G02X4813Y1356I-24J-24*
G01*
Y1250*
G75*
G02X4803Y1226I-34J0*
G01*
X4778Y1201*
G75*
G02X4774Y1198I-24J24*
G01*
Y1171*
X4810*
X4837Y1144*
Y1106*
X4810Y1079*
X4774*
Y1069*
X4779*
Y981*
X4637*
Y1041*
X4618*
G75*
G02X4608Y1032I-39J34*
G01*
G75*
G02X4603Y1026I-29J18*
G01*
X4587Y1010*
Y993*
X4560Y967*
X4525*
Y864*
X4562*
X4582Y844*
X4597Y859*
X4635*
Y866*
X4773*
Y750*
X4635*
Y766*
X4597*
X4582Y781*
X4562Y761*
X4520*
X4498Y784*
X4433Y718*
G75*
G02X4391Y683I-41J7*
G01*
X4387*
G75*
G02X4360Y672I-33J42*
G01*
X4358Y670*
Y642*
X4630*
G37*
X3165Y2475D02*
G36*
Y2589D01*
X3393*
Y2439*
X3504Y2550*
G75*
G02X3529Y2561I25J-25*
G01*
X4316*
G75*
G02X4341Y2550I0J-36*
G01*
X4466Y2425*
G75*
G02X4477Y2400I-25J-25*
G01*
Y2230*
G75*
G02X4466Y2205I-36J0*
G01*
X4449Y2187*
G75*
G02X4424Y2177I-25J25*
G01*
X4306*
X4263Y2134*
X4285*
X4300Y2119*
G75*
G02X4302Y2121I29J-19*
G01*
G75*
G02X4302Y2125I51J4*
G01*
G75*
G02X4391Y2160I52*
G01*
G75*
G02X4480Y2125I38J-35*
G01*
G75*
G02X4463Y2086I-52*
G01*
Y2073*
X4478*
X4720Y2314*
X4718*
Y2436*
X4743*
Y2467*
G75*
G02X4754Y2493I36*
G01*
X4799Y2538*
G75*
G02X4824Y2548I25J-25*
G01*
X5204*
G75*
G02X5229Y2538J-36*
G01*
X5292Y2475*
X5565*
Y2589*
X5793*
Y2475*
X5879*
Y2675*
X3079*
Y2475*
X3165*
G37*
X3079Y5475D02*
Y2875D01*
X5879*
Y5475*
X3079*
X3165Y2961D02*
Y3189D01*
X3393*
Y2961*
X3165*
X3173Y4631D02*
X3141Y4662D01*
G75*
G02X3131Y4687I25J25*
G01*
Y4928*
G75*
G02X3141Y4953I36*
G01*
X3349Y5161*
X3165*
Y5389*
X3393*
Y5239*
X3504Y5350*
G75*
G02X3529Y5361I25J-25*
G01*
X4316*
G75*
G02X4341Y5350I0J-36*
G01*
X4466Y5225*
G75*
G02X4477Y5200I-25J-25*
G01*
Y5030*
G75*
G02X4466Y5005I-36J0*
G01*
X4449Y4987*
G75*
G02X4424Y4977I-25J25*
G01*
X4306*
X4263Y4934*
X4285*
X4300Y4919*
G75*
G02X4302Y4921I29J-19*
G01*
G75*
G02X4302Y4925I51J4*
G01*
G75*
G02X4391Y4960I52*
G01*
G75*
G02X4480Y4925I38J-35*
G01*
G75*
G02X4463Y4886I-52*
G01*
Y4873*
X4468*
X4478*
X4720Y5114*
X4718*
Y5236*
X4743*
Y5267*
G75*
G02X4754Y5293I36J0*
G01*
X4799Y5338*
G75*
G02X4824Y5348I25J-25*
G01*
X5204*
G75*
G02X5229Y5338I0J-36*
G01*
X5366Y5200*
G75*
G02X5377Y5175I-25J-25*
G01*
Y4720*
G75*
G02X5366Y4695I-36J0*
G01*
X5321Y4650*
G75*
G02X5296Y4640I-25J25*
G01*
X5212*
Y4637*
X5116*
Y4712*
Y4713*
Y4727*
G75*
G02X5106Y4719I-17J11*
G01*
Y4670*
X5101*
Y4637*
X5061*
X5080Y4619*
Y4596*
X5170Y4484*
X5408*
G75*
G02X5432Y4474I0J-34*
G01*
X5503Y4403*
G75*
G02X5513Y4379I-24J-24*
G01*
Y4360*
X5534*
Y4293*
Y4257*
Y4213*
X5574*
X5583*
X5623*
Y4257*
Y4293*
Y4360*
X5667*
X5687Y4380*
Y4664*
X5668*
Y4786*
X5674*
X5663Y4798*
Y4852*
X5689Y4879*
X5668Y4900*
Y4950*
X5689Y4971*
X5663Y4998*
Y5052*
X5701Y5091*
X5756*
X5795Y5052*
Y4998*
X5769Y4971*
X5790Y4950*
Y4912*
X5815Y4887*
G75*
G02X5825Y4863I-24J-24*
G01*
Y3719*
X5837Y3707*
Y3668*
X5810Y3642*
X5772*
X5745Y3668*
Y3707*
X5757Y3719*
Y3782*
X5588*
X5569*
X5388*
X5369*
X5169*
Y4001*
X5369*
X5388*
X5569*
X5588*
X5757*
Y4004*
X5583*
X5574*
X5383*
X5374*
X5174*
Y4213*
X5223*
Y4257*
Y4279*
X5022*
X5010Y4267*
X4972*
X4945Y4293*
Y4332*
X4972Y4359*
X5010*
X5022Y4347*
X5223*
Y4360*
X5334*
Y4293*
Y4257*
Y4213*
X5374*
X5383*
X5423*
Y4257*
Y4293*
Y4360*
X5445*
Y4365*
X5394Y4416*
X5154*
G75*
G02X5127Y4429J34*
G01*
X5027Y4553*
X5015*
X4988Y4580*
Y4618*
X4948*
X4910*
X4858*
Y4267*
X4959Y4167*
X5008*
Y4181*
X5099*
Y4119*
X5104*
Y4014*
X5021*
Y3931*
X5016*
Y3914*
Y3909*
X5048*
X5060Y3921*
X5098*
X5125Y3894*
Y3856*
X5098Y3829*
X5060*
X5048Y3841*
X5016*
Y3836*
Y3813*
X5016Y3813*
G75*
G02X5027Y3788I-25J-25*
G01*
Y3671*
G75*
G02X5104Y3645I27J-46*
G01*
G75*
G02X5204I50J-20*
G01*
G75*
G02X5301Y3651I50J-20*
G01*
G75*
G02X5412Y3625I53J-26*
G01*
G75*
G02X5333Y3570I-59*
G01*
G75*
G02X5357Y3525I-29J-45*
G01*
G75*
G02X5254Y3505I-54*
G01*
G75*
G02X5200Y3471I-50J20*
G01*
X5166Y3437*
G75*
G02X5141Y3427I-25J25*
G01*
X4980*
X4912Y3359*
G75*
G02X5048Y3275I42J-84*
G01*
G75*
G02X4867Y3238I-94*
G01*
G75*
G02X4866Y3237I-26J24*
G01*
X4830Y3201*
G75*
G02X4830Y3200I-52J-1*
G01*
G75*
G02X4727I-52*
G01*
G75*
G02X4780Y3252I52*
G01*
X4806Y3277*
Y3339*
G75*
G02X4816Y3364I36J0*
G01*
X4940Y3488*
G75*
G02X4958Y3497I25J-25*
G01*
G75*
G02X4950Y3525I46J28*
G01*
G75*
G02X4956Y3549I54*
G01*
Y3773*
X4942Y3786*
X4884*
Y3836*
Y3864*
Y3886*
Y3914*
Y3931*
X4879*
Y4019*
X4884*
Y4031*
X4879*
Y4119*
X4884*
Y4123*
X4787Y4220*
G75*
G02X4774Y4250I30J30*
G01*
Y4790*
X4748*
Y4814*
X4723*
Y4798*
X4612*
Y4865*
Y4901*
Y4910*
X4518Y4816*
Y4754*
X4498*
X4728Y4524*
G75*
G02X4738Y4500I-24J-24*
G01*
Y4245*
X4803Y4180*
G75*
G02X4813Y4156I-24J-24*
G01*
Y4050*
G75*
G02X4803Y4026I-34J0*
G01*
X4778Y4001*
G75*
G02X4774Y3998I-24J24*
G01*
Y3986*
Y3971*
X4810*
X4837Y3944*
Y3906*
X4810Y3879*
X4774*
Y3869*
X4779*
Y3781*
X4637*
Y3841*
X4618*
G75*
G02X4608Y3832I-39J34*
G01*
G75*
G02X4603Y3826I-29J18*
G01*
X4587Y3810*
Y3793*
X4560Y3767*
X4525*
Y3663*
X4562*
X4582Y3644*
X4597Y3659*
X4635*
Y3666*
X4773*
Y3550*
X4635*
Y3567*
X4597*
X4582Y3581*
X4562Y3562*
X4520*
X4498Y3584*
X4433Y3518*
G75*
G02X4391Y3483I-41J7*
G01*
X4387*
G75*
G02X4360Y3472I-33J42*
G01*
X4358Y3470*
Y3108*
X4438Y3046*
X4448*
X4475Y3019*
Y2981*
X4448Y2954*
X4410*
X4383Y2981*
Y2983*
X4302Y3046*
X4004*
G75*
G02X3972Y3060I0J42*
G01*
X3772Y3285*
G75*
G02X3762Y3313I31J28*
G01*
Y3570*
X3759Y3573*
Y3444*
X3599*
Y3607*
X3725*
X3684Y3648*
X3604*
Y3683*
X3571*
Y3675*
Y3666*
Y3589*
X3576*
Y3479*
X3426*
Y3583*
X3403*
G75*
G02X3379I-12J42*
G01*
X3371*
Y3455*
X3508*
Y3295*
X3369*
Y3300*
X3254*
Y3333*
X3240*
G75*
G02X3148Y3375I-36J42*
G01*
G75*
G02X3240Y3417I56*
G01*
X3254*
Y3450*
X3287*
Y3528*
X3187*
Y3722*
X3326*
Y3669*
G75*
G02X3341Y3667I3J-44*
G01*
X3348*
Y4475*
G75*
G02X3361Y4506I44*
G01*
X3435Y4579*
Y4682*
X3390Y4727*
X3385Y4722*
Y4702*
X3364Y4681*
X3385*
Y4569*
X3273*
Y4590*
X3252Y4569*
X3206*
X3173Y4602*
Y4631*
X3181Y4414D02*
X3168D01*
Y4536*
X3290*
Y4414*
X3276*
X3290Y4400*
Y4350*
X3265Y4325*
X3290Y4300*
Y4250*
X3265Y4225*
X3290Y4200*
Y4150*
X3265Y4125*
X3290Y4100*
Y4050*
X3269Y4029*
X3295Y4002*
Y3948*
X3256Y3909*
X3201*
X3163Y3948*
Y4002*
X3189Y4029*
X3168Y4050*
Y4100*
X3192Y4125*
X3168Y4150*
Y4200*
X3192Y4225*
X3168Y4250*
Y4300*
X3192Y4325*
X3168Y4350*
Y4400*
X3181Y4414*
X4360Y3275D02*
G75*
G02X4548I94D01*
G01*
G75*
G02X4360I-94*
G01*
X4778Y3379D02*
X4630D01*
Y3505*
X4778*
Y3379*
X5310Y3275D02*
G75*
G02X5498I94D01*
G01*
G75*
G02X5310I-94*
G01*
X5375Y2970D02*
G75*
G02X5349Y2996J26D01*
G01*
Y3052*
G75*
G02X5375Y3078I26*
G01*
X5503*
G75*
G02X5529Y3052J-26*
G01*
Y2996*
G75*
G02X5503Y2970I-26*
G01*
X5375*
X5565Y2961D02*
Y3189D01*
X5793*
Y2961*
X5565*
Y5161D02*
Y5389D01*
X5793*
Y5161*
X5565*
X3079Y3075D02*
G36*
Y2875D01*
X5879*
Y3075*
X5793*
Y2961*
X5565*
Y3075*
X5515*
G75*
G02X5529Y3052I-12J-23*
G01*
Y2996*
G75*
G02X5503Y2970I-26*
G01*
X5375*
G75*
G02X5349Y2996J26*
G01*
Y3052*
G75*
G02X5363Y3075I26*
G01*
X4401*
X4438Y3046*
X4448*
X4475Y3019*
Y2981*
X4448Y2954*
X4410*
X4383Y2981*
Y2983*
X4302Y3046*
X4004*
G75*
G02X3972Y3060I0J42*
G01*
X3959Y3075*
X3393*
Y2961*
X3165*
Y3075*
X3079*
G37*
X3165D02*
G36*
Y3189D01*
X3393*
Y3075*
X3959*
X3781Y3275*
X3079*
Y3075*
X3165*
G37*
X5363D02*
G36*
G75*
G02X5375Y3078I12J-23D01*
G01*
X5503*
G75*
G02X5515Y3075J-26*
G01*
X5565*
Y3189*
X5793*
Y3075*
X5879*
Y3275*
X5498*
G75*
G02X5310I-94*
G01*
X5048*
G75*
G02X4867Y3238I-94*
G01*
G75*
G02X4866Y3237I-26J24*
G01*
X4830Y3201*
G75*
G02X4830Y3200I-52J-1*
G01*
G75*
G02X4727I-52*
G01*
G75*
G02X4780Y3252I52*
G01*
X4803Y3275*
X4548*
G75*
G02X4360I-94*
G01*
X4358*
Y3108*
X4401Y3075*
X5363*
G37*
X3079Y4223D02*
G36*
Y3442D01*
X3254*
Y3450*
X3287*
Y3528*
X3187*
Y3722*
X3326*
Y3669*
G75*
G02X3341Y3667I3J-44*
G01*
X3348*
Y4223*
X3268*
X3290Y4200*
Y4150*
X3265Y4125*
X3290Y4100*
Y4050*
X3269Y4029*
X3295Y4002*
Y3948*
X3256Y3909*
X3201*
X3163Y3948*
Y4002*
X3189Y4029*
X3168Y4050*
Y4100*
X3192Y4125*
X3168Y4150*
Y4200*
X3190Y4223*
X3079*
G37*
X3190D02*
G36*
X3192Y4225D01*
X3168Y4250*
Y4300*
X3192Y4325*
X3168Y4350*
Y4400*
X3181Y4414*
X3168*
Y4536*
X3290*
Y4414*
X3276*
X3290Y4400*
Y4350*
X3265Y4325*
X3290Y4300*
Y4250*
X3265Y4225*
X3268Y4223*
X3348*
Y4475*
G75*
G02X3361Y4506I44*
G01*
X3435Y4579*
Y4682*
X3390Y4727*
X3385Y4722*
Y4702*
X3364Y4681*
X3385*
Y4569*
X3273*
Y4590*
X3252Y4569*
X3206*
X3173Y4602*
Y4631*
X3141Y4662*
G75*
G02X3131Y4687I25J25*
G01*
Y4928*
G75*
G02X3141Y4953I36*
G01*
X3349Y5161*
X3165*
Y5275*
X3079*
Y4223*
X3190*
G37*
X5825D02*
G36*
Y3719D01*
X5837Y3707*
Y3668*
X5810Y3642*
X5772*
X5745Y3668*
Y3707*
X5757Y3719*
Y3782*
X5169*
Y4001*
X5757*
Y4004*
X5174*
Y4213*
X5223*
Y4279*
X5022*
X5010Y4267*
X4972*
X4945Y4293*
Y4332*
X4972Y4359*
X5010*
X5022Y4347*
X5223*
Y4360*
X5334*
Y4213*
X5423*
Y4360*
X5445*
Y4365*
X5394Y4416*
X5154*
G75*
G02X5127Y4429J34*
G01*
X5027Y4553*
X5015*
X4988Y4580*
Y4618*
X4858*
Y4267*
X4959Y4167*
X5008*
Y4181*
X5099*
Y4119*
X5104*
Y4014*
X5021*
Y3931*
X5016*
Y3909*
X5048*
X5060Y3921*
X5098*
X5125Y3894*
Y3856*
X5098Y3829*
X5060*
X5048Y3841*
X5016*
Y3813*
X5016Y3813*
G75*
G02X5027Y3788I-25J-25*
G01*
Y3671*
G75*
G02X5104Y3645I27J-46*
G01*
G75*
G02X5204I50J-20*
G01*
G75*
G02X5301Y3651I50J-20*
G01*
G75*
G02X5412Y3625I53J-26*
G01*
G75*
G02X5333Y3570I-59*
G01*
G75*
G02X5357Y3525I-29J-45*
G01*
G75*
G02X5254Y3505I-54*
G01*
G75*
G02X5200Y3471I-50J20*
G01*
X5171Y3442*
X5879*
Y4223*
X5825*
G37*
X5879D02*
G36*
Y5275D01*
X5793*
Y5161*
X5565*
Y5275*
X5292*
X5366Y5200*
G75*
G02X5377Y5175I-25J-25*
G01*
Y4720*
G75*
G02X5366Y4695I-36J0*
G01*
X5321Y4650*
G75*
G02X5296Y4640I-25J25*
G01*
X5212*
Y4637*
X5116*
Y4727*
G75*
G02X5106Y4719I-17J11*
G01*
Y4670*
X5101*
Y4637*
X5061*
X5080Y4619*
Y4596*
X5170Y4484*
X5408*
G75*
G02X5432Y4474I0J-34*
G01*
X5503Y4403*
G75*
G02X5513Y4379I-24J-24*
G01*
Y4360*
X5534*
Y4213*
X5623*
Y4360*
X5667*
X5687Y4380*
Y4664*
X5668*
Y4786*
X5674*
X5663Y4798*
Y4852*
X5689Y4879*
X5668Y4900*
Y4950*
X5689Y4971*
X5663Y4998*
Y5052*
X5701Y5091*
X5756*
X5795Y5052*
Y4998*
X5769Y4971*
X5790Y4950*
Y4912*
X5815Y4887*
G75*
G02X5825Y4863I-24J-24*
G01*
Y4223*
X5879*
G37*
X3781Y3275D02*
G36*
X3772Y3285D01*
G75*
G02X3762Y3313I31J28*
G01*
Y3570*
X3759Y3573*
Y3444*
X3599*
Y3607*
X3725*
X3684Y3648*
X3604*
Y3683*
X3571*
Y3589*
X3576*
Y3479*
X3426*
Y3583*
X3403*
G75*
G02X3379I-12J42*
G01*
X3371*
Y3455*
X3508*
Y3295*
X3369*
Y3300*
X3254*
Y3333*
X3240*
G75*
G02X3148Y3375I-36J42*
G01*
G75*
G02X3240Y3417I56*
G01*
X3254*
Y3442*
X3079*
Y3275*
X3781*
G37*
X4360D02*
G36*
G75*
G02X4548I94D01*
G01*
X4803*
X4806Y3277*
Y3339*
G75*
G02X4816Y3364I36J0*
G01*
X4894Y3442*
X4778*
Y3379*
X4630*
Y3442*
X4358*
Y3275*
X4360*
G37*
X5310D02*
G36*
G75*
G02X5498I94D01*
G01*
X5879*
Y3442*
X5171*
X5166Y3437*
G75*
G02X5141Y3427I-25J25*
G01*
X4980*
X4912Y3359*
G75*
G02X5048Y3275I42J-84*
G01*
X5310*
G37*
X4630Y3442D02*
G36*
Y3505D01*
X4778*
Y3442*
X4894*
X4940Y3488*
G75*
G02X4958Y3497I25J-25*
G01*
G75*
G02X4956Y3549I46J28*
G01*
Y3773*
X4942Y3786*
X4884*
Y3931*
X4879*
Y4019*
X4884*
Y4031*
X4879*
Y4119*
X4884*
Y4123*
X4787Y4220*
G75*
G02X4774Y4250I30J30*
G01*
Y4790*
X4748*
Y4814*
X4723*
Y4798*
X4612*
Y4910*
X4518Y4816*
Y4754*
X4498*
X4728Y4524*
G75*
G02X4738Y4500I-24J-24*
G01*
Y4245*
X4803Y4180*
G75*
G02X4813Y4156I-24J-24*
G01*
Y4050*
G75*
G02X4803Y4026I-34J0*
G01*
X4778Y4001*
G75*
G02X4774Y3998I-24J24*
G01*
Y3971*
X4810*
X4837Y3944*
Y3906*
X4810Y3879*
X4774*
Y3869*
X4779*
Y3781*
X4637*
Y3841*
X4618*
G75*
G02X4608Y3832I-39J34*
G01*
G75*
G02X4603Y3826I-29J18*
G01*
X4587Y3810*
Y3793*
X4560Y3767*
X4525*
Y3663*
X4562*
X4582Y3644*
X4597Y3659*
X4635*
Y3666*
X4773*
Y3550*
X4635*
Y3567*
X4597*
X4582Y3581*
X4562Y3562*
X4520*
X4498Y3584*
X4433Y3518*
G75*
G02X4391Y3483I-41J7*
G01*
X4387*
G75*
G02X4360Y3472I-33J42*
G01*
X4358Y3470*
Y3442*
X4630*
G37*
X3165Y5275D02*
G36*
Y5389D01*
X3393*
Y5239*
X3504Y5350*
G75*
G02X3529Y5361I25J-25*
G01*
X4316*
G75*
G02X4341Y5350I0J-36*
G01*
X4466Y5225*
G75*
G02X4477Y5200I-25J-25*
G01*
Y5030*
G75*
G02X4466Y5005I-36J0*
G01*
X4449Y4987*
G75*
G02X4424Y4977I-25J25*
G01*
X4306*
X4263Y4934*
X4285*
X4300Y4919*
G75*
G02X4302Y4921I29J-19*
G01*
G75*
G02X4302Y4925I51J4*
G01*
G75*
G02X4391Y4960I52*
G01*
G75*
G02X4480Y4925I38J-35*
G01*
G75*
G02X4463Y4886I-52*
G01*
Y4873*
X4478*
X4720Y5114*
X4718*
Y5236*
X4743*
Y5267*
G75*
G02X4754Y5293I36J0*
G01*
X4799Y5338*
G75*
G02X4824Y5348I25J-25*
G01*
X5204*
G75*
G02X5229Y5338I0J-36*
G01*
X5292Y5275*
X5565*
Y5389*
X5793*
Y5275*
X5879*
Y5475*
X3079*
Y5275*
X3165*
G37*
X3202Y2084D02*
X3203Y2086D01*
X3254*
X3282Y2058*
X3306Y2081*
X3352*
X3385Y2048*
Y2040*
X3487Y2142*
Y2331*
X3468Y2350*
Y2400*
X3503Y2436*
X3554*
X3575Y2415*
X3601Y2441*
X3656*
X3682Y2415*
X3703Y2436*
X3754*
X3768Y2422*
Y2436*
X3870*
Y2457*
X3897Y2483*
X3935*
X3962Y2457*
Y2418*
X3950Y2406*
Y2338*
G75*
G02X3940Y2313I-34J0*
G01*
X3914Y2288*
X3915Y2287*
G75*
G02X3925Y2263I-24J-24*
G01*
Y2221*
X3960*
Y2213*
X4000*
X4022Y2191*
G75*
G02X4029Y2200I32J-16*
G01*
X4123Y2294*
Y2331*
X4144*
X4123Y2352*
Y2398*
X4156Y2431*
X4202*
X4225Y2408*
X4253Y2436*
X4304*
X4332Y2408*
X4356Y2431*
X4360*
X4302Y2489*
X3543*
X3439Y2385*
Y2365*
G75*
G02X3429Y2340I-36J0*
G01*
X3202Y2113*
Y2084*
G36*
X3203Y2086*
X3254*
X3282Y2058*
X3306Y2081*
X3352*
X3385Y2048*
Y2040*
X3487Y2142*
Y2331*
X3468Y2350*
Y2400*
X3503Y2436*
X3554*
X3575Y2415*
X3601Y2441*
X3656*
X3682Y2415*
X3703Y2436*
X3754*
X3768Y2422*
Y2436*
X3870*
Y2457*
X3897Y2483*
X3935*
X3962Y2457*
Y2418*
X3950Y2406*
Y2338*
G75*
G02X3940Y2313I-34J0*
G01*
X3914Y2288*
X3915Y2287*
G75*
G02X3925Y2263I-24J-24*
G01*
Y2221*
X3960*
Y2213*
X4000*
X4022Y2191*
G75*
G02X4029Y2200I32J-16*
G01*
X4123Y2294*
Y2331*
X4144*
X4123Y2352*
Y2398*
X4156Y2431*
X4202*
X4225Y2408*
X4253Y2436*
X4304*
X4332Y2408*
X4356Y2431*
X4360*
X4302Y2489*
X3543*
X3439Y2385*
Y2365*
G75*
G02X3429Y2340I-36J0*
G01*
X3202Y2113*
Y2084*
G37*
Y4884D02*
X3203Y4886D01*
X3254*
X3282Y4858*
X3306Y4881*
X3352*
X3385Y4848*
Y4843*
X3485Y4943*
Y5132*
X3468Y5150*
Y5200*
X3503Y5236*
X3554*
X3575Y5215*
X3601Y5241*
X3656*
X3682Y5215*
X3703Y5236*
X3754*
X3768Y5222*
Y5236*
X3870*
Y5257*
X3897Y5283*
X3935*
X3962Y5257*
Y5218*
X3950Y5206*
Y5138*
G75*
G02X3940Y5113I-34*
G01*
X3915Y5089*
X3916Y5088*
G75*
G02X3927Y5063I-25J-25*
G01*
Y5021*
X3960*
Y5013*
X4000*
X4022Y4991*
G75*
G02X4029Y5000I32J-16*
G01*
X4123Y5094*
Y5131*
X4144*
X4123Y5152*
Y5198*
X4156Y5231*
X4202*
X4225Y5208*
X4253Y5236*
X4304*
X4332Y5208*
X4356Y5231*
X4360*
X4302Y5289*
X3543*
X3439Y5185*
Y5165*
G75*
G02X3429Y5140I-36*
G01*
X3202Y4913*
Y4884*
G36*
X3203Y4886*
X3254*
X3282Y4858*
X3306Y4881*
X3352*
X3385Y4848*
Y4843*
X3485Y4943*
Y5132*
X3468Y5150*
Y5200*
X3503Y5236*
X3554*
X3575Y5215*
X3601Y5241*
X3656*
X3682Y5215*
X3703Y5236*
X3754*
X3768Y5222*
Y5236*
X3870*
Y5257*
X3897Y5283*
X3935*
X3962Y5257*
Y5218*
X3950Y5206*
Y5138*
G75*
G02X3940Y5113I-34*
G01*
X3915Y5089*
X3916Y5088*
G75*
G02X3927Y5063I-25J-25*
G01*
Y5021*
X3960*
Y5013*
X4000*
X4022Y4991*
G75*
G02X4029Y5000I32J-16*
G01*
X4123Y5094*
Y5131*
X4144*
X4123Y5152*
Y5198*
X4156Y5231*
X4202*
X4225Y5208*
X4253Y5236*
X4304*
X4332Y5208*
X4356Y5231*
X4360*
X4302Y5289*
X3543*
X3439Y5185*
Y5165*
G75*
G02X3429Y5140I-36*
G01*
X3202Y4913*
Y4884*
G37*
X3204Y575D02*
X3319D01*
Y3375D02*
X3204D01*
X3329Y825D02*
Y575D01*
Y825D02*
X3257D01*
X3329D02*
X3391D01*
X3329Y3625D02*
Y3375D01*
Y3625D02*
X3257D01*
X3329Y4725D02*
X3391Y4788D01*
Y825D02*
X3393Y1491D01*
Y1675*
X3479Y1761*
Y1900*
X3391Y1988*
Y825D02*
X3501D01*
X3391Y1988D02*
X3329Y1925D01*
X3391Y1988D02*
X3529Y2125D01*
Y2375*
X3391Y3625D02*
X3393Y4291D01*
Y4475*
X3479Y4561*
Y4700*
X3391Y4788*
Y3625D02*
X3501D01*
X3391D02*
X3329D01*
X3391Y4788D02*
X3529Y4925D01*
Y5175*
X3435Y966D02*
X3470D01*
Y981*
G75*
G02X3448Y1025I34J44*
G01*
G75*
G02X3559I56*
G01*
G75*
G02X3538Y981I-56*
G01*
Y967*
X3604*
Y1001*
X3637*
Y1013*
G75*
G02X3649Y1042I42J0*
G01*
X3755Y1148*
Y1218*
X3750*
Y1343*
X3883*
Y1277*
G75*
G02X3904Y1284I21J-27*
G01*
X3910*
Y1343*
X3983*
X3970Y1356*
Y1394*
X3982Y1406*
Y1493*
X3950Y1460*
Y1443*
X3923Y1417*
X3885*
X3875Y1426*
Y1406*
X3848Y1379*
X3810*
X3783Y1406*
Y1444*
X3795Y1456*
Y1577*
X3790*
Y1664*
X3779*
X3764Y1650*
Y1454*
X3775Y1444*
Y1406*
X3748Y1379*
X3714*
Y1354*
X3725Y1344*
Y1306*
X3698Y1279*
X3660*
X3633Y1306*
Y1344*
X3643Y1354*
Y1710*
G75*
G02X3654Y1735I36J0*
G01*
X3682Y1763*
G75*
G02X3707Y1773I25J-25*
G01*
X4066*
G75*
G02X4091Y1763I0J-36*
G01*
X4141Y1713*
G75*
G02X4149Y1701I-25J-25*
G01*
X4195*
Y1704*
X4160*
X4133Y1731*
Y1769*
X4160Y1796*
X4198*
X4210Y1783*
G75*
G02X4228Y1774I-7J-33*
G01*
X4253Y1749*
G75*
G02X4263Y1725I-24J-24*
G01*
Y1696*
X4343*
Y1710*
G75*
G02X4354Y1735I36*
G01*
X4382Y1763*
G75*
G02X4407Y1773I25J-25*
G01*
X4518*
X4525Y1780*
X4355Y1951*
G75*
G02X4352Y1954I24J24*
G01*
X4301*
G75*
G02X4291Y1937I-34J9*
G01*
X4166Y1812*
G75*
G02X4141Y1802I-25J25*
G01*
X3708*
X3698Y1791*
X3660*
X3633Y1818*
Y1857*
X3660Y1884*
X3686*
G75*
G02X3682Y1887I21J29*
G01*
X3654Y1915*
G75*
G02X3643Y1940I25J25*
G01*
Y1946*
X3633Y1956*
Y1994*
X3660Y2021*
X3698*
X3706Y2013*
Y2187*
X3698Y2179*
X3660*
X3633Y2206*
Y2244*
X3645Y2256*
Y2309*
X3601*
X3575Y2335*
X3571Y2331*
Y2125*
G75*
G02X3558Y2095I-42J0*
G01*
X3452Y1989*
X3510Y1931*
G75*
G02X3522Y1900I-31J-31*
G01*
Y1761*
G75*
G02X3509Y1730I-44*
G01*
X3435Y1657*
Y966*
X3558Y1174D02*
X3528Y1204D01*
Y1246*
X3558Y1276*
X3600*
X3630Y1246*
Y1204*
X3600Y1174*
X3558*
X3435Y1225D02*
G36*
Y966D01*
X3470*
Y981*
G75*
G02X3448Y1025I34J44*
G01*
G75*
G02X3559I56*
G01*
G75*
G02X3538Y981I-56*
G01*
Y967*
X3604*
Y1001*
X3637*
Y1013*
G75*
G02X3649Y1042I42J0*
G01*
X3755Y1148*
Y1218*
X3750*
Y1225*
X3630*
Y1204*
X3600Y1174*
X3558*
X3528Y1204*
Y1225*
X3435*
G37*
X3528D02*
G36*
Y1246D01*
X3558Y1276*
X3600*
X3630Y1246*
Y1225*
X3750*
Y1343*
X3883*
Y1277*
G75*
G02X3904Y1284I21J-27*
G01*
X3910*
Y1343*
X3983*
X3970Y1356*
Y1394*
X3982Y1406*
Y1493*
X3950Y1460*
Y1443*
X3923Y1417*
X3885*
X3875Y1426*
Y1406*
X3848Y1379*
X3810*
X3783Y1406*
Y1444*
X3795Y1456*
Y1577*
X3790*
Y1664*
X3779*
X3764Y1650*
Y1454*
X3775Y1444*
Y1406*
X3748Y1379*
X3714*
Y1354*
X3725Y1344*
Y1306*
X3698Y1279*
X3660*
X3633Y1306*
Y1344*
X3643Y1354*
Y1710*
G75*
G02X3654Y1735I36J0*
G01*
X3682Y1763*
G75*
G02X3707Y1773I25J-25*
G01*
X4066*
G75*
G02X4091Y1763I0J-36*
G01*
X4141Y1713*
G75*
G02X4149Y1701I-25J-25*
G01*
X4195*
Y1704*
X4160*
X4133Y1731*
Y1769*
X4160Y1796*
X4198*
X4210Y1783*
G75*
G02X4228Y1774I-7J-33*
G01*
X4253Y1749*
G75*
G02X4263Y1725I-24J-24*
G01*
Y1696*
X4343*
Y1710*
G75*
G02X4354Y1735I36*
G01*
X4382Y1763*
G75*
G02X4407Y1773I25J-25*
G01*
X4518*
X4525Y1780*
X4355Y1951*
G75*
G02X4352Y1954I24J24*
G01*
X4301*
G75*
G02X4291Y1937I-34J9*
G01*
X4166Y1812*
G75*
G02X4141Y1802I-25J25*
G01*
X3708*
X3698Y1791*
X3660*
X3633Y1818*
Y1857*
X3660Y1884*
X3686*
G75*
G02X3682Y1887I21J29*
G01*
X3654Y1915*
G75*
G02X3643Y1940I25J25*
G01*
Y1946*
X3633Y1956*
Y1994*
X3660Y2021*
X3698*
X3706Y2013*
Y2187*
X3698Y2179*
X3660*
X3633Y2206*
Y2244*
X3645Y2256*
Y2309*
X3601*
X3575Y2335*
X3571Y2331*
Y2125*
G75*
G02X3558Y2095I-42J0*
G01*
X3452Y1989*
X3510Y1931*
G75*
G02X3522Y1900I-31J-31*
G01*
Y1761*
G75*
G02X3509Y1730I-44*
G01*
X3435Y1657*
Y1225*
X3528*
G37*
X3435Y3766D02*
X3470D01*
Y3781*
G75*
G02X3448Y3825I34J44*
G01*
G75*
G02X3559I56*
G01*
G75*
G02X3538Y3781I-56*
G01*
Y3767*
X3604*
Y3801*
X3637*
Y3813*
G75*
G02X3649Y3842I42J0*
G01*
X3755Y3948*
Y4018*
X3750*
Y4143*
X3883*
Y4077*
G75*
G02X3904Y4084I21J-27*
G01*
X3910*
Y4143*
X3983*
X3970Y4156*
Y4194*
X3982Y4206*
Y4293*
X3950Y4260*
Y4243*
X3923Y4216*
X3885*
X3875Y4226*
Y4206*
X3848Y4179*
X3810*
X3783Y4206*
Y4244*
X3795Y4256*
Y4377*
X3790*
Y4464*
X3779*
X3764Y4450*
Y4254*
X3775Y4244*
Y4206*
X3748Y4179*
X3714*
Y4154*
X3725Y4144*
Y4106*
X3698Y4079*
X3660*
X3633Y4106*
Y4144*
X3643Y4154*
Y4510*
G75*
G02X3654Y4535I36*
G01*
X3682Y4563*
G75*
G02X3707Y4573I25J-25*
G01*
X4066*
G75*
G02X4091Y4563I0J-36*
G01*
X4141Y4513*
G75*
G02X4149Y4501I-25J-25*
G01*
X4195*
Y4504*
X4160*
X4133Y4531*
Y4569*
X4160Y4596*
X4198*
X4210Y4583*
G75*
G02X4228Y4574I-7J-33*
G01*
X4253Y4549*
G75*
G02X4263Y4525I-24J-24*
G01*
Y4496*
X4345*
Y4510*
G75*
G02X4355Y4534I34J0*
G01*
X4383Y4562*
G75*
G02X4407Y4572I24J-24*
G01*
X4517*
X4525Y4580*
X4355Y4751*
G75*
G02X4352Y4754I24J24*
G01*
X4301*
G75*
G02X4291Y4737I-34J9*
G01*
X4166Y4612*
G75*
G02X4141Y4602I-25J25*
G01*
X3708*
X3698Y4592*
X3660*
X3633Y4618*
Y4657*
X3660Y4684*
X3686*
G75*
G02X3682Y4687I21J29*
G01*
X3654Y4715*
G75*
G02X3643Y4740I25J25*
G01*
Y4746*
X3633Y4756*
Y4794*
X3660Y4821*
X3698*
X3706Y4813*
Y4987*
X3698Y4979*
X3660*
X3633Y5006*
Y5044*
X3645Y5056*
Y5109*
X3601*
X3575Y5135*
X3572Y5132*
Y4925*
G75*
G02X3560Y4894I-44J0*
G01*
X3453Y4788*
X3510Y4731*
G75*
G02X3522Y4700I-31J-31*
G01*
Y4561*
G75*
G02X3509Y4530I-44*
G01*
X3435Y4457*
Y3766*
X3558Y3974D02*
X3528Y4004D01*
Y4046*
X3558Y4076*
X3600*
X3630Y4046*
Y4004*
X3600Y3974*
X3558*
X3435Y4025D02*
G36*
Y3766D01*
X3470*
Y3781*
G75*
G02X3448Y3825I34J44*
G01*
G75*
G02X3559I56*
G01*
G75*
G02X3538Y3781I-56*
G01*
Y3767*
X3604*
Y3801*
X3637*
Y3813*
G75*
G02X3649Y3842I42J0*
G01*
X3755Y3948*
Y4018*
X3750*
Y4025*
X3630*
Y4004*
X3600Y3974*
X3558*
X3528Y4004*
Y4025*
X3435*
G37*
X3528D02*
G36*
Y4046D01*
X3558Y4076*
X3600*
X3630Y4046*
Y4025*
X3750*
Y4143*
X3883*
Y4077*
G75*
G02X3904Y4084I21J-27*
G01*
X3910*
Y4143*
X3983*
X3970Y4156*
Y4194*
X3982Y4206*
Y4293*
X3950Y4260*
Y4243*
X3923Y4216*
X3885*
X3875Y4226*
Y4206*
X3848Y4179*
X3810*
X3783Y4206*
Y4244*
X3795Y4256*
Y4377*
X3790*
Y4464*
X3779*
X3764Y4450*
Y4254*
X3775Y4244*
Y4206*
X3748Y4179*
X3714*
Y4154*
X3725Y4144*
Y4106*
X3698Y4079*
X3660*
X3633Y4106*
Y4144*
X3643Y4154*
Y4510*
G75*
G02X3654Y4535I36*
G01*
X3682Y4563*
G75*
G02X3707Y4573I25J-25*
G01*
X4066*
G75*
G02X4091Y4563I0J-36*
G01*
X4141Y4513*
G75*
G02X4149Y4501I-25J-25*
G01*
X4195*
Y4504*
X4160*
X4133Y4531*
Y4569*
X4160Y4596*
X4198*
X4210Y4583*
G75*
G02X4228Y4574I-7J-33*
G01*
X4253Y4549*
G75*
G02X4263Y4525I-24J-24*
G01*
Y4496*
X4345*
Y4510*
G75*
G02X4355Y4534I34J0*
G01*
X4383Y4562*
G75*
G02X4407Y4572I24J-24*
G01*
X4517*
X4525Y4580*
X4355Y4751*
G75*
G02X4352Y4754I24J24*
G01*
X4301*
G75*
G02X4291Y4737I-34J9*
G01*
X4166Y4612*
G75*
G02X4141Y4602I-25J25*
G01*
X3708*
X3698Y4592*
X3660*
X3633Y4618*
Y4657*
X3660Y4684*
X3686*
G75*
G02X3682Y4687I21J29*
G01*
X3654Y4715*
G75*
G02X3643Y4740I25J25*
G01*
Y4746*
X3633Y4756*
Y4794*
X3660Y4821*
X3698*
X3706Y4813*
Y4987*
X3698Y4979*
X3660*
X3633Y5006*
Y5044*
X3645Y5056*
Y5109*
X3601*
X3575Y5135*
X3572Y5132*
Y4925*
G75*
G02X3560Y4894I-44J0*
G01*
X3453Y4788*
X3510Y4731*
G75*
G02X3522Y4700I-31J-31*
G01*
Y4561*
G75*
G02X3509Y4530I-44*
G01*
X3435Y4457*
Y4025*
X3528*
G37*
X3679Y913D02*
X3804Y788D01*
Y513*
X4004Y288*
X4316*
X3679Y925D02*
X3504D01*
X3679Y3713D02*
X3804Y3588D01*
Y3313*
X4004Y3088*
X4316*
X3679Y3725D02*
X3504D01*
X3726Y1001D02*
X3754D01*
Y897*
X3833Y817*
G75*
G02X3846Y788I-30J-30*
G01*
Y765*
G75*
G02X3918Y759I33J-40*
G01*
X4012*
G75*
G02X4104Y745I42J-34*
G01*
G75*
G02X4204I50J-20*
G01*
G75*
G02X4304I50J-20*
G01*
G75*
G02X4372Y775I50J-20*
G01*
G75*
G02X4351Y799I31J50*
G01*
G75*
G02X4254Y805I-47J26*
G01*
G75*
G02X4154I-50J20*
G01*
G75*
G02X4050Y825I-50J20*
G01*
G75*
G02X4154Y845I54*
G01*
G75*
G02X4170Y867I50J-20*
G01*
Y898*
X4015Y1054*
X3935*
G75*
G02X3840Y1082I-43J29*
G01*
G75*
G02X3850Y1112I52*
G01*
X3838*
X3726Y1001*
G36*
X3754*
Y897*
X3833Y817*
G75*
G02X3846Y788I-30J-30*
G01*
Y765*
G75*
G02X3918Y759I33J-40*
G01*
X4012*
G75*
G02X4104Y745I42J-34*
G01*
G75*
G02X4204I50J-20*
G01*
G75*
G02X4304I50J-20*
G01*
G75*
G02X4372Y775I50J-20*
G01*
G75*
G02X4351Y799I31J50*
G01*
G75*
G02X4254Y805I-47J26*
G01*
G75*
G02X4154I-50J20*
G01*
G75*
G02X4050Y825I-50J20*
G01*
G75*
G02X4154Y845I54*
G01*
G75*
G02X4170Y867I50J-20*
G01*
Y898*
X4015Y1054*
X3935*
G75*
G02X3840Y1082I-43J29*
G01*
G75*
G02X3850Y1112I52*
G01*
X3838*
X3726Y1001*
G37*
Y3801D02*
X3754D01*
Y3697*
X3833Y3617*
G75*
G02X3846Y3588I-30J-30*
G01*
Y3565*
G75*
G02X3918Y3559I33J-40*
G01*
X4012*
G75*
G02X4104Y3545I42J-34*
G01*
G75*
G02X4204I50J-20*
G01*
G75*
G02X4304I50J-20*
G01*
G75*
G02X4372Y3575I50J-20*
G01*
G75*
G02X4351Y3599I31J50*
G01*
G75*
G02X4254Y3605I-47J26*
G01*
G75*
G02X4154I-50J20*
G01*
G75*
G02X4050Y3625I-50J20*
G01*
G75*
G02X4154Y3645I54*
G01*
G75*
G02X4170Y3667I50J-20*
G01*
Y3698*
X4015Y3853*
X3935*
G75*
G02X3840Y3882I-43J29*
G01*
G75*
G02X3850Y3912I52*
G01*
X3838*
X3726Y3801*
G36*
X3754*
Y3697*
X3833Y3617*
G75*
G02X3846Y3588I-30J-30*
G01*
Y3565*
G75*
G02X3918Y3559I33J-40*
G01*
X4012*
G75*
G02X4104Y3545I42J-34*
G01*
G75*
G02X4204I50J-20*
G01*
G75*
G02X4304I50J-20*
G01*
G75*
G02X4372Y3575I50J-20*
G01*
G75*
G02X4351Y3599I31J50*
G01*
G75*
G02X4254Y3605I-47J26*
G01*
G75*
G02X4154I-50J20*
G01*
G75*
G02X4050Y3625I-50J20*
G01*
G75*
G02X4154Y3645I54*
G01*
G75*
G02X4170Y3667I50J-20*
G01*
Y3698*
X4015Y3853*
X3935*
G75*
G02X3840Y3882I-43J29*
G01*
G75*
G02X3850Y3912I52*
G01*
X3838*
X3726Y3801*
G37*
X3816Y1150D02*
X3679Y1013D01*
Y925*
X3816Y3950D02*
X3679Y3813D01*
Y3725*
X3829Y2088D02*
Y2013D01*
Y4888D02*
Y4813D01*
X4026Y1226D02*
G75*
G02X4028Y1224I-22J-26D01*
G01*
X4053Y1199*
G75*
G02X4063Y1175I-24J-24*
G01*
Y1102*
X4228Y937*
G75*
G02X4238Y913I-24J-24*
G01*
Y867*
G75*
G02X4254Y845I-34J-42*
G01*
G75*
G02X4351Y851I50J-20*
G01*
G75*
G02X4457Y849I53J-26*
G01*
Y1129*
X4422*
X4397Y1154*
X4377*
X4400Y1132*
Y1093*
X4373Y1067*
X4335*
X4325Y1077*
G75*
G02X4240Y1066I-46J23*
G01*
X4191*
G75*
G02X4157Y1100J34*
G01*
Y1112*
X4131*
Y1329*
G75*
G02X4152Y1394I47J21*
G01*
X4134*
Y1390*
X4062*
Y1356*
X4035Y1329*
X4031*
Y1257*
X4026*
Y1226*
G36*
G75*
G02X4028Y1224I-22J-26*
G01*
X4053Y1199*
G75*
G02X4063Y1175I-24J-24*
G01*
Y1102*
X4228Y937*
G75*
G02X4238Y913I-24J-24*
G01*
Y867*
G75*
G02X4254Y845I-34J-42*
G01*
G75*
G02X4351Y851I50J-20*
G01*
G75*
G02X4457Y849I53J-26*
G01*
Y1129*
X4422*
X4397Y1154*
X4377*
X4400Y1132*
Y1093*
X4373Y1067*
X4335*
X4325Y1077*
G75*
G02X4240Y1066I-46J23*
G01*
X4191*
G75*
G02X4157Y1100J34*
G01*
Y1112*
X4131*
Y1329*
G75*
G02X4152Y1394I47J21*
G01*
X4134*
Y1390*
X4062*
Y1356*
X4035Y1329*
X4031*
Y1257*
X4026*
Y1226*
G37*
Y4026D02*
G75*
G02X4028Y4024I-22J-26D01*
G01*
X4053Y3999*
G75*
G02X4063Y3975I-24J-24*
G01*
Y3902*
X4228Y3737*
G75*
G02X4238Y3713I-24J-24*
G01*
Y3667*
G75*
G02X4254Y3645I-34J-42*
G01*
G75*
G02X4351Y3651I50J-20*
G01*
G75*
G02X4457Y3649I53J-26*
G01*
Y3929*
X4422*
X4397Y3954*
X4377*
X4400Y3932*
Y3893*
X4373Y3867*
X4335*
X4325Y3877*
G75*
G02X4240Y3866I-46J23*
G01*
X4191*
G75*
G02X4157Y3900J34*
G01*
Y3912*
X4131*
Y4129*
G75*
G02X4152Y4194I47J21*
G01*
X4134*
Y4190*
X4062*
Y4156*
X4035Y4129*
X4031*
Y4057*
X4026*
Y4026*
G36*
G75*
G02X4028Y4024I-22J-26*
G01*
X4053Y3999*
G75*
G02X4063Y3975I-24J-24*
G01*
Y3902*
X4228Y3737*
G75*
G02X4238Y3713I-24J-24*
G01*
Y3667*
G75*
G02X4254Y3645I-34J-42*
G01*
G75*
G02X4351Y3651I50J-20*
G01*
G75*
G02X4457Y3649I53J-26*
G01*
Y3929*
X4422*
X4397Y3954*
X4377*
X4400Y3932*
Y3893*
X4373Y3867*
X4335*
X4325Y3877*
G75*
G02X4240Y3866I-46J23*
G01*
X4191*
G75*
G02X4157Y3900J34*
G01*
Y3912*
X4131*
Y4129*
G75*
G02X4152Y4194I47J21*
G01*
X4134*
Y4190*
X4062*
Y4156*
X4035Y4129*
X4031*
Y4057*
X4026*
Y4026*
G37*
X4279Y1484D02*
X4367D01*
X4358Y1493*
Y1510*
X4325Y1543*
G75*
G02X4279Y1515I-46J24*
G01*
Y1484*
G36*
X4367*
X4358Y1493*
Y1510*
X4325Y1543*
G75*
G02X4279Y1515I-46J24*
G01*
Y1484*
G37*
Y4284D02*
X4367D01*
X4358Y4293*
Y4310*
X4325Y4344*
G75*
G02X4279Y4315I-46J23*
G01*
Y4284*
G36*
X4367*
X4358Y4293*
Y4310*
X4325Y4344*
G75*
G02X4279Y4315I-46J23*
G01*
Y4284*
G37*
X4316Y288D02*
X4429Y200D01*
X4316Y288D02*
Y688D01*
X4354Y725*
X4316Y3088D02*
Y3488D01*
X4354Y3525*
X4391Y725D02*
X4354D01*
X4391Y3525D02*
X4354D01*
X4429Y3000D02*
X4316Y3088D01*
X4887Y2157D02*
X4913D01*
G75*
G02X4907Y2175I29J18*
G01*
Y2181*
X4895Y2193*
Y2232*
X4922Y2259*
X4945*
Y2294*
X4960Y2309*
X4951*
X4925Y2335*
X4904Y2314*
X4888*
Y2163*
G75*
G02X4887Y2157I-34J0*
G01*
G36*
X4913*
G75*
G02X4907Y2175I29J18*
G01*
Y2181*
X4895Y2193*
Y2232*
X4922Y2259*
X4945*
Y2294*
X4960Y2309*
X4951*
X4925Y2335*
X4904Y2314*
X4888*
Y2163*
G75*
G02X4887Y2157I-34J0*
G01*
G37*
X4889Y4957D02*
X4913D01*
G75*
G02X4907Y4975I29J18*
G01*
Y4981*
X4895Y4993*
Y5032*
X4922Y5059*
X4945*
Y5094*
X4960Y5109*
X4951*
X4925Y5135*
X4904Y5114*
X4889*
Y4962*
G75*
G02X4889Y4957I-36*
G01*
G36*
X4913*
G75*
G02X4907Y4975I29J18*
G01*
Y4981*
X4895Y4993*
Y5032*
X4922Y5059*
X4945*
Y5094*
X4960Y5109*
X4951*
X4925Y5135*
X4904Y5114*
X4889*
Y4962*
G75*
G02X4889Y4957I-36*
G01*
G37*
X4891Y1875D02*
X4899D01*
X4891Y4675D02*
X4899D01*
X4941Y1325D02*
X4816Y1450D01*
Y2038*
X4941Y4125D02*
X4816Y4250D01*
Y4838*
X5029Y1975D02*
Y2038D01*
X4916*
X5029Y4775D02*
Y4838D01*
X4916*
X5054Y1325D02*
X4950D01*
X5054Y4125D02*
X4950D01*
X5071Y1990D02*
G75*
G02X5081Y1988I0J-20D01*
G01*
X5090*
G75*
G02X5116Y1981I10J-18*
G01*
Y1988*
X5212*
Y1984*
X5254*
X5270Y1999*
Y2032*
X5157*
Y2268*
X5270*
Y2348*
X5177Y2441*
X5096*
G75*
G02X5096Y2438I-55J-3*
G01*
G75*
G02X5096Y2436I-55J0*
G01*
X5104*
X5140Y2400*
Y2374*
X5143Y2371*
G75*
G02X5156Y2341I-29J-30*
G01*
Y2104*
G75*
G02X5140Y2070I-42*
G01*
X5071Y2017*
Y1990*
G36*
G75*
G02X5081Y1988I0J-20*
G01*
X5090*
G75*
G02X5116Y1981I10J-18*
G01*
Y1988*
X5212*
Y1984*
X5254*
X5270Y1999*
Y2032*
X5157*
Y2268*
X5270*
Y2348*
X5177Y2441*
X5096*
G75*
G02X5096Y2438I-55J-3*
G01*
G75*
G02X5096Y2436I-55J0*
G01*
X5104*
X5140Y2400*
Y2374*
X5143Y2371*
G75*
G02X5156Y2341I-29J-30*
G01*
Y2104*
G75*
G02X5140Y2070I-42*
G01*
X5071Y2017*
Y1990*
G37*
Y4790D02*
G75*
G02X5081Y4788I0J-20D01*
G01*
X5090*
G75*
G02X5116Y4781I10J-18*
G01*
Y4788*
X5212*
Y4784*
X5254*
X5270Y4799*
Y4832*
X5157*
Y5068*
X5270*
Y5148*
X5177Y5241*
X5096*
G75*
G02X5096Y5237I-55J-4*
G01*
G75*
G02X5096Y5236I-55J0*
G01*
X5104*
X5140Y5200*
Y5174*
X5143Y5171*
G75*
G02X5156Y5141I-29J-30*
G01*
Y4904*
G75*
G02X5140Y4870I-42*
G01*
X5071Y4817*
Y4790*
G36*
G75*
G02X5081Y4788I0J-20*
G01*
X5090*
G75*
G02X5116Y4781I10J-18*
G01*
Y4788*
X5212*
Y4784*
X5254*
X5270Y4799*
Y4832*
X5157*
Y5068*
X5270*
Y5148*
X5177Y5241*
X5096*
G75*
G02X5096Y5237I-55J-4*
G01*
G75*
G02X5096Y5236I-55J0*
G01*
X5104*
X5140Y5200*
Y5174*
X5143Y5171*
G75*
G02X5156Y5141I-29J-30*
G01*
Y4904*
G75*
G02X5140Y4870I-42*
G01*
X5071Y4817*
Y4790*
G37*
X5079Y2375D02*
X5114Y2341D01*
Y2104*
X5029Y2038*
X5079Y5175D02*
X5114Y5141D01*
Y4904*
X5029Y4838*
X5729Y1925D02*
Y1563D01*
X5679Y1513*
X5729Y4725D02*
Y4363D01*
X5679Y4313*
X6079Y2675D02*
Y75D01*
X8879*
Y2675*
X6079*
X6165Y161D02*
Y389D01*
X6393*
Y161*
X6165*
X6173Y1831D02*
X6141Y1862D01*
G75*
G02X6131Y1888I25J25*
G01*
Y2128*
G75*
G02X6141Y2153I36*
G01*
X6349Y2361*
X6165*
Y2589*
X6393*
Y2439*
X6504Y2550*
G75*
G02X6529Y2561I25J-25*
G01*
X7316*
G75*
G02X7341Y2550I0J-36*
G01*
X7466Y2425*
G75*
G02X7477Y2400I-25J-25*
G01*
Y2230*
G75*
G02X7466Y2205I-36J0*
G01*
X7449Y2187*
G75*
G02X7424Y2177I-25J25*
G01*
X7306*
X7263Y2134*
X7285*
X7300Y2119*
G75*
G02X7302Y2121I28J-19*
G01*
G75*
G02X7302Y2125I51J4*
G01*
G75*
G02X7391Y2160I52*
G01*
G75*
G02X7480Y2125I38J-35*
G01*
G75*
G02X7463Y2086I-52*
G01*
Y2073*
X7468*
X7478*
X7720Y2314*
X7718*
Y2436*
X7743*
Y2467*
G75*
G02X7754Y2493I36*
G01*
X7799Y2538*
G75*
G02X7824Y2548I25J-25*
G01*
X8204*
G75*
G02X8229Y2538J-36*
G01*
X8366Y2400*
G75*
G02X8377Y2375I-25J-25*
G01*
Y1920*
G75*
G02X8366Y1895I-36*
G01*
X8321Y1850*
G75*
G02X8296Y1840I-25J25*
G01*
X8212*
Y1837*
X8116*
Y1912*
Y1913*
Y1927*
G75*
G02X8106Y1919I-17J11*
G01*
Y1870*
X8101*
Y1837*
X8061*
X8080Y1819*
Y1797*
X8170Y1684*
X8408*
G75*
G02X8432Y1674I0J-34*
G01*
X8503Y1603*
G75*
G02X8513Y1579I-24J-24*
G01*
Y1560*
X8534*
Y1493*
Y1457*
Y1413*
X8574*
X8583*
X8623*
Y1457*
Y1493*
Y1560*
X8667*
X8687Y1580*
Y1864*
X8668*
Y1986*
X8674*
X8663Y1998*
Y2052*
X8689Y2079*
X8668Y2100*
Y2150*
X8689Y2171*
X8663Y2198*
Y2252*
X8701Y2291*
X8756*
X8795Y2252*
Y2198*
X8769Y2171*
X8790Y2150*
Y2114*
X8816Y2088*
G75*
G02X8827Y2063I-25J-25*
G01*
Y917*
X8837Y907*
Y868*
X8810Y842*
X8772*
X8745Y868*
Y907*
X8756Y917*
Y982*
X8588*
X8569*
X8388*
X8369*
X8169*
Y1201*
X8369*
X8388*
X8569*
X8588*
X8756*
Y1204*
X8583*
X8574*
X8383*
X8374*
X8174*
Y1413*
X8223*
Y1457*
Y1479*
X8022*
X8010Y1466*
X7972*
X7945Y1493*
Y1532*
X7972Y1559*
X8010*
X8022Y1547*
X8223*
Y1560*
X8334*
Y1493*
Y1457*
Y1413*
X8374*
X8383*
X8423*
Y1457*
Y1493*
Y1560*
X8445*
Y1565*
X8394Y1616*
X8154*
G75*
G02X8127Y1629J34*
G01*
X8027Y1754*
X8015*
X7988Y1780*
Y1817*
X7948*
X7910*
X7858*
Y1467*
X7959Y1367*
X8008*
Y1381*
X8099*
Y1319*
X8104*
Y1214*
X8021*
Y1131*
X8016*
Y1114*
Y1109*
X8048*
X8060Y1121*
X8098*
X8125Y1094*
Y1056*
X8098Y1029*
X8060*
X8048Y1041*
X8016*
Y1036*
Y1013*
X8016Y1013*
G75*
G02X8027Y988I-25J-25*
G01*
Y871*
G75*
G02X8104Y845I27J-46*
G01*
G75*
G02X8204I50J-20*
G01*
G75*
G02X8301Y851I50J-20*
G01*
G75*
G02X8412Y825I53J-26*
G01*
G75*
G02X8333Y770I-59*
G01*
G75*
G02X8357Y725I-29J-45*
G01*
G75*
G02X8254Y705I-54*
G01*
G75*
G02X8200Y671I-50J20*
G01*
X8166Y637*
G75*
G02X8141Y627I-25J25*
G01*
X7980*
X7912Y559*
G75*
G02X8048Y475I42J-84*
G01*
G75*
G02X7867Y438I-94*
G01*
G75*
G02X7866Y437I-26J24*
G01*
X7830Y401*
G75*
G02X7830Y400I-52J-1*
G01*
G75*
G02X7727I-52*
G01*
G75*
G02X7780Y452I52*
G01*
X7806Y477*
Y539*
G75*
G02X7816Y564I36J0*
G01*
X7940Y688*
G75*
G02X7958Y697I25J-25*
G01*
G75*
G02X7950Y725I46J28*
G01*
G75*
G02X7956Y749I54*
G01*
Y973*
X7942Y986*
X7884*
Y1036*
Y1064*
Y1086*
Y1114*
Y1131*
X7879*
Y1219*
X7884*
Y1231*
X7879*
Y1319*
X7884*
Y1323*
X7787Y1420*
G75*
G02X7774Y1450I30J30*
G01*
Y1990*
X7748*
Y2014*
X7723*
Y1998*
X7612*
Y2065*
Y2101*
Y2110*
X7518Y2016*
Y1954*
X7498*
X7728Y1724*
G75*
G02X7738Y1700I-24J-24*
G01*
Y1445*
X7803Y1380*
G75*
G02X7813Y1356I-24J-24*
G01*
Y1250*
G75*
G02X7803Y1226I-34J0*
G01*
X7778Y1201*
G75*
G02X7774Y1198I-24J24*
G01*
Y1186*
Y1171*
X7810*
X7837Y1144*
Y1106*
X7810Y1079*
X7774*
Y1069*
X7779*
Y981*
X7637*
Y1041*
X7618*
G75*
G02X7608Y1032I-39J34*
G01*
G75*
G02X7603Y1026I-29J18*
G01*
X7587Y1010*
Y993*
X7560Y967*
X7525*
Y864*
X7562*
X7582Y844*
X7597Y859*
X7635*
Y866*
X7773*
Y750*
X7635*
Y766*
X7597*
X7582Y781*
X7562Y761*
X7520*
X7498Y784*
X7433Y718*
G75*
G02X7391Y683I-41J7*
G01*
X7387*
G75*
G02X7360Y672I-33J42*
G01*
X7358Y670*
Y308*
X7438Y246*
X7448*
X7475Y219*
Y181*
X7448Y154*
X7410*
X7383Y181*
Y183*
X7302Y246*
X7004*
G75*
G02X6972Y260I0J42*
G01*
X6772Y485*
G75*
G02X6762Y513I31J28*
G01*
Y770*
X6759Y773*
Y644*
X6599*
Y807*
X6725*
X6684Y848*
X6604*
Y883*
X6571*
Y875*
Y866*
Y789*
X6576*
Y679*
X6426*
Y783*
X6403*
G75*
G02X6379I-12J42*
G01*
X6371*
Y655*
X6508*
Y495*
X6369*
Y500*
X6254*
Y533*
X6240*
G75*
G02X6148Y575I-36J42*
G01*
G75*
G02X6240Y617I56*
G01*
X6254*
Y650*
X6287*
Y728*
X6187*
Y922*
X6326*
Y869*
G75*
G02X6341Y867I3J-44*
G01*
X6348*
Y1675*
G75*
G02X6361Y1706I44*
G01*
X6435Y1779*
Y1882*
X6391Y1926*
X6385Y1919*
Y1902*
X6364Y1881*
X6385*
Y1769*
X6273*
Y1790*
X6252Y1769*
X6206*
X6173Y1802*
Y1831*
X6181Y1614D02*
X6168D01*
Y1736*
X6290*
Y1614*
X6276*
X6290Y1600*
Y1550*
X6265Y1525*
X6290Y1500*
Y1450*
X6265Y1425*
X6290Y1400*
Y1350*
X6265Y1325*
X6290Y1300*
Y1250*
X6269Y1229*
X6295Y1202*
Y1148*
X6256Y1109*
X6201*
X6163Y1148*
Y1202*
X6189Y1229*
X6168Y1250*
Y1300*
X6192Y1325*
X6168Y1350*
Y1400*
X6192Y1425*
X6168Y1450*
Y1500*
X6192Y1525*
X6168Y1550*
Y1600*
X6181Y1614*
X7360Y475D02*
G75*
G02X7548I94D01*
G01*
G75*
G02X7360I-94*
G01*
X7778Y579D02*
X7630D01*
Y705*
X7778*
Y579*
X8310Y475D02*
G75*
G02X8498I94D01*
G01*
G75*
G02X8310I-94*
G01*
X8375Y170D02*
G75*
G02X8349Y196J26D01*
G01*
Y252*
G75*
G02X8375Y278I26*
G01*
X8503*
G75*
G02X8529Y252J-26*
G01*
Y196*
G75*
G02X8503Y170I-26*
G01*
X8375*
X8565Y161D02*
Y389D01*
X8793*
Y161*
X8565*
Y2361D02*
Y2589D01*
X8793*
Y2361*
X8565*
X6079Y275D02*
G36*
Y75D01*
X8879*
Y275*
X8793*
Y161*
X8565*
Y275*
X8515*
G75*
G02X8529Y252I-12J-23*
G01*
Y196*
G75*
G02X8503Y170I-26*
G01*
X8375*
G75*
G02X8349Y196J26*
G01*
Y252*
G75*
G02X8363Y275I26*
G01*
X7401*
X7438Y246*
X7448*
X7475Y219*
Y181*
X7448Y154*
X7410*
X7383Y181*
Y183*
X7302Y246*
X7004*
G75*
G02X6972Y260I0J42*
G01*
X6959Y275*
X6393*
Y161*
X6165*
Y275*
X6079*
G37*
X6165D02*
G36*
Y389D01*
X6393*
Y275*
X6959*
X6781Y475*
X6079*
Y275*
X6165*
G37*
X8363D02*
G36*
G75*
G02X8375Y278I12J-23D01*
G01*
X8503*
G75*
G02X8515Y275J-26*
G01*
X8565*
Y389*
X8793*
Y275*
X8879*
Y475*
X8498*
G75*
G02X8310I-94*
G01*
X8048*
G75*
G02X7867Y438I-94*
G01*
G75*
G02X7866Y437I-26J24*
G01*
X7830Y401*
G75*
G02X7830Y400I-52J-1*
G01*
G75*
G02X7727I-52*
G01*
G75*
G02X7780Y452I52*
G01*
X7803Y475*
X7548*
G75*
G02X7360I-94*
G01*
X7358*
Y308*
X7401Y275*
X8363*
G37*
X6079Y1423D02*
G36*
Y642D01*
X6254*
Y650*
X6287*
Y728*
X6187*
Y922*
X6326*
Y869*
G75*
G02X6341Y867I3J-44*
G01*
X6348*
Y1423*
X6268*
X6290Y1400*
Y1350*
X6265Y1325*
X6290Y1300*
Y1250*
X6269Y1229*
X6295Y1202*
Y1148*
X6256Y1109*
X6201*
X6163Y1148*
Y1202*
X6189Y1229*
X6168Y1250*
Y1300*
X6192Y1325*
X6168Y1350*
Y1400*
X6190Y1423*
X6079*
G37*
X6190D02*
G36*
X6192Y1425D01*
X6168Y1450*
Y1500*
X6192Y1525*
X6168Y1550*
Y1600*
X6181Y1614*
X6168*
Y1736*
X6290*
Y1614*
X6276*
X6290Y1600*
Y1550*
X6265Y1525*
X6290Y1500*
Y1450*
X6265Y1425*
X6268Y1423*
X6348*
Y1675*
G75*
G02X6361Y1706I44*
G01*
X6435Y1779*
Y1882*
X6391Y1926*
X6385Y1919*
Y1902*
X6364Y1881*
X6385*
Y1769*
X6273*
Y1790*
X6252Y1769*
X6206*
X6173Y1802*
Y1831*
X6141Y1862*
G75*
G02X6131Y1888I25J25*
G01*
Y2128*
G75*
G02X6141Y2153I36*
G01*
X6349Y2361*
X6165*
Y2475*
X6079*
Y1423*
X6190*
G37*
X8827D02*
G36*
Y917D01*
X8837Y907*
Y868*
X8810Y842*
X8772*
X8745Y868*
Y907*
X8756Y917*
Y982*
X8169*
Y1201*
X8756*
Y1204*
X8174*
Y1413*
X8223*
Y1479*
X8022*
X8010Y1466*
X7972*
X7945Y1493*
Y1532*
X7972Y1559*
X8010*
X8022Y1547*
X8223*
Y1560*
X8334*
Y1413*
X8423*
Y1560*
X8445*
Y1565*
X8394Y1616*
X8154*
G75*
G02X8127Y1629J34*
G01*
X8027Y1754*
X8015*
X7988Y1780*
Y1817*
X7858*
Y1467*
X7959Y1367*
X8008*
Y1381*
X8099*
Y1319*
X8104*
Y1214*
X8021*
Y1131*
X8016*
Y1109*
X8048*
X8060Y1121*
X8098*
X8125Y1094*
Y1056*
X8098Y1029*
X8060*
X8048Y1041*
X8016*
Y1013*
X8016Y1013*
G75*
G02X8027Y988I-25J-25*
G01*
Y871*
G75*
G02X8104Y845I27J-46*
G01*
G75*
G02X8204I50J-20*
G01*
G75*
G02X8301Y851I50J-20*
G01*
G75*
G02X8412Y825I53J-26*
G01*
G75*
G02X8333Y770I-59*
G01*
G75*
G02X8357Y725I-29J-45*
G01*
G75*
G02X8254Y705I-54*
G01*
G75*
G02X8200Y671I-50J20*
G01*
X8171Y642*
X8879*
Y1423*
X8827*
G37*
X8879D02*
G36*
Y2475D01*
X8793*
Y2361*
X8565*
Y2475*
X8292*
X8366Y2400*
G75*
G02X8377Y2375I-25J-25*
G01*
Y1920*
G75*
G02X8366Y1895I-36*
G01*
X8321Y1850*
G75*
G02X8296Y1840I-25J25*
G01*
X8212*
Y1837*
X8116*
Y1927*
G75*
G02X8106Y1919I-17J11*
G01*
Y1870*
X8101*
Y1837*
X8061*
X8080Y1819*
Y1797*
X8170Y1684*
X8408*
G75*
G02X8432Y1674I0J-34*
G01*
X8503Y1603*
G75*
G02X8513Y1579I-24J-24*
G01*
Y1560*
X8534*
Y1413*
X8623*
Y1560*
X8667*
X8687Y1580*
Y1864*
X8668*
Y1986*
X8674*
X8663Y1998*
Y2052*
X8689Y2079*
X8668Y2100*
Y2150*
X8689Y2171*
X8663Y2198*
Y2252*
X8701Y2291*
X8756*
X8795Y2252*
Y2198*
X8769Y2171*
X8790Y2150*
Y2114*
X8816Y2088*
G75*
G02X8827Y2063I-25J-25*
G01*
Y1423*
X8879*
G37*
X6781Y475D02*
G36*
X6772Y485D01*
G75*
G02X6762Y513I31J28*
G01*
Y770*
X6759Y773*
Y644*
X6599*
Y807*
X6725*
X6684Y848*
X6604*
Y883*
X6571*
Y789*
X6576*
Y679*
X6426*
Y783*
X6403*
G75*
G02X6379I-12J42*
G01*
X6371*
Y655*
X6508*
Y495*
X6369*
Y500*
X6254*
Y533*
X6240*
G75*
G02X6148Y575I-36J42*
G01*
G75*
G02X6240Y617I56*
G01*
X6254*
Y642*
X6079*
Y475*
X6781*
G37*
X7360D02*
G36*
G75*
G02X7548I94D01*
G01*
X7803*
X7806Y477*
Y539*
G75*
G02X7816Y564I36J0*
G01*
X7894Y642*
X7778*
Y579*
X7630*
Y642*
X7358*
Y475*
X7360*
G37*
X8310D02*
G36*
G75*
G02X8498I94D01*
G01*
X8879*
Y642*
X8171*
X8166Y637*
G75*
G02X8141Y627I-25J25*
G01*
X7980*
X7912Y559*
G75*
G02X8048Y475I42J-84*
G01*
X8310*
G37*
X7630Y642D02*
G36*
Y705D01*
X7778*
Y642*
X7894*
X7940Y688*
G75*
G02X7958Y697I25J-25*
G01*
G75*
G02X7956Y749I46J28*
G01*
Y973*
X7942Y986*
X7884*
Y1131*
X7879*
Y1219*
X7884*
Y1231*
X7879*
Y1319*
X7884*
Y1323*
X7787Y1420*
G75*
G02X7774Y1450I30J30*
G01*
Y1990*
X7748*
Y2014*
X7723*
Y1998*
X7612*
Y2110*
X7518Y2016*
Y1954*
X7498*
X7728Y1724*
G75*
G02X7738Y1700I-24J-24*
G01*
Y1445*
X7803Y1380*
G75*
G02X7813Y1356I-24J-24*
G01*
Y1250*
G75*
G02X7803Y1226I-34J0*
G01*
X7778Y1201*
G75*
G02X7774Y1198I-24J24*
G01*
Y1171*
X7810*
X7837Y1144*
Y1106*
X7810Y1079*
X7774*
Y1069*
X7779*
Y981*
X7637*
Y1041*
X7618*
G75*
G02X7608Y1032I-39J34*
G01*
G75*
G02X7603Y1026I-29J18*
G01*
X7587Y1010*
Y993*
X7560Y967*
X7525*
Y864*
X7562*
X7582Y844*
X7597Y859*
X7635*
Y866*
X7773*
Y750*
X7635*
Y766*
X7597*
X7582Y781*
X7562Y761*
X7520*
X7498Y784*
X7433Y718*
G75*
G02X7391Y683I-41J7*
G01*
X7387*
G75*
G02X7360Y672I-33J42*
G01*
X7358Y670*
Y642*
X7630*
G37*
X6165Y2475D02*
G36*
Y2589D01*
X6393*
Y2439*
X6504Y2550*
G75*
G02X6529Y2561I25J-25*
G01*
X7316*
G75*
G02X7341Y2550I0J-36*
G01*
X7466Y2425*
G75*
G02X7477Y2400I-25J-25*
G01*
Y2230*
G75*
G02X7466Y2205I-36J0*
G01*
X7449Y2187*
G75*
G02X7424Y2177I-25J25*
G01*
X7306*
X7263Y2134*
X7285*
X7300Y2119*
G75*
G02X7302Y2121I28J-19*
G01*
G75*
G02X7302Y2125I51J4*
G01*
G75*
G02X7391Y2160I52*
G01*
G75*
G02X7480Y2125I38J-35*
G01*
G75*
G02X7463Y2086I-52*
G01*
Y2073*
X7478*
X7720Y2314*
X7718*
Y2436*
X7743*
Y2467*
G75*
G02X7754Y2493I36*
G01*
X7799Y2538*
G75*
G02X7824Y2548I25J-25*
G01*
X8204*
G75*
G02X8229Y2538J-36*
G01*
X8292Y2475*
X8565*
Y2589*
X8793*
Y2475*
X8879*
Y2675*
X6079*
Y2475*
X6165*
G37*
X6079Y5475D02*
Y2875D01*
X8879*
Y5475*
X6079*
X6165Y2961D02*
Y3189D01*
X6393*
Y2961*
X6165*
X6173Y4633D02*
X6142Y4663D01*
G75*
G02X6132Y4687I24J24*
G01*
Y4928*
G75*
G02X6142Y4952I34*
G01*
X6352Y5161*
X6165*
Y5389*
X6393*
Y5237*
X6505Y5349*
G75*
G02X6529Y5359I24J-24*
G01*
X7316*
G75*
G02X7340Y5349I0J-34*
G01*
X7465Y5224*
G75*
G02X7475Y5200I-24J-24*
G01*
Y5030*
G75*
G02X7465Y5006I-34J0*
G01*
X7448Y4988*
G75*
G02X7424Y4979I-24J24*
G01*
X7305*
X7260Y4934*
X7285*
X7300Y4919*
G75*
G02X7302Y4921I28J-19*
G01*
G75*
G02X7302Y4925I51J4*
G01*
G75*
G02X7391Y4960I52*
G01*
G75*
G02X7480Y4925I38J-35*
G01*
G75*
G02X7463Y4886I-52*
G01*
Y4873*
X7468*
X7478*
X7720Y5114*
X7718*
Y5236*
X7743*
Y5267*
G75*
G02X7754Y5293I36J0*
G01*
X7799Y5338*
G75*
G02X7824Y5348I25J-25*
G01*
X8204*
G75*
G02X8229Y5338I0J-36*
G01*
X8366Y5200*
G75*
G02X8377Y5175I-25J-25*
G01*
Y4720*
G75*
G02X8366Y4695I-36J0*
G01*
X8321Y4650*
G75*
G02X8296Y4640I-25J25*
G01*
X8212*
Y4637*
X8116*
Y4712*
Y4713*
Y4727*
G75*
G02X8106Y4719I-17J11*
G01*
Y4670*
X8101*
Y4637*
X8061*
X8080Y4619*
Y4596*
X8170Y4484*
X8408*
G75*
G02X8432Y4474I0J-34*
G01*
X8503Y4403*
G75*
G02X8513Y4379I-24J-24*
G01*
Y4360*
X8534*
Y4293*
Y4257*
Y4213*
X8574*
X8583*
X8623*
Y4257*
Y4293*
Y4360*
X8667*
X8687Y4380*
Y4664*
X8668*
Y4786*
X8674*
X8663Y4798*
Y4852*
X8689Y4879*
X8668Y4900*
Y4950*
X8689Y4971*
X8663Y4998*
Y5052*
X8701Y5091*
X8756*
X8795Y5052*
Y4998*
X8769Y4971*
X8790Y4950*
Y4914*
X8816Y4888*
G75*
G02X8827Y4863I-25J-25*
G01*
Y3717*
X8837Y3707*
Y3668*
X8810Y3642*
X8772*
X8745Y3668*
Y3707*
X8756Y3717*
Y3782*
X8588*
X8569*
X8388*
X8369*
X8169*
Y4001*
X8369*
X8388*
X8569*
X8588*
X8756*
Y4004*
X8583*
X8574*
X8383*
X8374*
X8174*
Y4213*
X8223*
Y4257*
Y4279*
X8022*
X8010Y4267*
X7972*
X7945Y4293*
Y4332*
X7972Y4359*
X8010*
X8022Y4347*
X8223*
Y4360*
X8334*
Y4293*
Y4257*
Y4213*
X8374*
X8383*
X8423*
Y4257*
Y4293*
Y4360*
X8445*
Y4365*
X8394Y4416*
X8154*
G75*
G02X8127Y4429J34*
G01*
X8027Y4553*
X8015*
X7988Y4580*
Y4618*
X7948*
X7910*
X7858*
Y4267*
X7959Y4167*
X8008*
Y4181*
X8099*
Y4119*
X8104*
Y4014*
X8021*
Y3931*
X8016*
Y3914*
Y3909*
X8048*
X8060Y3921*
X8098*
X8125Y3894*
Y3856*
X8098Y3829*
X8060*
X8048Y3841*
X8016*
Y3836*
Y3813*
X8016Y3813*
G75*
G02X8027Y3788I-25J-25*
G01*
Y3671*
G75*
G02X8104Y3645I27J-46*
G01*
G75*
G02X8204I50J-20*
G01*
G75*
G02X8301Y3651I50J-20*
G01*
G75*
G02X8412Y3625I53J-26*
G01*
G75*
G02X8333Y3570I-59*
G01*
G75*
G02X8357Y3525I-29J-45*
G01*
G75*
G02X8254Y3505I-54*
G01*
G75*
G02X8200Y3471I-50J20*
G01*
X8166Y3437*
G75*
G02X8141Y3427I-25J25*
G01*
X7980*
X7912Y3359*
G75*
G02X8048Y3275I42J-84*
G01*
G75*
G02X7867Y3238I-94*
G01*
G75*
G02X7866Y3237I-26J24*
G01*
X7830Y3201*
G75*
G02X7830Y3200I-52J-1*
G01*
G75*
G02X7727I-52*
G01*
G75*
G02X7780Y3252I52*
G01*
X7806Y3277*
Y3339*
G75*
G02X7816Y3364I36J0*
G01*
X7940Y3488*
G75*
G02X7958Y3497I25J-25*
G01*
G75*
G02X7950Y3525I46J28*
G01*
G75*
G02X7956Y3549I54*
G01*
Y3773*
X7942Y3786*
X7884*
Y3836*
Y3864*
Y3886*
Y3914*
Y3931*
X7879*
Y4019*
X7884*
Y4031*
X7879*
Y4119*
X7884*
Y4123*
X7787Y4220*
G75*
G02X7774Y4250I30J30*
G01*
Y4790*
X7748*
Y4814*
X7723*
Y4798*
X7612*
Y4865*
Y4901*
Y4910*
X7518Y4816*
Y4754*
X7498*
X7728Y4524*
G75*
G02X7738Y4500I-24J-24*
G01*
Y4245*
X7803Y4180*
G75*
G02X7813Y4156I-24J-24*
G01*
Y4050*
G75*
G02X7803Y4026I-34J0*
G01*
X7778Y4001*
G75*
G02X7774Y3998I-24J24*
G01*
Y3986*
Y3971*
X7810*
X7837Y3944*
Y3906*
X7810Y3879*
X7774*
Y3869*
X7779*
Y3781*
X7637*
Y3841*
X7618*
G75*
G02X7608Y3832I-39J34*
G01*
G75*
G02X7603Y3826I-29J18*
G01*
X7587Y3810*
Y3793*
X7560Y3767*
X7525*
Y3663*
X7562*
X7582Y3644*
X7597Y3659*
X7635*
Y3666*
X7773*
Y3550*
X7635*
Y3567*
X7597*
X7582Y3581*
X7562Y3562*
X7520*
X7498Y3584*
X7433Y3518*
G75*
G02X7391Y3483I-41J7*
G01*
X7387*
G75*
G02X7360Y3472I-33J42*
G01*
X7358Y3470*
Y3108*
X7438Y3046*
X7448*
X7475Y3019*
Y2981*
X7448Y2954*
X7410*
X7383Y2981*
Y2983*
X7302Y3046*
X7004*
G75*
G02X6972Y3060I0J42*
G01*
X6772Y3285*
G75*
G02X6762Y3313I31J28*
G01*
Y3570*
X6759Y3573*
Y3444*
X6599*
Y3607*
X6725*
X6684Y3648*
X6604*
Y3683*
X6571*
Y3675*
Y3666*
Y3589*
X6576*
Y3479*
X6426*
Y3583*
X6403*
G75*
G02X6379I-12J42*
G01*
X6371*
Y3455*
X6508*
Y3295*
X6369*
Y3300*
X6254*
Y3333*
X6240*
G75*
G02X6148Y3375I-36J42*
G01*
G75*
G02X6240Y3417I56*
G01*
X6254*
Y3450*
X6287*
Y3528*
X6187*
Y3722*
X6326*
Y3669*
G75*
G02X6341Y3667I3J-44*
G01*
X6348*
Y4475*
G75*
G02X6361Y4506I44*
G01*
X6435Y4579*
Y4682*
X6390Y4727*
X6385Y4722*
Y4702*
X6364Y4681*
X6385*
Y4569*
X6273*
Y4590*
X6252Y4569*
X6206*
X6173Y4602*
Y4633*
X6181Y4414D02*
X6168D01*
Y4536*
X6290*
Y4414*
X6276*
X6290Y4400*
Y4350*
X6265Y4325*
X6290Y4300*
Y4250*
X6265Y4225*
X6290Y4200*
Y4150*
X6265Y4125*
X6290Y4100*
Y4050*
X6269Y4029*
X6295Y4002*
Y3948*
X6256Y3909*
X6201*
X6163Y3948*
Y4002*
X6189Y4029*
X6168Y4050*
Y4100*
X6192Y4125*
X6168Y4150*
Y4200*
X6192Y4225*
X6168Y4250*
Y4300*
X6192Y4325*
X6168Y4350*
Y4400*
X6181Y4414*
X7360Y3275D02*
G75*
G02X7548I94D01*
G01*
G75*
G02X7360I-94*
G01*
X7778Y3379D02*
X7630D01*
Y3505*
X7778*
Y3379*
X8310Y3275D02*
G75*
G02X8498I94D01*
G01*
G75*
G02X8310I-94*
G01*
X8375Y2970D02*
G75*
G02X8349Y2996J26D01*
G01*
Y3052*
G75*
G02X8375Y3078I26*
G01*
X8503*
G75*
G02X8529Y3052J-26*
G01*
Y2996*
G75*
G02X8503Y2970I-26*
G01*
X8375*
X8565Y2961D02*
Y3189D01*
X8793*
Y2961*
X8565*
Y5161D02*
Y5389D01*
X8793*
Y5161*
X8565*
X6079Y3075D02*
G36*
Y2875D01*
X8879*
Y3075*
X8793*
Y2961*
X8565*
Y3075*
X8515*
G75*
G02X8529Y3052I-12J-23*
G01*
Y2996*
G75*
G02X8503Y2970I-26*
G01*
X8375*
G75*
G02X8349Y2996J26*
G01*
Y3052*
G75*
G02X8363Y3075I26*
G01*
X7401*
X7438Y3046*
X7448*
X7475Y3019*
Y2981*
X7448Y2954*
X7410*
X7383Y2981*
Y2983*
X7302Y3046*
X7004*
G75*
G02X6972Y3060I0J42*
G01*
X6959Y3075*
X6393*
Y2961*
X6165*
Y3075*
X6079*
G37*
X6165D02*
G36*
Y3189D01*
X6393*
Y3075*
X6959*
X6781Y3275*
X6079*
Y3075*
X6165*
G37*
X8363D02*
G36*
G75*
G02X8375Y3078I12J-23D01*
G01*
X8503*
G75*
G02X8515Y3075J-26*
G01*
X8565*
Y3189*
X8793*
Y3075*
X8879*
Y3275*
X8498*
G75*
G02X8310I-94*
G01*
X8048*
G75*
G02X7867Y3238I-94*
G01*
G75*
G02X7866Y3237I-26J24*
G01*
X7830Y3201*
G75*
G02X7830Y3200I-52J-1*
G01*
G75*
G02X7727I-52*
G01*
G75*
G02X7780Y3252I52*
G01*
X7803Y3275*
X7548*
G75*
G02X7360I-94*
G01*
X7358*
Y3108*
X7401Y3075*
X8363*
G37*
X6079Y4223D02*
G36*
Y3442D01*
X6254*
Y3450*
X6287*
Y3528*
X6187*
Y3722*
X6326*
Y3669*
G75*
G02X6341Y3667I3J-44*
G01*
X6348*
Y4223*
X6268*
X6290Y4200*
Y4150*
X6265Y4125*
X6290Y4100*
Y4050*
X6269Y4029*
X6295Y4002*
Y3948*
X6256Y3909*
X6201*
X6163Y3948*
Y4002*
X6189Y4029*
X6168Y4050*
Y4100*
X6192Y4125*
X6168Y4150*
Y4200*
X6190Y4223*
X6079*
G37*
X6190D02*
G36*
X6192Y4225D01*
X6168Y4250*
Y4300*
X6192Y4325*
X6168Y4350*
Y4400*
X6181Y4414*
X6168*
Y4536*
X6290*
Y4414*
X6276*
X6290Y4400*
Y4350*
X6265Y4325*
X6290Y4300*
Y4250*
X6265Y4225*
X6268Y4223*
X6348*
Y4475*
G75*
G02X6361Y4506I44*
G01*
X6435Y4579*
Y4682*
X6390Y4727*
X6385Y4722*
Y4702*
X6364Y4681*
X6385*
Y4569*
X6273*
Y4590*
X6252Y4569*
X6206*
X6173Y4602*
Y4633*
X6142Y4663*
G75*
G02X6132Y4687I24J24*
G01*
Y4928*
G75*
G02X6142Y4952I34*
G01*
X6352Y5161*
X6165*
Y5275*
X6079*
Y4223*
X6190*
G37*
X8827D02*
G36*
Y3717D01*
X8837Y3707*
Y3668*
X8810Y3642*
X8772*
X8745Y3668*
Y3707*
X8756Y3717*
Y3782*
X8169*
Y4001*
X8756*
Y4004*
X8174*
Y4213*
X8223*
Y4279*
X8022*
X8010Y4267*
X7972*
X7945Y4293*
Y4332*
X7972Y4359*
X8010*
X8022Y4347*
X8223*
Y4360*
X8334*
Y4213*
X8423*
Y4360*
X8445*
Y4365*
X8394Y4416*
X8154*
G75*
G02X8127Y4429J34*
G01*
X8027Y4553*
X8015*
X7988Y4580*
Y4618*
X7858*
Y4267*
X7959Y4167*
X8008*
Y4181*
X8099*
Y4119*
X8104*
Y4014*
X8021*
Y3931*
X8016*
Y3909*
X8048*
X8060Y3921*
X8098*
X8125Y3894*
Y3856*
X8098Y3829*
X8060*
X8048Y3841*
X8016*
Y3813*
X8016Y3813*
G75*
G02X8027Y3788I-25J-25*
G01*
Y3671*
G75*
G02X8104Y3645I27J-46*
G01*
G75*
G02X8204I50J-20*
G01*
G75*
G02X8301Y3651I50J-20*
G01*
G75*
G02X8412Y3625I53J-26*
G01*
G75*
G02X8333Y3570I-59*
G01*
G75*
G02X8357Y3525I-29J-45*
G01*
G75*
G02X8254Y3505I-54*
G01*
G75*
G02X8200Y3471I-50J20*
G01*
X8171Y3442*
X8879*
Y4223*
X8827*
G37*
X8879D02*
G36*
Y5275D01*
X8793*
Y5161*
X8565*
Y5275*
X8292*
X8366Y5200*
G75*
G02X8377Y5175I-25J-25*
G01*
Y4720*
G75*
G02X8366Y4695I-36J0*
G01*
X8321Y4650*
G75*
G02X8296Y4640I-25J25*
G01*
X8212*
Y4637*
X8116*
Y4727*
G75*
G02X8106Y4719I-17J11*
G01*
Y4670*
X8101*
Y4637*
X8061*
X8080Y4619*
Y4596*
X8170Y4484*
X8408*
G75*
G02X8432Y4474I0J-34*
G01*
X8503Y4403*
G75*
G02X8513Y4379I-24J-24*
G01*
Y4360*
X8534*
Y4213*
X8623*
Y4360*
X8667*
X8687Y4380*
Y4664*
X8668*
Y4786*
X8674*
X8663Y4798*
Y4852*
X8689Y4879*
X8668Y4900*
Y4950*
X8689Y4971*
X8663Y4998*
Y5052*
X8701Y5091*
X8756*
X8795Y5052*
Y4998*
X8769Y4971*
X8790Y4950*
Y4914*
X8816Y4888*
G75*
G02X8827Y4863I-25J-25*
G01*
Y4223*
X8879*
G37*
X6781Y3275D02*
G36*
X6772Y3285D01*
G75*
G02X6762Y3313I31J28*
G01*
Y3570*
X6759Y3573*
Y3444*
X6599*
Y3607*
X6725*
X6684Y3648*
X6604*
Y3683*
X6571*
Y3589*
X6576*
Y3479*
X6426*
Y3583*
X6403*
G75*
G02X6379I-12J42*
G01*
X6371*
Y3455*
X6508*
Y3295*
X6369*
Y3300*
X6254*
Y3333*
X6240*
G75*
G02X6148Y3375I-36J42*
G01*
G75*
G02X6240Y3417I56*
G01*
X6254*
Y3442*
X6079*
Y3275*
X6781*
G37*
X7360D02*
G36*
G75*
G02X7548I94D01*
G01*
X7803*
X7806Y3277*
Y3339*
G75*
G02X7816Y3364I36J0*
G01*
X7894Y3442*
X7778*
Y3379*
X7630*
Y3442*
X7358*
Y3275*
X7360*
G37*
X8310D02*
G36*
G75*
G02X8498I94D01*
G01*
X8879*
Y3442*
X8171*
X8166Y3437*
G75*
G02X8141Y3427I-25J25*
G01*
X7980*
X7912Y3359*
G75*
G02X8048Y3275I42J-84*
G01*
X8310*
G37*
X7630Y3442D02*
G36*
Y3505D01*
X7778*
Y3442*
X7894*
X7940Y3488*
G75*
G02X7958Y3497I25J-25*
G01*
G75*
G02X7956Y3549I46J28*
G01*
Y3773*
X7942Y3786*
X7884*
Y3931*
X7879*
Y4019*
X7884*
Y4031*
X7879*
Y4119*
X7884*
Y4123*
X7787Y4220*
G75*
G02X7774Y4250I30J30*
G01*
Y4790*
X7748*
Y4814*
X7723*
Y4798*
X7612*
Y4910*
X7518Y4816*
Y4754*
X7498*
X7728Y4524*
G75*
G02X7738Y4500I-24J-24*
G01*
Y4245*
X7803Y4180*
G75*
G02X7813Y4156I-24J-24*
G01*
Y4050*
G75*
G02X7803Y4026I-34J0*
G01*
X7778Y4001*
G75*
G02X7774Y3998I-24J24*
G01*
Y3971*
X7810*
X7837Y3944*
Y3906*
X7810Y3879*
X7774*
Y3869*
X7779*
Y3781*
X7637*
Y3841*
X7618*
G75*
G02X7608Y3832I-39J34*
G01*
G75*
G02X7603Y3826I-29J18*
G01*
X7587Y3810*
Y3793*
X7560Y3767*
X7525*
Y3663*
X7562*
X7582Y3644*
X7597Y3659*
X7635*
Y3666*
X7773*
Y3550*
X7635*
Y3567*
X7597*
X7582Y3581*
X7562Y3562*
X7520*
X7498Y3584*
X7433Y3518*
G75*
G02X7391Y3483I-41J7*
G01*
X7387*
G75*
G02X7360Y3472I-33J42*
G01*
X7358Y3470*
Y3442*
X7630*
G37*
X6165Y5275D02*
G36*
Y5389D01*
X6393*
Y5237*
X6505Y5349*
G75*
G02X6529Y5359I24J-24*
G01*
X7316*
G75*
G02X7340Y5349I0J-34*
G01*
X7465Y5224*
G75*
G02X7475Y5200I-24J-24*
G01*
Y5030*
G75*
G02X7465Y5006I-34J0*
G01*
X7448Y4988*
G75*
G02X7424Y4979I-24J24*
G01*
X7305*
X7260Y4934*
X7285*
X7300Y4919*
G75*
G02X7302Y4921I28J-19*
G01*
G75*
G02X7302Y4925I51J4*
G01*
G75*
G02X7391Y4960I52*
G01*
G75*
G02X7480Y4925I38J-35*
G01*
G75*
G02X7463Y4886I-52*
G01*
Y4873*
X7478*
X7720Y5114*
X7718*
Y5236*
X7743*
Y5267*
G75*
G02X7754Y5293I36J0*
G01*
X7799Y5338*
G75*
G02X7824Y5348I25J-25*
G01*
X8204*
G75*
G02X8229Y5338I0J-36*
G01*
X8292Y5275*
X8565*
Y5389*
X8793*
Y5275*
X8879*
Y5475*
X6079*
Y5275*
X6165*
G37*
X6200Y4883D02*
X6203Y4886D01*
X6254*
X6282Y4858*
X6306Y4881*
X6352*
X6385Y4848*
Y4840*
X6487Y4942*
Y5131*
X6468Y5150*
Y5200*
X6503Y5236*
X6554*
X6575Y5215*
X6601Y5241*
X6656*
X6682Y5215*
X6703Y5236*
X6754*
X6768Y5222*
Y5236*
X6870*
Y5257*
X6897Y5283*
X6935*
X6962Y5257*
Y5218*
X6950Y5206*
Y5138*
G75*
G02X6940Y5113I-34*
G01*
X6914Y5087*
X6915Y5087*
G75*
G02X6925Y5063I-24J-24*
G01*
Y5021*
X6960*
Y5013*
X7000*
X7023Y4990*
G75*
G02X7030Y4999I30J-15*
G01*
X7123Y5092*
Y5131*
X7144*
X7123Y5152*
Y5198*
X7156Y5231*
X7202*
X7225Y5208*
X7253Y5236*
X7304*
X7332Y5208*
X7356Y5231*
X7362*
X7302Y5291*
X6543*
X6438Y5186*
Y5165*
G75*
G02X6428Y5141I-34*
G01*
X6200Y4914*
Y4883*
G36*
X6203Y4886*
X6254*
X6282Y4858*
X6306Y4881*
X6352*
X6385Y4848*
Y4840*
X6487Y4942*
Y5131*
X6468Y5150*
Y5200*
X6503Y5236*
X6554*
X6575Y5215*
X6601Y5241*
X6656*
X6682Y5215*
X6703Y5236*
X6754*
X6768Y5222*
Y5236*
X6870*
Y5257*
X6897Y5283*
X6935*
X6962Y5257*
Y5218*
X6950Y5206*
Y5138*
G75*
G02X6940Y5113I-34*
G01*
X6914Y5087*
X6915Y5087*
G75*
G02X6925Y5063I-24J-24*
G01*
Y5021*
X6960*
Y5013*
X7000*
X7023Y4990*
G75*
G02X7030Y4999I30J-15*
G01*
X7123Y5092*
Y5131*
X7144*
X7123Y5152*
Y5198*
X7156Y5231*
X7202*
X7225Y5208*
X7253Y5236*
X7304*
X7332Y5208*
X7356Y5231*
X7362*
X7302Y5291*
X6543*
X6438Y5186*
Y5165*
G75*
G02X6428Y5141I-34*
G01*
X6200Y4914*
Y4883*
G37*
X6202Y2084D02*
X6203Y2086D01*
X6254*
X6282Y2058*
X6306Y2081*
X6352*
X6385Y2048*
Y2040*
X6487Y2142*
Y2331*
X6468Y2350*
Y2400*
X6503Y2436*
X6554*
X6575Y2415*
X6601Y2441*
X6656*
X6682Y2415*
X6703Y2436*
X6754*
X6768Y2422*
Y2436*
X6870*
Y2457*
X6897Y2483*
X6935*
X6962Y2457*
Y2418*
X6950Y2406*
Y2338*
G75*
G02X6940Y2313I-34J0*
G01*
X6915Y2289*
X6916Y2288*
G75*
G02X6927Y2263I-25J-25*
G01*
Y2221*
X6960*
Y2213*
X7000*
X7022Y2191*
G75*
G02X7029Y2200I32J-16*
G01*
X7123Y2294*
Y2331*
X7144*
X7123Y2352*
Y2398*
X7156Y2431*
X7202*
X7225Y2408*
X7253Y2436*
X7304*
X7332Y2408*
X7356Y2431*
X7360*
X7302Y2489*
X6543*
X6439Y2385*
Y2365*
G75*
G02X6429Y2340I-36*
G01*
X6202Y2113*
Y2084*
G36*
X6203Y2086*
X6254*
X6282Y2058*
X6306Y2081*
X6352*
X6385Y2048*
Y2040*
X6487Y2142*
Y2331*
X6468Y2350*
Y2400*
X6503Y2436*
X6554*
X6575Y2415*
X6601Y2441*
X6656*
X6682Y2415*
X6703Y2436*
X6754*
X6768Y2422*
Y2436*
X6870*
Y2457*
X6897Y2483*
X6935*
X6962Y2457*
Y2418*
X6950Y2406*
Y2338*
G75*
G02X6940Y2313I-34J0*
G01*
X6915Y2289*
X6916Y2288*
G75*
G02X6927Y2263I-25J-25*
G01*
Y2221*
X6960*
Y2213*
X7000*
X7022Y2191*
G75*
G02X7029Y2200I32J-16*
G01*
X7123Y2294*
Y2331*
X7144*
X7123Y2352*
Y2398*
X7156Y2431*
X7202*
X7225Y2408*
X7253Y2436*
X7304*
X7332Y2408*
X7356Y2431*
X7360*
X7302Y2489*
X6543*
X6439Y2385*
Y2365*
G75*
G02X6429Y2340I-36*
G01*
X6202Y2113*
Y2084*
G37*
X6319Y575D02*
X6204D01*
X6319Y3375D02*
X6204D01*
X6329Y825D02*
Y575D01*
Y825D02*
X6257D01*
X6329Y1925D02*
X6391Y1988D01*
X6329Y3625D02*
Y3375D01*
Y3625D02*
X6257D01*
X6391Y825D02*
X6393Y1491D01*
Y1675*
X6479Y1761*
Y1900*
X6391Y1988*
Y825D02*
X6501D01*
X6391D02*
X6329D01*
X6391Y1988D02*
X6529Y2125D01*
Y2375*
X6391Y3625D02*
X6393Y4291D01*
Y4475*
X6479Y4561*
Y4700*
X6391Y4788*
Y3625D02*
X6329D01*
X6391Y4788D02*
X6329Y4725D01*
X6391Y4788D02*
X6529Y4925D01*
Y5175*
X6435Y966D02*
X6470D01*
Y981*
G75*
G02X6448Y1025I34J44*
G01*
G75*
G02X6559I56*
G01*
G75*
G02X6538Y981I-56*
G01*
Y967*
X6604*
Y1001*
X6637*
Y1013*
G75*
G02X6649Y1042I42*
G01*
X6755Y1148*
Y1218*
X6750*
Y1343*
X6883*
Y1277*
G75*
G02X6904Y1284I21J-27*
G01*
X6910*
Y1343*
X6983*
X6970Y1356*
Y1394*
X6982Y1406*
Y1493*
X6950Y1460*
Y1443*
X6923Y1417*
X6885*
X6875Y1426*
Y1406*
X6848Y1379*
X6810*
X6783Y1406*
Y1444*
X6795Y1456*
Y1577*
X6790*
Y1664*
X6779*
X6764Y1650*
Y1454*
X6775Y1444*
Y1406*
X6748Y1379*
X6714*
Y1354*
X6725Y1344*
Y1306*
X6698Y1279*
X6660*
X6633Y1306*
Y1344*
X6643Y1354*
Y1710*
G75*
G02X6654Y1735I36*
G01*
X6682Y1763*
G75*
G02X6707Y1773I25J-25*
G01*
X7066*
G75*
G02X7091Y1763J-36*
G01*
X7141Y1713*
G75*
G02X7149Y1701I-25J-25*
G01*
X7195*
Y1704*
X7160*
X7133Y1731*
Y1769*
X7160Y1796*
X7198*
X7210Y1783*
G75*
G02X7228Y1774I-7J-33*
G01*
X7253Y1749*
G75*
G02X7263Y1725I-24J-24*
G01*
Y1696*
X7343*
Y1710*
G75*
G02X7354Y1735I36*
G01*
X7382Y1763*
G75*
G02X7407Y1773I25J-25*
G01*
X7518*
X7525Y1780*
X7355Y1951*
G75*
G02X7352Y1954I24J24*
G01*
X7301*
G75*
G02X7291Y1937I-34J9*
G01*
X7166Y1812*
G75*
G02X7141Y1802I-25J25*
G01*
X6708*
X6698Y1791*
X6660*
X6633Y1818*
Y1857*
X6660Y1884*
X6686*
G75*
G02X6682Y1887I21J29*
G01*
X6654Y1915*
G75*
G02X6643Y1940I25J25*
G01*
Y1946*
X6633Y1956*
Y1994*
X6660Y2021*
X6698*
X6706Y2013*
Y2187*
X6698Y2179*
X6660*
X6633Y2206*
Y2244*
X6645Y2256*
Y2309*
X6601*
X6575Y2335*
X6571Y2331*
Y2125*
G75*
G02X6558Y2095I-42*
G01*
X6452Y1989*
X6510Y1931*
G75*
G02X6522Y1900I-31J-31*
G01*
Y1761*
G75*
G02X6509Y1730I-44*
G01*
X6435Y1657*
Y966*
X6558Y1174D02*
X6528Y1204D01*
Y1246*
X6558Y1276*
X6600*
X6630Y1246*
Y1204*
X6600Y1174*
X6558*
X6435Y1225D02*
G36*
Y966D01*
X6470*
Y981*
G75*
G02X6448Y1025I34J44*
G01*
G75*
G02X6559I56*
G01*
G75*
G02X6538Y981I-56*
G01*
Y967*
X6604*
Y1001*
X6637*
Y1013*
G75*
G02X6649Y1042I42*
G01*
X6755Y1148*
Y1218*
X6750*
Y1225*
X6630*
Y1204*
X6600Y1174*
X6558*
X6528Y1204*
Y1225*
X6435*
G37*
X6528D02*
G36*
Y1246D01*
X6558Y1276*
X6600*
X6630Y1246*
Y1225*
X6750*
Y1343*
X6883*
Y1277*
G75*
G02X6904Y1284I21J-27*
G01*
X6910*
Y1343*
X6983*
X6970Y1356*
Y1394*
X6982Y1406*
Y1493*
X6950Y1460*
Y1443*
X6923Y1417*
X6885*
X6875Y1426*
Y1406*
X6848Y1379*
X6810*
X6783Y1406*
Y1444*
X6795Y1456*
Y1577*
X6790*
Y1664*
X6779*
X6764Y1650*
Y1454*
X6775Y1444*
Y1406*
X6748Y1379*
X6714*
Y1354*
X6725Y1344*
Y1306*
X6698Y1279*
X6660*
X6633Y1306*
Y1344*
X6643Y1354*
Y1710*
G75*
G02X6654Y1735I36*
G01*
X6682Y1763*
G75*
G02X6707Y1773I25J-25*
G01*
X7066*
G75*
G02X7091Y1763J-36*
G01*
X7141Y1713*
G75*
G02X7149Y1701I-25J-25*
G01*
X7195*
Y1704*
X7160*
X7133Y1731*
Y1769*
X7160Y1796*
X7198*
X7210Y1783*
G75*
G02X7228Y1774I-7J-33*
G01*
X7253Y1749*
G75*
G02X7263Y1725I-24J-24*
G01*
Y1696*
X7343*
Y1710*
G75*
G02X7354Y1735I36*
G01*
X7382Y1763*
G75*
G02X7407Y1773I25J-25*
G01*
X7518*
X7525Y1780*
X7355Y1951*
G75*
G02X7352Y1954I24J24*
G01*
X7301*
G75*
G02X7291Y1937I-34J9*
G01*
X7166Y1812*
G75*
G02X7141Y1802I-25J25*
G01*
X6708*
X6698Y1791*
X6660*
X6633Y1818*
Y1857*
X6660Y1884*
X6686*
G75*
G02X6682Y1887I21J29*
G01*
X6654Y1915*
G75*
G02X6643Y1940I25J25*
G01*
Y1946*
X6633Y1956*
Y1994*
X6660Y2021*
X6698*
X6706Y2013*
Y2187*
X6698Y2179*
X6660*
X6633Y2206*
Y2244*
X6645Y2256*
Y2309*
X6601*
X6575Y2335*
X6571Y2331*
Y2125*
G75*
G02X6558Y2095I-42*
G01*
X6452Y1989*
X6510Y1931*
G75*
G02X6522Y1900I-31J-31*
G01*
Y1761*
G75*
G02X6509Y1730I-44*
G01*
X6435Y1657*
Y1225*
X6528*
G37*
X6435Y3766D02*
X6470D01*
Y3781*
G75*
G02X6448Y3825I34J44*
G01*
G75*
G02X6559I56*
G01*
G75*
G02X6538Y3781I-56*
G01*
Y3767*
X6604*
Y3801*
X6637*
Y3813*
G75*
G02X6649Y3842I42*
G01*
X6755Y3948*
Y4018*
X6750*
Y4143*
X6883*
Y4077*
G75*
G02X6904Y4084I21J-27*
G01*
X6910*
Y4143*
X6983*
X6970Y4156*
Y4194*
X6982Y4206*
Y4293*
X6950Y4260*
Y4243*
X6923Y4216*
X6885*
X6875Y4226*
Y4206*
X6848Y4179*
X6810*
X6783Y4206*
Y4244*
X6795Y4256*
Y4377*
X6790*
Y4464*
X6779*
X6764Y4450*
Y4254*
X6775Y4244*
Y4206*
X6748Y4179*
X6714*
Y4154*
X6725Y4144*
Y4106*
X6698Y4079*
X6660*
X6633Y4106*
Y4144*
X6643Y4154*
Y4510*
G75*
G02X6654Y4535I36J0*
G01*
X6682Y4563*
G75*
G02X6707Y4573I25J-25*
G01*
X7066*
G75*
G02X7091Y4563J-36*
G01*
X7141Y4513*
G75*
G02X7149Y4501I-25J-25*
G01*
X7195*
Y4504*
X7160*
X7133Y4531*
Y4569*
X7160Y4596*
X7198*
X7210Y4583*
G75*
G02X7228Y4574I-7J-33*
G01*
X7253Y4549*
G75*
G02X7263Y4525I-24J-24*
G01*
Y4496*
X7345*
Y4510*
G75*
G02X7355Y4534I34J0*
G01*
X7383Y4562*
G75*
G02X7407Y4572I24J-24*
G01*
X7517*
X7525Y4580*
X7355Y4751*
G75*
G02X7352Y4754I24J24*
G01*
X7301*
G75*
G02X7291Y4737I-34J9*
G01*
X7166Y4612*
G75*
G02X7141Y4602I-25J25*
G01*
X6708*
X6698Y4592*
X6660*
X6633Y4618*
Y4657*
X6660Y4684*
X6686*
G75*
G02X6682Y4687I21J29*
G01*
X6654Y4715*
G75*
G02X6643Y4740I25J25*
G01*
Y4746*
X6633Y4756*
Y4794*
X6660Y4821*
X6698*
X6706Y4813*
Y4987*
X6698Y4979*
X6660*
X6633Y5006*
Y5044*
X6645Y5056*
Y5109*
X6601*
X6575Y5135*
X6571Y5131*
Y4925*
G75*
G02X6558Y4895I-42J0*
G01*
X6452Y4789*
X6510Y4731*
G75*
G02X6522Y4700I-31J-31*
G01*
Y4561*
G75*
G02X6509Y4530I-44*
G01*
X6435Y4457*
Y3766*
X6558Y3974D02*
X6528Y4004D01*
Y4046*
X6558Y4076*
X6600*
X6630Y4046*
Y4004*
X6600Y3974*
X6558*
X6435Y4025D02*
G36*
Y3766D01*
X6470*
Y3781*
G75*
G02X6448Y3825I34J44*
G01*
G75*
G02X6559I56*
G01*
G75*
G02X6538Y3781I-56*
G01*
Y3767*
X6604*
Y3801*
X6637*
Y3813*
G75*
G02X6649Y3842I42*
G01*
X6755Y3948*
Y4018*
X6750*
Y4025*
X6630*
Y4004*
X6600Y3974*
X6558*
X6528Y4004*
Y4025*
X6435*
G37*
X6528D02*
G36*
Y4046D01*
X6558Y4076*
X6600*
X6630Y4046*
Y4025*
X6750*
Y4143*
X6883*
Y4077*
G75*
G02X6904Y4084I21J-27*
G01*
X6910*
Y4143*
X6983*
X6970Y4156*
Y4194*
X6982Y4206*
Y4293*
X6950Y4260*
Y4243*
X6923Y4216*
X6885*
X6875Y4226*
Y4206*
X6848Y4179*
X6810*
X6783Y4206*
Y4244*
X6795Y4256*
Y4377*
X6790*
Y4464*
X6779*
X6764Y4450*
Y4254*
X6775Y4244*
Y4206*
X6748Y4179*
X6714*
Y4154*
X6725Y4144*
Y4106*
X6698Y4079*
X6660*
X6633Y4106*
Y4144*
X6643Y4154*
Y4510*
G75*
G02X6654Y4535I36J0*
G01*
X6682Y4563*
G75*
G02X6707Y4573I25J-25*
G01*
X7066*
G75*
G02X7091Y4563J-36*
G01*
X7141Y4513*
G75*
G02X7149Y4501I-25J-25*
G01*
X7195*
Y4504*
X7160*
X7133Y4531*
Y4569*
X7160Y4596*
X7198*
X7210Y4583*
G75*
G02X7228Y4574I-7J-33*
G01*
X7253Y4549*
G75*
G02X7263Y4525I-24J-24*
G01*
Y4496*
X7345*
Y4510*
G75*
G02X7355Y4534I34J0*
G01*
X7383Y4562*
G75*
G02X7407Y4572I24J-24*
G01*
X7517*
X7525Y4580*
X7355Y4751*
G75*
G02X7352Y4754I24J24*
G01*
X7301*
G75*
G02X7291Y4737I-34J9*
G01*
X7166Y4612*
G75*
G02X7141Y4602I-25J25*
G01*
X6708*
X6698Y4592*
X6660*
X6633Y4618*
Y4657*
X6660Y4684*
X6686*
G75*
G02X6682Y4687I21J29*
G01*
X6654Y4715*
G75*
G02X6643Y4740I25J25*
G01*
Y4746*
X6633Y4756*
Y4794*
X6660Y4821*
X6698*
X6706Y4813*
Y4987*
X6698Y4979*
X6660*
X6633Y5006*
Y5044*
X6645Y5056*
Y5109*
X6601*
X6575Y5135*
X6571Y5131*
Y4925*
G75*
G02X6558Y4895I-42J0*
G01*
X6452Y4789*
X6510Y4731*
G75*
G02X6522Y4700I-31J-31*
G01*
Y4561*
G75*
G02X6509Y4530I-44*
G01*
X6435Y4457*
Y4025*
X6528*
G37*
X6501Y3625D02*
X6391D01*
X6679Y913D02*
X6804Y788D01*
Y513*
X7004Y288*
X7316*
X6679Y925D02*
X6504D01*
X6679Y3713D02*
X6804Y3588D01*
Y3313*
X7004Y3088*
X7316*
X6679Y3725D02*
X6504D01*
X6726Y1001D02*
X6754D01*
Y897*
X6833Y817*
G75*
G02X6846Y788I-30J-30*
G01*
Y765*
G75*
G02X6918Y759I33J-40*
G01*
X7012*
G75*
G02X7104Y745I42J-34*
G01*
G75*
G02X7204I50J-20*
G01*
G75*
G02X7304I50J-20*
G01*
G75*
G02X7372Y775I50J-20*
G01*
G75*
G02X7351Y799I31J50*
G01*
G75*
G02X7254Y805I-47J26*
G01*
G75*
G02X7154I-50J20*
G01*
G75*
G02X7050Y825I-50J20*
G01*
G75*
G02X7154Y845I54*
G01*
G75*
G02X7170Y867I50J-20*
G01*
Y898*
X7015Y1054*
X6935*
G75*
G02X6840Y1082I-43J29*
G01*
G75*
G02X6850Y1112I52*
G01*
X6838*
X6726Y1001*
G36*
X6754*
Y897*
X6833Y817*
G75*
G02X6846Y788I-30J-30*
G01*
Y765*
G75*
G02X6918Y759I33J-40*
G01*
X7012*
G75*
G02X7104Y745I42J-34*
G01*
G75*
G02X7204I50J-20*
G01*
G75*
G02X7304I50J-20*
G01*
G75*
G02X7372Y775I50J-20*
G01*
G75*
G02X7351Y799I31J50*
G01*
G75*
G02X7254Y805I-47J26*
G01*
G75*
G02X7154I-50J20*
G01*
G75*
G02X7050Y825I-50J20*
G01*
G75*
G02X7154Y845I54*
G01*
G75*
G02X7170Y867I50J-20*
G01*
Y898*
X7015Y1054*
X6935*
G75*
G02X6840Y1082I-43J29*
G01*
G75*
G02X6850Y1112I52*
G01*
X6838*
X6726Y1001*
G37*
Y3801D02*
X6754D01*
Y3697*
X6833Y3617*
G75*
G02X6846Y3588I-30J-30*
G01*
Y3565*
G75*
G02X6918Y3559I33J-40*
G01*
X7012*
G75*
G02X7104Y3545I42J-34*
G01*
G75*
G02X7204I50J-20*
G01*
G75*
G02X7304I50J-20*
G01*
G75*
G02X7372Y3575I50J-20*
G01*
G75*
G02X7351Y3599I31J50*
G01*
G75*
G02X7254Y3605I-47J26*
G01*
G75*
G02X7154I-50J20*
G01*
G75*
G02X7050Y3625I-50J20*
G01*
G75*
G02X7154Y3645I54*
G01*
G75*
G02X7170Y3667I50J-20*
G01*
Y3698*
X7015Y3853*
X6935*
G75*
G02X6840Y3882I-43J29*
G01*
G75*
G02X6850Y3912I52*
G01*
X6838*
X6726Y3801*
G36*
X6754*
Y3697*
X6833Y3617*
G75*
G02X6846Y3588I-30J-30*
G01*
Y3565*
G75*
G02X6918Y3559I33J-40*
G01*
X7012*
G75*
G02X7104Y3545I42J-34*
G01*
G75*
G02X7204I50J-20*
G01*
G75*
G02X7304I50J-20*
G01*
G75*
G02X7372Y3575I50J-20*
G01*
G75*
G02X7351Y3599I31J50*
G01*
G75*
G02X7254Y3605I-47J26*
G01*
G75*
G02X7154I-50J20*
G01*
G75*
G02X7050Y3625I-50J20*
G01*
G75*
G02X7154Y3645I54*
G01*
G75*
G02X7170Y3667I50J-20*
G01*
Y3698*
X7015Y3853*
X6935*
G75*
G02X6840Y3882I-43J29*
G01*
G75*
G02X6850Y3912I52*
G01*
X6838*
X6726Y3801*
G37*
X6816Y1150D02*
X6679Y1013D01*
Y925*
X6816Y3950D02*
X6679Y3813D01*
Y3725*
X6829Y2088D02*
Y2013D01*
Y4888D02*
Y4813D01*
X7026Y1226D02*
G75*
G02X7028Y1224I-22J-26D01*
G01*
X7053Y1199*
G75*
G02X7063Y1175I-24J-24*
G01*
Y1102*
X7228Y937*
G75*
G02X7238Y913I-24J-24*
G01*
Y867*
G75*
G02X7254Y845I-34J-42*
G01*
G75*
G02X7351Y851I50J-20*
G01*
G75*
G02X7457Y849I53J-26*
G01*
Y1129*
X7422*
X7397Y1154*
X7377*
X7400Y1132*
Y1093*
X7373Y1067*
X7335*
X7325Y1077*
G75*
G02X7240Y1066I-46J23*
G01*
X7191*
G75*
G02X7157Y1100J34*
G01*
Y1112*
X7131*
Y1329*
G75*
G02X7152Y1394I47J21*
G01*
X7134*
Y1390*
X7062*
Y1356*
X7035Y1329*
X7031*
Y1257*
X7026*
Y1226*
G36*
G75*
G02X7028Y1224I-22J-26*
G01*
X7053Y1199*
G75*
G02X7063Y1175I-24J-24*
G01*
Y1102*
X7228Y937*
G75*
G02X7238Y913I-24J-24*
G01*
Y867*
G75*
G02X7254Y845I-34J-42*
G01*
G75*
G02X7351Y851I50J-20*
G01*
G75*
G02X7457Y849I53J-26*
G01*
Y1129*
X7422*
X7397Y1154*
X7377*
X7400Y1132*
Y1093*
X7373Y1067*
X7335*
X7325Y1077*
G75*
G02X7240Y1066I-46J23*
G01*
X7191*
G75*
G02X7157Y1100J34*
G01*
Y1112*
X7131*
Y1329*
G75*
G02X7152Y1394I47J21*
G01*
X7134*
Y1390*
X7062*
Y1356*
X7035Y1329*
X7031*
Y1257*
X7026*
Y1226*
G37*
Y4026D02*
G75*
G02X7028Y4024I-22J-26D01*
G01*
X7053Y3999*
G75*
G02X7063Y3975I-24J-24*
G01*
Y3902*
X7228Y3737*
G75*
G02X7238Y3713I-24J-24*
G01*
Y3667*
G75*
G02X7254Y3645I-34J-42*
G01*
G75*
G02X7351Y3651I50J-20*
G01*
G75*
G02X7457Y3649I53J-26*
G01*
Y3929*
X7422*
X7397Y3954*
X7377*
X7400Y3932*
Y3893*
X7373Y3867*
X7335*
X7325Y3877*
G75*
G02X7240Y3866I-46J23*
G01*
X7191*
G75*
G02X7157Y3900J34*
G01*
Y3912*
X7131*
Y4129*
G75*
G02X7152Y4194I47J21*
G01*
X7134*
Y4190*
X7062*
Y4156*
X7035Y4129*
X7031*
Y4057*
X7026*
Y4026*
G36*
G75*
G02X7028Y4024I-22J-26*
G01*
X7053Y3999*
G75*
G02X7063Y3975I-24J-24*
G01*
Y3902*
X7228Y3737*
G75*
G02X7238Y3713I-24J-24*
G01*
Y3667*
G75*
G02X7254Y3645I-34J-42*
G01*
G75*
G02X7351Y3651I50J-20*
G01*
G75*
G02X7457Y3649I53J-26*
G01*
Y3929*
X7422*
X7397Y3954*
X7377*
X7400Y3932*
Y3893*
X7373Y3867*
X7335*
X7325Y3877*
G75*
G02X7240Y3866I-46J23*
G01*
X7191*
G75*
G02X7157Y3900J34*
G01*
Y3912*
X7131*
Y4129*
G75*
G02X7152Y4194I47J21*
G01*
X7134*
Y4190*
X7062*
Y4156*
X7035Y4129*
X7031*
Y4057*
X7026*
Y4026*
G37*
X7279Y1484D02*
X7367D01*
X7358Y1493*
Y1510*
X7325Y1543*
G75*
G02X7279Y1515I-46J24*
G01*
Y1484*
G36*
X7367*
X7358Y1493*
Y1510*
X7325Y1543*
G75*
G02X7279Y1515I-46J24*
G01*
Y1484*
G37*
Y4284D02*
X7367D01*
X7358Y4293*
Y4310*
X7325Y4344*
G75*
G02X7279Y4315I-46J23*
G01*
Y4284*
G36*
X7367*
X7358Y4293*
Y4310*
X7325Y4344*
G75*
G02X7279Y4315I-46J23*
G01*
Y4284*
G37*
X7316Y288D02*
Y688D01*
X7354Y725*
X7316Y3088D02*
X7429Y3000D01*
X7316Y3088D02*
Y3488D01*
X7354Y3525*
X7391Y725D02*
X7354D01*
X7391Y3525D02*
X7354D01*
X7429Y200D02*
X7316Y288D01*
X7887Y2157D02*
X7913D01*
G75*
G02X7907Y2175I29J18*
G01*
Y2181*
X7895Y2193*
Y2232*
X7922Y2259*
X7945*
Y2294*
X7960Y2309*
X7951*
X7925Y2335*
X7904Y2314*
X7888*
Y2163*
G75*
G02X7887Y2157I-34J0*
G01*
G36*
X7913*
G75*
G02X7907Y2175I29J18*
G01*
Y2181*
X7895Y2193*
Y2232*
X7922Y2259*
X7945*
Y2294*
X7960Y2309*
X7951*
X7925Y2335*
X7904Y2314*
X7888*
Y2163*
G75*
G02X7887Y2157I-34J0*
G01*
G37*
X7889Y4957D02*
X7913D01*
G75*
G02X7907Y4975I29J18*
G01*
Y4981*
X7895Y4993*
Y5032*
X7922Y5059*
X7945*
Y5094*
X7960Y5109*
X7951*
X7925Y5135*
X7904Y5114*
X7889*
Y4962*
G75*
G02X7889Y4957I-36*
G01*
G36*
X7913*
G75*
G02X7907Y4975I29J18*
G01*
Y4981*
X7895Y4993*
Y5032*
X7922Y5059*
X7945*
Y5094*
X7960Y5109*
X7951*
X7925Y5135*
X7904Y5114*
X7889*
Y4962*
G75*
G02X7889Y4957I-36*
G01*
G37*
X7891Y1875D02*
X7899D01*
X7891Y4675D02*
X7899D01*
X7941Y1325D02*
X7816Y1450D01*
Y2038*
X7941Y4125D02*
X7816Y4250D01*
Y4838*
X8029Y1975D02*
Y2038D01*
X7916*
X8029Y4775D02*
Y4838D01*
X7916*
X8054Y1325D02*
X7950D01*
X8054Y4125D02*
X7950D01*
X8071Y1990D02*
G75*
G02X8081Y1988I0J-20D01*
G01*
X8090*
G75*
G02X8116Y1981I10J-18*
G01*
Y1988*
X8212*
Y1984*
X8254*
X8270Y1999*
Y2032*
X8157*
Y2268*
X8270*
Y2348*
X8177Y2441*
X8096*
G75*
G02X8096Y2438I-55J-3*
G01*
G75*
G02X8096Y2436I-55J0*
G01*
X8104*
X8140Y2400*
Y2374*
X8143Y2371*
G75*
G02X8156Y2341I-29J-30*
G01*
Y2104*
G75*
G02X8140Y2070I-42*
G01*
X8071Y2017*
Y1990*
G36*
G75*
G02X8081Y1988I0J-20*
G01*
X8090*
G75*
G02X8116Y1981I10J-18*
G01*
Y1988*
X8212*
Y1984*
X8254*
X8270Y1999*
Y2032*
X8157*
Y2268*
X8270*
Y2348*
X8177Y2441*
X8096*
G75*
G02X8096Y2438I-55J-3*
G01*
G75*
G02X8096Y2436I-55J0*
G01*
X8104*
X8140Y2400*
Y2374*
X8143Y2371*
G75*
G02X8156Y2341I-29J-30*
G01*
Y2104*
G75*
G02X8140Y2070I-42*
G01*
X8071Y2017*
Y1990*
G37*
Y4790D02*
G75*
G02X8081Y4788I0J-20D01*
G01*
X8090*
G75*
G02X8116Y4781I10J-18*
G01*
Y4788*
X8212*
Y4784*
X8254*
X8270Y4799*
Y4832*
X8157*
Y5068*
X8270*
Y5148*
X8177Y5241*
X8096*
G75*
G02X8096Y5237I-55J-4*
G01*
G75*
G02X8096Y5236I-55J0*
G01*
X8104*
X8140Y5200*
Y5174*
X8143Y5171*
G75*
G02X8156Y5141I-29J-30*
G01*
Y4904*
G75*
G02X8140Y4870I-42*
G01*
X8071Y4817*
Y4790*
G36*
G75*
G02X8081Y4788I0J-20*
G01*
X8090*
G75*
G02X8116Y4781I10J-18*
G01*
Y4788*
X8212*
Y4784*
X8254*
X8270Y4799*
Y4832*
X8157*
Y5068*
X8270*
Y5148*
X8177Y5241*
X8096*
G75*
G02X8096Y5237I-55J-4*
G01*
G75*
G02X8096Y5236I-55J0*
G01*
X8104*
X8140Y5200*
Y5174*
X8143Y5171*
G75*
G02X8156Y5141I-29J-30*
G01*
Y4904*
G75*
G02X8140Y4870I-42*
G01*
X8071Y4817*
Y4790*
G37*
X8079Y2375D02*
X8114Y2341D01*
Y2104*
X8029Y2038*
X8079Y5175D02*
X8114Y5141D01*
Y4904*
X8029Y4838*
X8729Y1925D02*
Y1563D01*
X8679Y1513*
X8729Y4725D02*
Y4363D01*
X8679Y4313*
D02*
D96*
X199Y1175D02*
X163D01*
X199Y3975D02*
X163D01*
X201Y275D02*
X165D01*
X201Y2475D02*
X165D01*
X201Y3075D02*
X165D01*
X201Y5275D02*
X165D01*
X229Y1145D02*
Y1109D01*
Y2050D02*
Y2086D01*
Y3945D02*
Y3909D01*
Y4850D02*
Y4886D01*
X259Y1175D02*
X295D01*
X259Y3975D02*
X295D01*
X279Y197D02*
Y161D01*
Y353D02*
Y389D01*
Y2397D02*
Y2361D01*
Y2553D02*
Y2589D01*
Y2997D02*
Y2961D01*
Y3153D02*
Y3189D01*
Y5197D02*
Y5161D01*
Y5353D02*
Y5389D01*
X357Y275D02*
X393D01*
X357Y2475D02*
X393D01*
X357Y3075D02*
X393D01*
X357Y5275D02*
X393D01*
X439Y531D02*
Y495D01*
Y619D02*
Y655D01*
Y3331D02*
Y3295D01*
Y3419D02*
Y3455D01*
X462Y734D02*
X426D01*
X462Y3534D02*
X426D01*
X472Y575D02*
X508D01*
X472Y3375D02*
X508D01*
X501Y715D02*
Y679D01*
Y3515D02*
Y3479D01*
X540Y734D02*
X576D01*
X540Y3534D02*
X576D01*
X564Y1225D02*
X528D01*
X564Y4025D02*
X528D01*
X579Y1210D02*
Y1174D01*
Y1240D02*
Y1276D01*
Y4010D02*
Y3974D01*
Y4040D02*
Y4076D01*
X594Y1225D02*
X630D01*
X594Y4025D02*
X630D01*
X629Y2345D02*
Y2309D01*
Y2405D02*
Y2441D01*
Y5145D02*
Y5109D01*
Y5205D02*
Y5241D01*
X635Y726D02*
X599D01*
X635Y3526D02*
X599D01*
X679Y680D02*
Y644D01*
Y771D02*
Y807D01*
Y3480D02*
Y3444D01*
Y3571D02*
Y3607D01*
X723Y726D02*
X759D01*
X723Y3526D02*
X759D01*
X786Y1280D02*
X750D01*
X786Y4080D02*
X750D01*
X816Y1307D02*
Y1343D01*
Y4107D02*
Y4143D01*
X847Y1280D02*
X883D01*
X847Y4080D02*
X883D01*
X946Y1300D02*
X910D01*
X946Y4100D02*
X910D01*
X970Y1307D02*
Y1343D01*
Y4107D02*
Y4143D01*
X979Y2178D02*
Y2213D01*
Y4977D02*
Y5013D01*
X995Y1300D02*
X1031D01*
X995Y4100D02*
X1031D01*
X1179Y1665D02*
Y1701D01*
Y4465D02*
Y4501D01*
X1243Y1508D02*
X1279D01*
X1243Y4308D02*
X1279D01*
X1261Y2393D02*
X1236Y2418D01*
X1261Y5193D02*
X1236Y5218D01*
X1296Y2393D02*
X1322Y2418D01*
X1296Y5193D02*
X1322Y5218D01*
X1388Y809D02*
X1362Y783D01*
X1388Y841D02*
X1362Y867D01*
X1388Y3609D02*
X1362Y3583D01*
X1388Y3641D02*
X1362Y3667D01*
X1420Y841D02*
X1445Y867D01*
X1420Y3641D02*
X1445Y3667D01*
X1541Y798D02*
Y761D01*
Y828D02*
Y864D01*
Y3598D02*
Y3562D01*
Y3628D02*
Y3663D01*
X1666Y642D02*
X1630D01*
X1666Y3442D02*
X1630D01*
X1673Y1025D02*
X1637D01*
X1673Y3825D02*
X1637D01*
X1704Y615D02*
Y579D01*
Y669D02*
Y705D01*
Y3415D02*
Y3379D01*
Y3469D02*
Y3505D01*
X1708Y1017D02*
Y981D01*
Y3817D02*
Y3781D01*
X1742Y642D02*
X1778D01*
X1742Y3442D02*
X1778D01*
X1743Y1025D02*
X1779D01*
X1743Y3825D02*
X1779D01*
X1895Y2121D02*
Y2157D01*
Y4921D02*
Y4957D01*
X1915Y1175D02*
X1879D01*
X1915Y1275D02*
X1879D01*
X1915Y3975D02*
X1879D01*
X1915Y4075D02*
X1879D01*
X1958Y2354D02*
X1932Y2328D01*
X1958Y5154D02*
X1932Y5128D01*
X1985Y1175D02*
X2021D01*
X1985Y3975D02*
X2021D01*
X2054Y1250D02*
Y1214D01*
Y4050D02*
Y4014D01*
X2060Y2438D02*
X2004D01*
X1979Y2413*
Y2375*
X2060Y2438D02*
X2096D01*
X2060Y5237D02*
X2004D01*
X1979Y5212*
Y5175*
X2060Y5237D02*
X2096D01*
X2068Y1267D02*
X2104D01*
X2068Y4067D02*
X2104D01*
X2070Y1913D02*
X2106D01*
X2070Y4713D02*
X2106D01*
X2193Y2075D02*
X2157D01*
X2193Y2125D02*
X2157D01*
X2193Y2175D02*
X2157D01*
X2193Y2225D02*
X2157D01*
X2193Y4875D02*
X2157D01*
X2193Y4925D02*
X2157D01*
X2193Y4975D02*
X2157D01*
X2193Y5025D02*
X2157D01*
X2205Y1092D02*
X2169D01*
X2205Y3892D02*
X2169D01*
X2231Y2068D02*
Y2032D01*
Y2232D02*
Y2268D01*
Y4868D02*
Y4832D01*
Y5032D02*
Y5068D01*
X2279Y1018D02*
Y982D01*
Y1165D02*
Y1201D01*
Y3818D02*
Y3782D01*
Y3965D02*
Y4001D01*
X2354Y802D02*
Y766D01*
Y848D02*
Y884D01*
Y3602D02*
Y3566D01*
Y3648D02*
Y3684D01*
X2376Y825D02*
X2412D01*
X2376Y3625D02*
X2412D01*
X2479Y1018D02*
Y982D01*
Y1165D02*
Y1201D01*
Y3818D02*
Y3782D01*
Y3965D02*
Y4001D01*
X2601Y275D02*
X2565D01*
X2601Y2475D02*
X2565D01*
X2601Y3075D02*
X2565D01*
X2601Y5275D02*
X2565D01*
X2679Y197D02*
Y161D01*
Y353D02*
Y389D01*
Y1018D02*
Y982D01*
Y1165D02*
Y1201D01*
Y2397D02*
Y2361D01*
Y2553D02*
Y2589D01*
Y2997D02*
Y2961D01*
Y3153D02*
Y3189D01*
Y3818D02*
Y3782D01*
Y3965D02*
Y4001D01*
Y5197D02*
Y5161D01*
Y5353D02*
Y5389D01*
X2699Y2025D02*
X2663D01*
X2699Y2225D02*
X2663D01*
X2699Y4825D02*
X2663D01*
X2699Y5025D02*
X2663D01*
X2729Y2255D02*
Y2291D01*
Y5055D02*
Y5091D01*
X2757Y275D02*
X2793D01*
X2757Y2475D02*
X2793D01*
X2757Y3075D02*
X2793D01*
X2757Y5275D02*
X2793D01*
X2759Y2225D02*
X2795D01*
X2759Y5025D02*
X2795D01*
X3199Y1175D02*
X3163D01*
X3199Y3975D02*
X3163D01*
X3201Y275D02*
X3165D01*
X3201Y2475D02*
X3165D01*
X3201Y3075D02*
X3165D01*
X3201Y5275D02*
X3165D01*
X3229Y1145D02*
Y1109D01*
Y2050D02*
Y2086D01*
Y3945D02*
Y3909D01*
Y4850D02*
Y4886D01*
X3259Y1175D02*
X3295D01*
X3259Y3975D02*
X3295D01*
X3279Y197D02*
Y161D01*
Y353D02*
Y389D01*
Y2397D02*
Y2361D01*
Y2553D02*
Y2589D01*
Y2997D02*
Y2961D01*
Y3153D02*
Y3189D01*
Y5197D02*
Y5161D01*
Y5353D02*
Y5389D01*
X3357Y275D02*
X3393D01*
X3357Y2475D02*
X3393D01*
X3357Y3075D02*
X3393D01*
X3357Y5275D02*
X3393D01*
X3439Y531D02*
Y495D01*
Y619D02*
Y655D01*
Y3331D02*
Y3295D01*
Y3419D02*
Y3455D01*
X3462Y734D02*
X3426D01*
X3462Y3534D02*
X3426D01*
X3472Y575D02*
X3508D01*
X3472Y3375D02*
X3508D01*
X3501Y715D02*
Y679D01*
Y3515D02*
Y3479D01*
X3540Y734D02*
X3576D01*
X3540Y3534D02*
X3576D01*
X3564Y1225D02*
X3528D01*
X3564Y4025D02*
X3528D01*
X3579Y1210D02*
Y1174D01*
Y1240D02*
Y1276D01*
Y4010D02*
Y3974D01*
Y4040D02*
Y4076D01*
X3594Y1225D02*
X3630D01*
X3594Y4025D02*
X3630D01*
X3629Y2345D02*
Y2309D01*
Y2405D02*
Y2441D01*
Y5145D02*
Y5109D01*
Y5205D02*
Y5241D01*
X3635Y726D02*
X3599D01*
X3635Y3526D02*
X3599D01*
X3679Y680D02*
Y644D01*
Y771D02*
Y807D01*
Y3480D02*
Y3444D01*
Y3571D02*
Y3607D01*
X3723Y726D02*
X3759D01*
X3723Y3526D02*
X3759D01*
X3786Y1280D02*
X3750D01*
X3786Y4080D02*
X3750D01*
X3816Y1307D02*
Y1343D01*
Y4107D02*
Y4143D01*
X3847Y1280D02*
X3883D01*
X3847Y4080D02*
X3883D01*
X3946Y1300D02*
X3910D01*
X3946Y4100D02*
X3910D01*
X3970Y1307D02*
Y1343D01*
Y4107D02*
Y4143D01*
X3979Y2178D02*
Y2213D01*
Y4977D02*
Y5013D01*
X3995Y1300D02*
X4031D01*
X3995Y4100D02*
X4031D01*
X4179Y1665D02*
Y1701D01*
Y4465D02*
Y4501D01*
X4243Y1508D02*
X4279D01*
X4243Y4308D02*
X4279D01*
X4261Y2393D02*
X4236Y2418D01*
X4261Y5193D02*
X4236Y5218D01*
X4296Y2393D02*
X4322Y2418D01*
X4296Y5193D02*
X4322Y5218D01*
X4388Y809D02*
X4362Y783D01*
X4388Y841D02*
X4362Y867D01*
X4388Y3609D02*
X4362Y3583D01*
X4388Y3641D02*
X4362Y3667D01*
X4420Y841D02*
X4445Y867D01*
X4420Y3641D02*
X4445Y3667D01*
X4541Y798D02*
Y761D01*
Y828D02*
Y864D01*
Y3598D02*
Y3562D01*
Y3628D02*
Y3663D01*
X4666Y642D02*
X4630D01*
X4666Y3442D02*
X4630D01*
X4673Y1025D02*
X4637D01*
X4673Y3825D02*
X4637D01*
X4704Y615D02*
Y579D01*
Y669D02*
Y705D01*
Y3415D02*
Y3379D01*
Y3469D02*
Y3505D01*
X4708Y1017D02*
Y981D01*
Y3817D02*
Y3781D01*
X4742Y642D02*
X4778D01*
X4742Y3442D02*
X4778D01*
X4743Y1025D02*
X4779D01*
X4743Y3825D02*
X4779D01*
X4895Y2121D02*
Y2157D01*
Y4921D02*
Y4957D01*
X4915Y1175D02*
X4879D01*
X4915Y1275D02*
X4879D01*
X4915Y3975D02*
X4879D01*
X4915Y4075D02*
X4879D01*
X4958Y2354D02*
X4932Y2328D01*
X4958Y5154D02*
X4932Y5128D01*
X4985Y1175D02*
X5021D01*
X4985Y3975D02*
X5021D01*
X5054Y1250D02*
Y1214D01*
Y4050D02*
Y4014D01*
X5060Y2438D02*
X5004D01*
X4979Y2413*
Y2375*
X5060Y2438D02*
X5096D01*
X5060Y5237D02*
X5004D01*
X4979Y5212*
Y5175*
X5060Y5237D02*
X5096D01*
X5068Y1267D02*
X5104D01*
X5068Y4067D02*
X5104D01*
X5070Y1913D02*
X5106D01*
X5070Y4713D02*
X5106D01*
X5193Y2075D02*
X5157D01*
X5193Y2125D02*
X5157D01*
X5193Y2175D02*
X5157D01*
X5193Y2225D02*
X5157D01*
X5193Y4875D02*
X5157D01*
X5193Y4925D02*
X5157D01*
X5193Y4975D02*
X5157D01*
X5193Y5025D02*
X5157D01*
X5205Y1092D02*
X5169D01*
X5205Y3892D02*
X5169D01*
X5231Y2068D02*
Y2032D01*
Y2232D02*
Y2268D01*
Y4868D02*
Y4832D01*
Y5032D02*
Y5068D01*
X5279Y1018D02*
Y982D01*
Y1165D02*
Y1201D01*
Y3818D02*
Y3782D01*
Y3965D02*
Y4001D01*
X5354Y802D02*
Y766D01*
Y848D02*
Y884D01*
Y3602D02*
Y3566D01*
Y3648D02*
Y3684D01*
X5376Y825D02*
X5412D01*
X5376Y3625D02*
X5412D01*
X5479Y1018D02*
Y982D01*
Y1165D02*
Y1201D01*
Y3818D02*
Y3782D01*
Y3965D02*
Y4001D01*
X5601Y275D02*
X5565D01*
X5601Y2475D02*
X5565D01*
X5601Y3075D02*
X5565D01*
X5601Y5275D02*
X5565D01*
X5679Y197D02*
Y161D01*
Y353D02*
Y389D01*
Y1018D02*
Y982D01*
Y1165D02*
Y1201D01*
Y2397D02*
Y2361D01*
Y2553D02*
Y2589D01*
Y2997D02*
Y2961D01*
Y3153D02*
Y3189D01*
Y3818D02*
Y3782D01*
Y3965D02*
Y4001D01*
Y5197D02*
Y5161D01*
Y5353D02*
Y5389D01*
X5699Y2025D02*
X5663D01*
X5699Y2225D02*
X5663D01*
X5699Y4825D02*
X5663D01*
X5699Y5025D02*
X5663D01*
X5729Y2255D02*
Y2291D01*
Y5055D02*
Y5091D01*
X5757Y275D02*
X5793D01*
X5757Y2475D02*
X5793D01*
X5757Y3075D02*
X5793D01*
X5757Y5275D02*
X5793D01*
X5759Y2225D02*
X5795D01*
X5759Y5025D02*
X5795D01*
X6199Y1175D02*
X6163D01*
X6199Y3975D02*
X6163D01*
X6201Y275D02*
X6165D01*
X6201Y2475D02*
X6165D01*
X6201Y3075D02*
X6165D01*
X6201Y5275D02*
X6165D01*
X6229Y1145D02*
Y1109D01*
Y2050D02*
Y2086D01*
Y3945D02*
Y3909D01*
Y4850D02*
Y4886D01*
X6259Y1175D02*
X6295D01*
X6259Y3975D02*
X6295D01*
X6279Y197D02*
Y161D01*
Y353D02*
Y389D01*
Y2397D02*
Y2361D01*
Y2553D02*
Y2589D01*
Y2997D02*
Y2961D01*
Y3153D02*
Y3189D01*
Y5197D02*
Y5161D01*
Y5353D02*
Y5389D01*
X6357Y275D02*
X6393D01*
X6357Y2475D02*
X6393D01*
X6357Y3075D02*
X6393D01*
X6357Y5275D02*
X6393D01*
X6439Y531D02*
Y495D01*
Y619D02*
Y655D01*
Y3331D02*
Y3295D01*
Y3419D02*
Y3455D01*
X6462Y734D02*
X6426D01*
X6462Y3534D02*
X6426D01*
X6472Y575D02*
X6508D01*
X6472Y3375D02*
X6508D01*
X6501Y715D02*
Y679D01*
Y3515D02*
Y3479D01*
X6540Y734D02*
X6576D01*
X6540Y3534D02*
X6576D01*
X6564Y1225D02*
X6528D01*
X6564Y4025D02*
X6528D01*
X6579Y1210D02*
Y1174D01*
Y1240D02*
Y1276D01*
Y4010D02*
Y3974D01*
Y4040D02*
Y4076D01*
X6594Y1225D02*
X6630D01*
X6594Y4025D02*
X6630D01*
X6629Y2345D02*
Y2309D01*
Y2405D02*
Y2441D01*
Y5145D02*
Y5109D01*
Y5205D02*
Y5241D01*
X6635Y726D02*
X6599D01*
X6635Y3526D02*
X6599D01*
X6679Y680D02*
Y644D01*
Y771D02*
Y807D01*
Y3480D02*
Y3444D01*
Y3571D02*
Y3607D01*
X6723Y726D02*
X6759D01*
X6723Y3526D02*
X6759D01*
X6786Y1280D02*
X6750D01*
X6786Y4080D02*
X6750D01*
X6816Y1307D02*
Y1343D01*
Y4107D02*
Y4143D01*
X6847Y1280D02*
X6883D01*
X6847Y4080D02*
X6883D01*
X6946Y1300D02*
X6910D01*
X6946Y4100D02*
X6910D01*
X6970Y1307D02*
Y1343D01*
Y4107D02*
Y4143D01*
X6979Y2178D02*
Y2213D01*
Y4977D02*
Y5013D01*
X6995Y1300D02*
X7031D01*
X6995Y4100D02*
X7031D01*
X7179Y1665D02*
Y1701D01*
Y4465D02*
Y4501D01*
X7243Y1508D02*
X7279D01*
X7243Y4308D02*
X7279D01*
X7261Y2393D02*
X7236Y2418D01*
X7261Y5193D02*
X7236Y5218D01*
X7296Y2393D02*
X7322Y2418D01*
X7296Y5193D02*
X7322Y5218D01*
X7388Y809D02*
X7362Y783D01*
X7388Y841D02*
X7362Y867D01*
X7388Y3609D02*
X7362Y3583D01*
X7388Y3641D02*
X7362Y3667D01*
X7420Y841D02*
X7445Y867D01*
X7420Y3641D02*
X7445Y3667D01*
X7541Y798D02*
Y761D01*
Y828D02*
Y864D01*
Y3598D02*
Y3562D01*
Y3628D02*
Y3663D01*
X7666Y642D02*
X7630D01*
X7666Y3442D02*
X7630D01*
X7673Y1025D02*
X7637D01*
X7673Y3825D02*
X7637D01*
X7704Y615D02*
Y579D01*
Y669D02*
Y705D01*
Y3415D02*
Y3379D01*
Y3469D02*
Y3505D01*
X7708Y1017D02*
Y981D01*
Y3817D02*
Y3781D01*
X7742Y642D02*
X7778D01*
X7742Y3442D02*
X7778D01*
X7743Y1025D02*
X7779D01*
X7743Y3825D02*
X7779D01*
X7895Y2121D02*
Y2157D01*
Y4921D02*
Y4957D01*
X7915Y1175D02*
X7879D01*
X7915Y1275D02*
X7879D01*
X7915Y3975D02*
X7879D01*
X7915Y4075D02*
X7879D01*
X7958Y2354D02*
X7932Y2328D01*
X7958Y5154D02*
X7932Y5128D01*
X7985Y1175D02*
X8021D01*
X7985Y3975D02*
X8021D01*
X8054Y1250D02*
Y1214D01*
Y4050D02*
Y4014D01*
X8060Y2438D02*
X8004D01*
X7979Y2413*
Y2375*
X8060Y2438D02*
X8096D01*
X8060Y5237D02*
X8004D01*
X7979Y5212*
Y5175*
X8060Y5237D02*
X8096D01*
X8068Y1267D02*
X8104D01*
X8068Y4067D02*
X8104D01*
X8070Y1913D02*
X8106D01*
X8070Y4713D02*
X8106D01*
X8193Y2075D02*
X8157D01*
X8193Y2125D02*
X8157D01*
X8193Y2175D02*
X8157D01*
X8193Y2225D02*
X8157D01*
X8193Y4875D02*
X8157D01*
X8193Y4925D02*
X8157D01*
X8193Y4975D02*
X8157D01*
X8193Y5025D02*
X8157D01*
X8205Y1092D02*
X8169D01*
X8205Y3892D02*
X8169D01*
X8231Y2068D02*
Y2032D01*
Y2232D02*
Y2268D01*
Y4868D02*
Y4832D01*
Y5032D02*
Y5068D01*
X8279Y1018D02*
Y982D01*
Y1165D02*
Y1201D01*
Y3818D02*
Y3782D01*
Y3965D02*
Y4001D01*
X8354Y802D02*
Y766D01*
Y848D02*
Y884D01*
Y3602D02*
Y3566D01*
Y3648D02*
Y3684D01*
X8376Y825D02*
X8412D01*
X8376Y3625D02*
X8412D01*
X8479Y1018D02*
Y982D01*
Y1165D02*
Y1201D01*
Y3818D02*
Y3782D01*
Y3965D02*
Y4001D01*
X8601Y275D02*
X8565D01*
X8601Y2475D02*
X8565D01*
X8601Y3075D02*
X8565D01*
X8601Y5275D02*
X8565D01*
X8679Y197D02*
Y161D01*
Y353D02*
Y389D01*
Y1018D02*
Y982D01*
Y1165D02*
Y1201D01*
Y2397D02*
Y2361D01*
Y2553D02*
Y2589D01*
Y2997D02*
Y2961D01*
Y3153D02*
Y3189D01*
Y3818D02*
Y3782D01*
Y3965D02*
Y4001D01*
Y5197D02*
Y5161D01*
Y5353D02*
Y5389D01*
X8699Y2025D02*
X8663D01*
X8699Y2225D02*
X8663D01*
X8699Y4825D02*
X8663D01*
X8699Y5025D02*
X8663D01*
X8729Y2255D02*
Y2291D01*
Y5055D02*
Y5091D01*
X8757Y275D02*
X8793D01*
X8757Y2475D02*
X8793D01*
X8757Y3075D02*
X8793D01*
X8757Y5275D02*
X8793D01*
X8759Y2225D02*
X8795D01*
X8759Y5025D02*
X8795D01*
D02*
D97*
X229Y1175D02*
X141Y1088D01*
Y563*
X204Y500*
X429*
Y575*
X439*
X229Y2025D02*
X466Y2263D01*
Y2400*
X504Y2438*
X629*
X229Y3975D02*
X141Y3888D01*
Y3363*
X204Y3300*
X429*
Y3375*
X439*
X229Y4825D02*
X466Y5063D01*
Y5200*
X504Y5237*
X629*
X329Y575D02*
X319D01*
X329Y3375D02*
X319D01*
X501Y734D02*
X504Y738D01*
X679*
Y726*
X501Y734D02*
X491Y725D01*
X441Y675*
Y575*
X439*
X501Y3534D02*
X504Y3538D01*
X679*
Y3526*
X501Y3534D02*
X491Y3525D01*
X441Y3475*
Y3375*
X439*
X504Y925D02*
X501Y916D01*
X504Y925D02*
Y1025D01*
Y3725D02*
X501Y3716D01*
X504Y3725D02*
Y3825D01*
X579Y1225D02*
X629Y1275D01*
X579Y4025D02*
X629Y4075D01*
Y1275D02*
Y1788D01*
Y1275D02*
X816D01*
Y1280*
X629Y1788D02*
Y2375D01*
Y2438*
Y4075D02*
Y4588D01*
Y4075D02*
X816D01*
Y4080*
X629Y4588D02*
Y5175D01*
Y5237*
X679Y924D02*
Y913D01*
Y924D02*
Y925D01*
Y3724D02*
Y3713D01*
Y3724D02*
Y3725D01*
X729Y2375D02*
X679Y2325D01*
Y2225*
X729Y5175D02*
X679Y5125D01*
Y5025*
X816Y1150D02*
Y1170D01*
Y1150D02*
X970D01*
X816Y1170D02*
Y1163D01*
Y3950D02*
Y3970D01*
Y3950D02*
X970D01*
X816Y3970D02*
Y3963D01*
X829Y1425D02*
Y1637D01*
Y4225D02*
Y4437D01*
X841Y2100D02*
X845D01*
X841D02*
X829Y2088D01*
X841Y2238D02*
Y2175D01*
X845*
X841Y4900D02*
X845D01*
X841D02*
X829Y4888D01*
X841Y5038D02*
Y4975D01*
X845*
X866Y2288D02*
X916Y2338D01*
Y2438*
X866Y2288D02*
X809D01*
X791Y2270*
Y2150*
X841Y2100*
X866Y5087D02*
X916Y5138D01*
Y5237*
X866Y5087D02*
X809D01*
X791Y5070*
Y4950*
X841Y4900*
X879Y725D02*
X1054D01*
X879Y1525D02*
Y1637D01*
Y3525D02*
X1054D01*
X879Y4325D02*
Y4437D01*
X904Y1200D02*
Y1250D01*
X970*
X904Y1463D02*
X979Y1538D01*
Y1637*
X904Y4000D02*
Y4050D01*
X970*
X904Y4262D02*
X979Y4337D01*
Y4437*
X912Y2100D02*
X904D01*
X891Y2088*
Y2038*
X879Y2025*
Y2013*
X912Y2175D02*
X904D01*
X891Y2188*
Y2263*
X866Y2288*
X912Y4900D02*
X904D01*
X891Y4888*
Y4838*
X879Y4825*
Y4813*
X912Y4975D02*
X904D01*
X891Y4988*
Y5063*
X866Y5087*
X929Y1563D02*
Y1637D01*
Y2013D02*
Y2013D01*
X916Y2000*
Y1963*
X904Y1950*
X769*
X741Y1978*
Y2238*
X929Y4363D02*
Y4437D01*
Y4813D02*
Y4813D01*
X916Y4800*
Y4763*
X904Y4750*
X769*
X741Y4778*
Y5038*
X970Y1300D02*
X816D01*
Y1280*
X970Y4100D02*
X816D01*
Y4080*
X979Y2013D02*
Y2025D01*
X991Y2038*
Y2100*
X1054Y2163*
Y2175*
X1154Y2275*
X1179*
X979Y2163D02*
X916Y2100D01*
X912*
X979Y4813D02*
Y4825D01*
X991Y4838*
Y4900*
X1054Y4962*
Y4975*
X1154Y5075*
X1179*
X979Y4962D02*
X916Y4900D01*
X912*
X1016Y1375D02*
Y1500D01*
X1079*
Y1508*
X1016Y4175D02*
Y4300D01*
X1079*
Y4308*
X1029Y1088D02*
X1204Y913D01*
Y825*
X1029Y1088D02*
Y1175D01*
X1004Y1200*
X970*
X1029Y1088D02*
X904D01*
X892Y1082*
X1029Y1637D02*
Y1638D01*
X1016Y1650*
Y1688*
X1004Y1700*
X764*
X729Y1665*
Y1425*
X1029Y2013D02*
Y2025D01*
X1041Y2038*
Y2100*
X1116Y2175*
Y2188*
X1141Y2213*
X1241*
Y2238*
X1279Y2275*
X1029Y3888D02*
X1204Y3713D01*
Y3625*
X1029Y3888D02*
Y3975D01*
X1004Y4000*
X970*
X1029Y3888D02*
X904D01*
X892Y3882*
X1029Y4437D02*
Y4438D01*
X1016Y4450*
Y4488*
X1004Y4500*
X764*
X729Y4465*
Y4225*
X1029Y4813D02*
Y4825D01*
X1041Y4838*
Y4900*
X1116Y4975*
Y4988*
X1141Y5013*
X1241*
Y5038*
X1279Y5075*
X1079Y1508D02*
Y1637D01*
Y2013D02*
Y2025D01*
X1091Y2038*
Y2063*
X1166Y2138*
Y2163*
X1079Y4308D02*
Y4437D01*
Y4813D02*
Y4825D01*
X1091Y4838*
Y4863*
X1166Y4938*
Y4962*
X1129Y1637D02*
Y1638D01*
X1116Y1650*
Y1688*
X1066Y1738*
X707*
X679Y1710*
Y1325*
X1129Y2013D02*
Y2025D01*
X1141Y2038*
Y2063*
X1291Y2213*
X1424*
X1441Y2230*
Y2400*
X1316Y2525*
X529*
X404Y2400*
Y2365*
X166Y2128*
Y1888*
X229Y1825*
X1129Y4437D02*
Y4438D01*
X1116Y4450*
Y4488*
X1066Y4538*
X707*
X679Y4510*
Y4125*
X1129Y4813D02*
Y4825D01*
X1141Y4838*
Y4863*
X1291Y5013*
X1424*
X1441Y5030*
Y5200*
X1316Y5325*
X529*
X404Y5200*
Y5165*
X166Y4928*
Y4687*
X229Y4625*
X1179Y1350D02*
Y1300D01*
X1187*
X1179Y1450D02*
Y1442D01*
Y1450D02*
X1079D01*
Y1442*
X1179Y1513D02*
Y1508D01*
Y1513D02*
X1229D01*
Y1508*
X1179Y1637D02*
Y1638D01*
X1166Y1650*
Y1688*
X1066Y1788*
X629*
X1179Y1637D02*
Y1513D01*
Y2013D02*
Y2013D01*
X1166Y2000*
Y1963*
X1116Y1913*
X707*
X679Y1940*
Y1975*
X1179Y4150D02*
Y4100D01*
X1187*
X1179Y4250D02*
Y4242D01*
Y4250D02*
X1079D01*
Y4242*
X1179Y4313D02*
Y4308D01*
Y4313D02*
X1229D01*
Y4308*
X1179Y4437D02*
Y4438D01*
X1166Y4450*
Y4488*
X1066Y4588*
X629*
X1179Y4437D02*
Y4313D01*
Y4813D02*
Y4813D01*
X1166Y4800*
Y4763*
X1116Y4713*
X707*
X679Y4740*
Y4775*
X1187Y1200D02*
X1191D01*
X1187Y4000D02*
X1191D01*
Y1200D02*
Y1250D01*
X1187*
X1191Y1200D02*
X1279D01*
X1191Y4000D02*
Y4050D01*
X1187*
X1191Y4000D02*
X1279D01*
X1229Y1450D02*
Y1442D01*
Y1450D02*
X1179D01*
X1229Y1637D02*
Y1725D01*
X1204Y1750*
X1179*
X1229Y4250D02*
Y4242D01*
Y4250D02*
X1179D01*
X1229Y4437D02*
Y4525D01*
X1204Y4550*
X1179*
X1254Y388D02*
Y725D01*
Y3188D02*
Y3525D01*
X1266Y2088D02*
X1229Y2050D01*
Y2013*
X1266Y4888D02*
X1229Y4850D01*
Y4813*
X1279Y1100D02*
X1191D01*
Y1150*
X1187*
X1279Y1200D02*
X1379D01*
X1279Y1567D02*
Y1637D01*
Y2013D02*
Y2013D01*
X1266Y2000*
Y1963*
X1141Y1838*
X679*
X1279Y2375D02*
X1166Y2488D01*
X679*
X629Y2438*
X1279Y3900D02*
X1191D01*
Y3950*
X1187*
X1279Y4000D02*
X1379D01*
X1279Y4367D02*
Y4437D01*
Y4813D02*
Y4813D01*
X1266Y4800*
Y4763*
X1141Y4638*
X679*
X1279Y5175D02*
X1166Y5288D01*
X679*
X629Y5237*
X1354Y1113D02*
X1279D01*
Y1100*
X1354Y2125D02*
X1329Y2100D01*
Y2013*
X1354Y3913D02*
X1279D01*
Y3900*
X1354Y4925D02*
X1329Y4900D01*
Y4813*
X1379Y1637D02*
Y1710D01*
X1407Y1738*
X1548*
X1379Y2013D02*
Y2013D01*
Y2013D02*
X1329D01*
Y2013*
X1379Y4437D02*
Y4510D01*
X1407Y4538*
X1548*
X1379Y4813D02*
Y4813D01*
Y4813D02*
X1329D01*
Y4813*
X1404Y825D02*
X1066Y1163D01*
Y1238*
X1004Y1300*
X970*
X1404Y1513D02*
X1329Y1588D01*
Y1637*
X1404Y3625D02*
X1066Y3963D01*
Y4038*
X1004Y4100*
X970*
X1404Y4313D02*
X1329Y4388D01*
Y4437*
X1429Y1292D02*
Y1300D01*
X1187*
X1429Y2013D02*
Y1975D01*
X1704Y1700*
Y1431*
X1779Y1356*
Y1250*
X1754Y1225*
X1708*
X1429Y2013D02*
Y2125D01*
Y4092D02*
Y4100D01*
X1187*
X1429Y4813D02*
Y4775D01*
X1704Y4500*
Y4231*
X1779Y4156*
Y4050*
X1754Y4025*
X1708*
X1429Y4813D02*
Y4925D01*
X1441Y1175D02*
X1429Y1188D01*
Y1292*
X1441Y1563D02*
Y1550D01*
X1454Y1538*
Y1488*
X1416Y1450*
X1229*
X1441Y1563D02*
Y1613D01*
X1429Y1625*
Y1637*
X1441Y3975D02*
X1429Y3987D01*
Y4092*
X1441Y4363D02*
Y4350D01*
X1454Y4337*
Y4288*
X1416Y4250*
X1229*
X1441Y4363D02*
Y4413D01*
X1429Y4425*
Y4437*
X1479Y1637D02*
Y1638D01*
X1529*
Y1650*
X1479Y4437D02*
Y4438D01*
X1529*
Y4450*
X1491Y1363D02*
Y825D01*
X1391Y725*
X1491Y1363D02*
X1429D01*
Y1358*
X1491Y1363D02*
X1554D01*
Y1358*
X1491Y4163D02*
Y3625D01*
X1391Y3525*
X1491Y4163D02*
X1429D01*
Y4158*
X1491Y4163D02*
X1554D01*
Y4158*
X1541Y813D02*
X1629Y725D01*
X1541Y1013D02*
X1579Y1050D01*
Y1075*
X1541Y1225D02*
X1554Y1238D01*
Y1288*
X1541Y3613D02*
X1629Y3525D01*
X1541Y3813D02*
X1579Y3850D01*
Y3875*
X1541Y4025D02*
X1554Y4038D01*
Y4088*
Y1288D02*
Y1292D01*
Y1288D02*
X1704D01*
Y1275*
X1708*
X1554Y4088D02*
Y4092D01*
Y4088D02*
X1704D01*
Y4075*
X1708*
X1579Y1075D02*
X1708D01*
X1579Y1175D02*
X1708D01*
X1579Y3875D02*
X1708D01*
X1579Y3975D02*
X1708D01*
X1616Y813D02*
X1704D01*
Y808*
X1616Y3613D02*
X1704D01*
Y3608*
X1629Y725D02*
X1704Y650D01*
Y642*
X1629Y3525D02*
X1704Y3450D01*
Y3442*
X1708Y1325D02*
X1704D01*
X1604Y1425*
Y1750*
X1379Y1975*
Y2013*
X1708Y4125D02*
X1704D01*
X1604Y4225*
Y4550*
X1379Y4775*
Y4813*
X1779Y400D02*
X1841Y463D01*
Y539*
X1965Y663*
X2141*
X2204Y725*
X1779Y2325D02*
X1479Y2025D01*
Y2013*
X1779Y2325D02*
Y2375D01*
Y2325D02*
Y2188D01*
X1697Y2116*
X1668Y2116*
X1779Y3200D02*
X1841Y3263D01*
Y3339*
X1965Y3463*
X2141*
X2204Y3525*
X1779Y5125D02*
X1479Y4825D01*
Y4813*
X1779Y5125D02*
Y5175D01*
Y5125D02*
Y4988D01*
X1697Y4916*
X1668Y4916*
X1791Y1125D02*
X1708D01*
X1791Y3925D02*
X1708D01*
X1804Y2042D02*
Y2050D01*
X1704*
X1668Y2050*
X1804Y2108D02*
Y2113D01*
X1854Y2163*
Y2350*
X1879Y2375*
X1804Y4842D02*
Y4850D01*
X1704*
X1668Y4850*
X1804Y4908D02*
Y4913D01*
X1854Y4962*
Y5150*
X1879Y5175*
X1816Y2038D02*
X1804Y2042D01*
X1816Y2038D02*
X1904D01*
X1895Y2037*
X1816Y2038D02*
X1804D01*
Y2042*
X1816Y4838D02*
X1804Y4842D01*
X1816Y4838D02*
X1904D01*
X1895Y4837*
X1816Y4838D02*
X1804D01*
Y4842*
X1843Y1025D02*
X1879Y1060D01*
Y1150*
X1843Y3825D02*
X1879Y3860D01*
Y3950*
Y1150D02*
Y1250D01*
X1904Y1275*
X1950*
X1879Y1150D02*
X1904Y1175D01*
X1950*
X1879Y2375D02*
Y2440D01*
X1914Y2475*
X2191*
X2304Y2363*
Y1985*
X2268Y1950*
X2164*
X1879Y3950D02*
Y4050D01*
X1904Y4075*
X1950*
X1879Y3950D02*
X1904Y3975D01*
X1950*
X1879Y5175D02*
Y5240D01*
X1914Y5275*
X2191*
X2304Y5162*
Y4785*
X2268Y4750*
X2164*
X1891Y1975D02*
Y1875D01*
Y4775D02*
Y4675D01*
X1895Y2104D02*
X1904Y2113D01*
X1891Y2125*
Y2288*
X1979Y2375*
X1895Y2104D02*
X1916Y2113D01*
X2016*
Y2125*
X2026*
X1895Y4904D02*
X1904Y4913D01*
X1891Y4925*
Y5087*
X1979Y5175*
X1895Y4904D02*
X1916Y4913D01*
X2016*
Y4925*
X2026*
X1916Y2038D02*
X1895Y2037D01*
X1916Y4838D02*
X1895Y4837D01*
X1941Y1325D02*
X1950D01*
X1941Y2213D02*
Y2175D01*
X2026*
X1941Y4125D02*
X1950D01*
X1941Y5013D02*
Y4975D01*
X2026*
X1950Y1025D02*
X1954D01*
X1991Y988*
Y738*
X2004Y725*
X1950Y1275D02*
X2054D01*
X1950Y3825D02*
X1954D01*
X1991Y3788*
Y3538*
X2004Y3525*
X1950Y4075D02*
X2054D01*
X1991Y1513D02*
X2279D01*
Y1508*
X1991Y2275D02*
Y2250D01*
X2016Y2225*
X2026*
X1991Y4313D02*
X2279D01*
Y4308*
X1991Y5075D02*
Y5050D01*
X2016Y5025*
X2026*
X2029Y2038D02*
Y2075D01*
X2026*
X2029Y4838D02*
Y4875D01*
X2026*
X2034Y1800D02*
X2154Y1650D01*
X2408*
X2479Y1579*
Y1508*
X2034Y4599D02*
X2154Y4450D01*
X2408*
X2479Y4379*
Y4308*
X2054Y1333D02*
Y1325D01*
Y1875D02*
Y1875D01*
X1959*
X2054Y1913D02*
Y1913D01*
X2099*
X2116Y1930*
Y2013*
X2204Y2100*
X2054Y1950D02*
X2029Y1975D01*
X2054Y4133D02*
Y4125D01*
Y4675D02*
Y4675D01*
X1959*
X2054Y4713D02*
Y4713D01*
X2099*
X2116Y4730*
Y4813*
X2179Y4875*
X2204Y4900*
X2054Y4750D02*
X2029Y4775D01*
X2079Y1075D02*
X1950D01*
X2079Y3875D02*
X1950D01*
X2164Y1875D02*
X2166Y1875D01*
X2296*
X2341Y1920*
Y2375*
X2204Y2513*
X1824*
X1779Y2467*
Y2375*
X2164Y4675D02*
X2166Y4675D01*
X2296*
X2341Y4720*
Y5175*
X2204Y5313*
X1824*
X1779Y5267*
Y5175*
X2204Y2100D02*
X2229Y2075D01*
X2231*
X2204Y2100D02*
X2229Y2125D01*
X2204Y4900D02*
X2229Y4875D01*
X2231*
X2204Y4900D02*
X2229Y4925D01*
Y2125D02*
X2231D01*
X2229D02*
Y2175D01*
X2231*
X2229D02*
Y2225D01*
X2231*
X2229Y4925D02*
X2231D01*
X2229D02*
Y4975D01*
X2231*
X2229D02*
Y5025D01*
X2231*
X2279Y1308D02*
Y1442D01*
Y4108D02*
Y4242D01*
X2354Y825D02*
X2366Y813D01*
Y700*
X1916Y250*
X1679*
X1629Y300*
Y725*
X2354Y3625D02*
X2366Y3613D01*
Y3500*
X1916Y3050*
X1679*
X1629Y3100*
Y3525*
X2479Y1308D02*
Y1442D01*
Y4108D02*
Y4242D01*
X2679Y1100D02*
X2216D01*
X2054Y1263*
Y1267*
X2679Y1308D02*
Y1442D01*
Y1513D02*
Y1508D01*
Y3900D02*
X2216D01*
X2054Y4063*
Y4067*
X2679Y4108D02*
Y4242D01*
Y4313D02*
Y4308D01*
X2729Y2125D02*
X2791Y2063D01*
Y888*
X2729Y4925D02*
X2791Y4863D01*
Y3688*
X3229Y1175D02*
X3141Y1088D01*
Y563*
X3204Y500*
X3429*
Y575*
X3439*
X3229Y2025D02*
X3466Y2263D01*
Y2400*
X3504Y2438*
X3629*
X3229Y3975D02*
X3141Y3888D01*
Y3363*
X3204Y3300*
X3429*
Y3375*
X3439*
X3229Y4825D02*
X3466Y5063D01*
Y5200*
X3504Y5237*
X3629*
X3329Y575D02*
X3319D01*
X3329Y3375D02*
X3319D01*
X3501Y734D02*
X3504Y738D01*
X3679*
Y726*
X3501Y734D02*
X3491Y725D01*
X3441Y675*
Y575*
X3439*
X3501Y3534D02*
X3504Y3538D01*
X3679*
Y3526*
X3501Y3534D02*
X3491Y3525D01*
X3441Y3475*
Y3375*
X3439*
X3504Y925D02*
X3501Y916D01*
X3504Y925D02*
Y1025D01*
Y3725D02*
X3501Y3716D01*
X3504Y3725D02*
Y3825D01*
X3579Y1225D02*
X3629Y1275D01*
Y1788*
Y1275D02*
X3816D01*
Y1280*
X3629Y1788D02*
Y2375D01*
Y2438*
Y4075D02*
X3579Y4025D01*
X3629Y4075D02*
Y4588D01*
Y4075D02*
X3816D01*
Y4080*
X3629Y4588D02*
Y5175D01*
Y5237*
X3679Y924D02*
Y913D01*
Y924D02*
Y925D01*
Y3724D02*
Y3713D01*
Y3724D02*
Y3725D01*
X3729Y2375D02*
X3679Y2325D01*
Y2225*
X3729Y5175D02*
X3679Y5125D01*
Y5025*
X3816Y1150D02*
Y1170D01*
Y1150D02*
X3970D01*
X3816Y1170D02*
Y1163D01*
Y3950D02*
Y3970D01*
Y3950D02*
X3970D01*
X3816Y3970D02*
Y3963D01*
X3829Y1425D02*
Y1637D01*
Y4225D02*
Y4437D01*
X3841Y2100D02*
X3845D01*
X3841D02*
X3829Y2088D01*
X3841Y2238D02*
Y2175D01*
X3845*
X3841Y4900D02*
X3845D01*
X3841D02*
X3829Y4888D01*
X3841Y5038D02*
Y4975D01*
X3845*
X3866Y2288D02*
X3916Y2338D01*
Y2438*
X3866Y2288D02*
X3809D01*
X3791Y2270*
Y2150*
X3841Y2100*
X3866Y5087D02*
X3916Y5138D01*
Y5237*
X3866Y5087D02*
X3809D01*
X3791Y5070*
Y4950*
X3841Y4900*
X3879Y725D02*
X4054D01*
X3879Y1525D02*
Y1637D01*
Y3525D02*
X4054D01*
X3879Y4325D02*
Y4437D01*
X3904Y1200D02*
Y1250D01*
X3970*
X3904Y1463D02*
X3979Y1538D01*
Y1637*
X3904Y4000D02*
Y4050D01*
X3970*
X3904Y4262D02*
X3979Y4337D01*
Y4437*
X3912Y2100D02*
X3904D01*
X3891Y2088*
Y2038*
X3879Y2025*
Y2013*
X3912Y2175D02*
X3904D01*
X3891Y2188*
Y2263*
X3866Y2288*
X3912Y4900D02*
X3904D01*
X3891Y4888*
Y4838*
X3879Y4825*
Y4813*
X3912Y4975D02*
X3904D01*
X3891Y4988*
Y5063*
X3866Y5087*
X3929Y1563D02*
Y1637D01*
Y2013D02*
Y2013D01*
X3916Y2000*
Y1963*
X3904Y1950*
X3769*
X3741Y1978*
Y2238*
X3929Y4363D02*
Y4437D01*
Y4813D02*
Y4813D01*
X3916Y4800*
Y4763*
X3904Y4750*
X3769*
X3741Y4778*
Y5038*
X3970Y1300D02*
X3816D01*
Y1280*
X3970Y4100D02*
X3816D01*
Y4080*
X3979Y2013D02*
Y2025D01*
X3991Y2038*
Y2100*
X4054Y2163*
Y2175*
X4154Y2275*
X4179*
X3979Y2163D02*
X3916Y2100D01*
X3912*
X3979Y4813D02*
Y4825D01*
X3991Y4838*
Y4900*
X4054Y4962*
Y4975*
X4154Y5075*
X4179*
X3979Y4962D02*
X3916Y4900D01*
X3912*
X4016Y1375D02*
Y1500D01*
X4079*
Y1508*
X4016Y4175D02*
Y4300D01*
X4079*
Y4308*
X4029Y1088D02*
X4204Y913D01*
Y825*
X4029Y1088D02*
Y1175D01*
X4004Y1200*
X3970*
X4029Y1088D02*
X3904D01*
X3892Y1082*
X4029Y1637D02*
Y1638D01*
X4016Y1650*
Y1688*
X4004Y1700*
X3764*
X3729Y1665*
Y1425*
X4029Y2013D02*
Y2025D01*
X4041Y2038*
Y2100*
X4116Y2175*
Y2188*
X4141Y2213*
X4241*
Y2238*
X4279Y2275*
X4029Y3888D02*
X4204Y3713D01*
Y3625*
X4029Y3888D02*
Y3975D01*
X4004Y4000*
X3970*
X4029Y3888D02*
X3904D01*
X3892Y3882*
X4029Y4437D02*
Y4438D01*
X4016Y4450*
Y4488*
X4004Y4500*
X3764*
X3729Y4465*
Y4225*
X4029Y4813D02*
Y4825D01*
X4041Y4838*
Y4900*
X4116Y4975*
Y4988*
X4141Y5013*
X4241*
Y5038*
X4279Y5075*
X4079Y1508D02*
Y1637D01*
Y2013D02*
Y2025D01*
X4091Y2038*
Y2063*
X4166Y2138*
Y2163*
X4079Y4308D02*
Y4437D01*
Y4813D02*
Y4825D01*
X4091Y4838*
Y4863*
X4166Y4938*
Y4962*
X4129Y1637D02*
Y1638D01*
X4116Y1650*
Y1688*
X4066Y1738*
X3707*
X3679Y1710*
Y1325*
X4129Y2013D02*
Y2025D01*
X4141Y2038*
Y2063*
X4291Y2213*
X4424*
X4441Y2230*
Y2400*
X4316Y2525*
X3529*
X3404Y2400*
Y2365*
X3166Y2128*
Y1888*
X3229Y1825*
X4129Y4437D02*
Y4438D01*
X4116Y4450*
Y4488*
X4066Y4538*
X3707*
X3679Y4510*
Y4125*
X4129Y4813D02*
Y4825D01*
X4141Y4838*
Y4863*
X4291Y5013*
X4424*
X4441Y5030*
Y5200*
X4316Y5325*
X3529*
X3404Y5200*
Y5165*
X3166Y4928*
Y4687*
X3229Y4625*
X4179Y1350D02*
Y1300D01*
X4187*
X4179Y1450D02*
Y1442D01*
Y1450D02*
X4079D01*
Y1442*
X4179Y1513D02*
Y1508D01*
Y1513D02*
X4229D01*
Y1508*
X4179Y1637D02*
Y1638D01*
X4166Y1650*
Y1688*
X4066Y1788*
X3629*
X4179Y1637D02*
Y1513D01*
Y2013D02*
Y2013D01*
X4166Y2000*
Y1963*
X4116Y1913*
X3707*
X3679Y1940*
Y1975*
X4179Y4150D02*
Y4100D01*
X4187*
X4179Y4250D02*
Y4242D01*
Y4250D02*
X4079D01*
Y4242*
X4179Y4313D02*
Y4308D01*
Y4313D02*
X4229D01*
Y4308*
X4179Y4437D02*
Y4438D01*
X4166Y4450*
Y4488*
X4066Y4588*
X3629*
X4179Y4437D02*
Y4313D01*
Y4813D02*
Y4813D01*
X4166Y4800*
Y4763*
X4116Y4713*
X3707*
X3679Y4740*
Y4775*
X4187Y1200D02*
X4191D01*
X4187Y4000D02*
X4191D01*
Y1200D02*
Y1250D01*
X4187*
X4191Y1200D02*
X4279D01*
X4191Y4000D02*
Y4050D01*
X4187*
X4191Y4000D02*
X4279D01*
X4229Y1450D02*
Y1442D01*
Y1450D02*
X4179D01*
X4229Y1637D02*
Y1725D01*
X4204Y1750*
X4179*
X4229Y4250D02*
Y4242D01*
Y4250D02*
X4179D01*
X4229Y4437D02*
Y4525D01*
X4204Y4550*
X4179*
X4254Y388D02*
Y725D01*
Y3188D02*
Y3525D01*
X4266Y2088D02*
X4229Y2050D01*
Y2013*
X4266Y4888D02*
X4229Y4850D01*
Y4813*
X4279Y1100D02*
X4191D01*
Y1150*
X4187*
X4279Y1200D02*
X4379D01*
X4279Y1567D02*
Y1637D01*
Y2013D02*
Y2013D01*
X4266Y2000*
Y1963*
X4141Y1838*
X3679*
X4279Y2375D02*
X4166Y2488D01*
X3679*
X3629Y2438*
X4279Y3900D02*
X4191D01*
Y3950*
X4187*
X4279Y4000D02*
X4379D01*
X4279Y4367D02*
Y4437D01*
Y4813D02*
Y4813D01*
X4266Y4800*
Y4763*
X4141Y4638*
X3679*
X4279Y5175D02*
X4166Y5288D01*
X3679*
X3629Y5237*
X4354Y1113D02*
X4279D01*
Y1100*
X4354Y2125D02*
X4329Y2100D01*
Y2013*
X4354Y3913D02*
X4279D01*
Y3900*
X4354Y4925D02*
X4329Y4900D01*
Y4813*
X4379Y1637D02*
Y1710D01*
X4407Y1738*
X4548*
X4379Y2013D02*
Y2013D01*
Y2013D02*
X4329D01*
Y2013*
X4379Y4437D02*
Y4510D01*
X4407Y4538*
X4548*
X4379Y4813D02*
Y4813D01*
Y4813D02*
X4329D01*
Y4813*
X4404Y825D02*
X4066Y1163D01*
Y1238*
X4004Y1300*
X3970*
X4404Y1513D02*
X4329Y1588D01*
Y1637*
X4404Y3625D02*
X4066Y3963D01*
Y4038*
X4004Y4100*
X3970*
X4404Y4313D02*
X4329Y4388D01*
Y4437*
X4429Y1292D02*
Y1300D01*
X4187*
X4429Y2013D02*
Y1975D01*
X4704Y1700*
Y1431*
X4779Y1356*
Y1250*
X4754Y1225*
X4708*
X4429Y2013D02*
Y2125D01*
Y4092D02*
Y4100D01*
X4187*
X4429Y4813D02*
Y4775D01*
X4704Y4500*
Y4231*
X4779Y4156*
Y4050*
X4754Y4025*
X4708*
X4429Y4813D02*
Y4925D01*
X4441Y1175D02*
X4429Y1188D01*
Y1292*
X4441Y1563D02*
Y1550D01*
X4454Y1538*
Y1488*
X4416Y1450*
X4229*
X4441Y1563D02*
Y1613D01*
X4429Y1625*
Y1637*
X4441Y3975D02*
X4429Y3987D01*
Y4092*
X4441Y4363D02*
Y4350D01*
X4454Y4337*
Y4288*
X4416Y4250*
X4229*
X4441Y4363D02*
Y4413D01*
X4429Y4425*
Y4437*
X4479Y1637D02*
Y1638D01*
X4529*
Y1650*
X4491Y1363D02*
Y825D01*
X4391Y725*
X4491Y1363D02*
X4429D01*
Y1358*
X4491Y1363D02*
X4554D01*
Y1358*
X4491Y4163D02*
Y3625D01*
X4391Y3525*
X4491Y4163D02*
X4429D01*
Y4158*
X4491Y4163D02*
X4554D01*
Y4158*
X4529Y4450D02*
Y4438D01*
X4479*
Y4437*
X4541Y813D02*
X4629Y725D01*
X4541Y1013D02*
X4579Y1050D01*
Y1075*
X4541Y1225D02*
X4554Y1238D01*
Y1288*
X4541Y3813D02*
X4579Y3850D01*
Y3875*
X4541Y4025D02*
X4554Y4038D01*
Y4088*
Y1288D02*
Y1292D01*
Y1288D02*
X4704D01*
Y1275*
X4708*
X4554Y4088D02*
Y4092D01*
Y4088D02*
X4704D01*
Y4075*
X4708*
X4579Y1075D02*
X4708D01*
X4579Y1175D02*
X4708D01*
X4579Y3875D02*
X4708D01*
X4579Y3975D02*
X4708D01*
X4616Y813D02*
X4704D01*
Y808*
X4616Y3613D02*
X4704D01*
Y3608*
X4629Y725D02*
X4704Y650D01*
Y642*
X4629Y3525D02*
X4704Y3450D01*
Y3442*
X4629Y3525D02*
X4541Y3613D01*
X4708Y1325D02*
X4704D01*
X4604Y1425*
Y1750*
X4379Y1975*
Y2013*
X4708Y4125D02*
X4704D01*
X4604Y4225*
Y4550*
X4379Y4775*
Y4813*
X4779Y400D02*
X4841Y463D01*
Y539*
X4965Y663*
X5141*
X5204Y725*
X4779Y2325D02*
X4479Y2025D01*
Y2013*
X4779Y2325D02*
Y2375D01*
Y2325D02*
Y2188D01*
X4697Y2116*
X4668Y2116*
X4779Y3200D02*
X4841Y3263D01*
Y3339*
X4965Y3463*
X5141*
X5204Y3525*
X4779Y5125D02*
X4479Y4825D01*
Y4813*
X4779Y5125D02*
Y4988D01*
X4697Y4916*
X4668Y4916*
X4779Y5175D02*
Y5125D01*
X4791Y1125D02*
X4708D01*
X4791Y3925D02*
X4708D01*
X4804Y2042D02*
Y2050D01*
X4704*
X4668Y2050*
X4804Y2108D02*
Y2113D01*
X4854Y2163*
Y2350*
X4879Y2375*
X4804Y4842D02*
Y4850D01*
X4704*
X4668Y4850*
X4804Y4908D02*
Y4913D01*
X4854Y4962*
Y5150*
X4879Y5175*
X4816Y2038D02*
X4804Y2042D01*
X4816Y2038D02*
X4904D01*
X4895Y2037*
X4816Y2038D02*
X4804D01*
Y2042*
X4816Y4838D02*
X4804Y4842D01*
X4816Y4838D02*
X4904D01*
X4895Y4837*
X4816Y4838D02*
X4804D01*
Y4842*
X4843Y1025D02*
X4879Y1060D01*
Y1150*
X4843Y3825D02*
X4879Y3860D01*
Y3950*
Y1150D02*
X4904Y1175D01*
X4950*
X4879Y2375D02*
Y2440D01*
X4914Y2475*
X5191*
X5304Y2363*
Y1985*
X5268Y1950*
X5164*
X4879Y3950D02*
X4904Y3975D01*
X4950*
X4879Y5175D02*
Y5240D01*
X4914Y5275*
X5191*
X5304Y5162*
Y4785*
X5268Y4750*
X5164*
X4891Y1975D02*
Y1875D01*
Y4775D02*
Y4675D01*
X4895Y2104D02*
X4904Y2113D01*
X4891Y2125*
Y2288*
X4979Y2375*
X4895Y2104D02*
X4916Y2113D01*
X5016*
Y2125*
X5026*
X4895Y4904D02*
X4904Y4913D01*
X4891Y4925*
Y5087*
X4979Y5175*
X4895Y4904D02*
X4916Y4913D01*
X5016*
Y4925*
X5026*
X4916Y2038D02*
X4895Y2037D01*
X4916Y4838D02*
X4895Y4837D01*
X4941Y2213D02*
Y2175D01*
X5026*
X4941Y5013D02*
Y4975D01*
X5026*
X4950Y1025D02*
X4954D01*
X4991Y988*
Y738*
X5004Y725*
X4950Y1325D02*
X4941D01*
X4950Y3825D02*
X4954D01*
X4991Y3788*
Y3538*
X5004Y3525*
X4950Y4125D02*
X4941D01*
X4991Y1513D02*
X5279D01*
Y1508*
X4991Y2275D02*
Y2250D01*
X5016Y2225*
X5026*
X4991Y4313D02*
X5279D01*
Y4308*
X5026Y5025D02*
X5016D01*
X4991Y5050*
Y5075*
X5029Y2038D02*
Y2075D01*
X5026*
X5029Y4838D02*
Y4875D01*
X5026*
X5034Y1800D02*
X5154Y1650D01*
X5408*
X5479Y1579*
Y1508*
X5034Y4599D02*
X5154Y4450D01*
X5408*
X5479Y4379*
Y4308*
X5054Y1275D02*
X4904D01*
X4879Y1250*
Y1150*
X5054Y1333D02*
Y1325D01*
Y1875D02*
Y1875D01*
X4959*
X5054Y1913D02*
Y1913D01*
X5099*
X5116Y1930*
Y2013*
X5179Y2075*
X5204Y2100*
X5054Y1950D02*
X5029Y1975D01*
X5054Y4075D02*
X4904D01*
X4879Y4050*
Y3950*
X5054Y4133D02*
Y4125D01*
Y4675D02*
Y4675D01*
X4959*
X5054Y4713D02*
Y4713D01*
X5099*
X5116Y4730*
Y4813*
X5204Y4900*
X5054Y4750D02*
X5029Y4775D01*
X5079Y1075D02*
X4950D01*
X5079Y3875D02*
X4950D01*
X5164Y1875D02*
X5166Y1875D01*
X5296*
X5341Y1920*
Y2375*
X5204Y2513*
X4824*
X4779Y2467*
Y2375*
X5164Y4675D02*
X5166Y4675D01*
X5296*
X5341Y4720*
Y5175*
X5204Y5313*
X4824*
X4779Y5267*
Y5175*
X5204Y2100D02*
X5229Y2075D01*
X5231*
X5204Y2100D02*
X5229Y2125D01*
X5204Y4900D02*
X5229Y4875D01*
X5231*
X5204Y4900D02*
X5229Y4925D01*
Y2125D02*
X5231D01*
X5229D02*
Y2175D01*
X5231*
X5229D02*
Y2225D01*
X5231*
X5229Y4925D02*
X5231D01*
X5229D02*
Y4975D01*
X5231*
X5229D02*
Y5025D01*
X5231*
X5279Y1308D02*
Y1442D01*
Y4108D02*
Y4242D01*
X5354Y825D02*
X5366Y813D01*
Y700*
X4916Y250*
X4679*
X4629Y300*
Y725*
X5354Y3625D02*
X5366Y3613D01*
Y3500*
X4916Y3050*
X4679*
X4629Y3100*
Y3525*
X5479Y1308D02*
Y1442D01*
Y4108D02*
Y4242D01*
X5679Y1100D02*
X5216D01*
X5054Y1263*
Y1267*
X5679Y1308D02*
Y1442D01*
Y1513D02*
Y1508D01*
Y3900D02*
X5216D01*
X5054Y4063*
Y4067*
X5679Y4108D02*
Y4242D01*
Y4313D02*
Y4308D01*
X5729Y2125D02*
X5791Y2063D01*
Y888*
X5729Y4925D02*
X5791Y4863D01*
Y3688*
X6229Y1175D02*
X6141Y1088D01*
Y563*
X6204Y500*
X6429*
Y575*
X6439*
X6229Y2025D02*
X6466Y2263D01*
Y2400*
X6504Y2438*
X6629*
X6229Y3975D02*
X6141Y3888D01*
Y3363*
X6204Y3300*
X6429*
Y3375*
X6439*
X6229Y4825D02*
X6466Y5063D01*
Y5200*
X6504Y5237*
X6629*
X6329Y575D02*
X6319D01*
X6329Y3375D02*
X6319D01*
X6439Y575D02*
X6441D01*
Y675*
X6491Y725*
X6501Y734*
X6504Y738*
X6679*
Y726*
X6439Y3375D02*
X6441D01*
Y3475*
X6491Y3525*
X6501Y3534*
X6504Y3538*
X6679*
Y3526*
X6504Y925D02*
X6501Y916D01*
X6504Y925D02*
Y1025D01*
Y3725D02*
X6501Y3716D01*
X6504Y3725D02*
Y3825D01*
X6579Y4025D02*
X6629Y4075D01*
Y1275D02*
X6579Y1225D01*
X6629Y1275D02*
Y1788D01*
Y1275D02*
X6816D01*
Y1280*
X6629Y1788D02*
Y2375D01*
Y2438*
Y4075D02*
Y4588D01*
Y4075D02*
X6816D01*
Y4080*
X6629Y4588D02*
Y5175D01*
Y5237*
X6679Y924D02*
Y913D01*
Y924D02*
Y925D01*
Y3724D02*
Y3713D01*
Y3724D02*
Y3725D01*
X6729Y2375D02*
X6679Y2325D01*
Y2225*
X6729Y5175D02*
X6679Y5125D01*
Y5025*
X6816Y1150D02*
Y1170D01*
Y1150D02*
X6970D01*
X6816Y1170D02*
Y1163D01*
Y3950D02*
Y3970D01*
Y3950D02*
X6970D01*
X6816Y3970D02*
Y3963D01*
X6829Y1425D02*
Y1637D01*
Y4225D02*
Y4437D01*
X6841Y2100D02*
X6845D01*
X6841D02*
X6829Y2088D01*
X6841Y2238D02*
Y2175D01*
X6845*
X6841Y4900D02*
X6845D01*
X6841D02*
X6829Y4888D01*
X6841Y5038D02*
Y4975D01*
X6845*
X6866Y2288D02*
X6916Y2338D01*
Y2438*
X6866Y2288D02*
X6809D01*
X6791Y2270*
Y2150*
X6841Y2100*
X6866Y5087D02*
X6916Y5138D01*
Y5237*
X6866Y5087D02*
X6809D01*
X6791Y5070*
Y4950*
X6841Y4900*
X6879Y725D02*
X7054D01*
X6879Y1525D02*
Y1637D01*
Y3525D02*
X7054D01*
X6879Y4325D02*
Y4437D01*
X6904Y1200D02*
Y1250D01*
X6970*
X6904Y1463D02*
X6979Y1538D01*
Y1637*
X6904Y4000D02*
Y4050D01*
X6970*
X6904Y4262D02*
X6979Y4337D01*
Y4437*
X6912Y2100D02*
X6904D01*
X6891Y2088*
Y2038*
X6879Y2025*
Y2013*
X6912Y2175D02*
X6904D01*
X6891Y2188*
Y2263*
X6866Y2288*
X6912Y4900D02*
X6904D01*
X6891Y4888*
Y4838*
X6879Y4825*
Y4813*
X6912Y4975D02*
X6904D01*
X6891Y4988*
Y5063*
X6866Y5087*
X6929Y1563D02*
Y1637D01*
Y2013D02*
Y2013D01*
X6916Y2000*
Y1963*
X6904Y1950*
X6769*
X6741Y1978*
Y2238*
X6929Y4363D02*
Y4437D01*
Y4813D02*
Y4813D01*
X6916Y4800*
Y4763*
X6904Y4750*
X6769*
X6741Y4778*
Y5038*
X6970Y1300D02*
X6816D01*
Y1280*
X6970Y4100D02*
X6816D01*
Y4080*
X6979Y2013D02*
Y2025D01*
X6991Y2038*
Y2100*
X7054Y2163*
Y2175*
X7154Y2275*
X7179*
X6979Y2163D02*
X6916Y2100D01*
X6912*
X6979Y4813D02*
Y4825D01*
X6991Y4838*
Y4900*
X7054Y4962*
Y4975*
X7154Y5075*
X7179*
X6979Y4962D02*
X6916Y4900D01*
X6912*
X7016Y1375D02*
Y1500D01*
X7079*
Y1508*
X7016Y4175D02*
Y4300D01*
X7079*
Y4308*
X7029Y1088D02*
X7204Y913D01*
Y825*
X7029Y1088D02*
Y1175D01*
X7004Y1200*
X6970*
X7029Y1088D02*
X6904D01*
X6892Y1082*
X7029Y1637D02*
Y1638D01*
X7016Y1650*
Y1688*
X7004Y1700*
X6764*
X6729Y1665*
Y1425*
X7029Y2013D02*
Y2025D01*
X7041Y2038*
Y2100*
X7116Y2175*
Y2188*
X7141Y2213*
X7241*
Y2238*
X7279Y2275*
X7029Y3888D02*
X7204Y3713D01*
Y3625*
X7029Y3888D02*
Y3975D01*
X7004Y4000*
X6970*
X7029Y3888D02*
X6904D01*
X6892Y3882*
X7029Y4437D02*
Y4438D01*
X7016Y4450*
Y4488*
X7004Y4500*
X6764*
X6729Y4465*
Y4225*
X7029Y4813D02*
Y4825D01*
X7041Y4838*
Y4900*
X7116Y4975*
Y4988*
X7141Y5013*
X7241*
Y5038*
X7279Y5075*
X7079Y1508D02*
Y1637D01*
Y2013D02*
Y2025D01*
X7091Y2038*
Y2063*
X7166Y2138*
Y2163*
X7079Y4308D02*
Y4437D01*
Y4813D02*
Y4825D01*
X7091Y4838*
Y4863*
X7166Y4938*
Y4962*
X7129Y1637D02*
Y1638D01*
X7116Y1650*
Y1688*
X7066Y1738*
X6707*
X6679Y1710*
Y1325*
X7129Y2013D02*
Y2025D01*
X7141Y2038*
Y2063*
X7291Y2213*
X7424*
X7441Y2230*
Y2400*
X7316Y2525*
X6529*
X6404Y2400*
Y2365*
X6166Y2128*
Y1888*
X6229Y1825*
X7129Y4437D02*
Y4438D01*
X7116Y4450*
Y4488*
X7066Y4538*
X6707*
X6679Y4510*
Y4125*
X7129Y4813D02*
Y4825D01*
X7141Y4838*
Y4863*
X7291Y5013*
X7424*
X7441Y5030*
Y5200*
X7316Y5325*
X6529*
X6404Y5200*
Y5165*
X6166Y4928*
Y4687*
X6229Y4625*
X7179Y1350D02*
Y1300D01*
X7187*
X7179Y1450D02*
Y1442D01*
Y1450D02*
X7079D01*
Y1442*
X7179Y1513D02*
Y1508D01*
Y1513D02*
X7229D01*
Y1508*
X7179Y1637D02*
Y1638D01*
X7166Y1650*
Y1688*
X7066Y1788*
X6629*
X7179Y1637D02*
Y1513D01*
Y2013D02*
Y2013D01*
X7166Y2000*
Y1963*
X7116Y1913*
X6707*
X6679Y1940*
Y1975*
X7179Y4150D02*
Y4100D01*
X7187*
X7179Y4250D02*
Y4242D01*
Y4250D02*
X7079D01*
Y4242*
X7179Y4313D02*
Y4308D01*
Y4313D02*
X7229D01*
Y4308*
X7179Y4437D02*
Y4438D01*
X7166Y4450*
Y4488*
X7066Y4588*
X6629*
X7179Y4437D02*
Y4313D01*
Y4813D02*
Y4813D01*
X7166Y4800*
Y4763*
X7116Y4713*
X6707*
X6679Y4740*
Y4775*
X7187Y1200D02*
X7191D01*
X7187Y4000D02*
X7191D01*
Y1200D02*
Y1250D01*
X7187*
X7191Y1200D02*
X7279D01*
X7191Y4000D02*
Y4050D01*
X7187*
X7191Y4000D02*
X7279D01*
X7229Y1450D02*
Y1442D01*
Y1450D02*
X7179D01*
X7229Y1637D02*
Y1725D01*
X7204Y1750*
X7179*
X7229Y4250D02*
Y4242D01*
Y4250D02*
X7179D01*
X7229Y4437D02*
Y4525D01*
X7204Y4550*
X7179*
X7254Y388D02*
Y725D01*
Y3188D02*
Y3525D01*
X7266Y2088D02*
X7229Y2050D01*
Y2013*
X7266Y4888D02*
X7229Y4850D01*
Y4813*
X7279Y1100D02*
X7191D01*
Y1150*
X7187*
X7279Y1200D02*
X7379D01*
X7279Y1567D02*
Y1637D01*
Y2013D02*
Y2013D01*
X7266Y2000*
Y1963*
X7141Y1838*
X6679*
X7279Y2375D02*
X7166Y2488D01*
X6679*
X6629Y2438*
X7279Y3900D02*
X7191D01*
Y3950*
X7187*
X7279Y4000D02*
X7379D01*
X7279Y4367D02*
Y4437D01*
Y4813D02*
Y4813D01*
X7266Y4800*
Y4763*
X7141Y4638*
X6679*
X7279Y5175D02*
X7166Y5288D01*
X6679*
X6629Y5237*
X7354Y1113D02*
X7279D01*
Y1100*
X7354Y2125D02*
X7329Y2100D01*
Y2013*
X7354Y3913D02*
X7279D01*
Y3900*
X7354Y4925D02*
X7329Y4900D01*
Y4813*
X7379Y1637D02*
Y1710D01*
X7407Y1738*
X7548*
X7379Y2013D02*
Y2013D01*
Y2013D02*
X7329D01*
Y2013*
X7379Y4437D02*
Y4510D01*
X7407Y4538*
X7548*
X7379Y4813D02*
Y4813D01*
Y4813D02*
X7329D01*
Y4813*
X7404Y825D02*
X7066Y1163D01*
Y1238*
X7004Y1300*
X6970*
X7404Y1513D02*
X7329Y1588D01*
Y1637*
X7404Y3625D02*
X7066Y3963D01*
Y4038*
X7004Y4100*
X6970*
X7404Y4313D02*
X7329Y4388D01*
Y4437*
X7429Y1292D02*
Y1300D01*
X7187*
X7429Y2013D02*
Y1975D01*
X7704Y1700*
Y1431*
X7779Y1356*
Y1250*
X7754Y1225*
X7708*
X7429Y2013D02*
Y2125D01*
Y4092D02*
Y4100D01*
X7187*
X7429Y4813D02*
Y4775D01*
X7704Y4500*
Y4231*
X7779Y4156*
Y4050*
X7754Y4025*
X7708*
X7429Y4813D02*
Y4925D01*
X7441Y1175D02*
X7429Y1188D01*
Y1292*
X7441Y1563D02*
Y1550D01*
X7454Y1538*
Y1488*
X7416Y1450*
X7229*
X7441Y1563D02*
Y1613D01*
X7429Y1625*
Y1637*
X7441Y3975D02*
X7429Y3987D01*
Y4092*
X7441Y4363D02*
Y4350D01*
X7454Y4337*
Y4288*
X7416Y4250*
X7229*
X7441Y4363D02*
Y4413D01*
X7429Y4425*
Y4437*
X7479D02*
Y4438D01*
X7529*
Y4450*
X7491Y1363D02*
Y825D01*
X7391Y725*
X7491Y1363D02*
X7429D01*
Y1358*
X7491Y1363D02*
X7554D01*
Y1358*
X7491Y4163D02*
Y3625D01*
X7391Y3525*
X7491Y4163D02*
X7429D01*
Y4158*
X7491Y4163D02*
X7554D01*
Y4158*
X7529Y1650D02*
Y1638D01*
X7479*
Y1637*
X7541Y1013D02*
X7579Y1050D01*
Y1075*
X7541Y1225D02*
X7554Y1238D01*
Y1288*
X7541Y3613D02*
X7629Y3525D01*
X7541Y3813D02*
X7579Y3850D01*
Y3875*
X7541Y4025D02*
X7554Y4038D01*
Y4088*
Y1288D02*
Y1292D01*
Y1288D02*
X7704D01*
Y1275*
X7708*
X7554Y4088D02*
Y4092D01*
Y4088D02*
X7704D01*
Y4075*
X7708*
X7579Y1075D02*
X7708D01*
X7579Y1175D02*
X7708D01*
X7579Y3875D02*
X7708D01*
X7579Y3975D02*
X7708D01*
X7616Y813D02*
X7704D01*
Y808*
X7616Y3613D02*
X7704D01*
Y3608*
X7629Y725D02*
X7704Y650D01*
Y642*
X7629Y725D02*
X7541Y813D01*
X7629Y3525D02*
X7704Y3450D01*
Y3442*
X7708Y1325D02*
X7704D01*
X7604Y1425*
Y1750*
X7379Y1975*
Y2013*
X7708Y4125D02*
X7704D01*
X7604Y4225*
Y4550*
X7379Y4775*
Y4813*
X7779Y400D02*
X7841Y463D01*
Y539*
X7965Y663*
X8141*
X8204Y725*
X7779Y2325D02*
X7479Y2025D01*
Y2013*
X7779Y2325D02*
Y2188D01*
X7697Y2116*
X7668Y2116*
X7779Y2375D02*
Y2325D01*
Y3200D02*
X7841Y3263D01*
Y3339*
X7965Y3463*
X8141*
X8204Y3525*
X7779Y5125D02*
X7479Y4825D01*
Y4813*
X7779Y5125D02*
Y5175D01*
Y5125D02*
Y4988D01*
X7697Y4916*
X7668Y4916*
X7791Y1125D02*
X7708D01*
X7791Y3925D02*
X7708D01*
X7804Y2042D02*
Y2050D01*
X7704*
X7668Y2050*
X7804Y2108D02*
Y2113D01*
X7854Y2163*
Y2350*
X7879Y2375*
X7804Y4842D02*
Y4850D01*
X7704*
X7668Y4850*
X7804Y4908D02*
Y4913D01*
X7854Y4962*
Y5150*
X7879Y5175*
X7816Y2038D02*
X7804Y2042D01*
X7816Y2038D02*
X7904D01*
X7895Y2037*
X7816Y2038D02*
X7804D01*
Y2042*
X7816Y4838D02*
X7804Y4842D01*
X7816Y4838D02*
X7904D01*
X7895Y4837*
X7816Y4838D02*
X7804D01*
Y4842*
X7843Y1025D02*
X7879Y1060D01*
Y1150*
X7843Y3825D02*
X7879Y3860D01*
Y3950*
Y1150D02*
X7904Y1175D01*
X7950*
X7879Y2375D02*
Y2440D01*
X7914Y2475*
X8191*
X8304Y2363*
Y1985*
X8268Y1950*
X8164*
X7879Y3950D02*
X7904Y3975D01*
X7950*
X7879Y5175D02*
Y5240D01*
X7914Y5275*
X8191*
X8304Y5162*
Y4785*
X8268Y4750*
X8164*
X7891Y1975D02*
Y1875D01*
Y4775D02*
Y4675D01*
X7895Y2104D02*
X7904Y2113D01*
X7891Y2125*
Y2288*
X7979Y2375*
X7895Y2104D02*
X7916Y2113D01*
X8016*
Y2125*
X8026*
X7895Y4904D02*
X7904Y4913D01*
X7891Y4925*
Y5087*
X7979Y5175*
X7895Y4904D02*
X7916Y4913D01*
X8016*
Y4925*
X8026*
X7916Y2038D02*
X7895Y2037D01*
X7916Y4838D02*
X7895Y4837D01*
X7941Y2213D02*
Y2175D01*
X8026*
X7941Y5013D02*
Y4975D01*
X8026*
X7950Y1025D02*
X7954D01*
X7991Y988*
Y738*
X8004Y725*
X7950Y1325D02*
X7941D01*
X7950Y3825D02*
X7954D01*
X7991Y3788*
Y3538*
X8004Y3525*
X7950Y4125D02*
X7941D01*
X7991Y1513D02*
X8279D01*
Y1508*
X7991Y2275D02*
Y2250D01*
X8016Y2225*
X8026*
X7991Y4313D02*
X8279D01*
Y4308*
X7991Y5075D02*
Y5050D01*
X8016Y5025*
X8026*
X8029Y2038D02*
Y2075D01*
X8026*
X8029Y4838D02*
Y4875D01*
X8026*
X8034Y1800D02*
X8154Y1650D01*
X8408*
X8479Y1579*
Y1508*
X8034Y4599D02*
X8154Y4450D01*
X8408*
X8479Y4379*
Y4308*
X8054Y1275D02*
X7904D01*
X7879Y1250*
Y1150*
X8054Y1333D02*
Y1325D01*
Y1875D02*
Y1875D01*
X7959*
X8054Y1913D02*
Y1913D01*
X8099*
X8116Y1930*
Y2013*
X8179Y2075*
X8204Y2100*
X8054Y1950D02*
X8029Y1975D01*
X8054Y4075D02*
X7904D01*
X7879Y4050*
Y3950*
X8054Y4133D02*
Y4125D01*
Y4675D02*
Y4675D01*
X7959*
X8054Y4713D02*
Y4713D01*
X8099*
X8116Y4730*
Y4813*
X8204Y4900*
X8054Y4750D02*
X8029Y4775D01*
X8079Y1075D02*
X7950D01*
X8079Y3875D02*
X7950D01*
X8164Y1875D02*
X8166Y1875D01*
X8296*
X8341Y1920*
Y2375*
X8204Y2513*
X7824*
X7779Y2467*
Y2375*
X8164Y4675D02*
X8166Y4675D01*
X8296*
X8341Y4720*
Y5175*
X8204Y5313*
X7824*
X7779Y5267*
Y5175*
X8204Y2100D02*
X8229Y2075D01*
X8231*
X8204Y2100D02*
X8229Y2125D01*
X8204Y4900D02*
X8229Y4875D01*
X8231*
X8204Y4900D02*
X8229Y4925D01*
Y2125D02*
X8231D01*
X8229D02*
Y2175D01*
X8231*
X8229D02*
Y2225D01*
X8231*
X8229Y4925D02*
X8231D01*
X8229D02*
Y4975D01*
X8231*
X8229D02*
Y5025D01*
X8231*
X8279Y1308D02*
Y1442D01*
Y4108D02*
Y4242D01*
X8354Y825D02*
X8366Y813D01*
Y700*
X7916Y250*
X7679*
X7629Y300*
Y725*
X8354Y3625D02*
X8366Y3613D01*
Y3500*
X7916Y3050*
X7679*
X7629Y3100*
Y3525*
X8479Y1308D02*
Y1442D01*
Y4108D02*
Y4242D01*
X8679Y1100D02*
X8216D01*
X8054Y1263*
Y1267*
X8679Y1442D02*
Y1308D01*
Y1513D02*
Y1508D01*
Y3900D02*
X8216D01*
X8054Y4063*
Y4067*
X8679Y4108D02*
Y4242D01*
Y4313D02*
Y4308D01*
X8729Y2125D02*
X8791Y2063D01*
Y888*
X8729Y4925D02*
X8791Y4863D01*
Y3688*
D02*
D98*
X2391Y207D02*
Y238D01*
X2379D02*
X2404D01*
X2419Y218D02*
Y228D01*
X2421Y233*
X2424Y235*
X2429Y238*
X2434*
X2439Y235*
X2441Y233*
X2444Y228*
Y218*
X2441Y213*
X2439Y210*
X2434Y207*
X2429*
X2424Y210*
X2421Y213*
X2419Y218*
X2459Y207D02*
Y238D01*
X2476*
X2481Y235*
X2484Y230*
X2481Y225*
X2476Y223*
X2459*
X2391Y3008D02*
Y3038D01*
X2379D02*
X2404D01*
X2419Y3018D02*
Y3028D01*
X2421Y3033*
X2424Y3035*
X2429Y3038*
X2434*
X2439Y3035*
X2441Y3033*
X2444Y3028*
Y3018*
X2441Y3013*
X2439Y3010*
X2434Y3008*
X2429*
X2424Y3010*
X2421Y3013*
X2419Y3018*
X2459Y3008D02*
Y3038D01*
X2476*
X2481Y3035*
X2484Y3030*
X2481Y3025*
X2476Y3023*
X2459*
X5391Y207D02*
Y238D01*
X5379D02*
X5404D01*
X5419Y218D02*
Y228D01*
X5421Y233*
X5424Y235*
X5429Y238*
X5434*
X5439Y235*
X5441Y233*
X5444Y228*
Y218*
X5441Y213*
X5439Y210*
X5434Y207*
X5429*
X5424Y210*
X5421Y213*
X5419Y218*
X5459Y207D02*
Y238D01*
X5476*
X5481Y235*
X5484Y230*
X5481Y225*
X5476Y223*
X5459*
X5391Y3008D02*
Y3038D01*
X5379D02*
X5404D01*
X5419Y3018D02*
Y3028D01*
X5421Y3033*
X5424Y3035*
X5429Y3038*
X5434*
X5439Y3035*
X5441Y3033*
X5444Y3028*
Y3018*
X5441Y3013*
X5439Y3010*
X5434Y3008*
X5429*
X5424Y3010*
X5421Y3013*
X5419Y3018*
X5459Y3008D02*
Y3038D01*
X5476*
X5481Y3035*
X5484Y3030*
X5481Y3025*
X5476Y3023*
X5459*
X8391Y207D02*
Y238D01*
X8379D02*
X8404D01*
X8419Y218D02*
Y228D01*
X8421Y233*
X8424Y235*
X8429Y238*
X8434*
X8439Y235*
X8441Y233*
X8444Y228*
Y218*
X8441Y213*
X8439Y210*
X8434Y207*
X8429*
X8424Y210*
X8421Y213*
X8419Y218*
X8459Y207D02*
Y238D01*
X8476*
X8481Y235*
X8484Y230*
X8481Y225*
X8476Y223*
X8459*
X8391Y3008D02*
Y3038D01*
X8379D02*
X8404D01*
X8419Y3018D02*
Y3028D01*
X8421Y3033*
X8424Y3035*
X8429Y3038*
X8434*
X8439Y3035*
X8441Y3033*
X8444Y3028*
Y3018*
X8441Y3013*
X8439Y3010*
X8434Y3008*
X8429*
X8424Y3010*
X8421Y3013*
X8419Y3018*
X8459Y3008D02*
Y3038D01*
X8476*
X8481Y3035*
X8484Y3030*
X8481Y3025*
X8476Y3023*
X8459*
D02*
D99*
X1054Y725D03*
Y3525D03*
X1104Y825D03*
Y3625D03*
X1154Y725D03*
Y3525D03*
X1204Y825D03*
Y3625D03*
X1254Y725D03*
Y3525D03*
X1304Y825D03*
Y3625D03*
X1354Y725D03*
Y3525D03*
X1404Y825D03*
Y3625D03*
X2004Y725D03*
Y3525D03*
X2054Y825D03*
Y3625D03*
X2104Y725D03*
Y3525D03*
X2154Y825D03*
Y3625D03*
X2204Y725D03*
Y3525D03*
X2254Y825D03*
Y3625D03*
X2304Y725D03*
Y3525D03*
X2354Y825D03*
Y3625D03*
X4054Y725D03*
Y3525D03*
X4104Y825D03*
Y3625D03*
X4154Y725D03*
Y3525D03*
X4204Y825D03*
Y3625D03*
X4254Y725D03*
Y3525D03*
X4304Y825D03*
Y3625D03*
X4354Y725D03*
Y3525D03*
X4404Y825D03*
Y3625D03*
X5004Y725D03*
Y3525D03*
X5054Y825D03*
Y3625D03*
X5104Y725D03*
Y3525D03*
X5154Y825D03*
Y3625D03*
X5204Y725D03*
Y3525D03*
X5254Y825D03*
Y3625D03*
X5304Y725D03*
Y3525D03*
X5354Y825D03*
Y3625D03*
X7054Y725D03*
Y3525D03*
X7104Y825D03*
Y3625D03*
X7154Y725D03*
Y3525D03*
X7204Y825D03*
Y3625D03*
X7254Y725D03*
Y3525D03*
X7304Y825D03*
Y3625D03*
X7354Y725D03*
Y3525D03*
X7404Y825D03*
Y3625D03*
X8004Y725D03*
Y3525D03*
X8054Y825D03*
Y3625D03*
X8104Y725D03*
Y3525D03*
X8154Y825D03*
Y3625D03*
X8204Y725D03*
Y3525D03*
X8254Y825D03*
Y3625D03*
X8304Y725D03*
Y3525D03*
X8354Y825D03*
Y3625D03*
D02*
D100*
X1004Y475D03*
Y3275D03*
X1454Y475D03*
Y3275D03*
X1954Y475D03*
Y3275D03*
X2404Y475D03*
Y3275D03*
X4004Y475D03*
Y3275D03*
X4454Y475D03*
Y3275D03*
X4954Y475D03*
Y3275D03*
X5404Y475D03*
Y3275D03*
X7004Y475D03*
Y3275D03*
X7454Y475D03*
Y3275D03*
X7954Y475D03*
Y3275D03*
X8404Y475D03*
Y3275D03*
D02*
D102*
X329Y1825D03*
Y4625D03*
X1179Y2275D03*
Y5075D03*
X3329Y1825D03*
Y4625D03*
X4179Y2275D03*
Y5075D03*
X6329Y1825D03*
Y4625D03*
X7179Y2275D03*
Y5075D03*
D02*
D103*
X229Y1825D03*
Y1925D03*
Y2025D03*
Y4625D03*
Y4725D03*
Y4825D03*
X329Y1925D03*
Y2025D03*
Y4725D03*
Y4825D03*
X1179Y2375D03*
Y5175D03*
X1279Y2275D03*
Y2375D03*
Y5075D03*
Y5175D03*
X1379Y2275D03*
Y2375D03*
Y5075D03*
Y5175D03*
X3229Y1825D03*
Y1925D03*
Y2025D03*
Y4625D03*
Y4725D03*
Y4825D03*
X3329Y1925D03*
Y2025D03*
Y4725D03*
Y4825D03*
X4179Y2375D03*
Y5175D03*
X4279Y2275D03*
Y2375D03*
Y5075D03*
Y5175D03*
X4379Y2275D03*
Y2375D03*
Y5075D03*
Y5175D03*
X6229Y1825D03*
Y1925D03*
Y2025D03*
Y4625D03*
Y4725D03*
Y4825D03*
X6329Y1925D03*
Y2025D03*
Y4725D03*
Y4825D03*
X7179Y2375D03*
Y5175D03*
X7279Y2275D03*
Y2375D03*
Y5075D03*
Y5175D03*
X7379Y2275D03*
Y2375D03*
Y5075D03*
Y5175D03*
D02*
D104*
X229Y1675D03*
Y4475D03*
X829Y2375D03*
Y5175D03*
X1779Y2375D03*
Y5175D03*
X2729Y1925D03*
Y4725D03*
X3229Y1675D03*
Y4475D03*
X3829Y2375D03*
Y5175D03*
X4779Y2375D03*
Y5175D03*
X5729Y1925D03*
Y4725D03*
X6229Y1675D03*
Y4475D03*
X6829Y2375D03*
Y5175D03*
X7779Y2375D03*
Y5175D03*
X8729Y1925D03*
Y4725D03*
D02*
D105*
X229Y1175D03*
Y1275D03*
Y1375D03*
Y1475D03*
Y1575D03*
Y3975D03*
Y4075D03*
Y4175D03*
Y4275D03*
Y4375D03*
X529Y2375D03*
Y5175D03*
X629Y2375D03*
Y5175D03*
X729Y2375D03*
Y5175D03*
X1879Y2375D03*
Y5175D03*
X1979Y2375D03*
Y5175D03*
X2079Y2375D03*
Y5175D03*
X2729Y2025D03*
Y2125D03*
Y2225D03*
Y4825D03*
Y4925D03*
Y5025D03*
X3229Y1175D03*
Y1275D03*
Y1375D03*
Y1475D03*
Y1575D03*
Y3975D03*
Y4075D03*
Y4175D03*
Y4275D03*
Y4375D03*
X3529Y2375D03*
Y5175D03*
X3629Y2375D03*
Y5175D03*
X3729Y2375D03*
Y5175D03*
X4879Y2375D03*
Y5175D03*
X4979Y2375D03*
Y5175D03*
X5079Y2375D03*
Y5175D03*
X5729Y2025D03*
Y2125D03*
Y2225D03*
Y4825D03*
Y4925D03*
Y5025D03*
X6229Y1175D03*
Y1275D03*
Y1375D03*
Y1475D03*
Y1575D03*
Y3975D03*
Y4075D03*
Y4175D03*
Y4275D03*
Y4375D03*
X6529Y2375D03*
Y5175D03*
X6629Y2375D03*
Y5175D03*
X6729Y2375D03*
Y5175D03*
X7879Y2375D03*
Y5175D03*
X7979Y2375D03*
Y5175D03*
X8079Y2375D03*
Y5175D03*
X8729Y2025D03*
Y2125D03*
Y2225D03*
Y4825D03*
Y4925D03*
Y5025D03*
D02*
D106*
X1079Y1442D03*
Y1508D03*
Y4242D03*
Y4308D03*
X1429Y1292D03*
Y1358D03*
Y4092D03*
Y4158D03*
X1554Y1292D03*
Y1358D03*
Y4092D03*
Y4158D03*
X1668Y2050D03*
Y2116D03*
Y4850D03*
Y4916D03*
X1804Y2042D03*
Y2108D03*
Y4842D03*
Y4908D03*
X2279Y1442D03*
Y1508D03*
Y4242D03*
Y4308D03*
X2479Y1442D03*
Y1508D03*
Y4242D03*
Y4308D03*
X2679Y1442D03*
Y1508D03*
Y4242D03*
Y4308D03*
X4079Y1442D03*
Y1508D03*
Y4242D03*
Y4308D03*
X4429Y1292D03*
Y1358D03*
Y4092D03*
Y4158D03*
X4554Y1292D03*
Y1358D03*
Y4092D03*
Y4158D03*
X4668Y2050D03*
Y2116D03*
Y4850D03*
Y4916D03*
X4804Y2042D03*
Y2108D03*
Y4842D03*
Y4908D03*
X5279Y1442D03*
Y1508D03*
Y4242D03*
Y4308D03*
X5479Y1442D03*
Y1508D03*
Y4242D03*
Y4308D03*
X5679Y1442D03*
Y1508D03*
Y4242D03*
Y4308D03*
X7079Y1442D03*
Y1508D03*
Y4242D03*
Y4308D03*
X7429Y1292D03*
Y1358D03*
Y4092D03*
Y4158D03*
X7554Y1292D03*
Y1358D03*
Y4092D03*
Y4158D03*
X7668Y2050D03*
Y2116D03*
Y4850D03*
Y4916D03*
X7804Y2042D03*
Y2108D03*
Y4842D03*
Y4908D03*
X8279Y1442D03*
Y1508D03*
Y4242D03*
Y4308D03*
X8479Y1442D03*
Y1508D03*
Y4242D03*
Y4308D03*
X8679Y1442D03*
Y1508D03*
Y4242D03*
Y4308D03*
D02*
D107*
X579Y1225D03*
Y4025D03*
X679Y1325D03*
Y1838D03*
Y1975D03*
Y2225D03*
Y4125D03*
Y4638D03*
Y4775D03*
Y5025D03*
X729Y1425D03*
Y4225D03*
X741Y2238D03*
Y5038D03*
X829Y1425D03*
Y4225D03*
X841Y2238D03*
Y5038D03*
X879Y1525D03*
Y4325D03*
X904Y1200D03*
Y1463D03*
Y4000D03*
Y4262D03*
X916Y2438D03*
Y5237D03*
X929Y1563D03*
Y4363D03*
X979Y2163D03*
Y4962D03*
X1016Y1375D03*
Y4175D03*
X1166Y2163D03*
Y4962D03*
X1179Y1750D03*
Y4550D03*
X1254Y388D03*
Y3188D03*
X1266Y2088D03*
Y4888D03*
X1354Y1113D03*
Y3913D03*
X1379Y1200D03*
Y4000D03*
X1404Y1513D03*
Y4313D03*
X1429Y200D03*
Y3000D03*
X1441Y1175D03*
Y1563D03*
Y3975D03*
Y4363D03*
X1529Y1650D03*
Y4450D03*
X1541Y813D03*
Y1013D03*
Y1225D03*
Y3613D03*
Y3813D03*
Y4025D03*
X1548Y1738D03*
Y4538D03*
X1579Y1175D03*
Y3975D03*
X1616Y813D03*
Y3613D03*
X1791Y1125D03*
Y3925D03*
X1891Y1975D03*
Y4775D03*
X1941Y2213D03*
Y5013D03*
X1991Y1513D03*
Y2275D03*
Y4313D03*
Y5075D03*
X2034Y1800D03*
Y4599D03*
X2079Y1075D03*
Y3875D03*
X2791Y888D03*
Y3688D03*
X3579Y1225D03*
Y4025D03*
X3679Y1325D03*
Y1838D03*
Y1975D03*
Y2225D03*
Y4125D03*
Y4638D03*
Y4775D03*
Y5025D03*
X3729Y1425D03*
Y4225D03*
X3741Y2238D03*
Y5038D03*
X3829Y1425D03*
Y4225D03*
X3841Y2238D03*
Y5038D03*
X3879Y1525D03*
Y4325D03*
X3904Y1200D03*
Y1463D03*
Y4000D03*
Y4262D03*
X3916Y2438D03*
Y5237D03*
X3929Y1563D03*
Y4363D03*
X3979Y2163D03*
Y4962D03*
X4016Y1375D03*
Y4175D03*
X4166Y2163D03*
Y4962D03*
X4179Y1750D03*
Y4550D03*
X4254Y388D03*
Y3188D03*
X4266Y2088D03*
Y4888D03*
X4354Y1113D03*
Y3913D03*
X4379Y1200D03*
Y4000D03*
X4404Y1513D03*
Y4313D03*
X4429Y200D03*
Y3000D03*
X4441Y1175D03*
Y1563D03*
Y3975D03*
Y4363D03*
X4529Y1650D03*
Y4450D03*
X4541Y813D03*
Y1013D03*
Y1225D03*
Y3613D03*
Y3813D03*
Y4025D03*
X4548Y1738D03*
Y4538D03*
X4579Y1175D03*
Y3975D03*
X4616Y813D03*
Y3613D03*
X4791Y1125D03*
Y3925D03*
X4891Y1975D03*
Y4775D03*
X4941Y2213D03*
Y5013D03*
X4991Y1513D03*
Y2275D03*
Y4313D03*
Y5075D03*
X5034Y1800D03*
Y4599D03*
X5079Y1075D03*
Y3875D03*
X5791Y888D03*
Y3688D03*
X6579Y1225D03*
Y4025D03*
X6679Y1325D03*
Y1838D03*
Y1975D03*
Y2225D03*
Y4125D03*
Y4638D03*
Y4775D03*
Y5025D03*
X6729Y1425D03*
Y4225D03*
X6741Y2238D03*
Y5038D03*
X6829Y1425D03*
Y4225D03*
X6841Y2238D03*
Y5038D03*
X6879Y1525D03*
Y4325D03*
X6904Y1200D03*
Y1463D03*
Y4000D03*
Y4262D03*
X6916Y2438D03*
Y5237D03*
X6929Y1563D03*
Y4363D03*
X6979Y2163D03*
Y4962D03*
X7016Y1375D03*
Y4175D03*
X7166Y2163D03*
Y4962D03*
X7179Y1750D03*
Y4550D03*
X7254Y388D03*
Y3188D03*
X7266Y2088D03*
Y4888D03*
X7354Y1113D03*
Y3913D03*
X7379Y1200D03*
Y4000D03*
X7404Y1513D03*
Y4313D03*
X7429Y200D03*
Y3000D03*
X7441Y1175D03*
Y1563D03*
Y3975D03*
Y4363D03*
X7529Y1650D03*
Y4450D03*
X7541Y813D03*
Y1013D03*
Y1225D03*
Y3613D03*
Y3813D03*
Y4025D03*
X7548Y1738D03*
Y4538D03*
X7579Y1175D03*
Y3975D03*
X7616Y813D03*
Y3613D03*
X7791Y1125D03*
Y3925D03*
X7891Y1975D03*
Y4775D03*
X7941Y2213D03*
Y5013D03*
X7991Y1513D03*
Y2275D03*
Y4313D03*
Y5075D03*
X8034Y1800D03*
Y4599D03*
X8079Y1075D03*
Y3875D03*
X8791Y888D03*
Y3688D03*
D02*
D108*
X279Y275D03*
Y2475D03*
Y3075D03*
Y5275D03*
X2679Y275D03*
Y2475D03*
Y3075D03*
Y5275D03*
X3279Y275D03*
Y2475D03*
Y3075D03*
Y5275D03*
X5679Y275D03*
Y2475D03*
Y3075D03*
Y5275D03*
X6279Y275D03*
Y2475D03*
Y3075D03*
Y5275D03*
X8679Y275D03*
Y2475D03*
Y3075D03*
Y5275D03*
D02*
D115*
X2085Y1952D02*
G75*
G03Y1956J2D01*
G01*
G75*
G03Y1952J-2*
G01*
Y4752D02*
G75*
G03Y4756J2D01*
G01*
G75*
G03Y4752J-2*
G01*
X5085Y1952D02*
G75*
G03Y1956J2D01*
G01*
G75*
G03Y1952J-2*
G01*
Y4752D02*
G75*
G03Y4756J2D01*
G01*
G75*
G03Y4752J-2*
G01*
X8085Y1952D02*
G75*
G03Y1956J2D01*
G01*
G75*
G03Y1952J-2*
G01*
Y4752D02*
G75*
G03Y4756J2D01*
G01*
G75*
G03Y4752J-2*
G01*
D02*
D128*
X1179Y1442D03*
Y1508D03*
Y4242D03*
Y4308D03*
X1229Y1442D03*
Y1508D03*
Y4242D03*
Y4308D03*
X1895Y2037D03*
Y2104D03*
Y4837D03*
Y4904D03*
X2054Y1267D03*
Y1333D03*
Y4067D03*
Y4133D03*
X4179Y1442D03*
Y1508D03*
Y4242D03*
Y4308D03*
X4229Y1442D03*
Y1508D03*
Y4242D03*
Y4308D03*
X4895Y2037D03*
Y2104D03*
Y4837D03*
Y4904D03*
X5054Y1267D03*
Y1333D03*
Y4067D03*
Y4133D03*
X7179Y1442D03*
Y1508D03*
Y4242D03*
Y4308D03*
X7229Y1442D03*
Y1508D03*
Y4242D03*
Y4308D03*
X7895Y2037D03*
Y2104D03*
Y4837D03*
Y4904D03*
X8054Y1267D03*
Y1333D03*
Y4067D03*
Y4133D03*
D02*
D129*
X845Y2100D03*
Y2175D03*
Y4900D03*
Y4975D03*
X912Y2100D03*
Y2175D03*
Y4900D03*
Y4975D03*
X3845Y2100D03*
Y2175D03*
Y4900D03*
Y4975D03*
X3912Y2100D03*
Y2175D03*
Y4900D03*
Y4975D03*
X6845Y2100D03*
Y2175D03*
Y4900D03*
Y4975D03*
X6912Y2100D03*
Y2175D03*
Y4900D03*
Y4975D03*
D02*
D130*
X319Y575D03*
Y3375D03*
X439Y575D03*
Y3375D03*
X3319Y575D03*
Y3375D03*
X3439Y575D03*
Y3375D03*
X6319Y575D03*
Y3375D03*
X6439Y575D03*
Y3375D03*
D02*
D131*
X816Y1170D03*
Y1280D03*
Y3970D03*
Y4080D03*
X3816Y1170D03*
Y1280D03*
Y3970D03*
Y4080D03*
X6816Y1170D03*
Y1280D03*
Y3970D03*
Y4080D03*
D02*
D132*
X679Y726D03*
Y924D03*
Y3526D03*
Y3724D03*
X3679Y726D03*
Y924D03*
Y3526D03*
Y3724D03*
X6679Y726D03*
Y924D03*
Y3526D03*
Y3724D03*
D02*
D133*
X1704Y642D03*
Y808D03*
Y3442D03*
Y3608D03*
X4704Y642D03*
Y808D03*
Y3442D03*
Y3608D03*
X7704Y642D03*
Y808D03*
Y3442D03*
Y3608D03*
D02*
D134*
X2026Y2075D03*
Y2125D03*
Y2175D03*
Y2225D03*
Y4875D03*
Y4925D03*
Y4975D03*
Y5025D03*
X2231Y2075D03*
Y2125D03*
Y2175D03*
Y2225D03*
Y4875D03*
Y4925D03*
Y4975D03*
Y5025D03*
X5026Y2075D03*
Y2125D03*
Y2175D03*
Y2225D03*
Y4875D03*
Y4925D03*
Y4975D03*
Y5025D03*
X5231Y2075D03*
Y2125D03*
Y2175D03*
Y2225D03*
Y4875D03*
Y4925D03*
Y4975D03*
Y5025D03*
X8026Y2075D03*
Y2125D03*
Y2175D03*
Y2225D03*
Y4875D03*
Y4925D03*
Y4975D03*
Y5025D03*
X8231Y2075D03*
Y2125D03*
Y2175D03*
Y2225D03*
Y4875D03*
Y4925D03*
Y4975D03*
Y5025D03*
D02*
D135*
X1708Y1025D03*
Y1075D03*
Y1125D03*
Y1175D03*
Y1225D03*
Y1275D03*
Y1325D03*
Y3825D03*
Y3875D03*
Y3925D03*
Y3975D03*
Y4025D03*
Y4075D03*
Y4125D03*
X1950Y1025D03*
Y1075D03*
Y1125D03*
Y1175D03*
Y1225D03*
Y1275D03*
Y1325D03*
Y3825D03*
Y3875D03*
Y3925D03*
Y3975D03*
Y4025D03*
Y4075D03*
Y4125D03*
X4708Y1025D03*
Y1075D03*
Y1125D03*
Y1175D03*
Y1225D03*
Y1275D03*
Y1325D03*
Y3825D03*
Y3875D03*
Y3925D03*
Y3975D03*
Y4025D03*
Y4075D03*
Y4125D03*
X4950Y1025D03*
Y1075D03*
Y1125D03*
Y1175D03*
Y1225D03*
Y1275D03*
Y1325D03*
Y3825D03*
Y3875D03*
Y3925D03*
Y3975D03*
Y4025D03*
Y4075D03*
Y4125D03*
X7708Y1025D03*
Y1075D03*
Y1125D03*
Y1175D03*
Y1225D03*
Y1275D03*
Y1325D03*
Y3825D03*
Y3875D03*
Y3925D03*
Y3975D03*
Y4025D03*
Y4075D03*
Y4125D03*
X7950Y1025D03*
Y1075D03*
Y1125D03*
Y1175D03*
Y1225D03*
Y1275D03*
Y1325D03*
Y3825D03*
Y3875D03*
Y3925D03*
Y3975D03*
Y4025D03*
Y4075D03*
Y4125D03*
D02*
D136*
X970Y1150D03*
Y1200D03*
Y1250D03*
Y1300D03*
Y3950D03*
Y4000D03*
Y4050D03*
Y4100D03*
X1187Y1150D03*
Y1200D03*
Y1250D03*
Y1300D03*
Y3950D03*
Y4000D03*
Y4050D03*
Y4100D03*
X3970Y1150D03*
Y1200D03*
Y1250D03*
Y1300D03*
Y3950D03*
Y4000D03*
Y4050D03*
Y4100D03*
X4187Y1150D03*
Y1200D03*
Y1250D03*
Y1300D03*
Y3950D03*
Y4000D03*
Y4050D03*
Y4100D03*
X6970Y1150D03*
Y1200D03*
Y1250D03*
Y1300D03*
Y3950D03*
Y4000D03*
Y4050D03*
Y4100D03*
X7187Y1150D03*
Y1200D03*
Y1250D03*
Y1300D03*
Y3950D03*
Y4000D03*
Y4050D03*
Y4100D03*
D02*
D137*
X501Y734D03*
Y825D03*
Y916D03*
Y3534D03*
Y3625D03*
Y3716D03*
X3501Y734D03*
Y825D03*
Y916D03*
Y3534D03*
Y3625D03*
Y3716D03*
X6501Y734D03*
Y825D03*
Y916D03*
Y3534D03*
Y3625D03*
Y3716D03*
D02*
D138*
X257Y825D03*
Y3625D03*
X3257Y825D03*
Y3625D03*
X6257Y825D03*
Y3625D03*
D02*
D139*
X2279Y1092D03*
Y1308D03*
Y3892D03*
Y4108D03*
X2479Y1092D03*
Y1308D03*
Y3892D03*
Y4108D03*
X2679Y1092D03*
Y1308D03*
Y3892D03*
Y4108D03*
X5279Y1092D03*
Y1308D03*
Y3892D03*
Y4108D03*
X5479Y1092D03*
Y1308D03*
Y3892D03*
Y4108D03*
X5679Y1092D03*
Y1308D03*
Y3892D03*
Y4108D03*
X8279Y1092D03*
Y1308D03*
Y3892D03*
Y4108D03*
X8479Y1092D03*
Y1308D03*
Y3892D03*
Y4108D03*
X8679Y1092D03*
Y1308D03*
Y3892D03*
Y4108D03*
D02*
D140*
X1899Y1875D03*
Y4675D03*
X1959Y1875D03*
Y4675D03*
X4899Y1875D03*
Y4675D03*
X4959Y1875D03*
Y4675D03*
X7899Y1875D03*
Y4675D03*
X7959Y1875D03*
Y4675D03*
D02*
D141*
X879Y725D03*
Y3525D03*
X892Y1082D03*
Y3882D03*
X1179Y1350D03*
Y4150D03*
X1279Y1100D03*
Y1200D03*
Y1567D03*
Y3900D03*
Y4000D03*
Y4367D03*
X1354Y2125D03*
Y4925D03*
X1429Y2125D03*
Y4925D03*
X1579Y1075D03*
Y3875D03*
X1779Y400D03*
Y3200D03*
X3879Y725D03*
Y3525D03*
X3892Y1082D03*
Y3882D03*
X4179Y1350D03*
Y4150D03*
X4279Y1100D03*
Y1200D03*
Y1567D03*
Y3900D03*
Y4000D03*
Y4367D03*
X4354Y2125D03*
Y4925D03*
X4429Y2125D03*
Y4925D03*
X4579Y1075D03*
Y3875D03*
X4779Y400D03*
Y3200D03*
X6879Y725D03*
Y3525D03*
X6892Y1082D03*
Y3882D03*
X7179Y1350D03*
Y4150D03*
X7279Y1100D03*
Y1200D03*
Y1567D03*
Y3900D03*
Y4000D03*
Y4367D03*
X7354Y2125D03*
Y4925D03*
X7429Y2125D03*
Y4925D03*
X7579Y1075D03*
Y3875D03*
X7779Y400D03*
Y3200D03*
D02*
D142*
X204Y575D03*
Y3375D03*
X504Y1025D03*
Y3825D03*
X3204Y575D03*
Y3375D03*
X3504Y1025D03*
Y3825D03*
X6204Y575D03*
Y3375D03*
X6504Y1025D03*
Y3825D03*
D02*
D143*
X2054Y1875D03*
Y1913D03*
Y1950D03*
Y4675D03*
Y4713D03*
Y4750D03*
X2164Y1875D03*
Y1950D03*
Y4675D03*
Y4750D03*
X5054Y1875D03*
Y1913D03*
Y1950D03*
Y4675D03*
Y4713D03*
Y4750D03*
X5164Y1875D03*
Y1950D03*
Y4675D03*
Y4750D03*
X8054Y1875D03*
Y1913D03*
Y1950D03*
Y4675D03*
Y4713D03*
Y4750D03*
X8164Y1875D03*
Y1950D03*
Y4675D03*
Y4750D03*
D02*
D144*
X829Y1637D03*
Y2013D03*
Y4437D03*
Y4813D03*
X879Y1637D03*
Y2013D03*
Y4437D03*
Y4813D03*
X929Y1637D03*
Y2013D03*
Y4437D03*
Y4813D03*
X979Y1637D03*
Y2013D03*
Y4437D03*
Y4813D03*
X1029Y1637D03*
Y2013D03*
Y4437D03*
Y4813D03*
X1079Y1637D03*
Y2013D03*
Y4437D03*
Y4813D03*
X1129Y1637D03*
Y2013D03*
Y4437D03*
Y4813D03*
X1179Y1637D03*
Y2013D03*
Y4437D03*
Y4813D03*
X1229Y1637D03*
Y2013D03*
Y4437D03*
Y4813D03*
X1279Y1637D03*
Y2013D03*
Y4437D03*
Y4813D03*
X1329Y1637D03*
Y2013D03*
Y4437D03*
Y4813D03*
X1379Y1637D03*
Y2013D03*
Y4437D03*
Y4813D03*
X1429Y1637D03*
Y2013D03*
Y4437D03*
Y4813D03*
X1479Y1637D03*
Y2013D03*
Y4437D03*
Y4813D03*
X3829Y1637D03*
Y2013D03*
Y4437D03*
Y4813D03*
X3879Y1637D03*
Y2013D03*
Y4437D03*
Y4813D03*
X3929Y1637D03*
Y2013D03*
Y4437D03*
Y4813D03*
X3979Y1637D03*
Y2013D03*
Y4437D03*
Y4813D03*
X4029Y1637D03*
Y2013D03*
Y4437D03*
Y4813D03*
X4079Y1637D03*
Y2013D03*
Y4437D03*
Y4813D03*
X4129Y1637D03*
Y2013D03*
Y4437D03*
Y4813D03*
X4179Y1637D03*
Y2013D03*
Y4437D03*
Y4813D03*
X4229Y1637D03*
Y2013D03*
Y4437D03*
Y4813D03*
X4279Y1637D03*
Y2013D03*
Y4437D03*
Y4813D03*
X4329Y1637D03*
Y2013D03*
Y4437D03*
Y4813D03*
X4379Y1637D03*
Y2013D03*
Y4437D03*
Y4813D03*
X4429Y1637D03*
Y2013D03*
Y4437D03*
Y4813D03*
X4479Y1637D03*
Y2013D03*
Y4437D03*
Y4813D03*
X6829Y1637D03*
Y2013D03*
Y4437D03*
Y4813D03*
X6879Y1637D03*
Y2013D03*
Y4437D03*
Y4813D03*
X6929Y1637D03*
Y2013D03*
Y4437D03*
Y4813D03*
X6979Y1637D03*
Y2013D03*
Y4437D03*
Y4813D03*
X7029Y1637D03*
Y2013D03*
Y4437D03*
Y4813D03*
X7079Y1637D03*
Y2013D03*
Y4437D03*
Y4813D03*
X7129Y1637D03*
Y2013D03*
Y4437D03*
Y4813D03*
X7179Y1637D03*
Y2013D03*
Y4437D03*
Y4813D03*
X7229Y1637D03*
Y2013D03*
Y4437D03*
Y4813D03*
X7279Y1637D03*
Y2013D03*
Y4437D03*
Y4813D03*
X7329Y1637D03*
Y2013D03*
Y4437D03*
Y4813D03*
X7379Y1637D03*
Y2013D03*
Y4437D03*
Y4813D03*
X7429Y1637D03*
Y2013D03*
Y4437D03*
Y4813D03*
X7479Y1637D03*
Y2013D03*
Y4437D03*
Y4813D03*
X0Y0D02*
M02*
