%FSLAX23Y23*%
%MOIN*%
G04 EasyPC Gerber Version 14.0.2 Build 2922 *
%ADD145R,0.06978X0.09183*%
%ADD27R,0.06506X0.05718*%
%ADD23R,0.06600X0.06600*%
%ADD25R,0.07600X0.07600*%
%ADD76R,0.17198X0.17198*%
%ADD15C,0.06143*%
%ADD16C,0.14195*%
%AMT75*0 Octagon Pad at angle 0*4,1,8,-0.00952,-0.02300,0.00952,-0.02300,0.02300,-0.00952,0.02300,0.00952,0.00952,0.02300,-0.00952,0.02300,-0.02300,0.00952,-0.02300,-0.00952,-0.00952,-0.02300,0*%
%ADD75T75*%
%AMT24*0 Octagon Pad at angle 0*4,1,8,-0.01366,-0.03300,0.01366,-0.03300,0.03300,-0.01366,0.03300,0.01366,0.01366,0.03300,-0.01366,0.03300,-0.03300,0.01366,-0.03300,-0.01366,-0.01366,-0.03300,0*%
%ADD24T24*%
%AMT26*0 Octagon Pad at angle 0*4,1,8,-0.01573,-0.03800,0.01573,-0.03800,0.03800,-0.01573,0.03800,0.01573,0.01573,0.03800,-0.01573,0.03800,-0.03800,0.01573,-0.03800,-0.01573,-0.01573,-0.03800,0*%
%ADD26T26*%
X0Y0D02*
D02*
D15*
X1054Y725D03*
Y3525D03*
X1104Y825D03*
Y3625D03*
X1154Y725D03*
Y3525D03*
X1204Y825D03*
Y3625D03*
X1254Y725D03*
Y3525D03*
X1304Y825D03*
Y3625D03*
X1354Y725D03*
Y3525D03*
X1404Y825D03*
Y3625D03*
X2004Y725D03*
Y3525D03*
X2054Y825D03*
Y3625D03*
X2104Y725D03*
Y3525D03*
X2154Y825D03*
Y3625D03*
X2204Y725D03*
Y3525D03*
X2254Y825D03*
Y3625D03*
X2304Y725D03*
Y3525D03*
X2354Y825D03*
Y3625D03*
X4054Y725D03*
Y3525D03*
X4104Y825D03*
Y3625D03*
X4154Y725D03*
Y3525D03*
X4204Y825D03*
Y3625D03*
X4254Y725D03*
Y3525D03*
X4304Y825D03*
Y3625D03*
X4354Y725D03*
Y3525D03*
X4404Y825D03*
Y3625D03*
X5004Y725D03*
Y3525D03*
X5054Y825D03*
Y3625D03*
X5104Y725D03*
Y3525D03*
X5154Y825D03*
Y3625D03*
X5204Y725D03*
Y3525D03*
X5254Y825D03*
Y3625D03*
X5304Y725D03*
Y3525D03*
X5354Y825D03*
Y3625D03*
X7054Y725D03*
Y3525D03*
X7104Y825D03*
Y3625D03*
X7154Y725D03*
Y3525D03*
X7204Y825D03*
Y3625D03*
X7254Y725D03*
Y3525D03*
X7304Y825D03*
Y3625D03*
X7354Y725D03*
Y3525D03*
X7404Y825D03*
Y3625D03*
X8004Y725D03*
Y3525D03*
X8054Y825D03*
Y3625D03*
X8104Y725D03*
Y3525D03*
X8154Y825D03*
Y3625D03*
X8204Y725D03*
Y3525D03*
X8254Y825D03*
Y3625D03*
X8304Y725D03*
Y3525D03*
X8354Y825D03*
Y3625D03*
D02*
D16*
X1004Y475D03*
Y3275D03*
X1454Y475D03*
Y3275D03*
X1954Y475D03*
Y3275D03*
X2404Y475D03*
Y3275D03*
X4004Y475D03*
Y3275D03*
X4454Y475D03*
Y3275D03*
X4954Y475D03*
Y3275D03*
X5404Y475D03*
Y3275D03*
X7004Y475D03*
Y3275D03*
X7454Y475D03*
Y3275D03*
X7954Y475D03*
Y3275D03*
X8404Y475D03*
Y3275D03*
D02*
D23*
X329Y1825D03*
Y4625D03*
X1179Y2275D03*
Y5075D03*
X3329Y1825D03*
Y4625D03*
X4179Y2275D03*
Y5075D03*
X6329Y1825D03*
Y4625D03*
X7179Y2275D03*
Y5075D03*
D02*
D24*
X229Y1825D03*
Y1925D03*
Y2025D03*
Y4625D03*
Y4725D03*
Y4825D03*
X329Y1925D03*
Y2025D03*
Y4725D03*
Y4825D03*
X1179Y2375D03*
Y5175D03*
X1279Y2275D03*
Y2375D03*
Y5075D03*
Y5175D03*
X1379Y2275D03*
Y2375D03*
Y5075D03*
Y5175D03*
X3229Y1825D03*
Y1925D03*
Y2025D03*
Y4625D03*
Y4725D03*
Y4825D03*
X3329Y1925D03*
Y2025D03*
Y4725D03*
Y4825D03*
X4179Y2375D03*
Y5175D03*
X4279Y2275D03*
Y2375D03*
Y5075D03*
Y5175D03*
X4379Y2275D03*
Y2375D03*
Y5075D03*
Y5175D03*
X6229Y1825D03*
Y1925D03*
Y2025D03*
Y4625D03*
Y4725D03*
Y4825D03*
X6329Y1925D03*
Y2025D03*
Y4725D03*
Y4825D03*
X7179Y2375D03*
Y5175D03*
X7279Y2275D03*
Y2375D03*
Y5075D03*
Y5175D03*
X7379Y2275D03*
Y2375D03*
Y5075D03*
Y5175D03*
D02*
D25*
X229Y1675D03*
Y4475D03*
X829Y2375D03*
Y5175D03*
X1779Y2375D03*
Y5175D03*
X2729Y1925D03*
Y4725D03*
X3229Y1675D03*
Y4475D03*
X3829Y2375D03*
Y5175D03*
X4779Y2375D03*
Y5175D03*
X5729Y1925D03*
Y4725D03*
X6229Y1675D03*
Y4475D03*
X6829Y2375D03*
Y5175D03*
X7779Y2375D03*
Y5175D03*
X8729Y1925D03*
Y4725D03*
D02*
D26*
X229Y1175D03*
Y1275D03*
Y1375D03*
Y1475D03*
Y1575D03*
Y3975D03*
Y4075D03*
Y4175D03*
Y4275D03*
Y4375D03*
X529Y2375D03*
Y5175D03*
X629Y2375D03*
Y5175D03*
X729Y2375D03*
Y5175D03*
X1879Y2375D03*
Y5175D03*
X1979Y2375D03*
Y5175D03*
X2079Y2375D03*
Y5175D03*
X2729Y2025D03*
Y2125D03*
Y2225D03*
Y4825D03*
Y4925D03*
Y5025D03*
X3229Y1175D03*
Y1275D03*
Y1375D03*
Y1475D03*
Y1575D03*
Y3975D03*
Y4075D03*
Y4175D03*
Y4275D03*
Y4375D03*
X3529Y2375D03*
Y5175D03*
X3629Y2375D03*
Y5175D03*
X3729Y2375D03*
Y5175D03*
X4879Y2375D03*
Y5175D03*
X4979Y2375D03*
Y5175D03*
X5079Y2375D03*
Y5175D03*
X5729Y2025D03*
Y2125D03*
Y2225D03*
Y4825D03*
Y4925D03*
Y5025D03*
X6229Y1175D03*
Y1275D03*
Y1375D03*
Y1475D03*
Y1575D03*
Y3975D03*
Y4075D03*
Y4175D03*
Y4275D03*
Y4375D03*
X6529Y2375D03*
Y5175D03*
X6629Y2375D03*
Y5175D03*
X6729Y2375D03*
Y5175D03*
X7879Y2375D03*
Y5175D03*
X7979Y2375D03*
Y5175D03*
X8079Y2375D03*
Y5175D03*
X8729Y2025D03*
Y2125D03*
Y2225D03*
Y4825D03*
Y4925D03*
Y5025D03*
D02*
D27*
X479Y1842D03*
Y1908D03*
Y4642D03*
Y4708D03*
X3479Y1842D03*
Y1908D03*
Y4642D03*
Y4708D03*
X6479Y1842D03*
Y1908D03*
Y4642D03*
Y4708D03*
D02*
D75*
X579Y1225D03*
Y4025D03*
X679Y1325D03*
Y1838D03*
Y1975D03*
Y2225D03*
Y4125D03*
Y4638D03*
Y4775D03*
Y5025D03*
X729Y1425D03*
Y4225D03*
X741Y2238D03*
Y5038D03*
X829Y1425D03*
Y4225D03*
X841Y2238D03*
Y5038D03*
X879Y1525D03*
Y4325D03*
X904Y1200D03*
Y1463D03*
Y4000D03*
Y4262D03*
X916Y2438D03*
Y5237D03*
X929Y1563D03*
Y4363D03*
X979Y2163D03*
Y4962D03*
X1016Y1375D03*
Y4175D03*
X1166Y2163D03*
Y4962D03*
X1179Y1750D03*
Y4550D03*
X1254Y388D03*
Y3188D03*
X1266Y2088D03*
Y4888D03*
X1354Y1113D03*
Y3913D03*
X1379Y1200D03*
Y4000D03*
X1404Y1513D03*
Y4313D03*
X1429Y200D03*
Y3000D03*
X1441Y1175D03*
Y1563D03*
Y3975D03*
Y4363D03*
X1529Y1650D03*
Y4450D03*
X1541Y813D03*
Y1013D03*
Y1225D03*
Y3613D03*
Y3813D03*
Y4025D03*
X1548Y1738D03*
Y4538D03*
X1579Y1175D03*
Y3975D03*
X1616Y813D03*
Y3613D03*
X1791Y1125D03*
Y3925D03*
X1891Y1975D03*
Y4775D03*
X1941Y2213D03*
Y5013D03*
X1991Y1513D03*
Y2275D03*
Y4313D03*
Y5075D03*
X2034Y1800D03*
Y4599D03*
X2079Y1075D03*
Y3875D03*
X2791Y888D03*
Y3688D03*
X3579Y1225D03*
Y4025D03*
X3679Y1325D03*
Y1838D03*
Y1975D03*
Y2225D03*
Y4125D03*
Y4638D03*
Y4775D03*
Y5025D03*
X3729Y1425D03*
Y4225D03*
X3741Y2238D03*
Y5038D03*
X3829Y1425D03*
Y4225D03*
X3841Y2238D03*
Y5038D03*
X3879Y1525D03*
Y4325D03*
X3904Y1200D03*
Y1463D03*
Y4000D03*
Y4262D03*
X3916Y2438D03*
Y5237D03*
X3929Y1563D03*
Y4363D03*
X3979Y2163D03*
Y4962D03*
X4016Y1375D03*
Y4175D03*
X4166Y2163D03*
Y4962D03*
X4179Y1750D03*
Y4550D03*
X4254Y388D03*
Y3188D03*
X4266Y2088D03*
Y4888D03*
X4354Y1113D03*
Y3913D03*
X4379Y1200D03*
Y4000D03*
X4404Y1513D03*
Y4313D03*
X4429Y200D03*
Y3000D03*
X4441Y1175D03*
Y1563D03*
Y3975D03*
Y4363D03*
X4529Y1650D03*
Y4450D03*
X4541Y813D03*
Y1013D03*
Y1225D03*
Y3613D03*
Y3813D03*
Y4025D03*
X4548Y1738D03*
Y4538D03*
X4579Y1175D03*
Y3975D03*
X4616Y813D03*
Y3613D03*
X4791Y1125D03*
Y3925D03*
X4891Y1975D03*
Y4775D03*
X4941Y2213D03*
Y5013D03*
X4991Y1513D03*
Y2275D03*
Y4313D03*
Y5075D03*
X5034Y1800D03*
Y4599D03*
X5079Y1075D03*
Y3875D03*
X5791Y888D03*
Y3688D03*
X6579Y1225D03*
Y4025D03*
X6679Y1325D03*
Y1838D03*
Y1975D03*
Y2225D03*
Y4125D03*
Y4638D03*
Y4775D03*
Y5025D03*
X6729Y1425D03*
Y4225D03*
X6741Y2238D03*
Y5038D03*
X6829Y1425D03*
Y4225D03*
X6841Y2238D03*
Y5038D03*
X6879Y1525D03*
Y4325D03*
X6904Y1200D03*
Y1463D03*
Y4000D03*
Y4262D03*
X6916Y2438D03*
Y5237D03*
X6929Y1563D03*
Y4363D03*
X6979Y2163D03*
Y4962D03*
X7016Y1375D03*
Y4175D03*
X7166Y2163D03*
Y4962D03*
X7179Y1750D03*
Y4550D03*
X7254Y388D03*
Y3188D03*
X7266Y2088D03*
Y4888D03*
X7354Y1113D03*
Y3913D03*
X7379Y1200D03*
Y4000D03*
X7404Y1513D03*
Y4313D03*
X7429Y200D03*
Y3000D03*
X7441Y1175D03*
Y1563D03*
Y3975D03*
Y4363D03*
X7529Y1650D03*
Y4450D03*
X7541Y813D03*
Y1013D03*
Y1225D03*
Y3613D03*
Y3813D03*
Y4025D03*
X7548Y1738D03*
Y4538D03*
X7579Y1175D03*
Y3975D03*
X7616Y813D03*
Y3613D03*
X7791Y1125D03*
Y3925D03*
X7891Y1975D03*
Y4775D03*
X7941Y2213D03*
Y5013D03*
X7991Y1513D03*
Y2275D03*
Y4313D03*
Y5075D03*
X8034Y1800D03*
Y4599D03*
X8079Y1075D03*
Y3875D03*
X8791Y888D03*
Y3688D03*
D02*
D76*
X279Y275D03*
Y2475D03*
Y3075D03*
Y5275D03*
X2679Y275D03*
Y2475D03*
Y3075D03*
Y5275D03*
X3279Y275D03*
Y2475D03*
Y3075D03*
Y5275D03*
X5679Y275D03*
Y2475D03*
Y3075D03*
Y5275D03*
X6279Y275D03*
Y2475D03*
Y3075D03*
Y5275D03*
X8679Y275D03*
Y2475D03*
Y3075D03*
Y5275D03*
D02*
D145*
X1146Y300D03*
Y3100D03*
X1312Y300D03*
Y3100D03*
X2095Y300D03*
Y3100D03*
X2261Y300D03*
Y3100D03*
X4146Y300D03*
Y3100D03*
X4312Y300D03*
Y3100D03*
X5095Y300D03*
Y3100D03*
X5261Y300D03*
Y3100D03*
X7146Y300D03*
Y3100D03*
X7312Y300D03*
Y3100D03*
X8095Y300D03*
Y3100D03*
X8261Y300D03*
Y3100D03*
X0Y0D02*
M02*
