%FSLAX23Y23*%
%MOIN*%
G04 EasyPC Gerber Version 14.0.2 Build 2922 *
%ADD115C,0.00500*%
%ADD114C,0.10000*%
X0Y0D02*
D02*
D114*
X229Y1175D03*
Y1275D03*
Y1375D03*
Y1475D03*
Y1575D03*
Y1675D03*
Y1825D03*
Y1925D03*
Y2025D03*
Y3975D03*
Y4075D03*
Y4175D03*
Y4275D03*
Y4375D03*
Y4475D03*
Y4625D03*
Y4725D03*
Y4825D03*
X279Y275D03*
Y2475D03*
Y3075D03*
Y5275D03*
X329Y1825D03*
Y1925D03*
Y2025D03*
Y4625D03*
Y4725D03*
Y4825D03*
X529Y2375D03*
Y5175D03*
X579Y1225D03*
Y4025D03*
X629Y2375D03*
Y5175D03*
X679Y1325D03*
Y1838D03*
Y1975D03*
Y2225D03*
Y4125D03*
Y4638D03*
Y4775D03*
Y5025D03*
X729Y1425D03*
Y2375D03*
Y4225D03*
Y5175D03*
X741Y2238D03*
Y5038D03*
X829Y1425D03*
Y2375D03*
Y4225D03*
Y5175D03*
X841Y2238D03*
Y5038D03*
X879Y1525D03*
Y4325D03*
X904Y1200D03*
Y1463D03*
Y4000D03*
Y4262D03*
X916Y2438D03*
Y5237D03*
X929Y1563D03*
Y4363D03*
X979Y2163D03*
Y4962D03*
X1004Y475D03*
Y3275D03*
X1016Y1375D03*
Y4175D03*
X1054Y725D03*
Y3525D03*
X1104Y825D03*
Y3625D03*
X1154Y725D03*
Y3525D03*
X1166Y2163D03*
Y4962D03*
X1179Y1750D03*
Y2275D03*
Y2375D03*
Y4550D03*
Y5075D03*
Y5175D03*
X1204Y825D03*
Y3625D03*
X1254Y388D03*
Y725D03*
Y3188D03*
Y3525D03*
X1266Y2088D03*
Y4888D03*
X1279Y2275D03*
Y2375D03*
Y5075D03*
Y5175D03*
X1304Y825D03*
Y3625D03*
X1354Y725D03*
Y1113D03*
Y3525D03*
Y3913D03*
X1379Y1200D03*
Y2275D03*
Y2375D03*
Y4000D03*
Y5075D03*
Y5175D03*
X1404Y825D03*
Y1513D03*
Y3625D03*
Y4313D03*
X1429Y200D03*
Y3000D03*
X1441Y1175D03*
Y1563D03*
Y3975D03*
Y4363D03*
X1454Y475D03*
Y3275D03*
X1529Y1650D03*
Y4450D03*
X1541Y813D03*
Y1013D03*
Y1225D03*
Y3613D03*
Y3813D03*
Y4025D03*
X1548Y1738D03*
Y4538D03*
X1579Y1175D03*
Y3975D03*
X1616Y813D03*
Y3613D03*
X1779Y2375D03*
Y5175D03*
X1791Y1125D03*
Y3925D03*
X1879Y2375D03*
Y5175D03*
X1891Y1975D03*
Y4775D03*
X1941Y2213D03*
Y5013D03*
X1954Y475D03*
Y3275D03*
X1979Y2375D03*
Y5175D03*
X1991Y1513D03*
Y2275D03*
Y4313D03*
Y5075D03*
X2004Y725D03*
Y3525D03*
X2034Y1800D03*
Y4599D03*
X2054Y825D03*
Y3625D03*
X2079Y1075D03*
Y2375D03*
Y3875D03*
Y5175D03*
X2104Y725D03*
Y3525D03*
X2154Y825D03*
Y3625D03*
X2204Y725D03*
Y3525D03*
X2254Y825D03*
Y3625D03*
X2304Y725D03*
Y3525D03*
X2354Y825D03*
Y3625D03*
X2404Y475D03*
Y3275D03*
X2679Y275D03*
Y2475D03*
Y3075D03*
Y5275D03*
X2729Y1925D03*
Y2025D03*
Y2125D03*
Y2225D03*
Y4725D03*
Y4825D03*
Y4925D03*
Y5025D03*
X2791Y888D03*
Y3688D03*
X3229Y1175D03*
Y1275D03*
Y1375D03*
Y1475D03*
Y1575D03*
Y1675D03*
Y1825D03*
Y1925D03*
Y2025D03*
Y3975D03*
Y4075D03*
Y4175D03*
Y4275D03*
Y4375D03*
Y4475D03*
Y4625D03*
Y4725D03*
Y4825D03*
X3279Y275D03*
Y2475D03*
Y3075D03*
Y5275D03*
X3329Y1825D03*
Y1925D03*
Y2025D03*
Y4625D03*
Y4725D03*
Y4825D03*
X3529Y2375D03*
Y5175D03*
X3579Y1225D03*
Y4025D03*
X3629Y2375D03*
Y5175D03*
X3679Y1325D03*
Y1838D03*
Y1975D03*
Y2225D03*
Y4125D03*
Y4638D03*
Y4775D03*
Y5025D03*
X3729Y1425D03*
Y2375D03*
Y4225D03*
Y5175D03*
X3741Y2238D03*
Y5038D03*
X3829Y1425D03*
Y2375D03*
Y4225D03*
Y5175D03*
X3841Y2238D03*
Y5038D03*
X3879Y1525D03*
Y4325D03*
X3904Y1200D03*
Y1463D03*
Y4000D03*
Y4262D03*
X3916Y2438D03*
Y5237D03*
X3929Y1563D03*
Y4363D03*
X3979Y2163D03*
Y4962D03*
X4004Y475D03*
Y3275D03*
X4016Y1375D03*
Y4175D03*
X4054Y725D03*
Y3525D03*
X4104Y825D03*
Y3625D03*
X4154Y725D03*
Y3525D03*
X4166Y2163D03*
Y4962D03*
X4179Y1750D03*
Y2275D03*
Y2375D03*
Y4550D03*
Y5075D03*
Y5175D03*
X4204Y825D03*
Y3625D03*
X4254Y388D03*
Y725D03*
Y3188D03*
Y3525D03*
X4266Y2088D03*
Y4888D03*
X4279Y2275D03*
Y2375D03*
Y5075D03*
Y5175D03*
X4304Y825D03*
Y3625D03*
X4354Y725D03*
Y1113D03*
Y3525D03*
Y3913D03*
X4379Y1200D03*
Y2275D03*
Y2375D03*
Y4000D03*
Y5075D03*
Y5175D03*
X4404Y825D03*
Y1513D03*
Y3625D03*
Y4313D03*
X4429Y200D03*
Y3000D03*
X4441Y1175D03*
Y1563D03*
Y3975D03*
Y4363D03*
X4454Y475D03*
Y3275D03*
X4529Y1650D03*
Y4450D03*
X4541Y813D03*
Y1013D03*
Y1225D03*
Y3613D03*
Y3813D03*
Y4025D03*
X4548Y1738D03*
Y4538D03*
X4579Y1175D03*
Y3975D03*
X4616Y813D03*
Y3613D03*
X4779Y2375D03*
Y5175D03*
X4791Y1125D03*
Y3925D03*
X4879Y2375D03*
Y5175D03*
X4891Y1975D03*
Y4775D03*
X4941Y2213D03*
Y5013D03*
X4954Y475D03*
Y3275D03*
X4979Y2375D03*
Y5175D03*
X4991Y1513D03*
Y2275D03*
Y4313D03*
Y5075D03*
X5004Y725D03*
Y3525D03*
X5034Y1800D03*
Y4599D03*
X5054Y825D03*
Y3625D03*
X5079Y1075D03*
Y2375D03*
Y3875D03*
Y5175D03*
X5104Y725D03*
Y3525D03*
X5154Y825D03*
Y3625D03*
X5204Y725D03*
Y3525D03*
X5254Y825D03*
Y3625D03*
X5304Y725D03*
Y3525D03*
X5354Y825D03*
Y3625D03*
X5404Y475D03*
Y3275D03*
X5679Y275D03*
Y2475D03*
Y3075D03*
Y5275D03*
X5729Y1925D03*
Y2025D03*
Y2125D03*
Y2225D03*
Y4725D03*
Y4825D03*
Y4925D03*
Y5025D03*
X5791Y888D03*
Y3688D03*
X6229Y1175D03*
Y1275D03*
Y1375D03*
Y1475D03*
Y1575D03*
Y1675D03*
Y1825D03*
Y1925D03*
Y2025D03*
Y3975D03*
Y4075D03*
Y4175D03*
Y4275D03*
Y4375D03*
Y4475D03*
Y4625D03*
Y4725D03*
Y4825D03*
X6279Y275D03*
Y2475D03*
Y3075D03*
Y5275D03*
X6329Y1825D03*
Y1925D03*
Y2025D03*
Y4625D03*
Y4725D03*
Y4825D03*
X6529Y2375D03*
Y5175D03*
X6579Y1225D03*
Y4025D03*
X6629Y2375D03*
Y5175D03*
X6679Y1325D03*
Y1838D03*
Y1975D03*
Y2225D03*
Y4125D03*
Y4638D03*
Y4775D03*
Y5025D03*
X6729Y1425D03*
Y2375D03*
Y4225D03*
Y5175D03*
X6741Y2238D03*
Y5038D03*
X6829Y1425D03*
Y2375D03*
Y4225D03*
Y5175D03*
X6841Y2238D03*
Y5038D03*
X6879Y1525D03*
Y4325D03*
X6904Y1200D03*
Y1463D03*
Y4000D03*
Y4262D03*
X6916Y2438D03*
Y5237D03*
X6929Y1563D03*
Y4363D03*
X6979Y2163D03*
Y4962D03*
X7004Y475D03*
Y3275D03*
X7016Y1375D03*
Y4175D03*
X7054Y725D03*
Y3525D03*
X7104Y825D03*
Y3625D03*
X7154Y725D03*
Y3525D03*
X7166Y2163D03*
Y4962D03*
X7179Y1750D03*
Y2275D03*
Y2375D03*
Y4550D03*
Y5075D03*
Y5175D03*
X7204Y825D03*
Y3625D03*
X7254Y388D03*
Y725D03*
Y3188D03*
Y3525D03*
X7266Y2088D03*
Y4888D03*
X7279Y2275D03*
Y2375D03*
Y5075D03*
Y5175D03*
X7304Y825D03*
Y3625D03*
X7354Y725D03*
Y1113D03*
Y3525D03*
Y3913D03*
X7379Y1200D03*
Y2275D03*
Y2375D03*
Y4000D03*
Y5075D03*
Y5175D03*
X7404Y825D03*
Y1513D03*
Y3625D03*
Y4313D03*
X7429Y200D03*
Y3000D03*
X7441Y1175D03*
Y1563D03*
Y3975D03*
Y4363D03*
X7454Y475D03*
Y3275D03*
X7529Y1650D03*
Y4450D03*
X7541Y813D03*
Y1013D03*
Y1225D03*
Y3613D03*
Y3813D03*
Y4025D03*
X7548Y1738D03*
Y4538D03*
X7579Y1175D03*
Y3975D03*
X7616Y813D03*
Y3613D03*
X7779Y2375D03*
Y5175D03*
X7791Y1125D03*
Y3925D03*
X7879Y2375D03*
Y5175D03*
X7891Y1975D03*
Y4775D03*
X7941Y2213D03*
Y5013D03*
X7954Y475D03*
Y3275D03*
X7979Y2375D03*
Y5175D03*
X7991Y1513D03*
Y2275D03*
Y4313D03*
Y5075D03*
X8004Y725D03*
Y3525D03*
X8034Y1800D03*
Y4599D03*
X8054Y825D03*
Y3625D03*
X8079Y1075D03*
Y2375D03*
Y3875D03*
Y5175D03*
X8104Y725D03*
Y3525D03*
X8154Y825D03*
Y3625D03*
X8204Y725D03*
Y3525D03*
X8254Y825D03*
Y3625D03*
X8304Y725D03*
Y3525D03*
X8354Y825D03*
Y3625D03*
X8404Y475D03*
Y3275D03*
X8679Y275D03*
Y2475D03*
Y3075D03*
Y5275D03*
X8729Y1925D03*
Y2025D03*
Y2125D03*
Y2225D03*
Y4725D03*
Y4825D03*
Y4925D03*
Y5025D03*
X8791Y888D03*
Y3688D03*
D02*
D115*
X329Y1234D02*
Y1272D01*
X348*
X354Y1269*
X357Y1266*
X360Y1259*
Y1247*
X357Y1241*
X354Y1238*
X348Y1234*
X329*
Y1334D02*
Y1372D01*
X348*
X354Y1369*
X357Y1366*
X360Y1359*
Y1347*
X357Y1341*
X354Y1338*
X348Y1334*
X329*
Y1434D02*
Y1472D01*
X348*
X354Y1469*
X357Y1466*
X360Y1459*
Y1447*
X357Y1441*
X354Y1438*
X348Y1434*
X329*
Y1534D02*
Y1572D01*
X348*
X354Y1569*
X357Y1566*
X360Y1559*
Y1547*
X357Y1541*
X354Y1538*
X348Y1534*
X329*
Y1634D02*
Y1672D01*
X348*
X354Y1669*
X357Y1666*
X360Y1659*
Y1647*
X357Y1641*
X354Y1638*
X348Y1634*
X329*
Y1734D02*
Y1772D01*
X348*
X354Y1769*
X357Y1766*
X360Y1759*
Y1747*
X357Y1741*
X354Y1738*
X348Y1734*
X329*
Y1884D02*
Y1922D01*
X348*
X354Y1919*
X357Y1916*
X360Y1909*
Y1897*
X357Y1891*
X354Y1888*
X348Y1884*
X329*
Y1984D02*
Y2022D01*
X348*
X354Y2019*
X357Y2016*
X360Y2009*
Y1997*
X357Y1991*
X354Y1988*
X348Y1984*
X329*
Y2084D02*
Y2122D01*
X348*
X354Y2119*
X357Y2116*
X360Y2109*
Y2097*
X357Y2091*
X354Y2088*
X348Y2084*
X329*
Y4034D02*
Y4072D01*
X348*
X354Y4069*
X357Y4066*
X360Y4059*
Y4047*
X357Y4041*
X354Y4038*
X348Y4034*
X329*
Y4134D02*
Y4172D01*
X348*
X354Y4169*
X357Y4166*
X360Y4159*
Y4147*
X357Y4141*
X354Y4138*
X348Y4134*
X329*
Y4234D02*
Y4272D01*
X348*
X354Y4269*
X357Y4266*
X360Y4259*
Y4247*
X357Y4241*
X354Y4238*
X348Y4234*
X329*
Y4334D02*
Y4372D01*
X348*
X354Y4369*
X357Y4366*
X360Y4359*
Y4347*
X357Y4341*
X354Y4338*
X348Y4334*
X329*
Y4434D02*
Y4472D01*
X348*
X354Y4469*
X357Y4466*
X360Y4459*
Y4447*
X357Y4441*
X354Y4438*
X348Y4434*
X329*
Y4534D02*
Y4572D01*
X348*
X354Y4569*
X357Y4566*
X360Y4559*
Y4547*
X357Y4541*
X354Y4538*
X348Y4534*
X329*
Y4684D02*
Y4722D01*
X348*
X354Y4719*
X357Y4716*
X360Y4709*
Y4697*
X357Y4691*
X354Y4688*
X348Y4684*
X329*
Y4784D02*
Y4822D01*
X348*
X354Y4819*
X357Y4816*
X360Y4809*
Y4797*
X357Y4791*
X354Y4788*
X348Y4784*
X329*
Y4884D02*
Y4922D01*
X348*
X354Y4919*
X357Y4916*
X360Y4909*
Y4897*
X357Y4891*
X354Y4888*
X348Y4884*
X329*
X388Y334D02*
X401D01*
X394D02*
Y372D01*
X388D02*
X401D01*
X388Y2534D02*
X401D01*
X394D02*
Y2572D01*
X388D02*
X401D01*
X388Y3134D02*
X401D01*
X394D02*
Y3172D01*
X388D02*
X401D01*
X388Y5334D02*
X401D01*
X394D02*
Y5372D01*
X388D02*
X401D01*
X429Y1884D02*
Y1922D01*
X448*
X454Y1919*
X457Y1916*
X460Y1909*
Y1897*
X457Y1891*
X454Y1888*
X448Y1884*
X429*
Y1984D02*
Y2022D01*
X448*
X454Y2019*
X457Y2016*
X460Y2009*
Y1997*
X457Y1991*
X454Y1988*
X448Y1984*
X429*
Y2084D02*
Y2122D01*
X448*
X454Y2119*
X457Y2116*
X460Y2109*
Y2097*
X457Y2091*
X454Y2088*
X448Y2084*
X429*
Y4684D02*
Y4722D01*
X448*
X454Y4719*
X457Y4716*
X460Y4709*
Y4697*
X457Y4691*
X454Y4688*
X448Y4684*
X429*
Y4784D02*
Y4822D01*
X448*
X454Y4819*
X457Y4816*
X460Y4809*
Y4797*
X457Y4791*
X454Y4788*
X448Y4784*
X429*
Y4884D02*
Y4922D01*
X448*
X454Y4919*
X457Y4916*
X460Y4909*
Y4897*
X457Y4891*
X454Y4888*
X448Y4884*
X429*
X629Y2434D02*
Y2472D01*
X648*
X654Y2469*
X657Y2466*
X660Y2459*
Y2447*
X657Y2441*
X654Y2438*
X648Y2434*
X629*
Y5234D02*
Y5272D01*
X648*
X654Y5269*
X657Y5266*
X660Y5259*
Y5247*
X657Y5241*
X654Y5238*
X648Y5234*
X629*
X701Y1303D02*
X707Y1300D01*
X710Y1294*
X707Y1288*
X701Y1284*
X679*
Y1322*
X701*
X707Y1319*
X710Y1313*
X707Y1306*
X701Y1303*
X679*
X701Y4103D02*
X707Y4100D01*
X710Y4094*
X707Y4088*
X701Y4084*
X679*
Y4122*
X701*
X707Y4119*
X710Y4113*
X707Y4106*
X701Y4103*
X679*
X729Y2434D02*
Y2472D01*
X748*
X754Y2469*
X757Y2466*
X760Y2459*
Y2447*
X757Y2441*
X754Y2438*
X748Y2434*
X729*
Y5234D02*
Y5272D01*
X748*
X754Y5269*
X757Y5266*
X760Y5259*
Y5247*
X757Y5241*
X754Y5238*
X748Y5234*
X729*
X801Y1403D02*
X807Y1400D01*
X810Y1394*
X807Y1388*
X801Y1384*
X779*
Y1422*
X801*
X807Y1419*
X810Y1413*
X807Y1406*
X801Y1403*
X779*
X801Y1916D02*
X807Y1913D01*
X810Y1906*
X807Y1900*
X801Y1897*
X779*
Y1934*
X801*
X807Y1931*
X810Y1925*
X807Y1919*
X801Y1916*
X779*
X801Y2053D02*
X807Y2050D01*
X810Y2044*
X807Y2038*
X801Y2034*
X779*
Y2072*
X801*
X807Y2069*
X810Y2063*
X807Y2056*
X801Y2053*
X779*
X801Y2303D02*
X807Y2300D01*
X810Y2294*
X807Y2288*
X801Y2284*
X779*
Y2322*
X801*
X807Y2319*
X810Y2313*
X807Y2306*
X801Y2303*
X779*
X801Y4203D02*
X807Y4200D01*
X810Y4194*
X807Y4188*
X801Y4184*
X779*
Y4222*
X801*
X807Y4219*
X810Y4213*
X807Y4206*
X801Y4203*
X779*
X801Y4716D02*
X807Y4713D01*
X810Y4706*
X807Y4700*
X801Y4697*
X779*
Y4734*
X801*
X807Y4731*
X810Y4725*
X807Y4719*
X801Y4716*
X779*
X801Y4853D02*
X807Y4850D01*
X810Y4844*
X807Y4838*
X801Y4834*
X779*
Y4872*
X801*
X807Y4869*
X810Y4863*
X807Y4856*
X801Y4853*
X779*
X801Y5103D02*
X807Y5100D01*
X810Y5094*
X807Y5088*
X801Y5084*
X779*
Y5122*
X801*
X807Y5119*
X810Y5113*
X807Y5106*
X801Y5103*
X779*
X851Y1503D02*
X857Y1500D01*
X860Y1494*
X857Y1488*
X851Y1484*
X829*
Y1522*
X851*
X857Y1519*
X860Y1513*
X857Y1506*
X851Y1503*
X829*
Y2434D02*
Y2472D01*
X848*
X854Y2469*
X857Y2466*
X860Y2459*
Y2447*
X857Y2441*
X854Y2438*
X848Y2434*
X829*
X851Y4303D02*
X857Y4300D01*
X860Y4294*
X857Y4288*
X851Y4284*
X829*
Y4322*
X851*
X857Y4319*
X860Y4313*
X857Y4306*
X851Y4303*
X829*
Y5234D02*
Y5272D01*
X848*
X854Y5269*
X857Y5266*
X860Y5259*
Y5247*
X857Y5241*
X854Y5238*
X848Y5234*
X829*
X863Y2316D02*
X869Y2313D01*
X873Y2306*
X869Y2300*
X863Y2297*
X841*
Y2334*
X863*
X869Y2331*
X873Y2325*
X869Y2319*
X863Y2316*
X841*
X863Y5116D02*
X869Y5113D01*
X873Y5106*
X869Y5100*
X863Y5097*
X841*
Y5134*
X863*
X869Y5131*
X873Y5125*
X869Y5119*
X863Y5116*
X841*
X951Y1503D02*
X957Y1500D01*
X960Y1494*
X957Y1488*
X951Y1484*
X929*
Y1522*
X951*
X957Y1519*
X960Y1513*
X957Y1506*
X951Y1503*
X929*
Y2434D02*
Y2472D01*
X948*
X954Y2469*
X957Y2466*
X960Y2459*
Y2447*
X957Y2441*
X954Y2438*
X948Y2434*
X929*
X951Y4303D02*
X957Y4300D01*
X960Y4294*
X957Y4288*
X951Y4284*
X929*
Y4322*
X951*
X957Y4319*
X960Y4313*
X957Y4306*
X951Y4303*
X929*
Y5234D02*
Y5272D01*
X948*
X954Y5269*
X957Y5266*
X960Y5259*
Y5247*
X957Y5241*
X954Y5238*
X948Y5234*
X929*
X963Y2316D02*
X969Y2313D01*
X973Y2306*
X969Y2300*
X963Y2297*
X941*
Y2334*
X963*
X969Y2331*
X973Y2325*
X969Y2319*
X963Y2316*
X941*
X963Y5116D02*
X969Y5113D01*
X973Y5106*
X969Y5100*
X963Y5097*
X941*
Y5134*
X963*
X969Y5131*
X973Y5125*
X969Y5119*
X963Y5116*
X941*
X1001Y1603D02*
X1007Y1600D01*
X1010Y1594*
X1007Y1588*
X1001Y1584*
X979*
Y1622*
X1001*
X1007Y1619*
X1010Y1613*
X1007Y1606*
X1001Y1603*
X979*
X1001Y4403D02*
X1007Y4400D01*
X1010Y4394*
X1007Y4388*
X1001Y4384*
X979*
Y4422*
X1001*
X1007Y4419*
X1010Y4413*
X1007Y4406*
X1001Y4403*
X979*
X1026Y1278D02*
X1032Y1275D01*
X1035Y1269*
X1032Y1263*
X1026Y1259*
X1004*
Y1297*
X1026*
X1032Y1294*
X1035Y1288*
X1032Y1281*
X1026Y1278*
X1004*
X1026Y1541D02*
X1032Y1538D01*
X1035Y1531*
X1032Y1525*
X1026Y1522*
X1004*
Y1559*
X1026*
X1032Y1556*
X1035Y1550*
X1032Y1544*
X1026Y1541*
X1004*
X1026Y4078D02*
X1032Y4075D01*
X1035Y4069*
X1032Y4063*
X1026Y4059*
X1004*
Y4097*
X1026*
X1032Y4094*
X1035Y4088*
X1032Y4081*
X1026Y4078*
X1004*
X1026Y4341D02*
X1032Y4337D01*
X1035Y4331*
X1032Y4325*
X1026Y4322*
X1004*
Y4359*
X1026*
X1032Y4356*
X1035Y4350*
X1032Y4344*
X1026Y4341*
X1004*
X1038Y2516D02*
X1044Y2513D01*
X1048Y2506*
X1044Y2500*
X1038Y2497*
X1016*
Y2534*
X1038*
X1044Y2531*
X1048Y2525*
X1044Y2519*
X1038Y2516*
X1016*
X1038Y5316D02*
X1044Y5312D01*
X1048Y5306*
X1044Y5300*
X1038Y5297*
X1016*
Y5334*
X1038*
X1044Y5331*
X1048Y5325*
X1044Y5319*
X1038Y5316*
X1016*
X1051Y1641D02*
X1057Y1638D01*
X1060Y1631*
X1057Y1625*
X1051Y1622*
X1029*
Y1659*
X1051*
X1057Y1656*
X1060Y1650*
X1057Y1644*
X1051Y1641*
X1029*
X1051Y4441D02*
X1057Y4438D01*
X1060Y4431*
X1057Y4425*
X1051Y4422*
X1029*
Y4459*
X1051*
X1057Y4456*
X1060Y4450*
X1057Y4444*
X1051Y4441*
X1029*
X1101Y2241D02*
X1107Y2238D01*
X1110Y2231*
X1107Y2225*
X1101Y2222*
X1079*
Y2259*
X1101*
X1107Y2256*
X1110Y2250*
X1107Y2244*
X1101Y2241*
X1079*
X1101Y5041D02*
X1107Y5037D01*
X1110Y5031*
X1107Y5025*
X1101Y5022*
X1079*
Y5059*
X1101*
X1107Y5056*
X1110Y5050*
X1107Y5044*
X1101Y5041*
X1079*
X1126Y550D02*
X1135D01*
Y547*
X1132Y541*
X1129Y538*
X1123Y534*
X1116*
X1110Y538*
X1107Y541*
X1104Y547*
Y559*
X1107Y566*
X1110Y569*
X1116Y572*
X1123*
X1129Y569*
X1132Y566*
X1135Y559*
X1126Y3350D02*
X1135D01*
Y3347*
X1132Y3341*
X1129Y3338*
X1123Y3334*
X1116*
X1110Y3338*
X1107Y3341*
X1104Y3347*
Y3359*
X1107Y3366*
X1110Y3369*
X1116Y3372*
X1123*
X1129Y3369*
X1132Y3366*
X1135Y3359*
X1138Y1453D02*
X1144Y1450D01*
X1148Y1444*
X1144Y1438*
X1138Y1434*
X1116*
Y1472*
X1138*
X1144Y1469*
X1148Y1463*
X1144Y1456*
X1138Y1453*
X1116*
X1138Y4253D02*
X1144Y4250D01*
X1148Y4244*
X1144Y4238*
X1138Y4234*
X1116*
Y4272*
X1138*
X1144Y4269*
X1148Y4263*
X1144Y4256*
X1138Y4253*
X1116*
X1154Y784D02*
Y822D01*
X1185*
X1179Y803D02*
X1154D01*
Y3584D02*
Y3622D01*
X1185*
X1179Y3603D02*
X1154D01*
X1204Y884D02*
Y922D01*
X1235*
X1229Y903D02*
X1204D01*
Y3684D02*
Y3722D01*
X1235*
X1229Y3703D02*
X1204D01*
X1254Y784D02*
Y822D01*
X1285*
X1279Y803D02*
X1254D01*
Y3584D02*
Y3622D01*
X1285*
X1279Y3603D02*
X1254D01*
X1288Y2241D02*
X1294Y2238D01*
X1298Y2231*
X1294Y2225*
X1288Y2222*
X1266*
Y2259*
X1288*
X1294Y2256*
X1298Y2250*
X1294Y2244*
X1288Y2241*
X1266*
X1288Y5041D02*
X1294Y5037D01*
X1298Y5031*
X1294Y5025*
X1288Y5022*
X1266*
Y5059*
X1288*
X1294Y5056*
X1298Y5050*
X1294Y5044*
X1288Y5041*
X1266*
X1301Y1828D02*
X1307Y1825D01*
X1310Y1819*
X1307Y1813*
X1301Y1809*
X1279*
Y1847*
X1301*
X1307Y1844*
X1310Y1838*
X1307Y1831*
X1301Y1828*
X1279*
Y2334D02*
Y2372D01*
X1298*
X1304Y2369*
X1307Y2366*
X1310Y2359*
Y2347*
X1307Y2341*
X1304Y2338*
X1298Y2334*
X1279*
Y2434D02*
Y2472D01*
X1298*
X1304Y2469*
X1307Y2466*
X1310Y2459*
Y2447*
X1307Y2441*
X1304Y2438*
X1298Y2434*
X1279*
X1301Y4628D02*
X1307Y4625D01*
X1310Y4619*
X1307Y4613*
X1301Y4609*
X1279*
Y4647*
X1301*
X1307Y4644*
X1310Y4638*
X1307Y4631*
X1301Y4628*
X1279*
Y5134D02*
Y5172D01*
X1298*
X1304Y5169*
X1307Y5166*
X1310Y5159*
Y5147*
X1307Y5141*
X1304Y5138*
X1298Y5134*
X1279*
Y5234D02*
Y5272D01*
X1298*
X1304Y5269*
X1307Y5266*
X1310Y5259*
Y5247*
X1307Y5241*
X1304Y5238*
X1298Y5234*
X1279*
X1304Y884D02*
Y922D01*
X1335*
X1329Y903D02*
X1304D01*
Y3684D02*
Y3722D01*
X1335*
X1329Y3703D02*
X1304D01*
X1376Y466D02*
X1382Y463D01*
X1385Y456*
X1382Y450*
X1376Y447*
X1354*
Y484*
X1376*
X1382Y481*
X1385Y475*
X1382Y469*
X1376Y466*
X1354*
Y784D02*
Y822D01*
X1385*
X1379Y803D02*
X1354D01*
X1376Y3266D02*
X1382Y3263D01*
X1385Y3256*
X1382Y3250*
X1376Y3247*
X1354*
Y3284*
X1376*
X1382Y3281*
X1385Y3275*
X1382Y3269*
X1376Y3266*
X1354*
Y3584D02*
Y3622D01*
X1385*
X1379Y3603D02*
X1354D01*
X1388Y2166D02*
X1394Y2163D01*
X1398Y2156*
X1394Y2150*
X1388Y2147*
X1366*
Y2184*
X1388*
X1394Y2181*
X1398Y2175*
X1394Y2169*
X1388Y2166*
X1366*
X1388Y4966D02*
X1394Y4963D01*
X1398Y4956*
X1394Y4950*
X1388Y4947*
X1366*
Y4984*
X1388*
X1394Y4981*
X1398Y4975*
X1394Y4969*
X1388Y4966*
X1366*
X1379Y2334D02*
Y2372D01*
X1398*
X1404Y2369*
X1407Y2366*
X1410Y2359*
Y2347*
X1407Y2341*
X1404Y2338*
X1398Y2334*
X1379*
Y2434D02*
Y2472D01*
X1398*
X1404Y2469*
X1407Y2466*
X1410Y2459*
Y2447*
X1407Y2441*
X1404Y2438*
X1398Y2434*
X1379*
Y5134D02*
Y5172D01*
X1398*
X1404Y5169*
X1407Y5166*
X1410Y5159*
Y5147*
X1407Y5141*
X1404Y5138*
X1398Y5134*
X1379*
Y5234D02*
Y5272D01*
X1398*
X1404Y5269*
X1407Y5266*
X1410Y5259*
Y5247*
X1407Y5241*
X1404Y5238*
X1398Y5234*
X1379*
X1404Y884D02*
Y922D01*
X1435*
X1429Y903D02*
X1404D01*
Y3684D02*
Y3722D01*
X1435*
X1429Y3703D02*
X1404D01*
X1454Y784D02*
Y822D01*
X1485*
X1479Y803D02*
X1454D01*
X1476Y1191D02*
X1482Y1188D01*
X1485Y1181*
X1482Y1175*
X1476Y1172*
X1454*
Y1209*
X1476*
X1482Y1206*
X1485Y1200*
X1482Y1194*
X1476Y1191*
X1454*
Y3584D02*
Y3622D01*
X1485*
X1479Y3603D02*
X1454D01*
X1476Y3991D02*
X1482Y3988D01*
X1485Y3981*
X1482Y3975*
X1476Y3972*
X1454*
Y4009*
X1476*
X1482Y4006*
X1485Y4000*
X1482Y3994*
X1476Y3991*
X1454*
X1501Y1278D02*
X1507Y1275D01*
X1510Y1269*
X1507Y1263*
X1501Y1259*
X1479*
Y1297*
X1501*
X1507Y1294*
X1510Y1288*
X1507Y1281*
X1501Y1278*
X1479*
Y2334D02*
Y2372D01*
X1498*
X1504Y2369*
X1507Y2366*
X1510Y2359*
Y2347*
X1507Y2341*
X1504Y2338*
X1498Y2334*
X1479*
Y2434D02*
Y2472D01*
X1498*
X1504Y2469*
X1507Y2466*
X1510Y2459*
Y2447*
X1507Y2441*
X1504Y2438*
X1498Y2434*
X1479*
X1501Y4078D02*
X1507Y4075D01*
X1510Y4069*
X1507Y4063*
X1501Y4059*
X1479*
Y4097*
X1501*
X1507Y4094*
X1510Y4088*
X1507Y4081*
X1501Y4078*
X1479*
Y5134D02*
Y5172D01*
X1498*
X1504Y5169*
X1507Y5166*
X1510Y5159*
Y5147*
X1507Y5141*
X1504Y5138*
X1498Y5134*
X1479*
Y5234D02*
Y5272D01*
X1498*
X1504Y5269*
X1507Y5266*
X1510Y5259*
Y5247*
X1507Y5241*
X1504Y5238*
X1498Y5234*
X1479*
X1504Y884D02*
Y922D01*
X1535*
X1529Y903D02*
X1504D01*
X1526Y1591D02*
X1532Y1588D01*
X1535Y1581*
X1532Y1575*
X1526Y1572*
X1504*
Y1609*
X1526*
X1532Y1606*
X1535Y1600*
X1532Y1594*
X1526Y1591*
X1504*
Y3684D02*
Y3722D01*
X1535*
X1529Y3703D02*
X1504D01*
X1526Y4391D02*
X1532Y4388D01*
X1535Y4381*
X1532Y4375*
X1526Y4372*
X1504*
Y4409*
X1526*
X1532Y4406*
X1535Y4400*
X1532Y4394*
X1526Y4391*
X1504*
X1551Y278D02*
X1557Y275D01*
X1560Y269*
X1557Y263*
X1551Y259*
X1529*
Y297*
X1551*
X1557Y294*
X1560Y288*
X1557Y281*
X1551Y278*
X1529*
X1551Y3078D02*
X1557Y3075D01*
X1560Y3069*
X1557Y3063*
X1551Y3059*
X1529*
Y3097*
X1551*
X1557Y3094*
X1560Y3088*
X1557Y3081*
X1551Y3078*
X1529*
X1563Y1253D02*
X1569Y1250D01*
X1573Y1244*
X1569Y1238*
X1563Y1234*
X1541*
Y1272*
X1563*
X1569Y1269*
X1573Y1263*
X1569Y1256*
X1563Y1253*
X1541*
X1563Y1641D02*
X1569Y1638D01*
X1573Y1631*
X1569Y1625*
X1563Y1622*
X1541*
Y1659*
X1563*
X1569Y1656*
X1573Y1650*
X1569Y1644*
X1563Y1641*
X1541*
X1563Y4053D02*
X1569Y4050D01*
X1573Y4044*
X1569Y4038*
X1563Y4034*
X1541*
Y4072*
X1563*
X1569Y4069*
X1573Y4063*
X1569Y4056*
X1563Y4053*
X1541*
X1563Y4441D02*
X1569Y4438D01*
X1573Y4431*
X1569Y4425*
X1563Y4422*
X1541*
Y4459*
X1563*
X1569Y4456*
X1573Y4450*
X1569Y4444*
X1563Y4441*
X1541*
X1576Y550D02*
X1585D01*
Y547*
X1582Y541*
X1579Y538*
X1573Y534*
X1566*
X1560Y538*
X1557Y541*
X1554Y547*
Y559*
X1557Y566*
X1560Y569*
X1566Y572*
X1573*
X1579Y569*
X1582Y566*
X1585Y559*
X1576Y3350D02*
X1585D01*
Y3347*
X1582Y3341*
X1579Y3338*
X1573Y3334*
X1566*
X1560Y3338*
X1557Y3341*
X1554Y3347*
Y3359*
X1557Y3366*
X1560Y3369*
X1566Y3372*
X1573*
X1579Y3369*
X1582Y3366*
X1585Y3359*
X1651Y1728D02*
X1657Y1725D01*
X1660Y1719*
X1657Y1713*
X1651Y1709*
X1629*
Y1747*
X1651*
X1657Y1744*
X1660Y1738*
X1657Y1731*
X1651Y1728*
X1629*
X1651Y4528D02*
X1657Y4525D01*
X1660Y4519*
X1657Y4513*
X1651Y4509*
X1629*
Y4547*
X1651*
X1657Y4544*
X1660Y4538*
X1657Y4531*
X1651Y4528*
X1629*
X1663Y891D02*
X1669Y888D01*
X1673Y881*
X1669Y875*
X1663Y872*
X1641*
Y909*
X1663*
X1669Y906*
X1673Y900*
X1669Y894*
X1663Y891*
X1641*
X1663Y1091D02*
X1669Y1088D01*
X1673Y1081*
X1669Y1075*
X1663Y1072*
X1641*
Y1109*
X1663*
X1669Y1106*
X1673Y1100*
X1669Y1094*
X1663Y1091*
X1641*
X1663Y1303D02*
X1669Y1300D01*
X1673Y1294*
X1669Y1288*
X1663Y1284*
X1641*
Y1322*
X1663*
X1669Y1319*
X1673Y1313*
X1669Y1306*
X1663Y1303*
X1641*
X1663Y3691D02*
X1669Y3688D01*
X1673Y3681*
X1669Y3675*
X1663Y3672*
X1641*
Y3709*
X1663*
X1669Y3706*
X1673Y3700*
X1669Y3694*
X1663Y3691*
X1641*
X1663Y3891D02*
X1669Y3888D01*
X1673Y3881*
X1669Y3875*
X1663Y3872*
X1641*
Y3909*
X1663*
X1669Y3906*
X1673Y3900*
X1669Y3894*
X1663Y3891*
X1641*
X1663Y4103D02*
X1669Y4100D01*
X1673Y4094*
X1669Y4088*
X1663Y4084*
X1641*
Y4122*
X1663*
X1669Y4119*
X1673Y4113*
X1669Y4106*
X1663Y4103*
X1641*
X1670Y1816D02*
X1676Y1813D01*
X1679Y1806*
X1676Y1800*
X1670Y1797*
X1648*
Y1834*
X1670*
X1676Y1831*
X1679Y1825*
X1676Y1819*
X1670Y1816*
X1648*
X1670Y4616D02*
X1676Y4613D01*
X1679Y4606*
X1676Y4600*
X1670Y4597*
X1648*
Y4634*
X1670*
X1676Y4631*
X1679Y4625*
X1676Y4619*
X1670Y4616*
X1648*
X1701Y1253D02*
X1707Y1250D01*
X1710Y1244*
X1707Y1238*
X1701Y1234*
X1679*
Y1272*
X1701*
X1707Y1269*
X1710Y1263*
X1707Y1256*
X1701Y1253*
X1679*
X1701Y4053D02*
X1707Y4050D01*
X1710Y4044*
X1707Y4038*
X1701Y4034*
X1679*
Y4072*
X1701*
X1707Y4069*
X1710Y4063*
X1707Y4056*
X1701Y4053*
X1679*
X1738Y891D02*
X1744Y888D01*
X1748Y881*
X1744Y875*
X1738Y872*
X1716*
Y909*
X1738*
X1744Y906*
X1748Y900*
X1744Y894*
X1738Y891*
X1716*
X1738Y3691D02*
X1744Y3688D01*
X1748Y3681*
X1744Y3675*
X1738Y3672*
X1716*
Y3709*
X1738*
X1744Y3706*
X1748Y3700*
X1744Y3694*
X1738Y3691*
X1716*
X1879Y2434D02*
Y2472D01*
X1898*
X1904Y2469*
X1907Y2466*
X1910Y2459*
Y2447*
X1907Y2441*
X1904Y2438*
X1898Y2434*
X1879*
Y5234D02*
Y5272D01*
X1898*
X1904Y5269*
X1907Y5266*
X1910Y5259*
Y5247*
X1907Y5241*
X1904Y5238*
X1898Y5234*
X1879*
X1913Y1203D02*
X1919Y1200D01*
X1923Y1194*
X1919Y1188*
X1913Y1184*
X1891*
Y1222*
X1913*
X1919Y1219*
X1923Y1213*
X1919Y1206*
X1913Y1203*
X1891*
X1913Y4003D02*
X1919Y4000D01*
X1923Y3994*
X1919Y3988*
X1913Y3984*
X1891*
Y4022*
X1913*
X1919Y4019*
X1923Y4013*
X1919Y4006*
X1913Y4003*
X1891*
X1979Y2434D02*
Y2472D01*
X1998*
X2004Y2469*
X2007Y2466*
X2010Y2459*
Y2447*
X2007Y2441*
X2004Y2438*
X1998Y2434*
X1979*
Y5234D02*
Y5272D01*
X1998*
X2004Y5269*
X2007Y5266*
X2010Y5259*
Y5247*
X2007Y5241*
X2004Y5238*
X1998Y5234*
X1979*
X2013Y2053D02*
X2019Y2050D01*
X2023Y2044*
X2019Y2038*
X2013Y2034*
X1991*
Y2072*
X2013*
X2019Y2069*
X2023Y2063*
X2019Y2056*
X2013Y2053*
X1991*
X2013Y4853D02*
X2019Y4850D01*
X2023Y4844*
X2019Y4838*
X2013Y4834*
X1991*
Y4872*
X2013*
X2019Y4869*
X2023Y4863*
X2019Y4856*
X2013Y4853*
X1991*
X2063Y2291D02*
X2069Y2288D01*
X2073Y2281*
X2069Y2275*
X2063Y2272*
X2041*
Y2309*
X2063*
X2069Y2306*
X2073Y2300*
X2069Y2294*
X2063Y2291*
X2041*
X2063Y5091D02*
X2069Y5088D01*
X2073Y5081*
X2069Y5075*
X2063Y5072*
X2041*
Y5109*
X2063*
X2069Y5106*
X2073Y5100*
X2069Y5094*
X2063Y5091*
X2041*
X2076Y550D02*
X2085D01*
Y547*
X2082Y541*
X2079Y538*
X2073Y534*
X2066*
X2060Y538*
X2057Y541*
X2054Y547*
Y559*
X2057Y566*
X2060Y569*
X2066Y572*
X2073*
X2079Y569*
X2082Y566*
X2085Y559*
X2076Y3350D02*
X2085D01*
Y3347*
X2082Y3341*
X2079Y3338*
X2073Y3334*
X2066*
X2060Y3338*
X2057Y3341*
X2054Y3347*
Y3359*
X2057Y3366*
X2060Y3369*
X2066Y3372*
X2073*
X2079Y3369*
X2082Y3366*
X2085Y3359*
X2079Y2434D02*
Y2472D01*
X2098*
X2104Y2469*
X2107Y2466*
X2110Y2459*
Y2447*
X2107Y2441*
X2104Y2438*
X2098Y2434*
X2079*
Y5234D02*
Y5272D01*
X2098*
X2104Y5269*
X2107Y5266*
X2110Y5259*
Y5247*
X2107Y5241*
X2104Y5238*
X2098Y5234*
X2079*
X2113Y1591D02*
X2119Y1588D01*
X2123Y1581*
X2119Y1575*
X2113Y1572*
X2091*
Y1609*
X2113*
X2119Y1606*
X2123Y1600*
X2119Y1594*
X2113Y1591*
X2091*
X2113Y2353D02*
X2119Y2350D01*
X2123Y2344*
X2119Y2338*
X2113Y2334*
X2091*
Y2372*
X2113*
X2119Y2369*
X2123Y2363*
X2119Y2356*
X2113Y2353*
X2091*
X2113Y4391D02*
X2119Y4388D01*
X2123Y4381*
X2119Y4375*
X2113Y4372*
X2091*
Y4409*
X2113*
X2119Y4406*
X2123Y4400*
X2119Y4394*
X2113Y4391*
X2091*
X2113Y5153D02*
X2119Y5150D01*
X2123Y5144*
X2119Y5138*
X2113Y5134*
X2091*
Y5172*
X2113*
X2119Y5169*
X2123Y5163*
X2119Y5156*
X2113Y5153*
X2091*
X2104Y784D02*
Y822D01*
X2135*
X2129Y803D02*
X2104D01*
Y3584D02*
Y3622D01*
X2135*
X2129Y3603D02*
X2104D01*
X2156Y1878D02*
X2162Y1875D01*
X2165Y1868*
X2162Y1862*
X2156Y1859*
X2134*
Y1896*
X2156*
X2162Y1893*
X2165Y1887*
X2162Y1881*
X2156Y1878*
X2134*
X2156Y4678D02*
X2162Y4674D01*
X2165Y4668*
X2162Y4662*
X2156Y4659*
X2134*
Y4696*
X2156*
X2162Y4693*
X2165Y4687*
X2162Y4681*
X2156Y4678*
X2134*
X2154Y884D02*
Y922D01*
X2185*
X2179Y903D02*
X2154D01*
Y3684D02*
Y3722D01*
X2185*
X2179Y3703D02*
X2154D01*
X2201Y1153D02*
X2207Y1150D01*
X2210Y1144*
X2207Y1138*
X2201Y1134*
X2179*
Y1172*
X2201*
X2207Y1169*
X2210Y1163*
X2207Y1156*
X2201Y1153*
X2179*
Y2434D02*
Y2472D01*
X2198*
X2204Y2469*
X2207Y2466*
X2210Y2459*
Y2447*
X2207Y2441*
X2204Y2438*
X2198Y2434*
X2179*
X2201Y3953D02*
X2207Y3950D01*
X2210Y3944*
X2207Y3938*
X2201Y3934*
X2179*
Y3972*
X2201*
X2207Y3969*
X2210Y3963*
X2207Y3956*
X2201Y3953*
X2179*
Y5234D02*
Y5272D01*
X2198*
X2204Y5269*
X2207Y5266*
X2210Y5259*
Y5247*
X2207Y5241*
X2204Y5238*
X2198Y5234*
X2179*
X2204Y784D02*
Y822D01*
X2235*
X2229Y803D02*
X2204D01*
Y3584D02*
Y3622D01*
X2235*
X2229Y3603D02*
X2204D01*
X2254Y884D02*
Y922D01*
X2285*
X2279Y903D02*
X2254D01*
Y3684D02*
Y3722D01*
X2285*
X2279Y3703D02*
X2254D01*
X2304Y784D02*
Y822D01*
X2335*
X2329Y803D02*
X2304D01*
Y3584D02*
Y3622D01*
X2335*
X2329Y3603D02*
X2304D01*
X2354Y884D02*
Y922D01*
X2385*
X2379Y903D02*
X2354D01*
Y3684D02*
Y3722D01*
X2385*
X2379Y3703D02*
X2354D01*
X2404Y784D02*
Y822D01*
X2435*
X2429Y803D02*
X2404D01*
Y3584D02*
Y3622D01*
X2435*
X2429Y3603D02*
X2404D01*
X2454Y884D02*
Y922D01*
X2485*
X2479Y903D02*
X2454D01*
Y3684D02*
Y3722D01*
X2485*
X2479Y3703D02*
X2454D01*
X2526Y550D02*
X2535D01*
Y547*
X2532Y541*
X2529Y538*
X2523Y534*
X2516*
X2510Y538*
X2507Y541*
X2504Y547*
Y559*
X2507Y566*
X2510Y569*
X2516Y572*
X2523*
X2529Y569*
X2532Y566*
X2535Y559*
X2526Y3350D02*
X2535D01*
Y3347*
X2532Y3341*
X2529Y3338*
X2523Y3334*
X2516*
X2510Y3338*
X2507Y3341*
X2504Y3347*
Y3359*
X2507Y3366*
X2510Y3369*
X2516Y3372*
X2523*
X2529Y3369*
X2532Y3366*
X2535Y3359*
X2788Y334D02*
X2801D01*
X2794D02*
Y372D01*
X2788D02*
X2801D01*
X2788Y2534D02*
X2801D01*
X2794D02*
Y2572D01*
X2788D02*
X2801D01*
X2788Y3134D02*
X2801D01*
X2794D02*
Y3172D01*
X2788D02*
X2801D01*
X2788Y5334D02*
X2801D01*
X2794D02*
Y5372D01*
X2788D02*
X2801D01*
X2829Y1984D02*
Y2022D01*
X2848*
X2854Y2019*
X2857Y2016*
X2860Y2009*
Y1997*
X2857Y1991*
X2854Y1988*
X2848Y1984*
X2829*
Y2084D02*
Y2122D01*
X2848*
X2854Y2119*
X2857Y2116*
X2860Y2109*
Y2097*
X2857Y2091*
X2854Y2088*
X2848Y2084*
X2829*
Y2184D02*
Y2222D01*
X2848*
X2854Y2219*
X2857Y2216*
X2860Y2209*
Y2197*
X2857Y2191*
X2854Y2188*
X2848Y2184*
X2829*
Y2284D02*
Y2322D01*
X2848*
X2854Y2319*
X2857Y2316*
X2860Y2309*
Y2297*
X2857Y2291*
X2854Y2288*
X2848Y2284*
X2829*
Y4784D02*
Y4822D01*
X2848*
X2854Y4819*
X2857Y4816*
X2860Y4809*
Y4797*
X2857Y4791*
X2854Y4788*
X2848Y4784*
X2829*
Y4884D02*
Y4922D01*
X2848*
X2854Y4919*
X2857Y4916*
X2860Y4909*
Y4897*
X2857Y4891*
X2854Y4888*
X2848Y4884*
X2829*
Y4984D02*
Y5022D01*
X2848*
X2854Y5019*
X2857Y5016*
X2860Y5009*
Y4997*
X2857Y4991*
X2854Y4988*
X2848Y4984*
X2829*
Y5084D02*
Y5122D01*
X2848*
X2854Y5119*
X2857Y5116*
X2860Y5109*
Y5097*
X2857Y5091*
X2854Y5088*
X2848Y5084*
X2829*
X2913Y966D02*
X2919Y963D01*
X2923Y956*
X2919Y950*
X2913Y947*
X2891*
Y984*
X2913*
X2919Y981*
X2923Y975*
X2919Y969*
X2913Y966*
X2891*
X2913Y3766D02*
X2919Y3763D01*
X2923Y3756*
X2919Y3750*
X2913Y3747*
X2891*
Y3784*
X2913*
X2919Y3781*
X2923Y3775*
X2919Y3769*
X2913Y3766*
X2891*
X3329Y1234D02*
Y1272D01*
X3348*
X3354Y1269*
X3357Y1266*
X3360Y1259*
Y1247*
X3357Y1241*
X3354Y1238*
X3348Y1234*
X3329*
Y1334D02*
Y1372D01*
X3348*
X3354Y1369*
X3357Y1366*
X3360Y1359*
Y1347*
X3357Y1341*
X3354Y1338*
X3348Y1334*
X3329*
Y1434D02*
Y1472D01*
X3348*
X3354Y1469*
X3357Y1466*
X3360Y1459*
Y1447*
X3357Y1441*
X3354Y1438*
X3348Y1434*
X3329*
Y1534D02*
Y1572D01*
X3348*
X3354Y1569*
X3357Y1566*
X3360Y1559*
Y1547*
X3357Y1541*
X3354Y1538*
X3348Y1534*
X3329*
Y1634D02*
Y1672D01*
X3348*
X3354Y1669*
X3357Y1666*
X3360Y1659*
Y1647*
X3357Y1641*
X3354Y1638*
X3348Y1634*
X3329*
Y1734D02*
Y1772D01*
X3348*
X3354Y1769*
X3357Y1766*
X3360Y1759*
Y1747*
X3357Y1741*
X3354Y1738*
X3348Y1734*
X3329*
Y1884D02*
Y1922D01*
X3348*
X3354Y1919*
X3357Y1916*
X3360Y1909*
Y1897*
X3357Y1891*
X3354Y1888*
X3348Y1884*
X3329*
Y1984D02*
Y2022D01*
X3348*
X3354Y2019*
X3357Y2016*
X3360Y2009*
Y1997*
X3357Y1991*
X3354Y1988*
X3348Y1984*
X3329*
Y2084D02*
Y2122D01*
X3348*
X3354Y2119*
X3357Y2116*
X3360Y2109*
Y2097*
X3357Y2091*
X3354Y2088*
X3348Y2084*
X3329*
Y4034D02*
Y4072D01*
X3348*
X3354Y4069*
X3357Y4066*
X3360Y4059*
Y4047*
X3357Y4041*
X3354Y4038*
X3348Y4034*
X3329*
Y4134D02*
Y4172D01*
X3348*
X3354Y4169*
X3357Y4166*
X3360Y4159*
Y4147*
X3357Y4141*
X3354Y4138*
X3348Y4134*
X3329*
Y4234D02*
Y4272D01*
X3348*
X3354Y4269*
X3357Y4266*
X3360Y4259*
Y4247*
X3357Y4241*
X3354Y4238*
X3348Y4234*
X3329*
Y4334D02*
Y4372D01*
X3348*
X3354Y4369*
X3357Y4366*
X3360Y4359*
Y4347*
X3357Y4341*
X3354Y4338*
X3348Y4334*
X3329*
Y4434D02*
Y4472D01*
X3348*
X3354Y4469*
X3357Y4466*
X3360Y4459*
Y4447*
X3357Y4441*
X3354Y4438*
X3348Y4434*
X3329*
Y4534D02*
Y4572D01*
X3348*
X3354Y4569*
X3357Y4566*
X3360Y4559*
Y4547*
X3357Y4541*
X3354Y4538*
X3348Y4534*
X3329*
Y4684D02*
Y4722D01*
X3348*
X3354Y4719*
X3357Y4716*
X3360Y4709*
Y4697*
X3357Y4691*
X3354Y4688*
X3348Y4684*
X3329*
Y4784D02*
Y4822D01*
X3348*
X3354Y4819*
X3357Y4816*
X3360Y4809*
Y4797*
X3357Y4791*
X3354Y4788*
X3348Y4784*
X3329*
Y4884D02*
Y4922D01*
X3348*
X3354Y4919*
X3357Y4916*
X3360Y4909*
Y4897*
X3357Y4891*
X3354Y4888*
X3348Y4884*
X3329*
X3388Y334D02*
X3401D01*
X3394D02*
Y372D01*
X3388D02*
X3401D01*
X3388Y2534D02*
X3401D01*
X3394D02*
Y2572D01*
X3388D02*
X3401D01*
X3388Y3134D02*
X3401D01*
X3394D02*
Y3172D01*
X3388D02*
X3401D01*
X3388Y5334D02*
X3401D01*
X3394D02*
Y5372D01*
X3388D02*
X3401D01*
X3429Y1884D02*
Y1922D01*
X3448*
X3454Y1919*
X3457Y1916*
X3460Y1909*
Y1897*
X3457Y1891*
X3454Y1888*
X3448Y1884*
X3429*
Y1984D02*
Y2022D01*
X3448*
X3454Y2019*
X3457Y2016*
X3460Y2009*
Y1997*
X3457Y1991*
X3454Y1988*
X3448Y1984*
X3429*
Y2084D02*
Y2122D01*
X3448*
X3454Y2119*
X3457Y2116*
X3460Y2109*
Y2097*
X3457Y2091*
X3454Y2088*
X3448Y2084*
X3429*
Y4684D02*
Y4722D01*
X3448*
X3454Y4719*
X3457Y4716*
X3460Y4709*
Y4697*
X3457Y4691*
X3454Y4688*
X3448Y4684*
X3429*
Y4784D02*
Y4822D01*
X3448*
X3454Y4819*
X3457Y4816*
X3460Y4809*
Y4797*
X3457Y4791*
X3454Y4788*
X3448Y4784*
X3429*
Y4884D02*
Y4922D01*
X3448*
X3454Y4919*
X3457Y4916*
X3460Y4909*
Y4897*
X3457Y4891*
X3454Y4888*
X3448Y4884*
X3429*
X3629Y2434D02*
Y2472D01*
X3648*
X3654Y2469*
X3657Y2466*
X3660Y2459*
Y2447*
X3657Y2441*
X3654Y2438*
X3648Y2434*
X3629*
Y5234D02*
Y5272D01*
X3648*
X3654Y5269*
X3657Y5266*
X3660Y5259*
Y5247*
X3657Y5241*
X3654Y5238*
X3648Y5234*
X3629*
X3701Y1303D02*
X3707Y1300D01*
X3710Y1294*
X3707Y1288*
X3701Y1284*
X3679*
Y1322*
X3701*
X3707Y1319*
X3710Y1313*
X3707Y1306*
X3701Y1303*
X3679*
X3701Y4103D02*
X3707Y4100D01*
X3710Y4094*
X3707Y4088*
X3701Y4084*
X3679*
Y4122*
X3701*
X3707Y4119*
X3710Y4113*
X3707Y4106*
X3701Y4103*
X3679*
X3729Y2434D02*
Y2472D01*
X3748*
X3754Y2469*
X3757Y2466*
X3760Y2459*
Y2447*
X3757Y2441*
X3754Y2438*
X3748Y2434*
X3729*
Y5234D02*
Y5272D01*
X3748*
X3754Y5269*
X3757Y5266*
X3760Y5259*
Y5247*
X3757Y5241*
X3754Y5238*
X3748Y5234*
X3729*
X3801Y1403D02*
X3807Y1400D01*
X3810Y1394*
X3807Y1388*
X3801Y1384*
X3779*
Y1422*
X3801*
X3807Y1419*
X3810Y1413*
X3807Y1406*
X3801Y1403*
X3779*
X3801Y1916D02*
X3807Y1913D01*
X3810Y1906*
X3807Y1900*
X3801Y1897*
X3779*
Y1934*
X3801*
X3807Y1931*
X3810Y1925*
X3807Y1919*
X3801Y1916*
X3779*
X3801Y2053D02*
X3807Y2050D01*
X3810Y2044*
X3807Y2038*
X3801Y2034*
X3779*
Y2072*
X3801*
X3807Y2069*
X3810Y2063*
X3807Y2056*
X3801Y2053*
X3779*
X3801Y2303D02*
X3807Y2300D01*
X3810Y2294*
X3807Y2288*
X3801Y2284*
X3779*
Y2322*
X3801*
X3807Y2319*
X3810Y2313*
X3807Y2306*
X3801Y2303*
X3779*
X3801Y4203D02*
X3807Y4200D01*
X3810Y4194*
X3807Y4188*
X3801Y4184*
X3779*
Y4222*
X3801*
X3807Y4219*
X3810Y4213*
X3807Y4206*
X3801Y4203*
X3779*
X3801Y4716D02*
X3807Y4713D01*
X3810Y4706*
X3807Y4700*
X3801Y4697*
X3779*
Y4734*
X3801*
X3807Y4731*
X3810Y4725*
X3807Y4719*
X3801Y4716*
X3779*
X3801Y4853D02*
X3807Y4850D01*
X3810Y4844*
X3807Y4838*
X3801Y4834*
X3779*
Y4872*
X3801*
X3807Y4869*
X3810Y4863*
X3807Y4856*
X3801Y4853*
X3779*
X3801Y5103D02*
X3807Y5100D01*
X3810Y5094*
X3807Y5088*
X3801Y5084*
X3779*
Y5122*
X3801*
X3807Y5119*
X3810Y5113*
X3807Y5106*
X3801Y5103*
X3779*
X3851Y1503D02*
X3857Y1500D01*
X3860Y1494*
X3857Y1488*
X3851Y1484*
X3829*
Y1522*
X3851*
X3857Y1519*
X3860Y1513*
X3857Y1506*
X3851Y1503*
X3829*
Y2434D02*
Y2472D01*
X3848*
X3854Y2469*
X3857Y2466*
X3860Y2459*
Y2447*
X3857Y2441*
X3854Y2438*
X3848Y2434*
X3829*
X3851Y4303D02*
X3857Y4300D01*
X3860Y4294*
X3857Y4288*
X3851Y4284*
X3829*
Y4322*
X3851*
X3857Y4319*
X3860Y4313*
X3857Y4306*
X3851Y4303*
X3829*
Y5234D02*
Y5272D01*
X3848*
X3854Y5269*
X3857Y5266*
X3860Y5259*
Y5247*
X3857Y5241*
X3854Y5238*
X3848Y5234*
X3829*
X3863Y2316D02*
X3869Y2313D01*
X3873Y2306*
X3869Y2300*
X3863Y2297*
X3841*
Y2334*
X3863*
X3869Y2331*
X3873Y2325*
X3869Y2319*
X3863Y2316*
X3841*
X3863Y5116D02*
X3869Y5113D01*
X3873Y5106*
X3869Y5100*
X3863Y5097*
X3841*
Y5134*
X3863*
X3869Y5131*
X3873Y5125*
X3869Y5119*
X3863Y5116*
X3841*
X3951Y1503D02*
X3957Y1500D01*
X3960Y1494*
X3957Y1488*
X3951Y1484*
X3929*
Y1522*
X3951*
X3957Y1519*
X3960Y1513*
X3957Y1506*
X3951Y1503*
X3929*
Y2434D02*
Y2472D01*
X3948*
X3954Y2469*
X3957Y2466*
X3960Y2459*
Y2447*
X3957Y2441*
X3954Y2438*
X3948Y2434*
X3929*
X3951Y4303D02*
X3957Y4300D01*
X3960Y4294*
X3957Y4288*
X3951Y4284*
X3929*
Y4322*
X3951*
X3957Y4319*
X3960Y4313*
X3957Y4306*
X3951Y4303*
X3929*
Y5234D02*
Y5272D01*
X3948*
X3954Y5269*
X3957Y5266*
X3960Y5259*
Y5247*
X3957Y5241*
X3954Y5238*
X3948Y5234*
X3929*
X3963Y2316D02*
X3969Y2313D01*
X3973Y2306*
X3969Y2300*
X3963Y2297*
X3941*
Y2334*
X3963*
X3969Y2331*
X3973Y2325*
X3969Y2319*
X3963Y2316*
X3941*
X3963Y5116D02*
X3969Y5113D01*
X3973Y5106*
X3969Y5100*
X3963Y5097*
X3941*
Y5134*
X3963*
X3969Y5131*
X3973Y5125*
X3969Y5119*
X3963Y5116*
X3941*
X4001Y1603D02*
X4007Y1600D01*
X4010Y1594*
X4007Y1588*
X4001Y1584*
X3979*
Y1622*
X4001*
X4007Y1619*
X4010Y1613*
X4007Y1606*
X4001Y1603*
X3979*
X4001Y4403D02*
X4007Y4400D01*
X4010Y4394*
X4007Y4388*
X4001Y4384*
X3979*
Y4422*
X4001*
X4007Y4419*
X4010Y4413*
X4007Y4406*
X4001Y4403*
X3979*
X4026Y1278D02*
X4032Y1275D01*
X4035Y1269*
X4032Y1263*
X4026Y1259*
X4004*
Y1297*
X4026*
X4032Y1294*
X4035Y1288*
X4032Y1281*
X4026Y1278*
X4004*
X4026Y1541D02*
X4032Y1538D01*
X4035Y1531*
X4032Y1525*
X4026Y1522*
X4004*
Y1559*
X4026*
X4032Y1556*
X4035Y1550*
X4032Y1544*
X4026Y1541*
X4004*
X4026Y4078D02*
X4032Y4075D01*
X4035Y4069*
X4032Y4063*
X4026Y4059*
X4004*
Y4097*
X4026*
X4032Y4094*
X4035Y4088*
X4032Y4081*
X4026Y4078*
X4004*
X4026Y4341D02*
X4032Y4337D01*
X4035Y4331*
X4032Y4325*
X4026Y4322*
X4004*
Y4359*
X4026*
X4032Y4356*
X4035Y4350*
X4032Y4344*
X4026Y4341*
X4004*
X4038Y2516D02*
X4044Y2513D01*
X4048Y2506*
X4044Y2500*
X4038Y2497*
X4016*
Y2534*
X4038*
X4044Y2531*
X4048Y2525*
X4044Y2519*
X4038Y2516*
X4016*
X4038Y5316D02*
X4044Y5312D01*
X4048Y5306*
X4044Y5300*
X4038Y5297*
X4016*
Y5334*
X4038*
X4044Y5331*
X4048Y5325*
X4044Y5319*
X4038Y5316*
X4016*
X4051Y1641D02*
X4057Y1638D01*
X4060Y1631*
X4057Y1625*
X4051Y1622*
X4029*
Y1659*
X4051*
X4057Y1656*
X4060Y1650*
X4057Y1644*
X4051Y1641*
X4029*
X4051Y4441D02*
X4057Y4438D01*
X4060Y4431*
X4057Y4425*
X4051Y4422*
X4029*
Y4459*
X4051*
X4057Y4456*
X4060Y4450*
X4057Y4444*
X4051Y4441*
X4029*
X4101Y2241D02*
X4107Y2238D01*
X4110Y2231*
X4107Y2225*
X4101Y2222*
X4079*
Y2259*
X4101*
X4107Y2256*
X4110Y2250*
X4107Y2244*
X4101Y2241*
X4079*
X4101Y5041D02*
X4107Y5037D01*
X4110Y5031*
X4107Y5025*
X4101Y5022*
X4079*
Y5059*
X4101*
X4107Y5056*
X4110Y5050*
X4107Y5044*
X4101Y5041*
X4079*
X4126Y550D02*
X4135D01*
Y547*
X4132Y541*
X4129Y538*
X4123Y534*
X4116*
X4110Y538*
X4107Y541*
X4104Y547*
Y559*
X4107Y566*
X4110Y569*
X4116Y572*
X4123*
X4129Y569*
X4132Y566*
X4135Y559*
X4126Y3350D02*
X4135D01*
Y3347*
X4132Y3341*
X4129Y3338*
X4123Y3334*
X4116*
X4110Y3338*
X4107Y3341*
X4104Y3347*
Y3359*
X4107Y3366*
X4110Y3369*
X4116Y3372*
X4123*
X4129Y3369*
X4132Y3366*
X4135Y3359*
X4138Y1453D02*
X4144Y1450D01*
X4148Y1444*
X4144Y1438*
X4138Y1434*
X4116*
Y1472*
X4138*
X4144Y1469*
X4148Y1463*
X4144Y1456*
X4138Y1453*
X4116*
X4138Y4253D02*
X4144Y4250D01*
X4148Y4244*
X4144Y4238*
X4138Y4234*
X4116*
Y4272*
X4138*
X4144Y4269*
X4148Y4263*
X4144Y4256*
X4138Y4253*
X4116*
X4154Y784D02*
Y822D01*
X4185*
X4179Y803D02*
X4154D01*
Y3584D02*
Y3622D01*
X4185*
X4179Y3603D02*
X4154D01*
X4204Y884D02*
Y922D01*
X4235*
X4229Y903D02*
X4204D01*
Y3684D02*
Y3722D01*
X4235*
X4229Y3703D02*
X4204D01*
X4254Y784D02*
Y822D01*
X4285*
X4279Y803D02*
X4254D01*
Y3584D02*
Y3622D01*
X4285*
X4279Y3603D02*
X4254D01*
X4288Y2241D02*
X4294Y2238D01*
X4298Y2231*
X4294Y2225*
X4288Y2222*
X4266*
Y2259*
X4288*
X4294Y2256*
X4298Y2250*
X4294Y2244*
X4288Y2241*
X4266*
X4288Y5041D02*
X4294Y5037D01*
X4298Y5031*
X4294Y5025*
X4288Y5022*
X4266*
Y5059*
X4288*
X4294Y5056*
X4298Y5050*
X4294Y5044*
X4288Y5041*
X4266*
X4301Y1828D02*
X4307Y1825D01*
X4310Y1819*
X4307Y1813*
X4301Y1809*
X4279*
Y1847*
X4301*
X4307Y1844*
X4310Y1838*
X4307Y1831*
X4301Y1828*
X4279*
Y2334D02*
Y2372D01*
X4298*
X4304Y2369*
X4307Y2366*
X4310Y2359*
Y2347*
X4307Y2341*
X4304Y2338*
X4298Y2334*
X4279*
Y2434D02*
Y2472D01*
X4298*
X4304Y2469*
X4307Y2466*
X4310Y2459*
Y2447*
X4307Y2441*
X4304Y2438*
X4298Y2434*
X4279*
X4301Y4628D02*
X4307Y4625D01*
X4310Y4619*
X4307Y4613*
X4301Y4609*
X4279*
Y4647*
X4301*
X4307Y4644*
X4310Y4638*
X4307Y4631*
X4301Y4628*
X4279*
Y5134D02*
Y5172D01*
X4298*
X4304Y5169*
X4307Y5166*
X4310Y5159*
Y5147*
X4307Y5141*
X4304Y5138*
X4298Y5134*
X4279*
Y5234D02*
Y5272D01*
X4298*
X4304Y5269*
X4307Y5266*
X4310Y5259*
Y5247*
X4307Y5241*
X4304Y5238*
X4298Y5234*
X4279*
X4304Y884D02*
Y922D01*
X4335*
X4329Y903D02*
X4304D01*
Y3684D02*
Y3722D01*
X4335*
X4329Y3703D02*
X4304D01*
X4376Y466D02*
X4382Y463D01*
X4385Y456*
X4382Y450*
X4376Y447*
X4354*
Y484*
X4376*
X4382Y481*
X4385Y475*
X4382Y469*
X4376Y466*
X4354*
Y784D02*
Y822D01*
X4385*
X4379Y803D02*
X4354D01*
X4376Y3266D02*
X4382Y3263D01*
X4385Y3256*
X4382Y3250*
X4376Y3247*
X4354*
Y3284*
X4376*
X4382Y3281*
X4385Y3275*
X4382Y3269*
X4376Y3266*
X4354*
Y3584D02*
Y3622D01*
X4385*
X4379Y3603D02*
X4354D01*
X4388Y2166D02*
X4394Y2163D01*
X4397Y2156*
X4394Y2150*
X4388Y2147*
X4366*
Y2184*
X4388*
X4394Y2181*
X4397Y2175*
X4394Y2169*
X4388Y2166*
X4366*
X4388Y4966D02*
X4394Y4963D01*
X4397Y4956*
X4394Y4950*
X4388Y4947*
X4366*
Y4984*
X4388*
X4394Y4981*
X4397Y4975*
X4394Y4969*
X4388Y4966*
X4366*
X4379Y2334D02*
Y2372D01*
X4398*
X4404Y2369*
X4407Y2366*
X4410Y2359*
Y2347*
X4407Y2341*
X4404Y2338*
X4398Y2334*
X4379*
Y2434D02*
Y2472D01*
X4398*
X4404Y2469*
X4407Y2466*
X4410Y2459*
Y2447*
X4407Y2441*
X4404Y2438*
X4398Y2434*
X4379*
Y5134D02*
Y5172D01*
X4398*
X4404Y5169*
X4407Y5166*
X4410Y5159*
Y5147*
X4407Y5141*
X4404Y5138*
X4398Y5134*
X4379*
Y5234D02*
Y5272D01*
X4398*
X4404Y5269*
X4407Y5266*
X4410Y5259*
Y5247*
X4407Y5241*
X4404Y5238*
X4398Y5234*
X4379*
X4404Y884D02*
Y922D01*
X4435*
X4429Y903D02*
X4404D01*
Y3684D02*
Y3722D01*
X4435*
X4429Y3703D02*
X4404D01*
X4454Y784D02*
Y822D01*
X4485*
X4479Y803D02*
X4454D01*
X4476Y1191D02*
X4482Y1188D01*
X4485Y1181*
X4482Y1175*
X4476Y1172*
X4454*
Y1209*
X4476*
X4482Y1206*
X4485Y1200*
X4482Y1194*
X4476Y1191*
X4454*
Y3584D02*
Y3622D01*
X4485*
X4479Y3603D02*
X4454D01*
X4476Y3991D02*
X4482Y3988D01*
X4485Y3981*
X4482Y3975*
X4476Y3972*
X4454*
Y4009*
X4476*
X4482Y4006*
X4485Y4000*
X4482Y3994*
X4476Y3991*
X4454*
X4501Y1278D02*
X4507Y1275D01*
X4510Y1269*
X4507Y1263*
X4501Y1259*
X4479*
Y1297*
X4501*
X4507Y1294*
X4510Y1288*
X4507Y1281*
X4501Y1278*
X4479*
Y2334D02*
Y2372D01*
X4498*
X4504Y2369*
X4507Y2366*
X4510Y2359*
Y2347*
X4507Y2341*
X4504Y2338*
X4498Y2334*
X4479*
Y2434D02*
Y2472D01*
X4498*
X4504Y2469*
X4507Y2466*
X4510Y2459*
Y2447*
X4507Y2441*
X4504Y2438*
X4498Y2434*
X4479*
X4501Y4078D02*
X4507Y4075D01*
X4510Y4069*
X4507Y4063*
X4501Y4059*
X4479*
Y4097*
X4501*
X4507Y4094*
X4510Y4088*
X4507Y4081*
X4501Y4078*
X4479*
Y5134D02*
Y5172D01*
X4498*
X4504Y5169*
X4507Y5166*
X4510Y5159*
Y5147*
X4507Y5141*
X4504Y5138*
X4498Y5134*
X4479*
Y5234D02*
Y5272D01*
X4498*
X4504Y5269*
X4507Y5266*
X4510Y5259*
Y5247*
X4507Y5241*
X4504Y5238*
X4498Y5234*
X4479*
X4504Y884D02*
Y922D01*
X4535*
X4529Y903D02*
X4504D01*
X4526Y1591D02*
X4532Y1588D01*
X4535Y1581*
X4532Y1575*
X4526Y1572*
X4504*
Y1609*
X4526*
X4532Y1606*
X4535Y1600*
X4532Y1594*
X4526Y1591*
X4504*
Y3684D02*
Y3722D01*
X4535*
X4529Y3703D02*
X4504D01*
X4526Y4391D02*
X4532Y4388D01*
X4535Y4381*
X4532Y4375*
X4526Y4372*
X4504*
Y4409*
X4526*
X4532Y4406*
X4535Y4400*
X4532Y4394*
X4526Y4391*
X4504*
X4551Y278D02*
X4557Y275D01*
X4560Y269*
X4557Y263*
X4551Y259*
X4529*
Y297*
X4551*
X4557Y294*
X4560Y288*
X4557Y281*
X4551Y278*
X4529*
X4551Y3078D02*
X4557Y3075D01*
X4560Y3069*
X4557Y3063*
X4551Y3059*
X4529*
Y3097*
X4551*
X4557Y3094*
X4560Y3088*
X4557Y3081*
X4551Y3078*
X4529*
X4563Y1253D02*
X4569Y1250D01*
X4573Y1244*
X4569Y1238*
X4563Y1234*
X4541*
Y1272*
X4563*
X4569Y1269*
X4573Y1263*
X4569Y1256*
X4563Y1253*
X4541*
X4563Y1641D02*
X4569Y1638D01*
X4573Y1631*
X4569Y1625*
X4563Y1622*
X4541*
Y1659*
X4563*
X4569Y1656*
X4573Y1650*
X4569Y1644*
X4563Y1641*
X4541*
X4563Y4053D02*
X4569Y4050D01*
X4573Y4044*
X4569Y4038*
X4563Y4034*
X4541*
Y4072*
X4563*
X4569Y4069*
X4573Y4063*
X4569Y4056*
X4563Y4053*
X4541*
X4563Y4441D02*
X4569Y4438D01*
X4573Y4431*
X4569Y4425*
X4563Y4422*
X4541*
Y4459*
X4563*
X4569Y4456*
X4573Y4450*
X4569Y4444*
X4563Y4441*
X4541*
X4576Y550D02*
X4585D01*
Y547*
X4582Y541*
X4579Y538*
X4573Y534*
X4566*
X4560Y538*
X4557Y541*
X4554Y547*
Y559*
X4557Y566*
X4560Y569*
X4566Y572*
X4573*
X4579Y569*
X4582Y566*
X4585Y559*
X4576Y3350D02*
X4585D01*
Y3347*
X4582Y3341*
X4579Y3338*
X4573Y3334*
X4566*
X4560Y3338*
X4557Y3341*
X4554Y3347*
Y3359*
X4557Y3366*
X4560Y3369*
X4566Y3372*
X4573*
X4579Y3369*
X4582Y3366*
X4585Y3359*
X4651Y1728D02*
X4657Y1725D01*
X4660Y1719*
X4657Y1713*
X4651Y1709*
X4629*
Y1747*
X4651*
X4657Y1744*
X4660Y1738*
X4657Y1731*
X4651Y1728*
X4629*
X4651Y4528D02*
X4657Y4525D01*
X4660Y4519*
X4657Y4513*
X4651Y4509*
X4629*
Y4547*
X4651*
X4657Y4544*
X4660Y4538*
X4657Y4531*
X4651Y4528*
X4629*
X4663Y891D02*
X4669Y888D01*
X4673Y881*
X4669Y875*
X4663Y872*
X4641*
Y909*
X4663*
X4669Y906*
X4673Y900*
X4669Y894*
X4663Y891*
X4641*
X4663Y1091D02*
X4669Y1088D01*
X4673Y1081*
X4669Y1075*
X4663Y1072*
X4641*
Y1109*
X4663*
X4669Y1106*
X4673Y1100*
X4669Y1094*
X4663Y1091*
X4641*
X4663Y1303D02*
X4669Y1300D01*
X4673Y1294*
X4669Y1288*
X4663Y1284*
X4641*
Y1322*
X4663*
X4669Y1319*
X4673Y1313*
X4669Y1306*
X4663Y1303*
X4641*
X4663Y3691D02*
X4669Y3688D01*
X4673Y3681*
X4669Y3675*
X4663Y3672*
X4641*
Y3709*
X4663*
X4669Y3706*
X4673Y3700*
X4669Y3694*
X4663Y3691*
X4641*
X4663Y3891D02*
X4669Y3888D01*
X4673Y3881*
X4669Y3875*
X4663Y3872*
X4641*
Y3909*
X4663*
X4669Y3906*
X4673Y3900*
X4669Y3894*
X4663Y3891*
X4641*
X4663Y4103D02*
X4669Y4100D01*
X4673Y4094*
X4669Y4088*
X4663Y4084*
X4641*
Y4122*
X4663*
X4669Y4119*
X4673Y4113*
X4669Y4106*
X4663Y4103*
X4641*
X4670Y1816D02*
X4676Y1813D01*
X4679Y1806*
X4676Y1800*
X4670Y1797*
X4648*
Y1834*
X4670*
X4676Y1831*
X4679Y1825*
X4676Y1819*
X4670Y1816*
X4648*
X4670Y4616D02*
X4676Y4613D01*
X4679Y4606*
X4676Y4600*
X4670Y4597*
X4648*
Y4634*
X4670*
X4676Y4631*
X4679Y4625*
X4676Y4619*
X4670Y4616*
X4648*
X4701Y1253D02*
X4707Y1250D01*
X4710Y1244*
X4707Y1238*
X4701Y1234*
X4679*
Y1272*
X4701*
X4707Y1269*
X4710Y1263*
X4707Y1256*
X4701Y1253*
X4679*
X4701Y4053D02*
X4707Y4050D01*
X4710Y4044*
X4707Y4038*
X4701Y4034*
X4679*
Y4072*
X4701*
X4707Y4069*
X4710Y4063*
X4707Y4056*
X4701Y4053*
X4679*
X4738Y891D02*
X4744Y888D01*
X4747Y881*
X4744Y875*
X4738Y872*
X4716*
Y909*
X4738*
X4744Y906*
X4747Y900*
X4744Y894*
X4738Y891*
X4716*
X4738Y3691D02*
X4744Y3688D01*
X4747Y3681*
X4744Y3675*
X4738Y3672*
X4716*
Y3709*
X4738*
X4744Y3706*
X4747Y3700*
X4744Y3694*
X4738Y3691*
X4716*
X4879Y2434D02*
Y2472D01*
X4898*
X4904Y2469*
X4907Y2466*
X4910Y2459*
Y2447*
X4907Y2441*
X4904Y2438*
X4898Y2434*
X4879*
Y5234D02*
Y5272D01*
X4898*
X4904Y5269*
X4907Y5266*
X4910Y5259*
Y5247*
X4907Y5241*
X4904Y5238*
X4898Y5234*
X4879*
X4913Y1203D02*
X4919Y1200D01*
X4923Y1194*
X4919Y1188*
X4913Y1184*
X4891*
Y1222*
X4913*
X4919Y1219*
X4923Y1213*
X4919Y1206*
X4913Y1203*
X4891*
X4913Y4003D02*
X4919Y4000D01*
X4923Y3994*
X4919Y3988*
X4913Y3984*
X4891*
Y4022*
X4913*
X4919Y4019*
X4923Y4013*
X4919Y4006*
X4913Y4003*
X4891*
X4979Y2434D02*
Y2472D01*
X4998*
X5004Y2469*
X5007Y2466*
X5010Y2459*
Y2447*
X5007Y2441*
X5004Y2438*
X4998Y2434*
X4979*
Y5234D02*
Y5272D01*
X4998*
X5004Y5269*
X5007Y5266*
X5010Y5259*
Y5247*
X5007Y5241*
X5004Y5238*
X4998Y5234*
X4979*
X5013Y2053D02*
X5019Y2050D01*
X5023Y2044*
X5019Y2038*
X5013Y2034*
X4991*
Y2072*
X5013*
X5019Y2069*
X5023Y2063*
X5019Y2056*
X5013Y2053*
X4991*
X5013Y4853D02*
X5019Y4850D01*
X5023Y4844*
X5019Y4838*
X5013Y4834*
X4991*
Y4872*
X5013*
X5019Y4869*
X5023Y4863*
X5019Y4856*
X5013Y4853*
X4991*
X5063Y2291D02*
X5069Y2288D01*
X5073Y2281*
X5069Y2275*
X5063Y2272*
X5041*
Y2309*
X5063*
X5069Y2306*
X5073Y2300*
X5069Y2294*
X5063Y2291*
X5041*
X5063Y5091D02*
X5069Y5088D01*
X5073Y5081*
X5069Y5075*
X5063Y5072*
X5041*
Y5109*
X5063*
X5069Y5106*
X5073Y5100*
X5069Y5094*
X5063Y5091*
X5041*
X5076Y550D02*
X5085D01*
Y547*
X5082Y541*
X5079Y538*
X5073Y534*
X5066*
X5060Y538*
X5057Y541*
X5054Y547*
Y559*
X5057Y566*
X5060Y569*
X5066Y572*
X5073*
X5079Y569*
X5082Y566*
X5085Y559*
X5076Y3350D02*
X5085D01*
Y3347*
X5082Y3341*
X5079Y3338*
X5073Y3334*
X5066*
X5060Y3338*
X5057Y3341*
X5054Y3347*
Y3359*
X5057Y3366*
X5060Y3369*
X5066Y3372*
X5073*
X5079Y3369*
X5082Y3366*
X5085Y3359*
X5079Y2434D02*
Y2472D01*
X5098*
X5104Y2469*
X5107Y2466*
X5110Y2459*
Y2447*
X5107Y2441*
X5104Y2438*
X5098Y2434*
X5079*
Y5234D02*
Y5272D01*
X5098*
X5104Y5269*
X5107Y5266*
X5110Y5259*
Y5247*
X5107Y5241*
X5104Y5238*
X5098Y5234*
X5079*
X5113Y1591D02*
X5119Y1588D01*
X5123Y1581*
X5119Y1575*
X5113Y1572*
X5091*
Y1609*
X5113*
X5119Y1606*
X5123Y1600*
X5119Y1594*
X5113Y1591*
X5091*
X5113Y2353D02*
X5119Y2350D01*
X5123Y2344*
X5119Y2338*
X5113Y2334*
X5091*
Y2372*
X5113*
X5119Y2369*
X5123Y2363*
X5119Y2356*
X5113Y2353*
X5091*
X5113Y4391D02*
X5119Y4388D01*
X5123Y4381*
X5119Y4375*
X5113Y4372*
X5091*
Y4409*
X5113*
X5119Y4406*
X5123Y4400*
X5119Y4394*
X5113Y4391*
X5091*
X5113Y5153D02*
X5119Y5150D01*
X5123Y5144*
X5119Y5138*
X5113Y5134*
X5091*
Y5172*
X5113*
X5119Y5169*
X5123Y5163*
X5119Y5156*
X5113Y5153*
X5091*
X5104Y784D02*
Y822D01*
X5135*
X5129Y803D02*
X5104D01*
Y3584D02*
Y3622D01*
X5135*
X5129Y3603D02*
X5104D01*
X5156Y1878D02*
X5162Y1875D01*
X5165Y1868*
X5162Y1862*
X5156Y1859*
X5134*
Y1896*
X5156*
X5162Y1893*
X5165Y1887*
X5162Y1881*
X5156Y1878*
X5134*
X5156Y4678D02*
X5162Y4674D01*
X5165Y4668*
X5162Y4662*
X5156Y4659*
X5134*
Y4696*
X5156*
X5162Y4693*
X5165Y4687*
X5162Y4681*
X5156Y4678*
X5134*
X5154Y884D02*
Y922D01*
X5185*
X5179Y903D02*
X5154D01*
Y3684D02*
Y3722D01*
X5185*
X5179Y3703D02*
X5154D01*
X5201Y1153D02*
X5207Y1150D01*
X5210Y1144*
X5207Y1138*
X5201Y1134*
X5179*
Y1172*
X5201*
X5207Y1169*
X5210Y1163*
X5207Y1156*
X5201Y1153*
X5179*
Y2434D02*
Y2472D01*
X5198*
X5204Y2469*
X5207Y2466*
X5210Y2459*
Y2447*
X5207Y2441*
X5204Y2438*
X5198Y2434*
X5179*
X5201Y3953D02*
X5207Y3950D01*
X5210Y3944*
X5207Y3938*
X5201Y3934*
X5179*
Y3972*
X5201*
X5207Y3969*
X5210Y3963*
X5207Y3956*
X5201Y3953*
X5179*
Y5234D02*
Y5272D01*
X5198*
X5204Y5269*
X5207Y5266*
X5210Y5259*
Y5247*
X5207Y5241*
X5204Y5238*
X5198Y5234*
X5179*
X5204Y784D02*
Y822D01*
X5235*
X5229Y803D02*
X5204D01*
Y3584D02*
Y3622D01*
X5235*
X5229Y3603D02*
X5204D01*
X5254Y884D02*
Y922D01*
X5285*
X5279Y903D02*
X5254D01*
Y3684D02*
Y3722D01*
X5285*
X5279Y3703D02*
X5254D01*
X5304Y784D02*
Y822D01*
X5335*
X5329Y803D02*
X5304D01*
Y3584D02*
Y3622D01*
X5335*
X5329Y3603D02*
X5304D01*
X5354Y884D02*
Y922D01*
X5385*
X5379Y903D02*
X5354D01*
Y3684D02*
Y3722D01*
X5385*
X5379Y3703D02*
X5354D01*
X5404Y784D02*
Y822D01*
X5435*
X5429Y803D02*
X5404D01*
Y3584D02*
Y3622D01*
X5435*
X5429Y3603D02*
X5404D01*
X5454Y884D02*
Y922D01*
X5485*
X5479Y903D02*
X5454D01*
Y3684D02*
Y3722D01*
X5485*
X5479Y3703D02*
X5454D01*
X5526Y550D02*
X5535D01*
Y547*
X5532Y541*
X5529Y538*
X5523Y534*
X5516*
X5510Y538*
X5507Y541*
X5504Y547*
Y559*
X5507Y566*
X5510Y569*
X5516Y572*
X5523*
X5529Y569*
X5532Y566*
X5535Y559*
X5526Y3350D02*
X5535D01*
Y3347*
X5532Y3341*
X5529Y3338*
X5523Y3334*
X5516*
X5510Y3338*
X5507Y3341*
X5504Y3347*
Y3359*
X5507Y3366*
X5510Y3369*
X5516Y3372*
X5523*
X5529Y3369*
X5532Y3366*
X5535Y3359*
X5788Y334D02*
X5801D01*
X5794D02*
Y372D01*
X5788D02*
X5801D01*
X5788Y2534D02*
X5801D01*
X5794D02*
Y2572D01*
X5788D02*
X5801D01*
X5788Y3134D02*
X5801D01*
X5794D02*
Y3172D01*
X5788D02*
X5801D01*
X5788Y5334D02*
X5801D01*
X5794D02*
Y5372D01*
X5788D02*
X5801D01*
X5829Y1984D02*
Y2022D01*
X5848*
X5854Y2019*
X5857Y2016*
X5860Y2009*
Y1997*
X5857Y1991*
X5854Y1988*
X5848Y1984*
X5829*
Y2084D02*
Y2122D01*
X5848*
X5854Y2119*
X5857Y2116*
X5860Y2109*
Y2097*
X5857Y2091*
X5854Y2088*
X5848Y2084*
X5829*
Y2184D02*
Y2222D01*
X5848*
X5854Y2219*
X5857Y2216*
X5860Y2209*
Y2197*
X5857Y2191*
X5854Y2188*
X5848Y2184*
X5829*
Y2284D02*
Y2322D01*
X5848*
X5854Y2319*
X5857Y2316*
X5860Y2309*
Y2297*
X5857Y2291*
X5854Y2288*
X5848Y2284*
X5829*
Y4784D02*
Y4822D01*
X5848*
X5854Y4819*
X5857Y4816*
X5860Y4809*
Y4797*
X5857Y4791*
X5854Y4788*
X5848Y4784*
X5829*
Y4884D02*
Y4922D01*
X5848*
X5854Y4919*
X5857Y4916*
X5860Y4909*
Y4897*
X5857Y4891*
X5854Y4888*
X5848Y4884*
X5829*
Y4984D02*
Y5022D01*
X5848*
X5854Y5019*
X5857Y5016*
X5860Y5009*
Y4997*
X5857Y4991*
X5854Y4988*
X5848Y4984*
X5829*
Y5084D02*
Y5122D01*
X5848*
X5854Y5119*
X5857Y5116*
X5860Y5109*
Y5097*
X5857Y5091*
X5854Y5088*
X5848Y5084*
X5829*
X5913Y966D02*
X5919Y963D01*
X5922Y956*
X5919Y950*
X5913Y947*
X5891*
Y984*
X5913*
X5919Y981*
X5922Y975*
X5919Y969*
X5913Y966*
X5891*
X5913Y3766D02*
X5919Y3763D01*
X5922Y3756*
X5919Y3750*
X5913Y3747*
X5891*
Y3784*
X5913*
X5919Y3781*
X5922Y3775*
X5919Y3769*
X5913Y3766*
X5891*
X6329Y1234D02*
Y1272D01*
X6348*
X6354Y1269*
X6357Y1266*
X6360Y1259*
Y1247*
X6357Y1241*
X6354Y1238*
X6348Y1234*
X6329*
Y1334D02*
Y1372D01*
X6348*
X6354Y1369*
X6357Y1366*
X6360Y1359*
Y1347*
X6357Y1341*
X6354Y1338*
X6348Y1334*
X6329*
Y1434D02*
Y1472D01*
X6348*
X6354Y1469*
X6357Y1466*
X6360Y1459*
Y1447*
X6357Y1441*
X6354Y1438*
X6348Y1434*
X6329*
Y1534D02*
Y1572D01*
X6348*
X6354Y1569*
X6357Y1566*
X6360Y1559*
Y1547*
X6357Y1541*
X6354Y1538*
X6348Y1534*
X6329*
Y1634D02*
Y1672D01*
X6348*
X6354Y1669*
X6357Y1666*
X6360Y1659*
Y1647*
X6357Y1641*
X6354Y1638*
X6348Y1634*
X6329*
Y1734D02*
Y1772D01*
X6348*
X6354Y1769*
X6357Y1766*
X6360Y1759*
Y1747*
X6357Y1741*
X6354Y1738*
X6348Y1734*
X6329*
Y1884D02*
Y1922D01*
X6348*
X6354Y1919*
X6357Y1916*
X6360Y1909*
Y1897*
X6357Y1891*
X6354Y1888*
X6348Y1884*
X6329*
Y1984D02*
Y2022D01*
X6348*
X6354Y2019*
X6357Y2016*
X6360Y2009*
Y1997*
X6357Y1991*
X6354Y1988*
X6348Y1984*
X6329*
Y2084D02*
Y2122D01*
X6348*
X6354Y2119*
X6357Y2116*
X6360Y2109*
Y2097*
X6357Y2091*
X6354Y2088*
X6348Y2084*
X6329*
Y4034D02*
Y4072D01*
X6348*
X6354Y4069*
X6357Y4066*
X6360Y4059*
Y4047*
X6357Y4041*
X6354Y4038*
X6348Y4034*
X6329*
Y4134D02*
Y4172D01*
X6348*
X6354Y4169*
X6357Y4166*
X6360Y4159*
Y4147*
X6357Y4141*
X6354Y4138*
X6348Y4134*
X6329*
Y4234D02*
Y4272D01*
X6348*
X6354Y4269*
X6357Y4266*
X6360Y4259*
Y4247*
X6357Y4241*
X6354Y4238*
X6348Y4234*
X6329*
Y4334D02*
Y4372D01*
X6348*
X6354Y4369*
X6357Y4366*
X6360Y4359*
Y4347*
X6357Y4341*
X6354Y4338*
X6348Y4334*
X6329*
Y4434D02*
Y4472D01*
X6348*
X6354Y4469*
X6357Y4466*
X6360Y4459*
Y4447*
X6357Y4441*
X6354Y4438*
X6348Y4434*
X6329*
Y4534D02*
Y4572D01*
X6348*
X6354Y4569*
X6357Y4566*
X6360Y4559*
Y4547*
X6357Y4541*
X6354Y4538*
X6348Y4534*
X6329*
Y4684D02*
Y4722D01*
X6348*
X6354Y4719*
X6357Y4716*
X6360Y4709*
Y4697*
X6357Y4691*
X6354Y4688*
X6348Y4684*
X6329*
Y4784D02*
Y4822D01*
X6348*
X6354Y4819*
X6357Y4816*
X6360Y4809*
Y4797*
X6357Y4791*
X6354Y4788*
X6348Y4784*
X6329*
Y4884D02*
Y4922D01*
X6348*
X6354Y4919*
X6357Y4916*
X6360Y4909*
Y4897*
X6357Y4891*
X6354Y4888*
X6348Y4884*
X6329*
X6388Y334D02*
X6401D01*
X6394D02*
Y372D01*
X6388D02*
X6401D01*
X6388Y2534D02*
X6401D01*
X6394D02*
Y2572D01*
X6388D02*
X6401D01*
X6388Y3134D02*
X6401D01*
X6394D02*
Y3172D01*
X6388D02*
X6401D01*
X6388Y5334D02*
X6401D01*
X6394D02*
Y5372D01*
X6388D02*
X6401D01*
X6429Y1884D02*
Y1922D01*
X6448*
X6454Y1919*
X6457Y1916*
X6460Y1909*
Y1897*
X6457Y1891*
X6454Y1888*
X6448Y1884*
X6429*
Y1984D02*
Y2022D01*
X6448*
X6454Y2019*
X6457Y2016*
X6460Y2009*
Y1997*
X6457Y1991*
X6454Y1988*
X6448Y1984*
X6429*
Y2084D02*
Y2122D01*
X6448*
X6454Y2119*
X6457Y2116*
X6460Y2109*
Y2097*
X6457Y2091*
X6454Y2088*
X6448Y2084*
X6429*
Y4684D02*
Y4722D01*
X6448*
X6454Y4719*
X6457Y4716*
X6460Y4709*
Y4697*
X6457Y4691*
X6454Y4688*
X6448Y4684*
X6429*
Y4784D02*
Y4822D01*
X6448*
X6454Y4819*
X6457Y4816*
X6460Y4809*
Y4797*
X6457Y4791*
X6454Y4788*
X6448Y4784*
X6429*
Y4884D02*
Y4922D01*
X6448*
X6454Y4919*
X6457Y4916*
X6460Y4909*
Y4897*
X6457Y4891*
X6454Y4888*
X6448Y4884*
X6429*
X6629Y2434D02*
Y2472D01*
X6648*
X6654Y2469*
X6657Y2466*
X6660Y2459*
Y2447*
X6657Y2441*
X6654Y2438*
X6648Y2434*
X6629*
Y5234D02*
Y5272D01*
X6648*
X6654Y5269*
X6657Y5266*
X6660Y5259*
Y5247*
X6657Y5241*
X6654Y5238*
X6648Y5234*
X6629*
X6701Y1303D02*
X6707Y1300D01*
X6710Y1294*
X6707Y1288*
X6701Y1284*
X6679*
Y1322*
X6701*
X6707Y1319*
X6710Y1313*
X6707Y1306*
X6701Y1303*
X6679*
X6701Y4103D02*
X6707Y4100D01*
X6710Y4094*
X6707Y4088*
X6701Y4084*
X6679*
Y4122*
X6701*
X6707Y4119*
X6710Y4113*
X6707Y4106*
X6701Y4103*
X6679*
X6729Y2434D02*
Y2472D01*
X6748*
X6754Y2469*
X6757Y2466*
X6760Y2459*
Y2447*
X6757Y2441*
X6754Y2438*
X6748Y2434*
X6729*
Y5234D02*
Y5272D01*
X6748*
X6754Y5269*
X6757Y5266*
X6760Y5259*
Y5247*
X6757Y5241*
X6754Y5238*
X6748Y5234*
X6729*
X6801Y1403D02*
X6807Y1400D01*
X6810Y1394*
X6807Y1388*
X6801Y1384*
X6779*
Y1422*
X6801*
X6807Y1419*
X6810Y1413*
X6807Y1406*
X6801Y1403*
X6779*
X6801Y1916D02*
X6807Y1913D01*
X6810Y1906*
X6807Y1900*
X6801Y1897*
X6779*
Y1934*
X6801*
X6807Y1931*
X6810Y1925*
X6807Y1919*
X6801Y1916*
X6779*
X6801Y2053D02*
X6807Y2050D01*
X6810Y2044*
X6807Y2038*
X6801Y2034*
X6779*
Y2072*
X6801*
X6807Y2069*
X6810Y2063*
X6807Y2056*
X6801Y2053*
X6779*
X6801Y2303D02*
X6807Y2300D01*
X6810Y2294*
X6807Y2288*
X6801Y2284*
X6779*
Y2322*
X6801*
X6807Y2319*
X6810Y2313*
X6807Y2306*
X6801Y2303*
X6779*
X6801Y4203D02*
X6807Y4200D01*
X6810Y4194*
X6807Y4188*
X6801Y4184*
X6779*
Y4222*
X6801*
X6807Y4219*
X6810Y4213*
X6807Y4206*
X6801Y4203*
X6779*
X6801Y4716D02*
X6807Y4713D01*
X6810Y4706*
X6807Y4700*
X6801Y4697*
X6779*
Y4734*
X6801*
X6807Y4731*
X6810Y4725*
X6807Y4719*
X6801Y4716*
X6779*
X6801Y4853D02*
X6807Y4850D01*
X6810Y4844*
X6807Y4838*
X6801Y4834*
X6779*
Y4872*
X6801*
X6807Y4869*
X6810Y4863*
X6807Y4856*
X6801Y4853*
X6779*
X6801Y5103D02*
X6807Y5100D01*
X6810Y5094*
X6807Y5088*
X6801Y5084*
X6779*
Y5122*
X6801*
X6807Y5119*
X6810Y5113*
X6807Y5106*
X6801Y5103*
X6779*
X6851Y1503D02*
X6857Y1500D01*
X6860Y1494*
X6857Y1488*
X6851Y1484*
X6829*
Y1522*
X6851*
X6857Y1519*
X6860Y1513*
X6857Y1506*
X6851Y1503*
X6829*
Y2434D02*
Y2472D01*
X6848*
X6854Y2469*
X6857Y2466*
X6860Y2459*
Y2447*
X6857Y2441*
X6854Y2438*
X6848Y2434*
X6829*
X6851Y4303D02*
X6857Y4300D01*
X6860Y4294*
X6857Y4288*
X6851Y4284*
X6829*
Y4322*
X6851*
X6857Y4319*
X6860Y4313*
X6857Y4306*
X6851Y4303*
X6829*
Y5234D02*
Y5272D01*
X6848*
X6854Y5269*
X6857Y5266*
X6860Y5259*
Y5247*
X6857Y5241*
X6854Y5238*
X6848Y5234*
X6829*
X6863Y2316D02*
X6869Y2313D01*
X6873Y2306*
X6869Y2300*
X6863Y2297*
X6841*
Y2334*
X6863*
X6869Y2331*
X6873Y2325*
X6869Y2319*
X6863Y2316*
X6841*
X6863Y5116D02*
X6869Y5113D01*
X6873Y5106*
X6869Y5100*
X6863Y5097*
X6841*
Y5134*
X6863*
X6869Y5131*
X6873Y5125*
X6869Y5119*
X6863Y5116*
X6841*
X6951Y1503D02*
X6957Y1500D01*
X6960Y1494*
X6957Y1488*
X6951Y1484*
X6929*
Y1522*
X6951*
X6957Y1519*
X6960Y1513*
X6957Y1506*
X6951Y1503*
X6929*
Y2434D02*
Y2472D01*
X6948*
X6954Y2469*
X6957Y2466*
X6960Y2459*
Y2447*
X6957Y2441*
X6954Y2438*
X6948Y2434*
X6929*
X6951Y4303D02*
X6957Y4300D01*
X6960Y4294*
X6957Y4288*
X6951Y4284*
X6929*
Y4322*
X6951*
X6957Y4319*
X6960Y4313*
X6957Y4306*
X6951Y4303*
X6929*
Y5234D02*
Y5272D01*
X6948*
X6954Y5269*
X6957Y5266*
X6960Y5259*
Y5247*
X6957Y5241*
X6954Y5238*
X6948Y5234*
X6929*
X6963Y2316D02*
X6969Y2313D01*
X6973Y2306*
X6969Y2300*
X6963Y2297*
X6941*
Y2334*
X6963*
X6969Y2331*
X6973Y2325*
X6969Y2319*
X6963Y2316*
X6941*
X6963Y5116D02*
X6969Y5113D01*
X6973Y5106*
X6969Y5100*
X6963Y5097*
X6941*
Y5134*
X6963*
X6969Y5131*
X6973Y5125*
X6969Y5119*
X6963Y5116*
X6941*
X7001Y1603D02*
X7007Y1600D01*
X7010Y1594*
X7007Y1588*
X7001Y1584*
X6979*
Y1622*
X7001*
X7007Y1619*
X7010Y1613*
X7007Y1606*
X7001Y1603*
X6979*
X7001Y4403D02*
X7007Y4400D01*
X7010Y4394*
X7007Y4388*
X7001Y4384*
X6979*
Y4422*
X7001*
X7007Y4419*
X7010Y4413*
X7007Y4406*
X7001Y4403*
X6979*
X7026Y1278D02*
X7032Y1275D01*
X7035Y1269*
X7032Y1263*
X7026Y1259*
X7004*
Y1297*
X7026*
X7032Y1294*
X7035Y1288*
X7032Y1281*
X7026Y1278*
X7004*
X7026Y1541D02*
X7032Y1538D01*
X7035Y1531*
X7032Y1525*
X7026Y1522*
X7004*
Y1559*
X7026*
X7032Y1556*
X7035Y1550*
X7032Y1544*
X7026Y1541*
X7004*
X7026Y4078D02*
X7032Y4075D01*
X7035Y4069*
X7032Y4063*
X7026Y4059*
X7004*
Y4097*
X7026*
X7032Y4094*
X7035Y4088*
X7032Y4081*
X7026Y4078*
X7004*
X7026Y4341D02*
X7032Y4337D01*
X7035Y4331*
X7032Y4325*
X7026Y4322*
X7004*
Y4359*
X7026*
X7032Y4356*
X7035Y4350*
X7032Y4344*
X7026Y4341*
X7004*
X7038Y2516D02*
X7044Y2513D01*
X7048Y2506*
X7044Y2500*
X7038Y2497*
X7016*
Y2534*
X7038*
X7044Y2531*
X7048Y2525*
X7044Y2519*
X7038Y2516*
X7016*
X7038Y5316D02*
X7044Y5312D01*
X7048Y5306*
X7044Y5300*
X7038Y5297*
X7016*
Y5334*
X7038*
X7044Y5331*
X7048Y5325*
X7044Y5319*
X7038Y5316*
X7016*
X7051Y1641D02*
X7057Y1638D01*
X7060Y1631*
X7057Y1625*
X7051Y1622*
X7029*
Y1659*
X7051*
X7057Y1656*
X7060Y1650*
X7057Y1644*
X7051Y1641*
X7029*
X7051Y4441D02*
X7057Y4438D01*
X7060Y4431*
X7057Y4425*
X7051Y4422*
X7029*
Y4459*
X7051*
X7057Y4456*
X7060Y4450*
X7057Y4444*
X7051Y4441*
X7029*
X7101Y2241D02*
X7107Y2238D01*
X7110Y2231*
X7107Y2225*
X7101Y2222*
X7079*
Y2259*
X7101*
X7107Y2256*
X7110Y2250*
X7107Y2244*
X7101Y2241*
X7079*
X7101Y5041D02*
X7107Y5037D01*
X7110Y5031*
X7107Y5025*
X7101Y5022*
X7079*
Y5059*
X7101*
X7107Y5056*
X7110Y5050*
X7107Y5044*
X7101Y5041*
X7079*
X7126Y550D02*
X7135D01*
Y547*
X7132Y541*
X7129Y538*
X7123Y534*
X7116*
X7110Y538*
X7107Y541*
X7104Y547*
Y559*
X7107Y566*
X7110Y569*
X7116Y572*
X7123*
X7129Y569*
X7132Y566*
X7135Y559*
X7126Y3350D02*
X7135D01*
Y3347*
X7132Y3341*
X7129Y3338*
X7123Y3334*
X7116*
X7110Y3338*
X7107Y3341*
X7104Y3347*
Y3359*
X7107Y3366*
X7110Y3369*
X7116Y3372*
X7123*
X7129Y3369*
X7132Y3366*
X7135Y3359*
X7138Y1453D02*
X7144Y1450D01*
X7148Y1444*
X7144Y1438*
X7138Y1434*
X7116*
Y1472*
X7138*
X7144Y1469*
X7148Y1463*
X7144Y1456*
X7138Y1453*
X7116*
X7138Y4253D02*
X7144Y4250D01*
X7148Y4244*
X7144Y4238*
X7138Y4234*
X7116*
Y4272*
X7138*
X7144Y4269*
X7148Y4263*
X7144Y4256*
X7138Y4253*
X7116*
X7154Y784D02*
Y822D01*
X7185*
X7179Y803D02*
X7154D01*
Y3584D02*
Y3622D01*
X7185*
X7179Y3603D02*
X7154D01*
X7204Y884D02*
Y922D01*
X7235*
X7229Y903D02*
X7204D01*
Y3684D02*
Y3722D01*
X7235*
X7229Y3703D02*
X7204D01*
X7254Y784D02*
Y822D01*
X7285*
X7279Y803D02*
X7254D01*
Y3584D02*
Y3622D01*
X7285*
X7279Y3603D02*
X7254D01*
X7288Y2241D02*
X7294Y2238D01*
X7298Y2231*
X7294Y2225*
X7288Y2222*
X7266*
Y2259*
X7288*
X7294Y2256*
X7298Y2250*
X7294Y2244*
X7288Y2241*
X7266*
X7288Y5041D02*
X7294Y5037D01*
X7298Y5031*
X7294Y5025*
X7288Y5022*
X7266*
Y5059*
X7288*
X7294Y5056*
X7298Y5050*
X7294Y5044*
X7288Y5041*
X7266*
X7301Y1828D02*
X7307Y1825D01*
X7310Y1819*
X7307Y1813*
X7301Y1809*
X7279*
Y1847*
X7301*
X7307Y1844*
X7310Y1838*
X7307Y1831*
X7301Y1828*
X7279*
Y2334D02*
Y2372D01*
X7298*
X7304Y2369*
X7307Y2366*
X7310Y2359*
Y2347*
X7307Y2341*
X7304Y2338*
X7298Y2334*
X7279*
Y2434D02*
Y2472D01*
X7298*
X7304Y2469*
X7307Y2466*
X7310Y2459*
Y2447*
X7307Y2441*
X7304Y2438*
X7298Y2434*
X7279*
X7301Y4628D02*
X7307Y4625D01*
X7310Y4619*
X7307Y4613*
X7301Y4609*
X7279*
Y4647*
X7301*
X7307Y4644*
X7310Y4638*
X7307Y4631*
X7301Y4628*
X7279*
Y5134D02*
Y5172D01*
X7298*
X7304Y5169*
X7307Y5166*
X7310Y5159*
Y5147*
X7307Y5141*
X7304Y5138*
X7298Y5134*
X7279*
Y5234D02*
Y5272D01*
X7298*
X7304Y5269*
X7307Y5266*
X7310Y5259*
Y5247*
X7307Y5241*
X7304Y5238*
X7298Y5234*
X7279*
X7304Y884D02*
Y922D01*
X7335*
X7329Y903D02*
X7304D01*
Y3684D02*
Y3722D01*
X7335*
X7329Y3703D02*
X7304D01*
X7376Y466D02*
X7382Y463D01*
X7385Y456*
X7382Y450*
X7376Y447*
X7354*
Y484*
X7376*
X7382Y481*
X7385Y475*
X7382Y469*
X7376Y466*
X7354*
Y784D02*
Y822D01*
X7385*
X7379Y803D02*
X7354D01*
X7376Y3266D02*
X7382Y3263D01*
X7385Y3256*
X7382Y3250*
X7376Y3247*
X7354*
Y3284*
X7376*
X7382Y3281*
X7385Y3275*
X7382Y3269*
X7376Y3266*
X7354*
Y3584D02*
Y3622D01*
X7385*
X7379Y3603D02*
X7354D01*
X7388Y2166D02*
X7394Y2163D01*
X7398Y2156*
X7394Y2150*
X7388Y2147*
X7366*
Y2184*
X7388*
X7394Y2181*
X7398Y2175*
X7394Y2169*
X7388Y2166*
X7366*
X7388Y4966D02*
X7394Y4963D01*
X7398Y4956*
X7394Y4950*
X7388Y4947*
X7366*
Y4984*
X7388*
X7394Y4981*
X7398Y4975*
X7394Y4969*
X7388Y4966*
X7366*
X7379Y2334D02*
Y2372D01*
X7398*
X7404Y2369*
X7407Y2366*
X7410Y2359*
Y2347*
X7407Y2341*
X7404Y2338*
X7398Y2334*
X7379*
Y2434D02*
Y2472D01*
X7398*
X7404Y2469*
X7407Y2466*
X7410Y2459*
Y2447*
X7407Y2441*
X7404Y2438*
X7398Y2434*
X7379*
Y5134D02*
Y5172D01*
X7398*
X7404Y5169*
X7407Y5166*
X7410Y5159*
Y5147*
X7407Y5141*
X7404Y5138*
X7398Y5134*
X7379*
Y5234D02*
Y5272D01*
X7398*
X7404Y5269*
X7407Y5266*
X7410Y5259*
Y5247*
X7407Y5241*
X7404Y5238*
X7398Y5234*
X7379*
X7404Y884D02*
Y922D01*
X7435*
X7429Y903D02*
X7404D01*
Y3684D02*
Y3722D01*
X7435*
X7429Y3703D02*
X7404D01*
X7454Y784D02*
Y822D01*
X7485*
X7479Y803D02*
X7454D01*
X7476Y1191D02*
X7482Y1188D01*
X7485Y1181*
X7482Y1175*
X7476Y1172*
X7454*
Y1209*
X7476*
X7482Y1206*
X7485Y1200*
X7482Y1194*
X7476Y1191*
X7454*
Y3584D02*
Y3622D01*
X7485*
X7479Y3603D02*
X7454D01*
X7476Y3991D02*
X7482Y3988D01*
X7485Y3981*
X7482Y3975*
X7476Y3972*
X7454*
Y4009*
X7476*
X7482Y4006*
X7485Y4000*
X7482Y3994*
X7476Y3991*
X7454*
X7501Y1278D02*
X7507Y1275D01*
X7510Y1269*
X7507Y1263*
X7501Y1259*
X7479*
Y1297*
X7501*
X7507Y1294*
X7510Y1288*
X7507Y1281*
X7501Y1278*
X7479*
Y2334D02*
Y2372D01*
X7498*
X7504Y2369*
X7507Y2366*
X7510Y2359*
Y2347*
X7507Y2341*
X7504Y2338*
X7498Y2334*
X7479*
Y2434D02*
Y2472D01*
X7498*
X7504Y2469*
X7507Y2466*
X7510Y2459*
Y2447*
X7507Y2441*
X7504Y2438*
X7498Y2434*
X7479*
X7501Y4078D02*
X7507Y4075D01*
X7510Y4069*
X7507Y4063*
X7501Y4059*
X7479*
Y4097*
X7501*
X7507Y4094*
X7510Y4088*
X7507Y4081*
X7501Y4078*
X7479*
Y5134D02*
Y5172D01*
X7498*
X7504Y5169*
X7507Y5166*
X7510Y5159*
Y5147*
X7507Y5141*
X7504Y5138*
X7498Y5134*
X7479*
Y5234D02*
Y5272D01*
X7498*
X7504Y5269*
X7507Y5266*
X7510Y5259*
Y5247*
X7507Y5241*
X7504Y5238*
X7498Y5234*
X7479*
X7504Y884D02*
Y922D01*
X7535*
X7529Y903D02*
X7504D01*
X7526Y1591D02*
X7532Y1588D01*
X7535Y1581*
X7532Y1575*
X7526Y1572*
X7504*
Y1609*
X7526*
X7532Y1606*
X7535Y1600*
X7532Y1594*
X7526Y1591*
X7504*
Y3684D02*
Y3722D01*
X7535*
X7529Y3703D02*
X7504D01*
X7526Y4391D02*
X7532Y4388D01*
X7535Y4381*
X7532Y4375*
X7526Y4372*
X7504*
Y4409*
X7526*
X7532Y4406*
X7535Y4400*
X7532Y4394*
X7526Y4391*
X7504*
X7551Y278D02*
X7557Y275D01*
X7560Y269*
X7557Y263*
X7551Y259*
X7529*
Y297*
X7551*
X7557Y294*
X7560Y288*
X7557Y281*
X7551Y278*
X7529*
X7551Y3078D02*
X7557Y3075D01*
X7560Y3069*
X7557Y3063*
X7551Y3059*
X7529*
Y3097*
X7551*
X7557Y3094*
X7560Y3088*
X7557Y3081*
X7551Y3078*
X7529*
X7563Y1253D02*
X7569Y1250D01*
X7573Y1244*
X7569Y1238*
X7563Y1234*
X7541*
Y1272*
X7563*
X7569Y1269*
X7573Y1263*
X7569Y1256*
X7563Y1253*
X7541*
X7563Y1641D02*
X7569Y1638D01*
X7573Y1631*
X7569Y1625*
X7563Y1622*
X7541*
Y1659*
X7563*
X7569Y1656*
X7573Y1650*
X7569Y1644*
X7563Y1641*
X7541*
X7563Y4053D02*
X7569Y4050D01*
X7573Y4044*
X7569Y4038*
X7563Y4034*
X7541*
Y4072*
X7563*
X7569Y4069*
X7573Y4063*
X7569Y4056*
X7563Y4053*
X7541*
X7563Y4441D02*
X7569Y4438D01*
X7573Y4431*
X7569Y4425*
X7563Y4422*
X7541*
Y4459*
X7563*
X7569Y4456*
X7573Y4450*
X7569Y4444*
X7563Y4441*
X7541*
X7576Y550D02*
X7585D01*
Y547*
X7582Y541*
X7579Y538*
X7573Y534*
X7566*
X7560Y538*
X7557Y541*
X7554Y547*
Y559*
X7557Y566*
X7560Y569*
X7566Y572*
X7573*
X7579Y569*
X7582Y566*
X7585Y559*
X7576Y3350D02*
X7585D01*
Y3347*
X7582Y3341*
X7579Y3338*
X7573Y3334*
X7566*
X7560Y3338*
X7557Y3341*
X7554Y3347*
Y3359*
X7557Y3366*
X7560Y3369*
X7566Y3372*
X7573*
X7579Y3369*
X7582Y3366*
X7585Y3359*
X7651Y1728D02*
X7657Y1725D01*
X7660Y1719*
X7657Y1713*
X7651Y1709*
X7629*
Y1747*
X7651*
X7657Y1744*
X7660Y1738*
X7657Y1731*
X7651Y1728*
X7629*
X7651Y4528D02*
X7657Y4525D01*
X7660Y4519*
X7657Y4513*
X7651Y4509*
X7629*
Y4547*
X7651*
X7657Y4544*
X7660Y4538*
X7657Y4531*
X7651Y4528*
X7629*
X7663Y891D02*
X7669Y888D01*
X7673Y881*
X7669Y875*
X7663Y872*
X7641*
Y909*
X7663*
X7669Y906*
X7673Y900*
X7669Y894*
X7663Y891*
X7641*
X7663Y1091D02*
X7669Y1088D01*
X7673Y1081*
X7669Y1075*
X7663Y1072*
X7641*
Y1109*
X7663*
X7669Y1106*
X7673Y1100*
X7669Y1094*
X7663Y1091*
X7641*
X7663Y1303D02*
X7669Y1300D01*
X7673Y1294*
X7669Y1288*
X7663Y1284*
X7641*
Y1322*
X7663*
X7669Y1319*
X7673Y1313*
X7669Y1306*
X7663Y1303*
X7641*
X7663Y3691D02*
X7669Y3688D01*
X7673Y3681*
X7669Y3675*
X7663Y3672*
X7641*
Y3709*
X7663*
X7669Y3706*
X7673Y3700*
X7669Y3694*
X7663Y3691*
X7641*
X7663Y3891D02*
X7669Y3888D01*
X7673Y3881*
X7669Y3875*
X7663Y3872*
X7641*
Y3909*
X7663*
X7669Y3906*
X7673Y3900*
X7669Y3894*
X7663Y3891*
X7641*
X7663Y4103D02*
X7669Y4100D01*
X7673Y4094*
X7669Y4088*
X7663Y4084*
X7641*
Y4122*
X7663*
X7669Y4119*
X7673Y4113*
X7669Y4106*
X7663Y4103*
X7641*
X7670Y1816D02*
X7676Y1813D01*
X7679Y1806*
X7676Y1800*
X7670Y1797*
X7648*
Y1834*
X7670*
X7676Y1831*
X7679Y1825*
X7676Y1819*
X7670Y1816*
X7648*
X7670Y4616D02*
X7676Y4613D01*
X7679Y4606*
X7676Y4600*
X7670Y4597*
X7648*
Y4634*
X7670*
X7676Y4631*
X7679Y4625*
X7676Y4619*
X7670Y4616*
X7648*
X7701Y1253D02*
X7707Y1250D01*
X7710Y1244*
X7707Y1238*
X7701Y1234*
X7679*
Y1272*
X7701*
X7707Y1269*
X7710Y1263*
X7707Y1256*
X7701Y1253*
X7679*
X7701Y4053D02*
X7707Y4050D01*
X7710Y4044*
X7707Y4038*
X7701Y4034*
X7679*
Y4072*
X7701*
X7707Y4069*
X7710Y4063*
X7707Y4056*
X7701Y4053*
X7679*
X7738Y891D02*
X7744Y888D01*
X7748Y881*
X7744Y875*
X7738Y872*
X7716*
Y909*
X7738*
X7744Y906*
X7748Y900*
X7744Y894*
X7738Y891*
X7716*
X7738Y3691D02*
X7744Y3688D01*
X7748Y3681*
X7744Y3675*
X7738Y3672*
X7716*
Y3709*
X7738*
X7744Y3706*
X7748Y3700*
X7744Y3694*
X7738Y3691*
X7716*
X7879Y2434D02*
Y2472D01*
X7898*
X7904Y2469*
X7907Y2466*
X7910Y2459*
Y2447*
X7907Y2441*
X7904Y2438*
X7898Y2434*
X7879*
Y5234D02*
Y5272D01*
X7898*
X7904Y5269*
X7907Y5266*
X7910Y5259*
Y5247*
X7907Y5241*
X7904Y5238*
X7898Y5234*
X7879*
X7913Y1203D02*
X7919Y1200D01*
X7923Y1194*
X7919Y1188*
X7913Y1184*
X7891*
Y1222*
X7913*
X7919Y1219*
X7923Y1213*
X7919Y1206*
X7913Y1203*
X7891*
X7913Y4003D02*
X7919Y4000D01*
X7923Y3994*
X7919Y3988*
X7913Y3984*
X7891*
Y4022*
X7913*
X7919Y4019*
X7923Y4013*
X7919Y4006*
X7913Y4003*
X7891*
X7979Y2434D02*
Y2472D01*
X7998*
X8004Y2469*
X8007Y2466*
X8010Y2459*
Y2447*
X8007Y2441*
X8004Y2438*
X7998Y2434*
X7979*
Y5234D02*
Y5272D01*
X7998*
X8004Y5269*
X8007Y5266*
X8010Y5259*
Y5247*
X8007Y5241*
X8004Y5238*
X7998Y5234*
X7979*
X8013Y2053D02*
X8019Y2050D01*
X8023Y2044*
X8019Y2038*
X8013Y2034*
X7991*
Y2072*
X8013*
X8019Y2069*
X8023Y2063*
X8019Y2056*
X8013Y2053*
X7991*
X8013Y4853D02*
X8019Y4850D01*
X8023Y4844*
X8019Y4838*
X8013Y4834*
X7991*
Y4872*
X8013*
X8019Y4869*
X8023Y4863*
X8019Y4856*
X8013Y4853*
X7991*
X8063Y2291D02*
X8069Y2288D01*
X8073Y2281*
X8069Y2275*
X8063Y2272*
X8041*
Y2309*
X8063*
X8069Y2306*
X8073Y2300*
X8069Y2294*
X8063Y2291*
X8041*
X8063Y5091D02*
X8069Y5088D01*
X8073Y5081*
X8069Y5075*
X8063Y5072*
X8041*
Y5109*
X8063*
X8069Y5106*
X8073Y5100*
X8069Y5094*
X8063Y5091*
X8041*
X8076Y550D02*
X8085D01*
Y547*
X8082Y541*
X8079Y538*
X8073Y534*
X8066*
X8060Y538*
X8057Y541*
X8054Y547*
Y559*
X8057Y566*
X8060Y569*
X8066Y572*
X8073*
X8079Y569*
X8082Y566*
X8085Y559*
X8076Y3350D02*
X8085D01*
Y3347*
X8082Y3341*
X8079Y3338*
X8073Y3334*
X8066*
X8060Y3338*
X8057Y3341*
X8054Y3347*
Y3359*
X8057Y3366*
X8060Y3369*
X8066Y3372*
X8073*
X8079Y3369*
X8082Y3366*
X8085Y3359*
X8079Y2434D02*
Y2472D01*
X8098*
X8104Y2469*
X8107Y2466*
X8110Y2459*
Y2447*
X8107Y2441*
X8104Y2438*
X8098Y2434*
X8079*
Y5234D02*
Y5272D01*
X8098*
X8104Y5269*
X8107Y5266*
X8110Y5259*
Y5247*
X8107Y5241*
X8104Y5238*
X8098Y5234*
X8079*
X8113Y1591D02*
X8119Y1588D01*
X8123Y1581*
X8119Y1575*
X8113Y1572*
X8091*
Y1609*
X8113*
X8119Y1606*
X8123Y1600*
X8119Y1594*
X8113Y1591*
X8091*
X8113Y2353D02*
X8119Y2350D01*
X8123Y2344*
X8119Y2338*
X8113Y2334*
X8091*
Y2372*
X8113*
X8119Y2369*
X8123Y2363*
X8119Y2356*
X8113Y2353*
X8091*
X8113Y4391D02*
X8119Y4388D01*
X8123Y4381*
X8119Y4375*
X8113Y4372*
X8091*
Y4409*
X8113*
X8119Y4406*
X8123Y4400*
X8119Y4394*
X8113Y4391*
X8091*
X8113Y5153D02*
X8119Y5150D01*
X8123Y5144*
X8119Y5138*
X8113Y5134*
X8091*
Y5172*
X8113*
X8119Y5169*
X8123Y5163*
X8119Y5156*
X8113Y5153*
X8091*
X8104Y784D02*
Y822D01*
X8135*
X8129Y803D02*
X8104D01*
Y3584D02*
Y3622D01*
X8135*
X8129Y3603D02*
X8104D01*
X8156Y1878D02*
X8162Y1875D01*
X8165Y1868*
X8162Y1862*
X8156Y1859*
X8134*
Y1896*
X8156*
X8162Y1893*
X8165Y1887*
X8162Y1881*
X8156Y1878*
X8134*
X8156Y4678D02*
X8162Y4674D01*
X8165Y4668*
X8162Y4662*
X8156Y4659*
X8134*
Y4696*
X8156*
X8162Y4693*
X8165Y4687*
X8162Y4681*
X8156Y4678*
X8134*
X8154Y884D02*
Y922D01*
X8185*
X8179Y903D02*
X8154D01*
Y3684D02*
Y3722D01*
X8185*
X8179Y3703D02*
X8154D01*
X8201Y1153D02*
X8207Y1150D01*
X8210Y1144*
X8207Y1138*
X8201Y1134*
X8179*
Y1172*
X8201*
X8207Y1169*
X8210Y1163*
X8207Y1156*
X8201Y1153*
X8179*
Y2434D02*
Y2472D01*
X8198*
X8204Y2469*
X8207Y2466*
X8210Y2459*
Y2447*
X8207Y2441*
X8204Y2438*
X8198Y2434*
X8179*
X8201Y3953D02*
X8207Y3950D01*
X8210Y3944*
X8207Y3938*
X8201Y3934*
X8179*
Y3972*
X8201*
X8207Y3969*
X8210Y3963*
X8207Y3956*
X8201Y3953*
X8179*
Y5234D02*
Y5272D01*
X8198*
X8204Y5269*
X8207Y5266*
X8210Y5259*
Y5247*
X8207Y5241*
X8204Y5238*
X8198Y5234*
X8179*
X8204Y784D02*
Y822D01*
X8235*
X8229Y803D02*
X8204D01*
Y3584D02*
Y3622D01*
X8235*
X8229Y3603D02*
X8204D01*
X8254Y884D02*
Y922D01*
X8285*
X8279Y903D02*
X8254D01*
Y3684D02*
Y3722D01*
X8285*
X8279Y3703D02*
X8254D01*
X8304Y784D02*
Y822D01*
X8335*
X8329Y803D02*
X8304D01*
Y3584D02*
Y3622D01*
X8335*
X8329Y3603D02*
X8304D01*
X8354Y884D02*
Y922D01*
X8385*
X8379Y903D02*
X8354D01*
Y3684D02*
Y3722D01*
X8385*
X8379Y3703D02*
X8354D01*
X8404Y784D02*
Y822D01*
X8435*
X8429Y803D02*
X8404D01*
Y3584D02*
Y3622D01*
X8435*
X8429Y3603D02*
X8404D01*
X8454Y884D02*
Y922D01*
X8485*
X8479Y903D02*
X8454D01*
Y3684D02*
Y3722D01*
X8485*
X8479Y3703D02*
X8454D01*
X8526Y550D02*
X8535D01*
Y547*
X8532Y541*
X8529Y538*
X8523Y534*
X8516*
X8510Y538*
X8507Y541*
X8504Y547*
Y559*
X8507Y566*
X8510Y569*
X8516Y572*
X8523*
X8529Y569*
X8532Y566*
X8535Y559*
X8526Y3350D02*
X8535D01*
Y3347*
X8532Y3341*
X8529Y3338*
X8523Y3334*
X8516*
X8510Y3338*
X8507Y3341*
X8504Y3347*
Y3359*
X8507Y3366*
X8510Y3369*
X8516Y3372*
X8523*
X8529Y3369*
X8532Y3366*
X8535Y3359*
X8788Y334D02*
X8801D01*
X8794D02*
Y372D01*
X8788D02*
X8801D01*
X8788Y2534D02*
X8801D01*
X8794D02*
Y2572D01*
X8788D02*
X8801D01*
X8788Y3134D02*
X8801D01*
X8794D02*
Y3172D01*
X8788D02*
X8801D01*
X8788Y5334D02*
X8801D01*
X8794D02*
Y5372D01*
X8788D02*
X8801D01*
X8829Y1984D02*
Y2022D01*
X8848*
X8854Y2019*
X8857Y2016*
X8860Y2009*
Y1997*
X8857Y1991*
X8854Y1988*
X8848Y1984*
X8829*
Y2084D02*
Y2122D01*
X8848*
X8854Y2119*
X8857Y2116*
X8860Y2109*
Y2097*
X8857Y2091*
X8854Y2088*
X8848Y2084*
X8829*
Y2184D02*
Y2222D01*
X8848*
X8854Y2219*
X8857Y2216*
X8860Y2209*
Y2197*
X8857Y2191*
X8854Y2188*
X8848Y2184*
X8829*
Y2284D02*
Y2322D01*
X8848*
X8854Y2319*
X8857Y2316*
X8860Y2309*
Y2297*
X8857Y2291*
X8854Y2288*
X8848Y2284*
X8829*
Y4784D02*
Y4822D01*
X8848*
X8854Y4819*
X8857Y4816*
X8860Y4809*
Y4797*
X8857Y4791*
X8854Y4788*
X8848Y4784*
X8829*
Y4884D02*
Y4922D01*
X8848*
X8854Y4919*
X8857Y4916*
X8860Y4909*
Y4897*
X8857Y4891*
X8854Y4888*
X8848Y4884*
X8829*
Y4984D02*
Y5022D01*
X8848*
X8854Y5019*
X8857Y5016*
X8860Y5009*
Y4997*
X8857Y4991*
X8854Y4988*
X8848Y4984*
X8829*
Y5084D02*
Y5122D01*
X8848*
X8854Y5119*
X8857Y5116*
X8860Y5109*
Y5097*
X8857Y5091*
X8854Y5088*
X8848Y5084*
X8829*
X8913Y966D02*
X8919Y963D01*
X8923Y956*
X8919Y950*
X8913Y947*
X8891*
Y984*
X8913*
X8919Y981*
X8923Y975*
X8919Y969*
X8913Y966*
X8891*
X8913Y3766D02*
X8919Y3763D01*
X8923Y3756*
X8919Y3750*
X8913Y3747*
X8891*
Y3784*
X8913*
X8919Y3781*
X8923Y3775*
X8919Y3769*
X8913Y3766*
X8891*
X0Y0D02*
M02*
