M48
INCH
T1C00.024
T2C00.035
T3C00.040
T4C00.126
T5C00.128
%
T001
X00579Y01225
X00579Y04025
X00679Y01325
X00679Y01838
X00679Y01975
X00679Y02225
X00679Y04125
X00679Y04638
X00679Y04775
X00679Y05025
X00729Y01425
X00729Y04225
X00741Y02238
X00741Y05038
X00829Y01425
X00829Y04225
X00841Y02238
X00841Y05038
X00879Y01525
X00879Y04325
X00904Y01200
X00904Y01463
X00904Y04000
X00904Y04262
X00916Y02438
X00916Y05237
X00929Y01563
X00929Y04363
X00979Y02163
X00979Y04962
X01016Y01375
X01016Y04175
X01166Y02163
X01166Y04962
X01179Y01750
X01179Y04550
X01254Y00388
X01254Y03188
X01266Y02088
X01266Y04888
X01354Y01113
X01354Y03913
X01379Y01200
X01379Y04000
X01404Y01513
X01404Y04313
X01429Y00200
X01429Y03000
X01441Y01175
X01441Y01563
X01441Y03975
X01441Y04363
X01529Y01650
X01529Y04450
X01541Y00813
X01541Y01013
X01541Y01225
X01541Y03613
X01541Y03813
X01541Y04025
X01548Y01738
X01548Y04538
X01579Y01175
X01579Y03975
X01616Y00813
X01616Y03613
X01791Y01125
X01791Y03925
X01891Y01975
X01891Y04775
X01941Y02213
X01941Y05013
X01991Y01513
X01991Y02275
X01991Y04313
X01991Y05075
X02034Y01800
X02034Y04599
X02079Y01075
X02079Y03875
X02791Y00888
X02791Y03688
X03579Y01225
X03579Y04025
X03679Y01325
X03679Y01838
X03679Y01975
X03679Y02225
X03679Y04125
X03679Y04638
X03679Y04775
X03679Y05025
X03729Y01425
X03729Y04225
X03741Y02238
X03741Y05038
X03829Y01425
X03829Y04225
X03841Y02238
X03841Y05038
X03879Y01525
X03879Y04325
X03904Y01200
X03904Y01463
X03904Y04000
X03904Y04262
X03916Y02438
X03916Y05237
X03929Y01563
X03929Y04363
X03979Y02163
X03979Y04962
X04016Y01375
X04016Y04175
X04166Y02163
X04166Y04962
X04179Y01750
X04179Y04550
X04254Y00388
X04254Y03188
X04266Y02088
X04266Y04888
X04354Y01113
X04354Y03913
X04379Y01200
X04379Y04000
X04404Y01513
X04404Y04313
X04429Y00200
X04429Y03000
X04441Y01175
X04441Y01563
X04441Y03975
X04441Y04363
X04529Y01650
X04529Y04450
X04541Y00813
X04541Y01013
X04541Y01225
X04541Y03613
X04541Y03813
X04541Y04025
X04548Y01738
X04548Y04538
X04579Y01175
X04579Y03975
X04616Y00813
X04616Y03613
X04791Y01125
X04791Y03925
X04891Y01975
X04891Y04775
X04941Y02213
X04941Y05013
X04991Y01513
X04991Y02275
X04991Y04313
X04991Y05075
X05034Y01800
X05034Y04599
X05079Y01075
X05079Y03875
X05791Y00888
X05791Y03688
X06579Y01225
X06579Y04025
X06679Y01325
X06679Y01838
X06679Y01975
X06679Y02225
X06679Y04125
X06679Y04638
X06679Y04775
X06679Y05025
X06729Y01425
X06729Y04225
X06741Y02238
X06741Y05038
X06829Y01425
X06829Y04225
X06841Y02238
X06841Y05038
X06879Y01525
X06879Y04325
X06904Y01200
X06904Y01463
X06904Y04000
X06904Y04262
X06916Y02438
X06916Y05237
X06929Y01563
X06929Y04363
X06979Y02163
X06979Y04962
X07016Y01375
X07016Y04175
X07166Y02163
X07166Y04962
X07179Y01750
X07179Y04550
X07254Y00388
X07254Y03188
X07266Y02088
X07266Y04888
X07354Y01113
X07354Y03913
X07379Y01200
X07379Y04000
X07404Y01513
X07404Y04313
X07429Y00200
X07429Y03000
X07441Y01175
X07441Y01563
X07441Y03975
X07441Y04363
X07529Y01650
X07529Y04450
X07541Y00813
X07541Y01013
X07541Y01225
X07541Y03613
X07541Y03813
X07541Y04025
X07548Y01738
X07548Y04538
X07579Y01175
X07579Y03975
X07616Y00813
X07616Y03613
X07791Y01125
X07791Y03925
X07891Y01975
X07891Y04775
X07941Y02213
X07941Y05013
X07991Y01513
X07991Y02275
X07991Y04313
X07991Y05075
X08034Y01800
X08034Y04599
X08079Y01075
X08079Y03875
X08791Y00888
X08791Y03688
T002
X01054Y00725
X01054Y03525
X01104Y00825
X01104Y03625
X01154Y00725
X01154Y03525
X01204Y00825
X01204Y03625
X01254Y00725
X01254Y03525
X01304Y00825
X01304Y03625
X01354Y00725
X01354Y03525
X01404Y00825
X01404Y03625
X02004Y00725
X02004Y03525
X02054Y00825
X02054Y03625
X02104Y00725
X02104Y03525
X02154Y00825
X02154Y03625
X02204Y00725
X02204Y03525
X02254Y00825
X02254Y03625
X02304Y00725
X02304Y03525
X02354Y00825
X02354Y03625
X04054Y00725
X04054Y03525
X04104Y00825
X04104Y03625
X04154Y00725
X04154Y03525
X04204Y00825
X04204Y03625
X04254Y00725
X04254Y03525
X04304Y00825
X04304Y03625
X04354Y00725
X04354Y03525
X04404Y00825
X04404Y03625
X05004Y00725
X05004Y03525
X05054Y00825
X05054Y03625
X05104Y00725
X05104Y03525
X05154Y00825
X05154Y03625
X05204Y00725
X05204Y03525
X05254Y00825
X05254Y03625
X05304Y00725
X05304Y03525
X05354Y00825
X05354Y03625
X07054Y00725
X07054Y03525
X07104Y00825
X07104Y03625
X07154Y00725
X07154Y03525
X07204Y00825
X07204Y03625
X07254Y00725
X07254Y03525
X07304Y00825
X07304Y03625
X07354Y00725
X07354Y03525
X07404Y00825
X07404Y03625
X08004Y00725
X08004Y03525
X08054Y00825
X08054Y03625
X08104Y00725
X08104Y03525
X08154Y00825
X08154Y03625
X08204Y00725
X08204Y03525
X08254Y00825
X08254Y03625
X08304Y00725
X08304Y03525
X08354Y00825
X08354Y03625
T003
X00229Y01175
X00229Y01275
X00229Y01375
X00229Y01475
X00229Y01575
X00229Y01675
X00229Y01825
X00229Y01925
X00229Y02025
X00229Y03975
X00229Y04075
X00229Y04175
X00229Y04275
X00229Y04375
X00229Y04475
X00229Y04625
X00229Y04725
X00229Y04825
X00329Y01825
X00329Y01925
X00329Y02025
X00329Y04625
X00329Y04725
X00329Y04825
X00529Y02375
X00529Y05175
X00629Y02375
X00629Y05175
X00729Y02375
X00729Y05175
X00829Y02375
X00829Y05175
X01179Y02275
X01179Y02375
X01179Y05075
X01179Y05175
X01279Y02275
X01279Y02375
X01279Y05075
X01279Y05175
X01379Y02275
X01379Y02375
X01379Y05075
X01379Y05175
X01779Y02375
X01779Y05175
X01879Y02375
X01879Y05175
X01979Y02375
X01979Y05175
X02079Y02375
X02079Y05175
X02729Y01925
X02729Y02025
X02729Y02125
X02729Y02225
X02729Y04725
X02729Y04825
X02729Y04925
X02729Y05025
X03229Y01175
X03229Y01275
X03229Y01375
X03229Y01475
X03229Y01575
X03229Y01675
X03229Y01825
X03229Y01925
X03229Y02025
X03229Y03975
X03229Y04075
X03229Y04175
X03229Y04275
X03229Y04375
X03229Y04475
X03229Y04625
X03229Y04725
X03229Y04825
X03329Y01825
X03329Y01925
X03329Y02025
X03329Y04625
X03329Y04725
X03329Y04825
X03529Y02375
X03529Y05175
X03629Y02375
X03629Y05175
X03729Y02375
X03729Y05175
X03829Y02375
X03829Y05175
X04179Y02275
X04179Y02375
X04179Y05075
X04179Y05175
X04279Y02275
X04279Y02375
X04279Y05075
X04279Y05175
X04379Y02275
X04379Y02375
X04379Y05075
X04379Y05175
X04779Y02375
X04779Y05175
X04879Y02375
X04879Y05175
X04979Y02375
X04979Y05175
X05079Y02375
X05079Y05175
X05729Y01925
X05729Y02025
X05729Y02125
X05729Y02225
X05729Y04725
X05729Y04825
X05729Y04925
X05729Y05025
X06229Y01175
X06229Y01275
X06229Y01375
X06229Y01475
X06229Y01575
X06229Y01675
X06229Y01825
X06229Y01925
X06229Y02025
X06229Y03975
X06229Y04075
X06229Y04175
X06229Y04275
X06229Y04375
X06229Y04475
X06229Y04625
X06229Y04725
X06229Y04825
X06329Y01825
X06329Y01925
X06329Y02025
X06329Y04625
X06329Y04725
X06329Y04825
X06529Y02375
X06529Y05175
X06629Y02375
X06629Y05175
X06729Y02375
X06729Y05175
X06829Y02375
X06829Y05175
X07179Y02275
X07179Y02375
X07179Y05075
X07179Y05175
X07279Y02275
X07279Y02375
X07279Y05075
X07279Y05175
X07379Y02275
X07379Y02375
X07379Y05075
X07379Y05175
X07779Y02375
X07779Y05175
X07879Y02375
X07879Y05175
X07979Y02375
X07979Y05175
X08079Y02375
X08079Y05175
X08729Y01925
X08729Y02025
X08729Y02125
X08729Y02225
X08729Y04725
X08729Y04825
X08729Y04925
X08729Y05025
T004
X00279Y00275
X00279Y02475
X00279Y03075
X00279Y05275
X02679Y00275
X02679Y02475
X02679Y03075
X02679Y05275
X03279Y00275
X03279Y02475
X03279Y03075
X03279Y05275
X05679Y00275
X05679Y02475
X05679Y03075
X05679Y05275
X06279Y00275
X06279Y02475
X06279Y03075
X06279Y05275
X08679Y00275
X08679Y02475
X08679Y03075
X08679Y05275
T005
X01004Y00475
X01004Y03275
X01454Y00475
X01454Y03275
X01954Y00475
X01954Y03275
X02404Y00475
X02404Y03275
X04004Y00475
X04004Y03275
X04454Y00475
X04454Y03275
X04954Y00475
X04954Y03275
X05404Y00475
X05404Y03275
X07004Y00475
X07004Y03275
X07454Y00475
X07454Y03275
X07954Y00475
X07954Y03275
X08404Y00475
X08404Y03275
M30
