%FSLAX23Y23*%
%MOIN*%
G04 EasyPC Gerber Version 14.0.2 Build 2922 *
%AMT107*0 Octagon Pad at angle 0*4,1,8,-0.00828,-0.02000,0.00828,-0.02000,0.02000,-0.00828,0.02000,0.00828,0.00828,0.02000,-0.00828,0.02000,-0.02000,0.00828,-0.02000,-0.00828,-0.00828,-0.02000,0*%
%ADD107T107*%
%AMT103*0 Octagon Pad at angle 0*4,1,8,-0.01243,-0.03000,0.01243,-0.03000,0.03000,-0.01243,0.03000,0.01243,0.01243,0.03000,-0.01243,0.03000,-0.03000,0.01243,-0.03000,-0.01243,-0.01243,-0.03000,0*%
%ADD103T103*%
%AMT105*0 Octagon Pad at angle 0*4,1,8,-0.01450,-0.03500,0.01450,-0.03500,0.03500,-0.01450,0.03500,0.01450,0.01450,0.03500,-0.01450,0.03500,-0.03500,0.01450,-0.03500,-0.01450,-0.01450,-0.03500,0*%
%ADD105T105*%
%ADD101R,0.06378X0.08583*%
%ADD106R,0.05906X0.05118*%
%ADD102R,0.06000X0.06000*%
%ADD104R,0.07000X0.07000*%
%ADD108R,0.16598X0.16598*%
%ADD98C,0.00800*%
%ADD96C,0.01000*%
%ADD97C,0.01600*%
%ADD95C,0.03200*%
%ADD99C,0.05543*%
%ADD100C,0.13595*%
X0Y0D02*
D02*
D95*
X79Y2675D02*
Y75D01*
X2879*
Y2675*
X79*
X165Y161D02*
Y389D01*
X393*
Y161*
X165*
Y2361D02*
Y2589D01*
X393*
Y2361*
X165*
X181Y1614D02*
X168D01*
Y1736*
X182*
G75*
G02X180Y1738I21J26*
G01*
X142Y1776*
G75*
G02X132Y1800I24J24*
G01*
Y2240*
G75*
G02X142Y2264I34J0*
G01*
X215Y2337*
G75*
G02X239Y2347I24J-24*
G01*
X471*
X468Y2350*
Y2400*
X503Y2436*
X542*
X567Y2462*
G75*
G02X591Y2472I24J-24*
G01*
X885*
X897Y2483*
X935*
X947Y2472*
X1316*
G75*
G02X1340Y2462I0J-34*
G01*
X1371Y2431*
X1402*
X1435Y2398*
Y2352*
X1408Y2325*
X1435Y2298*
Y2252*
X1402Y2219*
X1371*
X1340Y2188*
G75*
G02X1316Y2179I-24J24*
G01*
X1230*
X1212Y2160*
Y2143*
X1190Y2122*
X1235*
X1247Y2134*
X1285*
X1297Y2122*
X1729*
G75*
G02X1748Y2115I0J-34*
G01*
X1885Y2021*
X1910*
X1937Y1994*
X1957Y2014*
Y2167*
X1922*
X1895Y2193*
Y2210*
X1792Y2314*
X1718*
Y2436*
X1840*
Y2422*
X1853Y2436*
X1904*
X1925Y2415*
X1951Y2441*
X1986*
G75*
G02X2096Y2438I55J-4*
G01*
G75*
G02X2096Y2436I-55J0*
G01*
X2104*
X2123Y2417*
X2279*
G75*
G02X2308Y2405I0J-42*
G01*
X2663Y2050*
Y2052*
X2689Y2079*
X2668Y2100*
Y2150*
X2689Y2171*
X2663Y2198*
Y2252*
X2701Y2291*
X2756*
X2795Y2252*
Y2198*
X2769Y2171*
X2790Y2150*
Y2100*
X2769Y2079*
X2795Y2052*
Y1998*
X2783Y1986*
X2790*
Y1864*
X2668*
Y1927*
X2655Y1939*
X2247Y1532*
G75*
G02X2216Y1519I-31J31*
G01*
X2106*
G75*
G02X2075Y1532J44*
G01*
X2000Y1606*
X1941*
X1913Y1578*
X1881Y1547*
X1960*
X1972Y1559*
X2010*
X2037Y1532*
Y1493*
X2010Y1466*
X1972*
X1960Y1479*
X1435*
X1423Y1466*
X1385*
X1358Y1493*
Y1532*
X1385Y1559*
X1386*
X1219Y1725*
X1213Y1719*
Y1464*
X1243Y1434*
X1808*
G75*
G02X1832Y1424I0J-34*
G01*
X1903Y1353*
G75*
G02X1913Y1329I-24J-24*
G01*
Y1124*
X1928Y1109*
X2048*
X2060Y1121*
X2098*
X2125Y1094*
Y1056*
X2098Y1029*
X2060*
X2048Y1041*
X1914*
G75*
G02X1890Y1051I0J34*
G01*
X1855Y1086*
G75*
G02X1845Y1110I24J24*
G01*
Y1315*
X1794Y1366*
X1229*
G75*
G02X1205Y1376I0J34*
G01*
X1155Y1426*
G75*
G02X1145Y1450I24J24*
G01*
Y1719*
X1133Y1731*
Y1769*
X1154Y1790*
X1053Y1891*
X1008*
X1040Y1859*
G75*
G02X1050Y1834I-24J-24*
G01*
Y1500*
G75*
G02X1040Y1476I-34J0*
G01*
X953Y1388*
G75*
G02X929Y1379I-24J24*
G01*
X841*
G75*
G02X835Y1379J34*
G01*
X810*
X783Y1406*
Y1441*
X775*
Y1406*
X748Y1379*
X731*
X710Y1358*
X725Y1344*
Y1306*
X698Y1279*
X681*
X653Y1251*
G75*
G02X630Y1241I-24J24*
G01*
Y1204*
X600Y1174*
X558*
X528Y1204*
Y1241*
X281*
X269Y1229*
X295Y1202*
Y1148*
X256Y1109*
X201*
X163Y1148*
Y1202*
X189Y1229*
X168Y1250*
Y1300*
X192Y1325*
X168Y1350*
Y1400*
X192Y1425*
X168Y1450*
Y1500*
X192Y1525*
X168Y1550*
Y1600*
X181Y1614*
X868Y1171D02*
X858Y1181D01*
Y1219*
X885Y1246*
X923*
X950Y1219*
Y1181*
X939Y1171*
Y543*
G75*
G02X1098Y475I64J-68*
G01*
G75*
G02X927Y421I-94*
G01*
Y320*
X986Y261*
X1088*
Y369*
X1107*
Y591*
X1066*
G75*
G02X1042Y601I0J34*
G01*
X967Y676*
G75*
G02X957Y700I24J24*
G01*
Y888*
G75*
G02X991Y922I34*
G01*
X1131*
G75*
G02X1152I11J-34*
G01*
X1531*
G75*
G02X1552I11J-34*
G01*
X2091*
G75*
G02X2115Y912I0J-34*
G01*
X2148Y878*
G75*
G02X2204Y845I5J-53*
G01*
G75*
G02X2301Y851I50J-20*
G01*
G75*
G02X2412Y825I53J-26*
G01*
G75*
G02X2333Y770I-59*
G01*
G75*
G02X2345Y759I-29J-45*
G01*
X2591*
X2745Y893*
Y907*
X2772Y934*
X2810*
X2837Y907*
Y868*
X2810Y842*
X2790*
X2626Y699*
G75*
G02X2604Y691I-22J26*
G01*
X2345*
G75*
G02X2302Y671I-42J34*
G01*
Y368*
X2319*
Y278*
X2558*
G75*
G02X2565Y277I0J-26*
G01*
Y389*
X2793*
Y161*
X2565*
Y171*
G75*
G02X2558Y170I-7J25*
G01*
X2310*
G75*
G02X2284Y196J26*
G01*
Y231*
X2255*
X2219Y180*
G75*
G02X2191Y166I-28J20*
G01*
X1460*
X1448Y154*
X1410*
X1383Y181*
Y219*
X1410Y246*
X1448*
X1460Y234*
X2037*
Y265*
X1370*
Y231*
X1286*
X1254Y200*
G75*
G02X1229Y189I-25J25*
G01*
X971*
G75*
G02X946Y200I0J36*
G01*
X866Y280*
G75*
G02X856Y305I25J25*
G01*
Y525*
G75*
G02X866Y550I36J0*
G01*
X868Y552*
Y1171*
X1014Y1329D02*
X997D01*
X970Y1356*
Y1394*
X997Y1421*
X1035*
X1062Y1394*
Y1377*
X1308Y1132*
X1335Y1159*
X1355*
X1333Y1181*
Y1219*
X1360Y1246*
X1377*
X1380Y1249*
G75*
G02X1404Y1259I24J-24*
G01*
X1510*
X1522Y1271*
X1560*
X1587Y1244*
Y1221*
X1598*
X1625Y1194*
Y1156*
X1615Y1147*
X1748*
X1772Y1171*
X1810*
X1837Y1144*
Y1106*
X1810Y1079*
X1785*
G75*
G02X1779Y1079I-6J34*
G01*
X1385*
X1373Y1067*
X1393Y1047*
X1510*
X1522Y1059*
X1560*
X1587Y1032*
Y993*
X1560Y967*
X1522*
X1510Y979*
X1379*
G75*
G02X1355Y988I0J34*
G01*
X1014Y1329*
X2310Y475D02*
G75*
G02X2498I94D01*
G01*
G75*
G02X2310I-94*
G01*
X2565Y2361D02*
Y2589D01*
X2793*
Y2361*
X2565*
X79Y275D02*
G36*
Y75D01*
X2879*
Y275*
X2793*
Y161*
X2565*
Y171*
G75*
G02X2558Y170I-7J25*
G01*
X2310*
G75*
G02X2284Y196J26*
G01*
Y231*
X2255*
X2219Y180*
G75*
G02X2191Y166I-28J20*
G01*
X1460*
X1448Y154*
X1410*
X1383Y181*
Y219*
X1410Y246*
X1448*
X1460Y234*
X2037*
Y265*
X1370*
Y231*
X1286*
X1254Y200*
G75*
G02X1229Y189I-25J25*
G01*
X971*
G75*
G02X946Y200I0J36*
G01*
X871Y275*
X393*
Y161*
X165*
Y275*
X79*
G37*
X165D02*
G36*
Y389D01*
X393*
Y275*
X871*
X866Y280*
G75*
G02X856Y305I25J25*
G01*
Y475*
X79*
Y275*
X165*
G37*
X2879D02*
G36*
Y475D01*
X2498*
G75*
G02X2310I-94*
G01*
X2302*
Y368*
X2319*
Y278*
X2558*
G75*
G02X2565Y277I0J-26*
G01*
Y389*
X2793*
Y275*
X2879*
G37*
X79Y2475D02*
G36*
Y1194D01*
X163*
Y1202*
X189Y1229*
X168Y1250*
Y1300*
X192Y1325*
X168Y1350*
Y1400*
X192Y1425*
X168Y1450*
Y1500*
X192Y1525*
X168Y1550*
Y1600*
X181Y1614*
X168*
Y1736*
X182*
G75*
G02X180Y1738I21J26*
G01*
X142Y1776*
G75*
G02X132Y1800I24J24*
G01*
Y2240*
G75*
G02X142Y2264I34J0*
G01*
X215Y2337*
G75*
G02X239Y2347I24J-24*
G01*
X471*
X468Y2350*
Y2400*
X503Y2436*
X542*
X567Y2462*
G75*
G02X591Y2472I24J-24*
G01*
X885*
X889Y2475*
X393*
Y2361*
X165*
Y2475*
X79*
G37*
X165D02*
G36*
Y2589D01*
X393*
Y2475*
X889*
X897Y2483*
X935*
X947Y2472*
X1316*
G75*
G02X1340Y2462I0J-34*
G01*
X1371Y2431*
X1402*
X1435Y2398*
Y2352*
X1408Y2325*
X1435Y2298*
Y2252*
X1402Y2219*
X1371*
X1340Y2188*
G75*
G02X1316Y2179I-24J24*
G01*
X1230*
X1212Y2160*
Y2143*
X1190Y2122*
X1235*
X1247Y2134*
X1285*
X1297Y2122*
X1729*
G75*
G02X1748Y2115I0J-34*
G01*
X1885Y2021*
X1910*
X1937Y1994*
X1957Y2014*
Y2167*
X1922*
X1895Y2193*
Y2210*
X1792Y2314*
X1718*
Y2436*
X1840*
Y2422*
X1853Y2436*
X1904*
X1925Y2415*
X1951Y2441*
X1986*
G75*
G02X2081Y2475I55J-4*
G01*
X2565*
Y2589*
X2793*
Y2475*
X2879*
Y2675*
X79*
Y2475*
X165*
G37*
X2081D02*
G36*
G75*
G02X2096Y2438I-40J-37D01*
G01*
G75*
G02X2096Y2436I-55J0*
G01*
X2104*
X2123Y2417*
X2279*
G75*
G02X2308Y2405I0J-42*
G01*
X2663Y2050*
Y2052*
X2689Y2079*
X2668Y2100*
Y2150*
X2689Y2171*
X2663Y2198*
Y2252*
X2701Y2291*
X2756*
X2795Y2252*
Y2198*
X2769Y2171*
X2790Y2150*
Y2100*
X2769Y2079*
X2795Y2052*
Y1998*
X2783Y1986*
X2790*
Y1864*
X2668*
Y1927*
X2655Y1939*
X2247Y1532*
G75*
G02X2216Y1519I-31J31*
G01*
X2106*
G75*
G02X2075Y1532J44*
G01*
X2000Y1606*
X1941*
X1913Y1578*
X1881Y1547*
X1960*
X1972Y1559*
X2010*
X2037Y1532*
Y1493*
X2010Y1466*
X1972*
X1960Y1479*
X1435*
X1423Y1466*
X1385*
X1358Y1493*
Y1532*
X1385Y1559*
X1386*
X1219Y1725*
X1213Y1719*
Y1464*
X1243Y1434*
X1808*
G75*
G02X1832Y1424I0J-34*
G01*
X1903Y1353*
G75*
G02X1913Y1329I-24J-24*
G01*
Y1194*
X2879*
Y2475*
X2793*
Y2361*
X2565*
Y2475*
X2081*
G37*
X79Y1194D02*
G36*
Y475D01*
X856*
Y525*
G75*
G02X866Y550I36J0*
G01*
X868Y552*
Y1171*
X858Y1181*
Y1194*
X620*
X600Y1174*
X558*
X528Y1204*
Y1241*
X281*
X269Y1229*
X295Y1202*
Y1148*
X256Y1109*
X201*
X163Y1148*
Y1194*
X79*
G37*
X858D02*
G36*
Y1219D01*
X885Y1246*
X923*
X950Y1219*
Y1194*
X1149*
X1014Y1329*
X997*
X970Y1356*
Y1394*
X997Y1421*
X1035*
X1062Y1394*
Y1377*
X1308Y1132*
X1335Y1159*
X1355*
X1333Y1181*
Y1219*
X1360Y1246*
X1377*
X1380Y1249*
G75*
G02X1404Y1259I24J-24*
G01*
X1510*
X1522Y1271*
X1560*
X1587Y1244*
Y1221*
X1598*
X1625Y1194*
Y1194*
X1845*
Y1315*
X1794Y1366*
X1229*
G75*
G02X1205Y1376I0J34*
G01*
X1155Y1426*
G75*
G02X1145Y1450I24J24*
G01*
Y1719*
X1133Y1731*
Y1769*
X1154Y1790*
X1053Y1891*
X1008*
X1040Y1859*
G75*
G02X1050Y1834I-24J-24*
G01*
Y1500*
G75*
G02X1040Y1476I-34J0*
G01*
X953Y1388*
G75*
G02X929Y1379I-24J24*
G01*
X841*
G75*
G02X835Y1379J34*
G01*
X810*
X783Y1406*
Y1441*
X775*
Y1406*
X748Y1379*
X731*
X710Y1358*
X725Y1344*
Y1306*
X698Y1279*
X681*
X653Y1251*
G75*
G02X630Y1241I-24J24*
G01*
Y1204*
X620Y1194*
X858*
G37*
X950D02*
G36*
Y1181D01*
X939Y1171*
Y543*
G75*
G02X1098Y475I64J-68*
G01*
G75*
G02X927Y421I-94*
G01*
Y320*
X986Y261*
X1088*
Y369*
X1107*
Y591*
X1066*
G75*
G02X1042Y601I0J34*
G01*
X967Y676*
G75*
G02X957Y700I24J24*
G01*
Y888*
G75*
G02X991Y922I34*
G01*
X1131*
G75*
G02X1152I11J-34*
G01*
X1531*
G75*
G02X1552I11J-34*
G01*
X2091*
G75*
G02X2115Y912I0J-34*
G01*
X2148Y878*
G75*
G02X2204Y845I5J-53*
G01*
G75*
G02X2301Y851I50J-20*
G01*
G75*
G02X2412Y825I53J-26*
G01*
G75*
G02X2333Y770I-59*
G01*
G75*
G02X2345Y759I-29J-45*
G01*
X2591*
X2745Y893*
Y907*
X2772Y934*
X2810*
X2837Y907*
Y868*
X2810Y842*
X2790*
X2626Y699*
G75*
G02X2604Y691I-22J26*
G01*
X2345*
G75*
G02X2302Y671I-42J34*
G01*
Y475*
X2310*
G75*
G02X2498I94*
G01*
X2879*
Y1194*
X1913*
Y1124*
X1928Y1109*
X2048*
X2060Y1121*
X2098*
X2125Y1094*
Y1056*
X2098Y1029*
X2060*
X2048Y1041*
X1914*
G75*
G02X1890Y1051I0J34*
G01*
X1855Y1086*
G75*
G02X1845Y1110I24J24*
G01*
Y1194*
X1625*
Y1156*
X1615Y1147*
X1748*
X1772Y1171*
X1810*
X1837Y1144*
Y1106*
X1810Y1079*
X1785*
G75*
G02X1779Y1079I-6J34*
G01*
X1385*
X1373Y1067*
X1393Y1047*
X1510*
X1522Y1059*
X1560*
X1587Y1032*
Y993*
X1560Y967*
X1522*
X1510Y979*
X1379*
G75*
G02X1355Y988I0J34*
G01*
X1149Y1194*
X950*
G37*
X79Y5475D02*
Y2875D01*
X2879*
Y5475*
X79*
X165Y2961D02*
Y3189D01*
X393*
Y2961*
X165*
Y5161D02*
Y5389D01*
X393*
Y5161*
X165*
X180Y4536D02*
G75*
G02X179Y4537I24J27D01*
G01*
X141Y4575*
G75*
G02X131Y4600I25J25*
G01*
Y5040*
G75*
G02X141Y5065I36*
G01*
X214Y5138*
G75*
G02X239Y5148I25J-25*
G01*
X469*
X468Y5150*
Y5200*
X503Y5236*
X539*
X566Y5263*
G75*
G02X591Y5273I25J-25*
G01*
X887*
X897Y5283*
X935*
X946Y5273*
X1316*
G75*
G02X1341Y5263I0J-36*
G01*
X1373Y5231*
X1402*
X1435Y5198*
Y5152*
X1408Y5125*
X1435Y5098*
Y5052*
X1402Y5019*
X1373*
X1341Y4987*
G75*
G02X1316Y4977I-25J25*
G01*
X1231*
X1212Y4958*
Y4943*
X1192Y4923*
X1237*
X1247Y4934*
X1285*
X1297Y4922*
X1729*
G75*
G02X1748Y4915J-34*
G01*
X1885Y4821*
X1910*
X1937Y4794*
X1957Y4814*
Y4967*
X1922*
X1895Y4993*
Y5008*
X1789Y5114*
X1718*
Y5236*
X1840*
Y5222*
X1853Y5236*
X1904*
X1925Y5215*
X1951Y5241*
X1986*
G75*
G02X2096Y5237I55J-4*
G01*
G75*
G02X2096Y5236I-55J0*
G01*
X2104*
X2123Y5217*
X2279*
G75*
G02X2308Y5205I0J-42*
G01*
X2663Y4850*
Y4852*
X2689Y4879*
X2668Y4900*
Y4950*
X2689Y4971*
X2663Y4998*
Y5052*
X2701Y5091*
X2756*
X2795Y5052*
Y4998*
X2769Y4971*
X2790Y4950*
Y4900*
X2769Y4879*
X2795Y4852*
Y4798*
X2783Y4786*
X2790*
Y4664*
X2668*
Y4727*
X2655Y4739*
X2247Y4332*
G75*
G02X2216Y4319I-31J31*
G01*
X2106*
G75*
G02X2075Y4332J44*
G01*
X2000Y4406*
X1941*
X1913Y4378*
X1881Y4347*
X1960*
X1972Y4359*
X2010*
X2037Y4332*
Y4293*
X2010Y4267*
X1972*
X1960Y4279*
X1435*
X1423Y4267*
X1385*
X1358Y4293*
Y4332*
X1384Y4358*
X1218Y4524*
X1213Y4519*
Y4264*
X1243Y4234*
X1808*
G75*
G02X1832Y4224I0J-34*
G01*
X1903Y4153*
G75*
G02X1913Y4129I-24J-24*
G01*
Y3924*
X1928Y3909*
X2048*
X2060Y3921*
X2098*
X2125Y3894*
Y3856*
X2098Y3829*
X2060*
X2048Y3841*
X1914*
G75*
G02X1890Y3851I0J34*
G01*
X1855Y3886*
G75*
G02X1845Y3910I24J24*
G01*
Y4115*
X1794Y4166*
X1229*
G75*
G02X1205Y4176I0J34*
G01*
X1155Y4226*
G75*
G02X1145Y4250I24J24*
G01*
Y4519*
X1133Y4531*
Y4569*
X1153Y4589*
X1051Y4691*
X1010*
X1041Y4660*
G75*
G02X1052Y4634I-25J-25*
G01*
Y4300*
G75*
G02X1041Y4275I-36*
G01*
X954Y4187*
G75*
G02X929Y4177I-25J25*
G01*
X841*
G75*
G02X829Y4179J36*
G01*
X810*
X783Y4206*
Y4241*
X775*
Y4206*
X748Y4179*
X731*
X710Y4158*
X725Y4144*
Y4106*
X698Y4079*
X681*
X653Y4051*
G75*
G02X630Y4041I-24J24*
G01*
Y4004*
X600Y3974*
X558*
X528Y4004*
Y4041*
X281*
X269Y4029*
X295Y4002*
Y3948*
X256Y3909*
X201*
X163Y3948*
Y4002*
X189Y4029*
X168Y4050*
Y4100*
X192Y4125*
X168Y4150*
Y4200*
X192Y4225*
X168Y4250*
Y4300*
X192Y4325*
X168Y4350*
Y4400*
X181Y4414*
X168*
Y4536*
X180*
X868Y3971D02*
X858Y3981D01*
Y4019*
X885Y4046*
X923*
X950Y4019*
Y3981*
X939Y3971*
Y3343*
G75*
G02X1098Y3275I64J-68*
G01*
G75*
G02X927Y3221I-94*
G01*
Y3120*
X986Y3061*
X1088*
Y3169*
X1107*
Y3391*
X1066*
G75*
G02X1042Y3401I0J34*
G01*
X967Y3476*
G75*
G02X957Y3500I24J24*
G01*
Y3688*
G75*
G02X991Y3722I34*
G01*
X1131*
G75*
G02X1152I11J-34*
G01*
X1531*
G75*
G02X1552I11J-34*
G01*
X2091*
G75*
G02X2115Y3712I0J-34*
G01*
X2148Y3678*
G75*
G02X2204Y3645I5J-53*
G01*
G75*
G02X2301Y3651I50J-20*
G01*
G75*
G02X2412Y3625I53J-26*
G01*
G75*
G02X2333Y3570I-59*
G01*
G75*
G02X2345Y3559I-29J-45*
G01*
X2591*
X2745Y3693*
Y3707*
X2772Y3734*
X2810*
X2837Y3707*
Y3668*
X2810Y3642*
X2790*
X2626Y3499*
G75*
G02X2604Y3491I-22J26*
G01*
X2345*
G75*
G02X2302Y3471I-42J34*
G01*
Y3168*
X2319*
Y3078*
X2558*
G75*
G02X2565Y3077I0J-26*
G01*
Y3189*
X2793*
Y2961*
X2565*
Y2971*
G75*
G02X2558Y2970I-7J25*
G01*
X2310*
G75*
G02X2284Y2996J26*
G01*
Y3031*
X2255*
X2219Y2980*
G75*
G02X2191Y2966I-28J20*
G01*
X1460*
X1448Y2954*
X1410*
X1383Y2981*
Y3019*
X1410Y3046*
X1448*
X1460Y3034*
X2037*
Y3065*
X1370*
Y3031*
X1286*
X1254Y3000*
G75*
G02X1229Y2989I-25J25*
G01*
X971*
G75*
G02X946Y3000I0J36*
G01*
X866Y3080*
G75*
G02X856Y3105I25J25*
G01*
Y3325*
G75*
G02X866Y3350I36J0*
G01*
X868Y3352*
Y3971*
X1014Y4129D02*
X997D01*
X970Y4156*
Y4194*
X997Y4221*
X1035*
X1062Y4194*
Y4177*
X1308Y3932*
X1335Y3959*
X1355*
X1333Y3981*
Y4019*
X1360Y4046*
X1377*
X1380Y4049*
G75*
G02X1404Y4059I24J-24*
G01*
X1510*
X1522Y4071*
X1560*
X1587Y4044*
Y4021*
X1598*
X1625Y3994*
Y3956*
X1615Y3947*
X1748*
X1772Y3971*
X1810*
X1837Y3944*
Y3906*
X1810Y3879*
X1785*
G75*
G02X1779Y3878I-6J34*
G01*
X1385*
X1373Y3867*
X1393Y3847*
X1510*
X1522Y3859*
X1560*
X1587Y3832*
Y3793*
X1560Y3767*
X1522*
X1510Y3779*
X1379*
G75*
G02X1355Y3788I0J34*
G01*
X1014Y4129*
X2310Y3275D02*
G75*
G02X2498I94D01*
G01*
G75*
G02X2310I-94*
G01*
X2565Y5161D02*
Y5389D01*
X2793*
Y5161*
X2565*
X79Y3075D02*
G36*
Y2875D01*
X2879*
Y3075*
X2793*
Y2961*
X2565*
Y2971*
G75*
G02X2558Y2970I-7J25*
G01*
X2310*
G75*
G02X2284Y2996J26*
G01*
Y3031*
X2255*
X2219Y2980*
G75*
G02X2191Y2966I-28J20*
G01*
X1460*
X1448Y2954*
X1410*
X1383Y2981*
Y3019*
X1410Y3046*
X1448*
X1460Y3034*
X2037*
Y3065*
X1370*
Y3031*
X1286*
X1254Y3000*
G75*
G02X1229Y2989I-25J25*
G01*
X971*
G75*
G02X946Y3000I0J36*
G01*
X871Y3075*
X393*
Y2961*
X165*
Y3075*
X79*
G37*
X165D02*
G36*
Y3189D01*
X393*
Y3075*
X871*
X866Y3080*
G75*
G02X856Y3105I25J25*
G01*
Y3275*
X79*
Y3075*
X165*
G37*
X2879D02*
G36*
Y3275D01*
X2498*
G75*
G02X2310I-94*
G01*
X2302*
Y3168*
X2319*
Y3078*
X2558*
G75*
G02X2565Y3077I0J-26*
G01*
Y3189*
X2793*
Y3075*
X2879*
G37*
X79Y5275D02*
G36*
Y3994D01*
X163*
Y4002*
X189Y4029*
X168Y4050*
Y4100*
X192Y4125*
X168Y4150*
Y4200*
X192Y4225*
X168Y4250*
Y4300*
X192Y4325*
X168Y4350*
Y4400*
X181Y4414*
X168*
Y4536*
X180*
G75*
G02X179Y4537I24J27*
G01*
X141Y4575*
G75*
G02X131Y4600I25J25*
G01*
Y5040*
G75*
G02X141Y5065I36*
G01*
X214Y5138*
G75*
G02X239Y5148I25J-25*
G01*
X469*
X468Y5150*
Y5200*
X503Y5236*
X539*
X566Y5263*
G75*
G02X591Y5273I25J-25*
G01*
X887*
X889Y5275*
X393*
Y5161*
X165*
Y5275*
X79*
G37*
X165D02*
G36*
Y5389D01*
X393*
Y5275*
X889*
X897Y5283*
X935*
X946Y5273*
X1316*
G75*
G02X1341Y5263I0J-36*
G01*
X1373Y5231*
X1402*
X1435Y5198*
Y5152*
X1408Y5125*
X1435Y5098*
Y5052*
X1402Y5019*
X1373*
X1341Y4987*
G75*
G02X1316Y4977I-25J25*
G01*
X1231*
X1212Y4958*
Y4943*
X1192Y4923*
X1237*
X1247Y4934*
X1285*
X1297Y4922*
X1729*
G75*
G02X1748Y4915J-34*
G01*
X1885Y4821*
X1910*
X1937Y4794*
X1957Y4814*
Y4967*
X1922*
X1895Y4993*
Y5008*
X1789Y5114*
X1718*
Y5236*
X1840*
Y5222*
X1853Y5236*
X1904*
X1925Y5215*
X1951Y5241*
X1986*
G75*
G02X2081Y5275I55J-4*
G01*
X2565*
Y5389*
X2793*
Y5275*
X2879*
Y5475*
X79*
Y5275*
X165*
G37*
X2081D02*
G36*
G75*
G02X2096Y5237I-40J-38D01*
G01*
G75*
G02X2096Y5236I-55J0*
G01*
X2104*
X2123Y5217*
X2279*
G75*
G02X2308Y5205I0J-42*
G01*
X2663Y4850*
Y4852*
X2689Y4879*
X2668Y4900*
Y4950*
X2689Y4971*
X2663Y4998*
Y5052*
X2701Y5091*
X2756*
X2795Y5052*
Y4998*
X2769Y4971*
X2790Y4950*
Y4900*
X2769Y4879*
X2795Y4852*
Y4798*
X2783Y4786*
X2790*
Y4664*
X2668*
Y4727*
X2655Y4739*
X2247Y4332*
G75*
G02X2216Y4319I-31J31*
G01*
X2106*
G75*
G02X2075Y4332J44*
G01*
X2000Y4406*
X1941*
X1913Y4378*
X1881Y4347*
X1960*
X1972Y4359*
X2010*
X2037Y4332*
Y4293*
X2010Y4267*
X1972*
X1960Y4279*
X1435*
X1423Y4267*
X1385*
X1358Y4293*
Y4332*
X1384Y4358*
X1218Y4524*
X1213Y4519*
Y4264*
X1243Y4234*
X1808*
G75*
G02X1832Y4224I0J-34*
G01*
X1903Y4153*
G75*
G02X1913Y4129I-24J-24*
G01*
Y3994*
X2879*
Y5275*
X2793*
Y5161*
X2565*
Y5275*
X2081*
G37*
X79Y3994D02*
G36*
Y3275D01*
X856*
Y3325*
G75*
G02X866Y3350I36J0*
G01*
X868Y3352*
Y3971*
X858Y3981*
Y3994*
X620*
X600Y3974*
X558*
X528Y4004*
Y4041*
X281*
X269Y4029*
X295Y4002*
Y3948*
X256Y3909*
X201*
X163Y3948*
Y3994*
X79*
G37*
X858D02*
G36*
Y4019D01*
X885Y4046*
X923*
X950Y4019*
Y3994*
X1149*
X1014Y4129*
X997*
X970Y4156*
Y4194*
X997Y4221*
X1035*
X1062Y4194*
Y4177*
X1308Y3932*
X1335Y3959*
X1355*
X1333Y3981*
Y4019*
X1360Y4046*
X1377*
X1380Y4049*
G75*
G02X1404Y4059I24J-24*
G01*
X1510*
X1522Y4071*
X1560*
X1587Y4044*
Y4021*
X1598*
X1625Y3994*
Y3994*
X1845*
Y4115*
X1794Y4166*
X1229*
G75*
G02X1205Y4176I0J34*
G01*
X1155Y4226*
G75*
G02X1145Y4250I24J24*
G01*
Y4519*
X1133Y4531*
Y4569*
X1153Y4589*
X1051Y4691*
X1010*
X1041Y4660*
G75*
G02X1052Y4634I-25J-25*
G01*
Y4300*
G75*
G02X1041Y4275I-36*
G01*
X954Y4187*
G75*
G02X929Y4177I-25J25*
G01*
X841*
G75*
G02X829Y4179J36*
G01*
X810*
X783Y4206*
Y4241*
X775*
Y4206*
X748Y4179*
X731*
X710Y4158*
X725Y4144*
Y4106*
X698Y4079*
X681*
X653Y4051*
G75*
G02X630Y4041I-24J24*
G01*
Y4004*
X620Y3994*
X858*
G37*
X950D02*
G36*
Y3981D01*
X939Y3971*
Y3343*
G75*
G02X1098Y3275I64J-68*
G01*
G75*
G02X927Y3221I-94*
G01*
Y3120*
X986Y3061*
X1088*
Y3169*
X1107*
Y3391*
X1066*
G75*
G02X1042Y3401I0J34*
G01*
X967Y3476*
G75*
G02X957Y3500I24J24*
G01*
Y3688*
G75*
G02X991Y3722I34*
G01*
X1131*
G75*
G02X1152I11J-34*
G01*
X1531*
G75*
G02X1552I11J-34*
G01*
X2091*
G75*
G02X2115Y3712I0J-34*
G01*
X2148Y3678*
G75*
G02X2204Y3645I5J-53*
G01*
G75*
G02X2301Y3651I50J-20*
G01*
G75*
G02X2412Y3625I53J-26*
G01*
G75*
G02X2333Y3570I-59*
G01*
G75*
G02X2345Y3559I-29J-45*
G01*
X2591*
X2745Y3693*
Y3707*
X2772Y3734*
X2810*
X2837Y3707*
Y3668*
X2810Y3642*
X2790*
X2626Y3499*
G75*
G02X2604Y3491I-22J26*
G01*
X2345*
G75*
G02X2302Y3471I-42J34*
G01*
Y3275*
X2310*
G75*
G02X2498I94*
G01*
X2879*
Y3994*
X1913*
Y3924*
X1928Y3909*
X2048*
X2060Y3921*
X2098*
X2125Y3894*
Y3856*
X2098Y3829*
X2060*
X2048Y3841*
X1914*
G75*
G02X1890Y3851I0J34*
G01*
X1855Y3886*
G75*
G02X1845Y3910I24J24*
G01*
Y3994*
X1625*
Y3956*
X1615Y3947*
X1748*
X1772Y3971*
X1810*
X1837Y3944*
Y3906*
X1810Y3879*
X1785*
G75*
G02X1779Y3878I-6J34*
G01*
X1385*
X1373Y3867*
X1393Y3847*
X1510*
X1522Y3859*
X1560*
X1587Y3832*
Y3793*
X1560Y3767*
X1522*
X1510Y3779*
X1379*
G75*
G02X1355Y3788I0J34*
G01*
X1149Y3994*
X950*
G37*
X200Y2083D02*
X203Y2086D01*
X254*
X282Y2058*
X306Y2081*
X352*
X374Y2059*
X629*
G75*
G02X653Y2049I0J-34*
G01*
X681Y2021*
X698*
X725Y1994*
Y1959*
X1054*
G75*
G02X1108Y1955I25J-34*
G01*
X1455Y1609*
X1460*
X1463Y1606*
X1508*
X1483Y1631*
Y1648*
X1455Y1676*
G75*
G02X1445Y1700I24J24*
G01*
Y1865*
G75*
G02X1455Y1889I34J0*
G01*
X1490Y1924*
G75*
G02X1514Y1934I24J-24*
G01*
X1867*
X1845Y1956*
Y1965*
X1718Y2054*
X1297*
X1285Y2041*
X1247*
X1235Y2054*
X816*
G75*
G02X792Y2063I0J34*
G01*
X677Y2179*
X660*
X633Y2206*
Y2244*
X660Y2271*
X698*
X704Y2265*
X717Y2279*
X253*
X200Y2226*
Y2083*
G36*
X203Y2086*
X254*
X282Y2058*
X306Y2081*
X352*
X374Y2059*
X629*
G75*
G02X653Y2049I0J-34*
G01*
X681Y2021*
X698*
X725Y1994*
Y1959*
X1054*
G75*
G02X1108Y1955I25J-34*
G01*
X1455Y1609*
X1460*
X1463Y1606*
X1508*
X1483Y1631*
Y1648*
X1455Y1676*
G75*
G02X1445Y1700I24J24*
G01*
Y1865*
G75*
G02X1455Y1889I34J0*
G01*
X1490Y1924*
G75*
G02X1514Y1934I24J-24*
G01*
X1867*
X1845Y1956*
Y1965*
X1718Y2054*
X1297*
X1285Y2041*
X1247*
X1235Y2054*
X816*
G75*
G02X792Y2063I0J34*
G01*
X677Y2179*
X660*
X633Y2206*
Y2244*
X660Y2271*
X698*
X704Y2265*
X717Y2279*
X253*
X200Y2226*
Y2083*
G37*
X202Y4884D02*
X203Y4886D01*
X254*
X282Y4858*
X306Y4881*
X352*
X374Y4859*
X629*
G75*
G02X653Y4849I0J-34*
G01*
X681Y4821*
X698*
X725Y4794*
Y4759*
X1052*
G75*
G02X1110Y4756I27J-34*
G01*
X1457Y4409*
X1460*
X1463Y4406*
X1508*
X1483Y4431*
Y4448*
X1455Y4476*
G75*
G02X1445Y4500I24J24*
G01*
Y4665*
G75*
G02X1455Y4689I34J0*
G01*
X1490Y4724*
G75*
G02X1514Y4734I24J-24*
G01*
X1867*
X1845Y4756*
Y4765*
X1718Y4854*
X1297*
X1285Y4842*
X1247*
X1237Y4852*
X816*
G75*
G02X791Y4862J36*
G01*
X674Y4979*
X660*
X633Y5006*
Y5044*
X660Y5071*
X698*
X704Y5065*
X716Y5077*
X254*
X202Y5025*
Y4884*
G36*
X203Y4886*
X254*
X282Y4858*
X306Y4881*
X352*
X374Y4859*
X629*
G75*
G02X653Y4849I0J-34*
G01*
X681Y4821*
X698*
X725Y4794*
Y4759*
X1052*
G75*
G02X1110Y4756I27J-34*
G01*
X1457Y4409*
X1460*
X1463Y4406*
X1508*
X1483Y4431*
Y4448*
X1455Y4476*
G75*
G02X1445Y4500I24J24*
G01*
Y4665*
G75*
G02X1455Y4689I34J0*
G01*
X1490Y4724*
G75*
G02X1514Y4734I24J-24*
G01*
X1867*
X1845Y4756*
Y4765*
X1718Y4854*
X1297*
X1285Y4842*
X1247*
X1237Y4852*
X816*
G75*
G02X791Y4862J36*
G01*
X674Y4979*
X660*
X633Y5006*
Y5044*
X660Y5071*
X698*
X704Y5065*
X716Y5077*
X254*
X202Y5025*
Y4884*
G37*
X760Y2192D02*
X830Y2122D01*
X948*
X928Y2141*
Y2184*
X958Y2213*
X1000*
X1030Y2184*
Y2141*
X1010Y2122*
X1142*
X1120Y2143*
Y2182*
X1147Y2209*
X1164*
X1175Y2219*
X1123*
Y2279*
G75*
G02X1116Y2279I-6J33*
G01*
X872*
X892Y2259*
Y2216*
X862Y2187*
X820*
X790Y2216*
Y2238*
X787Y2235*
Y2218*
X760Y2192*
G36*
X830Y2122*
X948*
X928Y2141*
Y2184*
X958Y2213*
X1000*
X1030Y2184*
Y2141*
X1010Y2122*
X1142*
X1120Y2143*
Y2182*
X1147Y2209*
X1164*
X1175Y2219*
X1123*
Y2279*
G75*
G02X1116Y2279I-6J33*
G01*
X872*
X892Y2259*
Y2216*
X862Y2187*
X820*
X790Y2216*
Y2238*
X787Y2235*
Y2218*
X760Y2192*
G37*
X761Y4993D02*
X831Y4923D01*
X946*
X928Y4941*
Y4984*
X958Y5013*
X1000*
X1030Y4984*
Y4941*
X1011Y4923*
X1141*
X1120Y4943*
Y4982*
X1147Y5008*
X1162*
X1172Y5019*
X1123*
Y5078*
G75*
G02X1116Y5077I-6J35*
G01*
X874*
X892Y5059*
Y5016*
X862Y4987*
X820*
X790Y5016*
Y5036*
X787Y5033*
Y5018*
X761Y4993*
G36*
X831Y4923*
X946*
X928Y4941*
Y4984*
X958Y5013*
X1000*
X1030Y4984*
Y4941*
X1011Y4923*
X1141*
X1120Y4943*
Y4982*
X1147Y5008*
X1162*
X1172Y5019*
X1123*
Y5078*
G75*
G02X1116Y5077I-6J35*
G01*
X874*
X892Y5059*
Y5016*
X862Y4987*
X820*
X790Y5016*
Y5036*
X787Y5033*
Y5018*
X761Y4993*
G37*
X1383Y770D02*
G75*
G02X1399Y697I-29J-45D01*
G01*
X1927*
X1950Y720*
G75*
G02X1950Y725I53J5*
G01*
G75*
G02X2054Y745I54*
G01*
G75*
G02X2154I50J-20*
G01*
G75*
G02X2254I50J-20*
G01*
G75*
G02X2322Y775I50J-20*
G01*
G75*
G02X2301Y799I31J50*
G01*
G75*
G02X2204Y805I-47J26*
G01*
G75*
G02X2104I-50J20*
G01*
G75*
G02X2000Y825I-50J20*
G01*
G75*
G02X2008Y854I54*
G01*
X1640*
X1662Y832*
Y793*
X1635Y766*
X1597*
X1582Y781*
X1562Y761*
X1520*
X1490Y791*
Y834*
X1510Y854*
X1455*
G75*
G02X1383Y770I-51J-29*
G01*
G36*
G75*
G02X1399Y697I-29J-45*
G01*
X1927*
X1950Y720*
G75*
G02X1950Y725I53J5*
G01*
G75*
G02X2054Y745I54*
G01*
G75*
G02X2154I50J-20*
G01*
G75*
G02X2254I50J-20*
G01*
G75*
G02X2322Y775I50J-20*
G01*
G75*
G02X2301Y799I31J50*
G01*
G75*
G02X2204Y805I-47J26*
G01*
G75*
G02X2104I-50J20*
G01*
G75*
G02X2000Y825I-50J20*
G01*
G75*
G02X2008Y854I54*
G01*
X1640*
X1662Y832*
Y793*
X1635Y766*
X1597*
X1582Y781*
X1562Y761*
X1520*
X1490Y791*
Y834*
X1510Y854*
X1455*
G75*
G02X1383Y770I-51J-29*
G01*
G37*
Y3570D02*
G75*
G02X1399Y3497I-29J-45D01*
G01*
X1927*
X1950Y3520*
G75*
G02X1950Y3525I53J5*
G01*
G75*
G02X2054Y3545I54*
G01*
G75*
G02X2154I50J-20*
G01*
G75*
G02X2254I50J-20*
G01*
G75*
G02X2322Y3575I50J-20*
G01*
G75*
G02X2301Y3599I31J50*
G01*
G75*
G02X2204Y3605I-47J26*
G01*
G75*
G02X2104I-50J20*
G01*
G75*
G02X2000Y3625I-50J20*
G01*
G75*
G02X2008Y3654I54*
G01*
X1640*
X1662Y3632*
Y3593*
X1635Y3567*
X1597*
X1582Y3581*
X1562Y3562*
X1520*
X1490Y3591*
Y3634*
X1510Y3654*
X1455*
G75*
G02X1383Y3570I-51J-29*
G01*
G36*
G75*
G02X1399Y3497I-29J-45*
G01*
X1927*
X1950Y3520*
G75*
G02X1950Y3525I53J5*
G01*
G75*
G02X2054Y3545I54*
G01*
G75*
G02X2154I50J-20*
G01*
G75*
G02X2254I50J-20*
G01*
G75*
G02X2322Y3575I50J-20*
G01*
G75*
G02X2301Y3599I31J50*
G01*
G75*
G02X2204Y3605I-47J26*
G01*
G75*
G02X2104I-50J20*
G01*
G75*
G02X2000Y3625I-50J20*
G01*
G75*
G02X2008Y3654I54*
G01*
X1640*
X1662Y3632*
Y3593*
X1635Y3567*
X1597*
X1582Y3581*
X1562Y3562*
X1520*
X1490Y3591*
Y3634*
X1510Y3654*
X1455*
G75*
G02X1383Y3570I-51J-29*
G01*
G37*
X1441Y1563D02*
X1079Y1925D01*
X1441Y4363D02*
X1079Y4725D01*
X1513Y1768D02*
X1529Y1784D01*
X1541*
X1577Y1824*
G75*
G02X1604Y1836I26J-24*
G01*
X2005*
X2015Y1845*
X2053*
X2080Y1819*
Y1780*
X2053Y1754*
X2015*
X2004Y1764*
X1620*
X1594Y1736*
Y1718*
X1567Y1691*
X1552*
X1575Y1669*
Y1631*
X1549Y1606*
X1816*
X1851Y1640*
X1892Y1681*
G75*
G02X1922Y1694I31J-31*
G01*
X2018*
G75*
G02X2049Y1681J-44*
G01*
X2124Y1606*
X2198*
X2593Y2001*
X2261Y2333*
X2123*
X2104Y2314*
X2053*
X2032Y2335*
X2023Y2326*
G75*
G02X2025Y2313I-31J-13*
G01*
Y2306*
X2037Y2294*
Y2256*
X2025Y2244*
Y2000*
G75*
G02X2015Y1976I-34J0*
G01*
X1915Y1876*
G75*
G02X1891Y1866I-24J24*
G01*
X1528*
X1513Y1851*
Y1768*
G36*
X1529Y1784*
X1541*
X1577Y1824*
G75*
G02X1604Y1836I26J-24*
G01*
X2005*
X2015Y1845*
X2053*
X2080Y1819*
Y1780*
X2053Y1754*
X2015*
X2004Y1764*
X1620*
X1594Y1736*
Y1718*
X1567Y1691*
X1552*
X1575Y1669*
Y1631*
X1549Y1606*
X1816*
X1851Y1640*
X1892Y1681*
G75*
G02X1922Y1694I31J-31*
G01*
X2018*
G75*
G02X2049Y1681J-44*
G01*
X2124Y1606*
X2198*
X2593Y2001*
X2261Y2333*
X2123*
X2104Y2314*
X2053*
X2032Y2335*
X2023Y2326*
G75*
G02X2025Y2313I-31J-13*
G01*
Y2306*
X2037Y2294*
Y2256*
X2025Y2244*
Y2000*
G75*
G02X2015Y1976I-34J0*
G01*
X1915Y1876*
G75*
G02X1891Y1866I-24J24*
G01*
X1528*
X1513Y1851*
Y1768*
G37*
Y4568D02*
X1529Y4584D01*
X1541*
X1577Y4624*
G75*
G02X1604Y4636I26J-24*
G01*
X2005*
X2015Y4645*
X2053*
X2080Y4619*
Y4580*
X2053Y4553*
X2015*
X2004Y4564*
X1620*
X1594Y4536*
Y4518*
X1567Y4492*
X1552*
X1575Y4469*
Y4431*
X1549Y4406*
X1816*
X1851Y4440*
X1892Y4481*
G75*
G02X1922Y4494I31J-31*
G01*
X2018*
G75*
G02X2049Y4481J-44*
G01*
X2124Y4406*
X2198*
X2593Y4801*
X2261Y5133*
X2123*
X2104Y5114*
X2053*
X2032Y5135*
X2024Y5127*
G75*
G02X2027Y5113I-33J-14*
G01*
Y5104*
X2037Y5094*
Y5056*
X2025Y5044*
Y4800*
G75*
G02X2015Y4776I-34J0*
G01*
X1915Y4676*
G75*
G02X1891Y4666I-24J24*
G01*
X1528*
X1513Y4651*
Y4568*
G36*
X1529Y4584*
X1541*
X1577Y4624*
G75*
G02X1604Y4636I26J-24*
G01*
X2005*
X2015Y4645*
X2053*
X2080Y4619*
Y4580*
X2053Y4553*
X2015*
X2004Y4564*
X1620*
X1594Y4536*
Y4518*
X1567Y4492*
X1552*
X1575Y4469*
Y4431*
X1549Y4406*
X1816*
X1851Y4440*
X1892Y4481*
G75*
G02X1922Y4494I31J-31*
G01*
X2018*
G75*
G02X2049Y4481J-44*
G01*
X2124Y4406*
X2198*
X2593Y4801*
X2261Y5133*
X2123*
X2104Y5114*
X2053*
X2032Y5135*
X2024Y5127*
G75*
G02X2027Y5113I-33J-14*
G01*
Y5104*
X2037Y5094*
Y5056*
X2025Y5044*
Y4800*
G75*
G02X2015Y4776I-34J0*
G01*
X1915Y4676*
G75*
G02X1891Y4666I-24J24*
G01*
X1528*
X1513Y4651*
Y4568*
G37*
X2654Y2000D02*
X2216Y1563D01*
X2106*
X2018Y1650*
X1922*
X1882Y1609*
X1834Y1562*
X1441Y1563*
X2654Y2000D02*
X2729Y1925D01*
X2654Y2000D02*
X2279Y2375D01*
X2079*
X2654Y4800D02*
X2216Y4363D01*
X2106*
X2018Y4450*
X1922*
X1882Y4409*
X1834Y4362*
X1441Y4363*
X2654Y4800D02*
X2729Y4725D01*
X2654Y4800D02*
X2279Y5175D01*
X2079*
X3079Y5475D02*
Y2875D01*
X5879*
Y5475*
X3079*
X3165Y2961D02*
Y3189D01*
X3393*
Y2961*
X3165*
Y5161D02*
Y5389D01*
X3393*
Y5161*
X3165*
X3180Y4536D02*
G75*
G02X3179Y4537I24J27D01*
G01*
X3141Y4575*
G75*
G02X3131Y4600I25J25*
G01*
Y5040*
G75*
G02X3141Y5065I36*
G01*
X3214Y5138*
G75*
G02X3239Y5148I25J-25*
G01*
X3469*
X3468Y5150*
Y5200*
X3503Y5236*
X3539*
X3566Y5263*
G75*
G02X3591Y5273I25J-25*
G01*
X3887*
X3897Y5283*
X3935*
X3947Y5271*
X4316*
G75*
G02X4340Y5262I0J-34*
G01*
X4371Y5231*
X4402*
X4435Y5198*
Y5152*
X4408Y5125*
X4435Y5098*
Y5052*
X4402Y5019*
X4371*
X4340Y4988*
G75*
G02X4316Y4979I-24J24*
G01*
X4230*
X4212Y4960*
Y4943*
X4192Y4923*
X4237*
X4247Y4934*
X4285*
X4297Y4922*
X4729*
G75*
G02X4748Y4915J-34*
G01*
X4885Y4821*
X4910*
X4937Y4794*
X4957Y4814*
Y4967*
X4922*
X4895Y4993*
Y5008*
X4789Y5114*
X4718*
Y5236*
X4840*
Y5222*
X4853Y5236*
X4904*
X4925Y5215*
X4951Y5241*
X4986*
G75*
G02X5096Y5237I55J-4*
G01*
G75*
G02X5096Y5236I-55J0*
G01*
X5104*
X5123Y5217*
X5279*
G75*
G02X5308Y5205I0J-42*
G01*
X5663Y4850*
Y4852*
X5689Y4879*
X5668Y4900*
Y4950*
X5689Y4971*
X5663Y4998*
Y5052*
X5701Y5091*
X5756*
X5795Y5052*
Y4998*
X5769Y4971*
X5790Y4950*
Y4900*
X5769Y4879*
X5795Y4852*
Y4798*
X5783Y4786*
X5790*
Y4664*
X5668*
Y4727*
X5655Y4739*
X5247Y4332*
G75*
G02X5216Y4319I-31J31*
G01*
X5106*
G75*
G02X5075Y4332J44*
G01*
X5000Y4406*
X4941*
X4913Y4378*
X4881Y4347*
X4960*
X4972Y4359*
X5010*
X5037Y4332*
Y4293*
X5010Y4267*
X4972*
X4960Y4279*
X4435*
X4423Y4267*
X4385*
X4358Y4293*
Y4332*
X4384Y4358*
X4218Y4524*
X4213Y4519*
Y4264*
X4243Y4234*
X4808*
G75*
G02X4832Y4224I0J-34*
G01*
X4903Y4153*
G75*
G02X4913Y4129I-24J-24*
G01*
Y3924*
X4928Y3909*
X5048*
X5060Y3921*
X5098*
X5125Y3894*
Y3856*
X5098Y3829*
X5060*
X5048Y3841*
X4914*
G75*
G02X4890Y3851I0J34*
G01*
X4855Y3886*
G75*
G02X4845Y3910I24J24*
G01*
Y4115*
X4794Y4166*
X4229*
G75*
G02X4205Y4176I0J34*
G01*
X4155Y4226*
G75*
G02X4145Y4250I24J24*
G01*
Y4519*
X4133Y4531*
Y4569*
X4153Y4589*
X4051Y4691*
X4010*
X4041Y4660*
G75*
G02X4052Y4634I-25J-25*
G01*
Y4300*
G75*
G02X4041Y4275I-36*
G01*
X3954Y4187*
G75*
G02X3929Y4177I-25J25*
G01*
X3841*
G75*
G02X3829Y4179J36*
G01*
X3810*
X3783Y4206*
Y4241*
X3775*
Y4206*
X3748Y4179*
X3731*
X3710Y4158*
X3725Y4144*
Y4106*
X3698Y4079*
X3681*
X3653Y4051*
G75*
G02X3630Y4041I-24J24*
G01*
Y4004*
X3600Y3974*
X3558*
X3528Y4004*
Y4041*
X3281*
X3269Y4029*
X3295Y4002*
Y3948*
X3256Y3909*
X3201*
X3163Y3948*
Y4002*
X3189Y4029*
X3168Y4050*
Y4100*
X3192Y4125*
X3168Y4150*
Y4200*
X3192Y4225*
X3168Y4250*
Y4300*
X3192Y4325*
X3168Y4350*
Y4400*
X3181Y4414*
X3168*
Y4536*
X3180*
X3868Y3971D02*
X3858Y3981D01*
Y4019*
X3885Y4046*
X3923*
X3950Y4019*
Y3981*
X3939Y3971*
Y3343*
G75*
G02X4098Y3275I64J-68*
G01*
G75*
G02X3927Y3221I-94*
G01*
Y3120*
X3986Y3061*
X4088*
Y3169*
X4106*
Y3389*
X4066*
G75*
G02X4041Y3400J36*
G01*
X3966Y3475*
G75*
G02X3956Y3500I25J25*
G01*
Y3688*
G75*
G02X3991Y3723I36*
G01*
X4139*
G75*
G02X4152Y3722I2J-36*
G01*
X4531*
G75*
G02X4544Y3723I11J-34*
G01*
X5091*
G75*
G02X5116Y3713I0J-36*
G01*
X5150Y3679*
G75*
G02X5204Y3645I3J-54*
G01*
G75*
G02X5301Y3651I50J-20*
G01*
G75*
G02X5412Y3625I53J-26*
G01*
G75*
G02X5333Y3570I-59*
G01*
G75*
G02X5345Y3559I-29J-45*
G01*
X5591*
X5745Y3693*
Y3707*
X5772Y3734*
X5810*
X5837Y3707*
Y3668*
X5810Y3642*
X5790*
X5626Y3499*
G75*
G02X5604Y3491I-22J26*
G01*
X5345*
G75*
G02X5302Y3471I-42J34*
G01*
Y3168*
X5319*
Y3078*
X5558*
G75*
G02X5565Y3077I0J-26*
G01*
Y3189*
X5793*
Y2961*
X5565*
Y2971*
G75*
G02X5558Y2970I-7J25*
G01*
X5310*
G75*
G02X5284Y2996J26*
G01*
Y3031*
X5255*
X5219Y2980*
G75*
G02X5191Y2966I-28J20*
G01*
X4460*
X4448Y2954*
X4410*
X4383Y2981*
Y3019*
X4410Y3046*
X4448*
X4460Y3034*
X5037*
Y3065*
X4370*
Y3031*
X4286*
X4254Y3000*
G75*
G02X4229Y2989I-25J25*
G01*
X3971*
G75*
G02X3946Y3000J36*
G01*
X3866Y3080*
G75*
G02X3856Y3105I25J25*
G01*
Y3325*
G75*
G02X3866Y3350I36J0*
G01*
X3868Y3352*
Y3971*
X4014Y4129D02*
X3997D01*
X3970Y4156*
Y4194*
X3997Y4221*
X4035*
X4062Y4194*
Y4177*
X4308Y3932*
X4335Y3959*
X4355*
X4333Y3981*
Y4019*
X4360Y4046*
X4377*
X4380Y4049*
G75*
G02X4404Y4059I24J-24*
G01*
X4510*
X4522Y4071*
X4560*
X4587Y4044*
Y4021*
X4598*
X4625Y3994*
Y3956*
X4617Y3948*
X4749*
X4772Y3971*
X4810*
X4837Y3944*
Y3906*
X4810Y3879*
X4791*
G75*
G02X4779Y3877I-12J34*
G01*
X4383*
X4373Y3867*
X4393Y3847*
X4510*
X4522Y3859*
X4560*
X4587Y3832*
Y3793*
X4560Y3767*
X4522*
X4510Y3779*
X4379*
G75*
G02X4355Y3788J34*
G01*
X4014Y4129*
X5310Y3275D02*
G75*
G02X5498I94D01*
G01*
G75*
G02X5310I-94*
G01*
X5565Y5161D02*
Y5389D01*
X5793*
Y5161*
X5565*
X3079Y3075D02*
G36*
Y2875D01*
X5879*
Y3075*
X5793*
Y2961*
X5565*
Y2971*
G75*
G02X5558Y2970I-7J25*
G01*
X5310*
G75*
G02X5284Y2996J26*
G01*
Y3031*
X5255*
X5219Y2980*
G75*
G02X5191Y2966I-28J20*
G01*
X4460*
X4448Y2954*
X4410*
X4383Y2981*
Y3019*
X4410Y3046*
X4448*
X4460Y3034*
X5037*
Y3065*
X4370*
Y3031*
X4286*
X4254Y3000*
G75*
G02X4229Y2989I-25J25*
G01*
X3971*
G75*
G02X3946Y3000J36*
G01*
X3871Y3075*
X3393*
Y2961*
X3165*
Y3075*
X3079*
G37*
X3165D02*
G36*
Y3189D01*
X3393*
Y3075*
X3871*
X3866Y3080*
G75*
G02X3856Y3105I25J25*
G01*
Y3275*
X3079*
Y3075*
X3165*
G37*
X5879D02*
G36*
Y3275D01*
X5498*
G75*
G02X5310I-94*
G01*
X5302*
Y3168*
X5319*
Y3078*
X5558*
G75*
G02X5565Y3077I0J-26*
G01*
Y3189*
X5793*
Y3075*
X5879*
G37*
X3079Y5275D02*
G36*
Y3994D01*
X3163*
Y4002*
X3189Y4029*
X3168Y4050*
Y4100*
X3192Y4125*
X3168Y4150*
Y4200*
X3192Y4225*
X3168Y4250*
Y4300*
X3192Y4325*
X3168Y4350*
Y4400*
X3181Y4414*
X3168*
Y4536*
X3180*
G75*
G02X3179Y4537I24J27*
G01*
X3141Y4575*
G75*
G02X3131Y4600I25J25*
G01*
Y5040*
G75*
G02X3141Y5065I36*
G01*
X3214Y5138*
G75*
G02X3239Y5148I25J-25*
G01*
X3469*
X3468Y5150*
Y5200*
X3503Y5236*
X3539*
X3566Y5263*
G75*
G02X3591Y5273I25J-25*
G01*
X3887*
X3889Y5275*
X3393*
Y5161*
X3165*
Y5275*
X3079*
G37*
X3165D02*
G36*
Y5389D01*
X3393*
Y5275*
X3889*
X3897Y5283*
X3935*
X3947Y5271*
X4316*
G75*
G02X4340Y5262I0J-34*
G01*
X4371Y5231*
X4402*
X4435Y5198*
Y5152*
X4408Y5125*
X4435Y5098*
Y5052*
X4402Y5019*
X4371*
X4340Y4988*
G75*
G02X4316Y4979I-24J24*
G01*
X4230*
X4212Y4960*
Y4943*
X4192Y4923*
X4237*
X4247Y4934*
X4285*
X4297Y4922*
X4729*
G75*
G02X4748Y4915J-34*
G01*
X4885Y4821*
X4910*
X4937Y4794*
X4957Y4814*
Y4967*
X4922*
X4895Y4993*
Y5008*
X4789Y5114*
X4718*
Y5236*
X4840*
Y5222*
X4853Y5236*
X4904*
X4925Y5215*
X4951Y5241*
X4986*
G75*
G02X5081Y5275I55J-4*
G01*
X5565*
Y5389*
X5793*
Y5275*
X5879*
Y5475*
X3079*
Y5275*
X3165*
G37*
X5081D02*
G36*
G75*
G02X5096Y5237I-40J-38D01*
G01*
G75*
G02X5096Y5236I-55J0*
G01*
X5104*
X5123Y5217*
X5279*
G75*
G02X5308Y5205I0J-42*
G01*
X5663Y4850*
Y4852*
X5689Y4879*
X5668Y4900*
Y4950*
X5689Y4971*
X5663Y4998*
Y5052*
X5701Y5091*
X5756*
X5795Y5052*
Y4998*
X5769Y4971*
X5790Y4950*
Y4900*
X5769Y4879*
X5795Y4852*
Y4798*
X5783Y4786*
X5790*
Y4664*
X5668*
Y4727*
X5655Y4739*
X5247Y4332*
G75*
G02X5216Y4319I-31J31*
G01*
X5106*
G75*
G02X5075Y4332J44*
G01*
X5000Y4406*
X4941*
X4913Y4378*
X4881Y4347*
X4960*
X4972Y4359*
X5010*
X5037Y4332*
Y4293*
X5010Y4267*
X4972*
X4960Y4279*
X4435*
X4423Y4267*
X4385*
X4358Y4293*
Y4332*
X4384Y4358*
X4218Y4524*
X4213Y4519*
Y4264*
X4243Y4234*
X4808*
G75*
G02X4832Y4224I0J-34*
G01*
X4903Y4153*
G75*
G02X4913Y4129I-24J-24*
G01*
Y3994*
X5879*
Y5275*
X5793*
Y5161*
X5565*
Y5275*
X5081*
G37*
X3079Y3994D02*
G36*
Y3275D01*
X3856*
Y3325*
G75*
G02X3866Y3350I36J0*
G01*
X3868Y3352*
Y3971*
X3858Y3981*
Y3994*
X3620*
X3600Y3974*
X3558*
X3528Y4004*
Y4041*
X3281*
X3269Y4029*
X3295Y4002*
Y3948*
X3256Y3909*
X3201*
X3163Y3948*
Y3994*
X3079*
G37*
X3858D02*
G36*
Y4019D01*
X3885Y4046*
X3923*
X3950Y4019*
Y3994*
X4149*
X4014Y4129*
X3997*
X3970Y4156*
Y4194*
X3997Y4221*
X4035*
X4062Y4194*
Y4177*
X4308Y3932*
X4335Y3959*
X4355*
X4333Y3981*
Y4019*
X4360Y4046*
X4377*
X4380Y4049*
G75*
G02X4404Y4059I24J-24*
G01*
X4510*
X4522Y4071*
X4560*
X4587Y4044*
Y4021*
X4598*
X4625Y3994*
Y3994*
X4845*
Y4115*
X4794Y4166*
X4229*
G75*
G02X4205Y4176I0J34*
G01*
X4155Y4226*
G75*
G02X4145Y4250I24J24*
G01*
Y4519*
X4133Y4531*
Y4569*
X4153Y4589*
X4051Y4691*
X4010*
X4041Y4660*
G75*
G02X4052Y4634I-25J-25*
G01*
Y4300*
G75*
G02X4041Y4275I-36*
G01*
X3954Y4187*
G75*
G02X3929Y4177I-25J25*
G01*
X3841*
G75*
G02X3829Y4179J36*
G01*
X3810*
X3783Y4206*
Y4241*
X3775*
Y4206*
X3748Y4179*
X3731*
X3710Y4158*
X3725Y4144*
Y4106*
X3698Y4079*
X3681*
X3653Y4051*
G75*
G02X3630Y4041I-24J24*
G01*
Y4004*
X3620Y3994*
X3858*
G37*
X3950D02*
G36*
Y3981D01*
X3939Y3971*
Y3343*
G75*
G02X4098Y3275I64J-68*
G01*
G75*
G02X3927Y3221I-94*
G01*
Y3120*
X3986Y3061*
X4088*
Y3169*
X4106*
Y3389*
X4066*
G75*
G02X4041Y3400J36*
G01*
X3966Y3475*
G75*
G02X3956Y3500I25J25*
G01*
Y3688*
G75*
G02X3991Y3723I36*
G01*
X4139*
G75*
G02X4152Y3722I2J-36*
G01*
X4531*
G75*
G02X4544Y3723I11J-34*
G01*
X5091*
G75*
G02X5116Y3713I0J-36*
G01*
X5150Y3679*
G75*
G02X5204Y3645I3J-54*
G01*
G75*
G02X5301Y3651I50J-20*
G01*
G75*
G02X5412Y3625I53J-26*
G01*
G75*
G02X5333Y3570I-59*
G01*
G75*
G02X5345Y3559I-29J-45*
G01*
X5591*
X5745Y3693*
Y3707*
X5772Y3734*
X5810*
X5837Y3707*
Y3668*
X5810Y3642*
X5790*
X5626Y3499*
G75*
G02X5604Y3491I-22J26*
G01*
X5345*
G75*
G02X5302Y3471I-42J34*
G01*
Y3275*
X5310*
G75*
G02X5498I94*
G01*
X5879*
Y3994*
X4913*
Y3924*
X4928Y3909*
X5048*
X5060Y3921*
X5098*
X5125Y3894*
Y3856*
X5098Y3829*
X5060*
X5048Y3841*
X4914*
G75*
G02X4890Y3851I0J34*
G01*
X4855Y3886*
G75*
G02X4845Y3910I24J24*
G01*
Y3994*
X4625*
Y3956*
X4617Y3948*
X4749*
X4772Y3971*
X4810*
X4837Y3944*
Y3906*
X4810Y3879*
X4791*
G75*
G02X4779Y3877I-12J34*
G01*
X4383*
X4373Y3867*
X4393Y3847*
X4510*
X4522Y3859*
X4560*
X4587Y3832*
Y3793*
X4560Y3767*
X4522*
X4510Y3779*
X4379*
G75*
G02X4355Y3788J34*
G01*
X4149Y3994*
X3950*
G37*
X3202Y4884D02*
X3203Y4886D01*
X3254*
X3282Y4858*
X3306Y4881*
X3352*
X3374Y4859*
X3629*
G75*
G02X3653Y4849I0J-34*
G01*
X3681Y4821*
X3698*
X3725Y4794*
Y4759*
X4052*
G75*
G02X4110Y4756I27J-34*
G01*
X4457Y4409*
X4460*
X4463Y4406*
X4508*
X4483Y4431*
Y4448*
X4455Y4476*
G75*
G02X4445Y4500I24J24*
G01*
Y4665*
G75*
G02X4455Y4689I34J0*
G01*
X4490Y4724*
G75*
G02X4514Y4734I24J-24*
G01*
X4867*
X4845Y4756*
Y4765*
X4718Y4854*
X4297*
X4285Y4842*
X4247*
X4237Y4852*
X3816*
G75*
G02X3791Y4862J36*
G01*
X3674Y4979*
X3660*
X3633Y5006*
Y5044*
X3660Y5071*
X3698*
X3704Y5065*
X3716Y5077*
X3254*
X3202Y5025*
Y4884*
G36*
X3203Y4886*
X3254*
X3282Y4858*
X3306Y4881*
X3352*
X3374Y4859*
X3629*
G75*
G02X3653Y4849I0J-34*
G01*
X3681Y4821*
X3698*
X3725Y4794*
Y4759*
X4052*
G75*
G02X4110Y4756I27J-34*
G01*
X4457Y4409*
X4460*
X4463Y4406*
X4508*
X4483Y4431*
Y4448*
X4455Y4476*
G75*
G02X4445Y4500I24J24*
G01*
Y4665*
G75*
G02X4455Y4689I34J0*
G01*
X4490Y4724*
G75*
G02X4514Y4734I24J-24*
G01*
X4867*
X4845Y4756*
Y4765*
X4718Y4854*
X4297*
X4285Y4842*
X4247*
X4237Y4852*
X3816*
G75*
G02X3791Y4862J36*
G01*
X3674Y4979*
X3660*
X3633Y5006*
Y5044*
X3660Y5071*
X3698*
X3704Y5065*
X3716Y5077*
X3254*
X3202Y5025*
Y4884*
G37*
X3761Y4993D02*
X3831Y4923D01*
X3946*
X3928Y4941*
Y4984*
X3958Y5013*
X4000*
X4030Y4984*
Y4941*
X4011Y4923*
X4141*
X4120Y4943*
Y4982*
X4147Y5008*
X4164*
X4175Y5019*
X4123*
Y5079*
G75*
G02X4116Y5079I-6J33*
G01*
X3872*
X3892Y5059*
Y5016*
X3862Y4987*
X3820*
X3790Y5016*
Y5038*
X3787Y5035*
Y5018*
X3761Y4993*
G36*
X3831Y4923*
X3946*
X3928Y4941*
Y4984*
X3958Y5013*
X4000*
X4030Y4984*
Y4941*
X4011Y4923*
X4141*
X4120Y4943*
Y4982*
X4147Y5008*
X4164*
X4175Y5019*
X4123*
Y5079*
G75*
G02X4116Y5079I-6J33*
G01*
X3872*
X3892Y5059*
Y5016*
X3862Y4987*
X3820*
X3790Y5016*
Y5038*
X3787Y5035*
Y5018*
X3761Y4993*
G37*
X4383Y3570D02*
G75*
G02X4400Y3498I-29J-45D01*
G01*
X4927*
X4950Y3522*
G75*
G02X4950Y3525I54J3*
G01*
G75*
G02X5054Y3545I54*
G01*
G75*
G02X5154I50J-20*
G01*
G75*
G02X5254I50J-20*
G01*
G75*
G02X5322Y3575I50J-20*
G01*
G75*
G02X5301Y3599I31J50*
G01*
G75*
G02X5204Y3605I-47J26*
G01*
G75*
G02X5104I-50J20*
G01*
G75*
G02X5000Y3625I-50J20*
G01*
G75*
G02X5007Y3652I54*
G01*
X4642*
X4662Y3632*
Y3593*
X4635Y3567*
X4597*
X4582Y3581*
X4562Y3562*
X4520*
X4490Y3591*
Y3634*
X4510Y3654*
X4455*
G75*
G02X4383Y3570I-51J-29*
G01*
G36*
G75*
G02X4400Y3498I-29J-45*
G01*
X4927*
X4950Y3522*
G75*
G02X4950Y3525I54J3*
G01*
G75*
G02X5054Y3545I54*
G01*
G75*
G02X5154I50J-20*
G01*
G75*
G02X5254I50J-20*
G01*
G75*
G02X5322Y3575I50J-20*
G01*
G75*
G02X5301Y3599I31J50*
G01*
G75*
G02X5204Y3605I-47J26*
G01*
G75*
G02X5104I-50J20*
G01*
G75*
G02X5000Y3625I-50J20*
G01*
G75*
G02X5007Y3652I54*
G01*
X4642*
X4662Y3632*
Y3593*
X4635Y3567*
X4597*
X4582Y3581*
X4562Y3562*
X4520*
X4490Y3591*
Y3634*
X4510Y3654*
X4455*
G75*
G02X4383Y3570I-51J-29*
G01*
G37*
X4441Y1563D02*
X4079Y1925D01*
X4441Y4363D02*
X4079Y4725D01*
X4513Y4568D02*
X4529Y4584D01*
X4541*
X4577Y4624*
G75*
G02X4604Y4636I26J-24*
G01*
X5005*
X5015Y4645*
X5053*
X5080Y4619*
Y4580*
X5053Y4553*
X5015*
X5004Y4564*
X4620*
X4594Y4536*
Y4518*
X4567Y4492*
X4552*
X4575Y4469*
Y4431*
X4549Y4406*
X4816*
X4851Y4440*
X4892Y4481*
G75*
G02X4922Y4494I31J-31*
G01*
X5018*
G75*
G02X5049Y4481J-44*
G01*
X5124Y4406*
X5198*
X5593Y4801*
X5261Y5133*
X5123*
X5104Y5114*
X5053*
X5032Y5135*
X5024Y5127*
G75*
G02X5027Y5113I-33J-14*
G01*
Y5104*
X5037Y5094*
Y5056*
X5025Y5044*
Y4800*
G75*
G02X5015Y4776I-34J0*
G01*
X4915Y4676*
G75*
G02X4891Y4666I-24J24*
G01*
X4528*
X4513Y4651*
Y4568*
G36*
X4529Y4584*
X4541*
X4577Y4624*
G75*
G02X4604Y4636I26J-24*
G01*
X5005*
X5015Y4645*
X5053*
X5080Y4619*
Y4580*
X5053Y4553*
X5015*
X5004Y4564*
X4620*
X4594Y4536*
Y4518*
X4567Y4492*
X4552*
X4575Y4469*
Y4431*
X4549Y4406*
X4816*
X4851Y4440*
X4892Y4481*
G75*
G02X4922Y4494I31J-31*
G01*
X5018*
G75*
G02X5049Y4481J-44*
G01*
X5124Y4406*
X5198*
X5593Y4801*
X5261Y5133*
X5123*
X5104Y5114*
X5053*
X5032Y5135*
X5024Y5127*
G75*
G02X5027Y5113I-33J-14*
G01*
Y5104*
X5037Y5094*
Y5056*
X5025Y5044*
Y4800*
G75*
G02X5015Y4776I-34J0*
G01*
X4915Y4676*
G75*
G02X4891Y4666I-24J24*
G01*
X4528*
X4513Y4651*
Y4568*
G37*
X5654Y2000D02*
X5216Y1563D01*
X5106*
X5018Y1650*
X4922*
X4882Y1609*
X4835Y1562*
X4441Y1563*
X5654Y2000D02*
X5729Y1925D01*
X5654Y2000D02*
X5279Y2375D01*
X5079*
X5654Y4800D02*
X5216Y4363D01*
X5106*
X5018Y4450*
X4922*
X4882Y4409*
X4835Y4362*
X4441Y4363*
X5654Y4800D02*
X5729Y4725D01*
X5654Y4800D02*
X5279Y5175D01*
X5079*
X6079Y2675D02*
Y75D01*
X8879*
Y2675*
X6079*
X6165Y161D02*
Y389D01*
X6393*
Y161*
X6165*
Y2361D02*
Y2589D01*
X6393*
Y2361*
X6165*
X6181Y1614D02*
X6168D01*
Y1736*
X6182*
G75*
G02X6180Y1738I21J26*
G01*
X6142Y1776*
G75*
G02X6132Y1800I24J24*
G01*
Y2240*
G75*
G02X6142Y2264I34*
G01*
X6215Y2337*
G75*
G02X6239Y2347I24J-24*
G01*
X6471*
X6468Y2350*
Y2400*
X6503Y2436*
X6539*
X6566Y2463*
G75*
G02X6591Y2473I25J-25*
G01*
X6887*
X6897Y2483*
X6935*
X6947Y2472*
X7316*
G75*
G02X7340Y2462I0J-34*
G01*
X7371Y2431*
X7402*
X7435Y2398*
Y2352*
X7408Y2325*
X7435Y2298*
Y2252*
X7402Y2219*
X7371*
X7340Y2188*
G75*
G02X7316Y2179I-24J24*
G01*
X7230*
X7212Y2160*
Y2143*
X7190Y2122*
X7235*
X7247Y2134*
X7285*
X7297Y2122*
X7729*
G75*
G02X7748Y2115J-34*
G01*
X7885Y2021*
X7910*
X7937Y1994*
X7957Y2014*
Y2167*
X7922*
X7895Y2193*
Y2208*
X7789Y2314*
X7718*
Y2436*
X7840*
Y2422*
X7853Y2436*
X7904*
X7925Y2415*
X7951Y2441*
X7986*
G75*
G02X8096Y2438I55J-4*
G01*
G75*
G02X8096Y2436I-55J0*
G01*
X8104*
X8123Y2417*
X8279*
G75*
G02X8308Y2405I0J-42*
G01*
X8663Y2050*
Y2052*
X8689Y2079*
X8668Y2100*
Y2150*
X8689Y2171*
X8663Y2198*
Y2252*
X8701Y2291*
X8756*
X8795Y2252*
Y2198*
X8769Y2171*
X8790Y2150*
Y2100*
X8769Y2079*
X8795Y2052*
Y1998*
X8783Y1986*
X8790*
Y1864*
X8668*
Y1927*
X8655Y1939*
X8247Y1532*
G75*
G02X8216Y1519I-31J31*
G01*
X8106*
G75*
G02X8075Y1532I0J44*
G01*
X8000Y1606*
X7941*
X7913Y1578*
X7881Y1547*
X7960*
X7972Y1559*
X8010*
X8037Y1532*
Y1493*
X8010Y1466*
X7972*
X7960Y1479*
X7435*
X7423Y1466*
X7385*
X7358Y1493*
Y1532*
X7384Y1558*
X7218Y1724*
X7213Y1719*
Y1464*
X7243Y1434*
X7808*
G75*
G02X7832Y1424I0J-34*
G01*
X7903Y1353*
G75*
G02X7913Y1329I-24J-24*
G01*
Y1124*
X7928Y1109*
X8048*
X8060Y1121*
X8098*
X8125Y1094*
Y1056*
X8098Y1029*
X8060*
X8048Y1041*
X7914*
G75*
G02X7890Y1051I0J34*
G01*
X7855Y1086*
G75*
G02X7845Y1110I24J24*
G01*
Y1315*
X7794Y1366*
X7229*
G75*
G02X7205Y1376I0J34*
G01*
X7155Y1426*
G75*
G02X7145Y1450I24J24*
G01*
Y1719*
X7133Y1731*
Y1769*
X7153Y1789*
X7051Y1891*
X7010*
X7041Y1860*
G75*
G02X7052Y1834I-25J-25*
G01*
Y1500*
G75*
G02X7041Y1475I-36*
G01*
X6954Y1387*
G75*
G02X6929Y1377I-25J25*
G01*
X6841*
G75*
G02X6829Y1379J36*
G01*
X6810*
X6783Y1406*
Y1439*
X6775*
Y1406*
X6748Y1379*
X6731*
X6710Y1358*
X6725Y1344*
Y1306*
X6698Y1279*
X6681*
X6653Y1251*
G75*
G02X6630Y1241I-24J24*
G01*
Y1204*
X6600Y1174*
X6558*
X6528Y1204*
Y1241*
X6281*
X6269Y1229*
X6295Y1202*
Y1148*
X6256Y1109*
X6201*
X6163Y1148*
Y1202*
X6189Y1229*
X6168Y1250*
Y1300*
X6192Y1325*
X6168Y1350*
Y1400*
X6192Y1425*
X6168Y1450*
Y1500*
X6192Y1525*
X6168Y1550*
Y1600*
X6181Y1614*
X6868Y1171D02*
X6858Y1181D01*
Y1219*
X6885Y1246*
X6923*
X6950Y1219*
Y1181*
X6939Y1171*
Y543*
G75*
G02X7098Y475I64J-68*
G01*
G75*
G02X6927Y421I-94*
G01*
Y320*
X6986Y261*
X7088*
Y369*
X7107*
Y591*
X7066*
G75*
G02X7042Y601I0J34*
G01*
X6967Y676*
G75*
G02X6957Y700I24J24*
G01*
Y888*
G75*
G02X6991Y922I34*
G01*
X7131*
G75*
G02X7152I11J-34*
G01*
X7531*
G75*
G02X7552I11J-34*
G01*
X8091*
G75*
G02X8115Y912I0J-34*
G01*
X8148Y878*
G75*
G02X8204Y845I5J-53*
G01*
G75*
G02X8301Y851I50J-20*
G01*
G75*
G02X8412Y825I53J-26*
G01*
G75*
G02X8333Y770I-59*
G01*
G75*
G02X8345Y759I-29J-45*
G01*
X8591*
X8745Y893*
Y907*
X8772Y934*
X8810*
X8837Y907*
Y868*
X8810Y842*
X8790*
X8626Y699*
G75*
G02X8604Y691I-22J26*
G01*
X8345*
G75*
G02X8302Y671I-42J34*
G01*
Y368*
X8319*
Y278*
X8558*
G75*
G02X8565Y277I0J-26*
G01*
Y389*
X8793*
Y161*
X8565*
Y171*
G75*
G02X8558Y170I-7J25*
G01*
X8310*
G75*
G02X8284Y196J26*
G01*
Y231*
X8255*
X8219Y180*
G75*
G02X8191Y166I-28J20*
G01*
X7460*
X7448Y154*
X7410*
X7383Y181*
Y219*
X7410Y246*
X7448*
X7460Y234*
X8037*
Y265*
X7370*
Y231*
X7286*
X7254Y200*
G75*
G02X7229Y189I-25J25*
G01*
X6971*
G75*
G02X6946Y200J36*
G01*
X6866Y280*
G75*
G02X6856Y305I25J25*
G01*
Y525*
G75*
G02X6866Y550I36J0*
G01*
X6868Y552*
Y1171*
X7014Y1329D02*
X6997D01*
X6970Y1356*
Y1394*
X6997Y1421*
X7035*
X7062Y1394*
Y1377*
X7308Y1132*
X7335Y1159*
X7355*
X7333Y1181*
Y1219*
X7360Y1246*
X7377*
X7380Y1249*
G75*
G02X7404Y1259I24J-24*
G01*
X7510*
X7522Y1271*
X7560*
X7587Y1244*
Y1221*
X7598*
X7625Y1194*
Y1156*
X7617Y1148*
X7749*
X7772Y1171*
X7810*
X7837Y1144*
Y1106*
X7810Y1079*
X7791*
G75*
G02X7779Y1077I-12J34*
G01*
X7383*
X7373Y1067*
X7393Y1047*
X7510*
X7522Y1059*
X7560*
X7587Y1032*
Y993*
X7560Y967*
X7522*
X7510Y979*
X7379*
G75*
G02X7355Y988J34*
G01*
X7014Y1329*
X8310Y475D02*
G75*
G02X8498I94D01*
G01*
G75*
G02X8310I-94*
G01*
X8565Y2361D02*
Y2589D01*
X8793*
Y2361*
X8565*
X6079Y275D02*
G36*
Y75D01*
X8879*
Y275*
X8793*
Y161*
X8565*
Y171*
G75*
G02X8558Y170I-7J25*
G01*
X8310*
G75*
G02X8284Y196J26*
G01*
Y231*
X8255*
X8219Y180*
G75*
G02X8191Y166I-28J20*
G01*
X7460*
X7448Y154*
X7410*
X7383Y181*
Y219*
X7410Y246*
X7448*
X7460Y234*
X8037*
Y265*
X7370*
Y231*
X7286*
X7254Y200*
G75*
G02X7229Y189I-25J25*
G01*
X6971*
G75*
G02X6946Y200J36*
G01*
X6871Y275*
X6393*
Y161*
X6165*
Y275*
X6079*
G37*
X6165D02*
G36*
Y389D01*
X6393*
Y275*
X6871*
X6866Y280*
G75*
G02X6856Y305I25J25*
G01*
Y475*
X6079*
Y275*
X6165*
G37*
X8879D02*
G36*
Y475D01*
X8498*
G75*
G02X8310I-94*
G01*
X8302*
Y368*
X8319*
Y278*
X8558*
G75*
G02X8565Y277I0J-26*
G01*
Y389*
X8793*
Y275*
X8879*
G37*
X6079Y2475D02*
G36*
Y1194D01*
X6163*
Y1202*
X6189Y1229*
X6168Y1250*
Y1300*
X6192Y1325*
X6168Y1350*
Y1400*
X6192Y1425*
X6168Y1450*
Y1500*
X6192Y1525*
X6168Y1550*
Y1600*
X6181Y1614*
X6168*
Y1736*
X6182*
G75*
G02X6180Y1738I21J26*
G01*
X6142Y1776*
G75*
G02X6132Y1800I24J24*
G01*
Y2240*
G75*
G02X6142Y2264I34*
G01*
X6215Y2337*
G75*
G02X6239Y2347I24J-24*
G01*
X6471*
X6468Y2350*
Y2400*
X6503Y2436*
X6539*
X6566Y2463*
G75*
G02X6591Y2473I25J-25*
G01*
X6887*
X6889Y2475*
X6393*
Y2361*
X6165*
Y2475*
X6079*
G37*
X6165D02*
G36*
Y2589D01*
X6393*
Y2475*
X6889*
X6897Y2483*
X6935*
X6947Y2472*
X7316*
G75*
G02X7340Y2462I0J-34*
G01*
X7371Y2431*
X7402*
X7435Y2398*
Y2352*
X7408Y2325*
X7435Y2298*
Y2252*
X7402Y2219*
X7371*
X7340Y2188*
G75*
G02X7316Y2179I-24J24*
G01*
X7230*
X7212Y2160*
Y2143*
X7190Y2122*
X7235*
X7247Y2134*
X7285*
X7297Y2122*
X7729*
G75*
G02X7748Y2115J-34*
G01*
X7885Y2021*
X7910*
X7937Y1994*
X7957Y2014*
Y2167*
X7922*
X7895Y2193*
Y2208*
X7789Y2314*
X7718*
Y2436*
X7840*
Y2422*
X7853Y2436*
X7904*
X7925Y2415*
X7951Y2441*
X7986*
G75*
G02X8082Y2475I55J-4*
G01*
X8565*
Y2589*
X8793*
Y2475*
X8879*
Y2675*
X6079*
Y2475*
X6165*
G37*
X8082D02*
G36*
G75*
G02X8096Y2438I-40J-37D01*
G01*
G75*
G02X8096Y2436I-55J0*
G01*
X8104*
X8123Y2417*
X8279*
G75*
G02X8308Y2405I0J-42*
G01*
X8663Y2050*
Y2052*
X8689Y2079*
X8668Y2100*
Y2150*
X8689Y2171*
X8663Y2198*
Y2252*
X8701Y2291*
X8756*
X8795Y2252*
Y2198*
X8769Y2171*
X8790Y2150*
Y2100*
X8769Y2079*
X8795Y2052*
Y1998*
X8783Y1986*
X8790*
Y1864*
X8668*
Y1927*
X8655Y1939*
X8247Y1532*
G75*
G02X8216Y1519I-31J31*
G01*
X8106*
G75*
G02X8075Y1532I0J44*
G01*
X8000Y1606*
X7941*
X7913Y1578*
X7881Y1547*
X7960*
X7972Y1559*
X8010*
X8037Y1532*
Y1493*
X8010Y1466*
X7972*
X7960Y1479*
X7435*
X7423Y1466*
X7385*
X7358Y1493*
Y1532*
X7384Y1558*
X7218Y1724*
X7213Y1719*
Y1464*
X7243Y1434*
X7808*
G75*
G02X7832Y1424I0J-34*
G01*
X7903Y1353*
G75*
G02X7913Y1329I-24J-24*
G01*
Y1194*
X8879*
Y2475*
X8793*
Y2361*
X8565*
Y2475*
X8082*
G37*
X6079Y1194D02*
G36*
Y475D01*
X6856*
Y525*
G75*
G02X6866Y550I36J0*
G01*
X6868Y552*
Y1171*
X6858Y1181*
Y1194*
X6620*
X6600Y1174*
X6558*
X6528Y1204*
Y1241*
X6281*
X6269Y1229*
X6295Y1202*
Y1148*
X6256Y1109*
X6201*
X6163Y1148*
Y1194*
X6079*
G37*
X6858D02*
G36*
Y1219D01*
X6885Y1246*
X6923*
X6950Y1219*
Y1194*
X7149*
X7014Y1329*
X6997*
X6970Y1356*
Y1394*
X6997Y1421*
X7035*
X7062Y1394*
Y1377*
X7308Y1132*
X7335Y1159*
X7355*
X7333Y1181*
Y1219*
X7360Y1246*
X7377*
X7380Y1249*
G75*
G02X7404Y1259I24J-24*
G01*
X7510*
X7522Y1271*
X7560*
X7587Y1244*
Y1221*
X7598*
X7625Y1194*
Y1194*
X7845*
Y1315*
X7794Y1366*
X7229*
G75*
G02X7205Y1376I0J34*
G01*
X7155Y1426*
G75*
G02X7145Y1450I24J24*
G01*
Y1719*
X7133Y1731*
Y1769*
X7153Y1789*
X7051Y1891*
X7010*
X7041Y1860*
G75*
G02X7052Y1834I-25J-25*
G01*
Y1500*
G75*
G02X7041Y1475I-36*
G01*
X6954Y1387*
G75*
G02X6929Y1377I-25J25*
G01*
X6841*
G75*
G02X6829Y1379J36*
G01*
X6810*
X6783Y1406*
Y1439*
X6775*
Y1406*
X6748Y1379*
X6731*
X6710Y1358*
X6725Y1344*
Y1306*
X6698Y1279*
X6681*
X6653Y1251*
G75*
G02X6630Y1241I-24J24*
G01*
Y1204*
X6620Y1194*
X6858*
G37*
X6950D02*
G36*
Y1181D01*
X6939Y1171*
Y543*
G75*
G02X7098Y475I64J-68*
G01*
G75*
G02X6927Y421I-94*
G01*
Y320*
X6986Y261*
X7088*
Y369*
X7107*
Y591*
X7066*
G75*
G02X7042Y601I0J34*
G01*
X6967Y676*
G75*
G02X6957Y700I24J24*
G01*
Y888*
G75*
G02X6991Y922I34*
G01*
X7131*
G75*
G02X7152I11J-34*
G01*
X7531*
G75*
G02X7552I11J-34*
G01*
X8091*
G75*
G02X8115Y912I0J-34*
G01*
X8148Y878*
G75*
G02X8204Y845I5J-53*
G01*
G75*
G02X8301Y851I50J-20*
G01*
G75*
G02X8412Y825I53J-26*
G01*
G75*
G02X8333Y770I-59*
G01*
G75*
G02X8345Y759I-29J-45*
G01*
X8591*
X8745Y893*
Y907*
X8772Y934*
X8810*
X8837Y907*
Y868*
X8810Y842*
X8790*
X8626Y699*
G75*
G02X8604Y691I-22J26*
G01*
X8345*
G75*
G02X8302Y671I-42J34*
G01*
Y475*
X8310*
G75*
G02X8498I94*
G01*
X8879*
Y1194*
X7913*
Y1124*
X7928Y1109*
X8048*
X8060Y1121*
X8098*
X8125Y1094*
Y1056*
X8098Y1029*
X8060*
X8048Y1041*
X7914*
G75*
G02X7890Y1051I0J34*
G01*
X7855Y1086*
G75*
G02X7845Y1110I24J24*
G01*
Y1194*
X7625*
Y1156*
X7617Y1148*
X7749*
X7772Y1171*
X7810*
X7837Y1144*
Y1106*
X7810Y1079*
X7791*
G75*
G02X7779Y1077I-12J34*
G01*
X7383*
X7373Y1067*
X7393Y1047*
X7510*
X7522Y1059*
X7560*
X7587Y1032*
Y993*
X7560Y967*
X7522*
X7510Y979*
X7379*
G75*
G02X7355Y988J34*
G01*
X7149Y1194*
X6950*
G37*
X6079Y5475D02*
Y2875D01*
X8879*
Y5475*
X6079*
X6165Y2961D02*
Y3189D01*
X6393*
Y2961*
X6165*
Y5161D02*
Y5389D01*
X6393*
Y5161*
X6165*
X6181Y4414D02*
X6168D01*
Y4536*
X6182*
G75*
G02X6180Y4538I21J27*
G01*
X6142Y4576*
G75*
G02X6132Y4600I24J24*
G01*
Y5040*
G75*
G02X6142Y5064I34*
G01*
X6215Y5137*
G75*
G02X6239Y5147I24J-24*
G01*
X6471*
X6468Y5150*
Y5200*
X6503Y5236*
X6539*
X6566Y5263*
G75*
G02X6591Y5273I25J-25*
G01*
X6887*
X6897Y5283*
X6935*
X6947Y5271*
X7316*
G75*
G02X7340Y5262I0J-34*
G01*
X7371Y5231*
X7402*
X7435Y5198*
Y5152*
X7408Y5125*
X7435Y5098*
Y5052*
X7402Y5019*
X7371*
X7340Y4988*
G75*
G02X7316Y4979I-24J24*
G01*
X7230*
X7212Y4960*
Y4943*
X7190Y4922*
X7235*
X7247Y4934*
X7285*
X7297Y4922*
X7729*
G75*
G02X7748Y4915J-34*
G01*
X7885Y4821*
X7910*
X7937Y4794*
X7957Y4814*
Y4967*
X7922*
X7895Y4993*
Y5008*
X7789Y5114*
X7718*
Y5236*
X7840*
Y5222*
X7853Y5236*
X7904*
X7925Y5215*
X7951Y5241*
X7986*
G75*
G02X8096Y5237I55J-4*
G01*
G75*
G02X8096Y5236I-55J0*
G01*
X8104*
X8123Y5217*
X8279*
G75*
G02X8308Y5205I0J-42*
G01*
X8663Y4850*
Y4852*
X8689Y4879*
X8668Y4900*
Y4950*
X8689Y4971*
X8663Y4998*
Y5052*
X8701Y5091*
X8756*
X8795Y5052*
Y4998*
X8769Y4971*
X8790Y4950*
Y4900*
X8769Y4879*
X8795Y4852*
Y4798*
X8783Y4786*
X8790*
Y4664*
X8668*
Y4727*
X8655Y4739*
X8247Y4332*
G75*
G02X8216Y4319I-31J31*
G01*
X8106*
G75*
G02X8075Y4332J44*
G01*
X8000Y4406*
X7941*
X7913Y4378*
X7881Y4347*
X7960*
X7972Y4359*
X8010*
X8037Y4332*
Y4293*
X8010Y4267*
X7972*
X7960Y4279*
X7435*
X7423Y4267*
X7385*
X7358Y4293*
Y4332*
X7384Y4358*
X7218Y4524*
X7213Y4519*
Y4264*
X7243Y4234*
X7808*
G75*
G02X7832Y4224I0J-34*
G01*
X7903Y4153*
G75*
G02X7913Y4129I-24J-24*
G01*
Y3924*
X7928Y3909*
X8048*
X8060Y3921*
X8098*
X8125Y3894*
Y3856*
X8098Y3829*
X8060*
X8048Y3841*
X7914*
G75*
G02X7890Y3851I0J34*
G01*
X7855Y3886*
G75*
G02X7845Y3910I24J24*
G01*
Y4115*
X7794Y4166*
X7229*
G75*
G02X7205Y4176I0J34*
G01*
X7155Y4226*
G75*
G02X7145Y4250I24J24*
G01*
Y4519*
X7133Y4531*
Y4569*
X7153Y4589*
X7051Y4691*
X7010*
X7041Y4660*
G75*
G02X7052Y4634I-25J-25*
G01*
Y4300*
G75*
G02X7041Y4275I-36*
G01*
X6954Y4187*
G75*
G02X6929Y4177I-25J25*
G01*
X6841*
G75*
G02X6829Y4179J36*
G01*
X6810*
X6783Y4206*
Y4241*
X6775*
Y4206*
X6748Y4179*
X6731*
X6710Y4158*
X6725Y4144*
Y4106*
X6698Y4079*
X6681*
X6653Y4051*
G75*
G02X6630Y4041I-24J24*
G01*
Y4004*
X6600Y3974*
X6558*
X6528Y4004*
Y4041*
X6281*
X6269Y4029*
X6295Y4002*
Y3948*
X6256Y3909*
X6201*
X6163Y3948*
Y4002*
X6189Y4029*
X6168Y4050*
Y4100*
X6192Y4125*
X6168Y4150*
Y4200*
X6192Y4225*
X6168Y4250*
Y4300*
X6192Y4325*
X6168Y4350*
Y4400*
X6181Y4414*
X6868Y3971D02*
X6858Y3981D01*
Y4019*
X6885Y4046*
X6923*
X6950Y4019*
Y3981*
X6939Y3971*
Y3343*
G75*
G02X7098Y3275I64J-68*
G01*
G75*
G02X6927Y3221I-94*
G01*
Y3120*
X6986Y3061*
X7088*
Y3169*
X7107*
Y3391*
X7066*
G75*
G02X7042Y3401I0J34*
G01*
X6967Y3476*
G75*
G02X6957Y3500I24J24*
G01*
Y3688*
G75*
G02X6991Y3722I34*
G01*
X7131*
G75*
G02X7152I11J-34*
G01*
X7531*
G75*
G02X7552I11J-34*
G01*
X8091*
G75*
G02X8115Y3712I0J-34*
G01*
X8148Y3678*
G75*
G02X8204Y3645I5J-53*
G01*
G75*
G02X8301Y3651I50J-20*
G01*
G75*
G02X8412Y3625I53J-26*
G01*
G75*
G02X8333Y3570I-59*
G01*
G75*
G02X8345Y3559I-29J-45*
G01*
X8591*
X8745Y3693*
Y3707*
X8772Y3734*
X8810*
X8837Y3707*
Y3668*
X8810Y3642*
X8790*
X8626Y3499*
G75*
G02X8604Y3491I-22J26*
G01*
X8345*
G75*
G02X8302Y3471I-42J34*
G01*
Y3168*
X8319*
Y3078*
X8558*
G75*
G02X8565Y3077I0J-26*
G01*
Y3189*
X8793*
Y2961*
X8565*
Y2971*
G75*
G02X8558Y2970I-7J25*
G01*
X8310*
G75*
G02X8284Y2996J26*
G01*
Y3031*
X8255*
X8219Y2980*
G75*
G02X8191Y2966I-28J20*
G01*
X7460*
X7448Y2954*
X7410*
X7383Y2981*
Y3019*
X7410Y3046*
X7448*
X7460Y3034*
X8037*
Y3065*
X7370*
Y3031*
X7286*
X7254Y3000*
G75*
G02X7229Y2989I-25J25*
G01*
X6971*
G75*
G02X6946Y3000J36*
G01*
X6866Y3080*
G75*
G02X6856Y3105I25J25*
G01*
Y3325*
G75*
G02X6866Y3350I36J0*
G01*
X6868Y3352*
Y3971*
X7014Y4129D02*
X6997D01*
X6970Y4156*
Y4194*
X6997Y4221*
X7035*
X7062Y4194*
Y4177*
X7308Y3932*
X7335Y3959*
X7355*
X7333Y3981*
Y4019*
X7360Y4046*
X7377*
X7380Y4049*
G75*
G02X7404Y4059I24J-24*
G01*
X7510*
X7522Y4071*
X7560*
X7587Y4044*
Y4021*
X7598*
X7625Y3994*
Y3956*
X7617Y3948*
X7749*
X7772Y3971*
X7810*
X7837Y3944*
Y3906*
X7810Y3879*
X7791*
G75*
G02X7779Y3877I-12J34*
G01*
X7383*
X7373Y3867*
X7393Y3847*
X7510*
X7522Y3859*
X7560*
X7587Y3832*
Y3793*
X7560Y3767*
X7522*
X7510Y3779*
X7379*
G75*
G02X7355Y3788J34*
G01*
X7014Y4129*
X8310Y3275D02*
G75*
G02X8498I94D01*
G01*
G75*
G02X8310I-94*
G01*
X8565Y5161D02*
Y5389D01*
X8793*
Y5161*
X8565*
X6079Y3075D02*
G36*
Y2875D01*
X8879*
Y3075*
X8793*
Y2961*
X8565*
Y2971*
G75*
G02X8558Y2970I-7J25*
G01*
X8310*
G75*
G02X8284Y2996J26*
G01*
Y3031*
X8255*
X8219Y2980*
G75*
G02X8191Y2966I-28J20*
G01*
X7460*
X7448Y2954*
X7410*
X7383Y2981*
Y3019*
X7410Y3046*
X7448*
X7460Y3034*
X8037*
Y3065*
X7370*
Y3031*
X7286*
X7254Y3000*
G75*
G02X7229Y2989I-25J25*
G01*
X6971*
G75*
G02X6946Y3000J36*
G01*
X6871Y3075*
X6393*
Y2961*
X6165*
Y3075*
X6079*
G37*
X6165D02*
G36*
Y3189D01*
X6393*
Y3075*
X6871*
X6866Y3080*
G75*
G02X6856Y3105I25J25*
G01*
Y3275*
X6079*
Y3075*
X6165*
G37*
X8879D02*
G36*
Y3275D01*
X8498*
G75*
G02X8310I-94*
G01*
X8302*
Y3168*
X8319*
Y3078*
X8558*
G75*
G02X8565Y3077I0J-26*
G01*
Y3189*
X8793*
Y3075*
X8879*
G37*
X6079Y5275D02*
G36*
Y3994D01*
X6163*
Y4002*
X6189Y4029*
X6168Y4050*
Y4100*
X6192Y4125*
X6168Y4150*
Y4200*
X6192Y4225*
X6168Y4250*
Y4300*
X6192Y4325*
X6168Y4350*
Y4400*
X6181Y4414*
X6168*
Y4536*
X6182*
G75*
G02X6180Y4538I21J27*
G01*
X6142Y4576*
G75*
G02X6132Y4600I24J24*
G01*
Y5040*
G75*
G02X6142Y5064I34*
G01*
X6215Y5137*
G75*
G02X6239Y5147I24J-24*
G01*
X6471*
X6468Y5150*
Y5200*
X6503Y5236*
X6539*
X6566Y5263*
G75*
G02X6591Y5273I25J-25*
G01*
X6887*
X6889Y5275*
X6393*
Y5161*
X6165*
Y5275*
X6079*
G37*
X6165D02*
G36*
Y5389D01*
X6393*
Y5275*
X6889*
X6897Y5283*
X6935*
X6947Y5271*
X7316*
G75*
G02X7340Y5262I0J-34*
G01*
X7371Y5231*
X7402*
X7435Y5198*
Y5152*
X7408Y5125*
X7435Y5098*
Y5052*
X7402Y5019*
X7371*
X7340Y4988*
G75*
G02X7316Y4979I-24J24*
G01*
X7230*
X7212Y4960*
Y4943*
X7190Y4922*
X7235*
X7247Y4934*
X7285*
X7297Y4922*
X7729*
G75*
G02X7748Y4915J-34*
G01*
X7885Y4821*
X7910*
X7937Y4794*
X7957Y4814*
Y4967*
X7922*
X7895Y4993*
Y5008*
X7789Y5114*
X7718*
Y5236*
X7840*
Y5222*
X7853Y5236*
X7904*
X7925Y5215*
X7951Y5241*
X7986*
G75*
G02X8081Y5275I55J-4*
G01*
X8565*
Y5389*
X8793*
Y5275*
X8879*
Y5475*
X6079*
Y5275*
X6165*
G37*
X8081D02*
G36*
G75*
G02X8096Y5237I-40J-38D01*
G01*
G75*
G02X8096Y5236I-55J0*
G01*
X8104*
X8123Y5217*
X8279*
G75*
G02X8308Y5205I0J-42*
G01*
X8663Y4850*
Y4852*
X8689Y4879*
X8668Y4900*
Y4950*
X8689Y4971*
X8663Y4998*
Y5052*
X8701Y5091*
X8756*
X8795Y5052*
Y4998*
X8769Y4971*
X8790Y4950*
Y4900*
X8769Y4879*
X8795Y4852*
Y4798*
X8783Y4786*
X8790*
Y4664*
X8668*
Y4727*
X8655Y4739*
X8247Y4332*
G75*
G02X8216Y4319I-31J31*
G01*
X8106*
G75*
G02X8075Y4332J44*
G01*
X8000Y4406*
X7941*
X7913Y4378*
X7881Y4347*
X7960*
X7972Y4359*
X8010*
X8037Y4332*
Y4293*
X8010Y4267*
X7972*
X7960Y4279*
X7435*
X7423Y4267*
X7385*
X7358Y4293*
Y4332*
X7384Y4358*
X7218Y4524*
X7213Y4519*
Y4264*
X7243Y4234*
X7808*
G75*
G02X7832Y4224I0J-34*
G01*
X7903Y4153*
G75*
G02X7913Y4129I-24J-24*
G01*
Y3994*
X8879*
Y5275*
X8793*
Y5161*
X8565*
Y5275*
X8081*
G37*
X6079Y3994D02*
G36*
Y3275D01*
X6856*
Y3325*
G75*
G02X6866Y3350I36J0*
G01*
X6868Y3352*
Y3971*
X6858Y3981*
Y3994*
X6620*
X6600Y3974*
X6558*
X6528Y4004*
Y4041*
X6281*
X6269Y4029*
X6295Y4002*
Y3948*
X6256Y3909*
X6201*
X6163Y3948*
Y3994*
X6079*
G37*
X6858D02*
G36*
Y4019D01*
X6885Y4046*
X6923*
X6950Y4019*
Y3994*
X7149*
X7014Y4129*
X6997*
X6970Y4156*
Y4194*
X6997Y4221*
X7035*
X7062Y4194*
Y4177*
X7308Y3932*
X7335Y3959*
X7355*
X7333Y3981*
Y4019*
X7360Y4046*
X7377*
X7380Y4049*
G75*
G02X7404Y4059I24J-24*
G01*
X7510*
X7522Y4071*
X7560*
X7587Y4044*
Y4021*
X7598*
X7625Y3994*
Y3994*
X7845*
Y4115*
X7794Y4166*
X7229*
G75*
G02X7205Y4176I0J34*
G01*
X7155Y4226*
G75*
G02X7145Y4250I24J24*
G01*
Y4519*
X7133Y4531*
Y4569*
X7153Y4589*
X7051Y4691*
X7010*
X7041Y4660*
G75*
G02X7052Y4634I-25J-25*
G01*
Y4300*
G75*
G02X7041Y4275I-36*
G01*
X6954Y4187*
G75*
G02X6929Y4177I-25J25*
G01*
X6841*
G75*
G02X6829Y4179J36*
G01*
X6810*
X6783Y4206*
Y4241*
X6775*
Y4206*
X6748Y4179*
X6731*
X6710Y4158*
X6725Y4144*
Y4106*
X6698Y4079*
X6681*
X6653Y4051*
G75*
G02X6630Y4041I-24J24*
G01*
Y4004*
X6620Y3994*
X6858*
G37*
X6950D02*
G36*
Y3981D01*
X6939Y3971*
Y3343*
G75*
G02X7098Y3275I64J-68*
G01*
G75*
G02X6927Y3221I-94*
G01*
Y3120*
X6986Y3061*
X7088*
Y3169*
X7107*
Y3391*
X7066*
G75*
G02X7042Y3401I0J34*
G01*
X6967Y3476*
G75*
G02X6957Y3500I24J24*
G01*
Y3688*
G75*
G02X6991Y3722I34*
G01*
X7131*
G75*
G02X7152I11J-34*
G01*
X7531*
G75*
G02X7552I11J-34*
G01*
X8091*
G75*
G02X8115Y3712I0J-34*
G01*
X8148Y3678*
G75*
G02X8204Y3645I5J-53*
G01*
G75*
G02X8301Y3651I50J-20*
G01*
G75*
G02X8412Y3625I53J-26*
G01*
G75*
G02X8333Y3570I-59*
G01*
G75*
G02X8345Y3559I-29J-45*
G01*
X8591*
X8745Y3693*
Y3707*
X8772Y3734*
X8810*
X8837Y3707*
Y3668*
X8810Y3642*
X8790*
X8626Y3499*
G75*
G02X8604Y3491I-22J26*
G01*
X8345*
G75*
G02X8302Y3471I-42J34*
G01*
Y3275*
X8310*
G75*
G02X8498I94*
G01*
X8879*
Y3994*
X7913*
Y3924*
X7928Y3909*
X8048*
X8060Y3921*
X8098*
X8125Y3894*
Y3856*
X8098Y3829*
X8060*
X8048Y3841*
X7914*
G75*
G02X7890Y3851I0J34*
G01*
X7855Y3886*
G75*
G02X7845Y3910I24J24*
G01*
Y3994*
X7625*
Y3956*
X7617Y3948*
X7749*
X7772Y3971*
X7810*
X7837Y3944*
Y3906*
X7810Y3879*
X7791*
G75*
G02X7779Y3877I-12J34*
G01*
X7383*
X7373Y3867*
X7393Y3847*
X7510*
X7522Y3859*
X7560*
X7587Y3832*
Y3793*
X7560Y3767*
X7522*
X7510Y3779*
X7379*
G75*
G02X7355Y3788J34*
G01*
X7149Y3994*
X6950*
G37*
X6200Y2083D02*
X6203Y2086D01*
X6254*
X6282Y2058*
X6306Y2081*
X6352*
X6374Y2059*
X6629*
G75*
G02X6653Y2049I0J-34*
G01*
X6681Y2021*
X6698*
X6725Y1994*
Y1959*
X7052*
G75*
G02X7110Y1956I27J-34*
G01*
X7457Y1609*
X7460*
X7463Y1606*
X7508*
X7483Y1631*
Y1648*
X7455Y1676*
G75*
G02X7445Y1700I24J24*
G01*
Y1865*
G75*
G02X7455Y1889I34J0*
G01*
X7490Y1924*
G75*
G02X7514Y1934I24J-24*
G01*
X7867*
X7845Y1956*
Y1965*
X7718Y2054*
X7297*
X7285Y2041*
X7247*
X7235Y2054*
X6816*
G75*
G02X6792Y2063J34*
G01*
X6677Y2179*
X6660*
X6633Y2206*
Y2244*
X6660Y2271*
X6698*
X6704Y2265*
X6717Y2279*
X6253*
X6200Y2226*
Y2083*
G36*
X6203Y2086*
X6254*
X6282Y2058*
X6306Y2081*
X6352*
X6374Y2059*
X6629*
G75*
G02X6653Y2049I0J-34*
G01*
X6681Y2021*
X6698*
X6725Y1994*
Y1959*
X7052*
G75*
G02X7110Y1956I27J-34*
G01*
X7457Y1609*
X7460*
X7463Y1606*
X7508*
X7483Y1631*
Y1648*
X7455Y1676*
G75*
G02X7445Y1700I24J24*
G01*
Y1865*
G75*
G02X7455Y1889I34J0*
G01*
X7490Y1924*
G75*
G02X7514Y1934I24J-24*
G01*
X7867*
X7845Y1956*
Y1965*
X7718Y2054*
X7297*
X7285Y2041*
X7247*
X7235Y2054*
X6816*
G75*
G02X6792Y2063J34*
G01*
X6677Y2179*
X6660*
X6633Y2206*
Y2244*
X6660Y2271*
X6698*
X6704Y2265*
X6717Y2279*
X6253*
X6200Y2226*
Y2083*
G37*
Y4883D02*
X6203Y4886D01*
X6254*
X6282Y4858*
X6306Y4881*
X6352*
X6374Y4859*
X6629*
G75*
G02X6653Y4849I0J-34*
G01*
X6681Y4821*
X6698*
X6725Y4794*
Y4759*
X7052*
G75*
G02X7110Y4756I27J-34*
G01*
X7457Y4409*
X7460*
X7463Y4406*
X7508*
X7483Y4431*
Y4448*
X7455Y4476*
G75*
G02X7445Y4500I24J24*
G01*
Y4665*
G75*
G02X7455Y4689I34J0*
G01*
X7490Y4724*
G75*
G02X7514Y4734I24J-24*
G01*
X7867*
X7845Y4756*
Y4765*
X7718Y4854*
X7297*
X7285Y4842*
X7247*
X7235Y4854*
X6816*
G75*
G02X6792Y4863I0J34*
G01*
X6677Y4979*
X6660*
X6633Y5006*
Y5044*
X6660Y5071*
X6698*
X6704Y5065*
X6717Y5079*
X6253*
X6200Y5026*
Y4883*
G36*
X6203Y4886*
X6254*
X6282Y4858*
X6306Y4881*
X6352*
X6374Y4859*
X6629*
G75*
G02X6653Y4849I0J-34*
G01*
X6681Y4821*
X6698*
X6725Y4794*
Y4759*
X7052*
G75*
G02X7110Y4756I27J-34*
G01*
X7457Y4409*
X7460*
X7463Y4406*
X7508*
X7483Y4431*
Y4448*
X7455Y4476*
G75*
G02X7445Y4500I24J24*
G01*
Y4665*
G75*
G02X7455Y4689I34J0*
G01*
X7490Y4724*
G75*
G02X7514Y4734I24J-24*
G01*
X7867*
X7845Y4756*
Y4765*
X7718Y4854*
X7297*
X7285Y4842*
X7247*
X7235Y4854*
X6816*
G75*
G02X6792Y4863I0J34*
G01*
X6677Y4979*
X6660*
X6633Y5006*
Y5044*
X6660Y5071*
X6698*
X6704Y5065*
X6717Y5079*
X6253*
X6200Y5026*
Y4883*
G37*
X6760Y4992D02*
X6830Y4922D01*
X6948*
X6928Y4941*
Y4984*
X6958Y5013*
X7000*
X7030Y4984*
Y4941*
X7010Y4922*
X7142*
X7120Y4943*
Y4982*
X7147Y5008*
X7164*
X7175Y5019*
X7123*
Y5078*
G75*
G02X7116Y5077I-7J35*
G01*
X6874*
X6892Y5059*
Y5016*
X6862Y4987*
X6820*
X6790Y5016*
Y5036*
X6787Y5033*
Y5018*
X6760Y4992*
G36*
X6830Y4922*
X6948*
X6928Y4941*
Y4984*
X6958Y5013*
X7000*
X7030Y4984*
Y4941*
X7010Y4922*
X7142*
X7120Y4943*
Y4982*
X7147Y5008*
X7164*
X7175Y5019*
X7123*
Y5078*
G75*
G02X7116Y5077I-7J35*
G01*
X6874*
X6892Y5059*
Y5016*
X6862Y4987*
X6820*
X6790Y5016*
Y5036*
X6787Y5033*
Y5018*
X6760Y4992*
G37*
X6760Y2192D02*
X6830Y2122D01*
X6948*
X6928Y2141*
Y2184*
X6958Y2213*
X7000*
X7030Y2184*
Y2141*
X7010Y2122*
X7142*
X7120Y2143*
Y2182*
X7147Y2209*
X7164*
X7175Y2219*
X7123*
Y2278*
G75*
G02X7116Y2277I-7J35*
G01*
X6874*
X6892Y2259*
Y2216*
X6862Y2187*
X6820*
X6790Y2216*
Y2236*
X6787Y2233*
Y2218*
X6760Y2192*
G36*
X6830Y2122*
X6948*
X6928Y2141*
Y2184*
X6958Y2213*
X7000*
X7030Y2184*
Y2141*
X7010Y2122*
X7142*
X7120Y2143*
Y2182*
X7147Y2209*
X7164*
X7175Y2219*
X7123*
Y2278*
G75*
G02X7116Y2277I-7J35*
G01*
X6874*
X6892Y2259*
Y2216*
X6862Y2187*
X6820*
X6790Y2216*
Y2236*
X6787Y2233*
Y2218*
X6760Y2192*
G37*
X7383Y770D02*
G75*
G02X7399Y697I-29J-45D01*
G01*
X7927*
X7950Y720*
G75*
G02X7950Y725I53J5*
G01*
G75*
G02X8054Y745I54*
G01*
G75*
G02X8154I50J-20*
G01*
G75*
G02X8254I50J-20*
G01*
G75*
G02X8322Y775I50J-20*
G01*
G75*
G02X8301Y799I31J50*
G01*
G75*
G02X8204Y805I-47J26*
G01*
G75*
G02X8104I-50J20*
G01*
G75*
G02X8000Y825I-50J20*
G01*
G75*
G02X8008Y854I54*
G01*
X7640*
X7662Y832*
Y793*
X7635Y766*
X7597*
X7582Y781*
X7562Y761*
X7520*
X7490Y791*
Y834*
X7510Y854*
X7455*
G75*
G02X7383Y770I-51J-29*
G01*
G36*
G75*
G02X7399Y697I-29J-45*
G01*
X7927*
X7950Y720*
G75*
G02X7950Y725I53J5*
G01*
G75*
G02X8054Y745I54*
G01*
G75*
G02X8154I50J-20*
G01*
G75*
G02X8254I50J-20*
G01*
G75*
G02X8322Y775I50J-20*
G01*
G75*
G02X8301Y799I31J50*
G01*
G75*
G02X8204Y805I-47J26*
G01*
G75*
G02X8104I-50J20*
G01*
G75*
G02X8000Y825I-50J20*
G01*
G75*
G02X8008Y854I54*
G01*
X7640*
X7662Y832*
Y793*
X7635Y766*
X7597*
X7582Y781*
X7562Y761*
X7520*
X7490Y791*
Y834*
X7510Y854*
X7455*
G75*
G02X7383Y770I-51J-29*
G01*
G37*
Y3570D02*
G75*
G02X7399Y3497I-29J-45D01*
G01*
X7927*
X7950Y3520*
G75*
G02X7950Y3525I53J5*
G01*
G75*
G02X8054Y3545I54*
G01*
G75*
G02X8154I50J-20*
G01*
G75*
G02X8254I50J-20*
G01*
G75*
G02X8322Y3575I50J-20*
G01*
G75*
G02X8301Y3599I31J50*
G01*
G75*
G02X8204Y3605I-47J26*
G01*
G75*
G02X8104I-50J20*
G01*
G75*
G02X8000Y3625I-50J20*
G01*
G75*
G02X8008Y3654I54*
G01*
X7640*
X7662Y3632*
Y3593*
X7635Y3567*
X7597*
X7582Y3581*
X7562Y3562*
X7520*
X7490Y3591*
Y3634*
X7510Y3654*
X7455*
G75*
G02X7383Y3570I-51J-29*
G01*
G36*
G75*
G02X7399Y3497I-29J-45*
G01*
X7927*
X7950Y3520*
G75*
G02X7950Y3525I53J5*
G01*
G75*
G02X8054Y3545I54*
G01*
G75*
G02X8154I50J-20*
G01*
G75*
G02X8254I50J-20*
G01*
G75*
G02X8322Y3575I50J-20*
G01*
G75*
G02X8301Y3599I31J50*
G01*
G75*
G02X8204Y3605I-47J26*
G01*
G75*
G02X8104I-50J20*
G01*
G75*
G02X8000Y3625I-50J20*
G01*
G75*
G02X8008Y3654I54*
G01*
X7640*
X7662Y3632*
Y3593*
X7635Y3567*
X7597*
X7582Y3581*
X7562Y3562*
X7520*
X7490Y3591*
Y3634*
X7510Y3654*
X7455*
G75*
G02X7383Y3570I-51J-29*
G01*
G37*
X7441Y1563D02*
X7079Y1925D01*
X7441Y4363D02*
X7079Y4725D01*
X7513Y1768D02*
X7529Y1784D01*
X7541*
X7577Y1824*
G75*
G02X7604Y1836I27J-24*
G01*
X8005*
X8015Y1845*
X8053*
X8080Y1819*
Y1780*
X8053Y1754*
X8015*
X8004Y1764*
X7620*
X7594Y1736*
Y1718*
X7567Y1691*
X7552*
X7575Y1669*
Y1631*
X7549Y1606*
X7816*
X7851Y1640*
X7892Y1681*
G75*
G02X7922Y1694I31J-31*
G01*
X8018*
G75*
G02X8049Y1681J-44*
G01*
X8124Y1606*
X8198*
X8593Y2001*
X8261Y2333*
X8123*
X8104Y2314*
X8053*
X8032Y2335*
X8024Y2327*
G75*
G02X8027Y2313I-33J-14*
G01*
Y2304*
X8037Y2294*
Y2256*
X8025Y2244*
Y2000*
G75*
G02X8015Y1976I-34J0*
G01*
X7915Y1876*
G75*
G02X7891Y1866I-24J24*
G01*
X7528*
X7513Y1851*
Y1768*
G36*
X7529Y1784*
X7541*
X7577Y1824*
G75*
G02X7604Y1836I27J-24*
G01*
X8005*
X8015Y1845*
X8053*
X8080Y1819*
Y1780*
X8053Y1754*
X8015*
X8004Y1764*
X7620*
X7594Y1736*
Y1718*
X7567Y1691*
X7552*
X7575Y1669*
Y1631*
X7549Y1606*
X7816*
X7851Y1640*
X7892Y1681*
G75*
G02X7922Y1694I31J-31*
G01*
X8018*
G75*
G02X8049Y1681J-44*
G01*
X8124Y1606*
X8198*
X8593Y2001*
X8261Y2333*
X8123*
X8104Y2314*
X8053*
X8032Y2335*
X8024Y2327*
G75*
G02X8027Y2313I-33J-14*
G01*
Y2304*
X8037Y2294*
Y2256*
X8025Y2244*
Y2000*
G75*
G02X8015Y1976I-34J0*
G01*
X7915Y1876*
G75*
G02X7891Y1866I-24J24*
G01*
X7528*
X7513Y1851*
Y1768*
G37*
Y4568D02*
X7529Y4584D01*
X7541*
X7577Y4624*
G75*
G02X7604Y4636I26J-24*
G01*
X8005*
X8015Y4645*
X8053*
X8080Y4619*
Y4580*
X8053Y4553*
X8015*
X8004Y4564*
X7620*
X7594Y4536*
Y4518*
X7567Y4492*
X7552*
X7575Y4469*
Y4431*
X7549Y4406*
X7816*
X7851Y4440*
X7892Y4481*
G75*
G02X7922Y4494I31J-31*
G01*
X8018*
G75*
G02X8049Y4481J-44*
G01*
X8124Y4406*
X8198*
X8593Y4801*
X8261Y5133*
X8123*
X8104Y5114*
X8053*
X8032Y5135*
X8024Y5127*
G75*
G02X8027Y5113I-33J-14*
G01*
Y5104*
X8037Y5094*
Y5056*
X8025Y5044*
Y4800*
G75*
G02X8015Y4776I-34J0*
G01*
X7915Y4676*
G75*
G02X7891Y4666I-24J24*
G01*
X7528*
X7513Y4651*
Y4568*
G36*
X7529Y4584*
X7541*
X7577Y4624*
G75*
G02X7604Y4636I26J-24*
G01*
X8005*
X8015Y4645*
X8053*
X8080Y4619*
Y4580*
X8053Y4553*
X8015*
X8004Y4564*
X7620*
X7594Y4536*
Y4518*
X7567Y4492*
X7552*
X7575Y4469*
Y4431*
X7549Y4406*
X7816*
X7851Y4440*
X7892Y4481*
G75*
G02X7922Y4494I31J-31*
G01*
X8018*
G75*
G02X8049Y4481J-44*
G01*
X8124Y4406*
X8198*
X8593Y4801*
X8261Y5133*
X8123*
X8104Y5114*
X8053*
X8032Y5135*
X8024Y5127*
G75*
G02X8027Y5113I-33J-14*
G01*
Y5104*
X8037Y5094*
Y5056*
X8025Y5044*
Y4800*
G75*
G02X8015Y4776I-34J0*
G01*
X7915Y4676*
G75*
G02X7891Y4666I-24J24*
G01*
X7528*
X7513Y4651*
Y4568*
G37*
X8654Y2000D02*
X8216Y1563D01*
X8106*
X8018Y1650*
X7922*
X7882Y1609*
X7835Y1562*
X7441Y1563*
X8654Y2000D02*
X8729Y1925D01*
X8654Y2000D02*
X8279Y2375D01*
X8079*
X8654Y4800D02*
X8216Y4363D01*
X8106*
X8018Y4450*
X7922*
X7882Y4409*
X7835Y4362*
X7441Y4363*
X8654Y4800D02*
X8729Y4725D01*
X8654Y4800D02*
X8279Y5175D01*
X8079*
D02*
D96*
X199Y1175D02*
X163D01*
X199Y3975D02*
X163D01*
X201Y275D02*
X165D01*
X201Y2475D02*
X165D01*
X201Y3075D02*
X165D01*
X201Y5275D02*
X165D01*
X229Y1145D02*
Y1109D01*
Y2050D02*
Y2086D01*
Y3945D02*
Y3909D01*
Y4850D02*
Y4886D01*
X259Y1175D02*
X295D01*
X259Y3975D02*
X295D01*
X279Y197D02*
Y161D01*
Y353D02*
Y389D01*
Y2397D02*
Y2361D01*
Y2553D02*
Y2589D01*
Y2997D02*
Y2961D01*
Y3153D02*
Y3189D01*
Y5197D02*
Y5161D01*
Y5353D02*
Y5389D01*
X357Y275D02*
X393D01*
X357Y2475D02*
X393D01*
X357Y3075D02*
X393D01*
X357Y5275D02*
X393D01*
X564Y1225D02*
X528D01*
X564Y4025D02*
X528D01*
X579Y1210D02*
Y1174D01*
Y4010D02*
Y3974D01*
X594Y1225D02*
X630D01*
X594Y4025D02*
X630D01*
X826Y2238D02*
X790D01*
X841Y2223D02*
Y2187D01*
Y5023D02*
Y4987D01*
X856Y2238D02*
X892D01*
X856Y5038D02*
X892D01*
X964Y2163D02*
X928D01*
X964Y4962D02*
X928D01*
X979Y2178D02*
Y2213D01*
Y4977D02*
Y5013D01*
X994Y2163D02*
X1030D01*
X994Y4962D02*
X1030D01*
X1404Y802D02*
Y766D01*
Y3602D02*
Y3566D01*
X1426Y825D02*
X1462D01*
X1426Y3625D02*
X1462D01*
X1526Y813D02*
X1490D01*
X1526Y3613D02*
X1490D01*
X1541Y798D02*
Y761D01*
Y3598D02*
Y3562D01*
X1958Y2396D02*
X1932Y2422D01*
X1958Y5196D02*
X1932Y5222D01*
X2000Y2354D02*
X2025Y2328D01*
X2000Y5154D02*
X2025Y5128D01*
X2041Y2457D02*
Y2493D01*
Y5256D02*
Y5292D01*
X2060Y2438D02*
X2096D01*
X2060Y5237D02*
X2096D01*
X2354Y802D02*
Y766D01*
Y848D02*
Y884D01*
Y3602D02*
Y3566D01*
Y3648D02*
Y3684D01*
X2376Y825D02*
X2412D01*
X2376Y3625D02*
X2412D01*
X2601Y2475D02*
X2565D01*
X2601Y5275D02*
X2565D01*
X2679Y197D02*
Y161D01*
Y353D02*
Y389D01*
Y2397D02*
Y2361D01*
Y2553D02*
Y2589D01*
Y2997D02*
Y2961D01*
Y3153D02*
Y3189D01*
Y5197D02*
Y5161D01*
Y5353D02*
Y5389D01*
X2699Y2225D02*
X2663D01*
X2699Y5025D02*
X2663D01*
X2708Y2046D02*
X2682Y2072D01*
X2708Y4846D02*
X2682Y4872D01*
X2729Y2255D02*
Y2291D01*
Y5055D02*
Y5091D01*
X2750Y2046D02*
X2775Y2072D01*
X2750Y4846D02*
X2775Y4872D01*
X2757Y275D02*
X2793D01*
X2757Y2475D02*
X2793D01*
X2757Y3075D02*
X2793D01*
X2757Y5275D02*
X2793D01*
X2759Y2225D02*
X2795D01*
X2759Y5025D02*
X2795D01*
X3199Y1175D02*
X3171D01*
X3199Y3975D02*
X3163D01*
X3201Y275D02*
X3173D01*
X3201Y2475D02*
X3173D01*
X3201Y3075D02*
X3165D01*
X3201Y5275D02*
X3165D01*
X3229Y1145D02*
Y1117D01*
Y3945D02*
Y3909D01*
Y4850D02*
Y4886D01*
X3246Y2007D02*
X3266Y1988D01*
X3246Y2043D02*
X3266Y2062D01*
X3259Y1175D02*
X3287D01*
X3259Y3975D02*
X3295D01*
X3279Y197D02*
Y169D01*
Y353D02*
Y381D01*
Y2397D02*
Y2369D01*
Y2553D02*
Y2581D01*
Y2997D02*
Y2961D01*
Y3153D02*
Y3189D01*
Y5197D02*
Y5161D01*
Y5353D02*
Y5389D01*
X3357Y275D02*
X3385D01*
X3357Y2475D02*
X3385D01*
X3357Y3075D02*
X3393D01*
X3357Y5275D02*
X3393D01*
X3564Y1225D02*
X3536D01*
X3564Y4025D02*
X3528D01*
X3579Y1210D02*
Y1182D01*
Y4010D02*
Y3974D01*
X3594Y1225D02*
X3622D01*
X3594Y4025D02*
X3630D01*
X3826Y2238D02*
X3798D01*
X3826Y5038D02*
X3790D01*
X3841Y2223D02*
Y2195D01*
Y2253D02*
Y2281D01*
Y5023D02*
Y4987D01*
X3856Y2238D02*
X3884D01*
X3856Y5038D02*
X3892D01*
X3964Y2163D02*
X3936D01*
X3964Y4962D02*
X3928D01*
X3979Y2148D02*
Y2120D01*
Y2178D02*
Y2206D01*
Y4977D02*
Y5013D01*
X3994Y2163D02*
X4022D01*
X3994Y4962D02*
X4030D01*
X4296Y2357D02*
X4316Y2338D01*
X4381Y825D02*
X4353D01*
X4404Y802D02*
Y774D01*
Y3602D02*
Y3566D01*
X4426Y825D02*
X4454D01*
X4426Y3625D02*
X4462D01*
X4526Y813D02*
X4498D01*
X4526Y3613D02*
X4490D01*
X4541Y798D02*
Y769D01*
Y3598D02*
Y3562D01*
X4958Y2396D02*
X4938Y2416D01*
X4958Y5196D02*
X4932Y5222D01*
X5000Y2354D02*
X5020Y2334D01*
X5000Y5154D02*
X5025Y5128D01*
X5022Y2438D02*
X4994D01*
X5041Y2457D02*
Y2485D01*
Y5256D02*
Y5292D01*
X5060Y2438D02*
X5088D01*
X5060Y5237D02*
X5096D01*
X5331Y825D02*
X5303D01*
X5354Y802D02*
Y774D01*
Y848D02*
Y876D01*
Y3602D02*
Y3566D01*
Y3648D02*
Y3684D01*
X5376Y825D02*
X5404D01*
X5376Y3625D02*
X5412D01*
X5601Y275D02*
X5573D01*
X5601Y2475D02*
X5573D01*
X5601Y5275D02*
X5565D01*
X5679Y197D02*
Y169D01*
Y353D02*
Y381D01*
Y2397D02*
Y2369D01*
Y2553D02*
Y2581D01*
Y2997D02*
Y2961D01*
Y3153D02*
Y3189D01*
Y5197D02*
Y5161D01*
Y5353D02*
Y5389D01*
X5699Y2225D02*
X5671D01*
X5699Y5025D02*
X5663D01*
X5708Y2046D02*
X5688Y2066D01*
X5708Y4846D02*
X5682Y4872D01*
X5729Y2255D02*
Y2283D01*
Y5055D02*
Y5091D01*
X5750Y2004D02*
X5770Y1984D01*
X5750Y2046D02*
X5770Y2066D01*
X5750Y4846D02*
X5775Y4872D01*
X5757Y275D02*
X5785D01*
X5757Y2475D02*
X5785D01*
X5757Y3075D02*
X5793D01*
X5757Y5275D02*
X5793D01*
X5759Y2225D02*
X5787D01*
X5759Y5025D02*
X5795D01*
X6199Y1175D02*
X6163D01*
X6199Y3975D02*
X6163D01*
X6201Y275D02*
X6165D01*
X6201Y2475D02*
X6165D01*
X6201Y3075D02*
X6165D01*
X6201Y5275D02*
X6165D01*
X6229Y1145D02*
Y1109D01*
Y2050D02*
Y2086D01*
Y3945D02*
Y3909D01*
Y4850D02*
Y4886D01*
X6259Y1175D02*
X6295D01*
X6259Y3975D02*
X6295D01*
X6279Y197D02*
Y161D01*
Y353D02*
Y389D01*
Y2397D02*
Y2361D01*
Y2553D02*
Y2589D01*
Y2997D02*
Y2961D01*
Y3153D02*
Y3189D01*
Y5197D02*
Y5161D01*
Y5353D02*
Y5389D01*
X6357Y275D02*
X6393D01*
X6357Y2475D02*
X6393D01*
X6357Y3075D02*
X6393D01*
X6357Y5275D02*
X6393D01*
X6564Y1225D02*
X6528D01*
X6564Y4025D02*
X6528D01*
X6579Y1210D02*
Y1174D01*
Y4010D02*
Y3974D01*
X6594Y1225D02*
X6630D01*
X6594Y4025D02*
X6630D01*
X6841Y2223D02*
Y2187D01*
Y5023D02*
Y4987D01*
X6856Y2238D02*
X6892D01*
X6856Y5038D02*
X6892D01*
X6964Y2163D02*
X6928D01*
X6964Y4962D02*
X6928D01*
X6979Y2178D02*
Y2213D01*
Y4977D02*
Y5013D01*
X6994Y2163D02*
X7030D01*
X6994Y4962D02*
X7030D01*
X7404Y802D02*
Y766D01*
Y3602D02*
Y3566D01*
X7426Y825D02*
X7462D01*
X7426Y3625D02*
X7462D01*
X7526Y813D02*
X7490D01*
X7526Y3613D02*
X7490D01*
X7541Y798D02*
Y761D01*
Y3598D02*
Y3562D01*
X7958Y2396D02*
X7932Y2422D01*
X7958Y5196D02*
X7932Y5222D01*
X8000Y2354D02*
X8025Y2328D01*
X8000Y5154D02*
X8025Y5128D01*
X8041Y2457D02*
Y2493D01*
Y5256D02*
Y5292D01*
X8060Y2438D02*
X8096D01*
X8060Y5237D02*
X8096D01*
X8354Y802D02*
Y766D01*
Y848D02*
Y884D01*
Y3602D02*
Y3566D01*
Y3648D02*
Y3684D01*
X8376Y825D02*
X8412D01*
X8376Y3625D02*
X8412D01*
X8601Y2475D02*
X8565D01*
X8601Y5275D02*
X8565D01*
X8679Y197D02*
Y161D01*
Y353D02*
Y389D01*
Y2397D02*
Y2361D01*
Y2553D02*
Y2589D01*
Y2997D02*
Y2961D01*
Y3153D02*
Y3189D01*
Y5197D02*
Y5161D01*
Y5353D02*
Y5389D01*
X8699Y2225D02*
X8663D01*
X8699Y5025D02*
X8663D01*
X8708Y2046D02*
X8682Y2072D01*
X8708Y4846D02*
X8682Y4872D01*
X8729Y2255D02*
Y2291D01*
Y5055D02*
Y5091D01*
X8750Y2046D02*
X8775Y2072D01*
X8750Y4846D02*
X8775Y4872D01*
X8757Y275D02*
X8793D01*
X8757Y2475D02*
X8793D01*
X8757Y3075D02*
X8793D01*
X8757Y5275D02*
X8793D01*
X8759Y2225D02*
X8795D01*
X8759Y5025D02*
X8795D01*
D02*
D97*
X229Y1175D02*
X279Y1225D01*
X579*
X229Y3975D02*
X279Y4025D01*
X579*
X329Y1825D02*
X466D01*
X479Y1838*
Y1842*
X329Y1925D02*
X466D01*
X329Y4625D02*
X466D01*
X479Y4638*
Y4642*
X329Y4725D02*
X466D01*
Y1925D02*
X479Y1908D01*
X466Y1925D02*
X479Y1913D01*
Y1908*
X466Y4725D02*
X479Y4708D01*
X466Y4725D02*
X479Y4713D01*
Y4708*
X679Y1325D02*
X629Y1275D01*
X229*
X679Y1838D02*
X604Y1763D01*
X204*
X166Y1800*
Y2240*
X239Y2313*
X766*
X829Y2375*
X679Y1975D02*
X629Y2025D01*
X329*
X679Y2225D02*
X816Y2088D01*
X1266*
X679Y4125D02*
X629Y4075D01*
X229*
X679Y4638D02*
X604Y4563D01*
X204*
X166Y4600*
Y5040*
X239Y5113*
X766*
X829Y5175*
X679Y4775D02*
X629Y4825D01*
X329*
X679Y5025D02*
X816Y4888D01*
X1266*
X729Y1425D02*
X679Y1375D01*
X229*
X729Y4225D02*
X679Y4175D01*
X229*
X741Y2238D02*
X816Y2313D01*
X1116*
X1179Y2375*
X741Y5038D02*
X816Y5113D01*
X1116*
X1179Y5175*
X829Y1425D02*
X841Y1413D01*
X929*
X1016Y1500*
Y1834*
X963Y1888*
X554*
X516Y1850*
X479*
Y1842*
X829Y4225D02*
X841Y4213D01*
X929*
X1016Y4300*
Y4634*
X963Y4687*
X554*
X516Y4650*
X479*
Y4642*
X841Y2238D02*
X916Y2163D01*
X979*
X841Y5038D02*
X916Y4962D01*
X979*
X879Y1525D02*
X891Y1513D01*
X954*
X979Y1538*
Y1675*
X229*
X879Y4325D02*
X891Y4313D01*
X954*
X979Y4337*
Y4475*
X229*
X904Y1200D02*
Y538D01*
X891Y525*
Y305*
X971Y225*
X1229*
X1304Y300*
X1312Y300*
X904Y1463D02*
X891Y1475D01*
X229*
X904Y4000D02*
Y3338D01*
X891Y3325*
Y3105*
X971Y3025*
X1229*
X1304Y3100*
X1312Y3100*
X904Y4262D02*
X891Y4275D01*
X229*
X916Y2438D02*
X591D01*
X529Y2375*
X916Y5237D02*
X591D01*
X529Y5175*
X929Y1563D02*
X916Y1575D01*
X229*
X929Y4363D02*
X916Y4375D01*
X229*
X1016Y1375D02*
X1379Y1013D01*
X1541*
X1016Y4175D02*
X1379Y3813D01*
X1541*
X1054Y725D02*
X1116Y663D01*
X1941*
X2004Y725*
X1054Y3525D02*
X1116Y3463D01*
X1941*
X2004Y3525*
X1079Y1925D02*
X466D01*
X1079Y4725D02*
X466D01*
X1141Y888D02*
X1541D01*
X1141D02*
X1204Y825D01*
X1141Y3688D02*
X1541D01*
X1141D02*
X1204Y3625D01*
X1146Y300D02*
X1141Y313D01*
Y625*
X1066*
X991Y700*
Y888*
X1141*
X1146Y3100D02*
X1141Y3113D01*
Y3425*
X1066*
X991Y3500*
Y3688*
X1141*
X1166Y2163D02*
X1216Y2213D01*
X1316*
X1379Y2275*
X1166Y4962D02*
X1216Y5013D01*
X1316*
X1379Y5075*
X1179Y1750D02*
Y1450D01*
X1229Y1400*
X1808*
X1879Y1329*
Y1110*
X1914Y1075*
X2079*
X1179Y4550D02*
Y4250D01*
X1229Y4200*
X1808*
X1879Y4129*
Y3910*
X1914Y3875*
X2079*
X1254Y388D02*
Y313D01*
X1304*
X1312Y300*
X1254Y3188D02*
Y3113D01*
X1304*
X1312Y3100*
Y300D02*
X1316Y300D01*
X2091*
X2095Y300*
X1312Y3100D02*
X1316Y3100D01*
X2091*
X2095Y3100*
X1379Y1200D02*
X1404Y1225D01*
X1541*
X1379Y2375D02*
X1316Y2438D01*
X916*
X1379Y4000D02*
X1404Y4025D01*
X1541*
X1379Y5175D02*
X1316Y5237D01*
X916*
X1404Y1513D02*
X1991D01*
X1404Y4313D02*
X1991D01*
X1429Y200D02*
X2191D01*
X2254Y288*
X2261Y300*
X1429Y3000D02*
X2191D01*
X2254Y3088*
X2261Y3100*
X1441Y1175D02*
X1579D01*
X1441Y3975D02*
X1579D01*
X1529Y1650D02*
X1479Y1700D01*
Y1865*
X1514Y1900*
X1891*
X1991Y2000*
Y2275*
X1529Y4450D02*
X1479Y4500D01*
Y4665*
X1514Y4700*
X1891*
X1991Y4800*
Y5075*
X1541Y813D02*
X1529Y825D01*
X1404*
X1541Y888D02*
X1616Y813D01*
X1541Y3613D02*
X1529Y3625D01*
X1404*
X1541Y3688D02*
X1616Y3613D01*
X1548Y1738D02*
X1604Y1800D01*
X1616Y1800*
X2034*
X1548Y4538D02*
X1604Y4600D01*
X1616Y4599*
X2034*
X1779Y2375D02*
X1941Y2213D01*
X1779Y5175D02*
X1941Y5013D01*
X1791Y1125D02*
X1779Y1113D01*
X1354*
X1791Y3925D02*
X1779Y3913D01*
X1354*
X1891Y1975D02*
X1729Y2088D01*
X1266*
X1891Y4775D02*
X1729Y4888D01*
X1266*
X1991Y2275D02*
Y2313D01*
X1941*
X1879Y2375*
X1991Y5075D02*
Y5113D01*
X1941*
X1879Y5175*
X2095Y300D02*
X2104Y300D01*
Y625*
X2204Y725*
X2095Y3100D02*
X2104Y3100D01*
Y3425*
X2204Y3525*
X2154Y825D02*
X2091Y888D01*
X1541*
X2154Y3625D02*
X2091Y3688D01*
X1541*
X2261Y300D02*
X2266Y300D01*
Y688*
X2304Y725*
X2261Y3100D02*
X2266Y3100D01*
Y3488*
X2304Y3525*
X2354Y825D02*
X2791Y1263D01*
Y2025*
X2354Y3625D02*
X2791Y4063D01*
Y4825*
X2729Y2225D02*
X2791Y2163D01*
Y2025*
X2729Y5025D02*
X2791Y4962D01*
Y4825*
Y888D02*
X2604Y725D01*
X2304*
X2791Y2025D02*
X2729D01*
X2791Y3688D02*
X2604Y3525D01*
X2304*
X2791Y4825D02*
X2729D01*
X3079Y2675D02*
Y75D01*
X5879*
Y2675*
X3079*
X3173Y169D02*
Y381D01*
X3385*
Y169*
X3173*
Y2369D02*
Y2581D01*
X3385*
Y2369*
X3173*
X3200Y1229D02*
X3176Y1253D01*
Y1297*
X3204Y1325*
X3176Y1353*
Y1397*
X3204Y1425*
X3176Y1453*
Y1497*
X3204Y1525*
X3176Y1553*
Y1597*
X3201Y1622*
X3176*
Y1728*
X3282*
Y1701*
X3979*
G75*
G02X3989Y1699I0J-26*
G01*
Y1823*
X3952Y1860*
X3710*
X3717Y1853*
Y1822*
X3694Y1800*
X3678*
X3622Y1744*
G75*
G02X3604Y1736I-18J18*
G01*
X3204*
G75*
G02X3185Y1744J26*
G01*
X3148Y1782*
G75*
G02X3140Y1800I18J18*
G01*
Y2240*
G75*
G02X3148Y2258I26*
G01*
X3221Y2331*
G75*
G02X3239Y2338I18J-18*
G01*
X3490*
X3476Y2353*
Y2397*
X3507Y2428*
X3545*
X3573Y2456*
G75*
G02X3591Y2463I18J-18*
G01*
X3889*
X3901Y2476*
X3932*
X3944Y2463*
X4316*
G75*
G02X4335Y2456J-26*
G01*
X4368Y2423*
X4399*
X4427Y2395*
Y2355*
X4399Y2327*
X4359*
X4332Y2354*
Y2353*
X4301Y2322*
X4300*
X4327Y2295*
Y2260*
X4331Y2264*
Y2295*
X4359Y2323*
X4399*
X4427Y2295*
Y2255*
X4399Y2227*
X4368*
X4335Y2194*
G75*
G02X4316Y2187I-18J18*
G01*
X4227*
X4204Y2164*
Y2147*
X4182Y2125*
X4151*
X4128Y2147*
Y2178*
X4151Y2201*
X4168*
X4194Y2227*
X4131*
Y2291*
G75*
G02X4116Y2287I-14J22*
G01*
X3827*
X3779Y2239*
Y2222*
X3757Y2200*
X3741*
X3827Y2114*
X4239*
X4251Y2126*
X4282*
X4294Y2114*
X4729*
G75*
G02X4744Y2109J-26*
G01*
X4882Y2013*
X4907*
X4929Y1991*
Y1975*
X4965Y2011*
Y2183*
X4957Y2175*
X4926*
X4903Y2197*
Y2212*
X4793Y2322*
X4726*
Y2428*
X4832*
Y2403*
X4857Y2428*
X4901*
X4925Y2403*
X4955Y2433*
X4994*
G75*
G02X4994Y2438I47J5*
G01*
G75*
G02X5088I47*
G01*
G75*
G02X5087Y2428I-47J0*
G01*
X5101*
X5120Y2409*
X5279*
G75*
G02X5303Y2399I0J-34*
G01*
X5670Y2032*
G75*
G02X5671Y2031I-16J-32*
G01*
Y2049*
X5700Y2079*
X5676Y2103*
Y2147*
X5700Y2171*
X5671Y2201*
Y2249*
X5705Y2283*
X5753*
X5787Y2249*
Y2201*
X5757Y2171*
X5782Y2147*
Y2103*
X5757Y2079*
X5787Y2049*
Y2001*
X5764Y1978*
X5782*
Y1872*
X5676*
Y1930*
X5655Y1951*
X5241Y1537*
G75*
G02X5216Y1527I-25J25*
G01*
X5106*
G75*
G02X5081Y1537J36*
G01*
X5004Y1614*
X4937*
X4907Y1584*
X4861Y1539*
X4964*
X4976Y1550*
X5007*
X5029Y1528*
Y1497*
X5007Y1475*
X4976*
X4964Y1486*
X4431*
X4419Y1475*
X4388*
X4366Y1497*
Y1528*
X4388Y1550*
X4403*
X4217Y1737*
Y1734*
X4205Y1722*
Y1461*
X4240Y1426*
X4808*
G75*
G02X4826Y1418J-26*
G01*
X4897Y1348*
G75*
G02X4905Y1329I-18J-18*
G01*
Y1121*
X4925Y1101*
X5051*
X5063Y1113*
X5094*
X5117Y1091*
Y1059*
X5094Y1037*
X5063*
X5051Y1049*
X4914*
G75*
G02X4896Y1057J26*
G01*
X4860Y1092*
G75*
G02X4853Y1110I18J18*
G01*
Y1319*
X4797Y1374*
X4229*
G75*
G02X4210Y1382J26*
G01*
X4160Y1432*
G75*
G02X4153Y1450I18J18*
G01*
Y1722*
X4141Y1734*
Y1766*
X4163Y1788*
X4165*
X4054Y1899*
X3991*
X4036Y1854*
G75*
G02X4044Y1834I-20J-19*
G01*
Y1500*
G75*
G02X4036Y1481I-28*
G01*
X3948Y1393*
G75*
G02X3929Y1385I-19J20*
G01*
X3841*
G75*
G02X3831Y1387J28*
G01*
X3813*
X3791Y1409*
Y1441*
X3799Y1449*
X3758*
X3767Y1441*
Y1409*
X3744Y1387*
X3728*
X3699Y1358*
X3717Y1341*
Y1309*
X3694Y1287*
X3678*
X3647Y1257*
G75*
G02X3629Y1249I-18J18*
G01*
X3616*
X3622Y1243*
Y1207*
X3597Y1182*
X3561*
X3536Y1207*
Y1243*
X3542Y1249*
X3278*
X3257Y1229*
X3287Y1199*
Y1151*
X3253Y1117*
X3205*
X3171Y1151*
Y1199*
X3200Y1229*
X3823Y2195D02*
X3798Y2220D01*
Y2255*
X3823Y2281*
X3859*
X3884Y2255*
Y2220*
X3859Y2195*
X3823*
X3876Y1174D02*
X3866Y1184D01*
Y1216*
X3888Y1238*
X3919*
X3942Y1216*
Y1184*
X3931Y1174*
Y538*
G75*
G02X3923Y518I-28J0*
G01*
X3919Y514*
Y488*
G75*
G02X4090Y475I85J-13*
G01*
G75*
G02X3919Y462I-86*
G01*
Y316*
X3983Y253*
X4096*
Y361*
X4114*
Y597*
X4066*
G75*
G02X4047Y605J28*
G01*
X3972Y680*
G75*
G02X3964Y700I19J20*
G01*
Y888*
G75*
G02X3991Y915I28*
G01*
X4139*
G75*
G02X4151Y914I2J-28*
G01*
X4532*
G75*
G02X4543Y915I9J-26*
G01*
X5091*
G75*
G02X5111Y907J-28*
G01*
X5147Y870*
G75*
G02X5199Y825I6J-45*
G01*
G75*
G02X5108I-46*
G01*
G75*
G02X5108Y831I46*
G01*
X5095Y845*
G75*
G02X5099Y825I-41J-20*
G01*
G75*
G02X5008I-46*
G01*
G75*
G02X5024Y860I46*
G01*
X4606*
X4615Y851*
X4632*
X4654Y828*
Y797*
X4632Y774*
X4601*
X4582Y793*
X4559Y769*
X4523*
X4498Y795*
Y830*
X4523Y856*
X4536*
X4531Y862*
X4439*
G75*
G02X4454Y825I-35J-37*
G01*
G75*
G02X4353I-51*
G01*
G75*
G02X4369Y862I51*
G01*
X4331*
G75*
G02X4349Y825I-28J-37*
G01*
G75*
G02X4258I-46*
G01*
G75*
G02X4276Y862I46*
G01*
X4231*
G75*
G02X4249Y825I-28J-37*
G01*
G75*
G02X4158I-46*
G01*
G75*
G02X4159Y833I46J0*
G01*
X4142Y850*
G75*
G02X4149Y825I-38J-25*
G01*
G75*
G02X4058I-46*
G01*
G75*
G02X4074Y860I46*
G01*
X4019*
Y754*
G75*
G02X4099Y725I35J-29*
G01*
G75*
G02X4099Y719I-46*
G01*
X4113Y705*
G75*
G02X4108Y725I41J20*
G01*
G75*
G02X4199I46*
G01*
G75*
G02X4183Y690I-46*
G01*
X4224*
G75*
G02X4208Y725I29J35*
G01*
G75*
G02X4299I46*
G01*
G75*
G02X4283Y690I-46*
G01*
X4324*
G75*
G02X4308Y725I29J35*
G01*
G75*
G02X4399I46*
G01*
G75*
G02X4383Y690I-46*
G01*
X4930*
X4958Y719*
G75*
G02X4958Y725I45J6*
G01*
G75*
G02X5049I46*
G01*
G75*
G02X4997Y680I-46*
G01*
X4961Y643*
G75*
G02X4941Y635I-20J19*
G01*
X4167*
G75*
G02X4169Y625I-26J-10*
G01*
Y361*
X4196*
Y253*
X4217*
X4251Y287*
G75*
G02X4228Y313I2J26*
G01*
Y360*
X4216Y372*
Y403*
X4238Y426*
X4269*
X4292Y403*
Y372*
X4281Y361*
X4362*
Y328*
X5045*
Y360*
X5076*
Y625*
G75*
G02X5084Y644I28J0*
G01*
X5124Y684*
G75*
G02X5058Y725I-20J41*
G01*
G75*
G02X5149I46*
G01*
G75*
G02X5145Y705I-46*
G01*
X5158Y719*
G75*
G02X5158Y725I45J6*
G01*
G75*
G02X5249I46*
G01*
G75*
G02X5245Y705I-46J0*
G01*
G75*
G02X5247Y707I22J-17*
G01*
X5258Y719*
G75*
G02X5258Y725I45J6*
G01*
G75*
G02X5341Y751I46*
G01*
X5594*
X5753Y889*
Y903*
X5776Y925*
X5807*
X5829Y903*
Y872*
X5807Y850*
X5787*
X5621Y705*
G75*
G02X5604Y699I-17J20*
G01*
X5341*
G75*
G02X5297Y680I-38J26*
G01*
X5294Y676*
Y360*
X5311*
Y270*
X5558*
G75*
G02X5573Y262J-18*
G01*
Y381*
X5785*
Y169*
X5573*
Y186*
G75*
G02X5558Y178I-15J10*
G01*
X5310*
G75*
G02X5292Y196J18*
G01*
Y239*
X5251*
X5212Y185*
G75*
G02X5191Y174I-21J15*
G01*
X4456*
X4444Y162*
X4413*
X4391Y184*
Y216*
X4413Y238*
X4444*
X4456Y226*
X5178*
X5211Y273*
Y360*
X5239*
Y688*
G75*
G02X5241Y698I28*
G01*
G75*
G02X5197Y680I-37J27*
G01*
X5131Y614*
Y360*
X5145*
Y239*
X5045*
Y273*
X4362*
Y239*
X4282*
X4248Y205*
G75*
G02X4229Y197I-19J20*
G01*
X3971*
G75*
G02X3952Y206J28*
G01*
X3872Y286*
G75*
G02X3864Y305I20J19*
G01*
Y525*
G75*
G02X3872Y545I28J0*
G01*
X3876Y549*
Y1174*
X3961Y2120D02*
X3936Y2145D01*
Y2180*
X3961Y2206*
X3997*
X4022Y2180*
Y2145*
X3997Y2120*
X3961*
X4018Y1337D02*
X4001D01*
X3978Y1359*
Y1391*
X4001Y1413*
X4032*
X4054Y1391*
Y1374*
X4316Y1112*
Y1128*
X4338Y1151*
X4369*
X4380Y1140*
X4422*
X4403Y1159*
Y1171*
X4394Y1162*
X4363*
X4341Y1184*
Y1216*
X4363Y1238*
X4380*
X4385Y1243*
G75*
G02X4404Y1251I18J-18*
G01*
X4514*
X4526Y1263*
X4557*
X4579Y1241*
Y1213*
X4594*
X4617Y1191*
Y1159*
X4598Y1140*
X4753*
Y1141*
X4776Y1163*
X4807*
X4829Y1141*
Y1109*
X4807Y1087*
X4789*
G75*
G02X4779Y1085I-10J25*
G01*
X4380*
X4369Y1075*
X4354*
X4390Y1039*
X4514*
X4526Y1050*
X4557*
X4579Y1028*
Y997*
X4557Y975*
X4526*
X4514Y987*
X4379*
G75*
G02X4360Y994J26*
G01*
X4018Y1337*
X4368Y475D02*
G75*
G02X4540I86D01*
G01*
G75*
G02X4368I-86*
G01*
X4868D02*
G75*
G02X5040I86D01*
G01*
G75*
G02X4868I-86*
G01*
X5208Y825D02*
G75*
G02X5299I46D01*
G01*
G75*
G02X5208I-46*
G01*
X5303D02*
G75*
G02X5404I51D01*
G01*
G75*
G02X5303I-51*
G01*
X5318Y475D02*
G75*
G02X5490I86D01*
G01*
G75*
G02X5318I-86*
G01*
X5573Y2369D02*
Y2581D01*
X5785*
Y2369*
X5573*
X3079Y275D02*
G36*
Y75D01*
X5879*
Y275*
X5785*
Y169*
X5573*
Y186*
G75*
G02X5558Y178I-15J10*
G01*
X5310*
G75*
G02X5292Y196J18*
G01*
Y239*
X5251*
X5212Y185*
G75*
G02X5191Y174I-21J15*
G01*
X4456*
X4444Y162*
X4413*
X4391Y184*
Y216*
X4413Y238*
X4444*
X4456Y226*
X5178*
X5211Y273*
Y360*
X5239*
Y688*
G75*
G02X5241Y698I28*
G01*
G75*
G02X5197Y680I-37J27*
G01*
X5131Y614*
Y360*
X5145*
Y239*
X5045*
Y273*
X4362*
Y239*
X4282*
X4248Y205*
G75*
G02X4229Y197I-19J20*
G01*
X3971*
G75*
G02X3952Y206J28*
G01*
X3882Y275*
X3385*
Y169*
X3173*
Y275*
X3079*
G37*
X3173D02*
G36*
Y381D01*
X3385*
Y275*
X3882*
X3872Y286*
G75*
G02X3864Y305I20J19*
G01*
Y475*
X3079*
Y275*
X3173*
G37*
X5879D02*
G36*
Y475D01*
X5490*
G75*
G02X5318I-86*
G01*
X5294*
Y360*
X5311*
Y270*
X5558*
G75*
G02X5573Y262J-18*
G01*
Y381*
X5785*
Y275*
X5879*
G37*
X3079Y2475D02*
G36*
Y2238D01*
X3140*
Y2240*
G75*
G02X3148Y2258I26*
G01*
X3221Y2331*
G75*
G02X3239Y2338I18J-18*
G01*
X3490*
X3476Y2353*
Y2397*
X3507Y2428*
X3545*
X3573Y2456*
G75*
G02X3591Y2463I18J-18*
G01*
X3889*
X3900Y2475*
X3385*
Y2369*
X3173*
Y2475*
X3079*
G37*
X3173D02*
G36*
Y2581D01*
X3385*
Y2475*
X3900*
X3901Y2476*
X3932*
X3944Y2463*
X4316*
G75*
G02X4335Y2456J-26*
G01*
X4368Y2423*
X4399*
X4427Y2395*
Y2355*
X4399Y2327*
X4359*
X4332Y2354*
Y2353*
X4301Y2322*
X4300*
X4327Y2295*
Y2260*
X4331Y2264*
Y2295*
X4359Y2323*
X4399*
X4427Y2295*
Y2255*
X4399Y2227*
X4368*
X4335Y2194*
G75*
G02X4316Y2187I-18J18*
G01*
X4227*
X4204Y2164*
Y2147*
X4182Y2125*
X4151*
X4128Y2147*
Y2163*
X4022*
Y2145*
X3997Y2120*
X3961*
X3936Y2145*
Y2163*
X3778*
X3827Y2114*
X4239*
X4251Y2126*
X4282*
X4294Y2114*
X4729*
G75*
G02X4744Y2109J-26*
G01*
X4882Y2013*
X4907*
X4929Y1991*
Y1975*
X4965Y2011*
Y2183*
X4957Y2175*
X4926*
X4903Y2197*
Y2212*
X4793Y2322*
X4726*
Y2428*
X4832*
Y2403*
X4857Y2428*
X4901*
X4925Y2403*
X4955Y2433*
X4994*
G75*
G02X4994Y2438I47J5*
G01*
G75*
G02X5070Y2475I47*
G01*
X5573*
Y2581*
X5785*
Y2475*
X5879*
Y2675*
X3079*
Y2475*
X3173*
G37*
X5070D02*
G36*
G75*
G02X5088Y2438I-28J-38D01*
G01*
G75*
G02X5087Y2428I-47J0*
G01*
X5101*
X5120Y2409*
X5279*
G75*
G02X5303Y2399I0J-34*
G01*
X5670Y2032*
G75*
G02X5671Y2031I-16J-32*
G01*
Y2049*
X5700Y2079*
X5676Y2103*
Y2147*
X5700Y2171*
X5671Y2201*
Y2249*
X5705Y2283*
X5753*
X5787Y2249*
Y2238*
X5879*
Y2475*
X5785*
Y2369*
X5573*
Y2475*
X5070*
G37*
X3079Y2238D02*
G36*
Y2163D01*
X3140*
Y2238*
X3079*
G37*
X3779D02*
G36*
Y2222D01*
X3757Y2200*
X3741*
X3778Y2163*
X3936*
Y2180*
X3961Y2206*
X3997*
X4022Y2180*
Y2163*
X4128*
Y2178*
X4151Y2201*
X4168*
X4194Y2227*
X4131*
Y2238*
X3884*
Y2220*
X3859Y2195*
X3823*
X3798Y2220*
Y2238*
X3779*
G37*
X3798D02*
G36*
Y2255D01*
X3823Y2281*
X3859*
X3884Y2255*
Y2238*
X4131*
Y2291*
G75*
G02X4116Y2287I-14J22*
G01*
X3827*
X3779Y2239*
Y2238*
X3798*
G37*
X5787D02*
G36*
Y2201D01*
X5757Y2171*
X5766Y2163*
X5879*
Y2238*
X5787*
G37*
X3079Y2163D02*
G36*
Y1194D01*
X3171*
Y1199*
X3200Y1229*
X3176Y1253*
Y1297*
X3204Y1325*
X3176Y1353*
Y1397*
X3204Y1425*
X3176Y1453*
Y1497*
X3204Y1525*
X3176Y1553*
Y1597*
X3201Y1622*
X3176*
Y1728*
X3282*
Y1701*
X3979*
G75*
G02X3989Y1699I0J-26*
G01*
Y1823*
X3952Y1860*
X3710*
X3717Y1853*
Y1822*
X3694Y1800*
X3678*
X3622Y1744*
G75*
G02X3604Y1736I-18J18*
G01*
X3204*
G75*
G02X3185Y1744J26*
G01*
X3148Y1782*
G75*
G02X3140Y1800I18J18*
G01*
Y2163*
X3079*
G37*
X5766D02*
G36*
X5782Y2147D01*
Y2103*
X5757Y2079*
X5787Y2049*
Y2001*
X5764Y1978*
X5782*
Y1872*
X5676*
Y1930*
X5655Y1951*
X5241Y1537*
G75*
G02X5216Y1527I-25J25*
G01*
X5106*
G75*
G02X5081Y1537J36*
G01*
X5004Y1614*
X4937*
X4907Y1584*
X4861Y1539*
X4964*
X4976Y1550*
X5007*
X5029Y1528*
Y1497*
X5007Y1475*
X4976*
X4964Y1486*
X4431*
X4419Y1475*
X4388*
X4366Y1497*
Y1528*
X4388Y1550*
X4403*
X4217Y1737*
Y1734*
X4205Y1722*
Y1461*
X4240Y1426*
X4808*
G75*
G02X4826Y1418J-26*
G01*
X4897Y1348*
G75*
G02X4905Y1329I-18J-18*
G01*
Y1194*
X5879*
Y2163*
X5766*
G37*
X3079Y1194D02*
G36*
Y825D01*
X3876*
Y1174*
X3866Y1184*
Y1194*
X3608*
X3597Y1182*
X3561*
X3536Y1207*
Y1243*
X3542Y1249*
X3278*
X3257Y1229*
X3287Y1199*
Y1151*
X3253Y1117*
X3205*
X3171Y1151*
Y1194*
X3079*
G37*
X3866D02*
G36*
Y1216D01*
X3888Y1238*
X3919*
X3942Y1216*
Y1194*
X4161*
X4018Y1337*
X4001*
X3978Y1359*
Y1391*
X4001Y1413*
X4032*
X4054Y1391*
Y1374*
X4316Y1112*
Y1128*
X4338Y1151*
X4369*
X4380Y1140*
X4422*
X4403Y1159*
Y1171*
X4394Y1162*
X4363*
X4341Y1184*
Y1216*
X4363Y1238*
X4380*
X4385Y1243*
G75*
G02X4404Y1251I18J-18*
G01*
X4514*
X4526Y1263*
X4557*
X4579Y1241*
Y1213*
X4594*
X4614Y1194*
X4853*
Y1319*
X4797Y1374*
X4229*
G75*
G02X4210Y1382J26*
G01*
X4160Y1432*
G75*
G02X4153Y1450I18J18*
G01*
Y1722*
X4141Y1734*
Y1766*
X4163Y1788*
X4165*
X4054Y1899*
X3991*
X4036Y1854*
G75*
G02X4044Y1834I-20J-19*
G01*
Y1500*
G75*
G02X4036Y1481I-28*
G01*
X3948Y1393*
G75*
G02X3929Y1385I-19J20*
G01*
X3841*
G75*
G02X3831Y1387J28*
G01*
X3813*
X3791Y1409*
Y1441*
X3799Y1449*
X3758*
X3767Y1441*
Y1409*
X3744Y1387*
X3728*
X3699Y1358*
X3717Y1341*
Y1309*
X3694Y1287*
X3678*
X3647Y1257*
G75*
G02X3629Y1249I-18J18*
G01*
X3616*
X3622Y1243*
Y1207*
X3608Y1194*
X3866*
G37*
X3942D02*
G36*
Y1184D01*
X3931Y1174*
Y538*
G75*
G02X3923Y518I-28J0*
G01*
X3919Y514*
Y488*
G75*
G02X4090Y475I85J-13*
G01*
G75*
G02X3919Y462I-86*
G01*
Y316*
X3983Y253*
X4096*
Y361*
X4114*
Y597*
X4066*
G75*
G02X4047Y605J28*
G01*
X3972Y680*
G75*
G02X3964Y700I19J20*
G01*
Y888*
G75*
G02X3991Y915I28*
G01*
X4139*
G75*
G02X4151Y914I2J-28*
G01*
X4532*
G75*
G02X4543Y915I9J-26*
G01*
X5091*
G75*
G02X5111Y907J-28*
G01*
X5147Y870*
G75*
G02X5199Y825I6J-45*
G01*
X5208*
G75*
G02X5299I46*
G01*
X5303*
G75*
G02X5404I51*
G01*
X5679*
X5753Y889*
Y903*
X5776Y925*
X5807*
X5829Y903*
Y872*
X5807Y850*
X5787*
X5759Y825*
X5879*
Y1194*
X4905*
Y1121*
X4925Y1101*
X5051*
X5063Y1113*
X5094*
X5117Y1091*
Y1059*
X5094Y1037*
X5063*
X5051Y1049*
X4914*
G75*
G02X4896Y1057J26*
G01*
X4860Y1092*
G75*
G02X4853Y1110I18J18*
G01*
Y1194*
X4614*
X4617Y1191*
Y1159*
X4598Y1140*
X4753*
Y1141*
X4776Y1163*
X4807*
X4829Y1141*
Y1109*
X4807Y1087*
X4789*
G75*
G02X4779Y1085I-10J25*
G01*
X4380*
X4369Y1075*
X4354*
X4390Y1039*
X4514*
X4526Y1050*
X4557*
X4579Y1028*
Y997*
X4557Y975*
X4526*
X4514Y987*
X4379*
G75*
G02X4360Y994J26*
G01*
X4161Y1194*
X3942*
G37*
X3864Y475D02*
G36*
Y525D01*
G75*
G02X3872Y545I28J0*
G01*
X3876Y549*
Y825*
X3079*
Y475*
X3864*
G37*
X4169D02*
G36*
Y361D01*
X4196*
Y253*
X4217*
X4251Y287*
G75*
G02X4228Y313I2J26*
G01*
Y360*
X4216Y372*
Y403*
X4238Y426*
X4269*
X4292Y403*
Y372*
X4281Y361*
X4362*
Y328*
X5045*
Y360*
X5076*
Y475*
X5040*
G75*
G02X4868I-86*
G01*
X4540*
G75*
G02X4368I-86*
G01*
X4169*
G37*
X4368D02*
G36*
G75*
G02X4540I86D01*
G01*
X4868*
G75*
G02X5040I86*
G01*
X5076*
Y625*
G75*
G02X5084Y644I28J0*
G01*
X5124Y684*
G75*
G02X5058Y725I-20J41*
G01*
G75*
G02X5149I46*
G01*
G75*
G02X5145Y705I-46*
G01*
X5158Y719*
G75*
G02X5158Y725I45J6*
G01*
G75*
G02X5249I46*
G01*
G75*
G02X5245Y705I-46J0*
G01*
G75*
G02X5247Y707I22J-17*
G01*
X5258Y719*
G75*
G02X5258Y725I45J6*
G01*
G75*
G02X5341Y751I46*
G01*
X5594*
X5679Y825*
X5404*
G75*
G02X5303I-51*
G01*
X5299*
G75*
G02X5208I-46*
G01*
X5199*
G75*
G02X5108I-46*
G01*
G75*
G02X5108Y831I46*
G01*
X5095Y845*
G75*
G02X5099Y825I-41J-20*
G01*
G75*
G02X5008I-46*
G01*
G75*
G02X5024Y860I46*
G01*
X4606*
X4615Y851*
X4632*
X4654Y828*
Y797*
X4632Y774*
X4601*
X4582Y793*
X4559Y769*
X4523*
X4498Y795*
Y830*
X4523Y856*
X4536*
X4531Y862*
X4439*
G75*
G02X4454Y825I-35J-37*
G01*
G75*
G02X4353I-51*
G01*
G75*
G02X4369Y862I51*
G01*
X4331*
G75*
G02X4349Y825I-28J-37*
G01*
G75*
G02X4258I-46*
G01*
G75*
G02X4276Y862I46*
G01*
X4231*
G75*
G02X4249Y825I-28J-37*
G01*
G75*
G02X4158I-46*
G01*
G75*
G02X4159Y833I46J0*
G01*
X4142Y850*
G75*
G02X4149Y825I-38J-25*
G01*
G75*
G02X4058I-46*
G01*
G75*
G02X4074Y860I46*
G01*
X4019*
Y754*
G75*
G02X4099Y719I35J-29*
G01*
X4113Y705*
G75*
G02X4108Y725I41J20*
G01*
G75*
G02X4199I46*
G01*
G75*
G02X4183Y690I-46*
G01*
X4224*
G75*
G02X4208Y725I29J35*
G01*
G75*
G02X4299I46*
G01*
G75*
G02X4283Y690I-46*
G01*
X4324*
G75*
G02X4308Y725I29J35*
G01*
G75*
G02X4399I46*
G01*
G75*
G02X4383Y690I-46*
G01*
X4930*
X4958Y719*
G75*
G02X4958Y725I45J6*
G01*
G75*
G02X5049I46*
G01*
G75*
G02X4997Y680I-46*
G01*
X4961Y643*
G75*
G02X4941Y635I-20J19*
G01*
X4167*
G75*
G02X4169Y625I-26J-10*
G01*
Y475*
X4368*
G37*
X5318D02*
G36*
G75*
G02X5490I86D01*
G01*
X5879*
Y825*
X5759*
X5621Y705*
G75*
G02X5604Y699I-17J20*
G01*
X5341*
G75*
G02X5297Y680I-38J26*
G01*
X5294Y676*
Y475*
X5318*
G37*
X3192Y1856D02*
X3209Y1873D01*
X3249*
X3277Y1845*
Y1805*
X3260Y1788*
X3281*
Y1873*
X3377*
Y1851*
X3431*
Y1899*
X3371*
X3349Y1877*
X3309*
X3281Y1905*
Y1945*
X3309Y1973*
X3349*
X3371Y1951*
X3431*
Y1952*
X3461*
G75*
G02X3472I6J-27*
G01*
X3526*
Y1951*
X3649*
X3641Y1959*
Y1976*
X3618Y1999*
X3371*
X3349Y1977*
X3309*
X3282Y2004*
Y2003*
X3251Y1972*
X3250*
X3277Y1945*
Y1905*
X3249Y1877*
X3209*
X3192Y1894*
Y1856*
G36*
X3209Y1873*
X3249*
X3277Y1845*
Y1805*
X3260Y1788*
X3281*
Y1873*
X3377*
Y1851*
X3431*
Y1899*
X3371*
X3349Y1877*
X3309*
X3281Y1905*
Y1945*
X3309Y1973*
X3349*
X3371Y1951*
X3431*
Y1952*
X3461*
G75*
G02X3472I6J-27*
G01*
X3526*
Y1951*
X3649*
X3641Y1959*
Y1976*
X3618Y1999*
X3371*
X3349Y1977*
X3309*
X3282Y2004*
Y2003*
X3251Y1972*
X3250*
X3277Y1945*
Y1905*
X3249Y1877*
X3209*
X3192Y1894*
Y1856*
G37*
Y2063D02*
X3207Y2078D01*
X3251*
X3282Y2047*
Y2046*
X3309Y2073*
X3349*
X3371Y2051*
X3629*
G75*
G02X3647Y2043J-26*
G01*
X3678Y2013*
X3694*
X3717Y1991*
Y1959*
X3708Y1951*
X4054*
G75*
G02X4104Y1950I24J-26*
G01*
X4454Y1600*
X4457*
X4460Y1598*
X4820*
X4857Y1634*
X4897Y1675*
G75*
G02X4922Y1686I25J-25*
G01*
X5018*
G75*
G02X5044Y1675J-36*
G01*
X5121Y1598*
X5202*
X5605Y2001*
X5265Y2341*
X5120*
X5101Y2322*
X5057*
X5032Y2347*
X5014Y2328*
G75*
G02X5019Y2313I-23J-16*
G01*
Y2301*
X5029Y2291*
Y2259*
X5017Y2247*
Y2000*
G75*
G02X5010Y1982I-26*
G01*
X4910Y1882*
G75*
G02X4891Y1874I-18J18*
G01*
X4525*
X4505Y1854*
Y1711*
X4528Y1688*
X4544*
X4567Y1666*
Y1634*
X4544Y1612*
X4513*
X4491Y1634*
Y1651*
X4460Y1682*
G75*
G02X4453Y1700I18J18*
G01*
Y1865*
G75*
G02X4460Y1883I26*
G01*
X4496Y1918*
G75*
G02X4514Y1926I18J-18*
G01*
X4881*
X4892Y1937*
X4876*
X4853Y1959*
Y1970*
X4721Y2062*
X4294*
X4282Y2050*
X4251*
X4239Y2062*
X3816*
G75*
G02X3798Y2069J26*
G01*
X3680Y2187*
X3663*
X3641Y2209*
Y2241*
X3663Y2263*
X3694*
X3704Y2254*
X3726Y2276*
X3742*
X3753Y2287*
X3250*
X3192Y2229*
Y2063*
X4545Y1776D02*
X4583Y1818D01*
G75*
G02X4604Y1828I21J-18*
G01*
X5008*
X5018Y1838*
X5049*
X5072Y1815*
Y1784*
X5049Y1762*
X5018*
X5007Y1772*
X4616*
X4586Y1739*
Y1722*
X4564Y1700*
X4532*
X4510Y1722*
Y1753*
X4532Y1776*
X4545*
X4505Y1769D02*
G36*
Y1711D01*
X4528Y1688*
X4544*
X4567Y1666*
Y1634*
X4544Y1612*
X4513*
X4491Y1634*
Y1651*
X4460Y1682*
G75*
G02X4453Y1700I18J18*
G01*
Y1865*
G75*
G02X4460Y1883I26*
G01*
X4496Y1918*
G75*
G02X4514Y1926I18J-18*
G01*
X4881*
X4892Y1937*
X4876*
X4853Y1959*
Y1970*
X4721Y2062*
X4294*
X4282Y2050*
X4251*
X4239Y2062*
X3816*
G75*
G02X3798Y2069J26*
G01*
X3680Y2187*
X3663*
X3641Y2209*
Y2241*
X3663Y2263*
X3694*
X3704Y2254*
X3726Y2276*
X3742*
X3753Y2287*
X3250*
X3192Y2229*
Y2063*
X3207Y2078*
X3251*
X3282Y2047*
Y2046*
X3309Y2073*
X3349*
X3371Y2051*
X3629*
G75*
G02X3647Y2043J-26*
G01*
X3678Y2013*
X3694*
X3717Y1991*
Y1959*
X3708Y1951*
X4054*
G75*
G02X4104Y1950I24J-26*
G01*
X4454Y1600*
X4457*
X4460Y1598*
X4820*
X4857Y1634*
X4897Y1675*
G75*
G02X4922Y1686I25J-25*
G01*
X5018*
G75*
G02X5044Y1675J-36*
G01*
X5121Y1598*
X5202*
X5372Y1769*
X5056*
X5049Y1762*
X5018*
X5007Y1772*
X4616*
X4586Y1739*
Y1722*
X4564Y1700*
X4532*
X4510Y1722*
Y1753*
X4525Y1769*
X4505*
G37*
X4525D02*
G36*
X4532Y1776D01*
X4545*
X4583Y1818*
G75*
G02X4604Y1828I21J-18*
G01*
X5008*
X5018Y1838*
X5049*
X5072Y1815*
Y1784*
X5056Y1769*
X5372*
X5605Y2001*
X5265Y2341*
X5120*
X5101Y2322*
X5057*
X5032Y2347*
X5014Y2328*
G75*
G02X5019Y2313I-23J-16*
G01*
Y2301*
X5029Y2291*
Y2259*
X5017Y2247*
Y2000*
G75*
G02X5010Y1982I-26*
G01*
X4910Y1882*
G75*
G02X4891Y1874I-18J18*
G01*
X4525*
X4505Y1854*
Y1769*
X4525*
G37*
X3229Y1175D02*
X3279Y1225D01*
X3579*
X3229Y3975D02*
X3279Y4025D01*
X3579*
X3329Y1825D02*
X3466D01*
X3479Y1838*
Y1842*
X3329Y1925D02*
X3466D01*
X3329Y4625D02*
X3466D01*
X3479Y4638*
Y4642*
X3466Y1925D02*
X3479Y1908D01*
X3466Y1925D02*
X3479Y1913D01*
Y1908*
X3466Y4725D02*
X3479Y4708D01*
X3466Y4725D02*
X3329D01*
X3466D02*
X3479Y4713D01*
Y4708*
X3679Y1325D02*
X3629Y1275D01*
X3229*
X3679Y1838D02*
X3604Y1763D01*
X3204*
X3166Y1800*
Y2240*
X3239Y2313*
X3766*
X3829Y2375*
X3679Y1975D02*
X3629Y2025D01*
X3329*
X3679Y2225D02*
X3816Y2088D01*
X4266*
X3679Y4125D02*
X3629Y4075D01*
X3229*
X3679Y4638D02*
X3604Y4563D01*
X3204*
X3166Y4600*
Y5040*
X3239Y5113*
X3766*
X3829Y5175*
X3679Y4775D02*
X3629Y4825D01*
X3329*
X3679Y5025D02*
X3816Y4888D01*
X4266*
X3729Y1425D02*
X3679Y1375D01*
X3229*
X3729Y4225D02*
X3679Y4175D01*
X3229*
X3741Y2238D02*
X3816Y2313D01*
X4116*
X4179Y2375*
X3741Y5038D02*
X3816Y5113D01*
X4116*
X4179Y5175*
X3829Y1425D02*
X3841Y1413D01*
X3929*
X4016Y1500*
Y1834*
X3963Y1888*
X3554*
X3516Y1850*
X3479*
Y1842*
X3829Y4225D02*
X3841Y4213D01*
X3929*
X4016Y4300*
Y4634*
X3963Y4687*
X3554*
X3516Y4650*
X3479*
Y4642*
X3841Y2238D02*
X3916Y2163D01*
X3979*
X3841Y5038D02*
X3916Y4962D01*
X3979*
X3879Y1525D02*
X3891Y1513D01*
X3954*
X3979Y1538*
Y1675*
X3229*
X3879Y4325D02*
X3891Y4313D01*
X3954*
X3979Y4337*
Y4475*
X3229*
X3904Y1200D02*
Y538D01*
X3891Y525*
Y305*
X3971Y225*
X4229*
X4304Y300*
X4312Y300*
X3904Y1463D02*
X3891Y1475D01*
X3229*
X3904Y4000D02*
Y3338D01*
X3891Y3325*
Y3105*
X3971Y3025*
X4229*
X4304Y3100*
X4312Y3100*
X3904Y4262D02*
X3891Y4275D01*
X3229*
X3916Y2438D02*
X3591D01*
X3529Y2375*
X3916Y5237D02*
X3591D01*
X3529Y5175*
X3929Y1563D02*
X3916Y1575D01*
X3229*
X3929Y4363D02*
X3916Y4375D01*
X3229*
X4016Y1375D02*
X4379Y1013D01*
X4541*
X4016Y4175D02*
X4379Y3813D01*
X4541*
X4054Y725D02*
X4116Y663D01*
X4941*
X5004Y725*
X4054Y3525D02*
X4116Y3463D01*
X4941*
X5004Y3525*
X4079Y1925D02*
X3466D01*
X4079Y4725D02*
X3466D01*
X4141Y888D02*
X4541D01*
X4141D02*
X4204Y825D01*
X4141Y3688D02*
X4541D01*
X4141D02*
X4204Y3625D01*
X4146Y300D02*
X4141Y313D01*
Y625*
X4066*
X3991Y700*
Y888*
X4141*
X4146Y3100D02*
X4141Y3113D01*
Y3425*
X4066*
X3991Y3500*
Y3688*
X4141*
X4166Y2163D02*
X4216Y2213D01*
X4316*
X4379Y2275*
X4166Y4962D02*
X4216Y5013D01*
X4316*
X4379Y5075*
X4179Y1750D02*
Y1450D01*
X4229Y1400*
X4808*
X4879Y1329*
Y1110*
X4914Y1075*
X5079*
X4179Y4550D02*
Y4250D01*
X4229Y4200*
X4808*
X4879Y4129*
Y3910*
X4914Y3875*
X5079*
X4254Y388D02*
Y313D01*
X4304*
X4312Y300*
X4254Y3188D02*
Y3113D01*
X4304*
X4312Y3100*
Y300D02*
X4316Y300D01*
X5091*
X5095Y300*
X4312Y3100D02*
X4316Y3100D01*
X5091*
X5095Y3100*
X4379Y1200D02*
X4404Y1225D01*
X4541*
X4379Y2375D02*
X4316Y2438D01*
X3916*
X4379Y4000D02*
X4404Y4025D01*
X4541*
X4379Y5175D02*
X4316Y5237D01*
X3916*
X4404Y1513D02*
X4991D01*
X4404Y4313D02*
X4991D01*
X4429Y200D02*
X5191D01*
X5254Y288*
X5261Y300*
X4429Y3000D02*
X5191D01*
X5254Y3088*
X5261Y3100*
X4441Y1175D02*
X4579D01*
X4441Y3975D02*
X4579D01*
X4529Y1650D02*
X4479Y1700D01*
Y1865*
X4514Y1900*
X4891*
X4991Y2000*
Y2275*
X4529Y4450D02*
X4479Y4500D01*
Y4665*
X4514Y4700*
X4891*
X4991Y4800*
Y5075*
X4541Y813D02*
X4529Y825D01*
X4404*
X4541Y888D02*
X4616Y813D01*
X4541Y3613D02*
X4529Y3625D01*
X4404*
X4541Y3688D02*
X4616Y3613D01*
X4548Y1738D02*
X4604Y1800D01*
X4616Y1800*
X5034*
X4548Y4538D02*
X4604Y4600D01*
X4616Y4599*
X5034*
X4779Y2375D02*
X4941Y2213D01*
X4779Y5175D02*
X4941Y5013D01*
X4791Y1125D02*
X4779Y1113D01*
X4354*
X4791Y3925D02*
X4779Y3913D01*
X4354*
X4891Y1975D02*
X4729Y2088D01*
X4266*
X4891Y4775D02*
X4729Y4888D01*
X4266*
X4991Y2275D02*
Y2313D01*
X4941*
X4879Y2375*
X4991Y5075D02*
Y5113D01*
X4941*
X4879Y5175*
X5095Y300D02*
X5104Y300D01*
Y625*
X5204Y725*
X5095Y3100D02*
X5104Y3100D01*
Y3425*
X5204Y3525*
X5154Y825D02*
X5091Y888D01*
X4541*
X5154Y3625D02*
X5091Y3688D01*
X4541*
X5261Y300D02*
X5266Y300D01*
Y688*
X5304Y725*
Y3525D02*
X5266Y3488D01*
Y3100*
X5261Y3100*
X5354Y825D02*
X5791Y1263D01*
Y2025*
X5354Y3625D02*
X5791Y4063D01*
Y4825*
X5729Y2225D02*
X5791Y2163D01*
Y2025*
X5729Y5025D02*
X5791Y4962D01*
Y4825*
Y888D02*
X5604Y725D01*
X5304*
X5791Y2025D02*
X5729D01*
X5791Y3688D02*
X5604Y3525D01*
X5304*
X5791Y4825D02*
X5729D01*
X6229Y1175D02*
X6279Y1225D01*
X6579*
X6229Y3975D02*
X6279Y4025D01*
X6579*
X6329Y1825D02*
X6466D01*
X6479Y1838*
Y1842*
X6329Y4625D02*
X6466D01*
X6479Y4638*
Y4642*
X6329Y4725D02*
X6466D01*
Y1925D02*
X6479Y1908D01*
X6466Y1925D02*
X6329D01*
X6466D02*
X6479Y1913D01*
Y1908*
X6466Y4725D02*
X6479Y4708D01*
X6466Y4725D02*
X6479Y4713D01*
Y4708*
X6679Y1325D02*
X6629Y1275D01*
X6229*
X6679Y1838D02*
X6604Y1763D01*
X6204*
X6166Y1800*
Y2240*
X6239Y2313*
X6766*
X6829Y2375*
X6679Y1975D02*
X6629Y2025D01*
X6329*
X6679Y2225D02*
X6816Y2088D01*
X7266*
X6679Y4125D02*
X6629Y4075D01*
X6229*
X6679Y4638D02*
X6604Y4563D01*
X6204*
X6166Y4600*
Y5040*
X6239Y5113*
X6766*
X6829Y5175*
X6679Y4775D02*
X6629Y4825D01*
X6329*
X6679Y5025D02*
X6816Y4888D01*
X7266*
X6729Y1425D02*
X6679Y1375D01*
X6229*
X6729Y4225D02*
X6679Y4175D01*
X6229*
X6741Y2238D02*
X6816Y2313D01*
X7116*
X7179Y2375*
X6741Y5038D02*
X6816Y5113D01*
X7116*
X7179Y5175*
X6829Y1425D02*
X6841Y1413D01*
X6929*
X7016Y1500*
Y1834*
X6963Y1888*
X6554*
X6516Y1850*
X6479*
Y1842*
X6829Y4225D02*
X6841Y4213D01*
X6929*
X7016Y4300*
Y4634*
X6963Y4687*
X6554*
X6516Y4650*
X6479*
Y4642*
X6841Y2238D02*
X6916Y2163D01*
X6979*
X6841Y5038D02*
X6916Y4962D01*
X6979*
X6879Y1525D02*
X6891Y1513D01*
X6954*
X6979Y1538*
Y1675*
X6229*
X6879Y4325D02*
X6891Y4313D01*
X6954*
X6979Y4337*
Y4475*
X6229*
X6904Y1200D02*
Y538D01*
X6891Y525*
Y305*
X6971Y225*
X7229*
X7304Y300*
X7312Y300*
X6904Y1463D02*
X6891Y1475D01*
X6229*
X6904Y4000D02*
Y3338D01*
X6891Y3325*
Y3105*
X6971Y3025*
X7229*
X7304Y3100*
X7312Y3100*
X6904Y4262D02*
X6891Y4275D01*
X6229*
X6916Y2438D02*
X6591D01*
X6529Y2375*
X6916Y5237D02*
X6591D01*
X6529Y5175*
X6929Y1563D02*
X6916Y1575D01*
X6229*
X6929Y4363D02*
X6916Y4375D01*
X6229*
X7016Y1375D02*
X7379Y1013D01*
X7541*
X7016Y4175D02*
X7379Y3813D01*
X7541*
X7054Y725D02*
X7116Y663D01*
X7941*
X8004Y725*
X7054Y3525D02*
X7116Y3463D01*
X7941*
X8004Y3525*
X7079Y1925D02*
X6466D01*
X7079Y4725D02*
X6466D01*
X7141Y888D02*
X7541D01*
X7141D02*
X7204Y825D01*
X7141Y3688D02*
X7541D01*
X7141D02*
X7204Y3625D01*
X7146Y300D02*
X7141Y313D01*
Y625*
X7066*
X6991Y700*
Y888*
X7141*
X7146Y3100D02*
X7141Y3113D01*
Y3425*
X7066*
X6991Y3500*
Y3688*
X7141*
X7166Y2163D02*
X7216Y2213D01*
X7316*
X7379Y2275*
X7166Y4962D02*
X7216Y5013D01*
X7316*
X7379Y5075*
X7179Y1750D02*
Y1450D01*
X7229Y1400*
X7808*
X7879Y1329*
Y1110*
X7914Y1075*
X8079*
X7179Y4550D02*
Y4250D01*
X7229Y4200*
X7808*
X7879Y4129*
Y3910*
X7914Y3875*
X8079*
X7254Y388D02*
Y313D01*
X7304*
X7312Y300*
X7254Y3188D02*
Y3113D01*
X7304*
X7312Y3100*
Y300D02*
X7316Y300D01*
X8091*
X8095Y300*
X7312Y3100D02*
X7316Y3100D01*
X8091*
X8095Y3100*
X7379Y1200D02*
X7404Y1225D01*
X7541*
X7379Y2375D02*
X7316Y2438D01*
X6916*
X7379Y4000D02*
X7404Y4025D01*
X7541*
X7379Y5175D02*
X7316Y5237D01*
X6916*
X7404Y1513D02*
X7991D01*
X7404Y4313D02*
X7991D01*
X7429Y200D02*
X8191D01*
X8254Y288*
X8261Y300*
X7429Y3000D02*
X8191D01*
X8254Y3088*
X8261Y3100*
X7441Y1175D02*
X7579D01*
X7441Y3975D02*
X7579D01*
X7529Y1650D02*
X7479Y1700D01*
Y1865*
X7514Y1900*
X7891*
X7991Y2000*
Y2275*
X7529Y4450D02*
X7479Y4500D01*
Y4665*
X7514Y4700*
X7891*
X7991Y4800*
Y5075*
X7541Y813D02*
X7529Y825D01*
X7404*
X7541Y888D02*
X7616Y813D01*
X7541Y3613D02*
X7529Y3625D01*
X7404*
X7541Y3688D02*
X7616Y3613D01*
X7548Y1738D02*
X7604Y1800D01*
X7616Y1800*
X8034*
X7548Y4538D02*
X7604Y4600D01*
X7616Y4599*
X8034*
X7779Y2375D02*
X7941Y2213D01*
X7779Y5175D02*
X7941Y5013D01*
X7791Y1125D02*
X7779Y1113D01*
X7354*
X7791Y3925D02*
X7779Y3913D01*
X7354*
X7891Y1975D02*
X7729Y2088D01*
X7266*
X7891Y4775D02*
X7729Y4888D01*
X7266*
X7991Y2275D02*
Y2313D01*
X7941*
X7879Y2375*
X7991Y5075D02*
Y5113D01*
X7941*
X7879Y5175*
X8095Y300D02*
X8104Y300D01*
Y625*
X8204Y725*
X8095Y3100D02*
X8104Y3100D01*
Y3425*
X8204Y3525*
X8154Y825D02*
X8091Y888D01*
X7541*
X8154Y3625D02*
X8091Y3688D01*
X7541*
X8261Y3100D02*
X8266Y3100D01*
Y3488*
X8304Y3525*
Y725D02*
X8266Y688D01*
Y300*
X8261Y300*
X8354Y825D02*
X8791Y1263D01*
Y2025*
X8354Y3625D02*
X8791Y4063D01*
Y4825*
X8729Y2225D02*
X8791Y2163D01*
Y2025*
X8729Y5025D02*
X8791Y4962D01*
Y4825*
Y888D02*
X8604Y725D01*
X8304*
X8791Y2025D02*
X8729D01*
X8791Y3688D02*
X8604Y3525D01*
X8304*
X8791Y4825D02*
X8729D01*
D02*
D98*
X2536Y223D02*
X2531Y220D01*
X2529Y215*
X2531Y210*
X2536Y207*
X2554*
Y238*
X2536*
X2531Y235*
X2529Y230*
X2531Y225*
X2536Y223*
X2554*
X2514Y218D02*
Y228D01*
X2511Y233*
X2509Y235*
X2504Y238*
X2499*
X2494Y235*
X2491Y233*
X2489Y228*
Y218*
X2491Y213*
X2494Y210*
X2499Y207*
X2504*
X2509Y210*
X2511Y213*
X2514Y218*
X2461Y207D02*
Y238D01*
X2474D02*
X2449D01*
X2421Y207D02*
Y238D01*
X2434D02*
X2409D01*
X2394Y218D02*
Y228D01*
X2391Y233*
X2389Y235*
X2384Y238*
X2379*
X2374Y235*
X2371Y233*
X2369Y228*
Y218*
X2371Y213*
X2374Y210*
X2379Y207*
X2384*
X2389Y210*
X2391Y213*
X2394Y218*
X2354Y207D02*
Y238D01*
X2341Y223*
X2329Y238*
Y207*
X2536Y3023D02*
X2531Y3020D01*
X2529Y3015*
X2531Y3010*
X2536Y3008*
X2554*
Y3038*
X2536*
X2531Y3035*
X2529Y3030*
X2531Y3025*
X2536Y3023*
X2554*
X2514Y3018D02*
Y3028D01*
X2511Y3033*
X2509Y3035*
X2504Y3038*
X2499*
X2494Y3035*
X2491Y3033*
X2489Y3028*
Y3018*
X2491Y3013*
X2494Y3010*
X2499Y3008*
X2504*
X2509Y3010*
X2511Y3013*
X2514Y3018*
X2461Y3008D02*
Y3038D01*
X2474D02*
X2449D01*
X2421Y3008D02*
Y3038D01*
X2434D02*
X2409D01*
X2394Y3018D02*
Y3028D01*
X2391Y3033*
X2389Y3035*
X2384Y3038*
X2379*
X2374Y3035*
X2371Y3033*
X2369Y3028*
Y3018*
X2371Y3013*
X2374Y3010*
X2379Y3008*
X2384*
X2389Y3010*
X2391Y3013*
X2394Y3018*
X2354Y3008D02*
Y3038D01*
X2341Y3023*
X2329Y3038*
Y3008*
X5536Y223D02*
X5531Y220D01*
X5529Y215*
X5531Y210*
X5536Y207*
X5554*
Y238*
X5536*
X5531Y235*
X5529Y230*
X5531Y225*
X5536Y223*
X5554*
X5514Y218D02*
Y228D01*
X5511Y233*
X5509Y235*
X5504Y238*
X5499*
X5494Y235*
X5491Y233*
X5489Y228*
Y218*
X5491Y213*
X5494Y210*
X5499Y207*
X5504*
X5509Y210*
X5511Y213*
X5514Y218*
X5461Y207D02*
Y238D01*
X5474D02*
X5449D01*
X5421Y207D02*
Y238D01*
X5434D02*
X5409D01*
X5394Y218D02*
Y228D01*
X5391Y233*
X5389Y235*
X5384Y238*
X5379*
X5374Y235*
X5371Y233*
X5369Y228*
Y218*
X5371Y213*
X5374Y210*
X5379Y207*
X5384*
X5389Y210*
X5391Y213*
X5394Y218*
X5354Y207D02*
Y238D01*
X5341Y223*
X5329Y238*
Y207*
X5536Y3023D02*
X5531Y3020D01*
X5529Y3015*
X5531Y3010*
X5536Y3008*
X5554*
Y3038*
X5536*
X5531Y3035*
X5529Y3030*
X5531Y3025*
X5536Y3023*
X5554*
X5514Y3018D02*
Y3028D01*
X5511Y3033*
X5509Y3035*
X5504Y3038*
X5499*
X5494Y3035*
X5491Y3033*
X5489Y3028*
Y3018*
X5491Y3013*
X5494Y3010*
X5499Y3008*
X5504*
X5509Y3010*
X5511Y3013*
X5514Y3018*
X5461Y3008D02*
Y3038D01*
X5474D02*
X5449D01*
X5421Y3008D02*
Y3038D01*
X5434D02*
X5409D01*
X5394Y3018D02*
Y3028D01*
X5391Y3033*
X5389Y3035*
X5384Y3038*
X5379*
X5374Y3035*
X5371Y3033*
X5369Y3028*
Y3018*
X5371Y3013*
X5374Y3010*
X5379Y3008*
X5384*
X5389Y3010*
X5391Y3013*
X5394Y3018*
X5354Y3008D02*
Y3038D01*
X5341Y3023*
X5329Y3038*
Y3008*
X8536Y223D02*
X8531Y220D01*
X8529Y215*
X8531Y210*
X8536Y207*
X8554*
Y238*
X8536*
X8531Y235*
X8529Y230*
X8531Y225*
X8536Y223*
X8554*
X8514Y218D02*
Y228D01*
X8511Y233*
X8509Y235*
X8504Y238*
X8499*
X8494Y235*
X8491Y233*
X8489Y228*
Y218*
X8491Y213*
X8494Y210*
X8499Y207*
X8504*
X8509Y210*
X8511Y213*
X8514Y218*
X8461Y207D02*
Y238D01*
X8474D02*
X8449D01*
X8421Y207D02*
Y238D01*
X8434D02*
X8409D01*
X8394Y218D02*
Y228D01*
X8391Y233*
X8389Y235*
X8384Y238*
X8379*
X8374Y235*
X8371Y233*
X8369Y228*
Y218*
X8371Y213*
X8374Y210*
X8379Y207*
X8384*
X8389Y210*
X8391Y213*
X8394Y218*
X8354Y207D02*
Y238D01*
X8341Y223*
X8329Y238*
Y207*
X8536Y3023D02*
X8531Y3020D01*
X8529Y3015*
X8531Y3010*
X8536Y3008*
X8554*
Y3038*
X8536*
X8531Y3035*
X8529Y3030*
X8531Y3025*
X8536Y3023*
X8554*
X8514Y3018D02*
Y3028D01*
X8511Y3033*
X8509Y3035*
X8504Y3038*
X8499*
X8494Y3035*
X8491Y3033*
X8489Y3028*
Y3018*
X8491Y3013*
X8494Y3010*
X8499Y3008*
X8504*
X8509Y3010*
X8511Y3013*
X8514Y3018*
X8461Y3008D02*
Y3038D01*
X8474D02*
X8449D01*
X8421Y3008D02*
Y3038D01*
X8434D02*
X8409D01*
X8394Y3018D02*
Y3028D01*
X8391Y3033*
X8389Y3035*
X8384Y3038*
X8379*
X8374Y3035*
X8371Y3033*
X8369Y3028*
Y3018*
X8371Y3013*
X8374Y3010*
X8379Y3008*
X8384*
X8389Y3010*
X8391Y3013*
X8394Y3018*
X8354Y3008D02*
Y3038D01*
X8341Y3023*
X8329Y3038*
Y3008*
D02*
D99*
X1054Y725D03*
Y3525D03*
X1104Y825D03*
Y3625D03*
X1154Y725D03*
Y3525D03*
X1204Y825D03*
Y3625D03*
X1254Y725D03*
Y3525D03*
X1304Y825D03*
Y3625D03*
X1354Y725D03*
Y3525D03*
X1404Y825D03*
Y3625D03*
X2004Y725D03*
Y3525D03*
X2054Y825D03*
Y3625D03*
X2104Y725D03*
Y3525D03*
X2154Y825D03*
Y3625D03*
X2204Y725D03*
Y3525D03*
X2254Y825D03*
Y3625D03*
X2304Y725D03*
Y3525D03*
X2354Y825D03*
Y3625D03*
X4054Y725D03*
Y3525D03*
X4104Y825D03*
Y3625D03*
X4154Y725D03*
Y3525D03*
X4204Y825D03*
Y3625D03*
X4254Y725D03*
Y3525D03*
X4304Y825D03*
Y3625D03*
X4354Y725D03*
Y3525D03*
X4404Y825D03*
Y3625D03*
X5004Y725D03*
Y3525D03*
X5054Y825D03*
Y3625D03*
X5104Y725D03*
Y3525D03*
X5154Y825D03*
Y3625D03*
X5204Y725D03*
Y3525D03*
X5254Y825D03*
Y3625D03*
X5304Y725D03*
Y3525D03*
X5354Y825D03*
Y3625D03*
X7054Y725D03*
Y3525D03*
X7104Y825D03*
Y3625D03*
X7154Y725D03*
Y3525D03*
X7204Y825D03*
Y3625D03*
X7254Y725D03*
Y3525D03*
X7304Y825D03*
Y3625D03*
X7354Y725D03*
Y3525D03*
X7404Y825D03*
Y3625D03*
X8004Y725D03*
Y3525D03*
X8054Y825D03*
Y3625D03*
X8104Y725D03*
Y3525D03*
X8154Y825D03*
Y3625D03*
X8204Y725D03*
Y3525D03*
X8254Y825D03*
Y3625D03*
X8304Y725D03*
Y3525D03*
X8354Y825D03*
Y3625D03*
D02*
D100*
X1004Y475D03*
Y3275D03*
X1454Y475D03*
Y3275D03*
X1954Y475D03*
Y3275D03*
X2404Y475D03*
Y3275D03*
X4004Y475D03*
Y3275D03*
X4454Y475D03*
Y3275D03*
X4954Y475D03*
Y3275D03*
X5404Y475D03*
Y3275D03*
X7004Y475D03*
Y3275D03*
X7454Y475D03*
Y3275D03*
X7954Y475D03*
Y3275D03*
X8404Y475D03*
Y3275D03*
D02*
D101*
X1146Y300D03*
Y3100D03*
X1312Y300D03*
Y3100D03*
X2095Y300D03*
Y3100D03*
X2261Y300D03*
Y3100D03*
X4146Y300D03*
Y3100D03*
X4312Y300D03*
Y3100D03*
X5095Y300D03*
Y3100D03*
X5261Y300D03*
Y3100D03*
X7146Y300D03*
Y3100D03*
X7312Y300D03*
Y3100D03*
X8095Y300D03*
Y3100D03*
X8261Y300D03*
Y3100D03*
D02*
D102*
X329Y1825D03*
Y4625D03*
X1179Y2275D03*
Y5075D03*
X3329Y1825D03*
Y4625D03*
X4179Y2275D03*
Y5075D03*
X6329Y1825D03*
Y4625D03*
X7179Y2275D03*
Y5075D03*
D02*
D103*
X229Y1825D03*
Y1925D03*
Y2025D03*
Y4625D03*
Y4725D03*
Y4825D03*
X329Y1925D03*
Y2025D03*
Y4725D03*
Y4825D03*
X1179Y2375D03*
Y5175D03*
X1279Y2275D03*
Y2375D03*
Y5075D03*
Y5175D03*
X1379Y2275D03*
Y2375D03*
Y5075D03*
Y5175D03*
X3229Y1825D03*
Y1925D03*
Y2025D03*
Y4625D03*
Y4725D03*
Y4825D03*
X3329Y1925D03*
Y2025D03*
Y4725D03*
Y4825D03*
X4179Y2375D03*
Y5175D03*
X4279Y2275D03*
Y2375D03*
Y5075D03*
Y5175D03*
X4379Y2275D03*
Y2375D03*
Y5075D03*
Y5175D03*
X6229Y1825D03*
Y1925D03*
Y2025D03*
Y4625D03*
Y4725D03*
Y4825D03*
X6329Y1925D03*
Y2025D03*
Y4725D03*
Y4825D03*
X7179Y2375D03*
Y5175D03*
X7279Y2275D03*
Y2375D03*
Y5075D03*
Y5175D03*
X7379Y2275D03*
Y2375D03*
Y5075D03*
Y5175D03*
D02*
D104*
X229Y1675D03*
Y4475D03*
X829Y2375D03*
Y5175D03*
X1779Y2375D03*
Y5175D03*
X2729Y1925D03*
Y4725D03*
X3229Y1675D03*
Y4475D03*
X3829Y2375D03*
Y5175D03*
X4779Y2375D03*
Y5175D03*
X5729Y1925D03*
Y4725D03*
X6229Y1675D03*
Y4475D03*
X6829Y2375D03*
Y5175D03*
X7779Y2375D03*
Y5175D03*
X8729Y1925D03*
Y4725D03*
D02*
D105*
X229Y1175D03*
Y1275D03*
Y1375D03*
Y1475D03*
Y1575D03*
Y3975D03*
Y4075D03*
Y4175D03*
Y4275D03*
Y4375D03*
X529Y2375D03*
Y5175D03*
X629Y2375D03*
Y5175D03*
X729Y2375D03*
Y5175D03*
X1879Y2375D03*
Y5175D03*
X1979Y2375D03*
Y5175D03*
X2079Y2375D03*
Y5175D03*
X2729Y2025D03*
Y2125D03*
Y2225D03*
Y4825D03*
Y4925D03*
Y5025D03*
X3229Y1175D03*
Y1275D03*
Y1375D03*
Y1475D03*
Y1575D03*
Y3975D03*
Y4075D03*
Y4175D03*
Y4275D03*
Y4375D03*
X3529Y2375D03*
Y5175D03*
X3629Y2375D03*
Y5175D03*
X3729Y2375D03*
Y5175D03*
X4879Y2375D03*
Y5175D03*
X4979Y2375D03*
Y5175D03*
X5079Y2375D03*
Y5175D03*
X5729Y2025D03*
Y2125D03*
Y2225D03*
Y4825D03*
Y4925D03*
Y5025D03*
X6229Y1175D03*
Y1275D03*
Y1375D03*
Y1475D03*
Y1575D03*
Y3975D03*
Y4075D03*
Y4175D03*
Y4275D03*
Y4375D03*
X6529Y2375D03*
Y5175D03*
X6629Y2375D03*
Y5175D03*
X6729Y2375D03*
Y5175D03*
X7879Y2375D03*
Y5175D03*
X7979Y2375D03*
Y5175D03*
X8079Y2375D03*
Y5175D03*
X8729Y2025D03*
Y2125D03*
Y2225D03*
Y4825D03*
Y4925D03*
Y5025D03*
D02*
D106*
X479Y1842D03*
Y1908D03*
Y4642D03*
Y4708D03*
X3479Y1842D03*
Y1908D03*
Y4642D03*
Y4708D03*
X6479Y1842D03*
Y1908D03*
Y4642D03*
Y4708D03*
D02*
D107*
X579Y1225D03*
Y4025D03*
X679Y1325D03*
Y1838D03*
Y1975D03*
Y2225D03*
Y4125D03*
Y4638D03*
Y4775D03*
Y5025D03*
X729Y1425D03*
Y4225D03*
X741Y2238D03*
Y5038D03*
X829Y1425D03*
Y4225D03*
X841Y2238D03*
Y5038D03*
X879Y1525D03*
Y4325D03*
X904Y1200D03*
Y1463D03*
Y4000D03*
Y4262D03*
X916Y2438D03*
Y5237D03*
X929Y1563D03*
Y4363D03*
X979Y2163D03*
Y4962D03*
X1016Y1375D03*
Y4175D03*
X1166Y2163D03*
Y4962D03*
X1179Y1750D03*
Y4550D03*
X1254Y388D03*
Y3188D03*
X1266Y2088D03*
Y4888D03*
X1354Y1113D03*
Y3913D03*
X1379Y1200D03*
Y4000D03*
X1404Y1513D03*
Y4313D03*
X1429Y200D03*
Y3000D03*
X1441Y1175D03*
Y1563D03*
Y3975D03*
Y4363D03*
X1529Y1650D03*
Y4450D03*
X1541Y813D03*
Y1013D03*
Y1225D03*
Y3613D03*
Y3813D03*
Y4025D03*
X1548Y1738D03*
Y4538D03*
X1579Y1175D03*
Y3975D03*
X1616Y813D03*
Y3613D03*
X1791Y1125D03*
Y3925D03*
X1891Y1975D03*
Y4775D03*
X1941Y2213D03*
Y5013D03*
X1991Y1513D03*
Y2275D03*
Y4313D03*
Y5075D03*
X2034Y1800D03*
Y4599D03*
X2079Y1075D03*
Y3875D03*
X2791Y888D03*
Y3688D03*
X3579Y1225D03*
Y4025D03*
X3679Y1325D03*
Y1838D03*
Y1975D03*
Y2225D03*
Y4125D03*
Y4638D03*
Y4775D03*
Y5025D03*
X3729Y1425D03*
Y4225D03*
X3741Y2238D03*
Y5038D03*
X3829Y1425D03*
Y4225D03*
X3841Y2238D03*
Y5038D03*
X3879Y1525D03*
Y4325D03*
X3904Y1200D03*
Y1463D03*
Y4000D03*
Y4262D03*
X3916Y2438D03*
Y5237D03*
X3929Y1563D03*
Y4363D03*
X3979Y2163D03*
Y4962D03*
X4016Y1375D03*
Y4175D03*
X4166Y2163D03*
Y4962D03*
X4179Y1750D03*
Y4550D03*
X4254Y388D03*
Y3188D03*
X4266Y2088D03*
Y4888D03*
X4354Y1113D03*
Y3913D03*
X4379Y1200D03*
Y4000D03*
X4404Y1513D03*
Y4313D03*
X4429Y200D03*
Y3000D03*
X4441Y1175D03*
Y1563D03*
Y3975D03*
Y4363D03*
X4529Y1650D03*
Y4450D03*
X4541Y813D03*
Y1013D03*
Y1225D03*
Y3613D03*
Y3813D03*
Y4025D03*
X4548Y1738D03*
Y4538D03*
X4579Y1175D03*
Y3975D03*
X4616Y813D03*
Y3613D03*
X4791Y1125D03*
Y3925D03*
X4891Y1975D03*
Y4775D03*
X4941Y2213D03*
Y5013D03*
X4991Y1513D03*
Y2275D03*
Y4313D03*
Y5075D03*
X5034Y1800D03*
Y4599D03*
X5079Y1075D03*
Y3875D03*
X5791Y888D03*
Y3688D03*
X6579Y1225D03*
Y4025D03*
X6679Y1325D03*
Y1838D03*
Y1975D03*
Y2225D03*
Y4125D03*
Y4638D03*
Y4775D03*
Y5025D03*
X6729Y1425D03*
Y4225D03*
X6741Y2238D03*
Y5038D03*
X6829Y1425D03*
Y4225D03*
X6841Y2238D03*
Y5038D03*
X6879Y1525D03*
Y4325D03*
X6904Y1200D03*
Y1463D03*
Y4000D03*
Y4262D03*
X6916Y2438D03*
Y5237D03*
X6929Y1563D03*
Y4363D03*
X6979Y2163D03*
Y4962D03*
X7016Y1375D03*
Y4175D03*
X7166Y2163D03*
Y4962D03*
X7179Y1750D03*
Y4550D03*
X7254Y388D03*
Y3188D03*
X7266Y2088D03*
Y4888D03*
X7354Y1113D03*
Y3913D03*
X7379Y1200D03*
Y4000D03*
X7404Y1513D03*
Y4313D03*
X7429Y200D03*
Y3000D03*
X7441Y1175D03*
Y1563D03*
Y3975D03*
Y4363D03*
X7529Y1650D03*
Y4450D03*
X7541Y813D03*
Y1013D03*
Y1225D03*
Y3613D03*
Y3813D03*
Y4025D03*
X7548Y1738D03*
Y4538D03*
X7579Y1175D03*
Y3975D03*
X7616Y813D03*
Y3613D03*
X7791Y1125D03*
Y3925D03*
X7891Y1975D03*
Y4775D03*
X7941Y2213D03*
Y5013D03*
X7991Y1513D03*
Y2275D03*
Y4313D03*
Y5075D03*
X8034Y1800D03*
Y4599D03*
X8079Y1075D03*
Y3875D03*
X8791Y888D03*
Y3688D03*
D02*
D108*
X279Y275D03*
Y2475D03*
Y3075D03*
Y5275D03*
X2679Y275D03*
Y2475D03*
Y3075D03*
Y5275D03*
X3279Y275D03*
Y2475D03*
Y3075D03*
Y5275D03*
X5679Y275D03*
Y2475D03*
Y3075D03*
Y5275D03*
X6279Y275D03*
Y2475D03*
Y3075D03*
Y5275D03*
X8679Y275D03*
Y2475D03*
Y3075D03*
Y5275D03*
X0Y0D02*
M02*
