%FSLAX23Y23*%
%MOIN*%
G04 EasyPC Gerber Version 14.0.2 Build 2922 *
%ADD94R,0.01959X0.06093*%
%ADD78R,0.03731X0.03337*%
%ADD90R,0.04000X0.05700*%
%ADD93R,0.03731X0.01762*%
%ADD85R,0.05306X0.01762*%
%ADD83R,0.08061X0.01762*%
%ADD84R,0.07400X0.02000*%
%ADD77R,0.03337X0.03731*%
%ADD86R,0.08200X0.04200*%
%ADD89R,0.05306X0.04518*%
%ADD79R,0.07077X0.09243*%
%ADD80R,0.06487X0.05699*%
%ADD82R,0.07983X0.05778*%
%ADD81R,0.09243X0.09439*%
%ADD88R,0.15148X0.15148*%
%ADD22C,0.00100*%
%ADD91C,0.04518*%
%ADD92C,0.05306*%
%ADD87R,0.08061X0.13573*%
X0Y0D02*
D02*
D22*
X2228Y1111D02*
X2330D01*
Y1170*
X2228*
Y1111*
G36*
X2330*
Y1170*
X2228*
Y1111*
G37*
Y1230D02*
X2330D01*
Y1289*
X2228*
Y1230*
G36*
X2330*
Y1289*
X2228*
Y1230*
G37*
Y3911D02*
X2330D01*
Y3970*
X2228*
Y3911*
G36*
X2330*
Y3970*
X2228*
Y3911*
G37*
Y4030D02*
X2330D01*
Y4089*
X2228*
Y4030*
G36*
X2330*
Y4089*
X2228*
Y4030*
G37*
X2428Y1111D02*
X2530D01*
Y1170*
X2428*
Y1111*
G36*
X2530*
Y1170*
X2428*
Y1111*
G37*
Y1230D02*
X2530D01*
Y1289*
X2428*
Y1230*
G36*
X2530*
Y1289*
X2428*
Y1230*
G37*
Y3911D02*
X2530D01*
Y3970*
X2428*
Y3911*
G36*
X2530*
Y3970*
X2428*
Y3911*
G37*
Y4030D02*
X2530D01*
Y4089*
X2428*
Y4030*
G36*
X2530*
Y4089*
X2428*
Y4030*
G37*
X2628Y1111D02*
X2730D01*
Y1170*
X2628*
Y1111*
G36*
X2730*
Y1170*
X2628*
Y1111*
G37*
Y1230D02*
X2730D01*
Y1289*
X2628*
Y1230*
G36*
X2730*
Y1289*
X2628*
Y1230*
G37*
Y3911D02*
X2730D01*
Y3970*
X2628*
Y3911*
G36*
X2730*
Y3970*
X2628*
Y3911*
G37*
Y4030D02*
X2730D01*
Y4089*
X2628*
Y4030*
G36*
X2730*
Y4089*
X2628*
Y4030*
G37*
X5228Y1111D02*
X5330D01*
Y1170*
X5228*
Y1111*
G36*
X5330*
Y1170*
X5228*
Y1111*
G37*
Y1230D02*
X5330D01*
Y1289*
X5228*
Y1230*
G36*
X5330*
Y1289*
X5228*
Y1230*
G37*
Y3911D02*
X5330D01*
Y3970*
X5228*
Y3911*
G36*
X5330*
Y3970*
X5228*
Y3911*
G37*
Y4030D02*
X5330D01*
Y4089*
X5228*
Y4030*
G36*
X5330*
Y4089*
X5228*
Y4030*
G37*
X5428Y1111D02*
X5530D01*
Y1170*
X5428*
Y1111*
G36*
X5530*
Y1170*
X5428*
Y1111*
G37*
Y1230D02*
X5530D01*
Y1289*
X5428*
Y1230*
G36*
X5530*
Y1289*
X5428*
Y1230*
G37*
Y3911D02*
X5530D01*
Y3970*
X5428*
Y3911*
G36*
X5530*
Y3970*
X5428*
Y3911*
G37*
Y4030D02*
X5530D01*
Y4089*
X5428*
Y4030*
G36*
X5530*
Y4089*
X5428*
Y4030*
G37*
X5628Y1111D02*
X5730D01*
Y1170*
X5628*
Y1111*
G36*
X5730*
Y1170*
X5628*
Y1111*
G37*
Y1230D02*
X5730D01*
Y1289*
X5628*
Y1230*
G36*
X5730*
Y1289*
X5628*
Y1230*
G37*
Y3911D02*
X5730D01*
Y3970*
X5628*
Y3911*
G36*
X5730*
Y3970*
X5628*
Y3911*
G37*
Y4030D02*
X5730D01*
Y4089*
X5628*
Y4030*
G36*
X5730*
Y4089*
X5628*
Y4030*
G37*
X8228Y1111D02*
X8330D01*
Y1170*
X8228*
Y1111*
G36*
X8330*
Y1170*
X8228*
Y1111*
G37*
Y1230D02*
X8330D01*
Y1289*
X8228*
Y1230*
G36*
X8330*
Y1289*
X8228*
Y1230*
G37*
Y3911D02*
X8330D01*
Y3970*
X8228*
Y3911*
G36*
X8330*
Y3970*
X8228*
Y3911*
G37*
Y4030D02*
X8330D01*
Y4089*
X8228*
Y4030*
G36*
X8330*
Y4089*
X8228*
Y4030*
G37*
X8428Y1111D02*
X8530D01*
Y1170*
X8428*
Y1111*
G36*
X8530*
Y1170*
X8428*
Y1111*
G37*
Y1230D02*
X8530D01*
Y1289*
X8428*
Y1230*
G36*
X8530*
Y1289*
X8428*
Y1230*
G37*
Y3911D02*
X8530D01*
Y3970*
X8428*
Y3911*
G36*
X8530*
Y3970*
X8428*
Y3911*
G37*
Y4030D02*
X8530D01*
Y4089*
X8428*
Y4030*
G36*
X8530*
Y4089*
X8428*
Y4030*
G37*
X8628Y1111D02*
X8730D01*
Y1170*
X8628*
Y1111*
G36*
X8730*
Y1170*
X8628*
Y1111*
G37*
Y1230D02*
X8730D01*
Y1289*
X8628*
Y1230*
G36*
X8730*
Y1289*
X8628*
Y1230*
G37*
Y3911D02*
X8730D01*
Y3970*
X8628*
Y3911*
G36*
X8730*
Y3970*
X8628*
Y3911*
G37*
Y4030D02*
X8730D01*
Y4089*
X8628*
Y4030*
G36*
X8730*
Y4089*
X8628*
Y4030*
G37*
D02*
D77*
X1179Y1442D03*
Y1508D03*
Y4242D03*
Y4308D03*
X1229Y1442D03*
Y1508D03*
Y4242D03*
Y4308D03*
X1895Y2037D03*
Y2104D03*
Y4837D03*
Y4904D03*
X2054Y1267D03*
Y1333D03*
Y4067D03*
Y4133D03*
X4179Y1442D03*
Y1508D03*
Y4242D03*
Y4308D03*
X4229Y1442D03*
Y1508D03*
Y4242D03*
Y4308D03*
X4895Y2037D03*
Y2104D03*
Y4837D03*
Y4904D03*
X5054Y1267D03*
Y1333D03*
Y4067D03*
Y4133D03*
X7179Y1442D03*
Y1508D03*
Y4242D03*
Y4308D03*
X7229Y1442D03*
Y1508D03*
Y4242D03*
Y4308D03*
X7895Y2037D03*
Y2104D03*
Y4837D03*
Y4904D03*
X8054Y1267D03*
Y1333D03*
Y4067D03*
Y4133D03*
D02*
D78*
X845Y2100D03*
Y2175D03*
Y4900D03*
Y4975D03*
X912Y2100D03*
Y2175D03*
Y4900D03*
Y4975D03*
X3845Y2100D03*
Y2175D03*
Y4900D03*
Y4975D03*
X3912Y2100D03*
Y2175D03*
Y4900D03*
Y4975D03*
X6845Y2100D03*
Y2175D03*
Y4900D03*
Y4975D03*
X6912Y2100D03*
Y2175D03*
Y4900D03*
Y4975D03*
D02*
D79*
X319Y575D03*
Y3375D03*
X439Y575D03*
Y3375D03*
X3319Y575D03*
Y3375D03*
X3439Y575D03*
Y3375D03*
X6319Y575D03*
Y3375D03*
X6439Y575D03*
Y3375D03*
D02*
D80*
X816Y1170D03*
Y1280D03*
Y3970D03*
Y4080D03*
X3816Y1170D03*
Y1280D03*
Y3970D03*
Y4080D03*
X6816Y1170D03*
Y1280D03*
Y3970D03*
Y4080D03*
D02*
D81*
X679Y726D03*
Y924D03*
Y3526D03*
Y3724D03*
X3679Y726D03*
Y924D03*
Y3526D03*
Y3724D03*
X6679Y726D03*
Y924D03*
Y3526D03*
Y3724D03*
D02*
D82*
X1704Y642D03*
Y808D03*
Y3442D03*
Y3608D03*
X4704Y642D03*
Y808D03*
Y3442D03*
Y3608D03*
X7704Y642D03*
Y808D03*
Y3442D03*
Y3608D03*
D02*
D83*
X2026Y2075D03*
Y2125D03*
Y2175D03*
Y2225D03*
Y4875D03*
Y4925D03*
Y4975D03*
Y5025D03*
X2231Y2075D03*
Y2125D03*
Y2175D03*
Y2225D03*
Y4875D03*
Y4925D03*
Y4975D03*
Y5025D03*
X5026Y2075D03*
Y2125D03*
Y2175D03*
Y2225D03*
Y4875D03*
Y4925D03*
Y4975D03*
Y5025D03*
X5231Y2075D03*
Y2125D03*
Y2175D03*
Y2225D03*
Y4875D03*
Y4925D03*
Y4975D03*
Y5025D03*
X8026Y2075D03*
Y2125D03*
Y2175D03*
Y2225D03*
Y4875D03*
Y4925D03*
Y4975D03*
Y5025D03*
X8231Y2075D03*
Y2125D03*
Y2175D03*
Y2225D03*
Y4875D03*
Y4925D03*
Y4975D03*
Y5025D03*
D02*
D84*
X1708Y1025D03*
Y1075D03*
Y1125D03*
Y1175D03*
Y1225D03*
Y1275D03*
Y1325D03*
Y3825D03*
Y3875D03*
Y3925D03*
Y3975D03*
Y4025D03*
Y4075D03*
Y4125D03*
X1950Y1025D03*
Y1075D03*
Y1125D03*
Y1175D03*
Y1225D03*
Y1275D03*
Y1325D03*
Y3825D03*
Y3875D03*
Y3925D03*
Y3975D03*
Y4025D03*
Y4075D03*
Y4125D03*
X4708Y1025D03*
Y1075D03*
Y1125D03*
Y1175D03*
Y1225D03*
Y1275D03*
Y1325D03*
Y3825D03*
Y3875D03*
Y3925D03*
Y3975D03*
Y4025D03*
Y4075D03*
Y4125D03*
X4950Y1025D03*
Y1075D03*
Y1125D03*
Y1175D03*
Y1225D03*
Y1275D03*
Y1325D03*
Y3825D03*
Y3875D03*
Y3925D03*
Y3975D03*
Y4025D03*
Y4075D03*
Y4125D03*
X7708Y1025D03*
Y1075D03*
Y1125D03*
Y1175D03*
Y1225D03*
Y1275D03*
Y1325D03*
Y3825D03*
Y3875D03*
Y3925D03*
Y3975D03*
Y4025D03*
Y4075D03*
Y4125D03*
X7950Y1025D03*
Y1075D03*
Y1125D03*
Y1175D03*
Y1225D03*
Y1275D03*
Y1325D03*
Y3825D03*
Y3875D03*
Y3925D03*
Y3975D03*
Y4025D03*
Y4075D03*
Y4125D03*
D02*
D85*
X970Y1150D03*
Y1200D03*
Y1250D03*
Y1300D03*
Y3950D03*
Y4000D03*
Y4050D03*
Y4100D03*
X1187Y1150D03*
Y1200D03*
Y1250D03*
Y1300D03*
Y3950D03*
Y4000D03*
Y4050D03*
Y4100D03*
X3970Y1150D03*
Y1200D03*
Y1250D03*
Y1300D03*
Y3950D03*
Y4000D03*
Y4050D03*
Y4100D03*
X4187Y1150D03*
Y1200D03*
Y1250D03*
Y1300D03*
Y3950D03*
Y4000D03*
Y4050D03*
Y4100D03*
X6970Y1150D03*
Y1200D03*
Y1250D03*
Y1300D03*
Y3950D03*
Y4000D03*
Y4050D03*
Y4100D03*
X7187Y1150D03*
Y1200D03*
Y1250D03*
Y1300D03*
Y3950D03*
Y4000D03*
Y4050D03*
Y4100D03*
D02*
D86*
X501Y734D03*
Y825D03*
Y916D03*
Y3534D03*
Y3625D03*
Y3716D03*
X3501Y734D03*
Y825D03*
Y916D03*
Y3534D03*
Y3625D03*
Y3716D03*
X6501Y734D03*
Y825D03*
Y916D03*
Y3534D03*
Y3625D03*
Y3716D03*
D02*
D87*
X257Y825D03*
Y3625D03*
X3257Y825D03*
Y3625D03*
X6257Y825D03*
Y3625D03*
D02*
D88*
X2279Y1092D03*
Y1308D03*
Y3892D03*
Y4108D03*
X2479Y1092D03*
Y1308D03*
Y3892D03*
Y4108D03*
X2679Y1092D03*
Y1308D03*
Y3892D03*
Y4108D03*
X5279Y1092D03*
Y1308D03*
Y3892D03*
Y4108D03*
X5479Y1092D03*
Y1308D03*
Y3892D03*
Y4108D03*
X5679Y1092D03*
Y1308D03*
Y3892D03*
Y4108D03*
X8279Y1092D03*
Y1308D03*
Y3892D03*
Y4108D03*
X8479Y1092D03*
Y1308D03*
Y3892D03*
Y4108D03*
X8679Y1092D03*
Y1308D03*
Y3892D03*
Y4108D03*
D02*
D89*
X1079Y1442D03*
Y1508D03*
Y4242D03*
Y4308D03*
X1429Y1292D03*
Y1358D03*
Y4092D03*
Y4158D03*
X1554Y1292D03*
Y1358D03*
Y4092D03*
Y4158D03*
X1668Y2050D03*
Y2116D03*
Y4850D03*
Y4916D03*
X1804Y2042D03*
Y2108D03*
Y4842D03*
Y4908D03*
X2279Y1442D03*
Y1508D03*
Y4242D03*
Y4308D03*
X2479Y1442D03*
Y1508D03*
Y4242D03*
Y4308D03*
X2679Y1442D03*
Y1508D03*
Y4242D03*
Y4308D03*
X4079Y1442D03*
Y1508D03*
Y4242D03*
Y4308D03*
X4429Y1292D03*
Y1358D03*
Y4092D03*
Y4158D03*
X4554Y1292D03*
Y1358D03*
Y4092D03*
Y4158D03*
X4668Y2050D03*
Y2116D03*
Y4850D03*
Y4916D03*
X4804Y2042D03*
Y2108D03*
Y4842D03*
Y4908D03*
X5279Y1442D03*
Y1508D03*
Y4242D03*
Y4308D03*
X5479Y1442D03*
Y1508D03*
Y4242D03*
Y4308D03*
X5679Y1442D03*
Y1508D03*
Y4242D03*
Y4308D03*
X7079Y1442D03*
Y1508D03*
Y4242D03*
Y4308D03*
X7429Y1292D03*
Y1358D03*
Y4092D03*
Y4158D03*
X7554Y1292D03*
Y1358D03*
Y4092D03*
Y4158D03*
X7668Y2050D03*
Y2116D03*
Y4850D03*
Y4916D03*
X7804Y2042D03*
Y2108D03*
Y4842D03*
Y4908D03*
X8279Y1442D03*
Y1508D03*
Y4242D03*
Y4308D03*
X8479Y1442D03*
Y1508D03*
Y4242D03*
Y4308D03*
X8679Y1442D03*
Y1508D03*
Y4242D03*
Y4308D03*
D02*
D90*
X1899Y1875D03*
Y4675D03*
X1959Y1875D03*
Y4675D03*
X4899Y1875D03*
Y4675D03*
X4959Y1875D03*
Y4675D03*
X7899Y1875D03*
Y4675D03*
X7959Y1875D03*
Y4675D03*
D02*
D91*
X879Y725D03*
Y3525D03*
X892Y1082D03*
Y3882D03*
X1179Y1350D03*
Y4150D03*
X1279Y1100D03*
Y1200D03*
Y1567D03*
Y3900D03*
Y4000D03*
Y4367D03*
X1354Y2125D03*
Y4925D03*
X1429Y2125D03*
Y4925D03*
X1579Y1075D03*
Y3875D03*
X1779Y400D03*
Y3200D03*
X3879Y725D03*
Y3525D03*
X3892Y1082D03*
Y3882D03*
X4179Y1350D03*
Y4150D03*
X4279Y1100D03*
Y1200D03*
Y1567D03*
Y3900D03*
Y4000D03*
Y4367D03*
X4354Y2125D03*
Y4925D03*
X4429Y2125D03*
Y4925D03*
X4579Y1075D03*
Y3875D03*
X4779Y400D03*
Y3200D03*
X6879Y725D03*
Y3525D03*
X6892Y1082D03*
Y3882D03*
X7179Y1350D03*
Y4150D03*
X7279Y1100D03*
Y1200D03*
Y1567D03*
Y3900D03*
Y4000D03*
Y4367D03*
X7354Y2125D03*
Y4925D03*
X7429Y2125D03*
Y4925D03*
X7579Y1075D03*
Y3875D03*
X7779Y400D03*
Y3200D03*
D02*
D92*
X204Y575D03*
Y3375D03*
X504Y1025D03*
Y3825D03*
X3204Y575D03*
Y3375D03*
X3504Y1025D03*
Y3825D03*
X6204Y575D03*
Y3375D03*
X6504Y1025D03*
Y3825D03*
D02*
D93*
X2054Y1875D03*
Y1913D03*
Y1950D03*
Y4675D03*
Y4713D03*
Y4750D03*
X2164Y1875D03*
Y1950D03*
Y4675D03*
Y4750D03*
X5054Y1875D03*
Y1913D03*
Y1950D03*
Y4675D03*
Y4713D03*
Y4750D03*
X5164Y1875D03*
Y1950D03*
Y4675D03*
Y4750D03*
X8054Y1875D03*
Y1913D03*
Y1950D03*
Y4675D03*
Y4713D03*
Y4750D03*
X8164Y1875D03*
Y1950D03*
Y4675D03*
Y4750D03*
D02*
D94*
X829Y1637D03*
Y2013D03*
Y4437D03*
Y4813D03*
X879Y1637D03*
Y2013D03*
Y4437D03*
Y4813D03*
X929Y1637D03*
Y2013D03*
Y4437D03*
Y4813D03*
X979Y1637D03*
Y2013D03*
Y4437D03*
Y4813D03*
X1029Y1637D03*
Y2013D03*
Y4437D03*
Y4813D03*
X1079Y1637D03*
Y2013D03*
Y4437D03*
Y4813D03*
X1129Y1637D03*
Y2013D03*
Y4437D03*
Y4813D03*
X1179Y1637D03*
Y2013D03*
Y4437D03*
Y4813D03*
X1229Y1637D03*
Y2013D03*
Y4437D03*
Y4813D03*
X1279Y1637D03*
Y2013D03*
Y4437D03*
Y4813D03*
X1329Y1637D03*
Y2013D03*
Y4437D03*
Y4813D03*
X1379Y1637D03*
Y2013D03*
Y4437D03*
Y4813D03*
X1429Y1637D03*
Y2013D03*
Y4437D03*
Y4813D03*
X1479Y1637D03*
Y2013D03*
Y4437D03*
Y4813D03*
X3829Y1637D03*
Y2013D03*
Y4437D03*
Y4813D03*
X3879Y1637D03*
Y2013D03*
Y4437D03*
Y4813D03*
X3929Y1637D03*
Y2013D03*
Y4437D03*
Y4813D03*
X3979Y1637D03*
Y2013D03*
Y4437D03*
Y4813D03*
X4029Y1637D03*
Y2013D03*
Y4437D03*
Y4813D03*
X4079Y1637D03*
Y2013D03*
Y4437D03*
Y4813D03*
X4129Y1637D03*
Y2013D03*
Y4437D03*
Y4813D03*
X4179Y1637D03*
Y2013D03*
Y4437D03*
Y4813D03*
X4229Y1637D03*
Y2013D03*
Y4437D03*
Y4813D03*
X4279Y1637D03*
Y2013D03*
Y4437D03*
Y4813D03*
X4329Y1637D03*
Y2013D03*
Y4437D03*
Y4813D03*
X4379Y1637D03*
Y2013D03*
Y4437D03*
Y4813D03*
X4429Y1637D03*
Y2013D03*
Y4437D03*
Y4813D03*
X4479Y1637D03*
Y2013D03*
Y4437D03*
Y4813D03*
X6829Y1637D03*
Y2013D03*
Y4437D03*
Y4813D03*
X6879Y1637D03*
Y2013D03*
Y4437D03*
Y4813D03*
X6929Y1637D03*
Y2013D03*
Y4437D03*
Y4813D03*
X6979Y1637D03*
Y2013D03*
Y4437D03*
Y4813D03*
X7029Y1637D03*
Y2013D03*
Y4437D03*
Y4813D03*
X7079Y1637D03*
Y2013D03*
Y4437D03*
Y4813D03*
X7129Y1637D03*
Y2013D03*
Y4437D03*
Y4813D03*
X7179Y1637D03*
Y2013D03*
Y4437D03*
Y4813D03*
X7229Y1637D03*
Y2013D03*
Y4437D03*
Y4813D03*
X7279Y1637D03*
Y2013D03*
Y4437D03*
Y4813D03*
X7329Y1637D03*
Y2013D03*
Y4437D03*
Y4813D03*
X7379Y1637D03*
Y2013D03*
Y4437D03*
Y4813D03*
X7429Y1637D03*
Y2013D03*
Y4437D03*
Y4813D03*
X7479Y1637D03*
Y2013D03*
Y4437D03*
Y4813D03*
X0Y0D02*
M02*
