G75*
G70*
%OFA0B0*%
%FSLAX24Y24*%
%IPPOS*%
%LPD*%
%AMOC8*
5,1,8,0,0,1.08239X$1,22.5*
%
%ADD10R,0.0671X0.0592*%
%ADD11C,0.1360*%
%ADD12C,0.0634*%
%ADD13R,0.0680X0.0680*%
%ADD14OC8,0.0680*%
%ADD15OC8,0.0600*%
%ADD16C,0.0600*%
%ADD17OC8,0.0780*%
%ADD18R,0.0780X0.0780*%
%ADD19R,0.0938X0.0718*%
%ADD20OC8,0.0710*%
%ADD21C,0.0710*%
%ADD22OC8,0.0674*%
%ADD23OC8,0.0595*%
%ADD24C,0.1580*%
%ADD25C,0.0600*%
%ADD26OC8,0.1080*%
%ADD27OC8,0.0671*%
%ADD28C,0.0480*%
%ADD29R,0.1346X0.1346*%
%ADD30C,0.0516*%
%ADD31C,0.0671*%
%ADD32C,0.0740*%
%ADD33C,0.0640*%
%ADD34C,0.0611*%
%ADD35R,0.1740X0.1740*%
D10*
X006191Y017978D03*
X006191Y018647D03*
X036191Y018647D03*
X036191Y017978D03*
X065691Y017978D03*
X065691Y018647D03*
X095191Y018647D03*
X095191Y017978D03*
D11*
X100441Y004312D03*
X104941Y004312D03*
X107441Y004312D03*
X111941Y004312D03*
X082441Y004312D03*
X077941Y004312D03*
X075441Y004312D03*
X070941Y004312D03*
X052941Y004312D03*
X048441Y004312D03*
X045941Y004312D03*
X041441Y004312D03*
X022941Y004312D03*
X018441Y004312D03*
X015941Y004312D03*
X011441Y004312D03*
X115691Y054562D03*
X115691Y059062D03*
D12*
X113191Y058062D03*
X113191Y057062D03*
X112191Y056562D03*
X112191Y057562D03*
X112191Y058562D03*
X113191Y056062D03*
X113191Y055062D03*
X112191Y055562D03*
X111441Y007812D03*
X110441Y007812D03*
X109441Y007812D03*
X108441Y007812D03*
X107941Y006812D03*
X108941Y006812D03*
X109941Y006812D03*
X110941Y006812D03*
X104441Y007812D03*
X103441Y007812D03*
X102441Y007812D03*
X101441Y007812D03*
X100941Y006812D03*
X101941Y006812D03*
X102941Y006812D03*
X103941Y006812D03*
X081941Y007812D03*
X080941Y007812D03*
X079941Y007812D03*
X078941Y007812D03*
X078441Y006812D03*
X079441Y006812D03*
X080441Y006812D03*
X081441Y006812D03*
X074941Y007812D03*
X073941Y007812D03*
X072941Y007812D03*
X071941Y007812D03*
X071441Y006812D03*
X072441Y006812D03*
X073441Y006812D03*
X074441Y006812D03*
X052441Y007812D03*
X051441Y007812D03*
X050441Y007812D03*
X049441Y007812D03*
X048941Y006812D03*
X049941Y006812D03*
X050941Y006812D03*
X051941Y006812D03*
X045441Y007812D03*
X044441Y007812D03*
X043441Y007812D03*
X042441Y007812D03*
X041941Y006812D03*
X042941Y006812D03*
X043941Y006812D03*
X044941Y006812D03*
X022441Y007812D03*
X021441Y007812D03*
X020441Y007812D03*
X019441Y007812D03*
X018941Y006812D03*
X019941Y006812D03*
X020941Y006812D03*
X021941Y006812D03*
X015441Y007812D03*
X014441Y007812D03*
X013441Y007812D03*
X012441Y007812D03*
X011941Y006812D03*
X012941Y006812D03*
X013941Y006812D03*
X014941Y006812D03*
D13*
X025691Y002812D03*
X034691Y017812D03*
X045191Y017812D03*
X045191Y023312D03*
X064191Y017812D03*
X074691Y017812D03*
X074691Y023312D03*
X093691Y017812D03*
X104191Y017812D03*
X104191Y023312D03*
X114691Y002812D03*
X085191Y002812D03*
X055691Y002812D03*
X015191Y017812D03*
X015191Y023312D03*
X004691Y017812D03*
D14*
X003691Y017812D03*
X003691Y018812D03*
X004691Y018812D03*
X004691Y019812D03*
X003691Y019812D03*
X013191Y022312D03*
X014191Y022312D03*
X015191Y022312D03*
X014191Y023312D03*
X013191Y023312D03*
X015191Y018812D03*
X016191Y018812D03*
X016191Y017812D03*
X033691Y017812D03*
X033691Y018812D03*
X034691Y018812D03*
X034691Y019812D03*
X033691Y019812D03*
X043191Y022312D03*
X044191Y022312D03*
X045191Y022312D03*
X044191Y023312D03*
X043191Y023312D03*
X045191Y018812D03*
X046191Y018812D03*
X046191Y017812D03*
X063191Y017812D03*
X063191Y018812D03*
X064191Y018812D03*
X064191Y019812D03*
X063191Y019812D03*
X072691Y022312D03*
X073691Y022312D03*
X074691Y022312D03*
X073691Y023312D03*
X072691Y023312D03*
X074691Y018812D03*
X075691Y018812D03*
X075691Y017812D03*
X092691Y017812D03*
X092691Y018812D03*
X093691Y018812D03*
X093691Y019812D03*
X092691Y019812D03*
X102191Y022312D03*
X103191Y022312D03*
X104191Y022312D03*
X103191Y023312D03*
X102191Y023312D03*
X104191Y018812D03*
X105191Y018812D03*
X105191Y017812D03*
X114691Y003812D03*
X115691Y003812D03*
X115691Y002812D03*
X116691Y002812D03*
X116691Y003812D03*
X087191Y003812D03*
X087191Y002812D03*
X086191Y002812D03*
X086191Y003812D03*
X085191Y003812D03*
X057691Y003812D03*
X057691Y002812D03*
X056691Y002812D03*
X056691Y003812D03*
X055691Y003812D03*
X027691Y003812D03*
X027691Y002812D03*
X026691Y002812D03*
X026691Y003812D03*
X025691Y003812D03*
D15*
X025191Y005312D03*
X026691Y005312D03*
X028191Y005312D03*
X028191Y009312D03*
X026691Y009312D03*
X025191Y009312D03*
X055191Y009312D03*
X056691Y009312D03*
X058191Y009312D03*
X058191Y005312D03*
X056691Y005312D03*
X055191Y005312D03*
X084691Y005312D03*
X086191Y005312D03*
X087691Y005312D03*
X087691Y009312D03*
X086191Y009312D03*
X084691Y009312D03*
X114191Y009312D03*
X115691Y009312D03*
X117191Y009312D03*
X117191Y005312D03*
X115691Y005312D03*
X114191Y005312D03*
X109691Y032812D03*
X109691Y033812D03*
X104191Y033812D03*
X104191Y032812D03*
X095691Y034812D03*
X095691Y035812D03*
X104191Y051812D03*
X105691Y051812D03*
X108691Y054312D03*
X109691Y054312D03*
X105691Y055812D03*
X104191Y055812D03*
X114691Y061312D03*
X114691Y062812D03*
X114691Y064312D03*
X118691Y064312D03*
X118691Y062812D03*
X118691Y061312D03*
D16*
X084591Y058812D03*
X083591Y058812D03*
X082591Y058812D03*
X081591Y058812D03*
X081591Y055812D03*
X082591Y055812D03*
X083591Y055812D03*
X084591Y055812D03*
X074591Y051612D03*
X073591Y051612D03*
X072591Y051612D03*
X071591Y051612D03*
X069491Y051512D03*
X068491Y051512D03*
X067491Y051512D03*
X066491Y051512D03*
X066491Y048512D03*
X067491Y048512D03*
X068491Y048512D03*
X069491Y048512D03*
X071591Y048612D03*
X072591Y048612D03*
X073591Y048612D03*
X074591Y048612D03*
X074691Y041612D03*
X073691Y041612D03*
X072691Y041612D03*
X071691Y041612D03*
X071691Y038612D03*
X072691Y038612D03*
X073691Y038612D03*
X074691Y038612D03*
X079191Y038612D03*
X080191Y038612D03*
X081191Y038612D03*
X082191Y038612D03*
X082191Y041612D03*
X081191Y041612D03*
X080191Y041612D03*
X079191Y041612D03*
X055091Y055812D03*
X054091Y055812D03*
X053091Y055812D03*
X052091Y055812D03*
X052091Y058812D03*
X053091Y058812D03*
X054091Y058812D03*
X055091Y058812D03*
X045091Y051612D03*
X044091Y051612D03*
X043091Y051612D03*
X042091Y051612D03*
X039991Y051512D03*
X038991Y051512D03*
X037991Y051512D03*
X036991Y051512D03*
X036991Y048512D03*
X037991Y048512D03*
X038991Y048512D03*
X039991Y048512D03*
X042091Y048612D03*
X043091Y048612D03*
X044091Y048612D03*
X045091Y048612D03*
X045191Y041612D03*
X044191Y041612D03*
X043191Y041612D03*
X042191Y041612D03*
X042191Y038612D03*
X043191Y038612D03*
X044191Y038612D03*
X045191Y038612D03*
X049691Y038612D03*
X050691Y038612D03*
X051691Y038612D03*
X052691Y038612D03*
X052691Y041612D03*
X051691Y041612D03*
X050691Y041612D03*
X049691Y041612D03*
X026941Y049312D03*
X025941Y049312D03*
X024941Y049312D03*
X023941Y049312D03*
X023941Y052312D03*
X024941Y052312D03*
X025941Y052312D03*
X026941Y052312D03*
X022691Y042812D03*
X021691Y042812D03*
X020691Y042812D03*
X019691Y042812D03*
X019691Y039812D03*
X020691Y039812D03*
X021691Y039812D03*
X022691Y039812D03*
X014191Y039312D03*
X013191Y039312D03*
X012191Y039312D03*
X011191Y039312D03*
X011191Y042312D03*
X012191Y042312D03*
X013191Y042312D03*
X014191Y042312D03*
X009191Y044812D03*
X008191Y044812D03*
X007191Y044812D03*
X006191Y044812D03*
X006191Y047812D03*
X007191Y047812D03*
X008191Y047812D03*
X009191Y047812D03*
X009191Y052312D03*
X009191Y053312D03*
X009191Y054312D03*
X009191Y055312D03*
X006191Y055312D03*
X006191Y054312D03*
X006191Y053312D03*
X006191Y052312D03*
X010691Y015312D03*
X011691Y015312D03*
X040691Y015312D03*
X041691Y015312D03*
X070191Y015312D03*
X071191Y015312D03*
X099691Y015312D03*
X100691Y015312D03*
D17*
X092691Y015312D03*
X092691Y016312D03*
X088191Y019812D03*
X088191Y020812D03*
X088191Y021812D03*
X081691Y023312D03*
X080691Y023312D03*
X079691Y023312D03*
X068191Y023312D03*
X067191Y023312D03*
X066191Y023312D03*
X058691Y021812D03*
X058691Y020812D03*
X058691Y019812D03*
X063191Y016312D03*
X063191Y015312D03*
X052191Y023312D03*
X051191Y023312D03*
X050191Y023312D03*
X038691Y023312D03*
X037691Y023312D03*
X036691Y023312D03*
X028691Y021812D03*
X028691Y020812D03*
X028691Y019812D03*
X033691Y016312D03*
X033691Y015312D03*
X022191Y023312D03*
X021191Y023312D03*
X020191Y023312D03*
X008691Y023312D03*
X007691Y023312D03*
X006691Y023312D03*
X003691Y016312D03*
X003691Y015312D03*
X028691Y040812D03*
X028691Y041812D03*
X033691Y043812D03*
X033691Y044812D03*
X028691Y048312D03*
X028691Y049312D03*
X028691Y050312D03*
X017821Y048787D03*
X016821Y047787D03*
X016821Y049787D03*
X008191Y048612D03*
X003691Y044812D03*
X003691Y043812D03*
X055691Y047312D03*
X055691Y048312D03*
X058691Y048312D03*
X058691Y049312D03*
X058691Y050312D03*
X063191Y044812D03*
X063191Y043812D03*
X085191Y047312D03*
X085191Y048312D03*
X088191Y048312D03*
X088191Y049312D03*
X088191Y050312D03*
X109191Y041812D03*
X110191Y041812D03*
X111191Y041812D03*
X092691Y034812D03*
X092691Y033812D03*
X095691Y023312D03*
X096691Y023312D03*
X097691Y023312D03*
X109191Y023312D03*
X110191Y023312D03*
X111191Y023312D03*
X117691Y021812D03*
X117691Y020812D03*
X117691Y019812D03*
X112691Y061312D03*
D18*
X111691Y061312D03*
X088191Y047312D03*
X085191Y049312D03*
X063191Y042812D03*
X058691Y047312D03*
X055691Y049312D03*
X033691Y042812D03*
X028691Y042812D03*
X028691Y047312D03*
X003691Y042812D03*
X009691Y023312D03*
X019191Y023312D03*
X028691Y018812D03*
X033691Y014312D03*
X039691Y023312D03*
X049191Y023312D03*
X058691Y018812D03*
X063191Y014312D03*
X069191Y023312D03*
X078691Y023312D03*
X088191Y018812D03*
X092691Y014312D03*
X098691Y023312D03*
X108191Y023312D03*
X117691Y018812D03*
X092691Y032812D03*
X108191Y041812D03*
X003691Y014312D03*
D19*
X015191Y010643D03*
X015191Y008982D03*
X024066Y008607D03*
X024066Y010268D03*
X023816Y002768D03*
X023816Y001107D03*
X045191Y008982D03*
X045191Y010643D03*
X054066Y010268D03*
X054066Y008607D03*
X053816Y002768D03*
X053816Y001107D03*
X074691Y008982D03*
X074691Y010643D03*
X083566Y010268D03*
X083566Y008607D03*
X083316Y002768D03*
X083316Y001107D03*
X104191Y008982D03*
X104191Y010643D03*
X113066Y010268D03*
X113066Y008607D03*
X112816Y002768D03*
X112816Y001107D03*
D20*
X073791Y035612D03*
X070991Y035612D03*
X058291Y039712D03*
X055291Y039712D03*
X044291Y035612D03*
X041491Y035612D03*
X022691Y037812D03*
X014691Y033312D03*
X013191Y036812D03*
X024941Y046812D03*
X034991Y050512D03*
X047091Y050212D03*
X050991Y053712D03*
X053867Y061536D03*
X063791Y059712D03*
X064491Y050512D03*
X076591Y050212D03*
X080491Y053712D03*
X083367Y061536D03*
X084791Y039712D03*
X087791Y039712D03*
X034291Y059712D03*
X014191Y051312D03*
X009191Y050112D03*
X004691Y055712D03*
X004691Y058612D03*
D21*
X003691Y058612D03*
X003691Y055712D03*
X014191Y052312D03*
X008191Y050112D03*
X025941Y046812D03*
X034991Y049512D03*
X047091Y049212D03*
X051991Y053712D03*
X064491Y049512D03*
X076591Y049212D03*
X081491Y053712D03*
X083367Y062536D03*
X064791Y059712D03*
X053867Y062536D03*
X035291Y059712D03*
X055291Y038712D03*
X058291Y038712D03*
X070991Y036612D03*
X073791Y036612D03*
X084791Y038712D03*
X087791Y038712D03*
X044291Y036612D03*
X041491Y036612D03*
X021691Y037812D03*
X015691Y033312D03*
X013191Y037812D03*
D22*
X008191Y038312D03*
X006191Y038312D03*
X008191Y043312D03*
X010191Y043312D03*
X018191Y043812D03*
X018191Y041812D03*
X024691Y040812D03*
X024691Y042812D03*
X042191Y043112D03*
X044191Y043112D03*
X043491Y046412D03*
X045491Y046412D03*
X049691Y044512D03*
X049691Y043112D03*
X051691Y043112D03*
X051691Y044512D03*
X045091Y053012D03*
X043091Y053012D03*
X056113Y061157D03*
X056113Y063157D03*
X072591Y053012D03*
X074591Y053012D03*
X074991Y046412D03*
X072991Y046412D03*
X073691Y043112D03*
X071691Y043112D03*
X079191Y043112D03*
X079191Y044512D03*
X081191Y044512D03*
X081191Y043112D03*
X085613Y061157D03*
X085613Y063157D03*
X015191Y055812D03*
X015191Y053812D03*
X007791Y058312D03*
X007791Y060312D03*
D23*
X006391Y060312D03*
X005641Y059812D03*
X006391Y059312D03*
X009191Y060312D03*
X010191Y060312D03*
X010191Y056312D03*
X009191Y056312D03*
X005191Y054312D03*
X010691Y053312D03*
X005191Y050312D03*
X010691Y049312D03*
X016191Y053312D03*
X017191Y051812D03*
X020191Y053312D03*
X021191Y051812D03*
X021691Y051312D03*
X022691Y051312D03*
X024941Y053312D03*
X028941Y053312D03*
X034291Y056312D03*
X034291Y057612D03*
X038291Y057612D03*
X038291Y056312D03*
X038291Y061612D03*
X038291Y062912D03*
X034291Y062912D03*
X034291Y061612D03*
X049591Y050212D03*
X049491Y048912D03*
X053491Y048912D03*
X053591Y050212D03*
X057091Y055612D03*
X058391Y055612D03*
X063791Y056312D03*
X063791Y057612D03*
X067791Y057612D03*
X067791Y056312D03*
X067791Y061612D03*
X067791Y062912D03*
X063791Y062912D03*
X063791Y061612D03*
X058391Y059612D03*
X057091Y059612D03*
X067691Y047412D03*
X067691Y046412D03*
X065691Y044812D03*
X065691Y043812D03*
X069691Y043812D03*
X069691Y044812D03*
X071691Y046412D03*
X071691Y047412D03*
X078991Y048912D03*
X079091Y050212D03*
X083091Y050212D03*
X082991Y048912D03*
X086591Y055612D03*
X087891Y055612D03*
X087891Y059612D03*
X086591Y059612D03*
X104191Y040312D03*
X104191Y039312D03*
X104191Y037812D03*
X108191Y037812D03*
X108191Y039312D03*
X108191Y040312D03*
X069691Y039712D03*
X069691Y038612D03*
X065691Y038612D03*
X065691Y039712D03*
X042191Y046412D03*
X042191Y047412D03*
X040191Y044812D03*
X040191Y043812D03*
X036191Y043812D03*
X036191Y044812D03*
X038191Y046412D03*
X038191Y047412D03*
X028691Y044812D03*
X024691Y044812D03*
X024691Y043812D03*
X020691Y043812D03*
X021691Y047312D03*
X022691Y047312D03*
X020691Y048312D03*
X019941Y047812D03*
X019941Y048812D03*
X010191Y040812D03*
X006191Y040812D03*
X005191Y040812D03*
X005191Y044812D03*
X008191Y036812D03*
X008191Y032812D03*
X024691Y034812D03*
X024691Y038812D03*
X036191Y038612D03*
X036191Y039712D03*
X040191Y039712D03*
X040191Y038612D03*
D24*
X048428Y057375D03*
X040554Y059344D03*
X040554Y063281D03*
X048428Y065249D03*
X070054Y063281D03*
X070054Y059344D03*
X077928Y057375D03*
X077928Y065249D03*
D25*
X070451Y054312D02*
X069931Y054312D01*
X070031Y053212D02*
X070551Y053212D01*
X066551Y053212D02*
X066031Y053212D01*
X065931Y054312D02*
X066451Y054312D01*
X041051Y053212D02*
X040531Y053212D01*
X040431Y054312D02*
X040951Y054312D01*
X036951Y054312D02*
X036431Y054312D01*
X036531Y053212D02*
X037051Y053212D01*
X095191Y057052D02*
X095191Y057572D01*
X096191Y057572D02*
X096191Y057052D01*
X097191Y057052D02*
X097191Y057572D01*
X098191Y057572D02*
X098191Y057052D01*
X099191Y057052D02*
X099191Y057572D01*
X100191Y057572D02*
X100191Y057052D01*
X101191Y057052D02*
X101191Y057572D01*
X102191Y057572D02*
X102191Y057052D01*
X103191Y057052D02*
X103191Y057572D01*
X104191Y057572D02*
X104191Y057052D01*
X105191Y057052D02*
X105191Y057572D01*
X106191Y057572D02*
X106191Y057052D01*
X106191Y063052D02*
X106191Y063572D01*
X105191Y063572D02*
X105191Y063052D01*
X104191Y063052D02*
X104191Y063572D01*
X103191Y063572D02*
X103191Y063052D01*
X102191Y063052D02*
X102191Y063572D01*
X101191Y063572D02*
X101191Y063052D01*
X100191Y063052D02*
X100191Y063572D01*
X099191Y063572D02*
X099191Y063052D01*
X098191Y063052D02*
X098191Y063572D01*
X097191Y063572D02*
X097191Y063052D01*
X096191Y063052D02*
X096191Y063572D01*
X095191Y063572D02*
X095191Y063052D01*
D26*
X088675Y066509D03*
X086707Y066509D03*
X082675Y066509D03*
X080707Y066509D03*
X059175Y066509D03*
X057207Y066509D03*
X053175Y066509D03*
X051207Y066509D03*
X013675Y061259D03*
X011707Y061259D03*
D27*
X015160Y058813D03*
X015160Y058061D03*
X015160Y057309D03*
D28*
X053691Y040812D03*
X041191Y023812D03*
X040441Y023062D03*
X040691Y022312D03*
X039316Y021437D03*
X038566Y021437D03*
X037691Y021937D03*
X037066Y022562D03*
X035941Y022937D03*
X035691Y021437D03*
X035441Y019312D03*
X035441Y017812D03*
X036566Y016187D03*
X037191Y016062D03*
X038066Y016187D03*
X039066Y016187D03*
X040566Y016187D03*
X042191Y016187D03*
X043441Y018437D03*
X043441Y019062D03*
X043441Y019812D03*
X044441Y020312D03*
X043441Y020812D03*
X043941Y021437D03*
X042316Y021437D03*
X046691Y022187D03*
X047191Y020937D03*
X048566Y019812D03*
X051566Y018312D03*
X049066Y017187D03*
X047941Y016062D03*
X045816Y016437D03*
X050316Y013312D03*
X048566Y011562D03*
X045941Y011687D03*
X049066Y009312D03*
X046441Y007812D03*
X047066Y007187D03*
X052941Y008312D03*
X054941Y015437D03*
X057316Y016812D03*
X054816Y017812D03*
X049941Y021937D03*
X048441Y022562D03*
X052816Y022062D03*
X065191Y021437D03*
X066566Y022562D03*
X067191Y021937D03*
X068066Y021437D03*
X068816Y021437D03*
X070191Y022312D03*
X069941Y023062D03*
X070691Y023812D03*
X071816Y021437D03*
X072941Y020812D03*
X073441Y021437D03*
X073941Y020312D03*
X072941Y019812D03*
X072941Y019062D03*
X072941Y018437D03*
X071691Y016187D03*
X070066Y016187D03*
X068566Y016187D03*
X067566Y016187D03*
X066691Y016062D03*
X066066Y016187D03*
X064941Y017812D03*
X064941Y019312D03*
X065441Y022937D03*
X076191Y022187D03*
X077941Y022562D03*
X079441Y021937D03*
X082316Y022062D03*
X078066Y019812D03*
X076691Y020937D03*
X081066Y018312D03*
X078566Y017187D03*
X077441Y016062D03*
X075316Y016437D03*
X079816Y013312D03*
X078066Y011562D03*
X078566Y009312D03*
X075941Y007812D03*
X076566Y007187D03*
X082441Y008312D03*
X075441Y011687D03*
X068066Y014312D03*
X067566Y014812D03*
X065566Y013312D03*
X068941Y006187D03*
X068691Y002437D03*
X084441Y015437D03*
X086816Y016812D03*
X084316Y017812D03*
X094441Y017812D03*
X095566Y016187D03*
X096191Y016062D03*
X097066Y016187D03*
X098066Y016187D03*
X099566Y016187D03*
X101191Y016187D03*
X102441Y018437D03*
X102441Y019062D03*
X102441Y019812D03*
X103441Y020312D03*
X102441Y020812D03*
X102941Y021437D03*
X101316Y021437D03*
X099691Y022312D03*
X099441Y023062D03*
X100191Y023812D03*
X098316Y021437D03*
X097566Y021437D03*
X096691Y021937D03*
X096066Y022562D03*
X094941Y022937D03*
X094691Y021437D03*
X094441Y019312D03*
X097066Y014812D03*
X097566Y014312D03*
X095066Y013312D03*
X104941Y011687D03*
X107566Y011562D03*
X108066Y009312D03*
X106066Y007187D03*
X105441Y007812D03*
X098441Y006187D03*
X098191Y002437D03*
X111941Y008312D03*
X109316Y013312D03*
X113941Y015437D03*
X116316Y016812D03*
X113816Y017812D03*
X110566Y018312D03*
X108066Y017187D03*
X106941Y016062D03*
X104816Y016437D03*
X107566Y019812D03*
X106191Y020937D03*
X105691Y022187D03*
X107441Y022562D03*
X108941Y021937D03*
X111816Y022062D03*
X083191Y040812D03*
X038066Y014812D03*
X038566Y014312D03*
X036066Y013312D03*
X027316Y016812D03*
X024816Y017812D03*
X024941Y015437D03*
X021566Y018312D03*
X019066Y017187D03*
X017941Y016062D03*
X015816Y016437D03*
X013441Y018437D03*
X013441Y019062D03*
X013441Y019812D03*
X014441Y020312D03*
X013441Y020812D03*
X013941Y021437D03*
X012316Y021437D03*
X010691Y022312D03*
X010441Y023062D03*
X011191Y023812D03*
X009316Y021437D03*
X008566Y021437D03*
X007691Y021937D03*
X007066Y022562D03*
X005941Y022937D03*
X005691Y021437D03*
X005441Y019312D03*
X005441Y017812D03*
X006566Y016187D03*
X007191Y016062D03*
X008066Y016187D03*
X009066Y016187D03*
X010566Y016187D03*
X012191Y016187D03*
X008566Y014312D03*
X008066Y014812D03*
X006066Y013312D03*
X015941Y011687D03*
X018566Y011562D03*
X019066Y009312D03*
X016441Y007812D03*
X017066Y007187D03*
X022941Y008312D03*
X020316Y013312D03*
X018566Y019812D03*
X017191Y020937D03*
X016691Y022187D03*
X018441Y022562D03*
X019941Y021937D03*
X022816Y022062D03*
X009441Y006187D03*
X009191Y002437D03*
X039191Y002437D03*
X039441Y006187D03*
D29*
X004191Y001812D03*
X029191Y001812D03*
X034191Y001812D03*
X059191Y001812D03*
X063691Y001812D03*
X088691Y001812D03*
X093191Y001812D03*
X118191Y001812D03*
X118191Y023812D03*
X118191Y030312D03*
X118191Y042312D03*
X093191Y042312D03*
X088691Y052312D03*
X063691Y052312D03*
X059191Y052312D03*
X055191Y066812D03*
X067191Y066812D03*
X084691Y066812D03*
X037691Y066812D03*
X029191Y061312D03*
X029191Y052312D03*
X034191Y052312D03*
X004191Y052312D03*
X004191Y061312D03*
X004191Y030312D03*
X004191Y023812D03*
X029191Y023812D03*
X034191Y023812D03*
X034191Y030312D03*
X029191Y030312D03*
X059191Y030312D03*
X063691Y030312D03*
X063691Y023812D03*
X059191Y023812D03*
X088691Y023812D03*
X093191Y023812D03*
X093191Y030312D03*
X088691Y030312D03*
D30*
X075191Y019812D03*
X071941Y014562D03*
X069316Y014062D03*
X045691Y019812D03*
X042441Y014562D03*
X039816Y014062D03*
X015691Y019812D03*
X012441Y014562D03*
X009816Y014062D03*
X098816Y014062D03*
X101441Y014562D03*
X104691Y019812D03*
D31*
X110691Y053312D03*
X111191Y057312D03*
X111191Y058312D03*
X114191Y059062D03*
X110191Y061312D03*
X088191Y064012D03*
X087191Y064012D03*
X086691Y053812D03*
X058691Y064012D03*
X057691Y064012D03*
X057191Y053812D03*
D32*
X019691Y044812D03*
X019191Y046812D03*
X004441Y036562D03*
X003691Y037062D03*
D33*
X110191Y037812D03*
X110191Y039312D03*
X110191Y040812D03*
X111691Y032312D03*
D34*
X094691Y032812D03*
D35*
X093691Y050812D03*
X118191Y050812D03*
X118191Y066812D03*
X093691Y066812D03*
M02*
