%
M48
M72
T01C0.0240
T02C0.0276
T03C0.0315
T04C0.0320
T05C0.0354
T06C0.0394
T07C0.0400
T08C0.0433
T09C0.0512
T10C0.0866
T11C0.1260
T12C0.1280
%
T01
X9191Y2437
X9441Y6187
X16441Y7812
X17066Y7187
X19066Y9312
X18566Y11562
X15941Y11687
X20316Y13312
X17941Y16062
X15816Y16437
X19066Y17187
X21566Y18312
X18566Y19812
X17191Y20937
X16691Y22187
X18441Y22562
X19941Y21937
X22816Y22062
X24816Y17812
X27316Y16812
X24941Y15437
X14441Y20312
X13441Y19812
X13441Y19062
X13441Y18437
X12191Y16187
X10566Y16187
X9066Y16187
X8066Y16187
X7191Y16062
X6566Y16187
X5441Y17812
X5441Y19312
X5691Y21437
X7066Y22562
X7691Y21937
X8566Y21437
X9316Y21437
X10691Y22312
X10441Y23062
X11191Y23812
X12316Y21437
X13441Y20812
X13941Y21437
X5941Y22937
X8066Y14812
X8566Y14312
X6066Y13312
X22941Y8312
X36066Y13312
X38066Y14812
X38566Y14312
X38066Y16187
X37191Y16062
X36566Y16187
X35441Y17812
X35441Y19312
X35691Y21437
X37066Y22562
X37691Y21937
X38566Y21437
X39316Y21437
X40691Y22312
X40441Y23062
X41191Y23812
X42316Y21437
X43441Y20812
X43941Y21437
X44441Y20312
X43441Y19812
X43441Y19062
X43441Y18437
X42191Y16187
X40566Y16187
X39066Y16187
X45816Y16437
X47941Y16062
X49066Y17187
X51566Y18312
X48566Y19812
X47191Y20937
X46691Y22187
X48441Y22562
X49941Y21937
X52816Y22062
X54816Y17812
X57316Y16812
X54941Y15437
X50316Y13312
X48566Y11562
X45941Y11687
X49066Y9312
X46441Y7812
X47066Y7187
X52941Y8312
X65566Y13312
X67566Y14812
X68066Y14312
X67566Y16187
X66691Y16062
X66066Y16187
X64941Y17812
X64941Y19312
X65191Y21437
X66566Y22562
X67191Y21937
X68066Y21437
X68816Y21437
X70191Y22312
X69941Y23062
X70691Y23812
X71816Y21437
X72941Y20812
X73441Y21437
X73941Y20312
X72941Y19812
X72941Y19062
X72941Y18437
X71691Y16187
X70066Y16187
X68566Y16187
X75316Y16437
X77441Y16062
X78566Y17187
X81066Y18312
X78066Y19812
X76691Y20937
X76191Y22187
X77941Y22562
X79441Y21937
X82316Y22062
X84316Y17812
X86816Y16812
X84441Y15437
X79816Y13312
X78066Y11562
X78566Y9312
X75941Y7812
X76566Y7187
X82441Y8312
X75441Y11687
X68941Y6187
X68691Y2437
X95066Y13312
X97066Y14812
X97566Y14312
X97066Y16187
X96191Y16062
X95566Y16187
X94441Y17812
X94441Y19312
X94691Y21437
X94941Y22937
X96066Y22562
X96691Y21937
X97566Y21437
X98316Y21437
X99691Y22312
X99441Y23062
X100191Y23812
X101316Y21437
X102441Y20812
X102941Y21437
X103441Y20312
X102441Y19812
X102441Y19062
X102441Y18437
X101191Y16187
X99566Y16187
X98066Y16187
X104816Y16437
X106941Y16062
X108066Y17187
X110566Y18312
X113816Y17812
X116316Y16812
X113941Y15437
X109316Y13312
X107566Y11562
X104941Y11687
X108066Y9312
X106066Y7187
X105441Y7812
X98441Y6187
X98191Y2437
X111941Y8312
X107566Y19812
X106191Y20937
X105691Y22187
X107441Y22562
X108941Y21937
X111816Y22062
X83191Y40812
X53691Y40812
X65441Y22937
X39441Y6187
X39191Y2437
X35941Y22937
T02
X45691Y19812
X42441Y14562
X39816Y14062
X15691Y19812
X12441Y14562
X9816Y14062
X69316Y14062
X71941Y14562
X75191Y19812
X98816Y14062
X101441Y14562
X104691Y19812
T03
X111691Y32312
X110191Y37812
X108191Y37812
X108191Y39312
X108191Y40312
X110191Y40812
X110191Y39312
X104191Y39312
X104191Y40312
X104191Y37812
X82991Y48912
X83091Y50212
X79091Y50212
X78991Y48912
X71691Y47412
X71691Y46412
X69691Y44812
X69691Y43812
X67691Y46412
X67691Y47412
X65691Y44812
X65691Y43812
X65691Y39712
X65691Y38612
X69691Y38612
X69691Y39712
X53491Y48912
X53591Y50212
X49591Y50212
X49491Y48912
X42191Y47412
X42191Y46412
X40191Y44812
X40191Y43812
X36191Y43812
X36191Y44812
X38191Y46412
X38191Y47412
X28691Y44812
X24691Y44812
X24691Y43812
X20691Y43812
X19691Y44812
X19191Y46812
X19941Y47812
X20691Y48312
X19941Y48812
X17821Y48787
X16821Y47787
X16821Y49787
X17191Y51812
X16191Y53312
X20191Y53312
X21191Y51812
X21691Y51312
X22691Y51312
X24941Y53312
X28941Y53312
X34291Y56312
X34291Y57612
X38291Y57612
X38291Y56312
X38291Y61612
X38291Y62912
X34291Y62912
X34291Y61612
X15160Y58813
X15160Y58061
X15160Y57309
X10191Y56312
X9191Y56312
X5191Y54312
X10691Y53312
X5191Y50312
X10691Y49312
X5191Y44812
X5191Y40812
X6191Y40812
X10191Y40812
X8191Y36812
X4441Y36562
X3691Y37062
X8191Y32812
X24691Y34812
X24691Y38812
X36191Y38612
X36191Y39712
X40191Y39712
X40191Y38612
X22691Y47312
X21691Y47312
X6391Y59312
X5641Y59812
X6391Y60312
X9191Y60312
X10191Y60312
X57091Y59612
X58391Y59612
X63791Y57612
X63791Y56312
X67791Y56312
X67791Y57612
X67791Y61612
X67791Y62912
X63791Y62912
X63791Y61612
X58391Y55612
X57091Y55612
X86591Y55612
X87891Y55612
X87891Y59612
X86591Y59612
T04
X84591Y58812
X83591Y58812
X82591Y58812
X81591Y58812
X81591Y55812
X82591Y55812
X83591Y55812
X84591Y55812
X74591Y51612
X73591Y51612
X72591Y51612
X71591Y51612
X70291Y53212
X70191Y54312
X66191Y54312
X66291Y53212
X66491Y51512
X67491Y51512
X68491Y51512
X69491Y51512
X69491Y48512
X68491Y48512
X67491Y48512
X66491Y48512
X71591Y48612
X72591Y48612
X73591Y48612
X74591Y48612
X74691Y41612
X73691Y41612
X72691Y41612
X71691Y41612
X71691Y38612
X72691Y38612
X73691Y38612
X74691Y38612
X79191Y38612
X80191Y38612
X81191Y38612
X82191Y38612
X82191Y41612
X81191Y41612
X80191Y41612
X79191Y41612
X95691Y35812
X95691Y34812
X104191Y33812
X104191Y32812
X109691Y32812
X109691Y33812
X105691Y51812
X104191Y51812
X108691Y54312
X109691Y54312
X105691Y55812
X104191Y55812
X104191Y57312
X103191Y57312
X102191Y57312
X101191Y57312
X100191Y57312
X99191Y57312
X98191Y57312
X97191Y57312
X96191Y57312
X95191Y57312
X105191Y57312
X106191Y57312
X114691Y61312
X114691Y62812
X114691Y64312
X118691Y64312
X118691Y62812
X118691Y61312
X106191Y63312
X105191Y63312
X104191Y63312
X103191Y63312
X102191Y63312
X101191Y63312
X100191Y63312
X99191Y63312
X98191Y63312
X97191Y63312
X96191Y63312
X95191Y63312
X55091Y58812
X54091Y58812
X53091Y58812
X52091Y58812
X52091Y55812
X53091Y55812
X54091Y55812
X55091Y55812
X45091Y51612
X44091Y51612
X43091Y51612
X42091Y51612
X40791Y53212
X40691Y54312
X36691Y54312
X36791Y53212
X36991Y51512
X37991Y51512
X38991Y51512
X39991Y51512
X39991Y48512
X38991Y48512
X37991Y48512
X36991Y48512
X42091Y48612
X43091Y48612
X44091Y48612
X45091Y48612
X45191Y41612
X44191Y41612
X43191Y41612
X42191Y41612
X42191Y38612
X43191Y38612
X44191Y38612
X45191Y38612
X49691Y38612
X50691Y38612
X51691Y38612
X52691Y38612
X52691Y41612
X51691Y41612
X50691Y41612
X49691Y41612
X26941Y49312
X25941Y49312
X24941Y49312
X23941Y49312
X23941Y52312
X24941Y52312
X25941Y52312
X26941Y52312
X22691Y42812
X21691Y42812
X20691Y42812
X19691Y42812
X19691Y39812
X20691Y39812
X21691Y39812
X22691Y39812
X14191Y39312
X13191Y39312
X12191Y39312
X11191Y39312
X11191Y42312
X12191Y42312
X13191Y42312
X14191Y42312
X9191Y44812
X8191Y44812
X7191Y44812
X6191Y44812
X6191Y47812
X7191Y47812
X8191Y47812
X9191Y47812
X9191Y52312
X9191Y53312
X9191Y54312
X9191Y55312
X6191Y55312
X6191Y54312
X6191Y53312
X6191Y52312
X10691Y15312
X11691Y15312
X25191Y9312
X26691Y9312
X28191Y9312
X28191Y5312
X26691Y5312
X25191Y5312
X40691Y15312
X41691Y15312
X55191Y9312
X56691Y9312
X58191Y9312
X58191Y5312
X56691Y5312
X55191Y5312
X70191Y15312
X71191Y15312
X84691Y9312
X86191Y9312
X87691Y9312
X87691Y5312
X86191Y5312
X84691Y5312
X99691Y15312
X100691Y15312
X114191Y9312
X115691Y9312
X117191Y9312
X117191Y5312
X115691Y5312
X114191Y5312
T05
X110941Y6812
X109941Y6812
X108941Y6812
X107941Y6812
X108441Y7812
X109441Y7812
X110441Y7812
X111441Y7812
X104441Y7812
X103441Y7812
X102441Y7812
X101441Y7812
X100941Y6812
X101941Y6812
X102941Y6812
X103941Y6812
X81941Y7812
X80941Y7812
X79941Y7812
X78941Y7812
X78441Y6812
X79441Y6812
X80441Y6812
X81441Y6812
X74941Y7812
X73941Y7812
X72941Y7812
X71941Y7812
X71441Y6812
X72441Y6812
X73441Y6812
X74441Y6812
X52441Y7812
X51441Y7812
X50441Y7812
X49441Y7812
X48941Y6812
X49941Y6812
X50941Y6812
X51941Y6812
X45441Y7812
X44441Y7812
X43441Y7812
X42441Y7812
X41941Y6812
X42941Y6812
X43941Y6812
X44941Y6812
X22441Y7812
X21441Y7812
X20441Y7812
X19441Y7812
X18941Y6812
X19941Y6812
X20941Y6812
X21941Y6812
X15441Y7812
X14441Y7812
X13441Y7812
X12441Y7812
X11941Y6812
X12941Y6812
X13941Y6812
X14941Y6812
X8191Y48612
X94691Y32812
X112191Y55562
X113191Y55062
X113191Y56062
X112191Y56562
X112191Y57562
X113191Y57062
X113191Y58062
X112191Y58562
T06
X111191Y58312
X111191Y57312
X114191Y59062
X110191Y61312
X110691Y53312
X88191Y64012
X87191Y64012
X85613Y63157
X83367Y62536
X83367Y61536
X85613Y61157
X86691Y53812
X81491Y53712
X80491Y53712
X76591Y50212
X76591Y49212
X74991Y46412
X72991Y46412
X73691Y43112
X71691Y43112
X79191Y43112
X79191Y44512
X81191Y44512
X81191Y43112
X84791Y39712
X84791Y38712
X87791Y38712
X87791Y39712
X73791Y36612
X73791Y35612
X70991Y35612
X70991Y36612
X58291Y38712
X58291Y39712
X55291Y39712
X55291Y38712
X51691Y43112
X51691Y44512
X49691Y44512
X49691Y43112
X45491Y46412
X43491Y46412
X47091Y49212
X47091Y50212
X45091Y53012
X43091Y53012
X34991Y50512
X34991Y49512
X25941Y46812
X24941Y46812
X18191Y43812
X18191Y41812
X21691Y37812
X22691Y37812
X24691Y40812
X24691Y42812
X13191Y37812
X13191Y36812
X8191Y38312
X6191Y38312
X14691Y33312
X15691Y33312
X10191Y43312
X8191Y43312
X8191Y50112
X9191Y50112
X14191Y51312
X14191Y52312
X15191Y53812
X15191Y55812
X7791Y58312
X7791Y60312
X4691Y58612
X3691Y58612
X3691Y55712
X4691Y55712
X34291Y59712
X35291Y59712
X50991Y53712
X51991Y53712
X57191Y53812
X64491Y50512
X64491Y49512
X72591Y53012
X74591Y53012
X64791Y59712
X63791Y59712
X58691Y64012
X57691Y64012
X56113Y63157
X53867Y62536
X53867Y61536
X56113Y61157
X44191Y43112
X42191Y43112
X41491Y36612
X41491Y35612
X44291Y35612
X44291Y36612
T07
X33691Y42812
X33691Y43812
X33691Y44812
X28691Y42812
X28691Y41812
X28691Y40812
X28691Y47312
X28691Y48312
X28691Y49312
X28691Y50312
X3691Y44812
X3691Y43812
X3691Y42812
X6691Y23312
X7691Y23312
X8691Y23312
X9691Y23312
X13191Y23312
X13191Y22312
X14191Y22312
X15191Y22312
X15191Y23312
X14191Y23312
X19191Y23312
X20191Y23312
X21191Y23312
X22191Y23312
X28691Y21812
X28691Y20812
X28691Y19812
X28691Y18812
X33691Y18812
X34691Y18812
X34691Y19812
X33691Y19812
X33691Y17812
X34691Y17812
X33691Y16312
X33691Y15312
X33691Y14312
X45191Y17812
X46191Y17812
X46191Y18812
X45191Y18812
X45191Y22312
X44191Y22312
X43191Y22312
X43191Y23312
X44191Y23312
X45191Y23312
X49191Y23312
X50191Y23312
X51191Y23312
X52191Y23312
X58691Y21812
X58691Y20812
X58691Y19812
X58691Y18812
X63191Y18812
X64191Y18812
X64191Y19812
X63191Y19812
X63191Y17812
X64191Y17812
X63191Y16312
X63191Y15312
X63191Y14312
X74691Y17812
X75691Y17812
X75691Y18812
X74691Y18812
X74691Y22312
X73691Y22312
X72691Y22312
X72691Y23312
X73691Y23312
X74691Y23312
X78691Y23312
X79691Y23312
X80691Y23312
X81691Y23312
X88191Y21812
X88191Y20812
X88191Y19812
X88191Y18812
X92691Y18812
X93691Y18812
X93691Y19812
X92691Y19812
X92691Y17812
X93691Y17812
X92691Y16312
X92691Y15312
X92691Y14312
X104191Y17812
X105191Y17812
X105191Y18812
X104191Y18812
X104191Y22312
X103191Y22312
X102191Y22312
X102191Y23312
X103191Y23312
X104191Y23312
X108191Y23312
X109191Y23312
X110191Y23312
X111191Y23312
X117691Y21812
X117691Y20812
X117691Y19812
X117691Y18812
X98691Y23312
X97691Y23312
X96691Y23312
X95691Y23312
X92691Y32812
X92691Y33812
X92691Y34812
X108191Y41812
X109191Y41812
X110191Y41812
X111191Y41812
X88191Y47312
X88191Y48312
X88191Y49312
X88191Y50312
X85191Y49312
X85191Y48312
X85191Y47312
X63191Y44812
X63191Y43812
X63191Y42812
X58691Y47312
X58691Y48312
X58691Y49312
X58691Y50312
X55691Y49312
X55691Y48312
X55691Y47312
X66191Y23312
X67191Y23312
X68191Y23312
X69191Y23312
X39691Y23312
X38691Y23312
X37691Y23312
X36691Y23312
X16191Y18812
X15191Y18812
X15191Y17812
X16191Y17812
X4691Y17812
X3691Y17812
X3691Y18812
X4691Y18812
X4691Y19812
X3691Y19812
X3691Y16312
X3691Y15312
X3691Y14312
X25691Y3812
X25691Y2812
X26691Y2812
X27691Y2812
X27691Y3812
X26691Y3812
X55691Y3812
X55691Y2812
X56691Y2812
X57691Y2812
X57691Y3812
X56691Y3812
X85191Y3812
X85191Y2812
X86191Y2812
X87191Y2812
X87191Y3812
X86191Y3812
X114691Y3812
X114691Y2812
X115691Y2812
X116691Y2812
X116691Y3812
X115691Y3812
X112691Y61312
X111691Y61312
T08
X77928Y57375
X70054Y59344
X70054Y63281
X77928Y65249
X48428Y65249
X40554Y63281
X40554Y59344
X48428Y57375
T09
X51207Y66509
X53175Y66509
X57207Y66509
X59175Y66509
X80707Y66509
X82675Y66509
X86707Y66509
X88675Y66509
X13675Y61259
X11707Y61259
T10
X4191Y1812
X29191Y1812
X34191Y1812
X59191Y1812
X63691Y1812
X88691Y1812
X93191Y1812
X118191Y1812
X118191Y23812
X118191Y30312
X118191Y42312
X93191Y42312
X88691Y52312
X63691Y52312
X59191Y52312
X55191Y66812
X67191Y66812
X84691Y66812
X37691Y66812
X29191Y61312
X29191Y52312
X34191Y52312
X4191Y52312
X4191Y61312
X4191Y30312
X4191Y23812
X29191Y23812
X34191Y23812
X34191Y30312
X29191Y30312
X59191Y30312
X63691Y30312
X63691Y23812
X59191Y23812
X88691Y23812
X93191Y23812
X93191Y30312
X88691Y30312
T11
X93691Y50812
X118191Y50812
X118191Y66812
X93691Y66812
T12
X115691Y59062
X115691Y54562
X111941Y4312
X107441Y4312
X104941Y4312
X100441Y4312
X82441Y4312
X77941Y4312
X75441Y4312
X70941Y4312
X52941Y4312
X48441Y4312
X45941Y4312
X41441Y4312
X22941Y4312
X18441Y4312
X15941Y4312
X11441Y4312
M30
