%
M48
M72
T01C0.0240
T02C0.0276
T03C0.0320
T04C0.0400
T05C0.0440
T06C0.0512
T07C0.1260
%
T01
X6931Y18101
X6931Y20101
X8931Y22851
X19431Y16101
X19931Y21601
X30931Y16851
X30931Y14351
X32431Y8851
X32431Y7351
X43431Y18101
X43431Y20101
X45431Y22851
X55931Y16101
X56431Y21601
X67431Y16851
X67431Y14351
X68931Y8851
X68931Y7351
X59431Y34851
X56931Y34851
X68931Y46851
X68931Y48351
X67431Y53851
X67431Y56351
X56431Y61101
X55931Y55601
X45431Y62351
X43431Y59601
X43431Y57601
X32431Y48351
X32431Y46851
X30931Y53851
X30931Y56351
X19931Y61101
X19431Y55601
X8931Y62351
X6931Y59601
X6931Y57601
X20431Y74351
X22931Y74351
X56931Y74351
X59431Y74351
X22931Y34851
X20431Y34851
T02
X10481Y35101
X10481Y36101
X10481Y37101
X10481Y34101
X10481Y73601
X10481Y74601
X10481Y75601
X10481Y76601
X46981Y76601
X46981Y75601
X46981Y74601
X46981Y73601
X46981Y37101
X46981Y36101
X46981Y35101
X46981Y34101
T03
X50181Y34101
X50181Y35101
X49181Y29601
X47181Y27601
X46181Y27601
X44181Y27101
X44181Y29101
X44181Y30601
X43181Y33051
X43181Y34151
X40181Y30601
X40181Y29101
X40181Y27101
X40681Y24601
X42181Y24601
X44181Y25101
X44181Y24101
X45681Y20601
X47181Y20601
X49681Y20601
X49681Y16601
X49681Y15101
X48681Y15101
X47181Y16601
X45681Y16601
X43181Y15601
X43181Y11601
X43181Y10101
X42181Y10101
X48681Y10601
X49681Y10601
X49181Y9101
X51681Y12101
X49681Y13101
X48681Y13101
X51681Y16101
X55181Y13101
X56181Y13101
X57681Y14101
X59681Y10601
X61681Y14101
X63181Y15601
X63181Y16601
X61681Y18101
X57681Y18101
X56181Y20101
X55181Y20101
X53181Y23601
X53181Y24601
X55181Y26101
X55181Y30101
X56681Y30101
X57681Y30101
X59181Y30601
X59181Y26601
X49181Y25601
X42181Y20601
X40681Y20601
X39181Y20101
X39181Y19101
X26681Y16601
X26681Y15601
X25181Y14101
X23181Y10601
X21181Y14101
X19681Y13101
X18681Y13101
X15181Y12101
X13181Y13101
X12181Y13101
X12181Y15101
X13181Y15101
X13181Y16601
X15181Y16101
X18681Y20101
X19681Y20101
X21181Y18101
X25181Y18101
X27181Y10601
X26681Y9101
X26681Y8101
X27181Y6601
X23181Y6601
X16681Y9101
X13181Y10601
X12181Y10601
X12681Y9101
X6681Y10101
X5681Y10101
X6681Y11601
X6681Y15601
X9181Y16601
X10681Y16601
X10681Y20601
X9181Y20601
X7681Y24101
X7681Y25101
X7681Y27101
X7681Y29101
X7681Y30601
X9681Y27601
X10681Y27601
X12681Y29601
X12681Y25601
X16681Y24601
X16681Y23601
X18681Y26101
X18681Y30101
X20181Y30101
X21181Y30101
X22681Y30601
X22681Y26601
X13181Y20601
X5681Y20601
X4181Y20601
X2681Y20101
X2681Y19101
X4181Y24601
X5681Y24601
X3681Y27101
X3681Y29101
X3681Y30601
X6681Y33051
X6681Y34151
X13681Y34101
X13681Y35101
X23181Y46101
X26681Y47601
X26681Y48601
X27181Y50101
X23181Y50101
X21181Y53601
X19681Y52601
X18681Y52601
X15181Y51601
X13181Y52601
X12181Y52601
X12181Y54601
X13181Y54601
X13181Y56101
X15181Y55601
X18681Y59601
X19681Y59601
X21181Y57601
X25181Y57601
X26681Y56101
X26681Y55101
X25181Y53601
X27181Y46101
X16681Y48601
X13181Y50101
X12181Y50101
X12681Y48601
X6681Y49601
X5681Y49601
X6681Y51101
X6681Y55101
X9181Y56101
X10681Y56101
X10681Y60101
X9181Y60101
X5681Y60101
X4181Y60101
X2681Y59601
X2681Y58601
X4181Y64101
X5681Y64101
X7681Y64601
X7681Y63601
X7681Y66601
X7681Y68601
X7681Y70101
X6681Y72551
X6681Y73651
X3681Y70101
X3681Y68601
X3681Y66601
X9681Y67101
X10681Y67101
X12681Y69101
X13681Y73601
X13681Y74601
X18681Y69601
X20181Y69601
X21181Y69601
X22681Y70101
X22681Y66101
X18681Y65601
X16681Y64101
X16681Y63101
X13181Y60101
X12681Y65101
X39181Y59601
X39181Y58601
X40681Y60101
X42181Y60101
X45681Y60101
X47181Y60101
X49681Y60101
X49681Y56101
X49681Y54601
X48681Y54601
X48681Y52601
X49681Y52601
X51681Y51601
X49681Y50101
X48681Y50101
X49181Y48601
X53181Y48601
X55181Y52601
X56181Y52601
X57681Y53601
X57681Y57601
X56181Y59601
X55181Y59601
X53181Y63101
X53181Y64101
X55181Y65601
X55181Y69601
X56681Y69601
X57681Y69601
X59181Y70101
X59181Y66101
X61681Y57601
X63181Y56101
X63181Y55101
X61681Y53601
X59681Y50101
X63181Y48601
X63181Y47601
X63681Y46101
X63681Y50101
X59681Y46101
X51681Y55601
X47181Y56101
X45681Y56101
X43181Y55101
X43181Y51101
X43181Y49601
X42181Y49601
X44181Y63601
X44181Y64601
X44181Y66601
X44181Y68601
X44181Y70101
X43181Y72551
X43181Y73651
X40181Y70101
X40181Y68601
X40181Y66601
X40681Y64101
X42181Y64101
X46181Y67101
X47181Y67101
X49181Y69101
X50181Y73601
X50181Y74601
X49181Y65101
X63681Y10601
X63181Y9101
X63181Y8101
X63681Y6601
X59681Y6601
X53181Y9101
T04
X63181Y18601
X63181Y19601
X63181Y20601
X63181Y21601
X38181Y16101
X38181Y15101
X38181Y14101
X38181Y13101
X38181Y12101
X38181Y11101
X26681Y18601
X26681Y19601
X26681Y20601
X26681Y21601
X1681Y16101
X1681Y15101
X1681Y14101
X1681Y13101
X1681Y12101
X1681Y11101
X1681Y50601
X1681Y51601
X1681Y52601
X1681Y53601
X1681Y54601
X1681Y55601
X26681Y58101
X26681Y59101
X26681Y60101
X26681Y61101
X38181Y55601
X38181Y54601
X38181Y53601
X38181Y52601
X38181Y51601
X38181Y50601
X63181Y58101
X63181Y59101
X63181Y60101
X63181Y61101
T05
X45681Y41101
X41681Y41101
X38681Y43601
X38681Y47601
X9181Y41101
X5181Y41101
X2181Y43601
X2181Y47601
X2181Y8101
X2181Y4101
X5181Y1601
X9181Y1601
X38681Y4101
X41681Y1601
X45681Y1601
X38681Y8101
T06
X33378Y9085
X33378Y7117
X33378Y14617
X33378Y16585
X41197Y36798
X43166Y36798
X33378Y46617
X33378Y48585
X33378Y54117
X33378Y56085
X22666Y36798
X20697Y36798
X6666Y36798
X4697Y36798
X4697Y76298
X6666Y76298
X20697Y76298
X22666Y76298
X41197Y76298
X43166Y76298
X57197Y76298
X59166Y76298
X69878Y56085
X69878Y54117
X69878Y48585
X69878Y46617
X59166Y36798
X57197Y36798
X69878Y16585
X69878Y14617
X69878Y9085
X69878Y7117
T07
X2181Y2101
X2181Y24101
X2181Y36601
X2181Y41601
X2181Y63601
X2181Y76101
X26181Y76101
X33181Y76101
X38681Y76101
X38681Y63601
X33181Y63601
X26181Y63601
X26181Y41601
X26181Y36601
X33181Y36601
X33181Y41601
X38681Y41601
X38681Y36601
X38681Y24101
X33181Y24101
X26181Y24101
X26181Y2101
X33181Y2101
X38681Y2101
X62681Y2101
X69681Y2101
X69681Y24101
X62681Y24101
X62681Y36601
X62681Y41601
X69681Y41601
X69681Y36601
X69681Y63601
X62681Y63601
X62681Y76101
X69681Y76101
M30
