G75*
G70*
%OFA0B0*%
%FSLAX24Y24*%
%IPPOS*%
%LPD*%
%AMOC8*
5,1,8,0,0,1.08239X$1,22.5*
%
%ADD10OC8,0.0600*%
%ADD11OC8,0.0710*%
%ADD12C,0.0710*%
%ADD13OC8,0.1080*%
%ADD14OC8,0.0780*%
%ADD15R,0.0780X0.0780*%
%ADD16C,0.0600*%
%ADD17C,0.0740*%
%ADD18C,0.0556*%
%ADD19C,0.0480*%
%ADD20R,0.1740X0.1740*%
D10*
X006681Y011601D03*
X006681Y015601D03*
X009181Y016601D03*
X010681Y016601D03*
X012181Y015101D03*
X013181Y015101D03*
X013181Y016601D03*
X015181Y016101D03*
X013181Y013101D03*
X012181Y013101D03*
X012181Y010601D03*
X013181Y010601D03*
X012681Y009101D03*
X015181Y012101D03*
X016681Y009101D03*
X021181Y014101D03*
X023181Y010601D03*
X025181Y014101D03*
X026681Y015601D03*
X026681Y016601D03*
X025181Y018101D03*
X021181Y018101D03*
X018681Y026101D03*
X018681Y030101D03*
X020181Y030101D03*
X021181Y030101D03*
X022681Y030601D03*
X022681Y026601D03*
X013181Y020601D03*
X010681Y020601D03*
X009181Y020601D03*
X005681Y020601D03*
X004181Y020601D03*
X004181Y024601D03*
X005681Y024601D03*
X003681Y027101D03*
X003681Y029101D03*
X003681Y030601D03*
X007681Y030601D03*
X007681Y029101D03*
X007681Y027101D03*
X012681Y025601D03*
X012681Y029601D03*
X023181Y046101D03*
X026681Y047601D03*
X026681Y048601D03*
X027181Y050101D03*
X023181Y050101D03*
X021181Y053601D03*
X021181Y057601D03*
X025181Y057601D03*
X026681Y056101D03*
X026681Y055101D03*
X025181Y053601D03*
X027181Y046101D03*
X016681Y048601D03*
X015181Y051601D03*
X013181Y052601D03*
X012181Y052601D03*
X012181Y054601D03*
X013181Y054601D03*
X013181Y056101D03*
X015181Y055601D03*
X013181Y060101D03*
X010681Y060101D03*
X009181Y060101D03*
X005681Y060101D03*
X004181Y060101D03*
X004181Y064101D03*
X005681Y064101D03*
X003681Y066601D03*
X003681Y068601D03*
X003681Y070101D03*
X007681Y070101D03*
X007681Y068601D03*
X007681Y066601D03*
X012681Y065101D03*
X012681Y069101D03*
X018681Y069601D03*
X020181Y069601D03*
X021181Y069601D03*
X022681Y070101D03*
X022681Y066101D03*
X018681Y065601D03*
X010681Y056101D03*
X009181Y056101D03*
X006681Y055101D03*
X006681Y051101D03*
X012181Y050101D03*
X013181Y050101D03*
X012681Y048601D03*
X040181Y066601D03*
X040181Y068601D03*
X040181Y070101D03*
X044181Y070101D03*
X044181Y068601D03*
X044181Y066601D03*
X042181Y064101D03*
X040681Y064101D03*
X040681Y060101D03*
X042181Y060101D03*
X045681Y060101D03*
X047181Y060101D03*
X049681Y060101D03*
X049681Y056101D03*
X049681Y054601D03*
X048681Y054601D03*
X048681Y052601D03*
X049681Y052601D03*
X051681Y051601D03*
X049681Y050101D03*
X048681Y050101D03*
X049181Y048601D03*
X053181Y048601D03*
X057681Y053601D03*
X057681Y057601D03*
X061681Y057601D03*
X063181Y056101D03*
X063181Y055101D03*
X061681Y053601D03*
X059681Y050101D03*
X063181Y048601D03*
X063181Y047601D03*
X063681Y046101D03*
X063681Y050101D03*
X059681Y046101D03*
X051681Y055601D03*
X047181Y056101D03*
X045681Y056101D03*
X043181Y055101D03*
X043181Y051101D03*
X049181Y065101D03*
X049181Y069101D03*
X055181Y069601D03*
X056681Y069601D03*
X057681Y069601D03*
X059181Y070101D03*
X059181Y066101D03*
X055181Y065601D03*
X059181Y030601D03*
X057681Y030101D03*
X056681Y030101D03*
X055181Y030101D03*
X055181Y026101D03*
X059181Y026601D03*
X057681Y018101D03*
X061681Y018101D03*
X063181Y016601D03*
X063181Y015601D03*
X061681Y014101D03*
X059681Y010601D03*
X057681Y014101D03*
X053181Y009101D03*
X051681Y012101D03*
X049681Y013101D03*
X048681Y013101D03*
X048681Y015101D03*
X049681Y015101D03*
X049681Y016601D03*
X051681Y016101D03*
X047181Y016601D03*
X045681Y016601D03*
X043181Y015601D03*
X043181Y011601D03*
X048681Y010601D03*
X049681Y010601D03*
X049181Y009101D03*
X059681Y006601D03*
X063181Y008101D03*
X063181Y009101D03*
X063681Y010601D03*
X063681Y006601D03*
X049681Y020601D03*
X047181Y020601D03*
X045681Y020601D03*
X042181Y020601D03*
X040681Y020601D03*
X040681Y024601D03*
X042181Y024601D03*
X040181Y027101D03*
X040181Y029101D03*
X040181Y030601D03*
X044181Y030601D03*
X044181Y029101D03*
X044181Y027101D03*
X049181Y025601D03*
X049181Y029601D03*
X027181Y010601D03*
X026681Y009101D03*
X026681Y008101D03*
X027181Y006601D03*
X023181Y006601D03*
D11*
X019681Y013101D03*
X019681Y020101D03*
X016681Y024601D03*
X010681Y027601D03*
X007681Y024101D03*
X002681Y020101D03*
X005681Y010101D03*
X013681Y035101D03*
X005681Y049601D03*
X002681Y059601D03*
X007681Y063601D03*
X010681Y067101D03*
X016681Y064101D03*
X019681Y059601D03*
X019681Y052601D03*
X039181Y059601D03*
X044181Y063601D03*
X047181Y067101D03*
X053181Y064101D03*
X056181Y059601D03*
X056181Y052601D03*
X042181Y049601D03*
X050181Y035101D03*
X047181Y027601D03*
X044181Y024101D03*
X039181Y020101D03*
X042181Y010101D03*
X056181Y013101D03*
X056181Y020101D03*
X053181Y024601D03*
X050181Y074601D03*
X013681Y074601D03*
D12*
X013681Y073601D03*
X009681Y067101D03*
X007681Y064601D03*
X002681Y058601D03*
X006681Y049601D03*
X018681Y052601D03*
X018681Y059601D03*
X016681Y063101D03*
X039181Y058601D03*
X044181Y064601D03*
X046181Y067101D03*
X050181Y073601D03*
X053181Y063101D03*
X055181Y059601D03*
X055181Y052601D03*
X043181Y049601D03*
X050181Y034101D03*
X046181Y027601D03*
X044181Y025101D03*
X039181Y019101D03*
X043181Y010101D03*
X055181Y013101D03*
X055181Y020101D03*
X053181Y023601D03*
X018681Y020101D03*
X016681Y023601D03*
X009681Y027601D03*
X007681Y025101D03*
X002681Y019101D03*
X006681Y010101D03*
X018681Y013101D03*
X013681Y034101D03*
D13*
X006666Y036798D03*
X004697Y036798D03*
X020697Y036798D03*
X022666Y036798D03*
X033378Y046617D03*
X033378Y048585D03*
X033378Y054117D03*
X033378Y056085D03*
X041197Y036798D03*
X043166Y036798D03*
X057197Y036798D03*
X059166Y036798D03*
X069878Y046617D03*
X069878Y048585D03*
X069878Y054117D03*
X069878Y056085D03*
X059166Y076298D03*
X057197Y076298D03*
X043166Y076298D03*
X041197Y076298D03*
X022666Y076298D03*
X020697Y076298D03*
X006666Y076298D03*
X004697Y076298D03*
X033378Y016585D03*
X033378Y014617D03*
X033378Y009085D03*
X033378Y007117D03*
X069878Y007117D03*
X069878Y009085D03*
X069878Y014617D03*
X069878Y016585D03*
D14*
X063181Y019601D03*
X063181Y020601D03*
X063181Y021601D03*
X038181Y015101D03*
X038181Y014101D03*
X038181Y013101D03*
X038181Y012101D03*
X038181Y011101D03*
X026681Y019601D03*
X026681Y020601D03*
X026681Y021601D03*
X001681Y015101D03*
X001681Y014101D03*
X001681Y013101D03*
X001681Y012101D03*
X001681Y011101D03*
X001681Y050601D03*
X001681Y051601D03*
X001681Y052601D03*
X001681Y053601D03*
X001681Y054601D03*
X026681Y059101D03*
X026681Y060101D03*
X026681Y061101D03*
X038181Y054601D03*
X038181Y053601D03*
X038181Y052601D03*
X038181Y051601D03*
X038181Y050601D03*
X063181Y059101D03*
X063181Y060101D03*
X063181Y061101D03*
D15*
X063181Y058101D03*
X038181Y055601D03*
X026681Y058101D03*
X001681Y055601D03*
X026681Y018601D03*
X038181Y016101D03*
X063181Y018601D03*
X001681Y016101D03*
D16*
X006421Y033051D02*
X006941Y033051D01*
X006941Y034151D02*
X006421Y034151D01*
X006421Y072551D02*
X006941Y072551D01*
X006941Y073651D02*
X006421Y073651D01*
X042921Y073651D02*
X043441Y073651D01*
X043441Y072551D02*
X042921Y072551D01*
X042921Y034151D02*
X043441Y034151D01*
X043441Y033051D02*
X042921Y033051D01*
D17*
X041681Y041101D03*
X038681Y043601D03*
X038681Y047601D03*
X045681Y041101D03*
X038681Y008101D03*
X038681Y004101D03*
X041681Y001601D03*
X045681Y001601D03*
X009181Y001601D03*
X005181Y001601D03*
X002181Y004101D03*
X002181Y008101D03*
X005181Y041101D03*
X002181Y043601D03*
X002181Y047601D03*
X009181Y041101D03*
D18*
X010481Y037101D03*
X010481Y036101D03*
X010481Y035101D03*
X010481Y034101D03*
X010481Y073601D03*
X010481Y074601D03*
X010481Y075601D03*
X010481Y076601D03*
X046981Y076601D03*
X046981Y075601D03*
X046981Y074601D03*
X046981Y073601D03*
X046981Y037101D03*
X046981Y036101D03*
X046981Y035101D03*
X046981Y034101D03*
D19*
X056931Y034851D03*
X059431Y034851D03*
X068931Y046851D03*
X068931Y048351D03*
X067431Y053851D03*
X067431Y056351D03*
X056431Y061101D03*
X055931Y055601D03*
X045431Y062351D03*
X043431Y059601D03*
X043431Y057601D03*
X032431Y048351D03*
X032431Y046851D03*
X030931Y053851D03*
X030931Y056351D03*
X019931Y061101D03*
X019431Y055601D03*
X008931Y062351D03*
X006931Y059601D03*
X006931Y057601D03*
X020431Y074351D03*
X022931Y074351D03*
X056931Y074351D03*
X059431Y074351D03*
X022931Y034851D03*
X020431Y034851D03*
X008931Y022851D03*
X006931Y020101D03*
X006931Y018101D03*
X019431Y016101D03*
X019931Y021601D03*
X030931Y016851D03*
X030931Y014351D03*
X032431Y008851D03*
X032431Y007351D03*
X043431Y018101D03*
X043431Y020101D03*
X045431Y022851D03*
X055931Y016101D03*
X056431Y021601D03*
X067431Y016851D03*
X067431Y014351D03*
X068931Y008851D03*
X068931Y007351D03*
D20*
X002181Y002101D03*
X002181Y024101D03*
X002181Y036601D03*
X002181Y041601D03*
X002181Y063601D03*
X002181Y076101D03*
X026181Y076101D03*
X033181Y076101D03*
X038681Y076101D03*
X038681Y063601D03*
X033181Y063601D03*
X026181Y063601D03*
X026181Y041601D03*
X026181Y036601D03*
X033181Y036601D03*
X033181Y041601D03*
X038681Y041601D03*
X038681Y036601D03*
X038681Y024101D03*
X033181Y024101D03*
X026181Y024101D03*
X026181Y002101D03*
X033181Y002101D03*
X038681Y002101D03*
X062681Y002101D03*
X069681Y002101D03*
X069681Y024101D03*
X062681Y024101D03*
X062681Y036601D03*
X062681Y041601D03*
X069681Y041601D03*
X069681Y036601D03*
X069681Y063601D03*
X062681Y063601D03*
X062681Y076101D03*
X069681Y076101D03*
M02*
